<svg width="256" height="256" xmlns="http://www.w3.org/2000/svg">
    <path d="M77.004 105A2.006 2.006 0 0 0 75 106.994v4.661c0 .826.664 1.495 1.497 1.495h44.006c.827 0 1.497-.667 1.497-1.495v-5.16c0-.826-.664-1.495-1.497-1.495H77.004zm-.507 12c-.827 0-1.497.667-1.497 1.495v5.16c0 .826.664 1.495 1.497 1.495h44.006c.827 0 1.497-.667 1.497-1.495v-5.16c0-.826-.664-1.495-1.497-1.495H76.497zm0 13c-.827 0-1.497.667-1.497 1.495v5.16c0 .826.664 1.495 1.497 1.495h44.006c.827 0 1.497-.667 1.497-1.495v-5.16c0-.826-.664-1.495-1.497-1.495H76.497zm0 13c-.827 0-1.497.667-1.497 1.495v5.16c0 .826.664 1.495 1.497 1.495h44.006c.827 0 1.497-.667 1.497-1.495v-5.16c0-.826-.664-1.495-1.497-1.495H76.497zM63 150.503c0 .827.667 1.497 1.495 1.497h5.16c.826 0 1.495-.664 1.495-1.497v-44.006c0-.827-.667-1.497-1.495-1.497h-5.16c-.826 0-1.495.664-1.495 1.497v44.006zm-27 0c0 .827.667 1.497 1.495 1.497h5.16c.826 0 1.495-.664 1.495-1.497v-44.006c0-.827-.667-1.497-1.495-1.497h-5.16c-.826 0-1.495.664-1.495 1.497v44.006zm-5.85 0c0 .827-.667 1.497-1.495 1.497h-5.16A1.492 1.492 0 0 1 22 150.503v-44.006c0-.827.667-1.497 1.495-1.497h5.16c.826 0 1.495.664 1.495 1.497v44.006zm18.85 0c0 .827.667 1.497 1.495 1.497h5.16c.826 0 1.495-.664 1.495-1.497v-44.006c0-.827-.667-1.497-1.495-1.497h-5.16c-.826 0-1.495.664-1.495 1.497v44.006zm92.62-45.154c0 1.015-.205 45.676-.205 45.676l20.818-.014.303-7.176-14.247-.416.04-37.945s-6.71-1.141-6.71-.125zm29.114 1.851c-1.492.056-2.948 1.127-2.88 2.23.067 1.105 1.691 2.19 3.148 2.133 1.457-.055 2.796-1.286 2.73-2.357-.065-1.071-1.505-2.064-2.998-2.007zm-2.557 14.816l-.112 28.517 6.094-.006.495-28.665zm11.063.208l-.425 28.885h8.024l-.411-20.065 3.351-4.204 4.774-.205 3.758 3.86.202 19.702 8.023-.004-1.53-24.054-6.05-4.922-8.201-.513-5.434 3.453-.008-4.101zm31.406-21.795l.146 50.145 6.297.305s1.209-15.156.604-14.344c-.604.813 9.243 13.711 9.243 13.711l9.445-.204-11.992-16.081 9.952-12.906-7.711-.308-8.309 10.245.088-30.412-7.763-.151z" fill-rule="evenodd"/>
</svg>
