<?xml version="1.0" encoding="UTF-8" standalone="no"?>
<svg
   xmlns:dc="http://purl.org/dc/elements/1.1/"
   xmlns:cc="http://creativecommons.org/ns#"
   xmlns:rdf="http://www.w3.org/1999/02/22-rdf-syntax-ns#"
   xmlns:svg="http://www.w3.org/2000/svg"
   xmlns="http://www.w3.org/2000/svg"
   xmlns:sodipodi="http://sodipodi.sourceforge.net/DTD/sodipodi-0.dtd"
   xmlns:inkscape="http://www.inkscape.org/namespaces/inkscape"
   width="256"
   height="256"
   version="1.1"
   id="svg18"
   sodipodi:docname="logo-au.svg"
   inkscape:version="1.0.1 (3bc2e813f5, 2020-09-07)">
  <metadata
     id="metadata24">
    <rdf:RDF>
      <cc:Work
         rdf:about="">
        <dc:format>image/svg+xml</dc:format>
        <dc:type
           rdf:resource="http://purl.org/dc/dcmitype/StillImage" />
      </cc:Work>
    </rdf:RDF>
  </metadata>
  <defs
     id="defs22" />
  <sodipodi:namedview
     pagecolor="#ffffff"
     bordercolor="#666666"
     borderopacity="1"
     objecttolerance="10"
     gridtolerance="10"
     guidetolerance="10"
     inkscape:pageopacity="0"
     inkscape:pageshadow="2"
     inkscape:window-width="1920"
     inkscape:window-height="1025"
     id="namedview20"
     showgrid="false"
     inkscape:zoom="3.2773438"
     inkscape:cx="128"
     inkscape:cy="128"
     inkscape:window-x="0"
     inkscape:window-y="27"
     inkscape:window-maximized="1"
     inkscape:current-layer="svg18" />
  <g
     fill="none"
     fill-rule="evenodd"
     id="g16"
     style="fill:#e6e6e6">
    <path
       d="m 79.912,85.68 c 0.783,0.78 0.947,2.176 0.366,3.116 l -3.784,6.12 a 36.609,36.609 0 0 0 -1.874,3.536 l -3.136,6.995 c -0.454,1.012 -0.98,2.722 -1.175,3.81 l -1.55,8.697 a 30.266,30.266 0 0 0 -0.389,3.974 l -0.155,8.611 c -0.02,1.103 0.169,2.863 0.424,3.948 l 1.983,8.408 c 0.254,1.077 0.846,2.754 1.327,3.755 l 3.084,6.417 a 37.932,37.932 0 0 0 1.955,3.484 l 2.728,4.21 c 0.602,0.927 0.468,2.322 -0.296,3.112 l -2.834,2.93 a 1.881,1.881 0 0 1 -2.754,-0.03 l -5.782,-6.179 c -0.756,-0.808 -1.68,-2.301 -2.06,-3.331 l -4.543,-12.277 c -0.382,-1.031 -0.84,-2.754 -1.023,-3.84 l -1.506,-8.952 c -0.183,-1.09 -0.312,-2.859 -0.288,-3.972 l 0.22,-10.16 c 0.023,-1.104 0.203,-2.889 0.397,-3.96 l 1.802,-9.972 c 0.196,-1.083 0.71,-2.79 1.142,-3.802 l 2.585,-6.042 a 45.226,45.226 0 0 1 1.769,-3.59 l 3.526,-6.288 a 57.936,57.936 0 0 1 2.097,-3.402 l 0.11,-0.162 c 0.617,-0.913 1.752,-1.02 2.535,-0.24 z"
       fill="#000000"
       id="path2"
       style="fill:#e6e6e6" />
    <path
       d="m 57.286,68.45 c 0.658,-0.885 1.87,-1.026 2.72,-0.303 l 4.153,3.526 c 0.844,0.717 1.084,2.068 0.524,3.036 l -3.54,6.12 c -0.555,0.96 -1.447,2.505 -2.002,3.471 l -2.281,3.97 a 30.764,30.764 0 0 0 -1.71,3.6 l -2.1,5.485 a 60.006,60.006 0 0 0 -1.275,3.778 l -1.787,6.095 c -0.31,1.057 -0.64,2.8 -0.737,3.902 l -0.612,6.869 a 46.373,46.373 0 0 0 -0.148,3.98 l 0.14,9.312 c 0.016,1.1 0.16,2.881 0.322,3.97 l 1.29,8.706 c 0.163,1.093 0.612,2.823 0.999,3.85 l 3.007,7.984 a 45.976,45.976 0 0 0 1.605,3.665 l 3.236,6.447 a 38.14,38.14 0 0 0 2.018,3.455 l 3.222,4.79 c 0.617,0.917 0.458,2.263 -0.362,3.014 l -3.783,3.461 c -0.817,0.748 -1.974,0.607 -2.583,-0.312 l -8.193,-12.378 a 32,32 0 0 1 -1.947,-3.483 l -3.912,-8.412 c -0.466,-1.003 -1.03,-2.7 -1.255,-3.782 l -2.133,-10.203 a 61.102,61.102 0 0 1 -0.664,-3.951 l -1.223,-9.584 c -0.14,-1.096 -0.206,-2.884 -0.148,-3.977 l 0.515,-9.715 c 0.058,-1.1 0.276,-2.865 0.489,-3.951 L 41.166,100.5 c 0.212,-1.081 0.69,-2.793 1.073,-3.834 l 2.793,-7.608 a 31.649,31.649 0 0 1 1.656,-3.628 l 4.864,-8.816 a 35.45,35.45 0 0 1 2.159,-3.355 l 3.575,-4.808 z"
       fill="#000000"
       id="path4"
       style="fill:#e6e6e6" />
    <path
       d="m 42.098,56.514 c 0.635,-0.903 1.797,-1.004 2.58,-0.238 l 3.885,3.795 c 0.79,0.772 0.942,2.141 0.332,3.07 l -4.027,6.128 a 65.013,65.013 0 0 0 -2.066,3.413 l -1.98,3.562 a 79.39,79.39 0 0 0 -1.83,3.543 l -3.227,6.74 a 37.204,37.204 0 0 0 -1.488,3.712 l -1.363,4.153 a 49.979,49.979 0 0 0 -1.063,3.863 l -1.62,7.233 a 28.695,28.695 0 0 0 -0.54,3.955 l -0.525,10.074 a 239.28,239.28 0 0 1 -0.249,4 l -0.377,5.214 c -0.08,1.104 -0.05,2.887 0.068,3.995 l 0.779,7.32 c 0.117,1.104 0.417,2.879 0.665,3.947 l 2.534,10.9 c 0.25,1.076 0.814,2.78 1.247,3.778 l 4.035,9.294 a 50.323,50.323 0 0 0 1.76,3.576 l 3.96,7.163 c 0.535,0.966 1.485,2.47 2.133,3.373 l 3.497,4.875 c 0.644,0.897 0.47,2.184 -0.391,2.876 l -3.387,2.723 a 2.003,2.003 0 0 1 -2.817,-0.308 l -6.017,-7.449 c -0.695,-0.861 -1.682,-2.358 -2.198,-3.335 l -4.875,-9.219 a 86.709,86.709 0 0 1 -1.77,-3.587 l -2.76,-6.007 c -0.458,-1 -1.073,-2.664 -1.377,-3.733 L 21.27,150.63 a 34.358,34.358 0 0 1 -0.82,-3.91 l -1.552,-11.235 a 34.236,34.236 0 0 1 -0.268,-3.994 l 0.033,-10.192 c 0.003,-1.107 0.084,-2.889 0.182,-3.997 l 1.217,-13.835 c 0.097,-1.1 0.45,-2.844 0.79,-3.899 l 2.674,-8.303 a 122,122 0 0 1 1.298,-3.774 l 2.952,-8.056 c 0.379,-1.032 1.148,-2.628 1.723,-3.571 l 5.504,-9.03 a 73.448,73.448 0 0 1 2.188,-3.34 z M 177.006,85.68 c -0.784,0.78 -0.947,2.176 -0.366,3.116 l 3.783,6.12 c 0.581,0.941 1.42,2.523 1.874,3.536 l 3.137,6.995 c 0.454,1.012 0.98,2.722 1.174,3.81 l 1.55,8.697 c 0.196,1.092 0.37,2.863 0.39,3.974 l 0.154,8.611 c 0.02,1.103 -0.168,2.863 -0.424,3.948 l -1.983,8.408 c -0.254,1.077 -0.846,2.754 -1.326,3.755 l -3.084,6.417 a 37.932,37.932 0 0 1 -1.956,3.484 l -2.728,4.21 c -0.601,0.927 -0.468,2.322 0.296,3.112 l 2.834,2.93 a 1.881,1.881 0 0 0 2.754,-0.03 l 5.783,-6.179 c 0.756,-0.808 1.679,-2.301 2.06,-3.331 l 4.542,-12.277 c 0.382,-1.031 0.84,-2.754 1.023,-3.84 l 1.506,-8.952 c 0.183,-1.09 0.312,-2.859 0.288,-3.972 l -0.219,-10.16 a 30.693,30.693 0 0 0 -0.398,-3.96 l -1.802,-9.972 c -0.196,-1.083 -0.71,-2.79 -1.142,-3.802 l -2.585,-6.042 a 45.226,45.226 0 0 0 -1.769,-3.59 l -3.526,-6.288 a 57.937,57.937 0 0 0 -2.097,-3.402 l -0.11,-0.162 c -0.616,-0.913 -1.752,-1.02 -2.535,-0.24 z"
       fill="#000000"
       id="path6"
       style="fill:#e6e6e6" />
    <path
       d="m 198.805,68.45 c -0.658,-0.885 -1.87,-1.026 -2.72,-0.303 l -4.152,3.526 c -0.844,0.717 -1.084,2.068 -0.524,3.036 l 3.54,6.12 c 0.555,0.96 1.446,2.505 2.002,3.471 l 2.281,3.969 c 0.55,0.958 1.316,2.568 1.71,3.6 l 2.1,5.485 c 0.395,1.03 0.967,2.729 1.275,3.778 l 1.786,6.095 c 0.31,1.057 0.64,2.8 0.738,3.902 l 0.612,6.869 a 46.03,46.03 0 0 1 0.147,3.98 l -0.138,9.312 a 36.39,36.39 0 0 1 -0.323,3.97 l -1.291,8.706 c -0.162,1.093 -0.611,2.823 -0.998,3.85 l -3.007,7.984 a 45.976,45.976 0 0 1 -1.605,3.665 L 197,165.912 a 38.14,38.14 0 0 1 -2.017,3.455 l -3.222,4.79 c -0.617,0.917 -0.459,2.263 0.362,3.014 l 3.783,3.461 c 0.817,0.748 1.974,0.607 2.583,-0.312 l 8.192,-12.378 a 31.84,31.84 0 0 0 1.948,-3.483 l 3.912,-8.412 c 0.466,-1.003 1.03,-2.7 1.255,-3.782 l 2.133,-10.203 c 0.227,-1.086 0.524,-2.855 0.664,-3.951 l 1.223,-9.584 c 0.14,-1.096 0.206,-2.884 0.148,-3.977 l -0.515,-9.715 a 34.082,34.082 0 0 0 -0.49,-3.951 l -2.035,-10.385 a 30.262,30.262 0 0 0 -1.072,-3.834 l -2.793,-7.608 a 31.649,31.649 0 0 0 -1.656,-3.628 l -4.865,-8.816 a 35.45,35.45 0 0 0 -2.158,-3.355 l -3.576,-4.808 z"
       fill="#000000"
       id="path8"
       style="fill:#e6e6e6" />
    <path
       d="m 213.91,56.514 c -0.636,-0.903 -1.798,-1.004 -2.581,-0.238 l -3.884,3.795 c -0.79,0.772 -0.943,2.141 -0.333,3.07 l 4.028,6.128 a 65.013,65.013 0 0 1 2.066,3.413 l 1.98,3.562 a 79.39,79.39 0 0 1 1.83,3.543 l 3.226,6.74 a 37.204,37.204 0 0 1 1.489,3.712 l 1.362,4.153 a 49.979,49.979 0 0 1 1.064,3.863 l 1.618,7.233 c 0.242,1.078 0.485,2.855 0.542,3.955 l 0.525,10.074 c 0.057,1.105 0.168,2.885 0.248,4 l 0.377,5.214 c 0.08,1.104 0.05,2.887 -0.068,3.995 l -0.778,7.32 a 39.571,39.571 0 0 1 -0.666,3.947 l -2.534,10.9 c -0.25,1.076 -0.813,2.78 -1.247,3.778 l -4.034,9.294 a 50.323,50.323 0 0 1 -1.76,3.576 l -3.961,7.163 a 40.954,40.954 0 0 1 -2.133,3.373 l -3.497,4.875 a 2.134,2.134 0 0 0 0.392,2.876 l 3.387,2.723 c 0.86,0.69 2.117,0.558 2.817,-0.308 l 6.016,-7.449 c 0.696,-0.861 1.682,-2.358 2.199,-3.335 l 4.875,-9.219 a 86.709,86.709 0 0 0 1.77,-3.587 l 2.759,-6.007 c 0.459,-1 1.074,-2.664 1.378,-3.733 l 2.355,-8.283 c 0.302,-1.062 0.668,-2.805 0.821,-3.91 l 1.551,-11.235 c 0.152,-1.099 0.272,-2.877 0.268,-3.994 l -0.032,-10.192 a 56.872,56.872 0 0 0 -0.182,-3.997 l -1.218,-13.835 c -0.097,-1.1 -0.45,-2.844 -0.79,-3.899 l -2.673,-8.303 c -0.34,-1.052 -0.925,-2.754 -1.299,-3.774 l -2.952,-8.056 c -0.378,-1.032 -1.148,-2.628 -1.723,-3.571 l -5.503,-9.03 a 73.866,73.866 0 0 0 -2.188,-3.34 l -4.908,-6.98 z M 102.013,84.997 c 4.294,-3.298 2.432,-2.657 9.931,-4.744 7.5,-2.086 8.95,-2.567 15.566,-2.253 6.616,0.314 5.915,-0.758 12.87,0.86 6.956,1.616 8.21,2.26 13.475,5.167 5.265,2.907 4.842,2.647 9.538,7.54 4.697,4.891 4.927,4.751 8.199,10.935 3.272,6.184 3.523,7.302 4.658,13.361 1.134,6.06 1.059,4.748 0.181,12.485 -0.877,7.736 -1.03,9.263 -3.334,15.315 -2.304,6.052 -2.675,6.379 -6.778,11.25 -4.102,4.873 -3.582,4.532 -9.786,8.423 -6.204,3.892 -5.957,4.167 -13.46,6.16 -7.504,1.992 -7.544,1.858 -15.668,1.574 -8.125,-0.285 -9.33,-0.124 -16.18,-2.69 -6.85,-2.565 -7.167,-3.455 -12.554,-8.072 -5.388,-4.617 -6.116,-6.012 -9.437,-10.77 -3.32,-4.76 -3.656,-4.459 -5.334,-10.397 -1.678,-5.937 -1.135,-4.796 -1.138,-12.512 -0.003,-7.716 -0.977,-7.665 1.128,-15.442 2.105,-7.777 2.607,-8.373 7.06,-14.808 4.452,-6.434 6.769,-8.084 11.063,-11.382 z M 82.196,225.078 c -1.105,0 -1.715,-0.847 -1.36,-1.9 l 15.606,-46.222 c 0.354,-1.049 1.535,-1.9 2.648,-1.9 h 5.13 c 1.109,0 2.308,0.848 2.676,1.885 l 16.418,46.253 c 0.37,1.04 -0.22,1.9 -1.328,1.92 l -5.106,0.09 c -1.103,0.02 -2.324,-0.798 -2.726,-1.825 l -3.824,-9.76 c -0.402,-1.026 -1.62,-1.86 -2.72,-1.86 H 95.864 c -1.1,0 -2.313,0.834 -2.712,1.867 l -3.704,9.586 c -0.398,1.03 -1.618,1.866 -2.721,1.866 h -4.532 z"
       fill="#000000"
       id="path10"
       style="fill:#e6e6e6" />
    <path
       d="m 97.662,204.547 c -1.1,0 -1.786,-0.881 -1.54,-1.94 l 3.923,-16.857 h 2.65 l 4.561,18.797 z"
       stroke="#979797"
       fill="#ffffff"
       id="path12"
       style="fill:#e6e6e6" />
    <path
       d="m 136.475,175.714 8.486,-0.137 0.716,35.126 c 0,0 0.778,4.31 2.726,6.32 1.948,2.01 5.173,1.827 5.173,1.827 0,0 4.89,0.83 7.523,-0.299 2.632,-1.128 3.205,-1.82 4.531,-4.867 1.326,-3.046 0.836,-7.462 0.836,-7.462 l -0.266,-30.162 10.322,-0.124 -0.439,32.3 c 0,0 -0.609,5.629 -3.762,10.018 -3.154,4.39 -2.916,4.47 -8.14,6.55 -5.226,2.079 -6.049,2.137 -11.194,1.144 -5.145,-0.994 -7.546,-2.597 -10.91,-5.22 -3.365,-2.621 -4.31,-5.86 -4.31,-5.86 l -1.233,-4.5 -0.06,-34.654 z"
       fill="#000000"
       id="path14"
       style="fill:#e6e6e6" />
  </g>
</svg>
