<svg width="256" height="256" xmlns="http://www.w3.org/2000/svg">
    <g fill="none" fill-rule="evenodd">
        <path d="M79.912 85.68c.783.78.947 2.176.366 3.116l-3.784 6.12a36.609 36.609 0 0 0-1.874 3.536l-3.136 6.995c-.454 1.012-.98 2.722-1.175 3.81l-1.55 8.697a30.266 30.266 0 0 0-.389 3.974l-.155 8.611c-.02 1.103.169 2.863.424 3.948l1.983 8.408c.254 1.077.846 2.754 1.327 3.755l3.084 6.417a37.932 37.932 0 0 0 1.955 3.484l2.728 4.21c.602.927.468 2.322-.296 3.112l-2.834 2.93a1.881 1.881 0 0 1-2.754-.03l-5.782-6.179c-.756-.808-1.68-2.301-2.06-3.331l-4.543-12.277c-.382-1.031-.84-2.754-1.023-3.84l-1.506-8.952c-.183-1.09-.312-2.859-.288-3.972l.22-10.16c.023-1.104.203-2.889.397-3.96l1.802-9.972c.196-1.083.71-2.79 1.142-3.802l2.585-6.042a45.226 45.226 0 0 1 1.769-3.59l3.526-6.288a57.936 57.936 0 0 1 2.097-3.402l.11-.162c.617-.913 1.752-1.02 2.535-.24l5.099 5.076z" fill="#000"/>
        <path d="M57.286 68.45c.658-.885 1.87-1.026 2.72-.303l4.153 3.526c.844.717 1.084 2.068.524 3.036l-3.54 6.12c-.555.96-1.447 2.505-2.002 3.471l-2.281 3.97a30.764 30.764 0 0 0-1.71 3.6l-2.1 5.485a60.006 60.006 0 0 0-1.275 3.778l-1.787 6.095c-.31 1.057-.64 2.8-.737 3.902l-.612 6.869a46.373 46.373 0 0 0-.148 3.98l.14 9.312c.016 1.1.16 2.881.322 3.97l1.29 8.706c.163 1.093.612 2.823.999 3.85l3.007 7.984a45.976 45.976 0 0 0 1.605 3.665l3.236 6.447a38.14 38.14 0 0 0 2.018 3.455l3.222 4.79c.617.917.458 2.263-.362 3.014l-3.783 3.461c-.817.748-1.974.607-2.583-.312l-8.193-12.378a32 32 0 0 1-1.947-3.483l-3.912-8.412c-.466-1.003-1.03-2.7-1.255-3.782l-2.133-10.203a61.102 61.102 0 0 1-.664-3.951l-1.223-9.584c-.14-1.096-.206-2.884-.148-3.977l.515-9.715c.058-1.1.276-2.865.489-3.951l2.035-10.385c.212-1.081.69-2.793 1.073-3.834l2.793-7.608a31.649 31.649 0 0 1 1.656-3.628l4.864-8.816a35.45 35.45 0 0 1 2.159-3.355l3.575-4.808z" fill="#000"/>
        <path d="M42.098 56.514c.635-.903 1.797-1.004 2.58-.238l3.885 3.795c.79.772.942 2.141.332 3.07l-4.027 6.128a65.013 65.013 0 0 0-2.066 3.413l-1.98 3.562a79.39 79.39 0 0 0-1.83 3.543l-3.227 6.74a37.204 37.204 0 0 0-1.488 3.712l-1.363 4.153a49.979 49.979 0 0 0-1.063 3.863l-1.62 7.233a28.695 28.695 0 0 0-.54 3.955l-.525 10.074a239.28 239.28 0 0 1-.249 4l-.377 5.214c-.08 1.104-.05 2.887.068 3.995l.779 7.32c.117 1.104.417 2.879.665 3.947l2.534 10.9c.25 1.076.814 2.78 1.247 3.778l4.035 9.294a50.323 50.323 0 0 0 1.76 3.576l3.96 7.163c.535.966 1.485 2.47 2.133 3.373l3.497 4.875c.644.897.47 2.184-.391 2.876l-3.387 2.723a2.003 2.003 0 0 1-2.817-.308l-6.017-7.449c-.695-.861-1.682-2.358-2.198-3.335l-4.875-9.219a86.709 86.709 0 0 1-1.77-3.587l-2.76-6.007c-.458-1-1.073-2.664-1.377-3.733l-2.356-8.283a34.358 34.358 0 0 1-.82-3.91l-1.552-11.235a34.236 34.236 0 0 1-.268-3.994l.033-10.192c.003-1.107.084-2.889.182-3.997l1.217-13.835c.097-1.1.45-2.844.79-3.899l2.674-8.303a122 122 0 0 1 1.298-3.774l2.952-8.056c.379-1.032 1.148-2.628 1.723-3.571l5.504-9.03a73.448 73.448 0 0 1 2.188-3.34l4.907-6.98zM177.006 85.68c-.784.78-.947 2.176-.366 3.116l3.783 6.12c.581.941 1.42 2.523 1.874 3.536l3.137 6.995c.454 1.012.98 2.722 1.174 3.81l1.55 8.697c.196 1.092.37 2.863.39 3.974l.154 8.611c.02 1.103-.168 2.863-.424 3.948l-1.983 8.408c-.254 1.077-.846 2.754-1.326 3.755l-3.084 6.417a37.932 37.932 0 0 1-1.956 3.484l-2.728 4.21c-.601.927-.468 2.322.296 3.112l2.834 2.93a1.881 1.881 0 0 0 2.754-.03l5.783-6.179c.756-.808 1.679-2.301 2.06-3.331l4.542-12.277c.382-1.031.84-2.754 1.023-3.84l1.506-8.952c.183-1.09.312-2.859.288-3.972l-.219-10.16a30.693 30.693 0 0 0-.398-3.96l-1.802-9.972c-.196-1.083-.71-2.79-1.142-3.802l-2.585-6.042a45.226 45.226 0 0 0-1.769-3.59l-3.526-6.288a57.937 57.937 0 0 0-2.097-3.402l-.11-.162c-.616-.913-1.752-1.02-2.535-.24l-5.098 5.076z" fill="#000"/>
        <path d="M198.805 68.45c-.658-.885-1.87-1.026-2.72-.303l-4.152 3.526c-.844.717-1.084 2.068-.524 3.036l3.54 6.12c.555.96 1.446 2.505 2.002 3.471l2.281 3.969c.55.958 1.316 2.568 1.71 3.6l2.1 5.485c.395 1.03.967 2.729 1.275 3.778l1.786 6.095c.31 1.057.64 2.8.738 3.902l.612 6.869a46.03 46.03 0 0 1 .147 3.98l-.138 9.312a36.39 36.39 0 0 1-.323 3.97l-1.291 8.706c-.162 1.093-.611 2.823-.998 3.85l-3.007 7.984a45.976 45.976 0 0 1-1.605 3.665L197 165.912a38.14 38.14 0 0 1-2.017 3.455l-3.222 4.79c-.617.917-.459 2.263.362 3.014l3.783 3.461c.817.748 1.974.607 2.583-.312l8.192-12.378a31.84 31.84 0 0 0 1.948-3.483l3.912-8.412c.466-1.003 1.03-2.7 1.255-3.782l2.133-10.203c.227-1.086.524-2.855.664-3.951l1.223-9.584c.14-1.096.206-2.884.148-3.977l-.515-9.715a34.082 34.082 0 0 0-.49-3.951l-2.035-10.385a30.262 30.262 0 0 0-1.072-3.834l-2.793-7.608a31.649 31.649 0 0 0-1.656-3.628l-4.865-8.816a35.45 35.45 0 0 0-2.158-3.355l-3.576-4.808z" fill="#000"/>
        <path d="M213.91 56.514c-.636-.903-1.798-1.004-2.581-.238l-3.884 3.795c-.79.772-.943 2.141-.333 3.07l4.028 6.128a65.013 65.013 0 0 1 2.066 3.413l1.98 3.562a79.39 79.39 0 0 1 1.83 3.543l3.226 6.74a37.204 37.204 0 0 1 1.489 3.712l1.362 4.153a49.979 49.979 0 0 1 1.064 3.863l1.618 7.233c.242 1.078.485 2.855.542 3.955l.525 10.074c.057 1.105.168 2.885.248 4l.377 5.214c.08 1.104.05 2.887-.068 3.995l-.778 7.32a39.571 39.571 0 0 1-.666 3.947l-2.534 10.9c-.25 1.076-.813 2.78-1.247 3.778l-4.034 9.294a50.323 50.323 0 0 1-1.76 3.576l-3.961 7.163a40.954 40.954 0 0 1-2.133 3.373l-3.497 4.875a2.134 2.134 0 0 0 .392 2.876l3.387 2.723c.86.69 2.117.558 2.817-.308l6.016-7.449c.696-.861 1.682-2.358 2.199-3.335l4.875-9.219a86.709 86.709 0 0 0 1.77-3.587l2.759-6.007c.459-1 1.074-2.664 1.378-3.733l2.355-8.283c.302-1.062.668-2.805.821-3.91l1.551-11.235c.152-1.099.272-2.877.268-3.994l-.032-10.192a56.872 56.872 0 0 0-.182-3.997l-1.218-13.835c-.097-1.1-.45-2.844-.79-3.899l-2.673-8.303c-.34-1.052-.925-2.754-1.299-3.774l-2.952-8.056c-.378-1.032-1.148-2.628-1.723-3.571l-5.503-9.03a73.866 73.866 0 0 0-2.188-3.34l-4.908-6.98zM102.013 84.997c4.294-3.298 2.432-2.657 9.931-4.744 7.5-2.086 8.95-2.567 15.566-2.253 6.616.314 5.915-.758 12.87.86 6.956 1.616 8.21 2.26 13.475 5.167 5.265 2.907 4.842 2.647 9.538 7.54 4.697 4.891 4.927 4.751 8.199 10.935 3.272 6.184 3.523 7.302 4.658 13.361 1.134 6.06 1.059 4.748.181 12.485-.877 7.736-1.03 9.263-3.334 15.315-2.304 6.052-2.675 6.379-6.778 11.25-4.102 4.873-3.582 4.532-9.786 8.423-6.204 3.892-5.957 4.167-13.46 6.16-7.504 1.992-7.544 1.858-15.668 1.574-8.125-.285-9.33-.124-16.18-2.69-6.85-2.565-7.167-3.455-12.554-8.072-5.388-4.617-6.116-6.012-9.437-10.77-3.32-4.76-3.656-4.459-5.334-10.397-1.678-5.937-1.135-4.796-1.138-12.512-.003-7.716-.977-7.665 1.128-15.442s2.607-8.373 7.06-14.808c4.452-6.434 6.769-8.084 11.063-11.382zM82.196 225.078c-1.105 0-1.715-.847-1.36-1.9l15.606-46.222c.354-1.049 1.535-1.9 2.648-1.9h5.13c1.109 0 2.308.848 2.676 1.885l16.418 46.253c.37 1.04-.22 1.9-1.328 1.92l-5.106.09c-1.103.02-2.324-.798-2.726-1.825l-3.824-9.76c-.402-1.026-1.62-1.86-2.72-1.86H95.864c-1.1 0-2.313.834-2.712 1.867l-3.704 9.586c-.398 1.03-1.618 1.866-2.721 1.866h-4.532z" fill="#000"/>
        <path d="M97.662 204.547c-1.1 0-1.786-.881-1.54-1.94l3.923-16.857h2.65l4.561 18.797h-9.594z" stroke="#979797" fill="#FFF"/>
        <path d="M136.475 175.714l8.486-.137.716 35.126s.778 4.31 2.726 6.32c1.948 2.01 5.173 1.827 5.173 1.827s4.89.83 7.523-.299c2.632-1.128 3.205-1.82 4.531-4.867 1.326-3.046.836-7.462.836-7.462l-.266-30.162 10.322-.124-.439 32.3s-.609 5.629-3.762 10.018c-3.154 4.39-2.916 4.47-8.14 6.55-5.226 2.079-6.049 2.137-11.194 1.144-5.145-.994-7.546-2.597-10.91-5.22-3.365-2.621-4.31-5.86-4.31-5.86l-1.233-4.5-.06-34.654z" fill="#000"/>
    </g>
</svg>
