<?xml version="1.0" encoding="UTF-8" standalone="no"?>
<svg
   xmlns:dc="http://purl.org/dc/elements/1.1/"
   xmlns:cc="http://creativecommons.org/ns#"
   xmlns:rdf="http://www.w3.org/1999/02/22-rdf-syntax-ns#"
   xmlns:svg="http://www.w3.org/2000/svg"
   xmlns="http://www.w3.org/2000/svg"
   xmlns:sodipodi="http://sodipodi.sourceforge.net/DTD/sodipodi-0.dtd"
   xmlns:inkscape="http://www.inkscape.org/namespaces/inkscape"
   width="256"
   height="256"
   version="1.1"
   id="svg8"
   sodipodi:docname="logo-vst.svg"
   inkscape:version="1.0.1 (3bc2e813f5, 2020-09-07)">
  <metadata
     id="metadata14">
    <rdf:RDF>
      <cc:Work
         rdf:about="">
        <dc:format>image/svg+xml</dc:format>
        <dc:type
           rdf:resource="http://purl.org/dc/dcmitype/StillImage" />
      </cc:Work>
    </rdf:RDF>
  </metadata>
  <defs
     id="defs12" />
  <sodipodi:namedview
     pagecolor="#ffffff"
     bordercolor="#666666"
     borderopacity="1"
     objecttolerance="10"
     gridtolerance="10"
     guidetolerance="10"
     inkscape:pageopacity="0"
     inkscape:pageshadow="2"
     inkscape:window-width="1920"
     inkscape:window-height="1025"
     id="namedview10"
     showgrid="false"
     inkscape:zoom="3.2773438"
     inkscape:cx="128"
     inkscape:cy="128"
     inkscape:window-x="0"
     inkscape:window-y="27"
     inkscape:window-maximized="1"
     inkscape:current-layer="svg8" />
  <g
     fill-rule="evenodd"
     id="g6"
     style="fill:#e6e6e6">
    <path
       d="M7.163 61.754c-.733.832-1.328 2.406-1.33 3.506L5.7 175.087c-.002 1.105.417 2.792.936 3.769l.248.469c.518.977 1.836 1.778 2.946 1.79l61.273.652c1.109.012 2.68-.584 3.498-1.318l13.167-11.835c.823-.74 2.387-1.336 3.492-1.332l31.571.114c1.106.004 2 .902 1.996 2.008l-.003 1.136a1.996 1.996 0 0 1-2.01 1.993l-10.968-.045a2.019 2.019 0 0 0-2.027 1.996l-.202 17.714a1.967 1.967 0 0 0 1.976 2.002l11.295-.015a2.064 2.064 0 0 1 2.06 1.988l.091 3.03a1.972 1.972 0 0 1-1.936 2.032l-30.826.635c-1.103.023-2.658-.558-3.482-1.303l-14.45-13.076c-.82-.742-2.387-1.347-3.484-1.351l-61.595-.23c-1.104-.004-2.704-.548-3.58-1.22l-.238-.183c-.872-.67-2.034-1.986-2.594-2.939l-.76-1.291c-.56-.954-1.016-2.627-1.018-3.717L.819 64.42c-.003-1.099.407-2.796.903-3.766l.268-.524c.501-.981 1.512-2.434 2.263-3.25l.67-.729c.75-.814 2.257-1.475 3.358-1.477l238.073-.288c1.106-.001 2.684.568 3.538 1.283l.295.247c.848.71 2.01 2.051 2.59 2.986l.767 1.236c.582.94 1.055 2.598 1.055 3.708l.007 111.612c0 1.108-.275 2.853-.62 3.915l-.223.683c-.343 1.054-1.273 2.522-2.085 3.286l-.671.631c-.809.761-2.357 1.383-3.461 1.39l-62.734.387c-1.103.007-2.649.614-3.474 1.376l-14.194 13.1c-.816.754-2.373 1.374-3.486 1.386l-24.876.269a2.03 2.03 0 0 1-2.051-1.982l-.148-6.918a2.049 2.049 0 0 0-2.037-1.998l-11.886.032a1.995 1.995 0 0 1-2-1.988l-.023-9.327a2 2 0 0 1 2-1.995l11.949-.01a2.072 2.072 0 0 0 2.06-2.003l.176-6.249c.03-1.105.943-2 2.047-2l25.666-.003c1.1 0 2.659.593 3.483 1.327l13.022 11.591c.824.733 2.386 1.326 3.481 1.325l60.165-.09c1.099-.002 2.494-.748 3.114-1.664l.367-.542c.621-.917 1.13-2.546 1.135-3.665l.53-110.113c.005-1.107-.507-2.728-1.153-3.634l-.638-.894c-.642-.9-2.048-1.629-3.166-1.627l-233.949.3c-1.106 0-2.598.678-3.33 1.509l-.433.491z"
       id="path2"
       style="fill:#e6e6e6" />
    <path
       d="M60.188 154.692c-1.1.03-2.457-.709-3.03-1.648l-35.294-57.9c-.574-.941-1.833-2.104-2.83-2.606l.675.34c-.99-.498-2.679-.899-3.795-.895l-.592.001a1.96 1.96 0 0 1-1.977-1.99l-.007.527a2.037 2.037 0 0 1 2.036-2l40.727-.096a1.909 1.909 0 0 1 1.93 1.991l.032-.812c-.044 1.103-.968 2.055-2.083 2.13l-4.445.294c-1.106.074-2.725.67-3.615 1.33l1.448-1.075c-.89.66-1.959 2.029-2.379 3.034l.509-1.217c-.424 1.015-.314 2.618.242 3.576l19.195 33.076c.558.96 1.437.962 1.972-.011l16.841-30.599c.532-.966 1.241-2.6 1.585-3.65l-.225.688c.343-1.05.164-2.668-.404-3.62l.526.881c-.566-.949-1.925-1.761-3.023-1.813l-5.214-.247c-1.103-.052-2.049-.981-2.112-2.098l.028.493a1.966 1.966 0 0 1 1.884-2.089l12.987-.551c1.103-.047 2.445-.857 3-1.816l1.526-2.637c.554-.956 1.705-2.302 2.552-2.989l3.96-3.216c.855-.694 2.385-1.578 3.415-1.973l6.71-2.572c1.031-.395 2.743-.849 3.843-1.016l6.755-1.025a29.984 29.984 0 0 1 3.975-.282l7.329.067a72.15 72.15 0 0 1 3.993.169l5.639.424c1.102.083 2.858.415 3.905.734l5.185 1.585c1.055.323 2.8.582 3.917.579l6.022-.015c1.108-.003 2.446-.782 2.992-1.748l.487-.86c.545-.964 1.879-1.798 2.99-1.866l2.219-.136a1.866 1.866 0 0 1 2.008 1.88l.023 14.055a2.023 2.023 0 0 0 1.999 2.014l58.083.369a2 2 0 0 1 1.984 2.014l-.086 15.916c-.006 1.106-.9 1.901-1.99 1.778l-.048-.005c-1.093-.124-2.267-1.066-2.626-2.115l-.2-.587a29.464 29.464 0 0 0-1.592-3.652l-.572-1.067c-.522-.972-1.652-2.312-2.517-2.985l-1.868-1.455a37.889 37.889 0 0 0-3.285-2.24l-.454-.27c-.946-.56-2.608-1.03-3.709-1.05l-9.342-.16a1.95 1.95 0 0 0-1.988 1.966l.218 51.76c.005 1.105.758 2.494 1.675 3.097l.121.08c.92.605 2.534 1.35 3.587 1.658l-.54-.158c1.061.31 2.808.563 3.928.564l2.99.002c1.108 0 2.006.9 2.007 1.998v-1a2.023 2.023 0 0 1-1.998 2.024l-45.808.617c-1.104.015-1.915-.867-1.812-1.965l-.084.894c.103-1.1 1.083-2.058 2.182-2.139l4.384-.32c1.102-.081 2.78-.57 3.75-1.095l.466-.25c.97-.525 2.01-1.803 2.331-2.873.319-1.062.568-2.822.558-3.923l-.466-49.068a1.998 1.998 0 0 0-2.012-1.98l-5.2.052c-1.1.011-2.06.916-2.144 2.013l-.06.779c-.083 1.1-1.05 2.009-2.147 2.028l-1.761.03c-1.102.019-2.412-.762-2.92-1.734l-2.411-4.611c-.51-.977-1.584-2.365-2.406-3.11l-6.008-5.439c-.818-.74-2.278-1.758-3.254-2.269l-2.363-1.237a53.479 53.479 0 0 0-3.622-1.692l-2.814-1.163c-1.02-.423-2.74-.878-3.823-1.015l-3.209-.405a34.366 34.366 0 0 0-3.97-.222l-4.426.063c-1.101.016-2.839.308-3.888.655l-2.882.954a32.782 32.782 0 0 0-3.68 1.523l-.98.493c-.985.495-2.242 1.671-2.803 2.621l-.024.041c-.562.953-1.464 2.508-2.003 3.454l.735-1.29c-.544.955-.949 2.614-.903 3.722l.004.096c.045 1.1.471 2.796.954 3.794l-.03-.062c.482.995 1.604 2.316 2.502 2.948l2.705 1.902c.9.633 2.48 1.447 3.517 1.813l7.06 2.495c1.042.368 2.74.937 3.802 1.274l7.767 2.463c1.058.335 2.775.882 3.813 1.214l3.962 1.268c1.048.335 2.755.865 3.814 1.182l-.634-.19c1.059.318 1.91-.316 1.9-1.422l-.115-15.004a1.882 1.882 0 0 1 1.989-1.913l1.543.065c1.107.046 2.469.844 3.051 1.799l2.572 4.21c.578.948.446 2.374-.307 3.198l-.065.071c-.748.819-1.59 2.339-1.884 3.409l-.86 3.13c-.293 1.064-1.332 2.317-2.323 2.8l1.364-.665c-.99.482-2.26 1.636-2.465 1.972l.672-1.1c-.371.608.149 1.448 1.178 1.885l5.023 2.13a29.642 29.642 0 0 1 3.549 1.857l2.88 1.82c.938.593 2.274 1.747 3.002 2.599l1.66 1.942a29.86 29.86 0 0 1 2.34 3.232l.338.556c.572.943 1.074 2.609 1.12 3.712l.162 3.856a50.253 50.253 0 0 1-.025 4.007l-.038.716c-.06 1.106-.63 2.718-1.286 3.618l-1.4 1.92c-.65.892-1.855 2.2-2.697 2.926l-3.172 2.736c-.84.724-2.302 1.757-3.26 2.304l-4.104 2.342c-.962.549-2.609 1.195-3.696 1.447l-8.431 1.956a67.81 67.81 0 0 1-3.94.766l-2.302.362a33.538 33.538 0 0 1-3.98.335l-12.688.148c-1.102.013-2.877-.14-3.954-.342l-5.11-.953a643.126 643.126 0 0 1-3.923-.747l-5.78-1.123a28.383 28.383 0 0 0-3.96-.426l-2.372-.053c-1.102-.024-2.774.393-3.74.936l-.02.011c-.964.542-1.841 1.867-1.938 2.754l.193-1.774c-.106.98-1.084 1.818-2.185 1.872l-1.13.056a1.875 1.875 0 0 1-1.99-1.897l.048-26.778a2.063 2.063 0 0 1 1.993-2.046l1.447-.037c1.1-.028 2.266.803 2.604 1.846l1.179 3.647c.339 1.047 1.085 2.649 1.674 3.59l1.723 2.75c.586.934 1.692 2.326 2.477 3.116l2.667 2.681c.782.787 2.184 1.891 3.12 2.46l4.913 2.99c.94.573 2.575 1.22 3.66 1.447l6.109 1.281c1.08.227 2.844.4 3.964.386l9.204-.11c1.11-.014 2.881-.207 3.965-.433l5.368-1.119c1.08-.225 2.569-1.055 3.336-1.866l3.389-3.582c.761-.806 1.632-2.31 1.948-3.378l.312-1.054c.314-1.06.27-2.771-.092-3.804l-.538-1.534c-.365-1.04-1.345-2.462-2.195-3.18l-.232-.197c-.848-.716-2.357-1.649-3.376-2.086l-4.005-1.718a62.486 62.486 0 0 0-3.736-1.434l-6.347-2.16c-1.046-.355-2.735-.926-3.788-1.28l-5.682-1.908a85.778 85.778 0 0 0-3.823-1.165l-3.71-1.017a31.447 31.447 0 0 1-3.758-1.348l-2.275-1.02a135.624 135.624 0 0 1-3.63-1.704l-3.919-1.926a29.627 29.627 0 0 1-3.432-2.05L100 109.38c-.9-.643-2.23-1.833-2.971-2.66l.4.446c-.741-.826-1.69-2.31-2.131-3.342l.643 1.504c-.436-1.02-.245-2.555.425-3.426l-.707.92c.67-.873 1.886-2.159 2.737-2.89l1.939-1.667c.84-.722 2.36-1.61 3.404-1.986l-.446.16a55.237 55.237 0 0 1 3.818-1.19c1.07-.282 1.87-1.415 1.79-2.512l-.025-.357c-.08-1.105-1.04-2.044-2.142-2.098l-.222-.011c-1.103-.054-2.396.707-2.67 1.258l.674-1.355c-.373.748-1.55 1.522-2.642 1.73l-.834.158c-1.087.207-2.648.958-3.481 1.672l-.591.507c-.836.717-2.005 2.04-2.622 2.97l-.397.598a55.39 55.39 0 0 0-2.065 3.43L63.786 152.86c-.528.97-1.85 1.782-2.948 1.812l-.65.019z"
       id="path4"
       style="fill:#e6e6e6" />
  </g>
</svg>
