<?xml version="1.0" encoding="UTF-8" standalone="no"?>
<svg
   xmlns:dc="http://purl.org/dc/elements/1.1/"
   xmlns:cc="http://creativecommons.org/ns#"
   xmlns:rdf="http://www.w3.org/1999/02/22-rdf-syntax-ns#"
   xmlns:svg="http://www.w3.org/2000/svg"
   xmlns="http://www.w3.org/2000/svg"
   xmlns:sodipodi="http://sodipodi.sourceforge.net/DTD/sodipodi-0.dtd"
   xmlns:inkscape="http://www.inkscape.org/namespaces/inkscape"
   width="256"
   height="256"
   version="1.1"
   id="svg4"
   sodipodi:docname="logo-ladspa.svg"
   inkscape:version="1.0.1 (3bc2e813f5, 2020-09-07)">
  <metadata
     id="metadata10">
    <rdf:RDF>
      <cc:Work
         rdf:about="">
        <dc:format>image/svg+xml</dc:format>
        <dc:type
           rdf:resource="http://purl.org/dc/dcmitype/StillImage" />
      </cc:Work>
    </rdf:RDF>
  </metadata>
  <defs
     id="defs8" />
  <sodipodi:namedview
     pagecolor="#ffffff"
     bordercolor="#666666"
     borderopacity="1"
     objecttolerance="10"
     gridtolerance="10"
     guidetolerance="10"
     inkscape:pageopacity="0"
     inkscape:pageshadow="2"
     inkscape:window-width="1920"
     inkscape:window-height="1025"
     id="namedview6"
     showgrid="false"
     inkscape:zoom="3.2773438"
     inkscape:cx="128"
     inkscape:cy="128"
     inkscape:window-x="0"
     inkscape:window-y="27"
     inkscape:window-maximized="1"
     inkscape:current-layer="svg4" />
  <path
     d="M8.102 100.914h12.386v30.215H39.82V141H8.102v-40.086zm62.015 33.469h-14.11L54.068 141h-12.66l15.066-40.086H69.98L85.047 141H72.086l-1.969-6.617zm-2.597-8.668l-4.43-14.41-4.403 14.41h8.833zm21.656-24.8h18.402c3.628 0 6.558.491 8.791 1.476 2.233.984 4.079 2.397 5.537 4.238 1.459 1.841 2.516 3.983 3.172 6.426.656 2.442.984 5.03.984 7.765 0 4.284-.487 7.606-1.462 9.967-.976 2.36-2.33 4.339-4.06 5.934-1.733 1.595-3.592 2.657-5.58 3.185-2.715.73-5.176 1.094-7.382 1.094H89.176v-40.086zm12.386 9.077v21.903h3.036c2.588 0 4.43-.288 5.523-.862 1.094-.574 1.95-1.577 2.57-3.008.62-1.43.93-3.75.93-6.959 0-4.247-.693-7.155-2.078-8.722-1.385-1.568-3.682-2.352-6.89-2.352h-3.09zm28.848 17.746l11.785-.738c.256 1.914.775 3.372 1.559 4.375 1.276 1.622 3.099 2.434 5.469 2.434 1.768 0 3.13-.415 4.088-1.245.957-.829 1.435-1.79 1.435-2.884 0-1.04-.456-1.97-1.367-2.79-.912-.82-3.026-1.594-6.344-2.324-5.432-1.221-9.306-2.843-11.62-4.867-2.334-2.023-3.5-4.603-3.5-7.738 0-2.06.596-4.006 1.79-5.838 1.194-1.832 2.99-3.272 5.387-4.32 2.397-1.048 5.683-1.573 9.857-1.573 5.123 0 9.028.953 11.717 2.858 2.689 1.905 4.288 4.935 4.799 9.092l-11.676.683c-.31-1.804-.962-3.117-1.955-3.937-.994-.82-2.365-1.23-4.115-1.23-1.44 0-2.525.305-3.254.915-.73.611-1.094 1.354-1.094 2.229 0 .638.3 1.212.902 1.722.584.53 1.97 1.021 4.157 1.477 5.414 1.167 9.292 2.347 11.634 3.541 2.343 1.194 4.047 2.675 5.114 4.443 1.066 1.769 1.6 3.747 1.6 5.934 0 2.57-.712 4.94-2.133 7.11-1.422 2.169-3.41 3.814-5.961 4.935-2.553 1.121-5.77 1.682-9.653 1.682-6.817 0-11.539-1.313-14.164-3.938s-4.11-5.96-4.457-10.008zm42.547-26.824h20.59c4.484 0 7.843 1.066 10.076 3.2 2.233 2.132 3.35 5.167 3.35 9.105 0 4.047-1.217 7.21-3.65 9.488-2.434 2.279-6.148 3.418-11.143 3.418h-6.782V141h-12.441v-40.086zm12.441 17.09h3.036c2.388 0 4.065-.415 5.03-1.244.967-.83 1.45-1.892 1.45-3.186 0-1.258-.42-2.324-1.258-3.199-.838-.875-2.415-1.313-4.73-1.313h-3.528v8.942zm47.961 16.379H219.25L217.309 141h-12.66l15.066-40.086h13.508L248.289 141h-12.96l-1.97-6.617zm-2.597-8.668l-4.43-14.41-4.402 14.41h8.832z"
     fill-rule="evenodd"
     id="path2"
     style="fill:#e6e6e6" />
</svg>
