<svg xmlns="http://www.w3.org/2000/svg" width="16" height="16">
    <g color="#000" fill="#2e3436">
        <path d="M4.443 1c-2.5 0-2.5 2.5-2.5 2.5v9.953c0 1.547 1.562 1.563 1.562 1.563L12.943 15c1 0 1-1 1-1H4.46c-1.518 0-1.518-1.5-1.518-1.5s0-1.44 1.481-1.442l9.519-.011V1zm.5 2H7.63c3.317 0 4.272 1.263 4.25 3.031-.03 2.468-2.19 2.856-4.814 2.947C6.444 9 5.56 9 4.943 9zm2 1v4c1.942.023 3.029-.59 3.031-1.969.003-1.768-1.272-2-3.031-2.031z" overflow="visible"/>
        <path d="M2.443 11H12.89c-1.184.492-1.296 2.458 0 3H2.443z" overflow="visible" opacity=".3"/>
    </g>
</svg>
