<svg xmlns="http://www.w3.org/2000/svg" width="16" height="16">
    <g color="#000" fill="#2e3436">
        <path d="M1 1.99v3h6v-3zm7 0v3h6v-3zM1 5.98V8.99h2v-3zm3 .008v3h3.76a4.5 4.5 0 0 1 3.271-1.97v-1.03zm8 0V7.02a4.5 4.5 0 0 1 2 .729v-1.76zm-11 4v3h6.031v-1.021A4.5 4.5 0 0 1 7 11.489a4.5 4.5 0 0 1 .031-.502V9.99z" overflow="visible"/>
        <path d="M11.44 7.92c-.407 0-.794.093-1.157.22l1.906 1.906a.984.984 0 0 1 0 1.406l-.719.75a.986.986 0 0 1-1.406 0l-1.937-1.938c-.127.363-.22.751-.22 1.157a3.54 3.54 0 0 0 3.532 3.53c.407 0 .793-.091 1.156-.218l1.22 1.188h.062l2.093-2.094-1.218-1.219c.126-.362.218-.782.218-1.187 0-1.94-1.585-3.5-3.53-3.5z" style="line-height:normal;-inkscape-font-specification:Sans;text-indent:0;text-align:start;text-decoration-line:none;text-transform:none" font-weight="400" font-family="Sans" overflow="visible"/>
    </g>
</svg>
