<svg xmlns="http://www.w3.org/2000/svg" width="16.01" height="16">
    <path d="M7.807.008c-.334.038-.655.19-.893.428l-1.88 1.89L6.854 4.15A1.5 1.5 0 0 1 7.5 4 1.5 1.5 0 0 1 9 5.5a1.5 1.5 0 0 1-.148.645l1.503 1.504A1.5 1.5 0 0 1 11 7.5 1.5 1.5 0 0 1 12.5 9a1.5 1.5 0 0 1-1.5 1.5A1.5 1.5 0 0 1 9.5 9a1.5 1.5 0 0 1 .148-.644L8.145 6.852a1.5 1.5 0 0 1-.145.06v3.176A1.5 1.5 0 0 1 9 11.5 1.5 1.5 0 0 1 7.5 13 1.5 1.5 0 0 1 6 11.5a1.5 1.5 0 0 1 1-1.412V6.912A1.5 1.5 0 0 1 6 5.5a1.5 1.5 0 0 1 .148-.644l-1.82-1.82L.42 6.962c-.545.555-.545 1.55 0 2.104l6.53 6.525c.554.544 1.55.544 2.105 0l6.531-6.49c.566-.557.566-1.582 0-2.139L9.055.436a1.44 1.44 0 0 0-.106-.07A1.525 1.525 0 0 0 7.807.008z" color="#000" overflow="visible" fill="#2e3436"/>
</svg>
