<svg xmlns="http://www.w3.org/2000/svg" width="16" height="16">
    <g color="#000" font-weight="400" font-family="sans-serif" white-space="normal" fill="#2e3436">
        <path d="M9 4v1c0 .258.13.53.313.72L10.593 7H6v2h4.594l-1.281 1.282c-.183.19-.313.409-.313.719v1h1c.31 0 .552-.09.75-.281L14.406 8 10.75 4.283c-.198-.19-.44-.281-.75-.281z" style="line-height:normal;text-indent:0;text-align:start;text-decoration-line:none;text-decoration-style:solid;text-decoration-color:#000;text-transform:none" overflow="visible"/>
        <path d="M4.033 1.005A3.049 3.049 0 0 0 1 4.038v7.918a3.049 3.049 0 0 0 3.033 3.033h7.934v-2H4.033A1.01 1.01 0 0 1 3 11.956V4.038c0-.59.444-1.033 1.033-1.033h7.934v-2z" style="line-height:normal;font-variant-ligatures:normal;font-variant-position:normal;font-variant-caps:normal;font-variant-numeric:normal;font-variant-alternates:normal;font-feature-settings:normal;text-indent:0;text-align:start;text-decoration-line:none;text-decoration-style:solid;text-decoration-color:#000;text-transform:none;text-orientation:mixed;shape-padding:0;isolation:auto;mix-blend-mode:normal" clip-rule="evenodd" overflow="visible" fill-rule="evenodd" image-rendering="optimizeQuality" shape-rendering="geometricPrecision" text-rendering="geometricPrecision"/>
    </g>
</svg>
