<svg xmlns="http://www.w3.org/2000/svg" width="16.06" height="16.048">
    <g color="#000" font-weight="400" font-family="sans-serif" white-space="normal" fill="#2e3436">
        <path d="M11 .048c-1.11 0-2 .914-2 2.017v4.776l-.854.853a.5.5 0 0 0-.015.691l.869.95V14c0 .657.234 1.21.623 1.562.389.353.897.499 1.39.485l-.027-1c-.28.008-.521-.073-.69-.225-.167-.152-.296-.386-.296-.822V9.14a.5.5 0 0 0-.13-.338l-.679-.74.663-.662A.5.5 0 0 0 10 7.048V2.065c0-.585.421-1.017 1-1.017zM0 9.048v6.98h2v-4.98h2.998s.29.013.553.144c.262.131.449.193.449.86v3.996h2V12.05c0-1.333-.813-2.276-1.55-2.646-.739-.37-1.448-.357-1.448-.357H5z" style="line-height:normal;font-variant-ligatures:normal;font-variant-position:normal;font-variant-caps:normal;font-variant-numeric:normal;font-variant-alternates:normal;font-feature-settings:normal;text-indent:0;text-align:start;text-decoration-line:none;text-decoration-style:solid;text-decoration-color:#000;text-transform:none;text-orientation:mixed;shape-padding:0;isolation:auto;mix-blend-mode:normal" overflow="visible"/>
        <path d="M3 9.048v7h2v-7zM13.014.048v1c.579 0 1 .432 1 1.017v4.983a.5.5 0 0 0 .146.353l.662.662-.677.74a.5.5 0 0 0-.131.338v4.86c0 .436-.127.67-.295.822-.168.152-.41.233-.69.225l-.029 1c.493.014 1.002-.132 1.39-.485.39-.353.624-.905.624-1.562V9.335l.869-.95a.5.5 0 0 0-.016-.69l-.853-.854V2.065c0-1.103-.89-2.017-2-2.017z" style="line-height:normal;font-variant-ligatures:normal;font-variant-position:normal;font-variant-caps:normal;font-variant-numeric:normal;font-variant-alternates:normal;font-feature-settings:normal;text-indent:0;text-align:start;text-decoration-line:none;text-decoration-style:solid;text-decoration-color:#000;text-transform:none;text-orientation:mixed;shape-padding:0;isolation:auto;mix-blend-mode:normal" overflow="visible"/>
    </g>
</svg>
