<svg xmlns="http://www.w3.org/2000/svg" width="16" height="16">
    <path d="M7.5 1c-.277 0-.5.223-.5.5V5s0 1-1 1H5c-.676-.01-1.014.495-1.014 1H4v1h9V7h.014c0-.505-.338-1.01-1.014-1h-1c-1 0-1-1-1-1V1.5c0-.277-.223-.5-.5-.5zM8 2h1v1H8zM4 9v1s0 4-2 4h3.5L7 11l-.5 3h2l1.5-3-.5 3H11c2 0 2-4 2-4V9z" style="line-height:normal;font-variant-ligatures:normal;font-variant-position:normal;font-variant-caps:normal;font-variant-numeric:normal;font-variant-alternates:normal;font-feature-settings:normal;text-indent:0;text-align:start;text-decoration-line:none;text-decoration-style:solid;text-decoration-color:#000;text-transform:none;text-orientation:mixed;shape-padding:0;isolation:auto;mix-blend-mode:normal" color="#000" font-weight="400" font-family="sans-serif" white-space="normal" overflow="visible" fill="#2e3436" fill-rule="evenodd"/>
</svg>
