<svg height="24" preserveAspectRatio="xMinYMin" viewBox="-2 -4 24 24" width="24" xmlns="http://www.w3.org/2000/svg"><path d="m2.776 5.106.872 5.894h12.736l.867-5.98-3.493 3.02-3.755-4.827-3.909 4.811zm10.038-1.537-.078.067.141.014 1.167 1.499 1.437-1.242.14.014-.062-.082 2.413-2.086a1 1 0 0 1 1.643.9l-1.5 10.347h-16.193l-1.523-10.3a1 1 0 0 1 1.65-.898l2.301 2.025-.05.06.109-.008 1.444 1.27 1.212-1.493.109-.009-.06-.052 2.131-2.619a1 1 0 0 1 1.565.017l2.005 2.576zm-10.814 10.431h16v1a1 1 0 0 1 -1 1h-14a1 1 0 0 1 -1-1z"/></svg>