<?xml version="1.0" encoding="UTF-8"?>
<svg xmlns="http://www.w3.org/2000/svg" height="16px" viewBox="0 0 16 16" width="16px"><g fill="#222222"><path d="m 4 8.015625 c 0.003906 0.261719 0.113281 0.515625 0.300781 0.703125 l 3 2.917969 c 0.390625 0.375 1.007813 0.375 1.394531 0 l 3 -2.917969 c 0.398438 -0.386719 0.40625 -1.019531 0.019532 -1.414062 c -0.382813 -0.398438 -1.015625 -0.40625 -1.414063 -0.019532 l -1.300781 1.265625 v -7.550781 c 0 -0.550781 -0.449219 -1 -1 -1 s -1 0.449219 -1 1 v 7.550781 l -1.304688 -1.265625 c -0.394531 -0.386718 -1.027343 -0.378906 -1.414062 0.019532 c -0.183594 0.1875 -0.285156 0.445312 -0.28125 0.710937 z m 0 0" fill-rule="evenodd"/><path d="m 1 15 h 14 v -2 h -14 z m 0 0"/></g></svg>
