<?xml version="1.0" encoding="UTF-8"?>
<svg xmlns="http://www.w3.org/2000/svg" height="16px" viewBox="0 0 16 16" width="16px"><path d="m 3 0 c -1.644531 0 -3 1.355469 -3 3 v 1 h 2 v -1 c 0 -0.570312 0.429688 -1 1 -1 h 1 v -2 z m 3 0 v 2 h 4 v -2 z m 6 0 v 2 h 1 c 0.570312 0 1 0.429688 1 1 v 1 h 2 v -1 c 0 -1.644531 -1.355469 -3 -3 -3 z m -12 6 v 4 h 2 v -4 z m 14 0 v 4 h 2 v -4 z m -14 6 v 1 c 0 1.644531 1.355469 3 3 3 h 1 v -2 h -1 c -0.570312 0 -1 -0.429688 -1 -1 v -1 z m 14 0 v 1 c 0 0.570312 -0.429688 1 -1 1 h -1 v 2 h 1 c 1.644531 0 3 -1.355469 3 -3 v -1 z m -8 2 v 2 h 4 v -2 z m 0 0" fill="#222222"/></svg>
