<?xml version="1.0" encoding="UTF-8"?>
<svg xmlns="http://www.w3.org/2000/svg" height="16px" viewBox="0 0 16 16" width="16px"><path d="m 12.066406 1 c -0.085937 -0.003906 -0.171875 0 -0.257812 0.015625 c -0.261719 0.054687 -0.492188 0.207031 -0.636719 0.425781 l -2.398437 3.558594 h 2.414062 l 1.640625 -2.441406 c 0.148437 -0.21875 0.203125 -0.488282 0.152344 -0.75 c -0.050781 -0.261719 -0.203125 -0.492188 -0.421875 -0.640625 c -0.144532 -0.097657 -0.316406 -0.152344 -0.492188 -0.167969 z m -9.066406 1 c -1.648438 0 -3 1.351562 -3 3 s 1.351562 3 3 3 h 3.753906 l -1.585937 2.355469 l -0.652344 0.96875 l -0.0625 0.097656 c -0.003906 0.003906 -0.007813 0.007813 -0.007813 0.011719 c -0.28125 0.457031 -0.445312 0.992187 -0.445312 1.566406 c 0 1.648438 1.351562 3 3 3 s 3 -1.351562 3 -3 c 0 -1.386719 -0.960938 -2.566406 -2.25 -2.902344 l 1.417969 -2.097656 h 5.832031 c 0.550781 0 1 -0.449219 1 -1 s -0.449219 -1 -1 -1 h -9.171875 c 0.109375 -0.3125 0.171875 -0.648438 0.171875 -1 c 0 -1.648438 -1.351562 -3 -3 -3 z m 0 1.5 c 0.050781 0 0.101562 0.003906 0.152344 0.007812 c 0.042968 0.003907 0.082031 0.011719 0.121094 0.019532 c 0.046874 0.007812 0.09375 0.015625 0.136718 0.03125 c 0.503906 0.136718 0.894532 0.527344 1.03125 1.03125 c 0.015625 0.042968 0.023438 0.089844 0.03125 0.136718 c 0.007813 0.039063 0.015625 0.078126 0.019532 0.121094 v 0.003906 c 0.003906 0.046876 0.007812 0.097657 0.007812 0.148438 c 0 0.132812 -0.015625 0.257812 -0.050781 0.382812 v 0.011719 c -0.035157 0.125 -0.085938 0.246094 -0.148438 0.355469 c -0.054687 0.089844 -0.113281 0.171875 -0.179687 0.25 h -0.011719 c -0.285156 0.316406 -0.6875 0.496094 -1.109375 0.5 c -0.136719 0 -0.265625 -0.019531 -0.390625 -0.050781 c -0.519531 -0.136719 -0.921875 -0.539063 -1.058594 -1.0625 c -0.03125 -0.121094 -0.050781 -0.25 -0.050781 -0.386719 s 0.019531 -0.265625 0.050781 -0.386719 c 0.136719 -0.523437 0.539063 -0.925781 1.058594 -1.0625 c 0.125 -0.03125 0.253906 -0.050781 0.390625 -0.050781 z m 4 8 c 0.050781 0 0.101562 0.003906 0.152344 0.007812 c 0.042968 0.003907 0.082031 0.011719 0.121094 0.019532 c 0.046874 0.007812 0.09375 0.015625 0.136718 0.03125 c 0.503906 0.136718 0.894532 0.527344 1.03125 1.03125 c 0.015625 0.042968 0.023438 0.089844 0.03125 0.136718 c 0.007813 0.039063 0.015625 0.078126 0.019532 0.121094 v 0.003906 c 0.003906 0.046876 0.007812 0.097657 0.007812 0.148438 c 0 0.136719 -0.019531 0.265625 -0.050781 0.386719 c -0.136719 0.523437 -0.539063 0.925781 -1.058594 1.0625 c -0.125 0.03125 -0.253906 0.050781 -0.390625 0.050781 s -0.265625 -0.019531 -0.390625 -0.050781 c -0.519531 -0.136719 -0.921875 -0.539063 -1.058594 -1.0625 c -0.03125 -0.121094 -0.050781 -0.25 -0.050781 -0.386719 c 0 -0.019531 0 -0.039062 0.003906 -0.054688 c 0 -0.003906 0.003906 -0.003906 0.003906 -0.003906 c 0.035157 -0.71875 0.570313 -1.308594 1.28125 -1.414062 l 0.011719 -0.015625 c 0.0625 -0.007813 0.128907 -0.011719 0.199219 -0.011719 z m 0 0" fill="#222222"/></svg>
