<?xml version="1.0" encoding="UTF-8" standalone="no"?>
<svg
   height="16px"
   viewBox="0 0 16 16"
   width="16px"
   version="1.1"
   id="svg3"
   sodipodi:docname="dock-top-symbolic.svg"
   inkscape:version="1.3.2 (091e20ef0f, 2023-11-25, custom)"
   xmlns:inkscape="http://www.inkscape.org/namespaces/inkscape"
   xmlns:sodipodi="http://sodipodi.sourceforge.net/DTD/sodipodi-0.dtd"
   xmlns="http://www.w3.org/2000/svg"
   xmlns:svg="http://www.w3.org/2000/svg">
  <defs
     id="defs3" />
  <sodipodi:namedview
     id="namedview3"
     pagecolor="#ffffff"
     bordercolor="#666666"
     borderopacity="1.0"
     inkscape:showpageshadow="2"
     inkscape:pageopacity="0.0"
     inkscape:pagecheckerboard="0"
     inkscape:deskcolor="#d1d1d1"
     inkscape:zoom="50.5"
     inkscape:cx="7.990099"
     inkscape:cy="8"
     inkscape:window-width="2560"
     inkscape:window-height="1023"
     inkscape:window-x="0"
     inkscape:window-y="0"
     inkscape:window-maximized="1"
     inkscape:current-layer="svg3" />
  <g
     fill="#222222"
     id="g3"
     style="fill:#f2f2f2">
    <path
       d="m 3 15.019531 c -1.644531 0 -3 -1.355469 -3 -3 v -8 c 0 -1.644531 1.355469 -3 3 -3 h 10 c 1.644531 0 3 1.355469 3 3 v 8 c 0 1.644531 -1.355469 3 -3 3 z m 0 -2 h 10 c 0.570312 0 1 -0.429687 1 -1 v -8 c 0 -0.570312 -0.429688 -1 -1 -1 h -10 c -0.570312 0 -1 0.429688 -1 1 v 8 c 0 0.570313 0.429688 1 1 1 z m 0 0"
       id="path1"
       style="fill:#f2f2f2" />
    <path
       d="m 15 6.519531 h -14 v -4.5 h 14 z m 0 0"
       fill-opacity="0.35"
       id="path2"
       style="fill:#f2f2f2" />
    <path
       d="m 1 6.019531 v 1 h 14 v -1 z m 0 0"
       id="path3"
       style="fill:#f2f2f2" />
  </g>
</svg>
