<?xml version="1.0" encoding="UTF-8" standalone="no"?>
<svg
   height="16px"
   viewBox="0 0 16 16"
   width="16px"
   version="1.1"
   id="svg4"
   sodipodi:docname="eraser-symbolic.svg"
   inkscape:version="1.3.2 (091e20ef0f, 2023-11-25, custom)"
   xmlns:inkscape="http://www.inkscape.org/namespaces/inkscape"
   xmlns:sodipodi="http://sodipodi.sourceforge.net/DTD/sodipodi-0.dtd"
   xmlns="http://www.w3.org/2000/svg"
   xmlns:svg="http://www.w3.org/2000/svg">
  <defs
     id="defs4" />
  <sodipodi:namedview
     id="namedview4"
     pagecolor="#ffffff"
     bordercolor="#666666"
     borderopacity="1.0"
     inkscape:showpageshadow="2"
     inkscape:pageopacity="0.0"
     inkscape:pagecheckerboard="0"
     inkscape:deskcolor="#d1d1d1"
     inkscape:zoom="50.5"
     inkscape:cx="7.990099"
     inkscape:cy="8"
     inkscape:window-width="2560"
     inkscape:window-height="1023"
     inkscape:window-x="0"
     inkscape:window-y="0"
     inkscape:window-maximized="1"
     inkscape:current-layer="svg4" />
  <g
     fill="#222222"
     id="g4"
     style="fill:#f2f2f2">
    <path
       d="m 11.15625 1 c -0.078125 0.015625 -0.160156 0.070312 -0.21875 0.125 l -4.28125 4 l 4.03125 4.34375 l 4.15625 -3.875 c 0.238281 -0.222656 0.179688 -0.683594 -0.125 -1.03125 l -2.78125 -3.21875 c -0.226562 -0.261719 -0.542969 -0.390625 -0.78125 -0.34375 z m 0 0"
       id="path1"
       style="fill:#f2f2f2" />
    <path
       d="m 5.5 6.21875 l -2.34375 2.1875 c -0.238281 0.222656 -0.210938 0.683594 0.09375 1.03125 l 2.8125 3.21875 c 0.304688 0.347656 0.730469 0.441406 0.96875 0.21875 l 2.46875 -2.3125 z m 0 0"
       id="path2"
       style="fill:#f2f2f2" />
    <path
       d="m 8.699219 14 c -0.386719 0 -0.699219 0.222656 -0.699219 0.5 s 0.3125 0.5 0.699219 0.5 h 6.300781 v -1 z m 0 0"
       id="path3"
       style="fill:#f2f2f2" />
    <path
       d="m 3.300781 14 c 0.386719 0 0.699219 0.222656 0.699219 0.5 s -0.3125 0.5 -0.699219 0.5 c -2.101562 0 -2 0 -2.300781 0 v -1 z m 0 0"
       id="path4"
       style="fill:#f2f2f2" />
  </g>
</svg>
