<?xml version="1.0" encoding="UTF-8" standalone="no"?>
<svg
   height="16px"
   viewBox="0 0 16 16"
   width="16px"
   version="1.1"
   id="svg1"
   sodipodi:docname="file-cabinet-symbolic.svg"
   inkscape:version="1.4 (e7c3feb100, 2024-10-09)"
   xmlns:inkscape="http://www.inkscape.org/namespaces/inkscape"
   xmlns:sodipodi="http://sodipodi.sourceforge.net/DTD/sodipodi-0.dtd"
   xmlns="http://www.w3.org/2000/svg"
   xmlns:svg="http://www.w3.org/2000/svg">
  <defs
     id="defs1" />
  <sodipodi:namedview
     id="namedview1"
     pagecolor="#ffffff"
     bordercolor="#666666"
     borderopacity="1.0"
     inkscape:showpageshadow="2"
     inkscape:pageopacity="0.0"
     inkscape:pagecheckerboard="0"
     inkscape:deskcolor="#d1d1d1"
     inkscape:zoom="50.3125"
     inkscape:cx="7.9900621"
     inkscape:cy="8"
     inkscape:window-width="2560"
     inkscape:window-height="1023"
     inkscape:window-x="0"
     inkscape:window-y="0"
     inkscape:window-maximized="1"
     inkscape:current-layer="svg1" />
  <path
     d="m 4,0.5 c -1.644531,0 -3,1.355469 -3,3 v 9 c 0,1.644531 1.355469,3 3,3 h 8 c 1.644531,0 3,-1.355469 3,-3 v -9 c 0,-1.644531 -1.355469,-3 -3,-3 z m 0,2 h 8 c 0.570312,0 1,0.429688 1,1 v 4 H 3 v -4 c 0,-0.570312 0.429688,-1 1,-1 z m 2.464844,1.429688 c -0.019532,0 -0.039063,0.00391 -0.058594,0.00781 -0.019531,0 -0.042969,0 -0.0625,0 C 6.128906,4.007812 5.988281,4.210938 6,4.4375 V 4.5 c 0,0.546875 0.453125,1 1,1 h 2 c 0.546875,0 1,-0.453125 1,-1 V 4.4375 c 0.01172,-0.675781 -1.011719,-0.675781 -1,0 V 4.5 H 7 V 4.4375 C 7.003906,4.140625 6.753906,3.910156 6.464844,3.929688 Z M 3,8.5 h 10 v 4 c 0,0.570312 -0.429688,1 -1,1 H 4 c -0.570312,0 -1,-0.429688 -1,-1 z m 3.464844,1.429688 c -0.019532,0 -0.039063,0.00391 -0.058594,0.00781 -0.019531,0 -0.042969,0 -0.0625,0 C 6.128906,10.007812 5.988281,10.210938 6,10.4375 V 10.5 c 0,0.546875 0.453125,1 1,1 h 2 c 0.546875,0 1,-0.453125 1,-1 v -0.0625 c 0.01172,-0.675781 -1.011719,-0.675781 -1,0 V 10.5 H 7 V 10.4375 C 7.003906,10.140625 6.753906,9.910156 6.464844,9.929688 Z m 0,0"
     fill="#222222"
     fill-rule="evenodd"
     id="path1"
     style="fill:#f2f2f2" />
</svg>
