<?xml version="1.0" encoding="UTF-8" standalone="no"?>
<svg
   height="16px"
   viewBox="0 0 16 16"
   width="16px"
   version="1.1"
   id="svg4"
   sodipodi:docname="fullscreen-square-symbolic.svg"
   inkscape:version="1.3.2 (091e20ef0f, 2023-11-25, custom)"
   xmlns:inkscape="http://www.inkscape.org/namespaces/inkscape"
   xmlns:sodipodi="http://sodipodi.sourceforge.net/DTD/sodipodi-0.dtd"
   xmlns="http://www.w3.org/2000/svg"
   xmlns:svg="http://www.w3.org/2000/svg">
  <defs
     id="defs4" />
  <sodipodi:namedview
     id="namedview4"
     pagecolor="#ffffff"
     bordercolor="#666666"
     borderopacity="1.0"
     inkscape:showpageshadow="2"
     inkscape:pageopacity="0.0"
     inkscape:pagecheckerboard="0"
     inkscape:deskcolor="#d1d1d1"
     inkscape:zoom="50.5"
     inkscape:cx="7.990099"
     inkscape:cy="8"
     inkscape:window-width="2560"
     inkscape:window-height="1023"
     inkscape:window-x="0"
     inkscape:window-y="0"
     inkscape:window-maximized="1"
     inkscape:current-layer="svg4" />
  <g
     fill="#222222"
     id="g4"
     style="fill:#f2f2f2">
    <path
       d="m 3 1 c -1.089844 0 -2 0.910156 -2 2 v 4 h 2 v -4 h 4 v -2 z m 0 0"
       id="path1"
       style="fill:#f2f2f2" />
    <path
       d="m 13 15 c 1.089844 0 2 -0.910156 2 -2 v -4 h -2 v 4 h -4 v 2 z m 0 0"
       id="path2"
       style="fill:#f2f2f2" />
    <path
       d="m 13 1 c 1.089844 0 2 0.910156 2 2 v 4 h -2 v -4 h -4 v -2 z m 0 0"
       id="path3"
       style="fill:#f2f2f2" />
    <path
       d="m 3 15 c -1.089844 0 -2 -0.910156 -2 -2 v -4 h 2 v 4 h 4 v 2 z m 0 0"
       id="path4"
       style="fill:#f2f2f2" />
  </g>
</svg>
