<?xml version="1.0" encoding="UTF-8"?>
<svg xmlns="http://www.w3.org/2000/svg" height="16px" viewBox="0 0 16 16" width="16px"><g fill="#222222"><path d="m 3.175781 9.996094 h 10.6875 c 0.636719 0 1.15625 0.519531 1.15625 1.15625 v 1.6875 c 0 0.636718 -0.519531 1.15625 -1.15625 1.15625 h -10.6875 c -0.640625 0 -1.15625 -0.519532 -1.15625 -1.15625 v -1.6875 c 0 -0.636719 0.515625 -1.15625 1.15625 -1.15625 z m 0 0"/><path d="m 9.175781 4.996094 c -0.640625 0 -1.15625 0.515625 -1.15625 1.15625 v 1.6875 c 0 0.640625 0.515625 1.15625 1.15625 1.15625 h 4.6875 c 0.640625 0 1.15625 -0.515625 1.15625 -1.15625 v -1.6875 c 0 -0.640625 -0.515625 -1.15625 -1.15625 -1.15625 z m -0.046875 1 h 4.78125 c 0.058594 0 0.109375 0.046875 0.109375 0.109375 v 1.78125 c 0 0.0625 -0.050781 0.109375 -0.109375 0.109375 h -4.78125 c -0.0625 0 -0.109375 -0.046875 -0.109375 -0.109375 v -1.78125 c 0 -0.0625 0.046875 -0.109375 0.109375 -0.109375 z m 0 0"/><path d="m 7.523438 1.878906 l -3.5 3.5 l -1.507813 -1.527344 l -0.996094 0.976563 l 2.496094 2.535156 l 4.496094 -4.5 z m 0 0"/></g></svg>
