<?xml version="1.0" encoding="UTF-8" standalone="no"?>
<svg
   height="16px"
   viewBox="0 0 16 16"
   width="16px"
   version="1.1"
   id="svg4"
   sodipodi:docname="keyboard-shortcuts-symbolic.svg"
   inkscape:version="1.2.1 (9c6d41e410, 2022-07-14)"
   xmlns:inkscape="http://www.inkscape.org/namespaces/inkscape"
   xmlns:sodipodi="http://sodipodi.sourceforge.net/DTD/sodipodi-0.dtd"
   xmlns="http://www.w3.org/2000/svg"
   xmlns:svg="http://www.w3.org/2000/svg">
  <defs
     id="defs8" />
  <sodipodi:namedview
     id="namedview6"
     pagecolor="#ffffff"
     bordercolor="#666666"
     borderopacity="1.0"
     inkscape:showpageshadow="2"
     inkscape:pageopacity="0.0"
     inkscape:pagecheckerboard="0"
     inkscape:deskcolor="#d1d1d1"
     showgrid="false"
     inkscape:zoom="49.625"
     inkscape:cx="8.0100756"
     inkscape:cy="8.0100756"
     inkscape:window-width="2560"
     inkscape:window-height="1023"
     inkscape:window-x="0"
     inkscape:window-y="0"
     inkscape:window-maximized="1"
     inkscape:current-layer="svg4" />
  <path
     d="m 2.484375 8 c -0.832031 0 -1.5 0.667969 -1.5 1.5 v 4 c 0 0.832031 0.667969 1.5 1.5 1.5 h 9.011719 c 0.832031 0 1.5 -0.667969 1.5 -1.5 v -4 c 0 -0.832031 -0.667969 -1.5 -1.5 -1.5 z m 0.0625 1 c 3.1875 0.269531 6.117187 0.230469 8.886719 0 c 0.300781 -0.023438 0.5625 0.261719 0.5625 0.5625 v 2.875 c 0 0.300781 -0.261719 0.527344 -0.5625 0.5625 c -3.003906 0.339844 -5.964844 0.328125 -8.886719 0 c -0.300781 -0.035156 -0.5625 -0.261719 -0.5625 -0.5625 v -2.875 c 0 -0.300781 0.261719 -0.585938 0.5625 -0.5625 z m 7.945313 -9 c -0.832032 0 -1.5 0.667969 -1.5 1.5 v 4 c 0 0.832031 0.667968 1.5 1.5 1.5 h 4.003906 c 0.832031 0 1.503906 -0.667969 1.503906 -1.5 v -4 c 0 -0.832031 -0.671875 -1.5 -1.503906 -1.5 z m 0.0625 1 c 1.292968 0.125 2.589843 0.125 3.882812 0 c 0.300781 -0.027344 0.5625 0.261719 0.5625 0.5625 v 2.875 c 0 0.300781 -0.261719 0.527344 -0.5625 0.5625 c -1.257812 0.152344 -2.542969 0.179688 -3.882812 0 c -0.296876 -0.039062 -0.5625 -0.261719 -0.5625 -0.5625 v -2.875 c 0 -0.300781 0.261718 -0.589844 0.5625 -0.5625 z m -8.070313 0 c -0.832031 0 -1.5 0.667969 -1.5 1.5 v 3 c 0 0.832031 0.667969 1.5 1.5 1.5 h 4.003906 c 0.832031 0 1.503907 -0.667969 1.503907 -1.5 v -3 c 0 -0.832031 -0.671876 -1.5 -1.503907 -1.5 z m 0.0625 1 c 1.691406 0.199219 2.847656 0.128906 3.878906 0 c 0.300781 -0.039062 0.5625 0.261719 0.5625 0.5625 v 2.875 c 0 0.300781 -0.261719 0.523438 -0.5625 0.5625 c -1.285156 0.167969 -2.589843 0.167969 -3.878906 0 c -0.300781 -0.039062 -0.5625 -0.261719 -0.5625 -0.5625 v -2.875 c 0 -0.300781 0.261719 -0.597656 0.5625 -0.5625 z m 0 0"
     fill="#222222"
     id="path2"
     style="fill:#f2f2f2" />
</svg>
