<?xml version="1.0" encoding="UTF-8"?>
<svg xmlns="http://www.w3.org/2000/svg" height="16px" viewBox="0 0 16 16" width="16px"><path d="m 2.386719 3 c -0.214844 0 -0.386719 0.167969 -0.386719 0.378906 v 1.242188 c 0 0.210937 0.171875 0.378906 0.386719 0.378906 h 1.230469 c 0.210937 0 0.382812 -0.167969 0.382812 -0.378906 v -1.242188 c 0 -0.210937 -0.171875 -0.378906 -0.382812 -0.378906 z m 3.613281 0 v 2 h 8 v -2 z m -3.613281 4 c -0.214844 0 -0.386719 0.167969 -0.386719 0.378906 v 1.242188 c 0 0.210937 0.171875 0.378906 0.386719 0.378906 h 1.230469 c 0.210937 0 0.382812 -0.167969 0.382812 -0.378906 v -1.242188 c 0 -0.210937 -0.171875 -0.378906 -0.382812 -0.378906 z m 3.613281 0 v 2 h 8 v -2 z m -3.613281 4 c -0.214844 0 -0.386719 0.167969 -0.386719 0.378906 v 1.242188 c 0 0.210937 0.171875 0.378906 0.386719 0.378906 h 1.230469 c 0.210937 0 0.382812 -0.167969 0.382812 -0.378906 v -1.242188 c 0 -0.210937 -0.171875 -0.378906 -0.382812 -0.378906 z m 3.613281 0 v 2 h 8 v -2 z m 0 0" fill="#222222"/></svg>
