<?xml version="1.0" encoding="UTF-8" standalone="no"?>
<svg
   height="16px"
   viewBox="0 0 16 16"
   width="16px"
   version="1.1"
   id="svg1"
   sodipodi:docname="media-playlist-repeat-symbolic.svg"
   inkscape:version="1.3.2 (091e20ef0f, 2023-11-25, custom)"
   xmlns:inkscape="http://www.inkscape.org/namespaces/inkscape"
   xmlns:sodipodi="http://sodipodi.sourceforge.net/DTD/sodipodi-0.dtd"
   xmlns="http://www.w3.org/2000/svg"
   xmlns:svg="http://www.w3.org/2000/svg">
  <defs
     id="defs1" />
  <sodipodi:namedview
     id="namedview1"
     pagecolor="#ffffff"
     bordercolor="#666666"
     borderopacity="1.0"
     inkscape:showpageshadow="2"
     inkscape:pageopacity="0.0"
     inkscape:pagecheckerboard="0"
     inkscape:deskcolor="#d1d1d1"
     inkscape:zoom="50.5"
     inkscape:cx="7.990099"
     inkscape:cy="8"
     inkscape:window-width="2560"
     inkscape:window-height="1023"
     inkscape:window-x="0"
     inkscape:window-y="0"
     inkscape:window-maximized="1"
     inkscape:current-layer="svg1" />
  <path
     d="m 8 1 v 2 h -4 c -2.199219 0 -4 1.800781 -4 4 v 2 c 0 1.019531 0.386719 1.964844 1.019531 2.671875 c 0.367188 0.410156 1 0.445313 1.410157 0.078125 c 0.414062 -0.367188 0.449218 -1 0.078124 -1.414062 c -0.316406 -0.351563 -0.507812 -0.8125 -0.507812 -1.335938 v -2 c 0 -1.125 0.875 -2 2 -2 h 4 v 2 h 1 v -0.007812 c 0.265625 0.003906 0.519531 -0.101563 0.707031 -0.285157 l 2 -2 c 0.390625 -0.390625 0.390625 -1.023437 0 -1.414062 l -2 -2 c -0.1875 -0.183594 -0.441406 -0.289063 -0.707031 -0.285157 v -0.007812 z m 6.289062 3 c -0.265624 -0.011719 -0.523437 0.078125 -0.71875 0.257812 c -0.414062 0.367188 -0.449218 1 -0.078124 1.410157 c 0.316406 0.355469 0.507812 0.816406 0.507812 1.339843 v 2 c 0 1.125 -0.875 2 -2 2 h -4 v -2.007812 h -1 v 0.007812 c -0.265625 -0.003906 -0.519531 0.101563 -0.707031 0.285157 l -2 2 c -0.390625 0.390625 -0.390625 1.023437 0 1.414062 l 2 2 c 0.1875 0.183594 0.441406 0.289063 0.707031 0.285157 v 0.007812 h 1 v -1.992188 h 4 c 2.199219 0 4 -1.804687 4 -4 v -2 c 0 -1.023437 -0.386719 -1.96875 -1.019531 -2.675781 c -0.175781 -0.199219 -0.425781 -0.316406 -0.691407 -0.332031 z m 0 0"
     fill="#2e3436"
     id="path1"
     style="fill:#f2f2f2" />
</svg>
