<?xml version="1.0" encoding="UTF-8"?>
<svg height="16px" viewBox="0 0 16 16" width="16px" xmlns="http://www.w3.org/2000/svg">
    <g fill="#222222">
        <path d="m 1.5 2 c -0.277344 0 -0.5 0.222656 -0.5 0.5 v 2 c 0 0.277344 0.222656 0.5 0.5 0.5 h 2 c 0.277344 0 0.5 -0.222656 0.5 -0.5 v -2 c 0 -0.277344 -0.222656 -0.5 -0.5 -0.5 z m 4 0 c -0.277344 0 -0.5 0.222656 -0.5 0.5 v 2 c 0 0.277344 0.222656 0.5 0.5 0.5 h 2 c 0.277344 0 0.5 -0.222656 0.5 -0.5 v -2 c 0 -0.277344 -0.222656 -0.5 -0.5 -0.5 z m 4 0 c -0.277344 0 -0.5 0.222656 -0.5 0.5 v 2 c 0 0.277344 0.222656 0.5 0.5 0.5 h 2 c 0.277344 0 0.5 -0.222656 0.5 -0.5 v -2 c 0 -0.277344 -0.222656 -0.5 -0.5 -0.5 z m -8 4 c -0.277344 0 -0.5 0.222656 -0.5 0.5 v 2 c 0 0.277344 0.222656 0.5 0.5 0.5 h 2 c 0.277344 0 0.5 -0.222656 0.5 -0.5 v -2 c 0 -0.277344 -0.222656 -0.5 -0.5 -0.5 z m 4 0 c -0.277344 0 -0.5 0.222656 -0.5 0.5 v 2 c 0 0.277344 0.222656 0.5 0.5 0.5 h 2 c 0.277344 0 0.5 -0.222656 0.5 -0.5 v -2 c 0 -0.277344 -0.222656 -0.5 -0.5 -0.5 z m -4 4 c -0.277344 0 -0.5 0.222656 -0.5 0.5 v 2 c 0 0.277344 0.222656 0.5 0.5 0.5 h 2 c 0.277344 0 0.5 -0.222656 0.5 -0.5 v -2 c 0 -0.277344 -0.222656 -0.5 -0.5 -0.5 z m 4 0 c -0.277344 0 -0.5 0.222656 -0.5 0.5 v 2 c 0 0.277344 0.222656 0.5 0.5 0.5 h 2 c 0.277344 0 0.5 -0.222656 0.5 -0.5 v -2 c 0 -0.277344 -0.222656 -0.5 -0.5 -0.5 z m 0 0"/>
        <path d="m 9.863281 6.011719 c -0.09375 0.011719 -0.1875 0.035156 -0.273437 0.074219 c -0.359375 0.164062 -0.589844 0.519531 -0.589844 0.914062 v 6 c 0 0.890625 1.078125 1.335938 1.707031 0.707031 l 0.875 -0.875 l 1.070313 1.699219 c 0.296875 0.46875 0.914062 0.609375 1.378906 0.3125 c 0.46875 -0.292969 0.609375 -0.910156 0.3125 -1.375 l -0.921875 -1.46875 h 1.078125 c 0.921875 0 1.351562 -1.136719 0.664062 -1.75 l -4.5 -4 c -0.21875 -0.191406 -0.511718 -0.28125 -0.800781 -0.238281 z m 0 0"/>
    </g>
</svg>
