<?xml version="1.0" encoding="UTF-8" standalone="no"?>
<svg
   height="18"
   viewBox="0 0 18 18"
   width="18"
   version="1.1"
   id="svg2"
   sodipodi:docname="pause-large-symbolic.svg"
   inkscape:version="1.4 (e7c3feb100, 2024-10-09)"
   xmlns:inkscape="http://www.inkscape.org/namespaces/inkscape"
   xmlns:sodipodi="http://sodipodi.sourceforge.net/DTD/sodipodi-0.dtd"
   xmlns="http://www.w3.org/2000/svg"
   xmlns:svg="http://www.w3.org/2000/svg">
  <defs
     id="defs2" />
  <sodipodi:namedview
     id="namedview2"
     pagecolor="#ffffff"
     bordercolor="#666666"
     borderopacity="1.0"
     inkscape:showpageshadow="2"
     inkscape:pageopacity="0.0"
     inkscape:pagecheckerboard="0"
     inkscape:deskcolor="#d1d1d1"
     inkscape:zoom="50.3125"
     inkscape:cx="7.9900621"
     inkscape:cy="8"
     inkscape:window-width="2560"
     inkscape:window-height="1023"
     inkscape:window-x="0"
     inkscape:window-y="0"
     inkscape:window-maximized="1"
     inkscape:current-layer="svg2" />
  <g
     fill="#222222"
     id="g2"
     transform="translate(0.996094,1)">
    <path
       d="m 13.003906,1 h -3 c -0.554687,0 -1,0.449219 -1,1 v 12 c 0,0.550781 0.445313,1 1,1 h 3 c 0.550782,0 1,-0.449219 1,-1 V 2 c 0,-0.550781 -0.449218,-1 -1,-1 z m 0,0"
       id="path1" />
    <path
       d="m 6.003906,1 h -3 c -0.554687,0 -1,0.449219 -1,1 v 12 c 0,0.550781 0.445313,1 1,1 h 3 c 0.550782,0 1,-0.449219 1,-1 V 2 c 0,-0.550781 -0.449218,-1 -1,-1 z m 0,0"
       id="path2" />
  </g>
</svg>
