<?xml version="1.0" encoding="UTF-8"?>
<svg height="15.980469px" viewBox="0 0 16 15.980469" width="16px" xmlns="http://www.w3.org/2000/svg">
    <path d="m 0.597656 9.074219 c -0.769531 0.769531 -0.769531 2.058593 0 2.828125 l 3.492188 3.492187 c 0.769531 0.769531 2.054687 0.769531 2.828125 0 l 8.484375 -8.484375 c 0.773437 -0.773437 0.773437 -2.058594 0 -2.828125 l -3.492188 -3.492187 c -0.769531 -0.773438 -2.054687 -0.773438 -2.828125 0 z m 1.414063 1.414062 l 1.148437 -1.148437 l 1.460938 1.371094 l 0.707031 -0.707032 l -1.414063 -1.414062 l 0.707032 -0.710938 l 2.121094 2.125 l 0.707031 -0.707031 l -2.121094 -2.125 l 0.707031 -0.707031 l 1.414063 1.414062 l 0.707031 -0.707031 l -1.414062 -1.414063 l 0.707031 -0.707031 l 2.121093 2.121094 l 0.707032 -0.707031 l -2.121094 -2.121094 l 0.707031 -0.707031 l 1.371094 1.375 l 0.707031 -0.707031 l -1.371094 -1.375 l 0.925782 -0.925782 l 3.492187 3.492188 l -8.484375 8.484375 z m 0 0" fill="#222222"/>
</svg>
