<?xml version="1.0" encoding="UTF-8"?>
<svg xmlns="http://www.w3.org/2000/svg" height="16px" viewBox="0 0 16 16" width="16px"><g fill="#222222"><path d="m 3.9375 3 c -0.90625 0.382812 -1.203125 1.21875 -0.679688 1.882812 l 3.789063 5.035157 l -1.496094 1.640625 l 1.210938 1.441406 l 1.378906 -1.71875 l 1.355469 1.71875 l 1.199218 -1.382812 l -1.460937 -1.699219 l 3.789063 -5.035157 c 0.523437 -0.664062 0.230468 -1.5 -0.679688 -1.882812 l -4.203125 5.535156 z m 0 0"/><path d="m 7 1 v 1 h 1 v -1 z m 2 0 v 1 h 1 v -1 z m 2 0 v 1 h 1 v -1 z m 2 0 v 1 h 1 v -1 z m 2 0 v 1 h 1 v -1 z m -8 2 v 1 h 1 v -1 z m 0 2 v 1 h 1 v -1 z m 5 5 c -1.65625 0 -3 1.34375 -3 3 s 1.34375 3 3 3 s 3 -1.34375 3 -3 s -1.34375 -3 -3 -3 z m 0 2 c 0.550781 0 1 0.449219 1 1 s -0.449219 1 -1 1 s -1 -0.449219 -1 -1 s 0.449219 -1 1 -1 z m 0 0"/><path d="m 4 10 c -1.65625 0 -3 1.34375 -3 3 s 1.34375 3 3 3 s 3 -1.34375 3 -3 s -1.34375 -3 -3 -3 z m 0 2 c 0.550781 0 1 0.449219 1 1 s -0.449219 1 -1 1 s -1 -0.449219 -1 -1 s 0.449219 -1 1 -1 z m 0 0"/></g></svg>
