<?xml version="1.0" encoding="UTF-8"?>
<svg xmlns="http://www.w3.org/2000/svg" height="16px" viewBox="0 0 16 16" width="16px"><g fill="#222222"><path d="m 7.003906 4.003906 c -0.183594 -0.003906 -0.359375 0.046875 -0.515625 0.140625 l -5 3 c -0.648437 0.386719 -0.648437 1.328125 0 1.714844 l 5 3 c 0.15625 0.09375 0.332031 0.140625 0.515625 0.140625 v 0.003906 c 1 -0.003906 1 -1 1 -1 v -6 s 0.003906 -1 -1 -1 z m 0 0"/><path d="m 14.003906 4.003906 c -0.183594 -0.003906 -0.359375 0.046875 -0.515625 0.140625 l -5 3 c -0.648437 0.386719 -0.648437 1.328125 0 1.714844 l 5 3 c 0.15625 0.09375 0.332031 0.140625 0.515625 0.140625 v 0.003906 c 1 -0.003906 1 -1 1 -1 v -6 s 0.003906 -1 -1 -1 z m 0 0"/></g></svg>
