<?xml version="1.0" encoding="UTF-8" standalone="no"?>
<svg
   height="16px"
   viewBox="0 0 16 16"
   width="16px"
   version="1.1"
   id="svg3"
   sodipodi:docname="shapes-large-symbolic.svg"
   inkscape:version="1.4 (e7c3feb100, 2024-10-09)"
   xmlns:inkscape="http://www.inkscape.org/namespaces/inkscape"
   xmlns:sodipodi="http://sodipodi.sourceforge.net/DTD/sodipodi-0.dtd"
   xmlns="http://www.w3.org/2000/svg"
   xmlns:svg="http://www.w3.org/2000/svg">
  <defs
     id="defs3" />
  <sodipodi:namedview
     id="namedview3"
     pagecolor="#ffffff"
     bordercolor="#666666"
     borderopacity="1.0"
     inkscape:showpageshadow="2"
     inkscape:pageopacity="0.0"
     inkscape:pagecheckerboard="0"
     inkscape:deskcolor="#d1d1d1"
     inkscape:zoom="50.3125"
     inkscape:cx="7.9900621"
     inkscape:cy="8"
     inkscape:window-width="2560"
     inkscape:window-height="1023"
     inkscape:window-x="0"
     inkscape:window-y="0"
     inkscape:window-maximized="1"
     inkscape:current-layer="svg3" />
  <g
     fill="#222222"
     id="g3"
     style="fill:#f2f2f2"
     transform="translate(0.2102015,0.00585945)">
    <path
       d="m 9.984375,12.496094 c 0,1.929687 -1.566406,3.492187 -3.492187,3.492187 C 4.5625,15.988281 3,14.425781 3,12.496094 3,10.566406 4.5625,9.003906 6.492188,9.003906 c 1.925781,0 3.492187,1.5625 3.492187,3.492188 z m 0,0"
       id="path1"
       style="fill:#f2f2f2" />
    <path
       d="m 9,8 h 6 C 15.207031,8 15.398438,7.890625 15.5,7.710938 15.605469,7.53125 15.605469,7.3125 15.503906,7.132812 L 12.496094,1.867188 C 12.394531,1.691406 12.203125,1.582031 12,1.582031 c -0.203125,0 -0.394531,0.109375 -0.496094,0.285157 L 8.496094,7.132812 C 8.394531,7.3125 8.394531,7.53125 8.5,7.710938 8.601562,7.890625 8.792969,8 9,8 Z m 0,0"
       id="path2"
       style="fill:#f2f2f2" />
    <path
       d="M 0.292969,3.375 3.375,0.292969 c 0.390625,-0.3906252 1.023438,-0.3906252 1.414062,0 L 7.878906,3.375 c 0.1875,0.1875 0.292969,0.441406 0.292969,0.707031 0,0.265625 -0.105469,0.519531 -0.292969,0.707031 L 4.792969,7.875 c -0.390625,0.390625 -1.023438,0.390625 -1.414063,0 L 0.292969,4.789062 c -0.3906252,-0.390624 -0.3906252,-1.023437 0,-1.414062 z m 0,0"
       id="path3"
       style="fill:#f2f2f2" />
  </g>
</svg>
