<?xml version="1.0" encoding="UTF-8" standalone="no"?>
<svg
   height="16px"
   viewBox="0 0 16 16"
   width="16px"
   version="1.1"
   id="svg15"
   sodipodi:docname="speakers-symbolic.svg"
   inkscape:version="1.3.2 (091e20ef0f, 2023-11-25, custom)"
   xmlns:inkscape="http://www.inkscape.org/namespaces/inkscape"
   xmlns:sodipodi="http://sodipodi.sourceforge.net/DTD/sodipodi-0.dtd"
   xmlns="http://www.w3.org/2000/svg"
   xmlns:svg="http://www.w3.org/2000/svg">
  <defs
     id="defs15" />
  <sodipodi:namedview
     id="namedview15"
     pagecolor="#ffffff"
     bordercolor="#666666"
     borderopacity="1.0"
     inkscape:showpageshadow="2"
     inkscape:pageopacity="0.0"
     inkscape:pagecheckerboard="0"
     inkscape:deskcolor="#d1d1d1"
     inkscape:zoom="50.5"
     inkscape:cx="7.990099"
     inkscape:cy="8"
     inkscape:window-width="2560"
     inkscape:window-height="1023"
     inkscape:window-x="0"
     inkscape:window-y="0"
     inkscape:window-maximized="1"
     inkscape:current-layer="svg15" />
  <filter
     id="a"
     height="1"
     width="1"
     x="0"
     y="0">
    <feColorMatrix
       color-interpolation-filters="sRGB"
       values="0 0 0 0 1 0 0 0 0 1 0 0 0 0 1 0 0 0 1 0"
       id="feColorMatrix1" />
  </filter>
  <mask
     id="b">
    <g
       filter="url(#a)"
       id="g1">
      <path
         d="m -1.6 -1.6 h 19.2 v 19.2 h -19.2 z"
         fill-opacity="0.5"
         id="path1" />
    </g>
  </mask>
  <clipPath
     id="c">
    <path
       d="m 0 0 h 1600 v 1200 h -1600 z"
       id="path2" />
  </clipPath>
  <mask
     id="d">
    <g
       filter="url(#a)"
       id="g3">
      <path
         d="m -1.6 -1.6 h 19.2 v 19.2 h -19.2 z"
         fill-opacity="0.7"
         id="path3" />
    </g>
  </mask>
  <clipPath
     id="e">
    <path
       d="m 0 0 h 1600 v 1200 h -1600 z"
       id="path4" />
  </clipPath>
  <mask
     id="f">
    <g
       filter="url(#a)"
       id="g5">
      <path
         d="m -1.6 -1.6 h 19.2 v 19.2 h -19.2 z"
         fill-opacity="0.35"
         id="path5" />
    </g>
  </mask>
  <clipPath
     id="g">
    <path
       d="m 0 0 h 1600 v 1200 h -1600 z"
       id="path6" />
  </clipPath>
  <g
     mask="url(#b)"
     id="g8"
     style="fill:#f2f2f2">
    <g
       clip-path="url(#c)"
       transform="matrix(1 0 0 1 -120 -356)"
       id="g7"
       style="fill:#f2f2f2">
      <path
         d="m 550 182 c -0.351562 0.003906 -0.695312 0.101562 -1 0.28125 v 3.4375 c 0.304688 0.179688 0.648438 0.277344 1 0.28125 c 1.105469 0 2 -0.894531 2 -2 s -0.894531 -2 -2 -2 z m 0 5 c -0.339844 0 -0.679688 0.058594 -1 0.175781 v 6.824219 h 4 v -4 c 0 -1.65625 -1.34375 -3 -3 -3 z m 0 0"
         id="path7"
         style="fill:#f2f2f2" />
    </g>
  </g>
  <g
     mask="url(#d)"
     id="g10"
     style="fill:#f2f2f2">
    <g
       clip-path="url(#e)"
       transform="matrix(1 0 0 1 -120 -356)"
       id="g9"
       style="fill:#f2f2f2">
      <path
         d="m 569 182 v 4 c 1.105469 0 2 -0.894531 2 -2 s -0.894531 -2 -2 -2 z m 0 5 v 7 h 3 v -4 c 0 -1.65625 -1.34375 -3 -3 -3 z m 0 0"
         id="path8"
         style="fill:#f2f2f2" />
    </g>
  </g>
  <g
     mask="url(#f)"
     id="g12"
     style="fill:#f2f2f2">
    <g
       clip-path="url(#g)"
       transform="matrix(1 0 0 1 -120 -356)"
       id="g11"
       style="fill:#f2f2f2">
      <path
         d="m 573 182.269531 v 3.449219 c 0.613281 -0.355469 0.996094 -1.007812 1 -1.71875 c 0 -0.714844 -0.382812 -1.375 -1 -1.730469 z m 0 4.90625 v 6.824219 h 2 v -4 c 0 -1.269531 -0.800781 -2.402344 -2 -2.824219 z m 0 0"
         id="path10"
         style="fill:#f2f2f2" />
    </g>
  </g>
  <g
     fill="#222222"
     id="g15"
     style="fill:#f2f2f2">
    <path
       d="m 1 5 h 2.484375 l 2.96875 -3 l 0.546875 0.015625 v 12 h -0.476562 l -3.039063 -3.015625 h -2.484375 z m 0 0"
       id="path12"
       style="fill:#f2f2f2" />
    <path
       d="m 8 5 v -1.421875 l 3.367188 -3.359375 c 0.40625 -0.410156 1.0625 -0.347656 1.414062 0.023438 c 0.332031 0.351562 0.375 0.988281 -0.03125 1.390624 l -3.359375 3.367188 z m 0 0"
       id="path13"
       style="fill:#f2f2f2" />
    <path
       d="m 8 10.9375 v 1.421875 l 3.367188 3.359375 c 0.40625 0.410156 1.0625 0.34375 1.414062 -0.023438 c 0.332031 -0.351562 0.375 -0.988281 -0.03125 -1.390624 l -3.359375 -3.367188 z m 0 0"
       id="path14"
       style="fill:#f2f2f2" />
    <path
       d="m 8 7 v 2 h 6 c 0.75 0 1 -0.5 1 -1 s -0.25 -1 -1 -1 z m 0 0"
       id="path15"
       style="fill:#f2f2f2" />
  </g>
</svg>
