<?xml version="1.0" encoding="UTF-8" standalone="no"?>
<svg
   height="16px"
   viewBox="0 0 16 16"
   width="16px"
   version="1.1"
   id="svg2"
   sodipodi:docname="text-insert-symbolic.svg"
   inkscape:version="1.3.2 (091e20ef0f, 2023-11-25, custom)"
   xmlns:inkscape="http://www.inkscape.org/namespaces/inkscape"
   xmlns:sodipodi="http://sodipodi.sourceforge.net/DTD/sodipodi-0.dtd"
   xmlns="http://www.w3.org/2000/svg"
   xmlns:svg="http://www.w3.org/2000/svg">
  <defs
     id="defs2" />
  <sodipodi:namedview
     id="namedview2"
     pagecolor="#ffffff"
     bordercolor="#666666"
     borderopacity="1.0"
     inkscape:showpageshadow="2"
     inkscape:pageopacity="0.0"
     inkscape:pagecheckerboard="0"
     inkscape:deskcolor="#d1d1d1"
     inkscape:zoom="50.5"
     inkscape:cx="7.990099"
     inkscape:cy="8"
     inkscape:window-width="2560"
     inkscape:window-height="1023"
     inkscape:window-x="0"
     inkscape:window-y="0"
     inkscape:window-maximized="1"
     inkscape:current-layer="svg2" />
  <g
     fill="#222222"
     id="g2"
     style="fill:#f2f2f2">
    <path
       d="m 4.199219 2 c -0.453125 0 -0.84375 0.300781 -0.960938 0.738281 l -3.238281 11.261719 h 2.070312 l 0.808594 -3 l 2.121094 -0.003906 l 2.125 0.003906 l 0.808594 3 h 2.066406 l -3.234375 -11.261719 c -0.121094 -0.4375 -0.511719 -0.738281 -0.964844 -0.738281 z m 0.789062 2 h 0.011719 h 0.011719 c 0.121093 -0.003906 0.238281 0.011719 0.289062 0.207031 l 1.320313 4.792969 h -3.242188 l 1.320313 -4.792969 c 0.050781 -0.195312 0.167969 -0.210937 0.289062 -0.207031 z m 0 0"
       id="path1"
       style="fill:#f2f2f2" />
    <path
       d="m 10 0 v 1 h 2 v 14 h -2 v 1 h 2.5 l 0.5 -0.5 l 0.5 0.5 h 2.5 v -1 h -2 v -14 h 2 v -1 h -2.5 l -0.5 0.5 l -0.5 -0.5 z m 0 0"
       id="path2"
       style="fill:#f2f2f2" />
  </g>
</svg>
