<?xml version="1.0" encoding="UTF-8" standalone="no"?>

<!-- Created with Inkscape (http://www.inkscape.org/) -->
<svg width="32" version="1.1" xmlns="http://www.w3.org/2000/svg" height="32" viewBox="0 0 32 32" xmlns:xlink="http://www.w3.org/1999/xlink" xmlns:inkscape="http://www.inkscape.org/namespaces/inkscape">
 <defs id="defs5455">
  <linearGradient inkscape:collect="always" id="linearGradient4172-5">
   <stop style="stop-color:#3daee9" id="stop4174-6"/>
   <stop offset="1" style="stop-color:#6cc1ef" id="stop4176-6"/>
  </linearGradient>
  <linearGradient inkscape:collect="always" id="linearGradient4342" xlink:href="#linearGradient4172-5" y1="29" y2="8" gradientUnits="userSpaceOnUse" x2="0"/>
 </defs>
 <metadata id="metadata5458"/>
 <g inkscape:label="Capa 1" inkscape:groupmode="layer" id="layer1" transform="matrix(1 0 0 1 -384.57143 -515.798)">
  <g inkscape:label="Capa 1" id="layer1-1" transform="matrix(1 0 0 1 -0.000006 0)">
   <path inkscape:connector-curvature="0" style="fill:#147eb8;fill-rule:evenodd" id="path4308" d="m 386.57144,518.798 0,7 0,1 28,0 0,-6 -14.00001,0 -2,-2 z"/>
   <path inkscape:connector-curvature="0" style="fill-opacity:0.235294;fill-rule:evenodd" id="path4306" d="m 397.57143,523.798 -1.99999,1 -9,0 0,1 6.99999,0 3,0 z"/>
   <path inkscape:connector-curvature="0" style="fill:url(#linearGradient4342)" id="rect4294" d="m 13,8 -2,2 -9,0 -1,0 0,19 11,0 1,0 18,0 0,-21 -18,0 z" transform="matrix(1 0 0 1 384.57143 515.798)"/>
   <path inkscape:connector-curvature="0" style="fill:#ffffff;fill-opacity:0.235294;fill-rule:evenodd" id="path4304" d="m 397.57143,523.798 -2,2 -10,0 0,1 11,0 z"/>
   <path inkscape:connector-curvature="0" style="fill:#ffffff;fill-opacity:0.235294;fill-rule:evenodd" id="path4310" d="m 398.57143,518.798 1,3 15.00001,0 0,-1 -14.00001,0 z"/>
   <rect width="30" x="385.57144" y="543.79797" height="1" style="fill-opacity:0.235294" id="rect4292"/>
  </g>
  <path style="fill:#1272a5" id="path4183" d="M 16 13 A 5.0000062 4.9999866 0 0 0 15.039062 13.09375 A 5.0000062 4.9999866 0 0 0 15.005859 13.099609 C 14.839717 13.130548 14.677325 13.168669 14.515625 13.21875 C 14.357083 13.267855 14.204203 13.330362 14.052734 13.394531 C 13.92894 13.446976 13.80993 13.506398 13.691406 13.568359 A 5.0000062 4.9999866 0 0 0 13.556641 13.640625 C 13.45054 13.700308 13.347269 13.763031 13.246094 13.830078 A 5.0000062 4.9999866 0 0 0 13.097656 13.933594 C 13.000352 14.003247 12.904466 14.074105 12.8125 14.150391 A 5.0000062 4.9999866 0 0 0 12.695312 14.253906 C 12.599147 14.338843 12.50346 14.423642 12.414062 14.515625 C 12.200796 14.73506 12.012271 14.977157 11.841797 15.232422 A 5.0000062 4.9999866 0 0 0 11.785156 15.3125 C 11.709049 15.431437 11.640219 15.554243 11.574219 15.679688 A 5.0000062 4.9999866 0 0 0 11.53125 15.761719 C 11.468745 15.886091 11.411475 16.012623 11.359375 16.142578 A 5.0000062 4.9999866 0 0 0 11.316406 16.257812 C 11.284333 16.343955 11.246092 16.427352 11.21875 16.515625 C 11.204966 16.56013 11.197742 16.605654 11.185547 16.650391 A 5.0000062 4.9999866 0 0 0 11.171875 16.703125 C 11.140544 16.824253 11.111305 16.946188 11.089844 17.070312 A 5.0000062 4.9999866 0 0 0 11.033203 17.472656 C 11.032792 17.47666 11.031655 17.480365 11.03125 17.484375 C 11.031122 17.485647 11.031378 17.487009 11.03125 17.488281 A 5.0000062 4.9999866 0 0 0 11 18 A 5.0000062 4.9999866 0 0 0 11.09375 18.960938 A 5.0000062 4.9999866 0 0 0 11.099609 18.994141 C 11.130548 19.160283 11.168669 19.32268 11.21875 19.484375 C 11.267856 19.642917 11.330362 19.795797 11.394531 19.947266 C 11.446977 20.07106 11.506398 20.19007 11.568359 20.308594 A 5.0000062 4.9999866 0 0 0 11.640625 20.443359 C 11.700308 20.54946 11.763031 20.652731 11.830078 20.753906 A 5.0000062 4.9999866 0 0 0 11.933594 20.902344 C 12.003247 20.999648 12.074105 21.095534 12.150391 21.1875 A 5.0000062 4.9999866 0 0 0 12.253906 21.304688 C 12.338843 21.400853 12.423642 21.49654 12.515625 21.585938 C 12.73506 21.799204 12.977157 21.987729 13.232422 22.158203 A 5.0000062 4.9999866 0 0 0 13.3125 22.214844 C 13.431437 22.290951 13.554243 22.359781 13.679688 22.425781 A 5.0000062 4.9999866 0 0 0 13.761719 22.46875 C 13.886092 22.531255 14.012623 22.588525 14.142578 22.640625 A 5.0000062 4.9999866 0 0 0 14.257812 22.683594 C 14.343956 22.715667 14.427351 22.753908 14.515625 22.78125 C 14.56013 22.795034 14.605654 22.802258 14.650391 22.814453 A 5.0000062 4.9999866 0 0 0 14.703125 22.828125 C 14.824253 22.859456 14.946188 22.888695 15.070312 22.910156 A 5.0000062 4.9999866 0 0 0 15.472656 22.966797 C 15.47666 22.967208 15.480365 22.968345 15.484375 22.96875 A 5.0000062 4.9999866 0 0 0 15.488281 22.96875 A 5.0000062 4.9999866 0 0 0 16 23 A 5.0000062 4.9999866 0 0 0 16.960938 22.90625 A 5.0000062 4.9999866 0 0 0 16.994141 22.900391 C 17.160284 22.869452 17.322675 22.831331 17.484375 22.78125 C 17.761355 22.695095 18.03328 22.574266 18.289062 22.441406 C 18.322446 22.424066 18.357908 22.408398 18.390625 22.390625 A 5.0000062 4.9999866 0 0 0 19.140625 21.884766 C 19.16171 21.8678 19.184277 21.853237 19.205078 21.835938 A 5.0000062 4.9999866 0 0 0 19.779297 21.261719 C 19.819413 21.215485 19.861976 21.172707 19.900391 21.125 A 5.0000062 4.9999866 0 0 0 20.322266 20.5 C 20.360809 20.433671 20.400023 20.369026 20.435547 20.300781 A 5.0000062 4.9999866 0 0 0 20.726562 19.615234 C 20.741977 19.570133 20.7671 19.53006 20.78125 19.484375 C 20.795034 19.439871 20.802258 19.394345 20.814453 19.349609 C 20.815535 19.345641 20.817289 19.341862 20.818359 19.337891 A 5.0000062 4.9999866 0 0 0 20.828125 19.296875 C 20.859456 19.175749 20.888695 19.053812 20.910156 18.929688 A 5.0000062 4.9999866 0 0 0 20.966797 18.527344 A 5.0000062 4.9999866 0 0 0 20.96875 18.515625 C 20.968878 18.514353 20.968622 18.512991 20.96875 18.511719 A 5.0000062 4.9999866 0 0 0 21 18 A 5.0000062 4.9999866 0 0 0 20.90625 17.039062 A 5.0000062 4.9999866 0 0 0 20.900391 17.005859 C 20.869452 16.839717 20.831331 16.677325 20.78125 16.515625 C 20.769452 16.477535 20.747097 16.444002 20.734375 16.40625 A 5.0000062 4.9999866 0 0 0 20.449219 15.728516 C 20.412943 15.657676 20.377345 15.588381 20.337891 15.519531 A 5.0000062 4.9999866 0 0 0 19.939453 14.929688 C 19.910516 14.892505 19.889258 14.84874 19.859375 14.8125 C 19.806649 14.748613 19.746633 14.693006 19.689453 14.634766 A 5.0000062 4.9999866 0 0 0 18.847656 13.898438 C 18.809101 13.871083 18.771779 13.842669 18.732422 13.816406 A 5.0000062 4.9999866 0 0 0 18.642578 13.759766 C 18.423464 13.620336 18.195899 13.492972 17.953125 13.390625 C 17.908338 13.371669 17.859118 13.357978 17.8125 13.339844 C 17.703446 13.297423 17.594051 13.252859 17.484375 13.21875 C 17.43987 13.204966 17.394346 13.197742 17.349609 13.185547 C 17.345641 13.184465 17.341862 13.182711 17.337891 13.181641 A 5.0000062 4.9999866 0 0 0 17.296875 13.171875 C 17.175746 13.140544 17.053812 13.111305 16.929688 13.089844 A 5.0000062 4.9999866 0 0 0 16.527344 13.033203 A 5.0000062 4.9999866 0 0 0 16.515625 13.03125 C 16.514353 13.031122 16.512991 13.031378 16.511719 13.03125 A 5.0000062 4.9999866 0 0 0 16 13 z M 16 14 A 4.0000062 3.9999905 0 0 1 18.117188 14.613281 C 18.114844 14.618089 18.11088 14.618527 18.109375 14.625 C 18.127617 14.662057 18.17383 14.665607 18.216797 14.673828 A 4.0000062 3.9999905 0 0 1 18.283203 14.71875 C 18.308211 14.753124 18.338155 14.80412 18.34375 14.828125 C 18.35075 14.853525 18.35465 14.94149 18.34375 14.96875 C 18.31555 15.04145 18.23987 15.03305 18.15625 15.03125 C 18.13345 15.03125 18.11465 15.03325 18.09375 15.03125 C 17.95285 15.02225 17.81363 14.977325 17.75 15.078125 C 17.754 15.155425 17.7673 15.198375 17.75 15.265625 C 17.7373 15.314725 17.6848 15.347925 17.6875 15.390625 C 17.6885 15.412425 17.728975 15.454475 17.734375 15.484375 C 17.738375 15.500775 17.727375 15.532375 17.734375 15.546875 C 17.758075 15.591475 17.817575 15.539875 17.859375 15.546875 C 17.899375 15.552875 17.9375 15.61178 17.9375 15.65625 C 17.9375 15.68805 17.92625 15.75035 17.90625 15.78125 C 17.86625 15.84125 17.791635 15.826675 17.734375 15.859375 C 17.687175 15.886675 17.668725 15.95278 17.640625 16 C 17.610625 16.0509 17.58185 16.067895 17.59375 16.140625 C 17.55285 16.221525 17.506355 16.27342 17.421875 16.3125 C 17.397375 16.3234 17.36645 16.343075 17.34375 16.359375 C 17.32555 16.372075 17.30675 16.392775 17.28125 16.421875 C 17.24945 16.457275 17.2047 16.4727 17.1875 16.5 C 17.1747 16.5209 17.185475 16.56565 17.171875 16.59375 C 17.151875 16.63195 17.11915 16.664945 17.09375 16.703125 C 17.08195 16.721325 17.059475 16.742025 17.046875 16.765625 C 17.017775 16.818325 16.978875 16.85993 16.984375 16.90625 C 16.988375 16.95075 17.044175 16.961 17.046875 17 C 17.048875 17.0218 17.03025 17.0389 17.03125 17.0625 C 17.03225 17.097 17.044175 17.113425 17.046875 17.140625 C 17.052875 17.207825 17.0127 17.23493 17 17.28125 C 16.994 17.30305 17.005 17.32655 17 17.34375 C 16.9891 17.37735 16.9384 17.3976 16.9375 17.4375 C 16.9365 17.4657 16.981675 17.49135 16.984375 17.53125 C 16.986375 17.55845 16.96325 17.583975 16.96875 17.609375 C 16.97875 17.658475 17.071195 17.727455 17.109375 17.765625 C 17.161175 17.817425 17.211655 17.85173 17.234375 17.90625 C 17.253475 17.95255 17.261375 18.02796 17.296875 18.0625 C 17.323175 18.0879 17.37258 18.0987 17.40625 18.125 C 17.43805 18.1495 17.481945 18.1612 17.515625 18.1875 C 17.571125 18.2311 17.646185 18.31887 17.734375 18.3125 C 17.780775 18.3085 17.82318 18.29025 17.875 18.28125 C 17.9286 18.27225 17.992325 18.2445 18.046875 18.25 C 18.088675 18.255 18.128275 18.28405 18.171875 18.28125 C 18.217375 18.27825 18.276315 18.257075 18.328125 18.234375 C 18.418125 18.195275 18.5566 18.121495 18.6875 18.140625 C 18.7875 18.155225 18.789375 18.26798 18.859375 18.3125 C 18.939375 18.3195 18.99887 18.2971 19.0625 18.3125 C 19.1107 18.3243 19.167325 18.414965 19.171875 18.453125 C 19.176875 18.492225 19.146025 18.522375 19.140625 18.546875 C 19.127925 18.599575 19.118375 18.669505 19.109375 18.703125 C 19.102375 18.729525 19.09285 18.75495 19.09375 18.78125 C 19.09375 18.80495 19.13175 18.859745 19.15625 18.890625 C 19.18625 18.928825 19.229255 18.95823 19.265625 19 C 19.332025 19.0763 19.35992 19.18037 19.40625 19.28125 C 19.41805 19.30675 19.39535 19.31195 19.40625 19.34375 C 19.38625 19.49643 19.334355 19.596595 19.234375 19.765625 C 19.187075 19.820125 19.139625 19.884975 19.140625 19.953125 C 19.136625 20.116705 19.22605 20.201245 19.21875 20.359375 C 19.218485 20.362836 19.218998 20.361868 19.21875 20.365234 A 4.0000062 3.9999905 0 0 1 16 22 A 4.0000062 3.9999905 0 0 1 14.822266 21.824219 C 14.822478 21.819078 14.828631 21.817778 14.828125 21.8125 C 14.826125 21.7861 14.80215 21.7736 14.78125 21.75 C 14.76405 21.73 14.777225 21.7057 14.765625 21.6875 C 14.743825 21.6557 14.712225 21.64005 14.703125 21.59375 C 14.768525 21.58105 14.858585 21.667025 14.953125 21.640625 C 14.997725 21.627925 15.07285 21.54182 15.09375 21.5 C 15.09975 21.4873 15.08675 21.437375 15.09375 21.421875 C 15.10175 21.404675 15.1223 21.399625 15.125 21.390625 C 15.131 21.366125 15.12 21.35905 15.125 21.34375 C 15.1413 21.29735 15.19155 21.267955 15.21875 21.234375 C 15.23965 21.208875 15.26215 21.18255 15.28125 21.15625 C 15.30305 21.12805 15.313625 21.11835 15.328125 21.09375 C 15.341825 21.01105 15.276775 20.94769 15.296875 20.875 C 15.318675 20.7932 15.436545 20.740385 15.515625 20.703125 C 15.542925 20.690325 15.57105 20.66445 15.59375 20.65625 C 15.64825 20.63715 15.714725 20.6431 15.765625 20.625 C 15.851025 20.5941 15.880065 20.500025 15.921875 20.421875 C 15.941875 20.385575 15.96505 20.354425 15.96875 20.328125 C 15.97175 20.304525 15.96375 20.2773 15.96875 20.25 C 15.97375 20.2228 15.976775 20.201875 15.984375 20.171875 C 15.994375 20.132775 16 20.059255 16 20.015625 C 16 19.979325 15.985275 19.9702 15.984375 19.9375 C 15.978375 19.81936 16.0189 19.81452 16.0625 19.75 C 16.0843 19.7182 16.093975 19.663305 16.109375 19.640625 C 16.182975 19.531575 16.305965 19.47789 16.296875 19.3125 C 16.292875 19.258 16.274375 19.14227 16.234375 19.125 C 16.211575 19.115 16.15867 19.121975 16.125 19.109375 C 16.01773 19.069375 15.939935 18.94659 15.828125 18.9375 C 15.804425 18.9365 15.791925 18.9385 15.765625 18.9375 C 15.721925 18.9365 15.67412 18.896025 15.625 18.890625 C 15.5941 18.886625 15.533805 18.899625 15.515625 18.890625 C 15.487425 18.877025 15.49145 18.8279 15.46875 18.8125 C 15.45055 18.7998 15.418725 18.79115 15.390625 18.78125 C 15.346025 18.76405 15.317425 18.7536 15.265625 18.75 C 15.249325 18.749 15.2056 18.753 15.1875 18.75 C 15.1593 18.745 15.135675 18.719425 15.109375 18.703125 C 15.076675 18.683125 15.060475 18.668825 15.046875 18.640625 C 15.076875 18.542425 14.973025 18.52599 14.953125 18.46875 C 14.944125 18.44235 14.962125 18.3986 14.953125 18.375 C 14.941325 18.3413 14.9122 18.324975 14.875 18.296875 C 14.8096 18.245975 14.74988 18.19927 14.65625 18.1875 C 14.61445 18.1825 14.565645 18.1905 14.515625 18.1875 C 14.462925 18.1835 14.399365 18.154775 14.359375 18.109375 C 14.321175 18.064775 14.31485 18.02087 14.28125 18 C 14.24945 17.98 14.193645 17.973925 14.171875 17.953125 C 14.161875 17.944125 14.16485 17.92705 14.15625 17.90625 C 14.13995 17.87345 14.105 17.868125 14.125 17.828125 C 14.0886 17.809925 14.1016 17.85105 14.0625 17.84375 C 14.027 17.79375 14.001905 17.76585 13.921875 17.78125 C 13.885475 17.78825 13.85517 17.84285 13.8125 17.84375 C 13.777 17.84475 13.749505 17.78765 13.703125 17.78125 C 13.667625 17.77625 13.61832 17.818 13.59375 17.8125 C 13.55465 17.8055 13.551025 17.757975 13.515625 17.734375 C 13.489225 17.717075 13.436375 17.670975 13.421875 17.671875 C 13.376375 17.672875 13.34397 17.767975 13.28125 17.734375 C 13.25035 17.695275 13.333275 17.69255 13.296875 17.65625 C 13.269575 17.62905 13.256175 17.657275 13.234375 17.671875 C 13.208875 17.689075 13.18435 17.70885 13.15625 17.71875 C 13.09355 17.74235 13.04908 17.740225 13 17.765625 C 12.9545 17.789225 12.948175 17.82863 12.921875 17.875 C 12.900975 17.9132 12.859925 17.96695 12.828125 17.96875 C 12.789925 17.97075 12.75333 17.92085 12.71875 17.90625 C 12.61422 17.86075 12.5551 17.9366 12.46875 17.9375 C 12.38875 17.9385 12.27762 17.809805 12.28125 17.734375 C 12.28325 17.687975 12.3071 17.61975 12.3125 17.5625 C 12.3175 17.517 12.358475 17.4793 12.359375 17.4375 C 12.360375 17.3821 12.270775 17.334485 12.234375 17.328125 C 12.182962 17.318865 12.122766 17.328309 12.060547 17.333984 A 4.0000062 3.9999905 0 0 1 12.441406 16.181641 C 12.444719 16.182561 12.450187 16.18727 12.453125 16.1875 C 12.482225 16.1885 12.488325 16.15165 12.515625 16.15625 C 12.542925 16.16125 12.58925 16.2173 12.59375 16.25 C 12.59775 16.2909 12.566225 16.3296 12.578125 16.375 C 12.620825 16.4187 12.704715 16.44335 12.765625 16.46875 C 12.805625 16.43605 12.771625 16.35976 12.765625 16.3125 C 12.764625 16.2916 12.767625 16.2691 12.765625 16.25 C 12.760625 16.2173 12.75 16.18435 12.75 16.15625 C 12.75 16.02629 12.85023 15.972775 12.9375 15.921875 C 12.9747 15.900075 13.014105 15.86005 13.046875 15.84375 C 13.093175 15.82105 13.11807 15.818575 13.15625 15.796875 C 13.22535 15.757775 13.29011 15.716375 13.34375 15.671875 C 13.36825 15.612775 13.34175 15.542535 13.34375 15.484375 C 13.36825 15.468975 13.37985 15.486375 13.40625 15.484375 C 13.44805 15.475375 13.460775 15.414225 13.484375 15.390625 C 13.497975 15.377025 13.5461 15.372875 13.5625 15.359375 C 13.6043 15.326575 13.604225 15.280125 13.640625 15.265625 C 13.653325 15.260625 13.683025 15.2554 13.703125 15.25 C 13.730425 15.243 13.76882 15.218425 13.8125 15.203125 C 13.8407 15.193125 13.911005 15.1981 13.921875 15.1875 C 13.935475 15.1739 13.917875 15.11465 13.921875 15.09375 C 13.943675 14.99106 14.09569 14.987665 14.1875 14.953125 C 14.2511 14.928625 14.319715 14.877025 14.390625 14.890625 C 14.376925 14.939725 14.316325 14.925375 14.328125 14.984375 C 14.343525 15.067075 14.43966 14.964825 14.46875 14.953125 C 14.52425 14.929525 14.630405 14.916925 14.703125 14.890625 C 14.766725 14.867925 14.87248 14.82362 14.8125 14.75 C 14.7625 14.747 14.746705 14.7943 14.703125 14.8125 C 14.673125 14.8175 14.666025 14.798675 14.640625 14.796875 C 14.616025 14.795875 14.602625 14.817 14.578125 14.8125 C 14.553525 14.8075 14.519225 14.763475 14.515625 14.734375 C 14.505625 14.658075 14.59412 14.634475 14.625 14.578125 C 14.6041 14.509025 14.511305 14.574075 14.453125 14.546875 C 14.459125 14.505975 14.48305 14.461225 14.53125 14.453125 C 14.57035 14.447125 14.66386 14.465575 14.6875 14.484375 C 14.7011 14.496175 14.682525 14.527775 14.703125 14.546875 C 14.726725 14.567775 14.765975 14.551875 14.796875 14.546875 C 14.807775 14.495075 14.725275 14.517975 14.734375 14.484375 C 14.796175 14.444375 14.908925 14.463025 14.984375 14.453125 C 15.027975 14.447125 15.070275 14.411525 15.109375 14.390625 C 15.145675 14.369725 15.18058 14.3404 15.21875 14.375 C 15.22965 14.4122 15.192675 14.434025 15.171875 14.453125 C 15.101875 14.514925 15.038915 14.58446 14.984375 14.65625 C 15.017975 14.68895 15.06867 14.665275 15.125 14.671875 C 15.1468 14.674875 15.180425 14.6839 15.203125 14.6875 C 15.230425 14.6925 15.25945 14.6825 15.28125 14.6875 C 15.31945 14.6965 15.321175 14.75 15.359375 14.75 C 15.421175 14.75 15.426125 14.69805 15.390625 14.65625 C 15.401525 14.61345 15.42175 14.576845 15.40625 14.546875 C 15.37805 14.490475 15.271075 14.555875 15.265625 14.484375 C 15.261625 14.438975 15.311725 14.425125 15.328125 14.390625 C 15.321125 14.303425 15.399725 14.29783 15.390625 14.21875 C 15.385625 14.18595 15.350825 14.18705 15.328125 14.15625 C 15.316325 14.13995 15.310375 14.10555 15.296875 14.09375 C 15.285154 14.083838 15.268738 14.08035 15.253906 14.074219 A 4.0000062 3.9999905 0 0 1 16 14 z M 13.361328 15 C 13.373468 14.998543 13.392258 15.001917 13.40625 15 C 13.42715 14.999 13.44595 15 13.46875 15 C 13.49145 15 13.52215 14.991 13.53125 15 C 13.51752 15.056425 13.396046 15.037963 13.341797 15.017578 A 4.0000062 3.9999905 0 0 1 13.361328 15 z M 18.705078 15.060547 A 4.0000062 3.9999905 0 0 1 19.15625 15.546875 C 19.12345 15.546875 19.0906 15.5625 19.0625 15.5625 C 19.0225 15.5635 18.940625 15.542275 18.890625 15.546875 C 18.860625 15.548875 18.8406 15.5607 18.8125 15.5625 C 18.7334 15.5685 18.68681 15.5575 18.625 15.5625 C 18.5804 15.5655 18.494945 15.590375 18.453125 15.609375 C 18.432225 15.619375 18.417925 15.64265 18.390625 15.65625 C 18.377925 15.66225 18.36015 15.664275 18.34375 15.671875 C 18.31835 15.683675 18.2745 15.71245 18.25 15.71875 C 18.2146 15.72775 18.173895 15.71575 18.109375 15.71875 C 18.062975 15.72075 17.985285 15.71175 17.984375 15.65625 C 17.983375 15.57175 18.13876 15.60825 18.21875 15.59375 C 18.24875 15.58775 18.260475 15.55215 18.296875 15.53125 C 18.314175 15.52125 18.32735 15.5108 18.34375 15.5 C 18.37095 15.4809 18.417375 15.443675 18.421875 15.421875 C 18.424875 15.401875 18.40345 15.373875 18.40625 15.359375 C 18.41025 15.340275 18.44425 15.321375 18.46875 15.296875 C 18.50695 15.258675 18.530845 15.21208 18.578125 15.1875 C 18.609925 15.1703 18.67293 15.166025 18.6875 15.140625 C 18.6915 15.111525 18.68651 15.104425 18.6875 15.078125 C 18.69875 15.067888 18.701436 15.06575 18.705078 15.060547 z M 19.234375 15.65625 A 4.0000062 3.9999905 0 0 1 19.404297 15.90625 C 19.399708 15.906144 19.396203 15.907125 19.390625 15.90625 C 19.359725 15.90325 19.30672 15.906055 19.28125 15.890625 C 19.25665 15.875225 19.1938 15.849025 19.1875 15.828125 C 19.1775 15.794525 19.263825 15.74692 19.265625 15.71875 C 19.267625 15.69695 19.238875 15.68895 19.234375 15.65625 z M 12.015625 17.664062 C 12.039827 17.699365 12.066109 17.733928 12.09375 17.75 C 12.09575 17.7791 12.08475 17.806325 12.09375 17.828125 C 12.11735 17.859925 12.164955 17.869725 12.203125 17.890625 C 12.249425 17.916025 12.26882 17.98003 12.3125 18 C 12.3279 18.006 12.3514 17.993 12.375 18 C 12.435 18.0182 12.4482 18.10925 12.5 18.09375 C 12.5336 18.08375 12.541375 18.0327 12.546875 18 C 12.569575 17.9755 12.5895 17.9375 12.625 17.9375 C 12.6814 17.9365 12.69785 18.0071 12.71875 18.0625 C 12.73055 18.0934 12.757425 18.12355 12.765625 18.15625 C 12.779225 18.21255 12.777425 18.37263 12.765625 18.40625 C 12.751025 18.44805 12.69082 18.470145 12.65625 18.515625 C 12.63995 18.537425 12.622075 18.563625 12.609375 18.578125 C 12.587575 18.605325 12.563275 18.616125 12.546875 18.640625 C 12.537875 18.654225 12.53985 18.684025 12.53125 18.703125 C 12.50395 18.761225 12.461675 18.80502 12.484375 18.875 C 12.493375 18.9032 12.53125 18.93515 12.53125 18.96875 C 12.53125 19.00875 12.4438 19.0189 12.4375 19.0625 C 12.4325 19.0943 12.474375 19.160395 12.484375 19.203125 C 12.491375 19.234925 12.5434 19.26035 12.5625 19.28125 C 12.5943 19.31665 12.62725 19.36085 12.65625 19.40625 C 12.71355 19.49445 12.740545 19.60116 12.796875 19.6875 C 12.826875 19.732 12.88628 19.7652 12.90625 19.8125 C 12.91625 19.8361 12.89725 19.88455 12.90625 19.90625 C 12.93895 19.97985 13.098235 20.0574 13.171875 20.09375 C 13.206375 20.11105 13.233825 20.122525 13.265625 20.140625 C 13.313825 20.167925 13.41296 20.222925 13.4375 20.265625 C 13.4593 20.303825 13.473375 20.392235 13.484375 20.453125 C 13.497975 20.533125 13.480375 20.60116 13.484375 20.6875 C 13.486375 20.7348 13.5 20.7652 13.5 20.8125 C 13.5 20.8288 13.501 20.8586 13.5 20.875 C 13.499 20.9313 13.505 20.989625 13.5 21.046875 C 13.4985 21.07005 13.49925 21.094378 13.5 21.117188 A 4.0000062 3.9999905 0 0 1 12 18 A 4.0000062 3.9999905 0 0 1 12.015625 17.664062 z M 13.265625 17.859375 C 13.309325 17.839375 13.301025 17.916375 13.265625 17.921875 C 13.231925 17.926875 13.232925 17.874875 13.265625 17.859375 z " transform="matrix(1 0 0 1 384.57143 515.798)"/>
 </g>
</svg>
