<?xml version="1.0" encoding="UTF-8" standalone="no"?>

<!-- Created with Inkscape (http://www.inkscape.org/) -->
<svg width="32" version="1.1" xmlns="http://www.w3.org/2000/svg" height="32" viewBox="0 0 32 32" xmlns:xlink="http://www.w3.org/1999/xlink" xmlns:inkscape="http://www.inkscape.org/namespaces/inkscape">
 <defs id="defs5455">
  <linearGradient inkscape:collect="always" id="linearGradient4342" xlink:href="#linearGradient4172-5-0" y1="29" y2="8" gradientUnits="userSpaceOnUse" x2="0" gradientTransform="matrix(1 0 0 1 384.57142 515.798)"/>
  <linearGradient inkscape:collect="always" id="linearGradient4172-5-0">
   <stop style="stop-color:#21bbd7" id="stop4174-6-9"/>
   <stop offset="1" style="stop-color:#3dc8e1" id="stop4176-6-4"/>
  </linearGradient>
 </defs>
 <metadata id="metadata5458"/>
 <g inkscape:label="Capa 1" inkscape:groupmode="layer" id="layer1" transform="matrix(1 0 0 1 -384.57143 -515.798)">
  <path inkscape:connector-curvature="0" style="fill:#167b8d;fill-rule:evenodd" id="path4308" d="m 386.57143,518.798 0,7 0,1 28,0 0,-6 -14.00001,0 -2,-2 z"/>
  <path inkscape:connector-curvature="0" style="fill-opacity:0.235294;fill-rule:evenodd" id="path4306" d="m 397.57142,523.798 -1.99999,1 -9,0 0,1 6.99999,0 3,0 z"/>
  <path inkscape:connector-curvature="0" style="fill:url(#linearGradient4342)" id="rect4294" d="m 397.57142,523.798 -2,2 -9,0 -1,0 0,19 11,0 1,0 18,0 0,-21 -18,0 z"/>
  <path inkscape:connector-curvature="0" style="fill:#ffffff;fill-opacity:0.235294;fill-rule:evenodd" id="path4304" d="m 397.57142,523.798 -2,2 -10,0 0,1 11,0 z"/>
  <path inkscape:connector-curvature="0" style="fill:#ffffff;fill-opacity:0.235294;fill-rule:evenodd" id="path4310" d="m 398.57142,518.798 1,3 15.00001,0 0,-1 -14.00001,0 z"/>
  <rect width="30" x="385.57144" y="543.79797" height="1" style="fill-opacity:0.235294" id="rect4292"/>
 </g>
</svg>
