<?xml version="1.0" encoding="UTF-8" standalone="no"?>

<!-- Created with Inkscape (http://www.inkscape.org/) -->
<svg width="32" version="1.1" xmlns="http://www.w3.org/2000/svg" height="32" viewBox="0 0 32 32" xmlns:xlink="http://www.w3.org/1999/xlink" xmlns:inkscape="http://www.inkscape.org/namespaces/inkscape">
 <defs id="defs5455">
  <linearGradient inkscape:collect="always" id="linearGradient4172-5">
   <stop style="stop-color:#3daee9" id="stop4174-6"/>
   <stop offset="1" style="stop-color:#6cc1ef" id="stop4176-6"/>
  </linearGradient>
  <linearGradient inkscape:collect="always" id="linearGradient4342" xlink:href="#linearGradient4172-5" y1="29" y2="8" gradientUnits="userSpaceOnUse" x2="0"/>
 </defs>
 <metadata id="metadata5458"/>
 <g inkscape:label="Capa 1" inkscape:groupmode="layer" id="layer1" transform="matrix(1 0 0 1 -384.57143 -515.798)">
  <g inkscape:label="Capa 1" id="layer1-0" transform="matrix(1 0 0 1 -0.000006 0)">
   <path inkscape:connector-curvature="0" style="fill:#147eb8;fill-rule:evenodd" id="path4308" d="m 386.57144,518.798 0,7 0,1 28,0 0,-6 -14.00001,0 -2,-2 z"/>
   <path inkscape:connector-curvature="0" style="fill-opacity:0.235294;fill-rule:evenodd" id="path4306" d="m 397.57143,523.798 -1.99999,1 -9,0 0,1 6.99999,0 3,0 z"/>
   <path inkscape:connector-curvature="0" style="fill:url(#linearGradient4342)" id="rect4294" d="m 13,8 -2,2 -9,0 -1,0 0,19 11,0 1,0 18,0 0,-21 -18,0 z" transform="matrix(1 0 0 1 384.57143 515.798)"/>
   <path inkscape:connector-curvature="0" style="fill:#ffffff;fill-opacity:0.235294;fill-rule:evenodd" id="path4304" d="m 397.57143,523.798 -2,2 -10,0 0,1 11,0 z"/>
   <path inkscape:connector-curvature="0" style="fill:#ffffff;fill-opacity:0.235294;fill-rule:evenodd" id="path4310" d="m 398.57143,518.798 1,3 15.00001,0 0,-1 -14.00001,0 z"/>
   <rect width="30" x="385.57144" y="543.79797" height="1" style="fill-opacity:0.235294" id="rect4292"/>
  </g>
  <rect width="0" x="351.19043" y="514.59546" height="10.477185" style="fill:#f2f2f2" id="rect4035"/>
  <rect width="0" x="356.60422" y="530.71735" height="10.477185" style="fill:#f2f2f2" id="rect4035-8"/>
  <rect width="0" x="358.01453" y="529.95966" height="10.477185" style="fill:#f2f2f2" id="rect4035-0"/>
  <rect width="0" x="337.84668" y="511.89462" height="10.477185" style="fill:#f2f2f2" id="rect4035-06"/>
  <rect width="0" x="343.26047" y="528.01648" height="10.477185" style="fill:#f2f2f2" id="rect4035-8-7"/>
  <rect width="0" x="344.67078" y="527.25879" height="10.477185" style="fill:#f2f2f2" id="rect4035-0-42"/>
  <rect width="0" x="337.84668" y="511.89462" height="10.477185" style="fill:#f2f2f2" id="rect4035-3"/>
  <rect width="0" x="343.26047" y="528.01648" height="10.477185" style="fill:#f2f2f2" id="rect4035-8-9"/>
  <rect width="0" x="344.67078" y="527.25879" height="10.477185" style="fill:#f2f2f2" id="rect4035-0-4"/>
  <rect width="0" x="337.84668" y="511.89462" height="10.477185" style="fill:#f2f2f2" id="rect4035-2"/>
  <rect width="0" x="343.26047" y="528.01648" height="10.477185" style="fill:#f2f2f2" id="rect4035-8-99"/>
  <rect width="0" x="344.67078" y="527.25879" height="10.477185" style="fill:#f2f2f2" id="rect4035-0-43"/>
  <rect width="0" x="337.84668" y="511.89462" height="10.477185" style="fill:#f2f2f2" id="rect4035-3-9"/>
  <rect width="0" x="343.26047" y="528.01648" height="10.477185" style="fill:#f2f2f2" id="rect4035-8-9-9"/>
  <rect width="0" x="344.67078" y="527.25879" height="10.477185" style="fill:#f2f2f2" id="rect4035-0-4-4"/>
  <rect width="0" x="392.50122" y="527.10132" height="7.857131" style="fill:#f2f2f2" id="rect4035-5"/>
  <rect width="0" x="388.96075" y="528.9007" height="7.857131" style="fill:#f2f2f2" id="rect4035-7"/>
  <rect width="0" x="385.45471" y="520.03027" height="7.857131" style="fill:#f2f2f2" id="rect4035-9"/>
  <rect width="0" x="386.11118" y="528.7713" height="7.857131" style="fill:#f2f2f2" id="rect4035-96"/>
  <rect width="0" x="382.57071" y="530.57062" height="7.857131" style="fill:#f2f2f2" id="rect4035-7-0"/>
  <rect width="0" x="379.06467" y="521.70026" height="7.857131" style="fill:#f2f2f2" id="rect4035-9-6"/>
  <rect width="0" x="392.50122" y="527.10132" height="7.857131" style="fill:#f2f2f2" id="rect4035-1"/>
  <rect width="0" x="388.96075" y="528.9007" height="7.857131" style="fill:#f2f2f2" id="rect4035-7-2"/>
  <rect width="0" x="385.45471" y="520.03027" height="7.857131" style="fill:#f2f2f2" id="rect4035-9-0"/>
  <rect width="0" x="386.11118" y="528.7713" height="7.857131" style="fill:#f2f2f2" id="rect4035-96-9"/>
  <rect width="0" x="382.57071" y="530.57062" height="7.857131" style="fill:#f2f2f2" id="rect4035-7-0-9"/>
  <rect width="0" x="379.06467" y="521.70026" height="7.857131" style="fill:#f2f2f2" id="rect4035-9-6-9"/>
  <path inkscape:connector-curvature="0" style="fill:#1272a5;stroke-linejoin:round" id="path4218" d="m 400.57143,528.798 a 4,4 0 0 0 -4,4 4,4 0 0 0 0.006,0.17187 2.9999869,2.9999869 0 0 0 -2.00586,2.82813 2.9999869,2.9999869 0 0 0 3,3 l 5.5,0 a 3.5,3.5 0 0 0 3.5,-3.5 3.5,3.5 0 0 0 -2.06055,-3.1875 4,4 0 0 0 -3.93945,-3.3125 z m 0,1 a 3,3 0 0 1 3,3 3,3 0 0 1 -0.002,0.0508 2.5,2.5 0 0 1 2.00195,2.44922 2.5,2.5 0 0 1 -2.5,2.5 l -5.5,0 a 1.999994,2 0 0 1 -2,-2 1.999994,2 0 0 1 2,-2 1.999994,2 0 0 1 0.17773,0.008 3,3 0 0 1 -0.17773,-1.00781 3,3 0 0 1 3,-3 z"/>
 </g>
</svg>
