<?xml version="1.0" encoding="UTF-8" standalone="no"?>

<!-- Created with Inkscape (http://www.inkscape.org/) -->
<svg width="32" version="1.1" xmlns="http://www.w3.org/2000/svg" height="32" viewBox="0 0 32 32" xmlns:xlink="http://www.w3.org/1999/xlink" xmlns:inkscape="http://www.inkscape.org/namespaces/inkscape">
 <defs id="defs5455">
  <linearGradient inkscape:collect="always" id="linearGradient4172-5">
   <stop style="stop-color:#3daee9" id="stop4174-6"/>
   <stop offset="1" style="stop-color:#6cc1ef" id="stop4176-6"/>
  </linearGradient>
  <linearGradient inkscape:collect="always" id="linearGradient4342" xlink:href="#linearGradient4172-5" y1="29" y2="8" gradientUnits="userSpaceOnUse" x2="0"/>
 </defs>
 <metadata id="metadata5458"/>
 <g inkscape:label="Capa 1" inkscape:groupmode="layer" id="layer1" transform="matrix(1 0 0 1 -384.57143 -515.798)">
  <g inkscape:label="Capa 1" id="layer1-8" transform="matrix(1 0 0 1 -0.000006 0)">
   <path inkscape:connector-curvature="0" style="fill:#147eb8;fill-rule:evenodd" id="path4308" d="m 386.57144,518.798 0,7 0,1 28,0 0,-6 -14.00001,0 -2,-2 z"/>
   <path inkscape:connector-curvature="0" style="fill-opacity:0.235294;fill-rule:evenodd" id="path4306" d="m 397.57143,523.798 -1.99999,1 -9,0 0,1 6.99999,0 3,0 z"/>
   <path inkscape:connector-curvature="0" style="fill:url(#linearGradient4342)" id="rect4294" d="m 13,8 -2,2 -9,0 -1,0 0,19 11,0 1,0 18,0 0,-21 -18,0 z" transform="matrix(1 0 0 1 384.57143 515.798)"/>
   <path inkscape:connector-curvature="0" style="fill:#ffffff;fill-opacity:0.235294;fill-rule:evenodd" id="path4304" d="m 397.57143,523.798 -2,2 -10,0 0,1 11,0 z"/>
   <path inkscape:connector-curvature="0" style="fill:#ffffff;fill-opacity:0.235294;fill-rule:evenodd" id="path4310" d="m 398.57143,518.798 1,3 15.00001,0 0,-1 -14.00001,0 z"/>
   <rect width="30" x="385.57144" y="543.79797" height="1" style="fill-opacity:0.235294" id="rect4292"/>
  </g>
  <path style="fill:#1272a5" id="path4211" d="M 20 13 A 0.99999398 1 0 0 0 19 14 A 0.99999398 1 0 0 0 20 15 A 0.99999398 1 0 0 0 21 14 A 0.99999398 1 0 0 0 20 13 z M 16.5 15 A 0.5 0.5 0 0 0 16 15.5 A 0.5 0.5 0 0 0 16.5 16 A 0.5 0.5 0 0 0 17 15.5 A 0.5 0.5 0 0 0 16.5 15 z M 14.5 16 A 0.5 0.5 0 0 0 14 16.5 A 0.5 0.5 0 0 0 14.5 17 A 0.5 0.5 0 0 0 15 16.5 A 0.5 0.5 0 0 0 14.5 16 z M 12 17 A 0.99999398 1 0 0 0 11 18 A 0.99999398 1 0 0 0 12 19 A 0.99999398 1 0 0 0 13 18 A 0.99999398 1 0 0 0 12 17 z M 14.5 19 A 0.5 0.5 0 0 0 14 19.5 A 0.5 0.5 0 0 0 14.5 20 A 0.5 0.5 0 0 0 15 19.5 A 0.5 0.5 0 0 0 14.5 19 z M 16.5 20 A 0.5 0.5 0 0 0 16 20.5 A 0.5 0.5 0 0 0 16.5 21 A 0.5 0.5 0 0 0 17 20.5 A 0.5 0.5 0 0 0 16.5 20 z M 20 21 A 0.99999398 1 0 0 0 19 22 A 0.99999398 1 0 0 0 20 23 A 0.99999398 1 0 0 0 21 22 A 0.99999398 1 0 0 0 20 21 z " transform="matrix(1 0 0 1 384.57143 515.798)"/>
 </g>
</svg>
