<?xml version="1.0" encoding="UTF-8" standalone="no"?>
<svg
   xmlns:dc="http://purl.org/dc/elements/1.1/"
   xmlns:cc="http://creativecommons.org/ns#"
   xmlns:rdf="http://www.w3.org/1999/02/22-rdf-syntax-ns#"
   xmlns:svg="http://www.w3.org/2000/svg"
   xmlns="http://www.w3.org/2000/svg"
   xmlns:xlink="http://www.w3.org/1999/xlink"
   id="svg2"
   viewBox="0 0 32 32"
   height="32"
   version="1.1"
   width="32">
  <defs
     id="defs5455">
    <linearGradient
       id="linearGradient4172-5">
      <stop
         id="stop4174-6"
         style="stop-color:#3daee9" />
      <stop
         id="stop4176-6"
         style="stop-color:#6cc1ef"
         offset="1" />
    </linearGradient>
    <linearGradient
       x2="0"
       gradientUnits="userSpaceOnUse"
       y2="8"
       y1="29"
       xlink:href="#linearGradient4172-5"
       id="linearGradient4342" />
  </defs>
  <metadata
     id="metadata5458">
    <rdf:RDF>
      <cc:Work
         rdf:about="">
        <dc:format>image/svg+xml</dc:format>
        <dc:type
           rdf:resource="http://purl.org/dc/dcmitype/StillImage" />
        <dc:title></dc:title>
      </cc:Work>
    </rdf:RDF>
  </metadata>
  <g
     transform="matrix(1 0 0 1 -384.57143 -515.798)"
     id="layer1">
    <g
       transform="matrix(1 0 0 1 -0.000006 0)"
       id="layer1-1">
      <path
         d="m 386.57144,518.798 0,7 0,1 28,0 0,-6 -14.00001,0 -2,-2 z"
         id="path4308"
         style="fill:#147eb8;fill-rule:evenodd" />
      <path
         d="m 397.57143,523.798 -1.99999,1 -9,0 0,1 6.99999,0 3,0 z"
         id="path4306"
         style="fill-opacity:0.235294;fill-rule:evenodd" />
      <path
         transform="matrix(1 0 0 1 384.57143 515.798)"
         d="m 13,8 -2,2 -9,0 -1,0 0,19 11,0 1,0 18,0 0,-21 -18,0 z"
         id="rect4294"
         style="fill:url(#linearGradient4342)" />
      <path
         d="m 397.57143,523.798 -2,2 -10,0 0,1 11,0 z"
         id="path4304"
         style="fill:#ffffff;fill-opacity:0.235294;fill-rule:evenodd" />
      <path
         d="m 398.57143,518.798 1,3 15.00001,0 0,-1 -14.00001,0 z"
         id="path4310"
         style="fill:#ffffff;fill-opacity:0.235294;fill-rule:evenodd" />
      <rect
         id="rect4292"
         style="fill-opacity:0.235294"
         height="1"
         y="543.79797"
         x="385.57144"
         width="30" />
    </g>
    <path
       id="rect4184"
       transform="translate(384.57143,515.798)"
       d="M 16 13 C 14.337997 13 13 14.337997 13 16 L 14 16 C 14 14.892 14.892 14 16 14 C 17.108 14 18 14.892 18 16 L 18 18 L 14 18 L 13 18 L 12 18 L 12 23 L 20 23 L 20 18 L 19 18 L 19 16 C 19 14.337997 17.662003 13 16 13 z M 13 19 L 14 19 L 18 19 L 19 19 L 19 22 L 13 22 L 13 19 z "
       style="fill:#1272a5" />
  </g>
</svg>
