<?xml version="1.0" encoding="UTF-8" standalone="no"?>
<!-- Created with Inkscape (http://www.inkscape.org/) -->

<svg
   xmlns:dc="http://purl.org/dc/elements/1.1/"
   xmlns:cc="http://creativecommons.org/ns#"
   xmlns:rdf="http://www.w3.org/1999/02/22-rdf-syntax-ns#"
   xmlns:svg="http://www.w3.org/2000/svg"
   xmlns="http://www.w3.org/2000/svg"
   xmlns:xlink="http://www.w3.org/1999/xlink"
   xmlns:sodipodi="http://sodipodi.sourceforge.net/DTD/sodipodi-0.dtd"
   xmlns:inkscape="http://www.inkscape.org/namespaces/inkscape"
   width="32"
   version="1.1"
   height="32"
   viewBox="0 0 32 32"
   id="svg2"
   inkscape:version="0.91 r13725"
   sodipodi:docname="folder-favorites.svg">
  <sodipodi:namedview
     pagecolor="#ffffff"
     bordercolor="#666666"
     borderopacity="1"
     objecttolerance="10"
     gridtolerance="10"
     guidetolerance="10"
     inkscape:pageopacity="0"
     inkscape:pageshadow="2"
     inkscape:window-width="910"
     inkscape:window-height="480"
     id="namedview19"
     showgrid="false"
     inkscape:zoom="7.375"
     inkscape:cx="16"
     inkscape:cy="16"
     inkscape:window-x="0"
     inkscape:window-y="0"
     inkscape:window-maximized="0"
     inkscape:current-layer="layer1" />
  <defs
     id="defs5455">
    <linearGradient
       inkscape:collect="always"
       id="linearGradient4172-5">
      <stop
         style="stop-color:#3daee9"
         id="stop4174-6" />
      <stop
         offset="1"
         style="stop-color:#6cc1ef"
         id="stop4176-6" />
    </linearGradient>
    <linearGradient
       inkscape:collect="always"
       id="linearGradient4342"
       xlink:href="#linearGradient4172-5"
       y1="29"
       y2="8"
       gradientUnits="userSpaceOnUse"
       x2="0" />
  </defs>
  <metadata
     id="metadata5458">
    <rdf:RDF>
      <cc:Work
         rdf:about="">
        <dc:format>image/svg+xml</dc:format>
        <dc:type
           rdf:resource="http://purl.org/dc/dcmitype/StillImage" />
      </cc:Work>
    </rdf:RDF>
  </metadata>
  <g
     inkscape:label="Capa 1"
     inkscape:groupmode="layer"
     id="layer1"
     transform="matrix(1 0 0 1 -384.57143 -515.798)">
    <g
       inkscape:label="Capa 1"
       id="layer1-4"
       transform="matrix(1 0 0 1 -0.000006 0)">
      <path
         inkscape:connector-curvature="0"
         style="fill:#147eb8;fill-rule:evenodd"
         id="path4308"
         d="m 386.57144,518.798 0,7 0,1 28,0 0,-6 -14.00001,0 -2,-2 z" />
      <path
         inkscape:connector-curvature="0"
         style="fill-opacity:0.235294;fill-rule:evenodd"
         id="path4306"
         d="m 397.57143,523.798 -1.99999,1 -9,0 0,1 6.99999,0 3,0 z" />
      <path
         inkscape:connector-curvature="0"
         style="fill:url(#linearGradient4342)"
         id="rect4294"
         d="m 13,8 -2,2 -9,0 -1,0 0,19 11,0 1,0 18,0 0,-21 -18,0 z"
         transform="matrix(1 0 0 1 384.57143 515.798)" />
      <path
         inkscape:connector-curvature="0"
         style="fill:#ffffff;fill-opacity:0.235294;fill-rule:evenodd"
         id="path4304"
         d="m 397.57143,523.798 -2,2 -10,0 0,1 11,0 z" />
      <path
         inkscape:connector-curvature="0"
         style="fill:#ffffff;fill-opacity:0.235294;fill-rule:evenodd"
         id="path4310"
         d="m 398.57143,518.798 1,3 15.00001,0 0,-1 -14.00001,0 z" />
      <rect
         width="30"
         x="385.57144"
         y="543.79797"
         height="1"
         style="fill-opacity:0.235294"
         id="rect4292" />
    </g>
    <path
       style="color:#000000;font-style:normal;font-variant:normal;font-weight:normal;font-stretch:normal;font-size:medium;line-height:normal;font-family:Sans;-inkscape-font-specification:Sans;text-indent:0;text-align:start;text-decoration:none;text-decoration-line:none;letter-spacing:normal;word-spacing:normal;text-transform:none;direction:ltr;block-progression:tb;writing-mode:lr-tb;baseline-shift:baseline;text-anchor:start;display:inline;overflow:visible;visibility:visible;fill:#1272a5;fill-opacity:1;stroke:none;stroke-width:1;marker:none;enable-background:accumulate"
       d="m 400.57143,528.798 -1.5,3.5 -3.5,0.5 2.5,2.5 -0.5,3.5 3,-2 3,2 -0.5,-3.5 2.5,-2.5 -3.5,-0.5 c -0.61459,-1.01041 0,-10e-6 -1.5,-3.5 z"
       id="path4202"
       inkscape:connector-curvature="0" />
  </g>
</svg>
