<?xml version="1.0" encoding="UTF-8" standalone="no"?>

<!-- Created with Inkscape (http://www.inkscape.org/) -->
<svg width="32" version="1.1" xmlns="http://www.w3.org/2000/svg" height="32" viewBox="0 0 32 32" xmlns:xlink="http://www.w3.org/1999/xlink" xmlns:inkscape="http://www.inkscape.org/namespaces/inkscape">
 <defs id="defs5455">
  <linearGradient inkscape:collect="always" id="linearGradient4172-5">
   <stop style="stop-color:#3daee9" id="stop4174-6"/>
   <stop offset="1" style="stop-color:#6cc1ef" id="stop4176-6"/>
  </linearGradient>
  <linearGradient inkscape:collect="always" id="linearGradient4342" xlink:href="#linearGradient4172-5" y1="29" y2="8" gradientUnits="userSpaceOnUse" x2="0"/>
 </defs>
 <metadata id="metadata5458"/>
 <g inkscape:label="Capa 1" inkscape:groupmode="layer" id="layer1" transform="matrix(1 0 0 1 -384.57143 -515.798)">
  <g inkscape:label="Capa 1" id="layer1-4" transform="matrix(1 0 0 1 -0.000006 0)">
   <path inkscape:connector-curvature="0" style="fill:#147eb8;fill-rule:evenodd" id="path4308" d="m 386.57144,518.798 0,7 0,1 28,0 0,-6 -14.00001,0 -2,-2 z"/>
   <path inkscape:connector-curvature="0" style="fill-opacity:0.235294;fill-rule:evenodd" id="path4306" d="m 397.57143,523.798 -1.99999,1 -9,0 0,1 6.99999,0 3,0 z"/>
   <path inkscape:connector-curvature="0" style="fill:url(#linearGradient4342)" id="rect4294" d="m 13,8 -2,2 -9,0 -1,0 0,19 11,0 1,0 18,0 0,-21 -18,0 z" transform="matrix(1 0 0 1 384.57143 515.798)"/>
   <path inkscape:connector-curvature="0" style="fill:#ffffff;fill-opacity:0.235294;fill-rule:evenodd" id="path4304" d="m 397.57143,523.798 -2,2 -10,0 0,1 11,0 z"/>
   <path inkscape:connector-curvature="0" style="fill:#ffffff;fill-opacity:0.235294;fill-rule:evenodd" id="path4310" d="m 398.57143,518.798 1,3 15.00001,0 0,-1 -14.00001,0 z"/>
   <rect width="30" x="385.57144" y="543.79797" height="1" style="fill-opacity:0.235294" id="rect4292"/>
  </g>
  <path style="fill:#1272a5" id="rect4347" d="M 16 13 L 11 18 L 11 19 L 12 19 L 12 22 L 12 23 L 20 23 L 20 22 L 20 19 L 21 19 L 21 18 L 19 16 L 19 14 L 18 14 L 18 15 L 16 13 z M 16 14.414062 L 19.585938 18 L 19 18 L 19 19 L 19 22 L 17 22 L 17 19 L 15 19 L 15 22 L 13 22 L 13 19 L 13 18 L 12.414062 18 L 16 14.414062 z " transform="matrix(1 0 0 1 384.57143 515.798)"/>
 </g>
</svg>
