<?xml version="1.0" encoding="UTF-8" standalone="no"?>

<!-- Created with Inkscape (http://www.inkscape.org/) -->
<svg width="32" version="1.1" xmlns="http://www.w3.org/2000/svg" height="32" viewBox="0 0 32 32" xmlns:xlink="http://www.w3.org/1999/xlink" xmlns:inkscape="http://www.inkscape.org/namespaces/inkscape">
 <defs id="defs5455">
  <linearGradient inkscape:collect="always" id="linearGradient4342" xlink:href="#linearGradient4209" y1="29" y2="8" gradientUnits="userSpaceOnUse" x2="0" gradientTransform="matrix(1 0 0 1 384.57142 515.798)"/>
  <linearGradient inkscape:collect="always" id="linearGradient4209">
   <stop style="stop-color:#eb0a42" id="stop4211"/>
   <stop offset="1" style="stop-color:#f62459" id="stop4213"/>
  </linearGradient>
 </defs>
 <metadata id="metadata5458"/>
 <g inkscape:label="Capa 1" inkscape:groupmode="layer" id="layer1" transform="matrix(1 0 0 1 -384.57143 -515.798)">
  <g id="g4261">
   <path inkscape:connector-curvature="0" style="fill:#9d072c;fill-rule:evenodd" id="path4308" d="m 386.57143,518.798 0,7 0,1 28,0 0,-6 -14.00001,0 -2,-2 z"/>
   <path inkscape:connector-curvature="0" style="fill-opacity:0.235294;fill-rule:evenodd" id="path4306" d="m 397.57142,523.798 -1.99999,1 -9,0 0,1 6.99999,0 3,0 z"/>
   <path inkscape:connector-curvature="0" style="fill:url(#linearGradient4342)" id="rect4294" d="m 397.57142,523.798 -2,2 -9,0 -1,0 0,19 11,0 1,0 18,0 0,-21 -18,0 z"/>
   <path inkscape:connector-curvature="0" style="fill:#ffffff;fill-opacity:0.235294;fill-rule:evenodd" id="path4304" d="m 397.57142,523.798 -2,2 -10,0 0,1 11,0 z"/>
   <path inkscape:connector-curvature="0" style="fill:#ffffff;fill-opacity:0.235294;fill-rule:evenodd" id="path4310" d="m 398.57142,518.798 1,3 15.00001,0 0,-1 -14.00001,0 z"/>
   <rect width="30" x="385.57144" y="543.79797" height="1" style="fill-opacity:0.235294" id="rect4292"/>
  </g>
  <path style="fill:#95132e" id="rect4422" d="M 14 13 L 14 14 L 11 14 L 11 15 L 12 15 L 12 22 L 12 23 L 13 23 L 20 23 L 20 22 L 20 15 L 21 15 L 21 14 L 18 14 L 18 13 L 17 13 L 15 13 L 14 13 z M 15 14 L 17 14 L 17 15 L 18 15 L 19 15 L 19 22 L 13 22 L 13 15 L 14 15 L 15 15 L 15 14 z M 14 17 L 14 20 L 15 20 L 15 17 L 14 17 z M 17 17 L 17 20 L 18 20 L 18 17 L 17 17 z " transform="matrix(1 0 0 1 384.57143 515.798)"/>
 </g>
</svg>
