<?xml version="1.0" encoding="UTF-8" standalone="no"?>
<svg
   height="300px"
   width="300px"
   fill="#000000"
   viewBox="0 0 22 22"
   version="1.1"
   x="0px"
   y="0px"
   id="svg12"
   sodipodi:docname="text.svg"
   inkscape:version="1.1 (c4e8f9ed74, 2021-05-24)"
   xmlns:inkscape="http://www.inkscape.org/namespaces/inkscape"
   xmlns:sodipodi="http://sodipodi.sourceforge.net/DTD/sodipodi-0.dtd"
   xmlns="http://www.w3.org/2000/svg"
   xmlns:svg="http://www.w3.org/2000/svg"
   xmlns:sketch="http://www.bohemiancoding.com/sketch/ns">
  <defs
     id="defs16" />
  <sodipodi:namedview
     id="namedview14"
     pagecolor="#ffffff"
     bordercolor="#666666"
     borderopacity="1.0"
     inkscape:pageshadow="2"
     inkscape:pageopacity="0.0"
     inkscape:pagecheckerboard="0"
     showgrid="false"
     inkscape:zoom="2.4233333"
     inkscape:cx="150.20633"
     inkscape:cy="150"
     inkscape:window-width="1920"
     inkscape:window-height="1020"
     inkscape:window-x="0"
     inkscape:window-y="32"
     inkscape:window-maximized="1"
     inkscape:current-layer="svg12" />
  <title
     id="title2">text</title>
  <desc
     id="desc4">Created with Sketch.</desc>
  <g
     stroke="none"
     stroke-width="1"
     fill="none"
     fill-rule="evenodd"
     sketch:type="MSPage"
     id="g10"
     style="fill:#e6e6e6">
    <g
       sketch:type="MSArtboardGroup"
       fill="#000000"
       id="g8"
       style="fill:#e6e6e6">
      <path
         d="M18,20 L20,20 L20,18 L14,18 L14,20 L16,20 L16,19 L18,19 L18,20 L18,20 L18,20 Z M16,3 L14,3 L14,5 L20,5 L20,3 L18,3 L18,4 L16,4 L16,3 L16,3 L16,3 Z M10,7 L8,7 L5.99975309,7 L4,7 L2,7 L2,11 L4,11 L4,9 L5.99975309,9 L5.99975309,15 L4,15 L4,17 L5.99975309,17 L8,17 L10,17 L10,15 L8,15 L8,9 L10,9 L10,11 L12,11 L12,9 L12,7 L10,7 L10,7 Z M16,5 L18,5 L18,18 L16,18 L16,5 L16,5 Z"
         sketch:type="MSShapeGroup"
         id="path6"
         style="fill:#e6e6e6" />
    </g>
  </g>
</svg>
