<?xml version="1.0" encoding="UTF-8" standalone="no"?>
<svg
   height="256"
   width="256"
   version="1.1"
   id="svg1"
   sodipodi:docname="automation-4p.svg"
   inkscape:version="1.3.2 (091e20ef0f, 2023-11-25, custom)"
   xmlns:inkscape="http://www.inkscape.org/namespaces/inkscape"
   xmlns:sodipodi="http://sodipodi.sourceforge.net/DTD/sodipodi-0.dtd"
   xmlns="http://www.w3.org/2000/svg"
   xmlns:svg="http://www.w3.org/2000/svg">
  <defs
     id="defs1" />
  <sodipodi:namedview
     id="namedview1"
     pagecolor="#ffffff"
     bordercolor="#666666"
     borderopacity="1.0"
     inkscape:showpageshadow="2"
     inkscape:pageopacity="0.0"
     inkscape:pagecheckerboard="0"
     inkscape:deskcolor="#d1d1d1"
     inkscape:zoom="3.15625"
     inkscape:cx="127.84158"
     inkscape:cy="128"
     inkscape:window-width="2560"
     inkscape:window-height="1023"
     inkscape:window-x="0"
     inkscape:window-y="0"
     inkscape:window-maximized="1"
     inkscape:current-layer="svg1" />
  <path
     d="m144.282 145.51a32.19 32.19 0 0 1 5.718-.51c4.032 0 7.89.746 11.444 2.107l14.14-20.107.54.306a31.88 31.88 0 0 1 -8.124-21.306c0-17.673 14.327-32 32-32s32 14.327 32 32-14.327 32-32 32c-3.672 0-7.2-.619-10.485-1.757l-14.31 21.038a31.863 31.863 0 0 1 6.795 19.719c0 17.673-14.327 32-32 32s-32-14.327-32-32c0-9.767 4.376-18.512 11.274-24.382l-20.764-41.28a32.14 32.14 0 0 1 -6.51.662 32.05 32.05 0 0 1 -8.16-1.05l-14.716 25.93c6.086 5.825 9.876 14.03 9.876 23.12 0 17.673-14.327 32-32 32s-32-14.327-32-32 14.327-32 32-32c2.655 0 5.234.323 7.7.932l14.809-26.17c-5.871-5.799-9.509-13.855-9.509-22.762 0-17.673 14.327-32 32-32s32 14.327 32 32c0 9.563-4.195 18.146-10.844 24.01zm55.718-23.51c8.837 0 16-7.163 16-16s-7.163-16-16-16-16 7.163-16 16 7.163 16 16 16zm-143 54c8.837 0 16-7.163 16-16s-7.163-16-16-16-16 7.163-16 16 7.163 16 16 16zm45-80c8.837 0 16-7.163 16-16s-7.163-16-16-16-16 7.163-16 16 7.163 16 16 16zm48 97c8.837 0 16-7.163 16-16s-7.163-16-16-16-16 7.163-16 16 7.163 16 16 16z"
     fill-rule="evenodd"
     id="path1"
     style="fill:#f2f2f2" />
</svg>
