<?xml version="1.0" encoding="UTF-8" standalone="no"?>
<svg
   width="20"
   height="22"
   viewBox="0 0 20 22"
   fill="none"
   version="1.1"
   id="svg4"
   sodipodi:docname="edit-tool.svg"
   inkscape:version="1.1.2 (0a00cf5339, 2022-02-04, custom)"
   xmlns:inkscape="http://www.inkscape.org/namespaces/inkscape"
   xmlns:sodipodi="http://sodipodi.sourceforge.net/DTD/sodipodi-0.dtd"
   xmlns="http://www.w3.org/2000/svg"
   xmlns:svg="http://www.w3.org/2000/svg">
  <defs
     id="defs8" />
  <sodipodi:namedview
     id="namedview6"
     pagecolor="#ffffff"
     bordercolor="#666666"
     borderopacity="1.0"
     inkscape:pageshadow="2"
     inkscape:pageopacity="0.0"
     inkscape:pagecheckerboard="0"
     showgrid="false"
     inkscape:zoom="33.045455"
     inkscape:cx="9.9862448"
     inkscape:cy="11"
     inkscape:window-width="1920"
     inkscape:window-height="1020"
     inkscape:window-x="0"
     inkscape:window-y="0"
     inkscape:window-maximized="1"
     inkscape:current-layer="svg4" />
  <path
     fill-rule="evenodd"
     clip-rule="evenodd"
     d="M14.4374 0.998779C15.0921 0.998779 15.7197 1.2602 16.1781 1.7222L19.279 4.8231C19.7407 5.28478 20.0001 5.91095 20.0001 6.56386C20.0001 7.21677 19.7407 7.84294 19.279 8.30462L7.95751 19.6225C7.25902 20.4283 6.2689 20.9233 5.1346 21.0011H0V20.0011L0.00324765 15.7861C0.0884382 14.7316 0.578667 13.7511 1.3265 13.0922L12.6954 1.72341C13.1564 1.25961 13.7834 0.998779 14.4374 0.998779ZM5.06398 19.0036C5.59821 18.9658 6.09549 18.7172 6.49479 18.2604L14.0567 10.6985L10.3023 6.94397L2.6961 14.5484C2.29095 14.9067 2.04031 15.408 2 15.8666V19.0017L5.06398 19.0036ZM11.7167 5.52993L15.4709 9.28428L17.8648 6.8904C17.9514 6.8038 18.0001 6.68634 18.0001 6.56386C18.0001 6.44138 17.9514 6.32392 17.8648 6.23732L14.7611 3.13364C14.6755 3.04733 14.5589 2.99878 14.4374 2.99878C14.3158 2.99878 14.1992 3.04733 14.1136 3.13364L11.7167 5.52993Z"
     fill="#A9ABB0"
     id="path2"
     style="fill:#f2f2f2" />
</svg>
