<?xml version="1.0" encoding="UTF-8" standalone="no"?>
<svg
   xmlns:dc="http://purl.org/dc/elements/1.1/"
   xmlns:cc="http://creativecommons.org/ns#"
   xmlns:rdf="http://www.w3.org/1999/02/22-rdf-syntax-ns#"
   xmlns:svg="http://www.w3.org/2000/svg"
   xmlns="http://www.w3.org/2000/svg"
   xmlns:sodipodi="http://sodipodi.sourceforge.net/DTD/sodipodi-0.dtd"
   xmlns:inkscape="http://www.inkscape.org/namespaces/inkscape"
   width="22"
   height="17"
   viewBox="0 0 22 17"
   fill="none"
   version="1.1"
   id="svg4"
   sodipodi:docname="event-viewer.svg"
   inkscape:version="1.0 (4035a4fb49, 2020-05-01)">
  <metadata
     id="metadata10">
    <rdf:RDF>
      <cc:Work
         rdf:about="">
        <dc:format>image/svg+xml</dc:format>
        <dc:type
           rdf:resource="http://purl.org/dc/dcmitype/StillImage" />
      </cc:Work>
    </rdf:RDF>
  </metadata>
  <defs
     id="defs8" />
  <sodipodi:namedview
     inkscape:document-rotation="0"
     pagecolor="#ffffff"
     bordercolor="#666666"
     borderopacity="1"
     objecttolerance="10"
     gridtolerance="10"
     guidetolerance="10"
     inkscape:pageopacity="0"
     inkscape:pageshadow="2"
     inkscape:window-width="1920"
     inkscape:window-height="1025"
     id="namedview6"
     showgrid="false"
     inkscape:zoom="17.4489"
     inkscape:cx="5.388763"
     inkscape:cy="12.57961"
     inkscape:window-x="0"
     inkscape:window-y="27"
     inkscape:window-maximized="1"
     inkscape:current-layer="svg4" />
  <path
     fill-rule="evenodd"
     clip-rule="evenodd"
     d="m 8.346597,0.98202489 h 10.613612 c 0.976983,0 1.768935,0.79197891 1.768935,1.76893531 V 14.24904 c 0,0.976983 -0.791952,1.768935 -1.768935,1.768935 H 8.346597 6.5776617 3.0397911 c -0.9769565,0 -1.7689354,-0.791952 -1.7689354,-1.768935 V 2.7509602 c 0,-0.9769564 0.7919789,-1.76893531 1.7689354,-1.76893531 H 6.5776617 Z M 6.5776617,2.7509602 H 3.0397911 v 2.653403 h 3.5378706 z m 1.7689353,2.653403 v -2.653403 h 10.613612 v 2.653403 z M 6.5776617,7.1732985 H 3.0397911 v 2.653403 h 3.5378706 z m 1.7689353,2.653403 v -2.653403 h 10.613612 v 2.653403 z M 6.5776617,11.595637 H 3.0397911 V 14.24904 H 6.5776617 Z M 8.346597,14.24904 v -2.653403 h 10.613612 v 2.653403 z"
     fill="black"
     id="path2"
     style="fill:#e6e6e6;stroke-width:0.884468" />
</svg>
