<?xml version="1.0" encoding="UTF-8" standalone="no"?>
<svg
   xmlns:dc="http://purl.org/dc/elements/1.1/"
   xmlns:cc="http://creativecommons.org/ns#"
   xmlns:rdf="http://www.w3.org/1999/02/22-rdf-syntax-ns#"
   xmlns:svg="http://www.w3.org/2000/svg"
   xmlns="http://www.w3.org/2000/svg"
   xmlns:sodipodi="http://sodipodi.sourceforge.net/DTD/sodipodi-0.dtd"
   xmlns:inkscape="http://www.inkscape.org/namespaces/inkscape"
   width="20"
   height="20"
   viewBox="0 0 20 20"
   fill="none"
   version="1.1"
   id="svg4"
   sodipodi:docname="info.svg"
   inkscape:version="1.0 (4035a4fb49, 2020-05-01)">
  <metadata
     id="metadata10">
    <rdf:RDF>
      <cc:Work
         rdf:about="">
        <dc:format>image/svg+xml</dc:format>
        <dc:type
           rdf:resource="http://purl.org/dc/dcmitype/StillImage" />
      </cc:Work>
    </rdf:RDF>
  </metadata>
  <defs
     id="defs8" />
  <sodipodi:namedview
     inkscape:document-rotation="0"
     pagecolor="#ffffff"
     bordercolor="#666666"
     borderopacity="1"
     objecttolerance="10"
     gridtolerance="10"
     guidetolerance="10"
     inkscape:pageopacity="0"
     inkscape:pageshadow="2"
     inkscape:window-width="1517"
     inkscape:window-height="845"
     id="namedview6"
     showgrid="false"
     inkscape:zoom="14.831565"
     inkscape:cx="-11.942333"
     inkscape:cy="16.080029"
     inkscape:window-x="0"
     inkscape:window-y="27"
     inkscape:window-maximized="0"
     inkscape:current-layer="svg4" />
  <path
     fill-rule="evenodd"
     clip-rule="evenodd"
     d="m 0.95465703,10 c 0,4.995562 4.04973577,9.045343 9.04534297,9.045343 4.995562,0 9.045343,-4.049781 9.045343,-9.045343 C 19.045343,5.0043928 14.995562,0.95465703 10,0.95465703 5.0043928,0.95465703 0.95465703,5.0043928 0.95465703,10 Z M 17.400719,10 c 0,4.087319 -3.3134,7.400719 -7.400719,7.400719 -4.0873101,0 -7.4007368,-3.3134 -7.4007368,-7.400719 0,-4.0873101 3.3134267,-7.4007368 7.4007368,-7.4007368 4.087319,0 7.400719,3.3134267 7.400719,7.4007368 z m -6.575422,2.261336 h 0.821679 V 13.90596 H 8.3577999 V 12.261336 H 9.180103 V 9.9986432 H 8.3577999 V 8.354037 h 2.4674971 z m 0.07924,-5.8794732 c 0,0.4995562 -0.40496,0.9045343 -0.904534,0.9045343 -0.4995562,0 -0.9045343,-0.4049781 -0.9045343,-0.9045343 0,-0.4995562 0.4049781,-0.9045343 0.9045343,-0.9045343 0.499574,0 0.904534,0.4049781 0.904534,0.9045343 z"
     fill="black"
     id="path2"
     style="fill:#e6e6e6;stroke-width:0.904534" />
</svg>
