<?xml version="1.0" encoding="UTF-8" standalone="no"?>
<svg
   xmlns:dc="http://purl.org/dc/elements/1.1/"
   xmlns:cc="http://creativecommons.org/ns#"
   xmlns:rdf="http://www.w3.org/1999/02/22-rdf-syntax-ns#"
   xmlns:svg="http://www.w3.org/2000/svg"
   xmlns="http://www.w3.org/2000/svg"
   xmlns:sodipodi="http://sodipodi.sourceforge.net/DTD/sodipodi-0.dtd"
   xmlns:inkscape="http://www.inkscape.org/namespaces/inkscape"
   width="24"
   height="24"
   viewBox="0 0 24 24"
   fill="none"
   version="1.1"
   id="svg4"
   sodipodi:docname="instrument.svg"
   inkscape:version="1.0.1 (3bc2e813f5, 2020-09-07)">
  <metadata
     id="metadata10">
    <rdf:RDF>
      <cc:Work
         rdf:about="">
        <dc:format>image/svg+xml</dc:format>
        <dc:type
           rdf:resource="http://purl.org/dc/dcmitype/StillImage" />
      </cc:Work>
    </rdf:RDF>
  </metadata>
  <defs
     id="defs8" />
  <sodipodi:namedview
     pagecolor="#ffffff"
     bordercolor="#666666"
     borderopacity="1"
     objecttolerance="10"
     gridtolerance="10"
     guidetolerance="10"
     inkscape:pageopacity="0"
     inkscape:pageshadow="2"
     inkscape:window-width="1920"
     inkscape:window-height="1025"
     id="namedview6"
     showgrid="false"
     inkscape:zoom="34.958333"
     inkscape:cx="12"
     inkscape:cy="12"
     inkscape:window-x="0"
     inkscape:window-y="27"
     inkscape:window-maximized="1"
     inkscape:current-layer="svg4" />
  <path
     fill-rule="evenodd"
     clip-rule="evenodd"
     d="M22 20L22 4C22 2.89543 21.1046 2 20 2L16.0714 2L16 2L13.9286 2L10.0714 2L8 2L7.92857 2L4 2C2.89543 2 2 2.89543 2 4L2 20C2 21.1046 2.89543 22 4 22L8 22L16 22L20 22C21.1046 22 22 21.1046 22 20ZM7 4L4 4L4 20L8 20L8 14L7.92857 14C7 14 7 13.305 7 12.5L7 4ZM10 14L10 20L14 20L14 14L13.9286 14C13 14 13 13.305 13 12.5L13 4L11 4L11 12.5C11 13.305 11 14 10.0714 14L10 14ZM16.0714 14L16 14L16 20L20 20L20 4L17 4L17 12.5C17 13.305 17 14 16.0714 14Z"
     fill="black"
     id="path2"
     style="fill:#e6e6e6" />
</svg>
