<?xml version="1.0" encoding="UTF-8" standalone="no"?>
<svg
   xmlns:dc="http://purl.org/dc/elements/1.1/"
   xmlns:cc="http://creativecommons.org/ns#"
   xmlns:rdf="http://www.w3.org/1999/02/22-rdf-syntax-ns#"
   xmlns:svg="http://www.w3.org/2000/svg"
   xmlns="http://www.w3.org/2000/svg"
   xmlns:sodipodi="http://sodipodi.sourceforge.net/DTD/sodipodi-0.dtd"
   xmlns:inkscape="http://www.inkscape.org/namespaces/inkscape"
   width="20"
   height="20"
   viewBox="0 0 20 20"
   fill="none"
   version="1.1"
   id="svg6"
   sodipodi:docname="modulator.svg"
   inkscape:version="1.0 (4035a4fb49, 2020-05-01)">
  <metadata
     id="metadata12">
    <rdf:RDF>
      <cc:Work
         rdf:about="">
        <dc:format>image/svg+xml</dc:format>
        <dc:type
           rdf:resource="http://purl.org/dc/dcmitype/StillImage" />
      </cc:Work>
    </rdf:RDF>
  </metadata>
  <defs
     id="defs10" />
  <sodipodi:namedview
     inkscape:document-rotation="0"
     pagecolor="#ffffff"
     bordercolor="#666666"
     borderopacity="1"
     objecttolerance="10"
     gridtolerance="10"
     guidetolerance="10"
     inkscape:pageopacity="0"
     inkscape:pageshadow="2"
     inkscape:window-width="1920"
     inkscape:window-height="1025"
     id="namedview8"
     showgrid="false"
     inkscape:zoom="20.975"
     inkscape:cx="3.7238913"
     inkscape:cy="13.388547"
     inkscape:window-x="0"
     inkscape:window-y="27"
     inkscape:window-maximized="1"
     inkscape:current-layer="svg6" />
  <path
     d="M 2.9078092,8.0756568 H 1.1432418 V 6.0437393 H 2.9078092 V 4.2030658 c 0,-0.876509 0.2166982,-1.6016295 0.6501037,-2.1753438 0.4488783,-0.5896537 1.184122,-0.8844801 2.2057136,-0.8844801 0.3095703,0 0.6346221,0.031872 0.9751557,0.095619 0.3405246,0.063746 0.6268813,0.1354605 0.8590612,0.2151439 V 3.1751593 H 6.4137303 c -0.7429757,0 -1.1144635,0.3665369 -1.1144635,1.0996196 V 6.0437393 H 7.5978434 V 8.0756568 H 5.2992668 V 18.617714 H 2.9078092 Z"
     fill="black"
     id="path2"
     style="fill:#e6e6e6;stroke-width:0.885676" />
  <path
     d="m 8.7104914,18.856758 c -0.7429758,0 -1.3002075,-0.254986 -1.6716954,-0.764958 -0.061908,-0.111595 0.2089663,-0.533885 0.8126341,-1.266959 L 8.176482,16.418493 c 0.1393079,-0.159422 0.2553935,-0.239045 0.3482654,-0.239045 0.077399,0 0.139308,0.03976 0.185744,0.119479 0.1547896,0.159332 0.2786159,0.278899 0.3714878,0.358609 0.1083536,0.06368 0.2476615,0.09556 0.4179239,0.09556 0.2786159,0 0.5417239,-0.135419 0.7894469,-0.406348 0.247635,-0.28687 0.580384,-0.7809 0.998334,-1.482089 l 0.905515,-1.529917 -0.835813,-2.96418 C 11.24898,9.9880434 11.140662,9.7250951 11.032256,9.5816687 10.939436,9.4382335 10.823324,9.3665204 10.684007,9.3665204 c -0.170227,0 -0.317338,0.087656 -0.441155,0.2629571 -0.108318,0.1753018 -0.2476259,0.4621895 -0.417897,0.8605665 -0.092872,0.223102 -0.1702623,0.374553 -0.23218,0.454175 -0.061908,0.07971 -0.1393079,0.119566 -0.2321799,0.119566 -0.1702623,0 -0.2553935,-0.127537 -0.2553935,-0.382523 0,-0.398377 0.1006125,-0.8685205 0.3018295,-1.4103591 0.2167072,-0.557781 0.5185366,-1.0358777 0.9055239,-1.4342989 0.386952,-0.3984125 0.828107,-0.5976186 1.323376,-0.5976186 0.47986,0 0.866812,0.2470149 1.160945,0.7410537 0.309544,0.4780967 0.64238,1.3625768 0.998334,2.6533959 L 14.050638,10.251 c 0.696496,-1.035877 1.292467,-1.7928642 1.787825,-2.2709609 0.510769,-0.4940388 1.029245,-0.7410537 1.555602,-0.7410537 0.247634,0 0.495269,0.055779 0.742904,0.1673307 0.247724,0.095626 0.46436,0.2151483 0.650175,0.3585747 0.04641,0.047809 0.06962,0.087656 0.06962,0.1195219 0,0.079685 -0.0619,0.2071773 -0.185726,0.3824792 -0.232224,0.3506125 -0.518564,0.7091783 -0.859105,1.075724 -0.325044,0.3665459 -0.533974,0.5498099 -0.626882,0.5498099 -0.0155,0 -0.06961,-0.031867 -0.162522,-0.095618 -0.0774,-0.079685 -0.193431,-0.119522 -0.348247,-0.119522 -0.263134,0 -0.549473,0.1673307 -0.859106,0.5019752 -0.294044,0.318754 -0.7352,0.92438 -1.323376,1.816787 l -0.25543,0.430261 c 0.294133,1.482178 0.650087,2.669426 1.068037,3.561834 0.185726,0.494029 0.402451,0.741045 0.650086,0.741045 0.154816,0 0.286339,-0.07962 0.394746,-0.239045 0.123817,-0.175274 0.278633,-0.462144 0.46436,-0.860522 0.108318,-0.207159 0.193432,-0.350639 0.25534,-0.430349 0.062,-0.09556 0.139317,-0.143391 0.232224,-0.143391 0.0929,0 0.154816,0.03188 0.185726,0.09565 0.031,0.04773 0.04641,0.159334 0.04641,0.334608 0,0.43035 -0.116023,0.91641 -0.348248,1.458266 -0.232136,0.525825 -0.541768,0.980089 -0.92872,1.362523 -0.371452,0.366582 -0.766198,0.549828 -1.18406,0.549828 -0.417951,0 -0.797197,-0.223101 -1.137738,-0.669305 -0.325044,-0.446292 -0.688791,-1.274931 -1.091241,-2.486181 l -0.139317,-0.430261 -0.139317,0.239044 c -0.696496,1.179366 -1.346582,2.031918 -1.950258,2.557832 -0.603677,0.525914 -1.2383172,0.788871 -1.9039026,0.788871 z"
     fill="black"
     id="path4"
     style="fill:#e6e6e6;stroke-width:0.885676" />
</svg>
