<svg width="256" height="256" xmlns="http://www.w3.org/2000/svg">
    <path d="M101 124.751c0-1.106.89-2.003 1.992-2.003h25.707L129 105l28 24.5-28.301 24.5.301-18.52h-26.009c-1.1 0-1.991-.895-1.991-2.003v-8.726zM89.047 161H77.262v-15.955h-41.43V161H24.048v-32.5c0-4.744.816-9.11 2.448-13.1 1.632-3.989 3.898-7.418 6.8-10.29 2.9-2.87 6.33-5.106 10.289-6.708C47.542 96.801 51.864 96 56.547 96H83.11a5.95 5.95 0 0 1 2.312.453 5.84 5.84 0 0 1 3.173 3.173 5.95 5.95 0 0 1 .453 2.312V161zm-53.214-27.74h41.43v-25.475H56.546c-.362 0-1.125.053-2.289.159-1.163.106-2.508.37-4.034.793-1.526.423-3.135 1.073-4.827 1.95-1.693.876-3.249 2.084-4.669 3.625-1.42 1.542-2.591 3.468-3.513 5.78-.922 2.311-1.382 5.114-1.382 8.408v4.76zm194.757 12.681c0 1.429-.246 2.96-.737 4.597-.49 1.637-1.294 3.154-2.41 4.553-1.115 1.398-2.566 2.566-4.351 3.503-1.785.937-3.972 1.406-6.56 1.406H172.48a5.974 5.974 0 0 1-2.32-.446 5.673 5.673 0 0 1-1.853-1.228 5.673 5.673 0 0 1-1.227-1.852 5.974 5.974 0 0 1-.447-2.32v-52.307a5.935 5.935 0 0 1 1.674-4.15 5.504 5.504 0 0 1 1.852-1.25A5.974 5.974 0 0 1 172.48 96h38.828c1.429 0 2.96.253 4.597.759 1.637.506 3.162 1.316 4.575 2.432 1.413 1.116 2.589 2.566 3.526 4.352.937 1.785 1.406 3.972 1.406 6.56v2.187c0 2.053-.343 4.262-1.027 6.628-.684 2.365-1.785 4.604-3.303 6.717 1.31.803 2.537 1.77 3.682 2.9a18.572 18.572 0 0 1 3.013 3.928c.863 1.488 1.547 3.169 2.053 5.043.506 1.875.759 3.943.759 6.204v2.231zm-11.604-2.231c0-1.518-.238-2.879-.714-4.084-.476-1.205-1.146-2.239-2.009-3.102-.862-.862-1.904-1.524-3.124-1.986-1.22-.46-2.588-.691-4.106-.691H182.88v-11.694h20.932c1.517 0 2.886-.23 4.105-.691 1.22-.462 2.262-1.124 3.125-1.986.862-.863 1.524-1.897 1.986-3.102.46-1.205.691-2.566.691-4.084v-2.187c0-1.666-.803-2.5-2.41-2.5h-33.07v40.793h38.292c.208 0 .461-.015.759-.045.297-.03.565-.119.803-.267.238-.15.447-.402.625-.759.179-.357.268-.848.268-1.473v-2.142z" fill-rule="evenodd"/>
</svg>
