<?xml version="1.0" encoding="UTF-8" standalone="no"?>
<svg
   xmlns:dc="http://purl.org/dc/elements/1.1/"
   xmlns:cc="http://creativecommons.org/ns#"
   xmlns:rdf="http://www.w3.org/1999/02/22-rdf-syntax-ns#"
   xmlns:svg="http://www.w3.org/2000/svg"
   xmlns="http://www.w3.org/2000/svg"
   xmlns:sodipodi="http://sodipodi.sourceforge.net/DTD/sodipodi-0.dtd"
   xmlns:inkscape="http://www.inkscape.org/namespaces/inkscape"
   width="19"
   height="19"
   viewBox="0 0 19 19"
   fill="none"
   version="1.1"
   id="svg4"
   sodipodi:docname="quick-quantize.svg"
   inkscape:version="1.0 (4035a4fb49, 2020-05-01)">
  <metadata
     id="metadata10">
    <rdf:RDF>
      <cc:Work
         rdf:about="">
        <dc:format>image/svg+xml</dc:format>
        <dc:type
           rdf:resource="http://purl.org/dc/dcmitype/StillImage" />
      </cc:Work>
    </rdf:RDF>
  </metadata>
  <defs
     id="defs8" />
  <sodipodi:namedview
     inkscape:document-rotation="0"
     pagecolor="#ffffff"
     bordercolor="#666666"
     borderopacity="1"
     objecttolerance="10"
     gridtolerance="10"
     guidetolerance="10"
     inkscape:pageopacity="0"
     inkscape:pageshadow="2"
     inkscape:window-width="1920"
     inkscape:window-height="1025"
     id="namedview6"
     showgrid="false"
     inkscape:zoom="22.078947"
     inkscape:cx="1.5469624"
     inkscape:cy="11.052487"
     inkscape:window-x="0"
     inkscape:window-y="27"
     inkscape:window-maximized="1"
     inkscape:current-layer="svg4" />
  <path
     fill-rule="evenodd"
     clip-rule="evenodd"
     d="M 16.287365,3.6176169 V 14.929892 c 0.999643,0 1.809964,-0.810321 1.809964,-1.809964 V 2.7126349 c 0,-0.999616 -0.810321,-1.809964 -1.809964,-1.809964 H 5.427581 c -0.999616,0 -1.8099641,0.810348 -1.8099641,1.809964 H 15.382383 c 0.499822,0 0.904982,0.4051786 0.904982,0.904982 z m -13.3161677,0 H 13.313866 c 1.142449,0 2.068517,0.9261134 2.068517,2.0685265 V 16.028812 c 0,1.142449 -0.926068,2.068517 -2.068517,2.068517 H 2.9711973 c -1.1424131,0 -2.0685264,-0.926068 -2.0685264,-2.068517 V 5.6861434 c 0,-1.1424131 0.9261133,-2.0685265 2.0685264,-2.0685265 z M 2.7126349,5.427581 V 16.287365 H 13.572419 V 5.427581 Z"
     fill="black"
     id="path2"
     style="fill:#e6e6e6;stroke-width:0.904982" />
</svg>
