<?xml version="1.0" encoding="UTF-8" standalone="no"?>
<svg
   xmlns:dc="http://purl.org/dc/elements/1.1/"
   xmlns:cc="http://creativecommons.org/ns#"
   xmlns:rdf="http://www.w3.org/1999/02/22-rdf-syntax-ns#"
   xmlns:svg="http://www.w3.org/2000/svg"
   xmlns="http://www.w3.org/2000/svg"
   xmlns:sodipodi="http://sodipodi.sourceforge.net/DTD/sodipodi-0.dtd"
   xmlns:inkscape="http://www.inkscape.org/namespaces/inkscape"
   id="icon"
   viewBox="0 0 32 32"
   version="1.1"
   sodipodi:docname="carousel-horizontal.svg"
   inkscape:version="1.0.1 (3bc2e813f5, 2020-09-07)">
  <metadata
     id="metadata18">
    <rdf:RDF>
      <cc:Work
         rdf:about="">
        <dc:format>image/svg+xml</dc:format>
        <dc:type
           rdf:resource="http://purl.org/dc/dcmitype/StillImage" />
      </cc:Work>
    </rdf:RDF>
  </metadata>
  <sodipodi:namedview
     pagecolor="#ffffff"
     bordercolor="#666666"
     borderopacity="1"
     objecttolerance="10"
     gridtolerance="10"
     guidetolerance="10"
     inkscape:pageopacity="0"
     inkscape:pageshadow="2"
     inkscape:window-width="765"
     inkscape:window-height="480"
     id="namedview16"
     showgrid="false"
     inkscape:zoom="4.634864"
     inkscape:cx="-6.6187222"
     inkscape:cy="19.796156"
     inkscape:window-x="0"
     inkscape:window-y="27"
     inkscape:window-maximized="0"
     inkscape:current-layer="icon" />
  <defs
     id="defs4">
    <style
       id="style2">.cls-1{fill:none;}</style>
  </defs>
  <title
     id="title6">carousel--horizontal</title>
  <path
     d="M22,26H10a2,2,0,0,1-2-2V8a2,2,0,0,1,2-2H22a2,2,0,0,1,2,2V24A2,2,0,0,1,22,26ZM10,8V24H22V8Z"
     id="path8"
     style="fill:#e6e6e6" />
  <path
     d="M4,24H0V22H4V10H0V8H4a2,2,0,0,1,2,2V22A2,2,0,0,1,4,24Z"
     id="path10"
     style="fill:#e6e6e6" />
  <path
     d="M32,24H28a2,2,0,0,1-2-2V10a2,2,0,0,1,2-2h4v2H28V22h4Z"
     id="path12"
     style="fill:#e6e6e6" />
  <rect
     id="_Transparent_Rectangle_"
     data-name="&lt;Transparent Rectangle&gt;"
     class="cls-1"
     width="32"
     height="32" />
</svg>
