<svg width="20" height="20" viewBox="0 0 20 20" fill="none" xmlns="http://www.w3.org/2000/svg">
<path fill-rule="evenodd" clip-rule="evenodd" d="M6.03197 12.5538L12.5538 6.03197C12.2019 5.43645 12 4.74181 12 4C12 1.79086 13.7909 0 16 0C18.2091 0 20 1.79086 20 4C20 6.20914 18.2091 8 16 8C15.2582 8 14.5635 7.79807 13.968 7.44618L7.44618 13.968C7.79807 14.5635 8 15.2582 8 16C8 18.2091 6.20914 20 4 20C1.79086 20 0 18.2091 0 16C0 13.7909 1.79086 12 4 12C4.74181 12 5.43645 12.2019 6.03197 12.5538ZM4 18C5.10457 18 6 17.1046 6 16C6 14.8954 5.10457 14 4 14C2.89543 14 2 14.8954 2 16C2 17.1046 2.89543 18 4 18ZM18 4C18 5.10457 17.1046 6 16 6C14.8954 6 14 5.10457 14 4C14 2.89543 14.8954 2 16 2C17.1046 2 18 2.89543 18 4Z" fill="#A9ABB0"/>
</svg>
