<?xml version="1.0" encoding="UTF-8" standalone="no"?>
<svg
   xmlns:dc="http://purl.org/dc/elements/1.1/"
   xmlns:cc="http://creativecommons.org/ns#"
   xmlns:rdf="http://www.w3.org/1999/02/22-rdf-syntax-ns#"
   xmlns:svg="http://www.w3.org/2000/svg"
   xmlns="http://www.w3.org/2000/svg"
   xmlns:sodipodi="http://sodipodi.sourceforge.net/DTD/sodipodi-0.dtd"
   xmlns:inkscape="http://www.inkscape.org/namespaces/inkscape"
   width="21"
   height="21"
   viewBox="0 0 21 21"
   fill="none"
   version="1.1"
   id="svg4"
   sodipodi:docname="draw-erase.svg"
   inkscape:version="1.0 (4035a4fb49, 2020-05-01)">
  <metadata
     id="metadata10">
    <rdf:RDF>
      <cc:Work
         rdf:about="">
        <dc:format>image/svg+xml</dc:format>
        <dc:type
           rdf:resource="http://purl.org/dc/dcmitype/StillImage" />
      </cc:Work>
    </rdf:RDF>
  </metadata>
  <defs
     id="defs8" />
  <sodipodi:namedview
     inkscape:document-rotation="0"
     pagecolor="#ffffff"
     bordercolor="#666666"
     borderopacity="1"
     objecttolerance="10"
     gridtolerance="10"
     guidetolerance="10"
     inkscape:pageopacity="0"
     inkscape:pageshadow="2"
     inkscape:window-width="1701"
     inkscape:window-height="901"
     id="namedview6"
     showgrid="false"
     inkscape:zoom="19.97619"
     inkscape:cx="5.2179742"
     inkscape:cy="10.619222"
     inkscape:window-x="0"
     inkscape:window-y="27"
     inkscape:window-maximized="0"
     inkscape:current-layer="svg4" />
  <path
     fill-rule="evenodd"
     clip-rule="evenodd"
     d="M 11.861071,14.808967 19.980005,6.6901001 C 20.540469,6.1296067 20.463177,5.1436152 19.80743,4.4878105 L 16.838908,1.5192509 C 16.183065,0.86345476 15.197112,0.78619573 14.636552,1.3466852 L 6.5176849,9.465581 c -0.5604933,0.560494 -0.4832295,1.546446 0.1725657,2.20229 l 2.9685595,2.96852 c 0.6558429,0.655844 1.6417959,0.733136 2.2022609,0.172576 z m -5.4034018,4.750149 1.7811319,-1.781151 c 0.5937137,-0.593781 0.6557952,-1.719089 0,-2.374837 L 5.2702416,12.434512 c -0.6557952,-0.655748 -1.7811415,-0.593686 -2.3748552,0 l -1.781133,1.781151 c -0.59371281,0.593685 -0.65579704,1.719088 0,2.374836 l 2.9685606,2.968617 c 0.6557951,0.655747 1.7811414,0.593685 2.3748552,0 z"
     fill="black"
     id="path2"
     style="fill:#e6e6e6;stroke-width:0.951877" />
</svg>
