<?xml version="1.0" encoding="UTF-8" standalone="no"?>
<svg
   xmlns:dc="http://purl.org/dc/elements/1.1/"
   xmlns:cc="http://creativecommons.org/ns#"
   xmlns:rdf="http://www.w3.org/1999/02/22-rdf-syntax-ns#"
   xmlns:svg="http://www.w3.org/2000/svg"
   xmlns="http://www.w3.org/2000/svg"
   xmlns:sodipodi="http://sodipodi.sourceforge.net/DTD/sodipodi-0.dtd"
   xmlns:inkscape="http://www.inkscape.org/namespaces/inkscape"
   width="20"
   height="20"
   viewBox="0 0 20 20"
   fill="none"
   version="1.1"
   id="svg4"
   sodipodi:docname="draw-line.svg"
   inkscape:version="1.0 (4035a4fb49, 2020-05-01)">
  <metadata
     id="metadata10">
    <rdf:RDF>
      <cc:Work
         rdf:about="">
        <dc:format>image/svg+xml</dc:format>
        <dc:type
           rdf:resource="http://purl.org/dc/dcmitype/StillImage" />
      </cc:Work>
    </rdf:RDF>
  </metadata>
  <defs
     id="defs8" />
  <sodipodi:namedview
     inkscape:document-rotation="0"
     pagecolor="#ffffff"
     bordercolor="#666666"
     borderopacity="1"
     objecttolerance="10"
     gridtolerance="10"
     guidetolerance="10"
     inkscape:pageopacity="0"
     inkscape:pageshadow="2"
     inkscape:window-width="1637"
     inkscape:window-height="959"
     id="namedview6"
     showgrid="false"
     inkscape:zoom="29.663129"
     inkscape:cx="9.5824755"
     inkscape:cy="10.330218"
     inkscape:window-x="0"
     inkscape:window-y="27"
     inkscape:window-maximized="0"
     inkscape:current-layer="svg4" />
  <path
     fill-rule="evenodd"
     clip-rule="evenodd"
     d="M 6.1889631,12.45276 12.45276,6.1889631 C 12.114783,5.6170046 11.920871,4.9498477 11.920871,4.237387 c 0,-2.1217365 1.720044,-3.841742 3.841742,-3.841742 2.121698,0 3.841742,1.7200055 3.841742,3.841742 0,2.1217365 -1.720044,3.841742 -3.841742,3.841742 -0.712451,0 -1.379666,-0.1939407 -1.951605,-0.5319084 L 7.5472206,13.811008 c 0.3379677,0.571939 0.5319084,1.239154 0.5319084,1.951605 0,2.121698 -1.7200055,3.841742 -3.841742,3.841742 -2.1217365,0 -3.841742,-1.720044 -3.841742,-3.841742 0,-2.121698 1.7200055,-3.841742 3.841742,-3.841742 0.7124607,0 1.3796176,0.193912 1.9515761,0.531889 z M 4.237387,17.683484 c 1.0608682,0 1.920871,-0.859974 1.920871,-1.920871 0,-1.060897 -0.8600028,-1.920871 -1.920871,-1.920871 -1.0608682,0 -1.920871,0.859974 -1.920871,1.920871 0,1.060897 0.8600028,1.920871 1.920871,1.920871 z M 17.683484,4.237387 c 0,1.0608682 -0.859974,1.920871 -1.920871,1.920871 -1.060897,0 -1.920871,-0.8600028 -1.920871,-1.920871 0,-1.0608682 0.859974,-1.920871 1.920871,-1.920871 1.060897,0 1.920871,0.8600028 1.920871,1.920871 z"
     fill="#A9ABB0"
     id="path2"
     style="fill:#e6e6e6;stroke-width:0.960436" />
</svg>
