<svg width="20" height="22" viewBox="0 0 20 22" fill="none" xmlns="http://www.w3.org/2000/svg">
<path fill-rule="evenodd" clip-rule="evenodd" d="M7 0H13C14.1046 0 15 0.89543 15 2V3H18C19.1046 3 20 3.89543 20 5V7C20 8.10457 19.1046 9 18 9H17.9199L17 20C17 21.1046 16.1046 22 15 22H5C3.89543 22 3 21.1046 3.00345 20.083L2.07987 9H2C0.89543 9 0 8.10457 0 7V5C0 3.89543 0.89543 3 2 3H5V2C5 0.89543 5.89543 0 7 0ZM2 5H5H15H18V7H2V5ZM4.08649 9H15.9132L15.0035 19.917L15 20H5L4.08649 9ZM13 2V3H7V2H13Z" fill="white"/>
</svg>
