<svg width="18" height="22" viewBox="0 0 18 22" fill="none" xmlns="http://www.w3.org/2000/svg">
<path fill-rule="evenodd" clip-rule="evenodd" d="M14.8065 0L16.4655 1.11694L10.2055 10.4153L12.5552 13.9054C13.0033 13.7317 13.4905 13.6365 14 13.6365C16.2091 13.6365 18 15.4273 18 17.6365C18 19.8456 16.2091 21.6365 14 21.6365C11.7909 21.6365 10 19.8456 10 17.6365C10 16.6607 10.3494 15.7666 10.9298 15.0723L9 12.2059L7.07018 15.0723C7.65064 15.7666 8 16.6607 8 17.6365C8 19.8456 6.20914 21.6365 4 21.6365C1.79086 21.6365 0 19.8456 0 17.6365C0 15.4273 1.79086 13.6365 4 13.6365C4.50946 13.6365 4.99667 13.7317 5.44481 13.9054L7.79449 10.4153L1.53448 1.11694L3.19352 0L9 8.62466L14.8065 0ZM6 17.6365C6 18.741 5.10457 19.6365 4 19.6365C2.89543 19.6365 2 18.741 2 17.6365C2 16.5319 2.89543 15.6365 4 15.6365C5.10457 15.6365 6 16.5319 6 17.6365ZM16 17.6365C16 18.741 15.1046 19.6365 14 19.6365C12.8954 19.6365 12 18.741 12 17.6365C12 16.5319 12.8954 15.6365 14 15.6365C15.1046 15.6365 16 16.5319 16 17.6365Z" fill="white"/>
</svg>
