<?xml version="1.0" encoding="UTF-8" standalone="no"?>
<svg
   xmlns:dc="http://purl.org/dc/elements/1.1/"
   xmlns:cc="http://creativecommons.org/ns#"
   xmlns:rdf="http://www.w3.org/1999/02/22-rdf-syntax-ns#"
   xmlns:svg="http://www.w3.org/2000/svg"
   xmlns="http://www.w3.org/2000/svg"
   xmlns:sodipodi="http://sodipodi.sourceforge.net/DTD/sodipodi-0.dtd"
   xmlns:inkscape="http://www.inkscape.org/namespaces/inkscape"
   width="18"
   height="20"
   viewBox="0 0 18 20"
   fill="none"
   version="1.1"
   id="svg4"
   sodipodi:docname="effect.svg"
   inkscape:version="1.0 (4035a4fb49, 2020-05-01)">
  <metadata
     id="metadata10">
    <rdf:RDF>
      <cc:Work
         rdf:about="">
        <dc:format>image/svg+xml</dc:format>
        <dc:type
           rdf:resource="http://purl.org/dc/dcmitype/StillImage" />
      </cc:Work>
    </rdf:RDF>
  </metadata>
  <defs
     id="defs8" />
  <sodipodi:namedview
     inkscape:document-rotation="0"
     pagecolor="#ffffff"
     bordercolor="#666666"
     borderopacity="1"
     objecttolerance="10"
     gridtolerance="10"
     guidetolerance="10"
     inkscape:pageopacity="0"
     inkscape:pageshadow="2"
     inkscape:window-width="1920"
     inkscape:window-height="1025"
     id="namedview6"
     showgrid="false"
     inkscape:zoom="10.4875"
     inkscape:cx="-15.582338"
     inkscape:cy="9.7406552"
     inkscape:window-x="0"
     inkscape:window-y="27"
     inkscape:window-maximized="1"
     inkscape:current-layer="svg4" />
  <path
     d="m 7.9931769,18.949539 1.4543,-5.369723 5.5934621,-1.591049 -5.5934621,-1.093813 -1.4543,-5.8669241 -1.6780386,5.8669241 -5.36972337,1.093813 5.36972337,1.591049 z M 13.027293,9.0056078 13.922246,5.9727075 17.054585,5.0280299 13.922246,4.1827997 13.027293,1.050461 12.132339,4.1827997 9,5.0280299 12.132339,5.9727075 Z m -5.0341161,9.9439312 1.4543,-5.369723 5.5934621,-1.591049 -5.5934621,-1.093813 -1.4543,-5.8669241 -1.6780386,5.8669241 -5.36972337,1.093813 5.36972337,1.591049 z M 13.027293,9.0056078 13.922246,5.9727075 17.054585,5.0280299 13.922246,4.1827997 13.027293,1.050461 12.132339,4.1827997 9,5.0280299 12.132339,5.9727075 Z"
     fill="black"
     id="path2"
     style="fill:#e6e6e6;stroke-width:0.894954" />
</svg>
