<svg width="18" height="22" viewBox="0 0 18 22" fill="none" xmlns="http://www.w3.org/2000/svg">
<path fill-rule="evenodd" clip-rule="evenodd" d="M11.2929 1.70718L13.5868 4.00108H5C2.23858 4.00108 0 6.23965 0 9.00108V12.0011H2V9.00108C2 7.34422 3.34315 6.00108 5 6.00108H13.5848L11.2929 8.29297L12.7071 9.70718L17.4142 5.00008L12.7071 0.292969L11.2929 1.70718ZM6.70711 20.293L4.41421 18.0001H13C15.7614 18.0001 18 15.7615 18 13.0001V10.0001H16V13.0001C16 14.6569 14.6569 16.0001 13 16.0001H4.41421L6.70711 13.7072L5.29289 12.293L0.585786 17.0001L5.29289 21.7072L6.70711 20.293Z" fill="white"/>
</svg>
