<?xml version="1.0" encoding="UTF-8" standalone="no"?>
<svg
   xmlns:dc="http://purl.org/dc/elements/1.1/"
   xmlns:cc="http://creativecommons.org/ns#"
   xmlns:rdf="http://www.w3.org/1999/02/22-rdf-syntax-ns#"
   xmlns:svg="http://www.w3.org/2000/svg"
   xmlns="http://www.w3.org/2000/svg"
   xmlns:sodipodi="http://sodipodi.sourceforge.net/DTD/sodipodi-0.dtd"
   xmlns:inkscape="http://www.inkscape.org/namespaces/inkscape"
   width="20"
   height="18"
   viewBox="0 0 20 18"
   fill="none"
   version="1.1"
   id="svg4"
   sodipodi:docname="media-seek-forward.svg"
   inkscape:version="1.0 (4035a4fb49, 2020-05-01)">
  <metadata
     id="metadata10">
    <rdf:RDF>
      <cc:Work
         rdf:about="">
        <dc:format>image/svg+xml</dc:format>
        <dc:type
           rdf:resource="http://purl.org/dc/dcmitype/StillImage" />
      </cc:Work>
    </rdf:RDF>
  </metadata>
  <defs
     id="defs8" />
  <sodipodi:namedview
     inkscape:document-rotation="0"
     pagecolor="#ffffff"
     bordercolor="#666666"
     borderopacity="1"
     objecttolerance="10"
     gridtolerance="10"
     guidetolerance="10"
     inkscape:pageopacity="0"
     inkscape:pageshadow="2"
     inkscape:window-width="1920"
     inkscape:window-height="1025"
     id="namedview6"
     showgrid="false"
     inkscape:zoom="32.959033"
     inkscape:cx="9.3527133"
     inkscape:cy="9.8931017"
     inkscape:window-x="0"
     inkscape:window-y="27"
     inkscape:window-maximized="1"
     inkscape:current-layer="svg4" />
  <path
     fill-rule="evenodd"
     clip-rule="evenodd"
     d="M 0.64573239,2.4520036 V 15.547987 c 0,0.803718 0.94657701,1.233173 1.55140511,0.704002 L 9.680551,9.7039738 c 0.4259,-0.3726833 0.4259,-1.0352741 0,-1.4079574 L 2.1971375,1.7480296 C 1.5923094,1.2187989 0.64573239,1.6483225 0.64573239,2.4520036 Z M 7.6440429,8.9999904 2.5165857,13.486493 V 4.5134689 Z M 9.9999992,2.4520036 c 0,-0.8036811 0.9465578,-1.2332047 1.5514048,-0.703974 l 7.483414,6.5479868 c 0.4259,0.3726833 0.4259,1.0352741 0,1.4079574 L 11.551404,16.251989 C 10.946557,16.78116 9.9999992,16.351705 9.9999992,15.547987 Z M 11.870853,4.5134689 16.9983,8.9999904 11.870853,13.486493 Z"
     fill="black"
     id="path2"
     style="fill:#e6e6e6;stroke-width:0.935427" />
</svg>
