<svg width="256" height="256" xmlns="http://www.w3.org/2000/svg">
    <path d="M24.849 72.002a8 8 0 0 1 8.027-7.983l189.787.462c4.42.01 8.004 3.61 8.004 8.026v111.986c0 4.422-3.587 8.04-8.008 8.08l-42.661.39A4.04 4.04 0 0 0 176 197v22.002c0 2.208-1.39 2.878-3.115 1.488l-35.31-28.463c-5.157-4.156-5.11-10.846.099-14.935l35.174-27.616c1.74-1.367 3.152-.685 3.152 1.534v21.482a4 4 0 0 0 3.992 4.009h30.683a4.02 4.02 0 0 0 4.013-3.991l.437-83.012a7.98 7.98 0 0 0-7.952-8.02l-158.807-.454c-4.415-.013-8.008 3.56-8.025 7.975l-.31 79.504a7.962 7.962 0 0 0 7.967 7.998H108a4.003 4.003 0 0 1 3.999 3.994v8.512a3.968 3.968 0 0 1-4.001 3.971l-75.502-.431c-4.417-.026-7.987-3.634-7.974-8.048l.326-112.496z" fill-rule="evenodd"/>
</svg>
