<?xml version="1.0" encoding="UTF-8" standalone="no"?>
<svg
   xmlns:dc="http://purl.org/dc/elements/1.1/"
   xmlns:cc="http://creativecommons.org/ns#"
   xmlns:rdf="http://www.w3.org/1999/02/22-rdf-syntax-ns#"
   xmlns:svg="http://www.w3.org/2000/svg"
   xmlns="http://www.w3.org/2000/svg"
   xmlns:sodipodi="http://sodipodi.sourceforge.net/DTD/sodipodi-0.dtd"
   xmlns:inkscape="http://www.inkscape.org/namespaces/inkscape"
   width="20"
   height="18"
   viewBox="0 0 20 18"
   fill="none"
   version="1.1"
   id="svg4"
   sodipodi:docname="media-seek-backward.svg"
   inkscape:version="1.0 (4035a4fb49, 2020-05-01)">
  <metadata
     id="metadata10">
    <rdf:RDF>
      <cc:Work
         rdf:about="">
        <dc:format>image/svg+xml</dc:format>
        <dc:type
           rdf:resource="http://purl.org/dc/dcmitype/StillImage" />
      </cc:Work>
    </rdf:RDF>
  </metadata>
  <defs
     id="defs8" />
  <sodipodi:namedview
     inkscape:document-rotation="0"
     pagecolor="#ffffff"
     bordercolor="#666666"
     borderopacity="1"
     objecttolerance="10"
     gridtolerance="10"
     guidetolerance="10"
     inkscape:pageopacity="0"
     inkscape:pageshadow="2"
     inkscape:window-width="1920"
     inkscape:window-height="1025"
     id="namedview6"
     showgrid="false"
     inkscape:zoom="16.479516"
     inkscape:cx="-4.9046506"
     inkscape:cy="9.602178"
     inkscape:window-x="0"
     inkscape:window-y="27"
     inkscape:window-maximized="1"
     inkscape:current-layer="svg4" />
  <path
     fill-rule="evenodd"
     clip-rule="evenodd"
     d="M 1.0732008,9.6955568 8.4671441,16.165281 C 9.0647407,16.688125 10,16.263805 10,15.469696 V 2.5302942 C 10,1.7362221 9.0647407,1.3118341 8.4671441,1.8347371 L 1.0732008,8.3044334 c -0.42083249,0.3682274 -0.42083249,1.022896 0,1.3911234 z m 9.2424282,0 7.393938,6.4697242 c 0.597616,0.522844 1.532856,0.09852 1.532856,-0.695585 V 2.5302942 c 0,-0.7940721 -0.93524,-1.2184601 -1.532856,-0.6955571 l -7.393938,6.4696963 c -0.4208355,0.3682274 -0.4208355,1.022896 0,1.3911234 z M 8.1515153,4.5671117 3.0853642,8.9999905 8.1515153,13.432851 Z m 9.2424237,0 V 13.432851 L 12.327797,8.9999905 Z"
     fill="black"
     id="path2"
     style="fill:#e6e6e6;stroke-width:0.924242" />
</svg>
