<?xml version="1.0" encoding="UTF-8" standalone="no"?>
<svg
   viewBox="0 0 22 22"
   version="1.1"
   id="svg1"
   sodipodi:docname="minuet-chords.svg"
   inkscape:version="1.3.2 (091e20ef0f, 2023-11-25, custom)"
   xmlns:inkscape="http://www.inkscape.org/namespaces/inkscape"
   xmlns:sodipodi="http://sodipodi.sourceforge.net/DTD/sodipodi-0.dtd"
   xmlns="http://www.w3.org/2000/svg"
   xmlns:svg="http://www.w3.org/2000/svg">
  <defs
     id="defs1" />
  <sodipodi:namedview
     id="namedview1"
     pagecolor="#ffffff"
     bordercolor="#666666"
     borderopacity="1.0"
     inkscape:showpageshadow="2"
     inkscape:pageopacity="0.0"
     inkscape:pagecheckerboard="0"
     inkscape:deskcolor="#d1d1d1"
     inkscape:zoom="36.727273"
     inkscape:cx="10.986386"
     inkscape:cy="11"
     inkscape:window-width="2560"
     inkscape:window-height="1023"
     inkscape:window-x="0"
     inkscape:window-y="0"
     inkscape:window-maximized="1"
     inkscape:current-layer="svg1" />
  <path
     d="m12.013-2.9914v2h-9v1h9v1.7773a1.9977 1.9977 0 0 0 -.365-.1543l-.0078-.00195a1.9977 1.9977 0 0 0 -2.4883 1.334 1.9977 1.9977 0 0 0 -.011719.044922h-6.127v1h6.1113a1.9977 1.9977 0 0 0 1.3594 1.4453 1.9977 1.9977 0 0 0 .30859.066407 1.9977 1.9977 0 0 0 -1.6406 1.3984 1.9977 1.9977 0 0 0 -.023437.089844h-6.1152v1h6.1211a1.9977 1.9977 0 0 0 1.3496 1.3984 1.9977 1.9977 0 0 0 .30664.066406 1.9977 1.9977 0 0 0 -1.6387 1.3984 1.9977 1.9977 0 0 0 -.035156.13672h-6.1035v1h6.1328a1.9977 1.9977 0 0 0 1.3379 1.3535 1.9977 1.9977 0 0 0 2.4922-1.3301 1.9977 1.9977 0 0 0 .0059-.02344h6.03125v-1h-6v-3h6v-1h-6v-3h6v-1h-6v-3h6v-1h-6v-2h-1zm-.94336 5.5527a.97972.97972 0 0 1 .25586.037109l.02539.00586a.97972.97972 0 0 1 .65234 1.2168.97972.97972 0 0 1 -1.2129.66211.97972.97972 0 0 1 -.66797-1.209.97972.97972 0 0 1 .94727-.71289zm.94336 2.7363v.44141a1.9977 1.9977 0 0 0 -.36523-.1543l-.0078-.00195a1.9977 1.9977 0 0 0 -.30078-.064453 1.9977 1.9977 0 0 0 .67383-.2207zm-.94336 1.2188a.97972.97972 0 0 1 .25586.035157l.02539.00781a.97972.97972 0 0 1 .65234 1.2168.97972.97972 0 0 1 -1.2129.66016.97972.97972 0 0 1 -.66797-1.209.97972.97972 0 0 1 .94727-.71094zm.94336 2.7363v.44141a1.9977 1.9977 0 0 0 -.36523-.1543l-.0078-.00195a1.9977 1.9977 0 0 0 -.30273-.064453 1.9977 1.9977 0 0 0 .67578-.2207zm-.943 1.2183a.97972.97972 0 0 1 .25586.03516l.02539.0059a.97972.97972 0 0 1 .65234 1.2188.97972.97972 0 0 1 -1.2129.66016.97972.97972 0 0 1 -.66797-1.209.97972.97972 0 0 1 .94727-.71094z"
     fill="#232629"
     transform="translate(0 6)"
     id="path1"
     style="fill:#f2f2f2" />
</svg>
