<?xml version="1.0" encoding="UTF-8" standalone="no"?>
<!-- Created with Inkscape (http://www.inkscape.org/) -->

<svg
   width="24mm"
   height="24mm"
   viewBox="0 0 24 24"
   version="1.1"
   id="svg8"
   inkscape:version="1.3.2 (091e20ef0f, 2023-11-25, custom)"
   sodipodi:docname="object-resize-loop-right.svg"
   xmlns:inkscape="http://www.inkscape.org/namespaces/inkscape"
   xmlns:sodipodi="http://sodipodi.sourceforge.net/DTD/sodipodi-0.dtd"
   xmlns="http://www.w3.org/2000/svg"
   xmlns:svg="http://www.w3.org/2000/svg"
   xmlns:rdf="http://www.w3.org/1999/02/22-rdf-syntax-ns#"
   xmlns:cc="http://creativecommons.org/ns#"
   xmlns:dc="http://purl.org/dc/elements/1.1/">
  <defs
     id="defs2">
    <marker
       inkscape:stockid="Arrow1Send"
       orient="auto"
       refY="0"
       refX="0"
       id="Arrow1Send"
       style="overflow:visible"
       inkscape:isstock="true">
      <path
         id="path4535"
         d="M 0,0 5,-5 -12.5,0 5,5 Z"
         style="fill:#000000;fill-opacity:1;fill-rule:evenodd;stroke:#000000;stroke-width:1.00000003pt;stroke-opacity:1"
         transform="matrix(-0.2,0,0,-0.2,-1.2,0)"
         inkscape:connector-curvature="0" />
    </marker>
    <marker
       inkscape:stockid="Arrow2Lend"
       orient="auto"
       refY="0"
       refX="0"
       id="marker6366"
       style="overflow:visible"
       inkscape:isstock="true">
      <path
         id="path6364"
         style="fill:#000000;fill-opacity:1;fill-rule:evenodd;stroke:#000000;stroke-width:0.625;stroke-linejoin:round;stroke-opacity:1"
         d="M 8.7185878,4.0337352 -2.2072895,0.01601326 8.7185884,-4.0017078 c -1.7454984,2.3720609 -1.7354408,5.6174519 -6e-7,8.035443 z"
         transform="matrix(-1.1,0,0,-1.1,-1.1,0)"
         inkscape:connector-curvature="0" />
    </marker>
    <marker
       inkscape:isstock="true"
       style="overflow:visible"
       id="marker6320"
       refX="0"
       refY="0"
       orient="auto"
       inkscape:stockid="TriangleOutM">
      <path
         transform="scale(0.4)"
         style="fill:#f2f2f2;fill-opacity:1;fill-rule:evenodd;stroke:#f2f2f2;stroke-width:1pt;stroke-opacity:1"
         d="M 5.77,0 -2.88,5 V -5 Z"
         id="path6318"
         inkscape:connector-curvature="0" />
    </marker>
    <marker
       inkscape:stockid="Arrow1Mstart"
       orient="auto"
       refY="0"
       refX="0"
       id="Arrow1Mstart"
       style="overflow:visible"
       inkscape:isstock="true">
      <path
         id="path4526"
         d="M 0,0 5,-5 -12.5,0 5,5 Z"
         style="fill:#000000;fill-opacity:1;fill-rule:evenodd;stroke:#000000;stroke-width:1.00000003pt;stroke-opacity:1"
         transform="matrix(0.4,0,0,0.4,4,0)"
         inkscape:connector-curvature="0" />
    </marker>
    <marker
       inkscape:stockid="Arrow2Lend"
       orient="auto"
       refY="0"
       refX="0"
       id="Arrow2Lend"
       style="overflow:visible"
       inkscape:isstock="true">
      <path
         id="path4541"
         style="fill:#000000;fill-opacity:1;fill-rule:evenodd;stroke:#000000;stroke-width:0.625;stroke-linejoin:round;stroke-opacity:1"
         d="M 8.7185878,4.0337352 -2.2072895,0.01601326 8.7185884,-4.0017078 c -1.7454984,2.3720609 -1.7354408,5.6174519 -6e-7,8.035443 z"
         transform="matrix(-1.1,0,0,-1.1,-1.1,0)"
         inkscape:connector-curvature="0" />
    </marker>
    <marker
       inkscape:stockid="Arrow1Lend"
       orient="auto"
       refY="0"
       refX="0"
       id="Arrow1Lend"
       style="overflow:visible"
       inkscape:isstock="true">
      <path
         id="path4523"
         d="M 0,0 5,-5 -12.5,0 5,5 Z"
         style="fill:#000000;fill-opacity:1;fill-rule:evenodd;stroke:#000000;stroke-width:1.00000003pt;stroke-opacity:1"
         transform="matrix(-0.8,0,0,-0.8,-10,0)"
         inkscape:connector-curvature="0" />
    </marker>
    <marker
       inkscape:stockid="Arrow1Send"
       orient="auto"
       refY="0"
       refX="0"
       id="Arrow1Send-0"
       style="overflow:visible"
       inkscape:isstock="true">
      <path
         inkscape:connector-curvature="0"
         id="path4535-8"
         d="M 0,0 5,-5 -12.5,0 5,5 Z"
         style="fill:#000000;fill-opacity:1;fill-rule:evenodd;stroke:#000000;stroke-width:1.00000003pt;stroke-opacity:1"
         transform="matrix(-0.2,0,0,-0.2,-1.2,0)" />
    </marker>
    <style
       id="current-color-scheme"
       type="text/css">
      .ColorScheme-Text {
        color:#eff0f1;
      }
      </style>
    <marker
       inkscape:isstock="true"
       style="overflow:visible"
       id="marker6320-3"
       refX="0"
       refY="0"
       orient="auto"
       inkscape:stockid="TriangleOutM">
      <path
         transform="scale(0.4)"
         style="fill:#f2f2f2;fill-opacity:1;fill-rule:evenodd;stroke:#f2f2f2;stroke-width:1pt;stroke-opacity:1"
         d="M 5.77,0 -2.88,5 V -5 Z"
         id="path6318-6"
         inkscape:connector-curvature="0" />
    </marker>
  </defs>
  <sodipodi:namedview
     id="base"
     pagecolor="#ffffff"
     bordercolor="#666666"
     borderopacity="1.0"
     inkscape:pageopacity="0.0"
     inkscape:pageshadow="2"
     inkscape:zoom="2"
     inkscape:cx="-20.25"
     inkscape:cy="59"
     inkscape:document-units="mm"
     inkscape:current-layer="layer3"
     showgrid="false"
     inkscape:window-width="2560"
     inkscape:window-height="1023"
     inkscape:window-x="0"
     inkscape:window-y="0"
     inkscape:window-maximized="1"
     inkscape:showpageshadow="0"
     inkscape:pagecheckerboard="1"
     inkscape:deskcolor="#d1d1d1" />
  <metadata
     id="metadata5">
    <rdf:RDF>
      <cc:Work
         rdf:about="">
        <dc:format>image/svg+xml</dc:format>
        <dc:type
           rdf:resource="http://purl.org/dc/dcmitype/StillImage" />
      </cc:Work>
    </rdf:RDF>
  </metadata>
  <g
     inkscape:groupmode="layer"
     id="layer4"
     inkscape:label="Layer 4" />
  <g
     inkscape:groupmode="layer"
     id="layer3"
     inkscape:label="Layer 3">
    <rect
       style="opacity:1;fill:#f2f2f2;fill-opacity:1;stroke:#1a1a1a;stroke-width:0.5;stroke-dasharray:none;stroke-opacity:1"
       id="rect3002"
       width="2.9765792"
       height="16.276262"
       x="-23.154142"
       y="3.8620071"
       transform="scale(-1,1)" />
    <path
       id="rect3264"
       style="opacity:1;fill:#f2f2f2;fill-opacity:1;stroke:#1a1a1a;stroke-width:0.5;stroke-dasharray:none;stroke-opacity:1"
       d="M 7.9272364,6.1996216 17.963833,11.999268 7.9262024,17.801497 7.9267194,13.17749 H 0.56386137 V 10.823112 H 7.9267194 Z" />
    <g
       id="path8389"
       class="ColorScheme-Text"
       style="mix-blend-mode:normal;stroke:#1a1a1a;stroke-width:1;stroke-dasharray:none;stroke-opacity:1;fill:#f2f2f2"
       transform="matrix(-1,0,0,1,23.718003,0)">
      <path
         style="color:#eff0f1;fill:#f2f2f2;stroke:#1a1a1a;stroke-width:1;stroke-dasharray:none;stroke-opacity:1"
         d="m 7.4588659,16.290245 v 1.04917 h 4.1967321 c 1.162499,0 2.098365,0.93587 2.098365,2.09837 h -0.699446 c 0,-0.77501 -0.623919,-1.3989 -1.398919,-1.3989 H 7.4588659 v 1.04917 l -2.098365,-1.39892 z m -1.398919,3.14754 c 0,0.77499 0.623919,1.39892 1.398919,1.39892 h 4.1967321 v -1.0492 l 2.098365,1.39892 -2.098365,1.39892 v -1.0492 H 7.4588659 c -1.162499,0 -2.098365,-0.93586 -2.098365,-2.09836 z"
         id="path17248" />
      <path
         style="color:#eff0f1;fill:#f2f2f2;stroke:#1a1a1a;stroke-width:1;stroke-linecap:square;stroke-linejoin:miter;stroke-dasharray:none;stroke-opacity:1;paint-order:stroke fill markers"
         d="M 7.8085937,15.636719 7.265625,16 4.7304687,17.689453 7.8085937,19.742187 V 18.388672 H 11.65625 c 0.587308,0 1.048828,0.461517 1.048828,1.048828 v 0.349609 h 1.398438 V 19.4375 c 0,-1.350196 -1.09707,-2.447266 -2.447266,-2.447266 H 7.8085937 Z m -0.6992187,1.30664 v 0.746094 0.746094 L 5.9921875,17.689453 Z m 4.546875,0.746094 c 0.837291,0 1.425784,0.619635 1.603516,1.398438 -0.180457,-0.773094 -0.777024,-1.398438 -1.603516,-1.398438 z M 5.0117187,19.087891 V 19.4375 c 0,1.350196 1.0970712,2.449219 2.4472657,2.449219 h 3.8476566 v 1.351562 l 3.078125,-2.052734 -3.078125,-2.050781 v 1.351562 H 7.4589844 c -0.5872958,0 -1.0488281,-0.461541 -1.0488282,-1.048828 V 19.087891 H 6.0605469 Z m 0.8417969,0.699218 h 0.00195 c 0.1803444,0.773242 0.776906,1.398438 1.6035157,1.398438 -0.8374864,0 -1.4279334,-0.619361 -1.6054688,-1.398438 z m 6.1523434,0.654297 1.117188,0.744141 -1.117188,0.746094 v -0.746094 z"
         id="path17250" />
      <rect
         style="opacity:1;fill:#f2f2f2;fill-opacity:1;stroke:#1a1a1a;stroke-width:1;stroke-linecap:square;stroke-linejoin:miter;stroke-dasharray:none;stroke-opacity:0;paint-order:stroke fill markers"
         id="rect21269"
         width="1.3236272"
         height="1.5038874"
         x="11.829734"
         y="20.429445" />
      <rect
         style="mix-blend-mode:normal;fill:#f2f2f2;fill-opacity:1;stroke:#1a1a1a;stroke-width:1;stroke-linecap:square;stroke-linejoin:miter;stroke-dasharray:none;stroke-opacity:0;paint-order:stroke fill markers"
         id="rect21269-7"
         width="1.3178431"
         height="1.5549241"
         x="5.9953232"
         y="16.884367" />
      <rect
         style="mix-blend-mode:normal;fill:#f2f2f2;fill-opacity:1;stroke:#1a1a1a;stroke-width:1.00004;stroke-linecap:square;stroke-linejoin:miter;stroke-dasharray:none;stroke-opacity:0;paint-order:stroke fill markers"
         id="rect21269-7-5"
         width="0.8346076"
         height="1.9303033"
         x="-1.8954538"
         y="21.27663"
         inkscape:transform-center-x="3.2944195"
         inkscape:transform-center-y="2.4210906"
         transform="matrix(0.76962834,-0.63849214,0.62870408,0.77764463,0,0)" />
      <rect
         style="mix-blend-mode:normal;fill:#f2f2f2;fill-opacity:1;stroke:#1a1a1a;stroke-width:1.00004;stroke-linecap:square;stroke-linejoin:miter;stroke-dasharray:none;stroke-opacity:0;paint-order:stroke fill markers"
         id="rect21269-7-5-3"
         width="0.8346076"
         height="1.9303033"
         x="-8.3966694"
         y="18.768587"
         inkscape:transform-center-x="3.2944195"
         inkscape:transform-center-y="2.4210906"
         transform="matrix(0.76962834,-0.63849214,0.62870408,0.77764463,0,0)" />
    </g>
  </g>
</svg>
