<?xml version="1.0" encoding="UTF-8" standalone="no"?>
<svg
   xmlns:dc="http://purl.org/dc/elements/1.1/"
   xmlns:cc="http://creativecommons.org/ns#"
   xmlns:rdf="http://www.w3.org/1999/02/22-rdf-syntax-ns#"
   xmlns:svg="http://www.w3.org/2000/svg"
   xmlns="http://www.w3.org/2000/svg"
   xmlns:sodipodi="http://sodipodi.sourceforge.net/DTD/sodipodi-0.dtd"
   xmlns:inkscape="http://www.inkscape.org/namespaces/inkscape"
   version="1.1"
   width="36"
   height="36"
   viewBox="0 0 36 36"
   preserveAspectRatio="xMidYMid meet"
   id="svg8"
   sodipodi:docname="plugin-line.svg"
   inkscape:version="1.0.1 (3bc2e813f5, 2020-09-07)">
  <metadata
     id="metadata14">
    <rdf:RDF>
      <cc:Work
         rdf:about="">
        <dc:format>image/svg+xml</dc:format>
        <dc:type
           rdf:resource="http://purl.org/dc/dcmitype/StillImage" />
      </cc:Work>
    </rdf:RDF>
  </metadata>
  <defs
     id="defs12" />
  <sodipodi:namedview
     pagecolor="#ffffff"
     bordercolor="#666666"
     borderopacity="1"
     objecttolerance="10"
     gridtolerance="10"
     guidetolerance="10"
     inkscape:pageopacity="0"
     inkscape:pageshadow="2"
     inkscape:window-width="765"
     inkscape:window-height="480"
     id="namedview10"
     showgrid="false"
     inkscape:zoom="5.8263889"
     inkscape:cx="-1.7462535"
     inkscape:cy="7.9056079"
     inkscape:window-x="0"
     inkscape:window-y="27"
     inkscape:window-maximized="0"
     inkscape:current-layer="svg8" />
  <title
     id="title2">plugin-line</title>
  <path
     d="M29.81,16H29V8.83a2,2,0,0,0-2-2H21A5.14,5.14,0,0,0,16.51,2,5,5,0,0,0,11,6.83H4a2,2,0,0,0-2,2V17H4.81A3.13,3.13,0,0,1,8,19.69,3,3,0,0,1,7.22,22,3,3,0,0,1,5,23H2v8.83a2,2,0,0,0,2,2H27a2,2,0,0,0,2-2V26h1a5,5,0,0,0,5-5.51A5.15,5.15,0,0,0,29.81,16Zm2.41,7A3,3,0,0,1,30,24H27v7.83H4V25H5a5,5,0,0,0,5-5.51A5.15,5.15,0,0,0,4.81,15H4V8.83h9V7a3,3,0,0,1,1-2.22A3,3,0,0,1,16.31,4,3.13,3.13,0,0,1,19,7.19V8.83h8V18h2.81A3.13,3.13,0,0,1,33,20.69,3,3,0,0,1,32.22,23Z"
     class="clr-i-outline clr-i-outline-path-1"
     id="path4"
     style="fill:#e6e6e6" />
  <rect
     x="0"
     y="0"
     width="36"
     height="36"
     fill-opacity="0"
     id="rect6" />
</svg>
