<svg width="256" height="256" xmlns="http://www.w3.org/2000/svg">
    <path d="M211.97 210h-29.199v-39.531H80.125V210h-29.2v-80.522c0-11.755 2.022-22.574 6.065-32.457 4.043-9.882 9.658-18.38 16.846-25.493 7.187-7.112 15.685-12.653 25.493-16.62 9.808-3.969 20.514-5.953 32.12-5.953h65.81c2.021 0 3.93.374 5.727 1.123a14.47 14.47 0 0 1 4.717 3.145 14.47 14.47 0 0 1 3.145 4.716c.748 1.797 1.123 3.706 1.123 5.728V210zM80.126 141.27h102.646V78.154h-51.323c-.898 0-2.789.131-5.671.393-2.883.262-6.214.918-9.995 1.966-3.781 1.048-7.768 2.658-11.96 4.829-4.193 2.171-8.05 5.166-11.568 8.984-3.519 3.819-6.42 8.591-8.704 14.319-2.283 5.728-3.425 12.672-3.425 20.833v11.792z" fill-rule="evenodd"/>
</svg>
