<svg width="256" height="256" xmlns="http://www.w3.org/2000/svg">
    <path d="M101 124.751c0-1.106.89-2.003 1.992-2.003h25.707L129 105l28 24.5-28.301 24.5.301-18.52h-26.009c-1.1 0-1.991-.895-1.991-2.003v-8.726zM230.547 160h-11.604v-15.71h-40.792V160h-11.604v-32c0-4.671.804-8.97 2.41-12.898 1.607-3.928 3.839-7.305 6.695-10.131 2.856-2.827 6.233-5.029 10.131-6.606 3.898-1.577 8.153-2.365 12.764-2.365h26.154c.803 0 1.562.149 2.276.446a5.75 5.75 0 0 1 3.124 3.124c.298.715.446 1.473.446 2.277V160zm-52.396-27.314h40.792v-25.082h-20.396c-.357 0-1.108.052-2.253.156-1.146.104-2.47.365-3.973.781-1.502.417-3.087 1.056-4.753 1.92-1.666.862-3.198 2.052-4.597 3.57-1.398 1.517-2.551 3.414-3.459 5.69-.907 2.276-1.36 5.036-1.36 8.279v4.686zM88.59 145.941c0 1.429-.246 2.96-.737 4.597-.49 1.637-1.294 3.154-2.41 4.553-1.115 1.398-2.566 2.566-4.351 3.503-1.785.937-3.972 1.406-6.56 1.406H30.48a5.974 5.974 0 0 1-2.32-.446 5.673 5.673 0 0 1-1.853-1.228 5.673 5.673 0 0 1-1.227-1.852 5.974 5.974 0 0 1-.447-2.32v-52.307a5.935 5.935 0 0 1 1.674-4.15 5.504 5.504 0 0 1 1.852-1.25A5.974 5.974 0 0 1 30.481 96h38.828c1.429 0 2.96.253 4.597.759 1.637.506 3.162 1.316 4.575 2.432 1.413 1.116 2.589 2.566 3.526 4.352.937 1.785 1.406 3.972 1.406 6.56v2.187c0 2.053-.343 4.262-1.027 6.628-.684 2.365-1.785 4.604-3.303 6.717 1.31.803 2.537 1.77 3.682 2.9a18.572 18.572 0 0 1 3.013 3.928c.863 1.488 1.547 3.169 2.053 5.043.506 1.875.759 3.943.759 6.204v2.231zm-11.604-2.231c0-1.518-.238-2.879-.714-4.084-.476-1.205-1.146-2.239-2.009-3.102-.862-.862-1.904-1.524-3.124-1.986-1.22-.46-2.588-.691-4.106-.691H40.88v-11.694h20.932c1.517 0 2.886-.23 4.105-.691 1.22-.462 2.262-1.124 3.125-1.986.862-.863 1.524-1.897 1.986-3.102.46-1.205.691-2.566.691-4.084v-2.187c0-1.666-.803-2.5-2.41-2.5H36.24v40.793h38.29c.208 0 .461-.015.759-.045.297-.03.565-.119.803-.267.238-.15.447-.402.625-.759.179-.357.268-.848.268-1.473v-2.142z" fill-rule="evenodd"/>
</svg>
