<svg width="256" height="256" xmlns="http://www.w3.org/2000/svg">
    <path d="M210.666 171.624c0 3.594-.618 7.45-1.853 11.567-1.235 4.118-3.257 7.937-6.064 11.455-2.808 3.52-6.458 6.458-10.95 8.816-4.492 2.359-9.995 3.538-16.509 3.538H64.445c-2.096 0-4.043-.374-5.84-1.123-1.796-.749-3.35-1.778-4.66-3.088s-2.34-2.864-3.089-4.661c-.748-1.797-1.123-3.744-1.123-5.84V60.667c0-2.022.375-3.93 1.123-5.728a14.934 14.934 0 0 1 3.089-4.716c1.31-1.348 2.864-2.396 4.66-3.145 1.797-.749 3.744-1.123 5.84-1.123h97.705c3.594 0 7.45.636 11.568 1.91 4.118 1.272 7.955 3.312 11.511 6.12 3.556 2.807 6.514 6.457 8.872 10.95 2.358 4.492 3.538 9.995 3.538 16.508v5.503c0 5.166-.861 10.725-2.583 16.678-1.722 5.952-4.493 11.586-8.31 16.901 3.293 2.022 6.382 4.455 9.264 7.3 2.883 2.845 5.41 6.14 7.58 9.883 2.172 3.744 3.894 7.974 5.167 12.69 1.273 4.717 1.909 9.92 1.909 15.61v5.616zm-29.2-5.615c0-3.819-.598-7.244-1.796-10.276s-2.883-5.634-5.054-7.805c-2.171-2.172-4.791-3.837-7.861-4.998-3.07-1.16-6.514-1.74-10.332-1.74h-65.81v-29.424h52.67c3.819 0 7.263-.58 10.332-1.741 3.07-1.16 5.69-2.826 7.862-4.998 2.17-2.17 3.837-4.773 4.997-7.805 1.16-3.032 1.74-6.457 1.74-10.276v-5.503c0-4.192-2.02-6.289-6.064-6.289H78.933v102.647h96.357c.524 0 1.16-.038 1.91-.113a4.627 4.627 0 0 0 2.02-.673c.6-.375 1.124-1.011 1.573-1.91.45-.898.674-2.133.674-3.706v-5.39z" fill-rule="evenodd"/>
</svg>
