<?xml version="1.0" encoding="UTF-8" standalone="no"?>
<svg
   xmlns:dc="http://purl.org/dc/elements/1.1/"
   xmlns:cc="http://creativecommons.org/ns#"
   xmlns:rdf="http://www.w3.org/1999/02/22-rdf-syntax-ns#"
   xmlns:svg="http://www.w3.org/2000/svg"
   xmlns="http://www.w3.org/2000/svg"
   xmlns:sodipodi="http://sodipodi.sourceforge.net/DTD/sodipodi-0.dtd"
   xmlns:inkscape="http://www.inkscape.org/namespaces/inkscape"
   width="16"
   height="16"
   version="1.1"
   id="svg8"
   sodipodi:docname="remove-range.svg"
   inkscape:version="1.0 (4035a4fb49, 2020-05-01)">
  <metadata
     id="metadata14">
    <rdf:RDF>
      <cc:Work
         rdf:about="">
        <dc:format>image/svg+xml</dc:format>
        <dc:type
           rdf:resource="http://purl.org/dc/dcmitype/StillImage" />
        <dc:title />
      </cc:Work>
    </rdf:RDF>
  </metadata>
  <defs
     id="defs12" />
  <sodipodi:namedview
     pagecolor="#ffffff"
     bordercolor="#666666"
     borderopacity="1"
     objecttolerance="10"
     gridtolerance="10"
     guidetolerance="10"
     inkscape:pageopacity="0"
     inkscape:pageshadow="2"
     inkscape:window-width="1920"
     inkscape:window-height="1025"
     id="namedview10"
     showgrid="false"
     inkscape:zoom="20.85965"
     inkscape:cx="5.1360972"
     inkscape:cy="16.266916"
     inkscape:window-x="0"
     inkscape:window-y="27"
     inkscape:window-maximized="1"
     inkscape:current-layer="svg8"
     inkscape:document-rotation="0" />
  <g
     transform="matrix(0.99961694,0,0,1.1833968,0.00306361,-1.4662578)"
     id="g835">
    <path
       d="m 1.017,3.995 h 1 v 1 h -1 z m 2,0 h 1 v 1 h -1 z m 8.969,0 h 1 v 1 h -1 z m 2.031,0 h 1 v 1 h -1 z m 0,8 h 1 v 1 h -1 z m -2.031,0 h 1 v 1 h -1 z m -8.969,0 h 1 v 1 h -1 z m -2,0 h 1 v 1 h -1 z m 4,-10 h 6 v 12 h -6 z"
       style="fill:#cccccc;marker:none"
       id="path2" />
    <path
       id="path836"
       d="m 2.266281,6.29 2.267,2.221 -2.228,2.15 c -0.475,0.55 -1.169,0.504 -1.68400001,-0.011 L 2.838281,8.511 0.57428099,6.294 C 1.087281,5.724 1.800281,5.829 2.266281,6.29 Z"
       style="line-height:normal;font-variant-ligatures:normal;font-variant-position:normal;font-variant-caps:normal;font-variant-numeric:normal;font-variant-alternates:normal;font-feature-settings:normal;text-indent:0;text-align:start;text-decoration:none;text-decoration-line:none;text-decoration-style:solid;text-decoration-color:#000000;text-transform:none;text-orientation:mixed;shape-padding:0;isolation:auto;mix-blend-mode:normal;fill:#cccccc;marker:none" />
    <path
       id="path4"
       d="m 13.730119,6.29 -2.268,2.221 2.229,2.15 c 0.475,0.55 1.168,0.504 1.683,-0.011 l -2.217,-2.14 2.264,-2.217 c -0.513,-0.57 -1.226,-0.465 -1.691,-0.004 z"
       style="line-height:normal;font-variant-ligatures:normal;font-variant-position:normal;font-variant-caps:normal;font-variant-numeric:normal;font-variant-alternates:normal;font-feature-settings:normal;text-indent:0;text-align:start;text-decoration:none;text-decoration-line:none;text-decoration-style:solid;text-decoration-color:#000000;text-transform:none;text-orientation:mixed;shape-padding:0;isolation:auto;mix-blend-mode:normal;fill:#cccccc;marker:none" />
  </g>
</svg>
