<?xml version="1.0" encoding="UTF-8" standalone="no"?>
<svg
   xmlns:dc="http://purl.org/dc/elements/1.1/"
   xmlns:cc="http://creativecommons.org/ns#"
   xmlns:rdf="http://www.w3.org/1999/02/22-rdf-syntax-ns#"
   xmlns:svg="http://www.w3.org/2000/svg"
   xmlns="http://www.w3.org/2000/svg"
   xmlns:sodipodi="http://sodipodi.sourceforge.net/DTD/sodipodi-0.dtd"
   xmlns:inkscape="http://www.inkscape.org/namespaces/inkscape"
   id="icon"
   width="32"
   height="32"
   viewBox="0 0 32 32"
   version="1.1"
   sodipodi:docname="roadmap.svg"
   inkscape:version="1.0.1 (3bc2e813f5, 2020-09-07)">
  <metadata
     id="metadata18">
    <rdf:RDF>
      <cc:Work
         rdf:about="">
        <dc:format>image/svg+xml</dc:format>
        <dc:type
           rdf:resource="http://purl.org/dc/dcmitype/StillImage" />
      </cc:Work>
    </rdf:RDF>
  </metadata>
  <sodipodi:namedview
     pagecolor="#ffffff"
     bordercolor="#666666"
     borderopacity="1"
     objecttolerance="10"
     gridtolerance="10"
     guidetolerance="10"
     inkscape:pageopacity="0"
     inkscape:pageshadow="2"
     inkscape:window-width="1544"
     inkscape:window-height="913"
     id="namedview16"
     showgrid="false"
     inkscape:zoom="13.109375"
     inkscape:cx="10.283312"
     inkscape:cy="10.46205"
     inkscape:window-x="0"
     inkscape:window-y="27"
     inkscape:window-maximized="0"
     inkscape:current-layer="icon" />
  <defs
     id="defs4">
    <style
       id="style2">
      .cls-1 {
        fill: none;
      }
    </style>
  </defs>
  <title
     id="title6">roadmap</title>
  <path
     d="M12,30H4a2.0023,2.0023,0,0,1-2-2V24a2.0023,2.0023,0,0,1,2-2h8a2.0023,2.0023,0,0,1,2,2v4A2.0023,2.0023,0,0,1,12,30ZM4,24v4h8V24Z"
     id="path8"
     style="fill:#e6e6e6" />
  <path
     d="M28,20H12a2.0023,2.0023,0,0,1-2-2V14a2.0023,2.0023,0,0,1,2-2H28a2.0023,2.0023,0,0,1,2,2v4A2.0023,2.0023,0,0,1,28,20ZM12,14v4H28V14Z"
     id="path10"
     style="fill:#e6e6e6" />
  <path
     d="M16,10H4A2.0023,2.0023,0,0,1,2,8V4A2.0023,2.0023,0,0,1,4,2H16a2.0023,2.0023,0,0,1,2,2V8A2.0023,2.0023,0,0,1,16,10ZM4,4V8H16V4Z"
     id="path12"
     style="fill:#e6e6e6" />
  <rect
     id="_Transparent_Rectangle_"
     data-name="&lt;Transparent Rectangle&gt;"
     class="cls-1"
     width="32"
     height="32" />
</svg>
