<svg width="22" height="18" viewBox="0 0 22 18" fill="none" xmlns="http://www.w3.org/2000/svg">
<path fill-rule="evenodd" clip-rule="evenodd" d="M17 18C18.1046 18 19 17.1046 19 16H20C21.1046 16 22 15.1046 22 14V4C22 2.89543 21.1046 2 20 2H19C19 0.89543 18.1046 0 17 0H5C3.89543 0 3 0.89543 3 2H2C0.89543 2 0 2.89543 0 4V14C0 15.1046 0.89543 16 2 16H3C3 17.1046 3.89543 18 5 18H17ZM17 2V16H5V2H17ZM11 9.14046V4.13148L15.5547 7.16795L14.4453 8.83205L13 7.86852V11.5C13 12.9534 11.6046 14 10 14C8.39543 14 7 12.9534 7 11.5C7 10.0466 8.39543 9 10 9C10.3471 9 10.6845 9.04898 11 9.14046ZM2 4H3V14H2V4ZM19 14H20V4H19V14ZM11 11.5C11 11.7034 10.6046 12 10 12C9.39543 12 9 11.7034 9 11.5C9 11.2966 9.39543 11 10 11C10.6046 11 11 11.2966 11 11.5Z" fill="white"/>
</svg>
