<?xml version="1.0" encoding="UTF-8" standalone="no"?>
<svg
   xmlns:dc="http://purl.org/dc/elements/1.1/"
   xmlns:cc="http://creativecommons.org/ns#"
   xmlns:rdf="http://www.w3.org/1999/02/22-rdf-syntax-ns#"
   xmlns:svg="http://www.w3.org/2000/svg"
   xmlns="http://www.w3.org/2000/svg"
   xmlns:sodipodi="http://sodipodi.sourceforge.net/DTD/sodipodi-0.dtd"
   xmlns:inkscape="http://www.inkscape.org/namespaces/inkscape"
   inkscape:version="1.0 (4035a4fb49, 2020-05-01)"
   sodipodi:docname="view-media-visualization.svg"
   id="svg6"
   version="1.1"
   viewBox="0 0 16 16">
  <metadata
     id="metadata10">
    <rdf:RDF>
      <cc:Work
         rdf:about="">
        <dc:format>image/svg+xml</dc:format>
        <dc:type
           rdf:resource="http://purl.org/dc/dcmitype/StillImage" />
      </cc:Work>
    </rdf:RDF>
  </metadata>
  <sodipodi:namedview
     inkscape:current-layer="svg6"
     inkscape:window-maximized="1"
     inkscape:window-y="27"
     inkscape:window-x="0"
     inkscape:cy="8"
     inkscape:cx="8"
     inkscape:zoom="52.4375"
     showgrid="false"
     id="namedview8"
     inkscape:window-height="1025"
     inkscape:window-width="1920"
     inkscape:pageshadow="2"
     inkscape:pageopacity="0"
     guidetolerance="10"
     gridtolerance="10"
     objecttolerance="10"
     borderopacity="1"
     bordercolor="#666666"
     pagecolor="#ffffff" />
  <defs
     id="defs3051">
    <style
       id="current-color-scheme"
       type="text/css">
      .ColorScheme-Text {
        color:#eff0f1;
      }
      </style>
  </defs>
  <path
     id="path4"
     class="ColorScheme-Text"
     d="M 10 3 L 10 5 L 9 5 L 9 6 L 8 6 L 8 7 L 7 7 L 7 8 L 5 8 L 5 7 L 4 7 L 4 4 L 3 4 L 3 6 L 2 6 L 2 8 L 1 8 L 1 9 L 2 9 L 2 11 L 3 11 L 3 12 L 4 12 L 4 10 L 5 10 L 5 9 L 7 9 L 7 10 L 8 10 L 8 11 L 9 11 L 9 12 L 10 12 L 10 14 L 11 14 L 11 13 L 12 13 L 12 11 L 13 11 L 13 10 L 14 10 L 14 9 L 15 9 L 15 8 L 14 8 L 14 7 L 13 7 L 13 6 L 12 6 L 12 4 L 11 4 L 11 3 L 10 3 z "
     style="fill:#e6e6e6;fill-opacity:1;stroke:none" />
</svg>
