<?xml version="1.0" encoding="UTF-8" standalone="no"?>
<svg
   width="16"
   height="16"
   viewBox="0 0 16 16"
   fill="currentColor"
   version="1.1"
   id="svg1"
   sodipodi:docname="merge.svg"
   inkscape:version="1.3.2 (091e20ef0f, 2023-11-25, custom)"
   xmlns:inkscape="http://www.inkscape.org/namespaces/inkscape"
   xmlns:sodipodi="http://sodipodi.sourceforge.net/DTD/sodipodi-0.dtd"
   xmlns="http://www.w3.org/2000/svg"
   xmlns:svg="http://www.w3.org/2000/svg">
  <defs
     id="defs1" />
  <sodipodi:namedview
     id="namedview1"
     pagecolor="#ffffff"
     bordercolor="#666666"
     borderopacity="1.0"
     inkscape:showpageshadow="2"
     inkscape:pageopacity="0.0"
     inkscape:pagecheckerboard="0"
     inkscape:deskcolor="#d1d1d1"
     inkscape:zoom="50.5"
     inkscape:cx="7.990099"
     inkscape:cy="8"
     inkscape:window-width="2560"
     inkscape:window-height="1023"
     inkscape:window-x="0"
     inkscape:window-y="0"
     inkscape:window-maximized="1"
     inkscape:current-layer="svg1" />
  <path
     fill-rule="evenodd"
     clip-rule="evenodd"
     d="M 10.933809,3.9817918 8.4153529,1.4633354 H 7.5856471 l -2.51963,2.5184564 0.8297058,0.8297058 1.2826994,-1.2815258 v 1.1958561 h -0.023471 v 0.5351426 l 0.029339,0.00117 0.00704,0.3743651 c 0.00469,0.2194555 0.023471,0.4447787 0.058678,0.6736226 0.035207,0.2288439 0.080976,0.4576878 0.1373063,0.6877052 0.056331,0.2288439 0.1337857,0.4741176 0.2347117,0.7358212 0.1819016,0.4447786 0.4025305,0.8473092 0.6630605,1.2099387 0.2593564,0.3626296 0.5398369,0.701788 0.8390943,1.0174752 0.2992574,0.3168605 0.5961677,0.6278535 0.8919049,0.9353255 0.293389,0.307473 0.560961,0.634895 0.799193,0.983442 0.238232,0.348547 0.431869,0.72878 0.579738,1.141873 0.146695,0.411919 0.220629,0.886036 0.220629,1.423526 v 1.037426 h 1.665279 v -1.037426 a 7.0307887,7.0307887 0 0 0 -0.19481,-1.631246 5.4429641,5.4429641 0 0 0 -0.50111,-1.290915 6.8946559,6.8946559 0 0 0 -0.708829,-1.052682 C 11.615647,10.153536 11.344555,9.8519312 11.062901,9.5620622 10.781247,9.2733669 10.510155,8.9846715 10.249625,8.6959761 A 7.4990385,7.4990385 0 0 1 9.5407955,7.7747327 4.4524807,4.4524807 0 0 1 9.0326447,6.7021003 4.3140009,4.3140009 0 0 1 8.8448753,5.3759793 V 4.7258279 h -0.00117 V 3.5522694 L 10.104104,4.8126712 Z M 6.8756442,9.9610721 A 9.6114437,9.6114437 0 0 0 7.261745,9.528029 7.1117642,7.1117642 0 0 1 6.5341387,8.1784368 l -0.00821,-0.025818 A 8.5200343,8.5200343 0 0 1 6.4144358,7.8439727 C 6.2149308,8.1444036 5.9931283,8.4284048 5.7513752,8.6959761 5.4908453,8.9846715 5.2197533,9.2733669 4.9380992,9.5620622 4.6564452,9.8519312 4.3865268,10.153536 4.1248232,10.470396 3.8654668,10.787257 3.628408,11.136978 3.4159939,11.521905 a 5.4488319,5.4488319 0 0 0 -0.5011094,1.293261 7.0354829,7.0354829 0 0 0 -0.1948107,1.630073 v 1.037426 h 1.666453 v -1.037426 c 0,-0.536316 0.072761,-1.011607 0.220629,-1.423526 C 4.7538506,12.60862 4.9474877,12.228387 5.1857201,11.87984 5.4239524,11.531293 5.6903502,11.203871 5.9860869,10.896398 6.2806501,10.588926 6.5775604,10.277933 6.8779913,9.9610721 Z"
     id="path1"
     style="fill:#f2f2f2;stroke-width:1.17356" />
</svg>
