<?xml version="1.0" encoding="UTF-8" standalone="no"?>
<svg
   xmlns:dc="http://purl.org/dc/elements/1.1/"
   xmlns:cc="http://creativecommons.org/ns#"
   xmlns:rdf="http://www.w3.org/1999/02/22-rdf-syntax-ns#"
   xmlns:svg="http://www.w3.org/2000/svg"
   xmlns="http://www.w3.org/2000/svg"
   xmlns:sodipodi="http://sodipodi.sourceforge.net/DTD/sodipodi-0.dtd"
   xmlns:inkscape="http://www.inkscape.org/namespaces/inkscape"
   width="1536"
   height="1536"
   version="1.1"
   id="svg902"
   sodipodi:docname="fa-cogs.svg"
   inkscape:version="0.92.4 5da689c313, 2019-01-14">
  <metadata
     id="metadata908">
    <rdf:RDF>
      <cc:Work
         rdf:about="">
        <dc:format>image/svg+xml</dc:format>
        <dc:type
           rdf:resource="http://purl.org/dc/dcmitype/StillImage" />
        <dc:title />
      </cc:Work>
    </rdf:RDF>
  </metadata>
  <defs
     id="defs906" />
  <sodipodi:namedview
     pagecolor="#ffffff"
     bordercolor="#666666"
     borderopacity="1"
     objecttolerance="10"
     gridtolerance="10"
     guidetolerance="10"
     inkscape:pageopacity="0"
     inkscape:pageshadow="2"
     inkscape:window-width="1920"
     inkscape:window-height="992"
     id="namedview904"
     showgrid="false"
     inkscape:zoom="0.52604167"
     inkscape:cx="414.41584"
     inkscape:cy="768"
     inkscape:window-x="0"
     inkscape:window-y="27"
     inkscape:window-maximized="1"
     inkscape:current-layer="svg902" />
  <path
     d="m 720.22176,767.62671 c 0,-105.26138 -85.85148,-191.11287 -191.11287,-191.11287 -105.26139,0 -191.11286,85.85149 -191.11286,191.11287 0,105.26137 85.85148,191.11287 191.11286,191.11287 105.26139,0 191.11287,-85.8515 191.11287,-191.11287 z m 573.33864,382.22579 c 0,-52.2575 -43.299,-95.5565 -95.5564,-95.5565 -52.2575,0 -95.5565,43.299 -95.5565,95.5565 0,53.0039 43.299,95.5564 95.5565,95.5564 53.0039,0 95.5564,-43.299 95.5564,-95.5564 z m 0,-764.45153 c 0,-52.25743 -43.299,-95.55644 -95.5564,-95.55644 -52.2575,0 -95.5565,43.29901 -95.5565,95.55644 0,53.00396 43.299,95.55644 95.5565,95.55644 53.0039,0 95.5564,-43.29901 95.5564,-95.55644 z m -286.6693,314.29109 v 138.10891 c 0,9.70495 -7.46542,20.90297 -17.17032,22.39604 l -115.7129,17.91687 c -5.9723,19.4099 -14.1841,38.0732 -23.8891,56.7366 20.903,29.8614 43.299,57.4832 67.1881,85.85152 2.9862,4.4792 5.2258,8.9584 5.2258,14.9307 0,5.2257 -1.4931,10.4515 -5.2258,14.1841 -14.9307,20.1565 -98.5425,111.2337 -120.19205,111.2337 -5.97228,0 -11.19802,-2.2396 -15.67723,-5.2257 l -85.85148,-67.1882 c -18.66337,9.705 -37.32673,17.1703 -57.48317,23.1426 -3.73267,38.0733 -7.46535,79.1327 -17.1703,115.7129 -2.98614,10.4515 -11.94455,17.9168 -22.39604,17.9168 H 459.68118 c -10.45149,0 -20.90297,-8.2119 -22.39604,-18.6634 l -17.1703,-114.2198 c -19.4099,-5.9722 -38.07327,-14.1841 -55.9901,-23.1425 l -88.09109,66.4416 c -3.73267,3.7326 -9.70495,5.2257 -14.93069,5.2257 -5.97228,0 -11.19802,-2.2396 -15.67723,-5.9723 -19.4099,-17.9168 -107.50099,-97.796 -107.50099,-119.4455 0,-5.2258 2.23961,-9.705 5.22575,-14.1842 21.6495,-28.36832 44.04554,-55.99012 65.69504,-85.10492 -10.45148,-20.1565 -19.4099,-40.3129 -26.12871,-61.2159 L 69.243545,857.21087 c -10.45148,-1.49307 -17.91683,-11.19802 -17.91683,-21.6495 V 697.45246 c 0,-9.70496 7.46535,-20.90298 17.1703,-22.39604 L 184.20989,657.13958 c 5.97228,-19.4099 14.18416,-38.07326 23.88911,-56.73663 -20.90297,-29.86139 -43.29901,-57.48317 -67.18812,-85.85148 -2.98614,-4.47921 -5.22574,-9.70496 -5.22574,-14.9307 0,-5.22574 1.49307,-10.45148 5.22574,-14.93069 14.93069,-20.15644 98.54258,-110.48713 120.19208,-110.48713 5.97228,0 11.19802,2.2396 15.67723,5.22574 l 85.85148,67.18812 c 18.66337,-9.70495 37.32674,-17.1703 57.48317,-23.88911 3.73267,-37.32673 7.46535,-78.38614 17.1703,-114.96633 2.98614,-10.45149 11.94455,-17.91684 22.39604,-17.91684 h 138.85544 c 10.45149,0 20.90297,8.21189 22.39604,18.66337 l 17.1703,114.2198 c 19.4099,5.97228 38.07327,14.18416 55.9901,23.14258 l 88.09109,-66.44159 c 4.47921,-3.73267 9.70495,-5.22574 14.93069,-5.22574 5.97228,0 11.19805,2.2396 15.67725,5.97228 19.4099,17.91683 107.501,98.54257 107.501,119.44554 0,5.22574 -2.2396,9.70495 -5.2258,14.18416 -21.6495,29.11485 -44.0455,55.9901 -64.9485,85.10495 9.705,20.15644 18.6634,40.31287 25.3822,61.21584 l 113.4733,17.1703 c 10.4514,2.2396 17.91681,11.94455 17.91681,22.39604 z m 477.7822,397.90294 v 104.5149 c 0,11.198 -96.303,21.6495 -111.2337,23.1426 -5.9723,14.1841 -13.4376,26.8752 -22.396,38.8198 6.7188,14.9307 38.0732,89.5841 38.0732,103.0218 0,2.2396 -0.7465,3.7326 -2.9861,5.2257 -8.9584,5.2257 -88.8376,53.004 -92.5703,53.004 -9.705,0 -65.6951,-74.6535 -73.1604,-85.8515 -7.4653,0.7465 -14.9307,1.493 -22.396,1.493 -7.4654,0 -14.9307,-0.7465 -22.3961,-1.493 -7.4653,11.198 -63.4554,85.8515 -73.1604,85.8515 -3.7326,0 -83.6119,-47.7783 -92.5703,-53.004 -2.2396,-1.4931 -2.9861,-3.7327 -2.9861,-5.2257 0,-12.6911 31.3544,-88.0911 38.0733,-103.0218 -8.9585,-11.9446 -16.4238,-24.6357 -22.3961,-38.8198 -14.9307,-1.4931 -111.23362,-11.9446 -111.23362,-23.1426 V 1097.595 c 0,-11.198 96.30292,-21.6495 111.23362,-23.1425 5.9723,-13.4376 13.4376,-26.8753 22.3961,-38.8198 -6.7189,-14.9307 -38.0733,-90.33072 -38.0733,-103.02182 0,-1.4931 0.7465,-3.7327 2.9861,-5.2258 8.9584,-4.4792 88.8377,-52.2574 92.5703,-52.2574 9.705,0 65.6951,73.907 73.1604,85.105 7.4654,-0.7466 14.9307,-1.4931 22.3961,-1.4931 7.4653,0 14.9307,0.7465 22.396,1.4931 20.903,-29.1149 43.299,-58.2297 68.6812,-83.6119 l 4.4792,-1.4931 c 3.7327,0 83.6119,47.0317 92.5703,52.2574 2.2396,1.4931 2.9861,3.7327 2.9861,5.2258 0,13.4376 -31.3544,88.09112 -38.0732,103.02182 8.9584,11.9445 16.4237,25.3822 22.396,38.8198 14.9307,1.493 111.2337,11.9445 111.2337,23.1425 z m 0,-764.45146 V 437.6584 c 0,11.19802 -96.303,21.6495 -111.2337,23.14257 -5.9723,14.18416 -13.4376,26.87525 -22.396,38.8198 6.7188,14.9307 38.0732,89.58416 38.0732,103.02178 0,2.23961 -0.7465,3.73268 -2.9861,5.22575 -8.9584,5.22574 -88.8376,53.00396 -92.5703,53.00396 -9.705,0 -65.6951,-74.65347 -73.1604,-85.85149 -7.4653,0.74654 -14.9307,1.49307 -22.396,1.49307 -7.4654,0 -14.9307,-0.74653 -22.3961,-1.49307 -7.4653,11.19802 -63.4554,85.85149 -73.1604,85.85149 -3.7326,0 -83.6119,-47.77822 -92.5703,-53.00396 -2.2396,-1.49307 -2.9861,-3.73268 -2.9861,-5.22575 0,-12.69108 31.3544,-88.09108 38.0733,-103.02178 -8.9585,-11.94455 -16.4238,-24.63564 -22.3961,-38.8198 C 1007.6376,459.3079 911.33468,448.85642 911.33468,437.6584 V 333.14354 c 0,-11.19802 96.30292,-21.6495 111.23362,-23.14257 5.9723,-13.43762 13.4376,-26.87525 22.3961,-38.8198 -6.7189,-14.93069 -38.0733,-90.33069 -38.0733,-103.02178 0,-1.49307 0.7465,-3.73268 2.9861,-5.22575 8.9584,-4.4792 88.8377,-52.25742 92.5703,-52.25742 9.705,0 65.6951,73.90693 73.1604,85.10495 7.4654,-0.74654 14.9307,-1.49307 22.3961,-1.49307 7.4653,0 14.9307,0.74653 22.396,1.49307 20.903,-29.11485 43.299,-58.2297 68.6812,-83.61188 l 4.4792,-1.49307 c 3.7327,0 83.6119,47.03168 92.5703,52.25742 2.2396,1.49307 2.9861,3.73268 2.9861,5.22575 0,13.43762 -31.3544,88.09109 -38.0732,103.02178 8.9584,11.94455 16.4237,25.38218 22.396,38.8198 14.9307,1.49307 111.2337,11.94455 111.2337,23.14257 z"
     id="path900"
     inkscape:connector-curvature="0"
     style="stroke-width:0.74653465;fill:#ececec" />
</svg>
