<svg xmlns="http://www.w3.org/2000/svg" width="16" height="16">
    <path d="M9.559.078l-8.48 4.897 3.21 2.856c.11.1.225.234.07.532a6.474 6.474 0 0 0-.566 2.63c0 .604.085 1.205.252 1.786l.062.131 4.803-2.765c1.064 1.69 1.282 2.766 4.082 5.718-1.303-4.882-1.918-4.31-2.87-6.418 1.628-.94 3.26-1.88 4.885-2.827l-.134-.173c-1.112-1.124-2.397-1.803-4.085-1.853-.266.022-.332-.092-.343-.18z" style="isolation:auto;mix-blend-mode:normal;marker:none" color="#000" overflow="visible" fill="#2e3436"/>
</svg>
