<?xml version="1.0" encoding="UTF-8" standalone="no"?>
<svg
   xmlns:dc="http://purl.org/dc/elements/1.1/"
   xmlns:cc="http://creativecommons.org/ns#"
   xmlns:rdf="http://www.w3.org/1999/02/22-rdf-syntax-ns#"
   xmlns:svg="http://www.w3.org/2000/svg"
   xmlns="http://www.w3.org/2000/svg"
   width="16"
   version="1.1"
   id="svg7384"
   height="16">
  <metadata
     id="metadata90">
    <rdf:RDF>
      <cc:Work
         rdf:about="">
        <dc:format>image/svg+xml</dc:format>
        <dc:type
           rdf:resource="http://purl.org/dc/dcmitype/StillImage" />
        <dc:title>Gnome Symbolic Icon Theme</dc:title>
      </cc:Work>
    </rdf:RDF>
  </metadata>
  <title
     id="title9167">Gnome Symbolic Icon Theme</title>
  <defs
     id="defs7386" />
  <g
     transform="translate(-140,-320)"
     id="layer1">
    <path
       id="path1740"
       d="m 148,321 c 0,0 -1.27522,-0.006 -2.5293,0.77734 C 144.21662,322.56114 143,324.23333 143,327 v 2 c 0,2.76667 1.21662,4.43886 2.4707,5.22266 C 146.72478,335.00646 148,335 148,335 c 3.66667,0 4.94922,-3.68359 4.94922,-3.68359 a 1.0005668,1.0005668 0 1 0 -1.89844,-0.63282 c 0,0 -0.71745,2.31641 -3.05078,2.31641 0,0 -0.72478,-0.006 -1.4707,-0.47266 C 145.78338,332.06114 145,331.23333 145,329 v -2 c 0,-2.23333 0.78338,-3.06114 1.5293,-3.52734 C 147.27522,323.00646 148,323 148,323 c 2.33333,0 3.05078,2.31641 3.05078,2.31641 a 1.0005668,1.0005668 0 1 0 1.89844,-0.63282 c 0,0 -1.28255,-3.68359 -4.94922,-3.68359 z"
       style="color:#000000;font-style:normal;font-variant:normal;font-weight:normal;font-stretch:normal;font-size:medium;line-height:normal;font-family:sans-serif;font-variant-ligatures:normal;font-variant-position:normal;font-variant-caps:normal;font-variant-numeric:normal;font-variant-alternates:normal;font-feature-settings:normal;text-indent:0;text-align:start;text-decoration:none;text-decoration-line:none;text-decoration-style:solid;text-decoration-color:#000000;letter-spacing:normal;word-spacing:normal;text-transform:none;writing-mode:lr-tb;direction:ltr;text-orientation:mixed;dominant-baseline:auto;baseline-shift:baseline;text-anchor:start;white-space:normal;shape-padding:0;clip-rule:nonzero;display:inline;overflow:visible;visibility:visible;opacity:1;isolation:auto;mix-blend-mode:normal;color-interpolation:sRGB;color-interpolation-filters:linearRGB;solid-color:#000000;solid-opacity:1;vector-effect:none;fill:#2e3436;fill-opacity:1;fill-rule:evenodd;stroke:none;stroke-width:1.99999952px;stroke-linecap:round;stroke-linejoin:miter;stroke-miterlimit:4;stroke-dasharray:none;stroke-dashoffset:0;stroke-opacity:1;color-rendering:auto;image-rendering:auto;shape-rendering:auto;text-rendering:auto;enable-background:accumulate" />
  </g>
  <g
     transform="translate(-140,-320)"
     id="layer2" />
  <g
     transform="translate(-140,-320)"
     id="layer3" />
</svg>
