<?xml version="1.0" encoding="UTF-8" standalone="no"?>
<svg
   xmlns:dc="http://purl.org/dc/elements/1.1/"
   xmlns:cc="http://creativecommons.org/ns#"
   xmlns:rdf="http://www.w3.org/1999/02/22-rdf-syntax-ns#"
   xmlns:svg="http://www.w3.org/2000/svg"
   xmlns="http://www.w3.org/2000/svg"
   width="16"
   version="1.1"
   id="svg7384"
   height="16">
  <metadata
     id="metadata90">
    <rdf:RDF>
      <cc:Work
         rdf:about="">
        <dc:format>image/svg+xml</dc:format>
        <dc:type
           rdf:resource="http://purl.org/dc/dcmitype/StillImage" />
        <dc:title>Gnome Symbolic Icon Theme</dc:title>
      </cc:Work>
    </rdf:RDF>
  </metadata>
  <title
     id="title9167">Gnome Symbolic Icon Theme</title>
  <defs
     id="defs7386" />
  <g
     transform="translate(-180,-320)"
     id="layer1">
    <path
       d="m 180,324 c 0,0 0,-1 1,-1 h 14 c 0,0 1,0 1,1 v 8 c 0,1 -1,1 -1,1 h -14 c 0,0 -1,0 -1,-1 z m 2,1 v 6 h 1.75 v -3.25 l 1.25,1.25 1.25,-1.25 V 331 H 188 v -6 h -1.5 l -1.5,1.5 -1.5,-1.5 z m 9,0 v 3 h -1.5 l 2,3 h 1 l 2,-3 H 193 v -3 z"
       id="rect4323-3"
       style="display:inline;opacity:1;fill:#2e3436;fill-opacity:1;stroke:none;stroke-width:2;stroke-linecap:round;stroke-linejoin:round;stroke-miterlimit:4;stroke-dasharray:none;stroke-opacity:1;enable-background:new" />
  </g>
  <g
     transform="translate(-180,-320)"
     id="layer2" />
  <g
     transform="translate(-180,-320)"
     id="layer3" />
</svg>
