<svg xmlns="http://www.w3.org/2000/svg" width="16" height="16">
    <g fill="#2e3436">
        <path d="M3 1s-.478-.013-.972.252C1.533 1.517 1 2.225 1 3.072V8a1 1 0 0 0 .293.707l6 6a1 1 0 0 0 1.414 0l6-6a1 1 0 0 0 0-1.414l-6-6A1 1 0 0 0 8 1zm0 2h4.586l5 5L8 12.586l-5-5V3.072c0-.225-.033-.054-.027-.057L3 3z" style="line-height:normal;font-variant-ligatures:normal;font-variant-position:normal;font-variant-caps:normal;font-variant-numeric:normal;font-variant-alternates:normal;font-feature-settings:normal;text-indent:0;text-align:start;text-decoration-line:none;text-decoration-style:solid;text-decoration-color:#000;text-transform:none;text-orientation:mixed;shape-padding:0;isolation:auto;mix-blend-mode:normal" color="#000" font-weight="400" font-family="sans-serif" white-space="normal" overflow="visible" fill-rule="evenodd"/>
        <path d="M6 5a1 1 0 0 1-1 1 1 1 0 0 1-1-1 1 1 0 0 1 1-1 1 1 0 0 1 1 1z"/>
    </g>
</svg>
