<svg width="48" xmlns="http://www.w3.org/2000/svg" height="48" viewBox="0 0 48 48" xmlns:xlink="http://www.w3.org/1999/xlink">
 <defs>
  <linearGradient id="a" y1="525.26" x1="395.91" y2="513.95" x2="425.21" gradientUnits="userSpaceOnUse" gradientTransform="translate(-384.57-499.8)">
   <stop stop-color="#da4453"/>
   <stop offset="1" stop-color="#ff7336"/>
  </linearGradient>
  <linearGradient id="b" y1="44.09" x1="26.362" y2="33.75" x2="44" gradientUnits="userSpaceOnUse">
   <stop stop-color="#c0392b"/>
   <stop offset="1" stop-color="#c0392b" stop-opacity="0"/>
  </linearGradient>
  <linearGradient id="c" y1="519.85" x1="388.57" y2="528.52" x2="398.82" gradientUnits="userSpaceOnUse">
   <stop stop-color="#4d4d4d"/>
   <stop offset="1" stop-color="#31363b"/>
  </linearGradient>
  <linearGradient id="d" y1="509.8" x1="394.57" y2="537.95" x2="422.73" gradientUnits="userSpaceOnUse">
   <stop stop-color="#e5e7e8"/>
   <stop offset="1" stop-color="#dcdee0"/>
  </linearGradient>
  <linearGradient id="e" x1="389.57" x2="427.57" gradientUnits="userSpaceOnUse" gradientTransform="matrix(.70711.70711-.70711.70711 490.05-135.49)">
   <stop stop-color="#fcfcfc"/>
   <stop offset="1" stop-color="#eff0f1"/>
  </linearGradient>
  <linearGradient xlink:href="#d" id="f" y1="133.33" x1="771.7" y2="160.66" gradientUnits="userSpaceOnUse" x2="799.04"/>
  <linearGradient id="g" y1="551.8" y2="528.8" gradientUnits="userSpaceOnUse" x2="0" gradientTransform="matrix(.49677 0 0 .76923 194.57 97.03)">
   <stop stop-color="#c6cdd1"/>
   <stop offset="1" stop-color="#e0e5e7"/>
  </linearGradient>
  <linearGradient id="h" y1="557.8" y2="505.8" gradientUnits="userSpaceOnUse" x2="0" gradientTransform="matrix(.61141 0 0 .76923 146.92 114.72)">
   <stop stop-color="#42a603"/>
   <stop offset="1" stop-color="#78da06"/>
  </linearGradient>
  <linearGradient id="i" x1="398.57" x2="400.57" gradientUnits="userSpaceOnUse" gradientTransform="matrix(1.5625 0 0 1.53847-227.95-292.82)">
   <stop stop-color="#faae2a"/>
   <stop offset="1" stop-color="#ffc35a"/>
  </linearGradient>
  <linearGradient xlink:href="#i" id="j" x1="398.57" gradientUnits="userSpaceOnUse" x2="400.57" gradientTransform="matrix(1.5625 0 0 1.53847-218.57-292.82)"/>
  <linearGradient id="k" y1="539.88" x1="410.5" y2="529.73" x2="390.65" gradientUnits="userSpaceOnUse">
   <stop stop-color="#bcfd93"/>
   <stop offset="1" stop-color="#fafff5"/>
  </linearGradient>
  <linearGradient id="l" y1="34.612" x1="14.187" y2="54.612" x2="34.19" gradientUnits="userSpaceOnUse">
   <stop stop-color="#383e51"/>
   <stop offset="1" stop-color="#655c6f" stop-opacity="0"/>
  </linearGradient>
 </defs>
 <g transform="translate(-384.57-499.8)">
  <g stroke-opacity=".55" stroke-width="8.587">
   <path fill="url(#d)" d="m408.57 503.8c-11.03 0-19.913 8.838-19.996 19.846l1.123.023 4.684 12.02 10.166 5.922 11.4-.707 7.779-5.48 3.623-12.02-2.121-8.662-6.189-7.631-1.563-1.156-.266-.186c-2.616-1.251-5.537-1.971-8.641-1.971m0 5c8.31 0 15 6.69 15 15 0 8.31-6.69 15-15 15-8.31 0-15-6.69-15-15 0-8.31 6.69-15 15-15"/>
   <path fill="url(#e)" d="m408.57 504.78c-4.857 0-9.714 1.861-13.436 5.582-7.443 7.443-7.443 19.428 0 26.871 7.443 7.443 19.428 7.443 26.871 0 7.443-7.443 7.443-19.428 0-26.871-3.721-3.721-8.579-5.582-13.436-5.582m0 13.02c1.532 0 3.064.588 4.238 1.762 2.348 2.348 2.348 6.128 0 8.477-2.348 2.348-6.128 2.348-8.477 0-2.348-2.348-2.348-6.128 0-8.477 1.174-1.174 2.706-1.762 4.238-1.762"/>
   <path fill="url(#b)" d="m4.01 23.5c-.004.167-.012.332-.012.5 0 11.08 8.92 20 20 20 11.08 0 20-8.92 20-20 0-.168-.008-.333-.012-.5-.265 10.846-9.08 19.5-19.988 19.5-10.912 0-19.724-8.654-19.988-19.5" transform="translate(384.57 499.8)"/>
   <path opacity=".4" fill="#f9f9f9" d="m408.57 516.8c-1.788 0-3.576.685-4.945 2.055-2.74 2.74-2.74 7.151 0 9.891 2.74 2.74 7.151 2.74 9.891 0 2.74-2.74 2.74-7.151 0-9.891-1.37-1.37-3.158-2.055-4.945-2.055m-.002 3.95508a3.00255 3.00255 0 0 1 3.002 3.0039 3.00255 3.00255 0 0 1 -3.00195 3.00196 3.00255 3.00255 0 0 1 -3.00391 -3.00196 3.00255 3.00255 0 0 1 3.00391 -3.0039"/>
   <path fill="url(#f)" d="m408.75893 512.798a11 11 0 0 0 -.7793 .0273 11 11 0 0 0 -1.08984 .13281 11 11 0 0 0 -1.07422 .24024 11 11 0 0 0 -1.04297 .34765 11 11 0 0 0 -1.0039 .44727 11 11 0 0 0 -.95313 .54883 11 11 0 0 0 -.89453 .63867 11 11 0 0 0 -.82617 .72656 11 11 0 0 0 -.74805 .80469 11 11 0 0 0 -.66601 .875 11 11 0 0 0 -.57422 .9375 11 11 0 0 0 -.47852 .99023 11 11 0 0 0 -.37891 1.03321 11 11 0 0 0 -.27148 1.06445 11 11 0 0 0 -.16406 1.08594 11 11 0 0 0 -.0547 1.09961 11 11 0 0 0 .0273 .7793 11 11 0 0 0 .13281 1.08984 11 11 0 0 0 .24219 1.07422 11 11 0 0 0 .3457 1.04297 11 11 0 0 0 .44727 1.0039 11 11 0 0 0 .54883 .95313 11 11 0 0 0 .64062 .89453 11 11 0 0 0 .72461 .82617 11 11 0 0 0 .80469 .74805 11 11 0 0 0 .875 .66601 11 11 0 0 0 .9375 .57422 11 11 0 0 0 .99023 .47852 11 11 0 0 0 1.03321 .37891 11 11 0 0 0 1.06445 .27148 11 11 0 0 0 1.08594 .16406 11 11 0 0 0 1.09961 .0547 11 11 0 0 0 .7793 -.0273 11 11 0 0 0 1.08984 -.13281 11 11 0 0 0 1.07422 -.24219 11 11 0 0 0 1.04297 -.3457 11 11 0 0 0 1.0039 -.44727 11 11 0 0 0 .95313 -.54883 11 11 0 0 0 .89453 -.64062 11 11 0 0 0 .82617 -.72461 11 11 0 0 0 .74805 -.80469 11 11 0 0 0 .66602 -.875 11 11 0 0 0 .57421 -.9375 11 11 0 0 0 .47852 -.99023 11 11 0 0 0 .37891 -1.03321 11 11 0 0 0 .27148 -1.06445 11 11 0 0 0 .16406 -1.08594 11 11 0 0 0 .0547 -1.09961 11 11 0 0 0 -.0273 -.7793 11 11 0 0 0 -.13281 -1.08984 11 11 0 0 0 -.24219 -1.07422 11 11 0 0 0 -.3457 -1.04297 11 11 0 0 0 -.44727 -1.0039 11 11 0 0 0 -.54883 -.95313 11 11 0 0 0 -.63867 -.89453 11 11 0 0 0 -.72656 -.82617 11 11 0 0 0 -.80469 -.74805 11 11 0 0 0 -.875 -.66602 11 11 0 0 0 -.9375 -.57421 11 11 0 0 0 -.99024 -.47852 11 11 0 0 0 -1.0332 -.37891 11 11 0 0 0 -1.06445 -.27148 11 11 0 0 0 -1.08594 -.16406 11 11 0 0 0 -1.09961 -.0547m-.191 4.998c1.533 0 3.068.585 4.242 1.76 2.349 2.349 2.349 6.135 0 8.484-2.349 2.349-6.133 2.349-8.482 0-2.349-2.349-2.349-6.135 0-8.484 1.175-1.175 2.707-1.76 4.24-1.76"/>
   <path opacity=".1" d="m408.57 520.75c-1.659-.001-3 1.345-3 3-.001.173.014.345.043.516.237-1.452 1.49-2.518 2.961-2.52 1.46 0 2.709 1.05 2.959 2.488.027-.16.042-.322.043-.484.001-1.659-1.343-3-3-3"/>
   <path fill="#95a5a6" d="m412.57 523.8c0 1.022-.391 2.043-1.174 2.826-.783.783-1.804 1.174-2.826 1.174v1c1.277 0 2.555-.488 3.533-1.467.978-.978 1.467-2.256 1.467-3.533z"/>
  </g>
  <rect width="25" x="388.57" y="521.8" fill="url(#h)" rx="0" height="22"/>
  <rect width="25" x="388.57" y="542.8" stroke-opacity=".55" fill="#46943b" rx="0" height="1" stroke-width="2.8"/>
  <rect width="21" x="390.57" y="503.8" fill="url(#g)" rx="0" height="18"/>
  <g fill="#23262c">
   <rect width="6" x="393.57" y="506.8" height="6"/>
   <rect width="6" x="402.57" y="506.8" height="6"/>
  </g>
  <rect width="4" x="394.57" y="506.8" fill="url(#i)" height="6"/>
  <rect width="4" x="403.57" y="506.8" fill="url(#j)" height="6"/>
  <path fill="url(#a)" fill-rule="evenodd" d="m32.467 5.887c.626.575 1.438 1.404 1.939 2.301.875 1.563.75 4.281-1.938 4.781-2.688.5-2.79-.415-2.781-1.5-1.429.197-2.068 3.364.438 4.469 2.125.938 2.906.563 6.906.313 4-.25 4.469 4.625 2.594 5.375-1.875.75-2.591-.587-2.469-1.313-1.503.587-1.686 2.224-.938 3 5.847 6.06 3.043 10.739 1.438 11.219-1.989.594-3.391-.584-2.375-2.156.828-1.281.113-3.394-.893-4.143-1.01-.748-2.96-.569-3.795-.014 1.204.455 2.969 1.156 2.5 2.719-.362 1.207-1.548 1.967-3.03 1.938-.42-.008-.77-.063-1.063-.152v10.627c8.64-2.212 15-10 15-19.35 0-8.05-4.715-14.934-11.533-18.11" transform="translate(384.57 499.8)"/>
  <g stroke-linejoin="round" color="#000000" stroke-width="3">
   <path fill="url(#c)" d="m388.94 519.85c-.241 1.277-.373 2.594-.373 3.943 0 1.349.132 2.666.373 3.943l11.627-1.943c1.095-.168 2-.892 2-2 0-1.108-.905-1.832-2-2z"/>
   <circle fill="#27ae60" cx="400.57" cy="523.8" r="1" stroke-linecap="round"/>
  </g>
  <path fill="url(#k)" d="m410.39 533.89l.087-.016c.024.019.02.057.013.091-.016.08-.055.224-.081.292l-.022.056c-.031.084-.062.163-.12.211-.162.148-.422.266-.829.443-.629.275-1.648.448-2.594.443-.339-.007-.667-.045-.955-.078-.882-.101-1.519-.173-1.651.629-.167 1 .777 2.225.787 2.236v.033l-.031.007c0 0-1.506-.694-1.543-.714l-.048-.034-.038-.037c-.114-.109-.342-.354-.805-.891-.898-1.038-1.949-1.175-2.758-.977-.197.047-.449.191-.612.354-.423.417-.375 1.257-.351 1.562.028.346.046.372.054.4l-.005.035-.03.004-.017-.012-1.235-.604-.047-.202c-.032-.133-.068-.281-.138-.466-.442-1.164-1.434-2.04-2.528-2.229-.739-.127-2.086-.142-2.799 1.205-.298.562-.28 1.294.047 1.911.333.631.929 1.036 1.633 1.114.699.076 1.224-.086 1.519-.467.297-.385.353-.91.142-1.337-.226-.459-.568-.702-1.043-.742-.361-.033-.63.118-.726.272-.028.048-.079.137-.08.263v.005c0 .344.315.438.379.443.02 0 .114-.003.24-.034l.103-.034.031-.005c.229-.042.449.093.513.316.011.041.017.082.017.123 0 .148-.075.285-.2.369l-.029.018c-.066.042-.126.065-.19.085-.179.059-.338.086-.498.086-.545-.001-1.304-.47-1.315-1.351-.005-.497.244-.95.683-1.241.506-.334 1.38-.448 2.19.049.998.611 1.258 1.807.998 2.623-.378 1.181-1.443 1.813-2.848 1.687-.995-.089-1.92-.614-2.47-1.405-.244-.35-.425-.741-.523-1.13-.225-.891.003-1.838.172-2.257.538-1.334 1.568-2.481 3.059-3.411l.094-.059c3.171-1.949 5.415-1.87 7.06-1.813 1.938.067 4 .736 4.289.83.001-.064.012-.642.012-.642l.008-.02.022-.005c.13.018 2.914.431 4.087 1.115.145.086.217.174.307.267.324.335.753 1.73.798 2.02l-.017.029c-.017.005-.057.036-.111.072-.273.191-.913.639-1.733.566-.737-.065-1.7-.488-2.861-1.252.051.12.293.693.334.789l.015.019c.168.087 1.781.909 2.582.893.646-.013 1.335-.328 1.611-.494zm-.75-1.609c.022-.656-.493-1.21-1.15-1.233-.318-.011-.621.102-.853.319-.233.217-.366.512-.378.829-.021.656.493 1.209 1.149 1.233.32.011.622-.102.854-.319.232-.217.366-.511.378-.829"/>
  <path opacity=".2" fill="url(#l)" fill-rule="evenodd" d="m25.19 31.41l.008.039c.002.002.004.004.006.006.324.335.754 1.73.799 2.02l-.018.029c-.017.005-.057.035-.111.07-.081.057-.202.137-.344.219l-.008.439c.099-.047.239-.099.301-.137v-.002l.086-.018c.024.019.021.058.014.092-.016.08-.056.225-.082.293l-.021.057c-.031.084-.062.163-.121.211-.162.148-.421.266-.828.443-.629.275-1.647.447-2.594.441-.339-.007-.667-.044-.955-.076-.882-.101-1.52-.174-1.652.627-.167 1 .778 2.225.787 2.236v.033l-.031.008c0 0-1.506-.694-1.543-.715l-.047-.033-.039-.037c-.114-.109-.342-.354-.805-.891-.898-1.038-1.95-1.176-2.76-.979-.197.047-.448.191-.611.354-.423.417-.374 1.257-.35 1.563.028.346.045.372.053.4l-.004.035-.031.004-.018-.012-1.234-.604-.047-.203c-.032-.133-.069-.279-.139-.465-.442-1.164-1.434-2.042-2.527-2.23-.739-.127-2.086-.141-2.799 1.205-.298.562-.28 1.295.047 1.912.333.631.928 1.036 1.633 1.113.699.076 1.225-.085 1.52-.467.297-.385.352-.911.141-1.338-.226-.459-.568-.702-1.043-.742-.361-.032-.63.118-.727.271-.028.048-.079.137-.08.264v.004c0 .344.315.439.379.443.02 0 .115-.002.24-.033l.061-.02.043-.016.029-.004c.229-.042.45.093.514.316.011.041.018.08.018.121 0 .148-.075.285-.199.369l-.029.02c-.066.042-.127.064-.191.084-.179.059-.338.086-.498.086-.545-.001-1.304-.469-1.314-1.35-.005-.497.244-.951.684-1.242.506-.334 1.381-.448 2.191.049.998.611 1.257 1.807.996 2.623-.378 1.181-1.442 1.813-2.848 1.688-.493-.044-.966-.196-1.387-.434l5.316 4.449h15.984v-8.777z" transform="translate(384.57 499.8)"/>
 </g>
</svg>
