<svg width="48" xmlns="http://www.w3.org/2000/svg" height="48" xmlns:xlink="http://www.w3.org/1999/xlink">
 <defs>
  <linearGradient id="a" y1="543.8" y2="503.8" x2="0" gradientUnits="userSpaceOnUse">
   <stop stop-color="#2a2c2f"/>
   <stop offset="1" stop-color="#424649"/>
  </linearGradient>
  <linearGradient id="b" y1="532.8" y2="506.8" x2="0" gradientUnits="userSpaceOnUse">
   <stop stop-color="#989a9b"/>
   <stop offset="1" stop-color="#f6f6f7"/>
  </linearGradient>
  <linearGradient id="c" y1="522.8" x1="403.57" y2="534.8" x2="413.26" gradientUnits="userSpaceOnUse">
   <stop stop-color="#020303"/>
   <stop offset="1" stop-color="#424649" stop-opacity="0"/>
  </linearGradient>
  <linearGradient xlink:href="#c" id="d" y1="521.8" x1="400.77" y2="533.6" gradientUnits="userSpaceOnUse" x2="412.57"/>
  <path fill-rule="evenodd" id="e" d="m426.57 529.8l-16 11-8-8-2-9 17-5z"/>
 </defs>
 <g transform="translate(-384.57-499.8)">
  <g fill-rule="evenodd">
   <path fill="url(#a)" d="m408.57 543.8l-20-14 20-26 20 26z"/>
   <path fill="url(#b)" d="m402.57 532.8l-8-7 14-19 9 12-17 5z"/>
  </g>
  <use opacity=".3" fill="url(#c)" xlink:href="#e"/>
  <g fill-rule="evenodd">
   <path fill="#ffffff" fill-opacity=".235" d="m394.57 525.8l14-17 9 10-9-12z"/>
   <path fill="#212325" d="m4.5 29.35l-.5.65 20 14 20-14-.5-.65-19.5 13.65z" transform="translate(384.57 499.8)"/>
  </g>
  <use opacity=".2" fill="url(#d)" xlink:href="#e"/>
  <g fill-rule="evenodd">
   <path fill="#25272b" d="m402.57 532.8l-1-8 16-6-17 5z"/>
   <path fill="#bbbec1" fill-opacity=".998" d="m402.57 532.8l-3-9 15-5-6-10 9 10-17 5z"/>
  </g>
 </g>
</svg>
