<svg width="48" xmlns="http://www.w3.org/2000/svg" height="48" viewBox="0 0 48 48">
 <defs>
  <linearGradient id="a" y1="510.8" y2="527.14" gradientUnits="userSpaceOnUse" x2="0">
   <stop stop-color="#7cbaf8"/>
   <stop offset="1" stop-color="#f4fcff"/>
  </linearGradient>
  <linearGradient id="b" y1="542.8" x1="408.57" y2="521.8" x2="387.57" gradientUnits="userSpaceOnUse" gradientTransform="translate(-384.57-499.8)">
   <stop stop-color="#197cf1"/>
   <stop offset="1" stop-color="#20bcfa"/>
  </linearGradient>
  <linearGradient id="c" y1="503.8" x1="400.57" y2="519.8" x2="416.57" gradientUnits="userSpaceOnUse">
   <stop stop-color="#292c2f"/>
   <stop offset="1" stop-opacity="0"/>
  </linearGradient>
 </defs>
 <g transform="translate(-384.57-499.8)">
  <path stroke-opacity=".55" fill="url(#a)" stroke-width="2.8" d="m404.57 510.8v12.35h7.6v-12.35z" transform="matrix(2.10526 0 0 2.10526-451.16-571.57)"/>
  <g fill-rule="evenodd">
   <path opacity=".2" fill="url(#c)" d="m400.57 527.8v-24l16 16v11l-16-3"/>
   <path fill="url(#b)" d="m25.5 14c-.828 0-1.5.672-1.5 1.5 0 .828.672 1.5 1.5 1.5.828 0 1.5-.672 1.5-1.5 0-.828-.672-1.5-1.5-1.5m17.5 9c-.552 0-1 .448-1 1 0 .552.448 1 1 1 .552 0 1-.448 1-1 0-.552-.448-1-1-1m-35.5-6c-.828 0-1.5.672-1.5 1.5 0 .828.672 1.5 1.5 1.5.828 0 1.5-.672 1.5-1.5 0-.828-.672-1.5-1.5-1.5m11.775 1.1c-.067.008-.132.027-.195.055-.506.222-.677.944-.012 2.461.666 1.517 1.615 2.568 2.121 2.346.506-.222.376-1.631-.289-3.148-.582-1.328-1.153-1.771-1.625-1.713m-5.988.635c-.395-.034-.937.359-.445.918.655.746 1 2.074.416 2.34-.587.266-.544-.99-.596-1.658-.051-.668-1.677-1.07-2.277-.242-.6.828.004 1.72.598 1.9.594.181.686.861 1.039 1.568.354.707 2.076.53 2.496 0 .42-.53.681-1.515-.137-2.424-.818-.909-.57-1.753-.791-2.217-.055-.116-.171-.174-.303-.186m19.494.078c-.531-.125-.75.875-.875 1.813-.125.938-.594 1.906-.188 2.094.563.25.85-1.288 1.486-1.863.636-.576.107-1.918-.424-2.043m-16.781.188c-.552 0-1 .448-1 1 0 .552.448 1 1 1 .552 0 1-.448 1-1 0-.552-.448-1-1-1m12.152.236c-.65.048-1.297 1.157-1.615 1.926-.364.878.076 2.59-.781 3.232-.857.643-1.484.661-1.912.404-.428-.257.367-.224-.111-1.203-.479-.979-1.624-.673-1.924.09-.3.763.322.728.107 1.178-.214.45-2.036.936-2.443-.414-.407-1.35-1.853-2.819-2.303-2.455-.45.364.054 1.706 1.232 2.777 1.178 1.071-.302 1.648-1.326.842-1.024-.807-2.228.613-3.16 1.563-.933.949-1.766 1.014-2.43.445-.663-.568-.08-2.114-.846-3.668-.765-1.554-2.286-.78-2.5.27-.214 1.05 1.92 1.757 1.506 2.34-.414.583-2.069.451-2.557-.648-.487-1.099-1.549-.743-1.57.156-.021.9.822.272 1.48.93l17 17 17-17c2-2-.29-1.143-.762-.693-.471.45-1.928.815-2.1.322-.171-.493 1.632-1.32 2.146-1.877.514-.557 1.017-2.139.186-2.719-.831-.58-2.01.467-2.521 1.238-.514.771-.068 2.736-.754 3.336-.686.6-1.063.235-1.191-.279-.129-.514 1.48-1.237.805-2.516-.676-1.279-1.924-.699-2.502-.1-.578.6.348 1.524.563 2.467.214.943-1.979.919-2.836.576-.857-.343-1.136-2.498-1.5-2.627-.364-.129-1.292.714-2.471.35-1.178-.364-.2-1.09.164-1.947.364-.857.939-2.922.203-3.246-.092-.041-.185-.056-.277-.049m10.348-1.236c-.828 0-1.5.672-1.5 1.5 0 .828.672 1.5 1.5 1.5.828 0 1.5-.672 1.5-1.5 0-.828-.672-1.5-1.5-1.5m-34.5 4c-.552 0-1 .448-1 1 0 .552.448 1 1 1 .552 0 1-.448 1-1 0-.552-.448-1-1-1" transform="translate(384.57 499.8)"/>
   <path fill="#0c69cf" d="m391.57 526.8l17 17 17-17c0 0-1 0-2 1-1 1-15 15-15 15 0 0-14-14-15-15-1-1-2-1-2-1"/>
  </g>
 </g>
</svg>
