<svg width="48" xmlns="http://www.w3.org/2000/svg" height="48">
 <defs>
  <linearGradient id="a" y1="785.71" y2="727.71" gradientUnits="userSpaceOnUse" x2="0" gradientTransform="matrix(.72727 0 0 .68966.727 1.931)">
   <stop stop-color="#22a7f0"/>
   <stop offset="1" stop-color="#19b5fe"/>
  </linearGradient>
  <linearGradient id="b" y1="20" y2="4" x2="0" gradientUnits="userSpaceOnUse">
   <stop stop-color="#60c0f4"/>
   <stop offset="1" stop-color="#b9e9ff"/>
  </linearGradient>
  <linearGradient id="c" y1="16" x1="16" y2="32" x2="32" gradientUnits="userSpaceOnUse">
   <stop stop-color="#383e51"/>
   <stop offset="1" stop-color="#655c6f" stop-opacity="0"/>
  </linearGradient>
 </defs>
 <g transform="translate(-384.57-499.8)">
  <path fill="url(#a)" d="m392.58 503.8c-.006 0-.01 3.568-.01 8v24c0 4.432.004 8 .01 8h31.98c.006 0 .01-3.568.01-8v-20l-12-12z"/>
  <path opacity=".2" fill="url(#c)" fill-rule="evenodd" d="m32 16v1h-16l2 2h-2l4 4h-4l1.334 1.334-1.334.666 4 4h-4l2 2h-2l13 13h10.99c.006 0 .01-3.568.01-8v-12z" transform="translate(384.57 499.8)"/>
  <rect width="32" x="392.57" y="542.8" fill="#2e3132" height="1" fill-opacity=".294"/>
  <path fill="#2584b7" d="m424.56 513.79c.006-.009.01-2.226.01-4.99 0-2.77-.004-5-.01-5h-9.98c0 0 0 .01 0 .01z"/>
  <path fill="url(#b)" d="m4 4v1h16v-1zm0 2v1h13v-1zm0 4v1h16v-1zm0 2v1h2v-1zm0 4v1h16v-1zm0 2v1h13v-1zm14 1v1h2v-1z" transform="translate(396.57 511.8)"/>
 </g>
</svg>
