<svg width="48" xmlns="http://www.w3.org/2000/svg" height="48">
 <defs>
  <linearGradient id="a" y1="785.71" y2="727.71" gradientUnits="userSpaceOnUse" x2="0" gradientTransform="matrix(.72727 0 0 .68966.727 1.931)">
   <stop stop-color="#6c7a89"/>
   <stop offset="1" stop-color="#768492"/>
  </linearGradient>
  <linearGradient id="b" y1="1052.3" y2="1039.3" gradientUnits="userSpaceOnUse" x2="0" gradientTransform="translate(-31.11-1020.3)">
   <stop stop-color="#a0aab4"/>
   <stop offset="1" stop-color="#d8dce0"/>
  </linearGradient>
  <linearGradient id="c" y1="16" x1="16" y2="32" x2="32" gradientUnits="userSpaceOnUse">
   <stop stop-color="#383e51"/>
   <stop offset="1" stop-color="#655c6f" stop-opacity="0"/>
  </linearGradient>
 </defs>
 <g transform="translate(-384.57-499.8)">
  <path fill="url(#a)" d="m392.58 503.8c-.006 0-.01 3.568-.01 8v24c0 4.432.004 8 .01 8h31.98c.006 0 .01-3.568.01-8v-20l-12-12z"/>
  <rect width="32" x="392.57" y="542.8" fill="#2e3132" height="1" fill-opacity=".294"/>
  <path fill="#59646f" d="m424.56 513.79c.006-.009.01-2.226.01-4.99 0-2.77-.004-5-.01-5h-9.98c0 0 0 .01 0 .01z"/>
  <path opacity=".2" fill="url(#c)" fill-rule="evenodd" d="m32 19l-1 2v-1h-7l-4 7h-1l-1-2h-2l5 5h-5l14 14h9.99c.006 0 .01-3.568.01-8v-9z" transform="translate(384.57 499.8)"/>
  <path fill="url(#b)" d="m32 19.01l-8 .004-4.441 7.691-1.555-2.695h-2v1h1.428l2.133 3.693 5.02-8.693h6.42v1h1zm-5 3c-1.662 0-3 1.338-3 3 0 1.662 1.338 3 3 3 .773 0 1.469-.298 2-.775v.775h1v-6h-1v.775c-.531-.477-1.227-.775-2-.775m0 1c1.108 0 2 .892 2 2 0 1.108-.892 2-2 2-1.108 0-2-.892-2-2 0-1.108.892-2 2-2m-10.99 5.99c-.006 0-.01.223-.01.5 0 .277.004.5.01.5h15.98c.006 0 .01-.223.01-.5 0-.277-.004-.5-.01-.5zm7 2c-.006 0-.01.223-.01.5 0 .277.004.5.01.5h1.98c.006 0 .01-.223.01-.5 0-.277-.004-.5-.01-.5z" transform="translate(384.57 499.8)"/>
 </g>
</svg>
