<svg width="48" xmlns="http://www.w3.org/2000/svg" height="48">
 <defs>
  <linearGradient id="a" y1="785.71" y2="727.71" gradientUnits="userSpaceOnUse" x2="0" gradientTransform="matrix(.72727 0 0 .68966-383.84-497.87)">
   <stop stop-color="#8e44ad"/>
   <stop offset="1" stop-color="#9b59b6"/>
  </linearGradient>
  <linearGradient id="b" y1="16" x1="16" y2="32" x2="32" gradientUnits="userSpaceOnUse" gradientTransform="translate(384.57 499.8)">
   <stop stop-color="#383e51"/>
   <stop offset="1" stop-color="#655c6f" stop-opacity="0"/>
  </linearGradient>
  <linearGradient id="c" y1="32" y2="16" x2="0" gradientUnits="userSpaceOnUse">
   <stop stop-color="#b985ce"/>
   <stop offset="1" stop-color="#e2cdeb"/>
  </linearGradient>
 </defs>
 <g transform="translate(-384.57-499.8)">
  <path fill="url(#a)" d="m8.01 4c-.006 0-.01 3.568-.01 8v24c0 4.432.004 8 .01 8h31.98c.006 0 .01-3.568.01-8v-20l-12-12z" transform="translate(384.57 499.8)"/>
  <path fill="#713e88" d="m424.55 513.8c.006-.009.01-2.226.01-4.99 0-2.77-.004-5-.01-5h-9.98c0 0 0 .01 0 .01z"/>
  <rect width="32" x="392.57" y="542.8" fill="#2e3132" height="1" fill-opacity=".294"/>
  <path opacity=".2" fill="url(#b)" fill-rule="evenodd" d="m402.57 516.8l-2 1v12l13.09 14h10.906v-18l-9-9-.535.465-.465-.465z"/>
  <path fill="url(#c)" color="#000000" stroke-width="2" d="m24 16c-4.418 0-8 .895-8 2v12c0 1.105 3.582 2 8 2 4.418 0 8-.895 8-2v-12c0-1.105-3.582-2-8-2m0 1c3.866 0 7 .448 7 1 0 .552-3.134 1-7 1-3.866 0-7-.448-7-1 0-.552 3.134-1 7-1m-7 1.949c1.355.623 3.964 1.051 7 1.051 3.036 0 5.645-.428 7-1.051v3.051c0 .552-3.134 1-7 1-3.866 0-7-.448-7-1zm0 4c1.355.623 3.964 1.051 7 1.051 3.036 0 5.645-.428 7-1.051v3.051c0 .552-3.134 1-7 1-3.866 0-7-.448-7-1zm0 4c1.355.623 3.964 1.051 7 1.051 3.036 0 5.645-.428 7-1.051v3.051c0 .552-3.134 1-7 1-3.866 0-7-.448-7-1z" transform="translate(384.57 499.8)"/>
 </g>
</svg>
