<svg width="48" xmlns="http://www.w3.org/2000/svg" height="48">
 <defs>
  <linearGradient id="a" y1="517.8" y2="533.8" x1="404.98" x2="420.98" gradientUnits="userSpaceOnUse" gradientTransform="translate(-388.98-501.8)">
   <stop stop-color="#383e51"/>
   <stop offset="1" stop-color="#655c6f" stop-opacity="0"/>
  </linearGradient>
  <linearGradient id="b" y1="785.71" y2="727.71" gradientUnits="userSpaceOnUse" x2="0" gradientTransform="matrix(.72727 0 0 .68966.727 1.931)">
   <stop stop-color="#26c281"/>
   <stop offset="1" stop-color="#3fc380"/>
  </linearGradient>
  <linearGradient id="c" y1="531.8" y2="515.8" x2="0" gradientUnits="userSpaceOnUse">
   <stop stop-color="#70e4b3"/>
   <stop offset="1" stop-color="#c8f0dc"/>
  </linearGradient>
 </defs>
 <g transform="translate(-384.57-499.8)">
  <path fill="url(#b)" d="m392.58 503.8c-.006 0-.01 3.568-.01 8v24c0 4.432.004 8 .01 8h31.98c.006 0 .01-3.568.01-8v-20l-12-12z"/>
  <rect width="32" x="392.57" y="542.8" fill="#2e3132" height="1" fill-opacity=".294"/>
  <path opacity=".2" fill="url(#a)" fill-rule="evenodd" d="m16 16v16l11 12h13v-20l-8-8z" transform="translate(384.57 499.8)"/>
  <path fill="url(#c)" color="#000000" d="m400.57 515.8v16h16v-16zm1 1h14v2h-14zm0 3h3v2h-3zm4 0h6v2h-6zm7 0h3v2h-3zm-11 3h3v2h-3zm4 0h6v2h-6zm7 0h3v2h-3zm-11 3h3v2h-3zm4 0h6v2h-6zm7 0h3v2h-3zm-11 3h3v2h-3zm4 0h6v2h-6zm7 0h3v2h-3z"/>
  <path fill="#289769" d="m424.56 513.79c.006-.009.01-2.226.01-4.99 0-2.77-.004-5-.01-5h-9.98c0 0 0 .01 0 .01z"/>
 </g>
</svg>
