<?xml version="1.0" encoding="UTF-8" standalone="no"?>
<svg
   height="16px"
   viewBox="0 0 16 16"
   width="16px"
   version="1.1"
   id="svg4"
   sodipodi:docname="about-symbolic.svg"
   inkscape:version="1.2.1 (9c6d41e410, 2022-07-14)"
   xmlns:inkscape="http://www.inkscape.org/namespaces/inkscape"
   xmlns:sodipodi="http://sodipodi.sourceforge.net/DTD/sodipodi-0.dtd"
   xmlns="http://www.w3.org/2000/svg"
   xmlns:svg="http://www.w3.org/2000/svg">
  <defs
     id="defs8" />
  <sodipodi:namedview
     id="namedview6"
     pagecolor="#ffffff"
     bordercolor="#666666"
     borderopacity="1.0"
     inkscape:showpageshadow="2"
     inkscape:pageopacity="0.0"
     inkscape:pagecheckerboard="0"
     inkscape:deskcolor="#d1d1d1"
     showgrid="false"
     inkscape:zoom="49.625"
     inkscape:cx="8.0100756"
     inkscape:cy="8.0100756"
     inkscape:window-width="2560"
     inkscape:window-height="1023"
     inkscape:window-x="0"
     inkscape:window-y="0"
     inkscape:window-maximized="1"
     inkscape:current-layer="svg4" />
  <path
     d="m 8 0 c -4.421875 0 -8 3.578125 -8 8 s 3.578125 8 8 8 s 8 -3.578125 8 -8 s -3.578125 -8 -8 -8 z m 0 3.875 c 0.621094 0 1.125 0.503906 1.125 1.125 s -0.503906 1.125 -1.125 1.125 s -1.125 -0.503906 -1.125 -1.125 s 0.503906 -1.125 1.125 -1.125 z m -1.523438 3.125 h 2.523438 v 4 h 0.5 c 0.277344 0 0.5 0.222656 0.5 0.5 s -0.222656 0.5 -0.5 0.5 h -2.5 v -4 h -0.5 c -0.277344 0 -0.5 -0.222656 -0.5 -0.5 c 0 -0.269531 0.210938 -0.488281 0.476562 -0.5 z m 0 0"
     fill="#222222"
     id="path2"
     style="fill:#f2f2f2" />
</svg>
