<?xml version="1.0" encoding="UTF-8" standalone="no"?>
<svg
   height="16px"
   viewBox="0 0 16 16"
   width="16px"
   version="1.1"
   id="svg8"
   sodipodi:docname="bug-symbolic.svg"
   inkscape:version="1.2.1 (9c6d41e410, 2022-07-14)"
   xmlns:inkscape="http://www.inkscape.org/namespaces/inkscape"
   xmlns:sodipodi="http://sodipodi.sourceforge.net/DTD/sodipodi-0.dtd"
   xmlns="http://www.w3.org/2000/svg"
   xmlns:svg="http://www.w3.org/2000/svg">
  <defs
     id="defs12" />
  <sodipodi:namedview
     id="namedview10"
     pagecolor="#ffffff"
     bordercolor="#666666"
     borderopacity="1.0"
     inkscape:showpageshadow="2"
     inkscape:pageopacity="0.0"
     inkscape:pagecheckerboard="0"
     inkscape:deskcolor="#d1d1d1"
     showgrid="false"
     inkscape:zoom="49.625"
     inkscape:cx="8.0100756"
     inkscape:cy="8.0100756"
     inkscape:window-width="2560"
     inkscape:window-height="1023"
     inkscape:window-x="0"
     inkscape:window-y="0"
     inkscape:window-maximized="1"
     inkscape:current-layer="svg8" />
  <g
     fill="#222222"
     id="g6"
     style="fill:#f2f2f2">
    <path
       d="m 2.96875 2.972656 c -0.535156 0 -0.96875 0.433594 -0.96875 0.96875 v 5.871094 c 0 0.078125 0.007812 0.152344 0.027344 0.21875 c 0.265625 2.796875 2.605468 4.96875 5.472656 4.96875 h 1 c 2.867188 0 5.207031 -2.171875 5.472656 -4.96875 c 0.019532 -0.066406 0.027344 -0.140625 0.027344 -0.21875 v -5.871094 c 0 -0.535156 -0.433594 -0.96875 -0.96875 -0.96875 z m 5 1.027344 h 0.0625 c 0.535156 0 0.96875 0.429688 0.96875 0.96875 v 3.0625 c 0 0.535156 -0.433594 0.96875 -0.96875 0.96875 h -0.0625 c -0.535156 0 -0.96875 -0.433594 -0.96875 -0.96875 v -3.0625 c 0 -0.539062 0.433594 -0.96875 0.96875 -0.96875 z m 0 6 h 0.0625 c 0.535156 0 0.96875 0.429688 0.96875 0.96875 v 0.0625 c 0 0.535156 -0.433594 0.96875 -0.96875 0.96875 h -0.0625 c -0.535156 0 -0.96875 -0.433594 -0.96875 -0.96875 v -0.0625 c 0 -0.539062 0.433594 -0.96875 0.96875 -0.96875 z m 0 0"
       id="path2"
       style="fill:#f2f2f2" />
    <path
       d="m 6.5 0.402344 c -0.929688 0.535156 -1.5 1.527344 -1.5 2.597656 h 6 c 0 -1.070312 -0.570312 -2.0625 -1.5 -2.597656 s -2.070312 -0.535156 -3 0 z m -6 4.597656 c -0.277344 0 -0.5 0.222656 -0.5 0.5 s 0.222656 0.5 0.5 0.5 h 2 c 0.277344 0 0.5 -0.222656 0.5 -0.5 s -0.222656 -0.5 -0.5 -0.5 z m 13 0 c -0.277344 0 -0.5 0.222656 -0.5 0.5 s 0.222656 0.5 0.5 0.5 h 2 c 0.277344 0 0.5 -0.222656 0.5 -0.5 s -0.222656 -0.5 -0.5 -0.5 z m -13 2 c -0.277344 0 -0.5 0.222656 -0.5 0.5 s 0.222656 0.5 0.5 0.5 h 2 c 0.277344 0 0.5 -0.222656 0.5 -0.5 s -0.222656 -0.5 -0.5 -0.5 z m 13 0 c -0.277344 0 -0.5 0.222656 -0.5 0.5 s 0.222656 0.5 0.5 0.5 h 2 c 0.277344 0 0.5 -0.222656 0.5 -0.5 s -0.222656 -0.5 -0.5 -0.5 z m -13 2 c -0.277344 0 -0.5 0.222656 -0.5 0.5 s 0.222656 0.5 0.5 0.5 h 2 c 0.277344 0 0.5 -0.222656 0.5 -0.5 s -0.222656 -0.5 -0.5 -0.5 z m 13 0 c -0.277344 0 -0.5 0.222656 -0.5 0.5 s 0.222656 0.5 0.5 0.5 h 2 c 0.277344 0 0.5 -0.222656 0.5 -0.5 s -0.222656 -0.5 -0.5 -0.5 z m 0 0"
       id="path4"
       style="fill:#f2f2f2" />
  </g>
</svg>
