<?xml version="1.0" encoding="UTF-8" standalone="no"?>
<svg
   height="16px"
   viewBox="0 0 16 16"
   width="16px"
   version="1.1"
   id="svg8"
   sodipodi:docname="clock-alt-symbolic.svg"
   inkscape:version="1.2.1 (9c6d41e410, 2022-07-14)"
   xmlns:inkscape="http://www.inkscape.org/namespaces/inkscape"
   xmlns:sodipodi="http://sodipodi.sourceforge.net/DTD/sodipodi-0.dtd"
   xmlns="http://www.w3.org/2000/svg"
   xmlns:svg="http://www.w3.org/2000/svg">
  <defs
     id="defs12" />
  <sodipodi:namedview
     id="namedview10"
     pagecolor="#ffffff"
     bordercolor="#666666"
     borderopacity="1.0"
     inkscape:showpageshadow="2"
     inkscape:pageopacity="0.0"
     inkscape:pagecheckerboard="0"
     inkscape:deskcolor="#d1d1d1"
     showgrid="false"
     inkscape:zoom="49.625"
     inkscape:cx="8.0100756"
     inkscape:cy="8.0100756"
     inkscape:window-width="2560"
     inkscape:window-height="1023"
     inkscape:window-x="0"
     inkscape:window-y="0"
     inkscape:window-maximized="1"
     inkscape:current-layer="svg8" />
  <g
     fill="#222222"
     id="g6"
     style="fill:#f2f2f2">
    <path
       d="m 8 0 c -4.40625 0 -8 3.59375 -8 8 s 3.59375 8 8 8 s 8 -3.59375 8 -8 s -3.59375 -8 -8 -8 z m 0 2 c 3.324219 0 6 2.675781 6 6 s -2.675781 6 -6 6 s -6 -2.675781 -6 -6 s 2.675781 -6 6 -6 z m 0 0"
       id="path2"
       style="fill:#f2f2f2" />
    <path
       d="m 4.929688 4.953125 c -0.128907 0.003906 -0.257813 0.058594 -0.351563 0.152344 c -0.191406 0.195312 -0.1875 0.511719 0.007813 0.707031 l 3.113281 3.042969 c 0.105469 0.097656 0.246093 0.144531 0.386719 0.128906 h 2.914062 c 0.277344 0 0.5 -0.222656 0.5 -0.5 c 0 -0.273437 -0.222656 -0.5 -0.5 -0.5 h -2.761719 l -2.953125 -2.886719 c -0.09375 -0.09375 -0.222656 -0.144531 -0.355468 -0.144531 z m 0 0"
       id="path4"
       style="fill:#f2f2f2" />
  </g>
</svg>
