<?xml version="1.0" encoding="UTF-8" standalone="no"?>
<svg
   viewBox="0 0 16 16"
   version="1.1"
   id="svg1"
   sodipodi:docname="color-picker-symbolic.svg"
   inkscape:version="1.3.2 (091e20ef0f, 2023-11-25, custom)"
   xmlns:inkscape="http://www.inkscape.org/namespaces/inkscape"
   xmlns:sodipodi="http://sodipodi.sourceforge.net/DTD/sodipodi-0.dtd"
   xmlns="http://www.w3.org/2000/svg"
   xmlns:svg="http://www.w3.org/2000/svg">
  <defs
     id="defs1" />
  <sodipodi:namedview
     id="namedview1"
     pagecolor="#ffffff"
     bordercolor="#666666"
     borderopacity="1.0"
     inkscape:showpageshadow="2"
     inkscape:pageopacity="0.0"
     inkscape:pagecheckerboard="0"
     inkscape:deskcolor="#d1d1d1"
     inkscape:zoom="50.5"
     inkscape:cx="7.990099"
     inkscape:cy="8"
     inkscape:window-width="2560"
     inkscape:window-height="1023"
     inkscape:window-x="0"
     inkscape:window-y="0"
     inkscape:window-maximized="1"
     inkscape:current-layer="svg1" />
  <style
     type="text/css"
     id="current-color-scheme">.ColorScheme-Text { color: #fcfcfc; } </style>
  <path
     d="m12.5 2c-.397802.0000601-.779289.1581347-1.060547.4394531l-1.9999999 2-.9394531-.9394531-1 1 .6464844.6464844-4.5898438 4.5898437c-.3716796.3716799-.5566407.8625979-.5566406 1.3535159v.910156l-1.5 1.5 1 1 1.5-1.5h.9101562c.490918 0 .9818361-.184962 1.3535157-.556641l4.5898441-4.5898434.646484.6464844 1-1-.939453-.9394531 2-2c.281318-.2812583.439393-.6627452.439453-1.0605469v-.5c0-.5522847-.447715-1-1-1zm-3.6464844 3.8535156 1.2929684 1.2929688-2.8535152 2.8535156h-2.5859376z"
     class="ColorScheme-Text"
     fill="currentColor"
     id="path1"
     style="fill:#f2f2f2" />
</svg>
