<?xml version="1.0" encoding="UTF-8" standalone="no"?>
<svg
   height="16px"
   viewBox="0 0 16 16"
   width="16px"
   version="1.1"
   id="svg6"
   sodipodi:docname="encoder-knob-symbolic.svg"
   inkscape:version="1.3.2 (091e20ef0f, 2023-11-25, custom)"
   xmlns:inkscape="http://www.inkscape.org/namespaces/inkscape"
   xmlns:sodipodi="http://sodipodi.sourceforge.net/DTD/sodipodi-0.dtd"
   xmlns="http://www.w3.org/2000/svg"
   xmlns:svg="http://www.w3.org/2000/svg">
  <defs
     id="defs6" />
  <sodipodi:namedview
     id="namedview6"
     pagecolor="#ffffff"
     bordercolor="#666666"
     borderopacity="1.0"
     inkscape:showpageshadow="2"
     inkscape:pageopacity="0.0"
     inkscape:pagecheckerboard="0"
     inkscape:deskcolor="#d1d1d1"
     inkscape:zoom="50.5"
     inkscape:cx="7.990099"
     inkscape:cy="8"
     inkscape:window-width="2560"
     inkscape:window-height="1023"
     inkscape:window-x="0"
     inkscape:window-y="0"
     inkscape:window-maximized="1"
     inkscape:current-layer="svg6" />
  <g
     fill="#222222"
     id="g6"
     style="fill:#f2f2f2">
    <path
       d="m 8.003906 14 c -2.207031 0 -4 -1.796875 -4 -4 s 1.792969 -4 4 -4 c 2.203125 0 4 1.796875 4 4 s -1.796875 4 -4 4 z m 0 -10 c -3.320312 0 -6 2.679688 -6 6 s 2.679688 6 6 6 c 3.316406 0 6 -2.679688 6 -6 s -2.683594 -6 -6 -6 z m 0 0"
       id="path1"
       style="fill:#f2f2f2" />
    <path
       d="m 5.257812 7.039062 l 2.226563 3.292969 c 0.152344 0.226563 0.464844 0.289063 0.695313 0.132813 c 0.226562 -0.152344 0.289062 -0.464844 0.132812 -0.695313 l -2.226562 -3.292969 c -0.152344 -0.226562 -0.464844 -0.289062 -0.691407 -0.132812 c -0.230469 0.15625 -0.289062 0.464844 -0.136719 0.695312 z m 0 0"
       id="path2"
       style="fill:#f2f2f2" />
    <path
       d="m 2.003906 4.984375 c 0 0.542969 -0.441406 0.984375 -0.984375 0.984375 s -0.9843748 -0.441406 -0.9843748 -0.984375 s 0.4414058 -0.984375 0.9843748 -0.984375 s 0.984375 0.441406 0.984375 0.984375 z m 0 0"
       id="path3"
       style="fill:#f2f2f2" />
    <path
       d="m 6.003906 1.015625 c 0 0.542969 -0.441406 0.984375 -0.984375 0.984375 s -0.984375 -0.441406 -0.984375 -0.984375 s 0.441406 -0.984375 0.984375 -0.984375 s 0.984375 0.441406 0.984375 0.984375 z m 0 0"
       id="path4"
       style="fill:#f2f2f2" />
    <path
       d="m 12.003906 1.015625 c 0 0.542969 -0.441406 0.984375 -0.984375 0.984375 s -0.984375 -0.441406 -0.984375 -0.984375 s 0.441406 -0.984375 0.984375 -0.984375 s 0.984375 0.441406 0.984375 0.984375 z m 0 0"
       id="path5"
       style="fill:#f2f2f2" />
    <path
       d="m 16.003906 4.984375 c 0 0.542969 -0.441406 0.984375 -0.984375 0.984375 s -0.984375 -0.441406 -0.984375 -0.984375 s 0.441406 -0.984375 0.984375 -0.984375 s 0.984375 0.441406 0.984375 0.984375 z m 0 0"
       id="path6"
       style="fill:#f2f2f2" />
  </g>
</svg>
