<?xml version="1.0" encoding="UTF-8" standalone="no"?>
<svg
   height="16px"
   viewBox="0 0 16 16"
   width="16px"
   version="1.1"
   id="svg8"
   sodipodi:docname="funnel-outline-symbolic.svg"
   inkscape:version="1.2.1 (9c6d41e410, 2022-07-14)"
   xmlns:inkscape="http://www.inkscape.org/namespaces/inkscape"
   xmlns:sodipodi="http://sodipodi.sourceforge.net/DTD/sodipodi-0.dtd"
   xmlns="http://www.w3.org/2000/svg"
   xmlns:svg="http://www.w3.org/2000/svg">
  <defs
     id="defs12" />
  <sodipodi:namedview
     id="namedview10"
     pagecolor="#ffffff"
     bordercolor="#666666"
     borderopacity="1.0"
     inkscape:showpageshadow="2"
     inkscape:pageopacity="0.0"
     inkscape:pagecheckerboard="0"
     inkscape:deskcolor="#d1d1d1"
     showgrid="false"
     inkscape:zoom="49.625"
     inkscape:cx="8.0100756"
     inkscape:cy="8.0100756"
     inkscape:window-width="2560"
     inkscape:window-height="1023"
     inkscape:window-x="0"
     inkscape:window-y="0"
     inkscape:window-maximized="1"
     inkscape:current-layer="svg8" />
  <g
     fill="#222222"
     id="g6"
     style="fill:#f2f2f2">
    <path
       d="m 1.042969 0 c -0.8125 0 -1.285157 0.917969 -0.8125 1.582031 l 4.769531 6.738281 v 6.636719 c 0 0.742188 0.78125 1.226563 1.449219 0.894531 l 4 -2 c 0.335937 -0.171874 0.550781 -0.515624 0.550781 -0.894531 v -4.636719 l 4.8125 -6.738281 c 0.476562 -0.664062 0 -1.582031 -0.8125 -1.582031 z m 1.902343 2 h 10.109376 l -3.867188 5.417969 c -0.121094 0.167969 -0.1875 0.375 -0.1875 0.582031 v 4.339844 l -2 1 v -5.339844 c 0 -0.207031 -0.066406 -0.414062 -0.1875 -0.582031 z m 0 0"
       id="path2"
       style="fill:#f2f2f2" />
    <path
       d="m 3.859375 5 l 2.140625 3 v 7 l 4 -2 v -5 l 2.144531 -3 z m 0 0"
       fill-opacity="0.34902"
       id="path4"
       style="fill:#f2f2f2" />
  </g>
</svg>
