<?xml version="1.0" encoding="UTF-8" standalone="no"?>
<svg
   height="16px"
   viewBox="0 0 16 16"
   width="16px"
   version="1.1"
   id="svg12"
   sodipodi:docname="headphones-symbolic.svg"
   inkscape:version="1.3.2 (091e20ef0f, 2023-11-25, custom)"
   xmlns:inkscape="http://www.inkscape.org/namespaces/inkscape"
   xmlns:sodipodi="http://sodipodi.sourceforge.net/DTD/sodipodi-0.dtd"
   xmlns="http://www.w3.org/2000/svg"
   xmlns:svg="http://www.w3.org/2000/svg">
  <defs
     id="defs12" />
  <sodipodi:namedview
     id="namedview12"
     pagecolor="#ffffff"
     bordercolor="#666666"
     borderopacity="1.0"
     inkscape:showpageshadow="2"
     inkscape:pageopacity="0.0"
     inkscape:pagecheckerboard="0"
     inkscape:deskcolor="#d1d1d1"
     inkscape:zoom="50.5"
     inkscape:cx="7.990099"
     inkscape:cy="8"
     inkscape:window-width="2560"
     inkscape:window-height="1023"
     inkscape:window-x="0"
     inkscape:window-y="0"
     inkscape:window-maximized="1"
     inkscape:current-layer="svg12" />
  <filter
     id="a"
     height="1"
     width="1"
     x="0"
     y="0">
    <feColorMatrix
       color-interpolation-filters="sRGB"
       values="0 0 0 0 1 0 0 0 0 1 0 0 0 0 1 0 0 0 1 0"
       id="feColorMatrix1" />
  </filter>
  <mask
     id="b">
    <g
       filter="url(#a)"
       id="g1">
      <path
         d="m -1.6 -1.6 h 19.2 v 19.2 h -19.2 z"
         fill-opacity="0.5"
         id="path1" />
    </g>
  </mask>
  <clipPath
     id="c">
    <path
       d="m 0 0 h 1600 v 1200 h -1600 z"
       id="path2" />
  </clipPath>
  <mask
     id="d">
    <g
       filter="url(#a)"
       id="g3">
      <path
         d="m -1.6 -1.6 h 19.2 v 19.2 h -19.2 z"
         fill-opacity="0.7"
         id="path3" />
    </g>
  </mask>
  <clipPath
     id="e">
    <path
       d="m 0 0 h 1600 v 1200 h -1600 z"
       id="path4" />
  </clipPath>
  <mask
     id="f">
    <g
       filter="url(#a)"
       id="g5">
      <path
         d="m -1.6 -1.6 h 19.2 v 19.2 h -19.2 z"
         fill-opacity="0.35"
         id="path5" />
    </g>
  </mask>
  <clipPath
     id="g">
    <path
       d="m 0 0 h 1600 v 1200 h -1600 z"
       id="path6" />
  </clipPath>
  <g
     mask="url(#b)"
     id="g8"
     style="fill:#f2f2f2">
    <g
       clip-path="url(#c)"
       transform="matrix(1 0 0 1 -40 -356)"
       id="g7"
       style="fill:#f2f2f2">
      <path
         d="m 550 182 c -0.351562 0.003906 -0.695312 0.101562 -1 0.28125 v 3.4375 c 0.304688 0.179688 0.648438 0.277344 1 0.28125 c 1.105469 0 2 -0.894531 2 -2 s -0.894531 -2 -2 -2 z m 0 5 c -0.339844 0 -0.679688 0.058594 -1 0.175781 v 6.824219 h 4 v -4 c 0 -1.65625 -1.34375 -3 -3 -3 z m 0 0"
         id="path7"
         style="fill:#f2f2f2" />
    </g>
  </g>
  <g
     mask="url(#d)"
     id="g10"
     style="fill:#f2f2f2">
    <g
       clip-path="url(#e)"
       transform="matrix(1 0 0 1 -40 -356)"
       id="g9"
       style="fill:#f2f2f2">
      <path
         d="m 569 182 v 4 c 1.105469 0 2 -0.894531 2 -2 s -0.894531 -2 -2 -2 z m 0 5 v 7 h 3 v -4 c 0 -1.65625 -1.34375 -3 -3 -3 z m 0 0"
         id="path8"
         style="fill:#f2f2f2" />
    </g>
  </g>
  <g
     mask="url(#f)"
     id="g12"
     style="fill:#f2f2f2">
    <g
       clip-path="url(#g)"
       transform="matrix(1 0 0 1 -40 -356)"
       id="g11"
       style="fill:#f2f2f2">
      <path
         d="m 573 182.269531 v 3.449219 c 0.613281 -0.355469 0.996094 -1.007812 1 -1.71875 c 0 -0.714844 -0.382812 -1.375 -1 -1.730469 z m 0 4.90625 v 6.824219 h 2 v -4 c 0 -1.269531 -0.800781 -2.402344 -2 -2.824219 z m 0 0"
         id="path10"
         style="fill:#f2f2f2" />
    </g>
  </g>
  <path
     d="m 8.21875 1 c -3.304688 0 -6.023438 3.007812 -5.96875 5.71875 c 0.046875 2.367188 0.808594 4.695312 1 5.28125 h 0.003906 l 0.488282 1.613281 c 0.300781 0.988281 1.304687 1.558594 2.253906 1.28125 c 0.945312 -0.273437 1.46875 -1.292969 1.171875 -2.28125 l -0.675781 -2.226562 c -0.300782 -0.984375 -1.304688 -1.558594 -2.253907 -1.28125 c -0.113281 0.03125 -0.222656 0.078125 -0.320312 0.132812 c -0.226563 -1.339843 -0.191407 -2.394531 -0.191407 -2.394531 c 0 -2.371094 2.007813 -4.3125 4.492188 -4.3125 s 4.5 1.828125 4.492188 4.28125 c -0.011719 0.882812 -0.066407 1.585938 -0.230469 2.414062 c -0.074219 -0.03125 -0.140625 -0.066406 -0.214844 -0.089843 c -0.949219 -0.273438 -1.957031 0.296875 -2.253906 1.28125 l -0.675781 2.226562 c -0.300782 0.988281 0.222656 2.007813 1.171874 2.285157 c 0.945313 0.277343 1.953126 -0.292969 2.253907 -1.28125 l 0.496093 -1.648438 h 0.019532 c 0.222656 -0.644531 0.972656 -3.191406 0.972656 -5.28125 c 0 -2.828125 -2.726562 -5.71875 -6.03125 -5.71875 z m 0 0"
     fill="#222222"
     id="path12"
     style="fill:#f2f2f2" />
</svg>
