<?xml version="1.0" encoding="UTF-8" standalone="no"?>
<svg
   height="16px"
   viewBox="0 0 16 16"
   width="16px"
   version="1.1"
   id="svg2"
   sodipodi:docname="media-seek-backward-symbolic.svg"
   inkscape:version="1.3.2 (091e20ef0f, 2023-11-25, custom)"
   xmlns:inkscape="http://www.inkscape.org/namespaces/inkscape"
   xmlns:sodipodi="http://sodipodi.sourceforge.net/DTD/sodipodi-0.dtd"
   xmlns="http://www.w3.org/2000/svg"
   xmlns:svg="http://www.w3.org/2000/svg">
  <defs
     id="defs2" />
  <sodipodi:namedview
     id="namedview2"
     pagecolor="#ffffff"
     bordercolor="#666666"
     borderopacity="1.0"
     inkscape:showpageshadow="2"
     inkscape:pageopacity="0.0"
     inkscape:pagecheckerboard="0"
     inkscape:deskcolor="#d1d1d1"
     inkscape:zoom="50.5"
     inkscape:cx="7.990099"
     inkscape:cy="8"
     inkscape:window-width="2560"
     inkscape:window-height="1023"
     inkscape:window-x="0"
     inkscape:window-y="0"
     inkscape:window-maximized="1"
     inkscape:current-layer="svg2" />
  <g
     fill="#2e3436"
     id="g2"
     style="fill:#f2f2f2">
    <path
       d="m 7 4.003906 c -0.179688 -0.003906 -0.359375 0.046875 -0.515625 0.140625 l -5 3 c -0.648437 0.386719 -0.648437 1.328125 0 1.714844 l 5 3 c 0.15625 0.09375 0.335937 0.140625 0.515625 0.140625 v 0.003906 c 1 -0.003906 1 -1 1 -1 v -6 s 0.003906 -1 -1 -1 z m 0 0"
       id="path1"
       style="fill:#f2f2f2" />
    <path
       d="m 14 4.003906 c -0.179688 -0.003906 -0.359375 0.046875 -0.515625 0.140625 l -5 3 c -0.648437 0.386719 -0.648437 1.328125 0 1.714844 l 5 3 c 0.15625 0.09375 0.335937 0.140625 0.515625 0.140625 v 0.003906 c 1 -0.003906 1 -1 1 -1 v -6 s 0.003906 -1 -1 -1 z m 0 0"
       id="path2"
       style="fill:#f2f2f2" />
  </g>
</svg>
