<?xml version="1.0" encoding="UTF-8" standalone="no"?>
<svg
   height="16px"
   viewBox="0 0 16 16"
   width="16px"
   version="1.1"
   id="svg4"
   sodipodi:docname="newspaper-symbolic.svg"
   inkscape:version="1.2.1 (9c6d41e410, 2022-07-14)"
   xmlns:inkscape="http://www.inkscape.org/namespaces/inkscape"
   xmlns:sodipodi="http://sodipodi.sourceforge.net/DTD/sodipodi-0.dtd"
   xmlns="http://www.w3.org/2000/svg"
   xmlns:svg="http://www.w3.org/2000/svg">
  <defs
     id="defs8" />
  <sodipodi:namedview
     id="namedview6"
     pagecolor="#ffffff"
     bordercolor="#666666"
     borderopacity="1.0"
     inkscape:showpageshadow="2"
     inkscape:pageopacity="0.0"
     inkscape:pagecheckerboard="0"
     inkscape:deskcolor="#d1d1d1"
     showgrid="false"
     inkscape:zoom="49.625"
     inkscape:cx="8.0100756"
     inkscape:cy="8.0100756"
     inkscape:window-width="2560"
     inkscape:window-height="1023"
     inkscape:window-x="0"
     inkscape:window-y="0"
     inkscape:window-maximized="1"
     inkscape:current-layer="svg4" />
  <path
     d="m 0 0 v 12 c 0 2.199219 1.800781 4 4 4 h 9 v -0.039062 c 1.71875 -0.246094 3.039062 -1.761719 3 -3.535157 v -8.425781 h -5 v -4 z m 2 2 h 7 v 10.445312 c 0 0.558594 0.136719 1.082032 0.367188 1.554688 h -5.367188 c -1.117188 0 -2 -0.882812 -2 -2 z m 1 1 v 2 h 5 v -2 z m 0 3 v 1 h 5 v -1 z m 8 0 h 3 v 6.46875 c 0.019531 0.835938 -0.621094 1.503906 -1.457031 1.527344 c -0.863281 -0.007813 -1.542969 -0.683594 -1.542969 -1.550782 z m -8 2 v 1 h 5 v -1 z m 0 2 v 1 h 5 v -1 z m 0 0"
     fill="#222222"
     id="path2"
     style="fill:#f2f2f2" />
</svg>
