<?xml version="1.0" encoding="UTF-8" standalone="no"?>
<svg
   height="16px"
   viewBox="0 0 16 16"
   width="16px"
   version="1.1"
   id="svg4"
   sodipodi:docname="normalize-symbolic.svg"
   inkscape:version="1.3.2 (091e20ef0f, 2023-11-25, custom)"
   xmlns:inkscape="http://www.inkscape.org/namespaces/inkscape"
   xmlns:sodipodi="http://sodipodi.sourceforge.net/DTD/sodipodi-0.dtd"
   xmlns="http://www.w3.org/2000/svg"
   xmlns:svg="http://www.w3.org/2000/svg">
  <defs
     id="defs4" />
  <sodipodi:namedview
     id="namedview4"
     pagecolor="#ffffff"
     bordercolor="#666666"
     borderopacity="1.0"
     inkscape:showpageshadow="2"
     inkscape:pageopacity="0.0"
     inkscape:pagecheckerboard="0"
     inkscape:deskcolor="#d1d1d1"
     inkscape:zoom="50.5"
     inkscape:cx="7.990099"
     inkscape:cy="8"
     inkscape:window-width="2560"
     inkscape:window-height="1023"
     inkscape:window-x="0"
     inkscape:window-y="0"
     inkscape:window-maximized="1"
     inkscape:current-layer="svg4" />
  <g
     fill="#222222"
     id="g4"
     style="fill:#f2f2f2">
    <path
       d="m 2.992188 12.125 l 0.875 -7.007812 c 0.007812 -0.058594 0.074218 -0.117188 0.132812 -0.117188 c 0.085938 0 0.164062 0.0625 0.179688 0.152344 l 0.667968 4.027344 c 0.175782 1.050781 1.085938 1.820312 2.152344 1.820312 c 1.046875 0 1.957031 -0.710938 2.210938 -1.726562 l 0.515624 -2.0625 c 0.03125 -0.121094 0.148438 -0.210938 0.273438 -0.210938 c 0.085938 0 0.164062 0.0625 0.179688 0.152344 l 0.667968 4.027344 c 0.175782 1.050781 1.085938 1.820312 2.152344 1.820312 c 1.058594 0 1.96875 -0.746094 2.175781 -1.785156 l 0.804688 -4.019532 c 0.109375 -0.539062 -0.242188 -1.066406 -0.785157 -1.175781 c -0.539062 -0.109375 -1.066406 0.242188 -1.175781 0.785157 l -0.804687 4.019531 c -0.019532 0.101562 -0.109375 0.175781 -0.214844 0.175781 c -0.085938 0 -0.164062 -0.0625 -0.179688 -0.152344 l -0.667968 -4.027344 c -0.175782 -1.050781 -1.085938 -1.820312 -2.152344 -1.820312 c -1.046875 0 -1.957031 0.710938 -2.210938 1.726562 l -0.515624 2.0625 c -0.03125 0.121094 -0.148438 0.210938 -0.273438 0.210938 c -0.085938 0 -0.164062 -0.0625 -0.179688 -0.152344 l -0.667968 -4.027344 c -0.175782 -1.050781 -1.085938 -1.820312 -2.152344 -1.820312 c -1.082031 0 -1.980469 0.792969 -2.117188 1.867188 l -0.875 7.007812 c -0.070312 0.550781 0.320313 1.050781 0.867188 1.117188 c 0.550781 0.070312 1.050781 -0.320313 1.117188 -0.867188 z m 0 0"
       id="path1"
       style="fill:#f2f2f2" />
    <g
       fill-rule="evenodd"
       id="g3"
       style="fill:#f2f2f2">
      <path
         d="m 13 13 h 2 v 2 h -2 z m -4 0 h 2 v 2 h -2 z m -4 0 h 2 v 2 h -2 z m -4 0 h 2 v 2 h -2 z m 0 0"
         id="path2"
         style="fill:#f2f2f2" />
      <path
         d="m 13 1 h 2 v 2 h -2 z m -4 0 h 2 v 2 h -2 z m -4 0 h 2 v 2 h -2 z m -4 0 h 2 v 2 h -2 z m 0 0"
         id="path3"
         style="fill:#f2f2f2" />
    </g>
  </g>
</svg>
