<?xml version="1.0" encoding="UTF-8"?>
<svg xmlns="http://www.w3.org/2000/svg" xmlns:xlink="http://www.w3.org/1999/xlink" height="16px" viewBox="0 0 16 16" width="16px"><filter id="a" height="100%" width="100%" x="0%" y="0%"><feColorMatrix color-interpolation-filters="sRGB" values="0 0 0 0 1 0 0 0 0 1 0 0 0 0 1 0 0 0 1 0"/></filter><mask id="b"><g filter="url(#a)"><path d="m -1.6 -1.6 h 19.2 v 19.2 h -19.2 z" fill-opacity="0.5"/></g></mask><clipPath id="c"><path d="m 0 0 h 1600 v 1200 h -1600 z"/></clipPath><mask id="d"><g filter="url(#a)"><path d="m -1.6 -1.6 h 19.2 v 19.2 h -19.2 z" fill-opacity="0.7"/></g></mask><clipPath id="e"><path d="m 0 0 h 1600 v 1200 h -1600 z"/></clipPath><mask id="f"><g filter="url(#a)"><path d="m -1.6 -1.6 h 19.2 v 19.2 h -19.2 z" fill-opacity="0.35"/></g></mask><clipPath id="g"><path d="m 0 0 h 1600 v 1200 h -1600 z"/></clipPath><g mask="url(#b)"><g clip-path="url(#c)" transform="matrix(1 0 0 1 -336 -936)"><path d="m 550 182 c -0.351562 0.003906 -0.695312 0.101562 -1 0.28125 v 3.4375 c 0.304688 0.179688 0.648438 0.277344 1 0.28125 c 1.105469 0 2 -0.894531 2 -2 s -0.894531 -2 -2 -2 z m 0 5 c -0.339844 0 -0.679688 0.058594 -1 0.175781 v 6.824219 h 4 v -4 c 0 -1.65625 -1.34375 -3 -3 -3 z m 0 0"/></g></g><g mask="url(#d)"><g clip-path="url(#e)" transform="matrix(1 0 0 1 -336 -936)"><path d="m 569 182 v 4 c 1.105469 0 2 -0.894531 2 -2 s -0.894531 -2 -2 -2 z m 0 5 v 7 h 3 v -4 c 0 -1.65625 -1.34375 -3 -3 -3 z m 0 0"/></g></g><g mask="url(#f)"><g clip-path="url(#g)" transform="matrix(1 0 0 1 -336 -936)"><path d="m 573 182.269531 v 3.449219 c 0.613281 -0.355469 0.996094 -1.007812 1 -1.71875 c 0 -0.714844 -0.382812 -1.375 -1 -1.730469 z m 0 4.90625 v 6.824219 h 2 v -4 c 0 -1.269531 -0.800781 -2.402344 -2 -2.824219 z m 0 0"/></g></g><path d="m 2.992188 12.125 l 0.875 -7.007812 c 0.007812 -0.058594 0.074218 -0.117188 0.132812 -0.117188 c 0.085938 0 0.164062 0.0625 0.179688 0.152344 l 0.667968 4.027344 c 0.175782 1.050781 1.085938 1.820312 2.152344 1.820312 c 1.046875 0 1.957031 -0.710938 2.210938 -1.726562 l 0.515624 -2.0625 c 0.03125 -0.121094 0.148438 -0.210938 0.273438 -0.210938 c 0.085938 0 0.164062 0.0625 0.179688 0.152344 l 0.667968 4.027344 c 0.175782 1.050781 1.085938 1.820312 2.152344 1.820312 c 1.058594 0 1.96875 -0.746094 2.175781 -1.785156 l 0.804688 -4.019532 c 0.109375 -0.539062 -0.242188 -1.066406 -0.785157 -1.175781 c -0.539062 -0.109375 -1.066406 0.242188 -1.175781 0.785157 l -0.804687 4.019531 c -0.019532 0.101562 -0.109375 0.175781 -0.214844 0.175781 c -0.085938 0 -0.164062 -0.0625 -0.179688 -0.152344 l -0.667968 -4.027344 c -0.175782 -1.050781 -1.085938 -1.820312 -2.152344 -1.820312 c -1.046875 0 -1.957031 0.710938 -2.210938 1.726562 l -0.515624 2.0625 c -0.03125 0.121094 -0.148438 0.210938 -0.273438 0.210938 c -0.085938 0 -0.164062 -0.0625 -0.179688 -0.152344 l -0.667968 -4.027344 c -0.175782 -1.050781 -1.085938 -1.820312 -2.152344 -1.820312 c -1.082031 0 -1.980469 0.792969 -2.117188 1.867188 l -0.875 7.007812 c -0.070312 0.550781 0.320313 1.050781 0.867188 1.117188 c 0.550781 0.070312 1.050781 -0.320313 1.117188 -0.867188 z m 0 0"/><g fill="#222222" fill-rule="evenodd"><path d="m 13 13 h 2 v 2 h -2 z m -4 0 h 2 v 2 h -2 z m -4 0 h 2 v 2 h -2 z m -4 0 h 2 v 2 h -2 z m 0 0"/><path d="m 13 1 h 2 v 2 h -2 z m -4 0 h 2 v 2 h -2 z m -4 0 h 2 v 2 h -2 z m -4 0 h 2 v 2 h -2 z m 0 0"/></g></svg>
