<?xml version="1.0" encoding="UTF-8" standalone="no"?>
<svg
   height="16px"
   viewBox="0 0 16 16"
   width="16px"
   version="1.1"
   id="svg14"
   sodipodi:docname="processor-symbolic.svg"
   inkscape:version="1.3.2 (091e20ef0f, 2023-11-25, custom)"
   xmlns:inkscape="http://www.inkscape.org/namespaces/inkscape"
   xmlns:sodipodi="http://sodipodi.sourceforge.net/DTD/sodipodi-0.dtd"
   xmlns="http://www.w3.org/2000/svg"
   xmlns:svg="http://www.w3.org/2000/svg">
  <defs
     id="defs14" />
  <sodipodi:namedview
     id="namedview14"
     pagecolor="#ffffff"
     bordercolor="#666666"
     borderopacity="1.0"
     inkscape:showpageshadow="2"
     inkscape:pageopacity="0.0"
     inkscape:pagecheckerboard="0"
     inkscape:deskcolor="#d1d1d1"
     inkscape:zoom="50.5"
     inkscape:cx="7.990099"
     inkscape:cy="8"
     inkscape:window-width="2560"
     inkscape:window-height="1023"
     inkscape:window-x="0"
     inkscape:window-y="0"
     inkscape:window-maximized="1"
     inkscape:current-layer="svg14" />
  <g
     fill="#222222"
     id="g14"
     style="fill:#000000">
    <path
       d="m 5 5 h 6 v 6 h -6 z m 0 0"
       id="path1"
       style="fill:#000000" />
    <path
       d="m 13 5 h 3 v 1 h -3 z m 0 0"
       id="path2"
       style="fill:#000000" />
    <path
       d="m 13 7 h 3 v 1 h -3 z m 0 0"
       id="path3"
       style="fill:#000000" />
    <path
       d="m 13 9 h 3 v 1 h -3 z m 0 0"
       id="path4"
       style="fill:#000000" />
    <path
       d="m 0 6 h 3 v 1 h -3 z m 0 0"
       id="path5"
       style="fill:#000000" />
    <path
       d="m 0 8 h 3 v 1 h -3 z m 0 0"
       id="path6"
       style="fill:#000000" />
    <path
       d="m 0 10 h 3 v 1 h -3 z m 0 0"
       id="path7"
       style="fill:#000000" />
    <path
       d="m 5 0 h 1 v 3 h -1 z m 0 0"
       id="path8"
       style="fill:#000000" />
    <path
       d="m 7 0 h 1 v 3 h -1 z m 0 0"
       id="path9"
       style="fill:#000000" />
    <path
       d="m 9 0 h 1 v 3 h -1 z m 0 0"
       id="path10"
       style="fill:#000000" />
    <path
       d="m 10 13 h 1 v 3 h -1 z m 0 0"
       id="path11"
       style="fill:#000000" />
    <path
       d="m 8 13 h 1 v 3 h -1 z m 0 0"
       id="path12"
       style="fill:#000000" />
    <path
       d="m 6 13 h 1 v 3 h -1 z m 0 0"
       id="path13"
       style="fill:#000000" />
    <path
       d="m 5 2 c -1.644531 0 -3 1.355469 -3 3 v 6 c 0 1.644531 1.355469 3 3 3 h 6 c 1.644531 0 3 -1.355469 3 -3 v -6 c 0 -1.644531 -1.355469 -3 -3 -3 z m 0 2 h 6 c 0.570312 0 1 0.429688 1 1 v 6 c 0 0.570312 -0.429688 1 -1 1 h -6 c -0.570312 0 -1 -0.429688 -1 -1 v -6 c 0 -0.570312 0.429688 -1 1 -1 z m 0 0"
       id="path14"
       style="fill:#000000" />
  </g>
</svg>
