<?xml version="1.0" encoding="UTF-8" standalone="no"?>
<svg
   height="16px"
   viewBox="0 0 16 16"
   width="16px"
   version="1.1"
   id="svg1"
   sodipodi:docname="starred-symbolic.svg"
   inkscape:version="1.3.2 (091e20ef0f, 2023-11-25, custom)"
   xmlns:inkscape="http://www.inkscape.org/namespaces/inkscape"
   xmlns:sodipodi="http://sodipodi.sourceforge.net/DTD/sodipodi-0.dtd"
   xmlns="http://www.w3.org/2000/svg"
   xmlns:svg="http://www.w3.org/2000/svg">
  <defs
     id="defs1" />
  <sodipodi:namedview
     id="namedview1"
     pagecolor="#ffffff"
     bordercolor="#666666"
     borderopacity="1.0"
     inkscape:showpageshadow="2"
     inkscape:pageopacity="0.0"
     inkscape:pagecheckerboard="0"
     inkscape:deskcolor="#d1d1d1"
     inkscape:zoom="50.5"
     inkscape:cx="7.990099"
     inkscape:cy="8"
     inkscape:window-width="2560"
     inkscape:window-height="1023"
     inkscape:window-x="0"
     inkscape:window-y="0"
     inkscape:window-maximized="1"
     inkscape:current-layer="svg1" />
  <path
     d="m 8 0 c -0.429688 0 -0.8125 0.273438 -0.949219 0.683594 l -1.449219 4.339844 l -4.589843 -0.015626 c -0.980469 -0.003906 -1.382813 1.257813 -0.582031 1.820313 l 3.625 2.554687 l -1.5 4.285157 c -0.316407 0.902343 0.6875 1.691406 1.492187 1.171875 l 4.003906 -2.59375 l 3.894531 2.585937 c 0.800782 0.53125 1.816407 -0.257812 1.5 -1.160156 l -1.503906 -4.289063 l 3.644532 -2.578124 c 0.789062 -0.5625 0.394531 -1.808594 -0.574219 -1.8125 l -4.660157 -0.015626 l -1.402343 -4.285156 c -0.132813 -0.410156 -0.515625 -0.68749975 -0.949219 -0.691406 z m 0 0"
     fill="#2e3436"
     id="path1"
     style="fill:#f2f2f2" />
</svg>
