<?xml version="1.0" encoding="UTF-8" standalone="no"?>
<svg
   height="16px"
   viewBox="0 0 16 16"
   width="16px"
   version="1.1"
   id="svg8"
   sodipodi:docname="terminal-symbolic.svg"
   inkscape:version="1.2.1 (9c6d41e410, 2022-07-14)"
   xmlns:inkscape="http://www.inkscape.org/namespaces/inkscape"
   xmlns:sodipodi="http://sodipodi.sourceforge.net/DTD/sodipodi-0.dtd"
   xmlns="http://www.w3.org/2000/svg"
   xmlns:svg="http://www.w3.org/2000/svg">
  <defs
     id="defs12" />
  <sodipodi:namedview
     id="namedview10"
     pagecolor="#ffffff"
     bordercolor="#666666"
     borderopacity="1.0"
     inkscape:showpageshadow="2"
     inkscape:pageopacity="0.0"
     inkscape:pagecheckerboard="0"
     inkscape:deskcolor="#d1d1d1"
     showgrid="false"
     inkscape:zoom="49.625"
     inkscape:cx="8.0100756"
     inkscape:cy="8.0100756"
     inkscape:window-width="2560"
     inkscape:window-height="1023"
     inkscape:window-x="0"
     inkscape:window-y="0"
     inkscape:window-maximized="1"
     inkscape:current-layer="svg8" />
  <g
     fill="#222222"
     id="g6"
     style="fill:#f2f2f2">
    <path
       d="m 2.199219 0 c -1.207031 0 -2.199219 1.007812 -2.199219 2.207031 v 10.585938 c 0 1.199219 0.992188 2.207031 2.199219 2.207031 h 11.601562 c 1.207031 0 2.199219 -1.007812 2.199219 -2.207031 v -10.585938 c 0 -1.199219 -0.992188 -2.207031 -2.199219 -2.207031 z m 0 2 h 11.601562 c 0.121094 0 0.199219 0.070312 0.199219 0.207031 v 10.585938 c 0 0.136719 -0.078125 0.207031 -0.199219 0.207031 h -11.601562 c -0.121094 0 -0.199219 -0.070312 -0.199219 -0.207031 v -10.585938 c 0 -0.136719 0.078125 -0.207031 0.199219 -0.207031 z m 0 0"
       id="path2"
       style="fill:#f2f2f2" />
    <path
       d="m 4.515625 5.898438 c -0.164063 -0.003907 -0.324219 0.0625 -0.441406 0.175781 c -0.230469 0.234375 -0.230469 0.617187 0 0.851562 l 1.578125 1.574219 l -1.578125 1.574219 c -0.230469 0.234375 -0.230469 0.617187 0 0.851562 c 0.234375 0.230469 0.617187 0.230469 0.851562 0 l 2 -2 c 0.230469 -0.234375 0.230469 -0.617187 0 -0.851562 l -2 -2 c -0.109375 -0.105469 -0.257812 -0.167969 -0.410156 -0.175781 z m 3.484375 4.101562 v 1 h 3 v -1 z m 0 0"
       id="path4"
       style="fill:#f2f2f2" />
  </g>
</svg>
