<svg width="64" xmlns="http://www.w3.org/2000/svg" viewBox="0 0 64 64" height="64" xmlns:xlink="http://www.w3.org/1999/xlink">
 <defs>
  <linearGradient id="a" y1="17" x1="40" y2="31" gradientUnits="userSpaceOnUse" x2="54">
   <stop stop-color="#060606"/>
   <stop offset="1" stop-opacity="0"/>
  </linearGradient>
  <linearGradient id="b" y1="392.36" y2="336.36" gradientUnits="userSpaceOnUse" x2="0" gradientTransform="translate(-48-332.36)">
   <stop stop-color="#ffffff" stop-opacity="0"/>
   <stop offset="1" stop-color="#ffffff" stop-opacity=".2"/>
  </linearGradient>
  <path id="c" d="m10 61v-58h30l14 14v44h-14z"/>
 </defs>
 <g color-rendering="auto" color-interpolation-filters="linearRGB" shape-rendering="auto" image-rendering="auto" text-rendering="auto" color-interpolation="sRGB" color="#000000">
  <use fill="#555555" xlink:href="#c"/>
  <g transform="scale(1-1)">
   <rect opacity=".4" x="10" y="-4" width="30" fill="#ffffff" height="1"/>
   <rect opacity=".35" x="10" y="-61" width="44" height="1"/>
  </g>
  <path opacity=".5" fill="#ffffff" fill-rule="evenodd" d="m54 17l-14-14v14z"/>
 </g>
 <path opacity=".4" fill="url(#a)" fill-rule="evenodd" d="m40 17l14 14v-14z"/>
 <use fill="url(#b)" xlink:href="#c"/>
 <g fill="#343434">
  <path d="m28.5 33.5v1.102c-.626.129-1.221.377-1.754.73l-.781-.781-1.414 1.414.781.781c-.352.533-.599 1.128-.727 1.754h-1.105v2h1.102c.129.626.377 1.221.73 1.754l-.781.781 1.414 1.414.781-.781c.533.352 1.128.599 1.754.727v1.105h2v-1.102c.626-.129 1.221-.377 1.754-.73l.781.781 1.414-1.414-.781-.781c.352-.533.599-1.128.727-1.754h1.105v-2h-1.102c-.129-.626-.377-1.221-.73-1.754l.781-.781-1.414-1.414-.781.781c-.533-.352-1.128-.599-1.754-.727v-1.105zm1 2c1.081 0 2.116.438 2.869 1.213.725.747 1.131 1.746 1.131 2.787 0 1.081-.438 2.116-1.213 2.869-.747.725-1.746 1.131-2.787 1.131-1.081 0-2.116-.438-2.869-1.213-.725-.747-1.131-1.746-1.131-2.787 0-1.081.438-2.116 1.213-2.869.747-.725 1.746-1.131 2.787-1.131"/>
  <path d="m22.852 22.924l.31 1.057c-.564.3-1.066.705-1.478 1.194l-.969-.53-.959 1.755.969.53c-.188.61-.257 1.251-.204 1.887l-1.061.311.563 1.919 1.057-.31c.3.564.705 1.066 1.194 1.478l-.53.969 1.755.959.53-.969c.61.188 1.251.257 1.887.204l.311 1.061 1.919-.563-.31-1.057c.564-.3 1.066-.705 1.478-1.194l.969.53.959-1.755-.969-.53c.188-.61.257-1.251.204-1.887l1.061-.311-.563-1.919-1.057.31c-.3-.564-.705-1.066-1.194-1.478l.53-.969-1.755-.959-.53.969c-.61-.188-1.251-.257-1.887-.204l-.311-1.061zm1.522 1.638c1.037-.304 2.154-.175 3.094.357.906.512 1.576 1.358 1.869 2.356.304 1.037.175 2.154-.357 3.094-.512.906-1.358 1.576-2.356 1.869-1.037.304-2.154.175-3.094-.357-.906-.512-1.576-1.358-1.869-2.356-.304-1.037-.175-2.154.357-3.094.512-.906 1.358-1.576 2.356-1.869"/>
 </g>
 <path fill="#e0e0e0" d="m22.352 22.524l.31 1.057c-.564.3-1.066.705-1.478 1.194l-.969-.53-.959 1.755.969.53c-.188.61-.257 1.251-.204 1.887l-1.061.311.563 1.919 1.057-.31c.3.564.705 1.066 1.194 1.478l-.53.969 1.755.959.53-.969c.61.188 1.251.257 1.887.204l.311 1.061 1.919-.563-.31-1.057c.564-.3 1.066-.705 1.478-1.194l.969.53.959-1.755-.969-.53c.188-.61.257-1.251.204-1.887l1.061-.311-.563-1.919-1.057.31c-.3-.564-.705-1.066-1.194-1.478l.53-.969-1.755-.959-.53.969c-.61-.188-1.251-.257-1.887-.204l-.311-1.061zm1.522 1.638c1.037-.304 2.154-.175 3.094.357.906.512 1.576 1.358 1.869 2.356.304 1.037.175 2.154-.357 3.094-.512.906-1.358 1.576-2.356 1.869-1.037.304-2.154.175-3.094-.357-.906-.512-1.576-1.358-1.869-2.356-.304-1.037-.175-2.154.357-3.094.512-.906 1.358-1.576 2.356-1.869"/>
 <path fill="#343434" d="m39.09 27.431l-.107 1.096c-.636.068-1.252.256-1.817.556l-.702-.854-1.545 1.27.702.854c-.402.496-.706 1.065-.894 1.675l-1.1-.108-.195 1.991 1.096.107c.068.636.256 1.252.556 1.817l-.854.702 1.27 1.545.854-.702c.496.402 1.065.706 1.675.894l-.108 1.1 1.991.195.107-1.096c.636-.068 1.252-.256 1.817-.556l.702.854 1.545-1.27-.702-.854c.402-.496.706-1.065.894-1.675l1.1.108.195-1.991-1.096-.107c-.068-.636-.256-1.252-.556-1.817l.854-.702-1.27-1.545-.854.702c-.496-.402-1.065-.706-1.675-.894l.108-1.1zm.801 2.088c1.076.105 2.063.641 2.737 1.486.649.814.956 1.848.854 2.884-.105 1.076-.641 2.063-1.486 2.737-.814.649-1.848.956-2.884.854-1.076-.105-2.063-.641-2.737-1.486-.649-.814-.956-1.848-.854-2.884.105-1.076.641-2.063 1.486-2.737.814-.649 1.848-.956 2.884-.854"/>
 <g fill="#e0e0e0">
  <path d="m38.589 26.931l-.107 1.096c-.636.068-1.252.256-1.817.556l-.702-.854-1.545 1.27.702.854c-.402.496-.706 1.065-.894 1.675l-1.1-.108-.195 1.991 1.096.107c.068.636.256 1.252.556 1.817l-.854.702 1.27 1.545.854-.702c.496.402 1.065.706 1.675.894l-.108 1.1 1.991.195.107-1.096c.636-.068 1.252-.256 1.817-.556l.702.854 1.545-1.27-.702-.854c.402-.496.706-1.065.894-1.675l1.1.108.195-1.991-1.096-.107c-.068-.636-.256-1.252-.556-1.817l.854-.702-1.27-1.545-.854.702c-.496-.402-1.065-.706-1.675-.894l.108-1.1zm.801 2.088c1.076.105 2.063.641 2.737 1.486.649.814.956 1.848.854 2.884-.105 1.076-.641 2.063-1.486 2.737-.814.649-1.848.956-2.884.854-1.076-.105-2.063-.641-2.737-1.486-.649-.814-.956-1.848-.854-2.884.105-1.076.641-2.063 1.486-2.737.814-.649 1.848-.956 2.884-.854"/>
  <path d="m28 33v1.102c-.626.129-1.221.377-1.754.73l-.781-.781-1.414 1.414.781.781c-.352.533-.599 1.128-.727 1.754h-1.105v2h1.102c.129.626.377 1.221.73 1.754l-.781.781 1.414 1.414.781-.781c.533.352 1.128.599 1.754.727v1.105h2v-1.102c.626-.129 1.221-.377 1.754-.73l.781.781 1.414-1.414-.781-.781c.352-.533.599-1.128.727-1.754h1.105v-2h-1.102c-.129-.626-.377-1.221-.73-1.754l.781-.781-1.414-1.414-.781.781c-.533-.352-1.128-.599-1.754-.727v-1.105zm1 2c1.081 0 2.116.438 2.869 1.213.725.747 1.131 1.746 1.131 2.787 0 1.081-.438 2.116-1.213 2.869-.747.725-1.746 1.131-2.787 1.131-1.081 0-2.116-.438-2.869-1.213-.725-.747-1.131-1.746-1.131-2.787 0-1.081.438-2.116 1.213-2.869.747-.725 1.746-1.131 2.787-1.131"/>
 </g>
</svg>
