<svg width="64" xmlns="http://www.w3.org/2000/svg" viewBox="0 0 64 64" height="64" xmlns:xlink="http://www.w3.org/1999/xlink">
 <defs>
  <linearGradient id="a" y1="17" x1="40" y2="31" gradientUnits="userSpaceOnUse" x2="54" gradientTransform="translate(616 532.36)">
   <stop stop-color="#060606"/>
   <stop offset="1" stop-opacity="0"/>
  </linearGradient>
  <linearGradient id="b" y1="392.36" y2="336.36" gradientUnits="userSpaceOnUse" x2="0" gradientTransform="translate(568 200)">
   <stop stop-color="#ffffff" stop-opacity="0"/>
   <stop offset="1" stop-color="#ffffff" stop-opacity=".2"/>
  </linearGradient>
  <path id="c" d="m626 593.36v-58h30l14 14v44h-14z"/>
 </defs>
 <g transform="translate(-616-532.36)">
  <g color-rendering="auto" color-interpolation-filters="linearRGB" shape-rendering="auto" image-rendering="auto" text-rendering="auto" color-interpolation="sRGB" color="#000000">
   <use fill="#555555" xlink:href="#c"/>
   <g transform="scale(1-1)">
    <rect opacity=".4" x="626" y="-536.36" width="30" fill="#ffffff" height="1"/>
    <rect opacity=".35" x="626" y="-593.36" width="44" height="1"/>
   </g>
   <path opacity=".5" fill="#ffffff" fill-rule="evenodd" d="m670 549.36l-14-14v14z"/>
  </g>
  <path opacity=".4" fill="url(#a)" fill-rule="evenodd" d="m656 549.36l14 14v-14z"/>
  <g color-rendering="auto" color-interpolation-filters="linearRGB" shape-rendering="auto" image-rendering="auto" text-rendering="auto" color-interpolation="sRGB" color="#000000">
   <path fill="#343434" d="m636 556.36v22h26v-22zm18 1c.552 0 1 .448 1 1 0 .552-.448 1-1 1-.552 0-1-.448-1-1 0-.552.448-1 1-1m3 0c.552 0 1 .448 1 1 0 .552-.448 1-1 1-.552 0-1-.448-1-1 0-.552.448-1 1-1m3 0c.552 0 1 .448 1 1 0 .552-.448 1-1 1-.552 0-1-.448-1-1 0-.552.448-1 1-1m-23 3h24v17h-24zm11 2v9h2v-9zm0 11v2h2v-2z"/>
   <path fill="#e0e0e0" d="m635 555.36v22h26v-22zm18 1c.552 0 1 .448 1 1 0 .552-.448 1-1 1-.552 0-1-.448-1-1 0-.552.448-1 1-1m3 0c.552 0 1 .448 1 1 0 .552-.448 1-1 1-.552 0-1-.448-1-1 0-.552.448-1 1-1m3 0c.552 0 1 .448 1 1 0 .552-.448 1-1 1-.552 0-1-.448-1-1 0-.552.448-1 1-1m-23 3h24v17h-24zm11 2v9h2v-9zm0 11v2h2v-2z"/>
  </g>
  <use fill="url(#b)" xlink:href="#c"/>
 </g>
</svg>
