<svg width="64" xmlns="http://www.w3.org/2000/svg" viewBox="0 0 64 64" height="64" xmlns:xlink="http://www.w3.org/1999/xlink">
 <defs>
  <linearGradient id="a" y1="392.36" y2="336.36" gradientUnits="userSpaceOnUse" x2="0" gradientTransform="translate(518 82)">
   <stop stop-color="#ffffff" stop-opacity="0"/>
   <stop offset="1" stop-color="#ffffff" stop-opacity=".2"/>
  </linearGradient>
  <path color-rendering="auto" color-interpolation-filters="linearRGB" shape-rendering="auto" image-rendering="auto" text-rendering="auto" id="b" color-interpolation="sRGB" color="#000000" d="m542 417.36v58h44v-58h-14z"/>
 </defs>
 <g transform="translate(-532-414.36)">
  <use fill="#f9d24c" xlink:href="#b"/>
  <g color-rendering="auto" color-interpolation-filters="linearRGB" shape-rendering="auto" image-rendering="auto" text-rendering="auto" color-interpolation="sRGB" color="#000000">
   <rect opacity=".25" x="542" y="474.36" width="44" height="1"/>
   <rect opacity=".5" x="542" y="417.36" width="44" fill="#ffffff" height="1"/>
  </g>
  <rect width="1" x="548" y="418.36" fill="#ffffff" height="56" fill-opacity=".321"/>
  <g color-rendering="auto" color-interpolation-filters="linearRGB" shape-rendering="auto" image-rendering="auto" text-rendering="auto" color-interpolation="sRGB" color="#000000">
   <rect x="549" y="418.36" fill-opacity=".057" width="1" height="56"/>
   <path opacity=".75" fill="#ffffff" d="m566 453.28l-6.916-6.917 6.916-6.911 2.307 2.302-4.614 4.609 2.307 2.308 6.916-6.917-6.03-6.02c-.489-.489-1.29-.489-1.779 0l-9.739 9.74c-.495.489-.495 1.29 0 1.786l9.739 9.74c.489.489 1.29.489 1.779 0l9.739-9.74c.495-.495.495-1.296 0-1.786l-1.412-1.412zm0 0"/>
  </g>
  <use fill="url(#a)" xlink:href="#b"/>
 </g>
</svg>
