<svg width="64" xmlns="http://www.w3.org/2000/svg" viewBox="0 0 64 64" height="64">
 <defs>
  <linearGradient id="a" y1="392.36" y2="336.36" gradientUnits="userSpaceOnUse" x2="0" gradientTransform="translate(-6-332.36)">
   <stop stop-color="#ffffff" stop-opacity="0"/>
   <stop offset="1" stop-color="#ffffff" stop-opacity=".2"/>
  </linearGradient>
 </defs>
 <g color-rendering="auto" color-interpolation-filters="linearRGB" shape-rendering="auto" image-rendering="auto" text-rendering="auto" color-interpolation="sRGB" color="#000000">
  <circle fill="#90cdf3" cx="37" cy="36" r="24"/>
  <path fill="#209ae7" d="m5 11v50h50v-20h-4.096c-2.717 0-4.904-2.187-4.904-4.904v-.191c0-2.717 2.187-4.904 4.904-4.904h4.096v-20z"/>
  <rect opacity=".25" x="5" y="60" width="50" height="1"/>
  <g fill="#ffffff">
   <rect opacity=".5" x="5" y="11" width="50" height="1"/>
   <path opacity=".75" d="m21 25v16.05c-.635-.648-1.517-1.053-2.5-1.053-1.939 0-3.5 1.561-3.5 3.5 0 1.939 1.561 3.5 3.5 3.5 1.905 0 3.437-1.509 3.49-3.4h.01v-13.6h14v8.05c-.635-.648-1.517-1.053-2.5-1.053-1.939 0-3.5 1.561-3.5 3.5 0 1.939 1.561 3.5 3.5 3.5 1.939 0 3.5-1.561 3.5-3.5v-15.5h-15zm1 2h14v2h-14z"/>
  </g>
  <path fill="url(#a)" d="m5 11v50h50v-9.158a24 24 0 0 0 6 -15.841797 24 24 0 0 0 -6 -15.830078v-9.17z"/>
 </g>
</svg>
