<svg width="64" xmlns="http://www.w3.org/2000/svg" viewBox="0 0 64 64" height="64" xmlns:xlink="http://www.w3.org/1999/xlink">
 <defs>
  <linearGradient id="a" y1="17" x1="40" y2="31" gradientUnits="userSpaceOnUse" x2="54">
   <stop stop-color="#060606"/>
   <stop offset="1" stop-opacity="0"/>
  </linearGradient>
  <linearGradient id="b" y1="392.36" y2="336.36" gradientUnits="userSpaceOnUse" x2="0" gradientTransform="translate(-48-332.36)">
   <stop stop-color="#ffffff" stop-opacity="0"/>
   <stop offset="1" stop-color="#ffffff" stop-opacity=".2"/>
  </linearGradient>
  <path id="c" d="m10 61v-58h30l14 14v44h-14z"/>
 </defs>
 <use fill="#eeeeee" xlink:href="#c"/>
 <g transform="scale(1-1)">
  <rect width="30" x="10" opacity=".6" y="-4" fill="#ffffff" height="1"/>
  <rect width="44" x="10" opacity=".15" y="-61" height="1"/>
 </g>
 <g fill-rule="evenodd">
  <path opacity=".5" d="m54 17l-14-14v14z"/>
  <path opacity=".1" fill="url(#a)" d="m40 17l14 14v-14z"/>
 </g>
 <path opacity=".6" color-interpolation-filters="linearRGB" color="#000000" image-rendering="auto" color-rendering="auto" d="m21 22v1h22v-1zm0 3v1h22v-1zm0 3v1h11v-1zm0 4v1h22v-1zm0 3v1h19v-1zm0 2v1h11v-1zm0 3v1h22v-1zm0 3v1h16v-1z" color-interpolation="sRGB" text-rendering="auto" shape-rendering="auto"/>
 <use fill="url(#b)" xlink:href="#c"/>
</svg>
