<svg width="64" xmlns="http://www.w3.org/2000/svg" viewBox="0 0 64 64" height="64" xmlns:xlink="http://www.w3.org/1999/xlink">
 <defs>
  <linearGradient id="a" y1="17" x1="40" y2="31" gradientUnits="userSpaceOnUse" x2="54">
   <stop stop-color="#060606"/>
   <stop offset="1" stop-opacity="0"/>
  </linearGradient>
  <linearGradient id="b" y1="392.36" y2="336.36" gradientUnits="userSpaceOnUse" x2="0" gradientTransform="translate(-48-332.36)">
   <stop stop-color="#ffffff" stop-opacity="0"/>
   <stop offset="1" stop-color="#ffffff" stop-opacity=".2"/>
  </linearGradient>
  <path id="c" d="m10 61v-58h30l14 14v44h-14z"/>
 </defs>
 <g color-rendering="auto" color-interpolation-filters="linearRGB" shape-rendering="auto" image-rendering="auto" text-rendering="auto" color-interpolation="sRGB" color="#000000">
  <use fill="#f9d24c" xlink:href="#c"/>
  <g transform="scale(1-1)">
   <rect opacity=".5" x="10" y="-4" width="30" fill="#ffffff" height="1"/>
   <rect opacity=".25" x="10" y="-61" width="44" height="1"/>
  </g>
 </g>
 <g fill-rule="evenodd">
  <path opacity=".5" fill="#ffffff" d="m54 17l-14-14v14z"/>
  <path opacity=".1" fill="url(#a)" d="m40 17l14 14v-14z"/>
 </g>
 <path opacity=".75" color-interpolation-filters="linearRGB" color="#000000" image-rendering="auto" color-rendering="auto" d="m29 21.999c-2.216 0-4 1.784-4 4v3c0 1.662-1.338 3-3 3v1c2.216 0 4-1.784 4-4v-3c0-1.662 1.338-3 3-3zm-7 11v1c1.662 0 3 1.338 3 3v3c0 2.216 1.784 4 4 4v-1c-1.662 0-3-1.338-3-3v-3c0-2.216-1.784-4-4-4m15-11v1c1.662 0 3 1.338 3 3v3c0 2.216 1.784 4 4 4v-1c-1.662 0-3-1.338-3-3v-3c0-2.216-1.784-4-4-4m7 11c-2.216 0-4 1.784-4 4v3c0 1.662-1.338 3-3 3v1c2.216 0 4-1.784 4-4v-3c0-1.662 1.338-3 3-3zm-24 9v2h2v-2z" color-interpolation="sRGB" text-rendering="auto" fill="#ffffff" shape-rendering="auto"/>
 <use fill="url(#b)" xlink:href="#c"/>
</svg>
