<?xml version="1.0" encoding="UTF-8" standalone="no"?>
<svg
   xmlns:dc="http://purl.org/dc/elements/1.1/"
   xmlns:cc="http://creativecommons.org/ns#"
   xmlns:rdf="http://www.w3.org/1999/02/22-rdf-syntax-ns#"
   xmlns:svg="http://www.w3.org/2000/svg"
   xmlns="http://www.w3.org/2000/svg"
   xmlns:sodipodi="http://sodipodi.sourceforge.net/DTD/sodipodi-0.dtd"
   xmlns:inkscape="http://www.inkscape.org/namespaces/inkscape"
   width="1536"
   height="1536"
   version="1.1"
   id="svg846"
   sodipodi:docname="fa-cog.svg"
   inkscape:version="0.92.4 5da689c313, 2019-01-14">
  <metadata
     id="metadata852">
    <rdf:RDF>
      <cc:Work
         rdf:about="">
        <dc:format>image/svg+xml</dc:format>
        <dc:type
           rdf:resource="http://purl.org/dc/dcmitype/StillImage" />
        <dc:title />
      </cc:Work>
    </rdf:RDF>
  </metadata>
  <defs
     id="defs850" />
  <sodipodi:namedview
     pagecolor="#ffffff"
     bordercolor="#666666"
     borderopacity="1"
     objecttolerance="10"
     gridtolerance="10"
     guidetolerance="10"
     inkscape:pageopacity="0"
     inkscape:pageshadow="2"
     inkscape:window-width="1920"
     inkscape:window-height="992"
     id="namedview848"
     showgrid="false"
     inkscape:zoom="0.52604167"
     inkscape:cx="414.41584"
     inkscape:cy="691.9604"
     inkscape:window-x="0"
     inkscape:window-y="27"
     inkscape:window-maximized="1"
     inkscape:current-layer="svg846" />
  <path
     d="m 970.13861,768 c 0,-111.33415 -90.80446,-202.13861 -202.13861,-202.13861 -111.33415,0 -202.13861,90.80446 -202.13861,202.13861 0,111.33415 90.80446,202.13859 202.13861,202.13859 111.33415,0 202.13861,-90.80444 202.13861,-202.13859 z m 404.27719,-86.06683 v 175.29208 c 0,11.84404 -9.4752,26.05693 -22.1089,28.42573 l -146.0767,22.10896 c -8.6856,25.26732 -18.1609,48.95541 -30.7946,71.85394 26.8466,38.69052 55.2723,73.43312 84.4876,108.96532 4.7377,5.5272 7.8961,12.6337 7.8961,19.7401 0,7.1065 -2.3688,12.6337 -7.1064,18.1609 -18.9505,25.2673 -125.5471,141.3391 -152.3936,141.3391 -7.1064,0 -14.2129,-3.1584 -20.5297,-7.1064 l -108.96538,-85.2773 c -22.89848,11.8441 -47.3762,22.109 -71.85392,30.005 -5.52723,48.1658 -10.26486,99.4901 -22.89852,146.8663 -3.15841,12.6337 -14.21287,22.1089 -28.42574,22.1089 H 680.35396 c -14.21287,0 -26.84654,-10.2648 -28.42574,-23.688 l -22.10891,-145.2872 c -24.47773,-7.896 -48.16585,-17.3713 -71.06436,-29.2153 l -111.33416,84.4876 c -5.52723,4.7376 -12.63366,7.1064 -19.7401,7.1064 -7.10643,0 -14.21287,-3.1584 -19.7401,-8.6856 -41.84901,-37.901 -97.12128,-86.8564 -130.28465,-132.6535 -3.94802,-5.5272 -5.52723,-11.8441 -5.52723,-18.1609 0,-7.1064 2.36882,-12.6337 6.31683,-18.1608 26.84654,-36.3219 56.06188,-71.0644 82.90842,-108.17582 -13.42327,-25.26733 -24.47772,-51.32422 -32.37376,-78.17077 l -144.49752,-21.3193 c -13.42327,-2.36889 -22.89852,-15.00255 -22.89852,-28.42578 V 678.77475 c 0,-11.84406 9.47525,-26.05693 21.3193,-28.42574 L 329.7698,628.2401 c 7.89605,-25.26732 18.16089,-48.95544 30.79456,-72.64356 -26.84654,-37.901 -55.27228,-73.43317 -84.48763,-108.96535 -4.73763,-5.52723 -7.89604,-11.84406 -7.89604,-18.9505 0,-7.10643 3.15841,-12.63366 7.10644,-18.16089 18.9505,-26.05693 125.54702,-141.33911 152.39356,-141.33911 7.10644,0 14.21287,3.15841 20.5297,7.89604 l 108.96535,84.48763 c 22.89852,-11.84407 47.37624,-22.10892 71.85396,-30.00495 5.52723,-48.16585 10.26486,-99.4901 22.89852,-146.86634 3.15841,-12.63366 14.21287,-22.10892 28.42574,-22.10892 h 175.29208 c 14.21287,0 26.84654,10.26486 28.42574,23.68812 l 22.10891,145.28714 c 24.47773,7.89603 48.16585,17.37128 71.06439,29.21534 l 112.12372,-84.48762 c 4.7376,-4.73762 11.8441,-7.10644 18.9505,-7.10644 7.1065,0 14.2129,3.15841 19.7401,7.89604 41.8491,38.69059 97.1213,87.64604 130.2847,134.23268 3.948,4.73762 5.5272,11.05445 5.5272,17.37128 0,7.10644 -2.3688,12.63367 -6.3169,18.16089 -26.8465,36.32179 -56.0618,71.06436 -82.9083,108.17574 13.4232,25.26734 24.4776,51.32426 32.3737,77.38119 l 144.4975,22.10891 c 13.4233,2.36882 22.8985,15.00248 22.8985,28.42575 z"
     id="path844"
     inkscape:connector-curvature="0"
     style="fill:#ececec;stroke-width:0.78960395" />
</svg>
