<?xml version="1.0" encoding="UTF-8" standalone="no"?>
<svg
   xmlns:dc="http://purl.org/dc/elements/1.1/"
   xmlns:cc="http://creativecommons.org/ns#"
   xmlns:rdf="http://www.w3.org/1999/02/22-rdf-syntax-ns#"
   xmlns:svg="http://www.w3.org/2000/svg"
   xmlns="http://www.w3.org/2000/svg"
   xmlns:sodipodi="http://sodipodi.sourceforge.net/DTD/sodipodi-0.dtd"
   xmlns:inkscape="http://www.inkscape.org/namespaces/inkscape"
   width="1536"
   height="1536"
   version="1.1"
   id="svg4"
   sodipodi:docname="snowflake-o.svg"
   inkscape:version="0.92.4 5da689c313, 2019-01-14">
  <metadata
     id="metadata10">
    <rdf:RDF>
      <cc:Work
         rdf:about="">
        <dc:format>image/svg+xml</dc:format>
        <dc:type
           rdf:resource="http://purl.org/dc/dcmitype/StillImage" />
      </cc:Work>
    </rdf:RDF>
  </metadata>
  <defs
     id="defs8" />
  <sodipodi:namedview
     pagecolor="#ffffff"
     bordercolor="#666666"
     borderopacity="1"
     objecttolerance="10"
     gridtolerance="10"
     guidetolerance="10"
     inkscape:pageopacity="0"
     inkscape:pageshadow="2"
     inkscape:window-width="1028"
     inkscape:window-height="681"
     id="namedview6"
     showgrid="false"
     inkscape:zoom="0.15364583"
     inkscape:cx="-442.57629"
     inkscape:cy="767.99998"
     inkscape:window-x="619"
     inkscape:window-y="235"
     inkscape:window-maximized="0"
     inkscape:current-layer="svg4" />
  <path
     d="m 1349.7626,943.16287 -132.3629,26.15554 147.4222,84.80739 c 23.7777,13.474 32.4962,45.1777 18.2295,68.9555 -14.2666,23.7777 -45.1777,32.4963 -68.9555,18.2296 l -147.4221,-84.0148 43.5926,126.8147 c 22.1926,63.4074 -74.5037,95.9037 -95.9036,33.2889 L 1033.5184,979.62212 818.72589,855.97772 V 1104.059 l 164.85912,188.6369 c 44.38519,49.9334 -32.49626,117.3037 -76.08881,66.5778 l -88.77031,-101.4518 v 169.6148 c 0,27.7407 -22.98517,50.7258 -50.72589,50.7258 -27.74072,0 -50.72589,-22.9851 -50.72589,-50.7258 v -169.6148 l -88.77031,101.4518 c -43.59257,50.7259 -120.474,-16.6444 -76.08885,-66.5778 L 717.27411,1104.059 V 855.97772 l -214.79246,123.6444 -80.84439,237.77758 c -21.39999,62.6148 -118.09622,30.1185 -95.90365,-33.2889 l 43.59257,-126.8147 -147.42213,84.0148 c -23.77776,14.2667 -54.68886,5.5481 -68.95552,-18.2296 -14.26665,-23.7778 -5.54814,-55.4815 18.22963,-68.9555 L 318.60029,969.31841 186.23741,943.16287 c -65.78515,-13.47411 -45.97034,-112.5481 19.8148,-99.86662 L 451.75575,892.43693 666.54821,768 451.75575,643.56304 206.05221,692.70375 c -3.17037,0.79259 -7.13333,0.79259 -10.3037,0.79259 -60.237,0 -68.95551,-88.77031 -9.5111,-100.65919 L 318.60029,566.68161 171.17816,481.87426 c -23.77777,-13.47407 -32.49628,-45.17776 -18.22963,-68.95551 14.26666,-24.57036 45.17776,-32.49628 68.95552,-18.22963 l 147.42213,84.01477 -43.59257,-126.81474 c -22.19257,-63.40737 74.50366,-95.90364 95.90365,-33.28886 l 80.84439,237.77762 214.79246,123.64437 V 431.94095 L 552.41495,243.30404 C 508.0298,193.37073 584.91123,126.00041 628.5038,176.7263 l 88.77031,101.45179 V 108.56338 c 0,-27.740723 22.98517,-50.725891 50.72589,-50.725891 27.74072,0 50.72589,22.985168 50.72589,50.725891 V 278.17809 L 907.4962,176.7263 c 43.59255,-50.72589 120.474,16.64443 76.08881,66.57774 L 818.72589,431.94095 v 248.08133 l 214.79251,-123.64437 80.8444,-237.77762 c 21.3999,-62.61478 118.0962,-30.11851 95.9036,33.28886 l -43.5926,126.81474 147.4221,-84.01477 c 23.7778,-14.26665 54.6889,-5.54814 68.9555,18.22963 14.2667,23.77775 5.5482,55.48144 -18.2295,68.95551 l -147.4222,84.80735 132.3629,26.15554 c 59.4444,11.88888 50.7259,100.65919 -9.5111,100.65919 -3.1703,0 -7.1333,0 -10.3037,-0.79259 L 1084.2442,643.56304 869.45179,768 1084.2442,892.43693 1329.9478,843.29625 c 65.7852,-12.68148 85.5999,86.39251 19.8148,99.86662 z"
     id="path2"
     inkscape:connector-curvature="0"
     style="stroke-width:0.79259211;fill:#ececec" />
</svg>
