<?xml version="1.0" encoding="UTF-8" standalone="no"?>
<!-- Created with Inkscape (http://www.inkscape.org/) -->

<svg
   xmlns:dc="http://purl.org/dc/elements/1.1/"
   xmlns:cc="http://creativecommons.org/ns#"
   xmlns:rdf="http://www.w3.org/1999/02/22-rdf-syntax-ns#"
   xmlns:svg="http://www.w3.org/2000/svg"
   xmlns="http://www.w3.org/2000/svg"
   xmlns:sodipodi="http://sodipodi.sourceforge.net/DTD/sodipodi-0.dtd"
   xmlns:inkscape="http://www.inkscape.org/namespaces/inkscape"
   width="22"
   version="1.1"
   height="22"
   id="svg2"
   inkscape:version="0.91 r13725"
   sodipodi:docname="application-x-ms-shortcut.svg">
  <sodipodi:namedview
     pagecolor="#ffffff"
     bordercolor="#666666"
     borderopacity="1"
     objecttolerance="10"
     gridtolerance="10"
     guidetolerance="10"
     inkscape:pageopacity="0"
     inkscape:pageshadow="2"
     inkscape:window-width="1360"
     inkscape:window-height="708"
     id="namedview10"
     showgrid="true"
     inkscape:object-nodes="true"
     inkscape:zoom="30.341309"
     inkscape:cx="7.0380384"
     inkscape:cy="7.9102149"
     inkscape:window-x="0"
     inkscape:window-y="0"
     inkscape:window-maximized="1"
     inkscape:current-layer="layer1-8">
    <inkscape:grid
       type="xygrid"
       id="grid4138" />
  </sodipodi:namedview>
  <defs
     id="defs3871">
    <style
       id="current-color-scheme"
       type="text/css">
      .ColorScheme-Text {
        color:#4d4d4d;
      }
      .ColorScheme-Background {
        color:#eff0f1;
      }
      .ColorScheme-Highlight {
        color:#3daee9;
      }
      .ColorScheme-ViewText {
        color:#31363b;
      }
      .ColorScheme-ViewBackground {
        color:#fcfcfc;
      }
      .ColorScheme-ViewHover {
        color:#93cee9;
      }
      .ColorScheme-ViewFocus{
        color:#3daee9;
      }
      .ColorScheme-ButtonText {
        color:#31363b;
      }
      .ColorScheme-ButtonBackground {
        color:#eff0f1;
      }
      .ColorScheme-ButtonHover {
        color:#93cee9;
      }
      .ColorScheme-ButtonFocus{
        color:#3daee9;
      }
      </style>
  </defs>
  <metadata
     id="metadata3874">
    <rdf:RDF>
      <cc:Work
         rdf:about="">
        <dc:format>image/svg+xml</dc:format>
        <dc:type
           rdf:resource="http://purl.org/dc/dcmitype/StillImage" />
        <dc:title />
      </cc:Work>
    </rdf:RDF>
  </metadata>
  <g
     inkscape:label="Capa 1"
     inkscape:groupmode="layer"
     style="fill:#f27935"
     id="layer1-8"
     transform="matrix(1 0 0 1 0 -1030.3622)">
    <g
       transform="translate(-421.71429,503.57146)"
       id="layer1"
       inkscape:label="Capa 1"
       style="fill:#3f3f3f;fill-opacity:1">
      <path
         class="ColorScheme-Text"
         id="rect4144"
         transform="translate(421.71429,525.79074)"
         d="M 4,6 4,6.5 4,7 3,7 3,7.9082031 3,9 3,14 3,14.091797 3,15 3.5,15 4,15 4,16 4.9082031,16 6,16 l 10,0 0.0918,0 1,0 0.9082,0 0,-1 0.5,0 0.5,0 0,-0.908203 L 19,13 19,9 19,7.9082031 19,7 18,7 18,6.5 18,6 l -0.908203,0 -1,0 L 4.9082031,6 4,6 Z m 0.9082031,1 11.1835939,0 1,0 C 17.242137,7.4247 17.5753,7.7578631 18,7.9082031 L 18,9 l 0,4 0,1.091797 C 17.5753,14.242137 17.242137,14.5753 17.091797,15 l -1,0 L 16,15 6,15 4.9082031,15 C 4.7578631,14.5753 4.4247,14.242137 4,14.091797 L 4,13 4,9 4,7.9082031 C 4.4247013,7.7578551 4.7578551,7.4247013 4.9082031,7 Z M 11,8 c -1.662,0 -3,1.338 -3,3 0,1.662 1.338,3 3,3 1.662,0 3,-1.338 3,-3 0,-1.662 -1.338,-3 -3,-3 z m 0,1 c 1.108,0 2,0.892 2,2 0,1.108 -0.892,2 -2,2 C 9.892,13 9,12.108 9,11 9,9.892 9.892,9 11,9 Z"
         style="color:#4d4d4d;opacity:1;fill:#3f3f3f;fill-opacity:1;stroke:none;stroke-width:2.79999995;stroke-miterlimit:4;stroke-dasharray:none;stroke-opacity:0.55026455"
         inkscape:connector-curvature="0" />
    </g>
  </g>
</svg>
