<svg height="300px" width="300px" fill="#000000" xmlns="http://www.w3.org/2000/svg" xmlns:xlink="http://www.w3.org/1999/xlink" xmlns:sketch="http://www.bohemiancoding.com/sketch/ns" viewBox="0 0 22 22" version="1.1" x="0px" y="0px"><title>ease-out</title><desc>Created with Sketch.</desc><g stroke="none" stroke-width="1" fill="none" fill-rule="evenodd" sketch:type="MSPage"><g sketch:type="MSArtboardGroup" fill="#000000"><path d="M19.9872784,1 C18.226196,1 16.3508547,1.78613109 14.3626626,3.2318898 C12.1153403,4.86608096 9.75888696,7.31595499 7.35113892,10.3693862 C5.78007835,12.3617564 4.28051916,14.4924174 2.90155689,16.6227215 C2.41899937,17.3682054 1.98572811,18.0607968 1.6080498,18.6830467 C1.47546626,18.9014868 1.35917566,19.0957553 1.25997049,19.2636676 C1.19981441,19.3654864 1.15834103,19.4365601 1.13634463,19.4747025 C0.856213934,19.9604566 1.02156575,20.5821037 1.50566824,20.8631902 C1.98977073,21.1442766 2.60930414,20.9783607 2.88943483,20.4926065 C2.96669657,20.3586326 3.11834561,20.1019551 3.33792585,19.7401822 C3.70573861,19.1341865 4.1286463,18.4581614 4.60015215,17.7297507 C5.94708523,15.6489272 7.4113177,13.5684606 8.93951754,11.630445 C11.2421662,8.71029757 13.4802557,6.38347986 15.5512096,4.877539 C17.2249265,3.66045793 18.7232901,3.03235354 19.9872784,3.03235354 C20.5465891,3.03235354 21,2.5773957 21,2.01617677 C21,1.45495784 20.5465891,1 19.9872784,1 L19.9872784,1 Z" sketch:type="MSShapeGroup"/></g></g></svg>