<svg height="300px" width="300px" fill="#000000" xmlns="http://www.w3.org/2000/svg" xmlns:xlink="http://www.w3.org/1999/xlink" xmlns:sketch="http://www.bohemiancoding.com/sketch/ns" viewBox="0 0 22 22" version="1.1" x="0px" y="0px"><title>ease-in-out</title><desc>Created with Sketch.</desc><g stroke="none" stroke-width="1" fill="none" fill-rule="evenodd" sketch:type="MSPage"><g sketch:type="MSArtboardGroup" fill="#000000"><path d="M19.9872699,1 C17.878475,1 16.0281891,2.10325499 14.2446073,4.15579908 C12.963439,5.63016618 12.0100459,7.11653789 10.0463946,10.4871679 C9.95509164,10.6439028 9.95509164,10.6439028 9.8639182,10.8003834 C6.33026093,16.8640908 4.49868502,18.9676293 2.01273007,18.9676293 C1.4534147,18.9676293 1,19.422591 1,19.9838147 C1,20.5450383 1.4534147,21 2.01273007,21 C4.03513881,21 5.8145766,19.9377714 7.53528122,17.9615669 C8.77770818,16.5346574 9.73934032,15.0404156 11.6123938,11.8262814 C11.7037506,11.6694861 11.7037506,11.6694861 11.7950065,11.5128321 C15.4810342,5.18572313 17.3522146,3.03237069 19.9872699,3.03237069 C20.5465853,3.03237069 21,2.57740901 21,2.01618534 C21,1.45496167 20.5465853,1 19.9872699,1 L19.9872699,1 Z" sketch:type="MSShapeGroup"/></g></g></svg>