<?xml version="1.0" encoding="UTF-8" standalone="no"?>
<!-- Created with Inkscape (http://www.inkscape.org/) -->

<svg
   xmlns:dc="http://purl.org/dc/elements/1.1/"
   xmlns:cc="http://creativecommons.org/ns#"
   xmlns:rdf="http://www.w3.org/1999/02/22-rdf-syntax-ns#"
   xmlns:svg="http://www.w3.org/2000/svg"
   xmlns="http://www.w3.org/2000/svg"
   xmlns:sodipodi="http://sodipodi.sourceforge.net/DTD/sodipodi-0.dtd"
   xmlns:inkscape="http://www.inkscape.org/namespaces/inkscape"
   width="16"
   height="16"
   viewBox="0 0 4.2333333 4.2333333"
   version="1.1"
   id="svg8"
   inkscape:version="0.92.2 2405546, 2018-03-11"
   sodipodi:docname="audio.svg">
  <defs
     id="defs2" />
  <sodipodi:namedview
     id="base"
     pagecolor="#ffffff"
     bordercolor="#666666"
     borderopacity="1.0"
     inkscape:pageopacity="0.0"
     inkscape:pageshadow="2"
     inkscape:zoom="22.4"
     inkscape:cx="12.634822"
     inkscape:cy="5.5152643"
     inkscape:document-units="mm"
     inkscape:current-layer="layer1"
     showgrid="false"
     inkscape:window-width="1400"
     inkscape:window-height="845"
     inkscape:window-x="0"
     inkscape:window-y="0"
     inkscape:window-maximized="1"
     units="px" />
  <metadata
     id="metadata5">
    <rdf:RDF>
      <cc:Work
         rdf:about="">
        <dc:format>image/svg+xml</dc:format>
        <dc:type
           rdf:resource="http://purl.org/dc/dcmitype/StillImage" />
        <dc:title></dc:title>
      </cc:Work>
    </rdf:RDF>
  </metadata>
  <g
     inkscape:label="Layer 1"
     inkscape:groupmode="layer"
     id="layer1"
     transform="translate(0,-292.76667)">
    <path
       style="color:#000000;font-style:normal;font-variant:normal;font-weight:normal;font-stretch:normal;font-size:medium;line-height:normal;font-family:sans-serif;font-variant-ligatures:normal;font-variant-position:normal;font-variant-caps:normal;font-variant-numeric:normal;font-variant-alternates:normal;font-feature-settings:normal;text-indent:0;text-align:start;text-decoration:none;text-decoration-line:none;text-decoration-style:solid;text-decoration-color:#000000;letter-spacing:normal;word-spacing:normal;text-transform:none;writing-mode:lr-tb;direction:ltr;text-orientation:mixed;dominant-baseline:auto;baseline-shift:baseline;text-anchor:start;white-space:normal;shape-padding:0;clip-rule:nonzero;display:inline;overflow:visible;visibility:visible;opacity:1;isolation:auto;mix-blend-mode:normal;color-interpolation:sRGB;color-interpolation-filters:linearRGB;solid-color:#000000;solid-opacity:1;vector-effect:none;fill:#cccccc;fill-opacity:1;fill-rule:nonzero;stroke:#cccccc;stroke-width:0.03083597;stroke-linecap:butt;stroke-linejoin:miter;stroke-miterlimit:4;stroke-dasharray:none;stroke-dashoffset:0;stroke-opacity:1;color-rendering:auto;image-rendering:auto;shape-rendering:auto;text-rendering:auto;enable-background:accumulate"
       d="m 2.1136657,293.08497 v 1.8e-4 c -2.176e-4,-2e-5 -0.011043,10e-4 -0.011244,10e-4 -1.07e-4,4e-5 -0.00289,9.5e-4 -0.00396,0.001 -0.00105,6.4e-4 -0.00183,10e-4 -0.00253,10e-4 -0.00139,9.5e-4 -0.00214,0.002 -0.00284,0.002 -0.00137,0.001 -0.00222,0.002 -0.00284,0.005 -0.00124,0.002 -0.00198,0.005 -0.00277,0.009 -0.00621,0.0276 -0.00939,0.0993 -0.01357,0.23086 -0.0035,0.11006 -0.00857,0.19797 -0.014907,0.26289 -0.00511,0.0524 -0.011519,0.0789 -0.017727,0.10017 -0.00972,-0.0276 -0.020564,-0.0709 -0.032118,-0.13991 l -0.03972,-0.23679 -0.038006,10e-4 v 0.001 l -0.00537,0.41742 c -0.00178,0.13588 -0.00678,0.23904 -0.014083,0.30666 -0.00324,0.03 -0.0072,0.0502 -0.011244,0.0656 -0.00328,-0.009 -0.00668,-0.0165 -0.00961,-0.0269 -0.00793,-0.03 -0.01368,-0.07 -0.015493,-0.1119 l -0.0067,-0.1542 -0.038081,-9.3e-4 -2.97e-4,10e-4 v 3.1e-4 l -0.019451,0.13772 c -0.00236,-0.0456 -0.00661,-0.0894 -0.012966,-0.12069 -0.00363,-0.0183 -0.00769,-0.0324 -0.01238,-0.0432 -0.00234,-0.005 -0.00471,-0.009 -0.0082,-0.0147 -0.00174,-0.002 -0.00366,-0.004 -0.00709,-0.005 -0.00341,-0.002 -0.0093,-0.005 -0.016317,-0.005 -0.012526,0 -0.018484,0.005 -0.022207,0.009 -0.00372,0.004 -0.00645,0.007 -0.00901,0.0128 -0.00515,0.009 -0.00996,0.022 -0.014687,0.0377 -0.00945,0.0313 -0.018603,0.0749 -0.026752,0.12508 -0.016299,0.10054 -0.02819,0.22794 -0.02869,0.33687 -3.316e-4,0.0725 -0.013076,0.12746 -0.028466,0.15163 -0.00385,0.005 -0.00809,0.009 -0.010439,0.0128 -2.74e-4,1.9e-4 -1.183e-4,8e-5 -2.971e-4,1.9e-4 9.16e-5,-6e-5 -6.904e-4,9e-5 -0.00396,-0.002 -0.00401,-0.004 -0.00923,-0.009 -0.014614,-0.0183 -0.00628,-0.009 -0.010732,-0.0183 -0.025635,-0.0227 -0.00745,-0.002 -0.018524,-0.002 -0.025934,0 -0.00742,0.002 -0.012068,0.005 -0.016317,0.009 -0.01705,0.0165 -0.031268,0.0439 -0.053207,0.0928 -0.031001,0.0692 -0.067358,0.16995 -0.081452,0.22587 -0.00639,0.0498 -0.021817,0.0822 -0.052596,0.12893 l -0.056799,0.087 c 0,0 0.051407,-0.1 0.069884,-0.11885 0,0 0.029799,-0.0584 0.039511,-0.0971 0.01357,-0.0538 0.087964,-0.15108 0.1184138,-0.21893 0.020773,-0.0463 0.036736,-0.0725 0.045904,-0.082 0.00177,0.001 0.00118,9.3e-4 0.00343,0.005 0.00626,0.009 0.012783,0.0183 0.020269,0.0236 0.00749,0.006 0.016665,0.011 0.028988,0.0128 0.012325,10e-4 0.02436,-0.002 0.032118,-0.009 0.00776,-0.005 0.01335,-0.0128 0.018332,-0.0194 0.019961,-0.0313 0.030884,-0.0868 0.031224,-0.16115 4.924e-4,-0.10768 0.012618,-0.23449 0.028765,-0.33404 0.00808,-0.0498 0.017086,-0.0928 0.026157,-0.12288 0.00249,-0.009 0.00487,-0.0128 0.00731,-0.0189 0.00251,0.009 0.00509,0.0147 0.00738,0.026 0.00698,0.0342 0.012252,0.0822 0.014083,0.13497 l 0.0067,0.19169 v 10e-4 l 0.038081,6.4e-4 2.249e-4,-0.001 v -6.2e-4 l 0.02258,-0.15915 c 0.00293,0.0288 0.0057,0.0588 0.011556,0.0809 0.00418,0.0165 0.00892,0.0291 0.014303,0.0397 0.00538,0.011 0.00841,0.0189 0.023399,0.0249 0.00601,0.002 0.017269,0.002 0.023921,3.1e-4 0.00665,-0.002 0.00954,-0.006 0.011849,-0.009 0.0046,-0.005 0.00696,-0.0128 0.00961,-0.0205 0.00531,-0.0165 0.00978,-0.0427 0.013497,-0.0769 0.00742,-0.0687 0.012014,-0.17214 0.01379,-0.30834 l 0.00253,-0.20712 0.00454,0.026 c 0.012636,0.0755 0.024263,0.12673 0.03577,0.15585 0.00288,0.007 0.00577,0.0128 0.00901,0.0183 0.00324,0.005 0.00582,0.009 0.0152,0.0128 0.00469,0.002 0.01238,0.004 0.018854,0.002 0.00648,-0.001 0.010548,-0.004 0.013259,-0.005 0.00542,-0.005 0.0076,-0.009 0.010127,-0.0147 0.010164,-0.0222 0.017233,-0.0641 0.023622,-0.12966 0.00639,-0.0656 0.011464,-0.15383 0.01498,-0.26421 0.00198,-0.0623 0.00416,-0.0709 0.00619,-0.10786 0.013387,0.0928 0.027655,0.24183 0.031224,0.39445 0.00379,0.16262 0.019947,0.30816 0.036367,0.38264 0.0041,0.0187 0.00793,0.0326 0.01238,0.0423 0.00222,0.006 0.00355,0.009 0.00932,0.0128 0.00288,0.002 0.00901,0.005 0.018332,0.005 0.00932,-3.2e-4 0.014925,-0.005 0.017434,-0.007 0.00504,-0.005 0.00568,-0.009 0.00731,-0.0146 0.00162,-0.006 0.00304,-0.0128 0.00425,-0.0209 0.00242,-0.0165 0.00436,-0.041 0.00537,-0.0729 0.00102,-0.0322 0.00592,-0.0601 0.012361,-0.0778 0.00309,-0.009 0.00689,-0.0147 0.00901,-0.0165 0.00273,7e-5 0.00526,9.4e-4 0.0076,6.2e-4 0.0061,-10e-4 0.00969,-0.004 0.012361,-0.005 0.00537,-0.004 0.00817,-0.009 0.011244,-0.0147 0.00615,-0.011 0.011757,-0.0255 0.017214,-0.0443 0.010896,-0.0377 0.020791,-0.0908 0.027573,-0.15163 0.01097,-0.0984 0.016482,-0.12765 0.023399,-0.17544 0.00811,0.0754 0.026124,0.18093 0.05209,0.27023 0.02942,0.10109 0.067045,0.3483 0.082793,0.54656 0.00652,0.0819 0.014303,0.14833 0.02258,0.19774 0.00828,0.0494 0.016262,0.0813 0.026752,0.0985 0.00262,0.005 0.00482,0.009 0.011244,0.0128 0.00322,0.002 0.00817,0.004 0.014687,0.005 0.0065,1.9e-4 0.012691,-10e-4 0.016317,-0.004 0.00725,-0.004 0.0091,-0.007 0.011556,-0.0128 0.00245,-0.005 0.00454,-0.009 0.00648,-0.0165 0.00778,-0.0251 0.014138,-0.0678 0.018854,-0.13131 9.799e-4,-0.0128 0.0022,-0.0216 0.00335,-0.0304 0.015511,0.0249 0.033502,0.0846 0.036888,0.13003 0.00146,0.0198 0.00297,0.0346 0.00454,0.0454 7.919e-4,0.005 0.00171,0.009 0.00284,0.0128 0.00112,0.004 5.358e-4,0.005 0.00731,0.0128 0.00339,0.002 0.012581,0.005 0.020269,0.005 0.00769,-0.001 0.01086,-0.004 0.012966,-0.005 0.00421,-0.004 0.00571,-0.005 0.00789,-0.009 0.00438,-0.007 0.0091,-0.0183 0.0152,-0.0321 0.00451,-0.011 0.00727,-0.0165 0.010439,-0.0225 0.00643,0.011 0.014651,0.0253 0.025635,0.0456 0.024287,0.0451 0.045223,0.113 0.045904,0.14559 0,0 0.055401,0.14193 0.083181,0.21297 -0.00833,0.20432 -0.034231,0.24692 -0.059897,0.26366 -0.019579,0.0128 -0.034048,0.0322 -0.04501,0.0544 -0.01097,0.0222 -0.017819,0.0467 -0.017819,0.0698 0,0.026 -0.00429,0.0375 -0.00782,0.046 -0.00681,-0.009 -0.015035,-0.0207 -0.021687,-0.0407 -0.00789,-0.0236 -0.013918,-0.0538 -0.015804,-0.0879 -0.00133,-0.0242 -0.00266,-0.0408 -0.00454,-0.0509 -4.758e-4,-0.002 -9.221e-4,-0.005 -0.00164,-0.007 -7.048e-4,-0.002 5.359e-4,-0.004 -0.00619,-0.009 -8.353e-4,-6.4e-4 -0.00337,-0.002 -0.00342,-0.002 -6.12e-5,-3e-5 -0.005,-10e-4 -0.00507,-10e-4 -6.48e-5,-2e-5 -0.00694,-6.4e-4 -0.00701,-6.4e-4 -6.48e-5,0 -0.00643,9.5e-4 -0.00648,9.5e-4 -6.49e-5,2e-5 -0.00449,0.001 -0.00454,0.001 -6.5e-5,2e-5 -0.00205,10e-4 -0.00277,0.002 -0.00143,9.4e-4 -0.00222,0.002 -0.00284,0.002 -0.00247,0.002 -0.00289,0.005 -0.00364,0.007 -0.00299,0.009 -0.00535,0.0223 -0.0085,0.0452 -0.00315,0.0229 -0.00679,0.0537 -0.010951,0.093 -0.00579,0.0549 -0.011775,0.0963 -0.018332,0.12361 -0.00192,0.009 -0.00394,0.0128 -0.00588,0.0183 -0.00212,-0.005 -0.00388,-0.007 -0.00619,-0.0128 -0.00972,-0.0253 -0.020641,-0.0645 -0.033013,-0.11721 -0.00678,-0.0287 -0.011904,-0.0494 -0.017141,-0.0623 -0.00131,-0.004 -0.00271,-0.005 -0.00454,-0.009 -0.00183,-0.002 -0.00253,-0.005 -0.01379,-0.009 -0.00564,-0.001 -0.014083,-6.4e-4 -0.018555,10e-4 -0.00447,0.002 -0.00621,0.004 -0.0076,0.006 -0.0028,0.004 -0.00386,0.005 -0.00507,0.009 -0.0048,0.0128 -0.0083,0.0335 -0.012966,0.0685 -0.00467,0.035 -0.010164,0.0833 -0.016922,0.14669 -0.017617,0.16501 -0.043426,0.35719 -0.069006,0.52096 -0.02558,0.16372 -0.051116,0.29986 -0.06677,0.34953 l -0.00813,0.0256 -0.00619,-0.0147 c -0.0065,-0.0146 -0.014632,-0.0526 -0.020344,-0.0989 -0.0057,-0.0463 -0.00961,-0.10164 -0.010658,-0.15493 -0.00121,-0.0617 -0.00582,-0.10915 -0.013259,-0.14083 -0.00372,-0.0165 -0.00787,-0.0278 -0.014376,-0.0368 -0.00326,-0.006 -0.00665,-0.009 -0.014614,-0.0128 -0.00595,-0.002 -0.014412,-0.001 -0.021687,0 -9.076e-4,-6.4e-4 -0.00469,-0.005 -0.00789,-0.0128 -0.00661,-0.0147 -0.011995,-0.0386 -0.013497,-0.0701 l -0.00507,-0.1075 -0.038081,-10e-4 -0.02951,0.12453 c -0.016775,0.0703 -0.032975,0.23793 -0.036665,0.37548 -0.00333,0.12398 -0.01848,0.26133 -0.032938,0.33793 -0.00128,-0.0262 -0.00258,-0.0505 -0.00396,-0.0886 -0.00396,-0.11061 -0.012581,-0.19654 -0.023622,-0.25681 -0.00553,-0.0302 -0.011629,-0.0538 -0.018332,-0.0714 -0.00335,-0.009 -0.00678,-0.0165 -0.010732,-0.0222 -0.00396,-0.005 -0.00767,-0.011 -0.016024,-0.0146 -0.00418,-0.002 -0.010329,-0.004 -0.016921,-0.004 -0.00659,5e-5 -0.012526,0.002 -0.01661,0.004 -0.00817,0.005 -0.011922,0.009 -0.015804,0.0146 -0.00775,0.0128 -0.013772,0.0299 -0.019674,0.0548 -0.00366,0.0146 -0.00504,0.0515 -0.0082,0.0721 -0.00162,-0.0421 -0.00368,-0.0588 -0.00507,-0.11354 -0.0063,-0.25009 -0.00943,-0.37553 -0.017434,-0.41941 -9.946e-4,-0.006 -0.00179,-0.009 -0.00335,-0.0128 -7.774e-4,-0.002 -0.0018,-0.004 -0.00374,-0.005 -9.657e-4,-9.5e-4 -0.00214,-0.002 -0.00447,-0.004 -0.00117,-6.4e-4 -0.00271,-10e-4 -0.00454,-0.002 -0.00183,-6.4e-4 -0.00624,-10e-4 -0.00641,-10e-4 -1.603e-4,-2e-5 -0.00482,-2.8e-4 -0.00709,0 -0.00225,2.7e-4 -0.00429,9.3e-4 -0.00588,10e-4 -0.0032,0.001 -0.00511,0.002 -0.00648,0.004 -0.00277,0.002 -0.00394,0.004 -0.00507,0.005 -0.00227,0.004 -0.00386,0.007 -0.00566,0.0128 -0.00718,0.0185 -0.015438,0.0522 -0.026754,0.0978 l -0.020866,0.0842 -0.00559,-0.0458 -0.017727,-0.14962 -0.038304,6.2e-4 -0.00709,0.19174 c -0.00291,0.0775 -0.00872,0.12783 -0.015731,0.15896 -0.00678,-0.0183 -0.014046,-0.0357 -0.021165,-0.0773 -0.00978,-0.0573 -0.018802,-0.13516 -0.025934,-0.23178 -0.00749,-0.10145 -0.017819,-0.20338 -0.028393,-0.28592 -0.010567,-0.0826 -0.021053,-0.14449 -0.030479,-0.17068 l -0.030926,-0.0859 -0.037484,0.002 -0.00678,0.0872 c -0.00322,0.0429 -0.01987,0.0947 -0.034652,0.12215 -7.051e-4,-0.009 -0.00157,-0.0165 -0.00194,-0.0299 -7.629e-4,-0.0269 -0.00507,-0.0498 -0.01238,-0.0663 -0.00364,-0.009 -0.00765,-0.0147 -0.01498,-0.0209 -0.00366,-0.002 -0.00842,-0.005 -0.015731,-0.007 -0.00392,-6.2e-4 -0.00777,6.3e-4 -0.011849,9.6e-4 -0.00244,-0.002 -0.0085,-0.009 -0.011244,-0.0146 -0.011867,-0.0231 -0.017178,-0.0416 -0.022282,-0.0712 -0.00542,-0.0315 -0.017434,-0.0643 -0.03264,-0.0925 -0.015218,-0.0282 -0.032277,-0.0516 -0.053805,-0.0657 -0.050479,-0.0447 -0.08391,-0.10091 -0.08391,-0.10091 0,0 0.023639,0.0973 0.056487,0.11867 0.012673,0.009 0.030569,0.0299 0.044787,0.0562 0.014211,0.0264 0.025959,0.0577 0.031001,0.0872 0.00535,0.0309 0.013662,0.0577 0.023921,0.0767 0.00513,0.009 0.01053,0.0165 0.018039,0.0229 0.00375,0.004 0.00806,0.006 0.0152,0.007 0.00386,9.3e-4 0.00839,-3.3e-4 0.012966,-6.4e-4 0.00127,10e-4 0.00439,0.005 0.00701,0.011 0.00575,0.0128 0.010017,0.0346 0.010732,0.0599 5.358e-4,0.019 0.00161,0.0341 0.00306,0.0454 0.00144,0.0128 0.00205,0.0185 0.00789,0.026 0.00146,0.002 0.00331,0.004 0.00709,0.005 0.00377,0.002 0.010072,0.004 0.015731,0.004 0.011299,-3.1e-4 0.015859,-0.005 0.019451,-0.007 0.00716,-0.005 0.012087,-0.0128 0.018854,-0.0233 0.020211,-0.0308 0.036958,-0.0912 0.040837,-0.14046 0.00762,0.0212 0.019062,0.085 0.029585,0.16702 0.01053,0.0822 0.020699,0.18377 0.028169,0.28493 0.00716,0.0971 0.016317,0.17545 0.026232,0.23344 0.00993,0.0581 0.019319,0.0945 0.032118,0.11355 0.0032,0.005 0.00548,0.009 0.0152,0.0128 0.00485,0.002 0.012874,0.002 0.019152,10e-4 0.00628,-10e-4 0.010054,-0.004 0.012673,-0.005 0.010439,-0.009 0.012545,-0.0185 0.01661,-0.035 0.00641,-0.0258 0.010127,-0.0786 0.013497,-0.13442 l 0.00872,0.0722 0.037782,9.5e-4 0.046203,-0.18692 c 0.00302,-0.0128 0.00436,-0.0146 0.00701,-0.0256 0.00513,0.0577 0.00914,0.13918 0.014376,0.34773 0.00353,0.14065 0.00786,0.24176 0.012361,0.29193 0.00113,0.0128 0.00223,0.0218 0.00342,0.0282 6.034e-4,0.004 0.0013,0.005 0.00253,0.009 3.014e-4,6.4e-4 4.567e-4,0.001 0.00119,0.002 3.585e-4,3.2e-4 8.931e-4,9.6e-4 0.00164,0.002 7.338e-4,6.2e-4 0.00359,0.002 0.00364,0.002 6.48e-5,5e-5 0.00813,0.002 0.0082,0.002 6.48e-5,0 0.012087,-6.4e-4 0.012142,-6.4e-4 6.48e-5,0 0.00665,-0.004 0.0067,-0.004 6.5e-5,-3e-5 0.00225,-10e-4 0.00284,-0.002 0.00471,-0.005 0.00337,-0.005 0.00396,-0.009 5.89e-4,-0.002 8.497e-4,-0.006 0.00134,-0.011 9.655e-4,-0.009 0.00209,-0.0212 0.00291,-0.0375 0.00526,-0.10567 0.014779,-0.18204 0.026157,-0.22958 0.005,-0.0209 0.01031,-0.0339 0.0152,-0.043 0.00192,0.004 0.00396,0.007 0.00597,0.0128 0.00606,0.0165 0.012032,0.039 0.017434,0.0685 0.010805,0.059 0.019465,0.1443 0.023401,0.25442 0.00198,0.0551 0.00364,0.0974 0.00559,0.1282 0.00194,0.0309 0.0037,0.0494 0.00709,0.0604 8.497e-4,0.002 0.00126,0.005 0.00396,0.009 6.76e-4,9.5e-4 0.00171,0.002 0.00306,0.002 6.759e-4,3.1e-4 0.00131,0.001 0.00231,0.001 9.946e-4,6.2e-4 0.00355,10e-4 0.00364,10e-4 2.023e-4,7e-5 0.010457,0.001 0.010658,0.001 1.029e-4,0 0.00526,-6.3e-4 0.00537,-6.3e-4 1.029e-4,-1e-5 0.00309,-9.5e-4 0.00425,-0.001 0.00925,-0.004 0.00896,-0.005 0.010439,-0.009 0.00148,-0.002 0.00247,-0.005 0.00364,-0.009 0.00471,-0.0128 0.00972,-0.0315 0.016317,-0.0591 0.016775,-0.0703 0.0329,-0.23793 0.03659,-0.37548 0.00366,-0.13662 0.020456,-0.30543 0.036366,-0.37214 l 2.971e-4,-0.001 c 0.0024,0.0229 0.00498,0.0454 0.011556,0.0595 0.00425,0.009 0.00897,0.0165 0.018039,0.0222 0.00454,0.002 0.010677,0.005 0.018258,0.005 0.00363,3.3e-4 0.00668,-9.5e-4 0.010127,-10e-4 0.00322,0.005 0.0076,0.0147 0.011025,0.0297 0.00692,0.0295 0.011482,0.0765 0.012673,0.13753 0.00105,0.0538 0.00516,0.1097 0.010951,0.15658 0.00579,0.0469 0.012618,0.0841 0.021463,0.10365 l 0.027871,0.0623 0.037185,-9.6e-4 0.023622,-0.0749 c 0.016757,-0.0531 0.041672,-0.18793 0.067292,-0.35196 0.02562,-0.16409 0.051351,-0.35645 0.069006,-0.52189 0.00676,-0.0632 0.012307,-0.11135 0.016922,-0.14614 7.194e-4,-0.005 0.00131,-0.005 0.00201,-0.009 8.352e-4,0.004 0.00107,0.004 0.00194,0.007 0.012453,0.0531 0.0235,0.0925 0.033832,0.1194 0.00516,0.0128 0.00989,0.0236 0.01542,0.0311 0.00277,0.004 0.00559,0.007 0.0102,0.009 0.00463,0.004 0.01357,0.005 0.023326,0.005 0.00976,-10e-4 0.015237,-0.005 0.01863,-0.009 0.00339,-0.004 0.00546,-0.007 0.0076,-0.011 0.0043,-0.009 0.00809,-0.0196 0.011556,-0.0341 0.0069,-0.0288 0.013039,-0.0703 0.018854,-0.12563 9.367e-4,-0.009 0.00165,-0.0128 0.00253,-0.0209 0.00223,0.009 0.00258,0.022 0.00537,0.0304 0.00846,0.0253 0.018258,0.0443 0.030926,0.0568 0.00634,0.005 0.013552,0.0128 0.027946,0.0128 0.0072,6.2e-4 0.015237,-0.001 0.020568,-0.004 0.00533,-0.002 0.00888,-0.005 0.011556,-0.009 0.01064,-0.0147 0.01379,-0.0344 0.01379,-0.0681 0,-0.0198 0.00624,-0.0425 0.016024,-0.0623 0.00978,-0.0198 0.02387,-0.0366 0.03577,-0.0443 0.037289,-0.0244 0.062822,-0.0685 0.062163,-0.2866 -0.00119,-0.0645 -0.049329,-0.12472 -0.073993,-0.18718 l -2.971e-4,-0.019 c -8.063e-4,-0.0386 -0.022263,-0.1053 -0.04814,-0.15346 -0.011263,-0.0209 -0.019866,-0.0368 -0.027051,-0.0482 -0.00359,-0.005 -0.00661,-0.011 -0.010127,-0.0147 -0.00353,-0.004 -0.00661,-0.007 -0.015731,-0.011 -0.00456,-0.001 -0.011373,-0.002 -0.016922,-9.5e-4 -0.00555,9.5e-4 -0.00921,0.004 -0.011849,0.005 -0.00526,0.004 -0.00778,0.007 -0.010439,0.0128 -0.00364,0.005 -0.00758,0.0146 -0.011556,0.0244 -3.476e-4,-0.005 -7.58e-4,-0.005 -0.00112,-0.011 -0.00368,-0.0494 -0.020489,-0.11043 -0.040837,-0.14138 -0.00698,-0.011 -0.012252,-0.0183 -0.018854,-0.0243 -0.0033,-0.002 -0.00645,-0.006 -0.015804,-0.009 -0.00467,-9.3e-4 -0.011336,-6.2e-4 -0.016317,6.4e-4 -0.00498,0.001 -0.00813,0.004 -0.010127,0.005 -0.00804,0.007 -0.00822,0.0147 -0.010127,0.0247 -0.0019,0.011 -0.00311,0.0247 -0.00447,0.043 -0.00383,0.0516 -0.00923,0.0802 -0.014687,0.10439 -0.00509,-0.0165 -0.010109,-0.0271 -0.0152,-0.0575 -0.00815,-0.0487 -0.016024,-0.11464 -0.022505,-0.19625 -0.015823,-0.19923 -0.052966,-0.44534 -0.08339,-0.54987 -0.029721,-0.10219 -0.056617,-0.24271 -0.059692,-0.30961 -0.00163,-0.0357 -0.00346,-0.0586 -0.00648,-0.0711 -7.483e-4,-0.004 -0.00107,-0.005 -0.00374,-0.009 -6.615e-4,-9.5e-4 -0.0013,-0.002 -0.00306,-0.004 -8.787e-4,-6.4e-4 -0.00355,-0.002 -0.00364,-0.002 -9.52e-5,-5e-5 -0.00608,-0.002 -0.00619,-0.002 -9.55e-5,-1e-5 -0.0078,-3.1e-4 -0.00789,-3.1e-4 -9.54e-5,0 -0.00698,10e-4 -0.00709,10e-4 -9.93e-5,2e-5 -0.00309,0.001 -0.00418,0.002 -0.00108,6.3e-4 -0.00189,0.001 -0.00253,0.002 -0.00511,0.005 -0.00483,0.005 -0.00597,0.009 -0.00113,0.002 -0.002,0.007 -0.00306,0.011 -0.00852,0.035 -0.020088,0.12416 -0.037484,0.28001 -0.0067,0.0601 -0.016592,0.11263 -0.027051,0.14889 -0.00524,0.0183 -0.010878,0.0321 -0.015493,0.0401 -0.00172,0.002 -0.0026,0.004 -0.00335,0.006 -0.00333,7e-5 -0.00657,-0.001 -0.00932,-3.1e-4 -0.00742,0.002 -0.011299,0.005 -0.014614,0.009 -0.00661,0.007 -0.01064,0.0147 -0.014376,0.0249 -0.00751,0.0205 -0.01249,0.0494 -0.01357,0.0831 -2.595e-4,0.009 -0.00104,0.0128 -0.00141,0.019 -0.014541,-0.0771 -0.029473,-0.19938 -0.032938,-0.34753 -0.00418,-0.17856 -0.020229,-0.38539 -0.03659,-0.46269 -0.00615,-0.0291 -0.01086,-0.0487 -0.015804,-0.0602 -0.00124,-0.002 -0.00231,-0.005 -0.00476,-0.009 -0.00124,-10e-4 -0.00256,-0.004 -0.00701,-0.005 -0.00111,-3.1e-4 -0.00385,-10e-4 -0.00396,-10e-4 -1.106e-4,-4e-5 -0.00555,-9.5e-4 -0.00566,-9.5e-4 z m 0.1700573,0.74976 v 7e-5 c 0.00223,1.7e-4 0.00436,6.1e-4 0.00573,0.001 -0.00344,-0.001 -0.00831,-3.2e-4 -0.012966,-6.5e-4 4.925e-4,-1.8e-4 1.559e-4,-1.8e-4 8.208e-4,-3.1e-4 0.0018,-3.1e-4 0.00418,-3.1e-4 0.00641,-2.7e-4 z m -0.7935731,1.49265 c -7.146e-4,9e-5 -0.00132,2.9e-4 -0.00201,2.9e-4 -5.216e-4,-1.1e-4 -2.064e-4,-1.1e-4 -5.987e-4,-2e-4 8.642e-4,-8e-5 0.00174,-8e-5 0.0026,-4e-5 z m 0.7871643,0.60281 c 0.0012,1.1e-4 0.0012,2.1e-4 0.00171,3.3e-4 -0.00201,3.2e-4 -0.00458,-6.4e-4 -0.00619,0 -1.27e-5,0 0.00223,-6.4e-4 0.00447,-3.3e-4 z"
       id="path845"
       inkscape:connector-curvature="0"
       sodipodi:nodetypes="cccccccccccccccccccccccccccccsccccccccccccccccccccccscccccccccccccccccccccccccccccccscccccccccccccccccccsccccccccccccccccccccccccscccccccccccccccsccccccccccscscccccccccccccccccccccccccccccccccsccccccccccccscccccccccccacccccccccccccccccsccccsccscccccccccccccccccccccccccccccccccccccccccccccccsccccsccccccccccccccccccsccccccccccccccsccccccccssccccccccccccccccccccccsccccccccccccccccccccccc" />
  </g>
</svg>
