<?xml version="1.0" encoding="UTF-8" standalone="no"?>

<!-- Created with Inkscape (http://www.inkscape.org/) -->
<svg width="32" version="1.1" xmlns="http://www.w3.org/2000/svg" height="32" xmlns:xlink="http://www.w3.org/1999/xlink" xmlns:inkscape="http://www.inkscape.org/namespaces/inkscape">
 <defs id="defs5455">
  <linearGradient inkscape:collect="always" id="linearGradient4303">
   <stop style="stop-color:#197cf1" id="stop4305"/>
   <stop offset="1" style="stop-color:#21c9fb" id="stop4307"/>
  </linearGradient>
  <linearGradient inkscape:collect="always" xlink:href="#linearGradient4303" id="linearGradient4217" y1="543.79797" y2="503.798" x2="0" gradientUnits="userSpaceOnUse" gradientTransform="matrix(0.70000012 0 0 0.70000031 117.57131 165.13922)"/>
  <linearGradient inkscape:collect="always" id="linearGradient4227">
   <stop style="stop-color:#292c2f" id="stop4229"/>
   <stop offset="1" style="stop-opacity:0" id="stop4231"/>
  </linearGradient>
  <linearGradient inkscape:collect="always" xlink:href="#linearGradient4227" id="linearGradient4385" y1="524.79797" x1="401.57144" y2="531.79797" x2="408.57147" gradientUnits="userSpaceOnUse" gradientTransform="matrix(1 0 0 1 2.999952 0)"/>
  <linearGradient inkscape:collect="always" id="linearGradient4290">
   <stop style="stop-color:#7cbaf8" id="stop4292"/>
   <stop offset="1" style="stop-color:#f4fcff" id="stop4294"/>
  </linearGradient>
  <linearGradient inkscape:collect="always" xlink:href="#linearGradient4290" id="linearGradient4273" y1="22" y2="10" x2="0" gradientUnits="userSpaceOnUse"/>
 </defs>
 <metadata id="metadata5458"/>
 <g inkscape:label="Capa 1" inkscape:groupmode="layer" id="layer1" transform="matrix(1 0 0 1 -384.57143 -515.798)">
  <path inkscape:connector-curvature="0" style="fill:url(#linearGradient4217)" id="rect4144" d="m 389.57138,517.798 0,28 21.99999,0 0,-21 -6.99999,-7 -15,0 z"/>
  <path inkscape:connector-curvature="0" style="fill:#313437;fill-rule:evenodd" id="path4164" d="m 411.57137,524.798 -6.99999,-7 0,7 z"/>
  <path inkscape:connector-curvature="0" style="fill:url(#linearGradient4385);opacity:0.2;fill-rule:evenodd" id="path4306" d="m 404.57138,524.798 6.99999,7 0,-7 z"/>
  <path style="fill:url(#linearGradient4273)" id="rect4166" d="M 14.5 10 C 12.00701 10 10 12.00701 10 14.5 C 10 16.99299 12.00701 19 14.5 19 C 15.565176 19 16.529734 18.62001 17.298828 18.005859 L 21.292969 22 L 22 21.292969 L 18.005859 17.298828 C 18.62001 16.529734 19 15.565176 19 14.5 C 19 12.00701 16.99299 10 14.5 10 z M 14.5 11 C 16.43899 11 18 12.56101 18 14.5 C 18 16.43899 16.43899 18 14.5 18 C 12.56101 18 11 16.43899 11 14.5 C 11 12.56101 12.56101 11 14.5 11 z " transform="matrix(1 0 0 1 384.57143 515.798)"/>
 </g>
</svg>
