<svg height="32" viewBox="0 0 32 32" width="32" xmlns="http://www.w3.org/2000/svg" xmlns:xlink="http://www.w3.org/1999/xlink"><linearGradient id="a" gradientUnits="userSpaceOnUse" x1="22.00000002857" x2="22.00000002857" y1="29.9999992" y2="22.9999988"><stop offset="0" stop-color="#82868d"/><stop offset="1" stop-color="#d9dada"/></linearGradient><linearGradient id="b" gradientTransform="matrix(1 0 0 .97607473 -.000001 .598619)" gradientUnits="userSpaceOnUse" x1="16" x2="16" y1="26" y2="1.411719"><stop offset="0" stop-color="#f79f06"/><stop offset=".0427864" stop-color="#eeab32"/><stop offset=".16666667" stop-color="#e18f00"/><stop offset=".80145305" stop-color="#f8c468"/><stop offset="1" stop-color="#ffc35a"/></linearGradient><circle cx="21.5" cy="26.5" fill="url(#a)" r="3.5"/><path d="m16 2c-1.984375 0-3.5 1.5468495-3.5 3.4765625-.000217.166748.014159.3590775.042969.5234375-3.6145912 1.227326-4.538666 4.528186-4.542969 8.263672 0 4.880374-4 8.784177-6 10.736328v1h14 14v-1c-2-1.95215-6-5.855954-6-10.736328-.0043-3.735486-.928379-7.036346-4.542969-8.263672.02881-.16436.043189-.3566895.042969-.5234375 0-1.929713-1.515625-3.4765625-3.5-3.4765625z" fill="url(#b)"/><path d="m2 25h28v.999999h-28z" opacity=".15"/><path d="m12.546875 5c-.021126.1573019-.046875.313055-.046875.4765625-.000217.166748.014159.3590775.042969.5234375h6.914062c.02881-.16436.043189-.3566895.042969-.5234375 0-.1635075-.025749-.3192606-.046875-.4765625z" opacity=".15"/></svg>