<svg height="32" width="32" xmlns="http://www.w3.org/2000/svg" xmlns:xlink="http://www.w3.org/1999/xlink"><linearGradient id="h" gradientUnits="userSpaceOnUse" x1="22" x2="22" xlink:href="#a" y1="30" y2="8"/><linearGradient id="g" gradientUnits="userSpaceOnUse" x1="18" x2="30" y1="18" y2="30"><stop offset="0" stop-color="#292c2f"/><stop offset="1" stop-opacity="0"/></linearGradient><linearGradient id="d" gradientUnits="userSpaceOnUse" x1="25" x2="25" xlink:href="#b" y1="8" y2="2"/><linearGradient id="b" gradientUnits="userSpaceOnUse" x2="0" y1="30" y2="8"><stop offset="0" stop-color="#cea476"/><stop offset="1" stop-color="#dab58b"/></linearGradient><linearGradient id="e" gradientTransform="matrix(.35 0 0 .70968 -120 -355.923)" gradientUnits="userSpaceOnUse" x1="411.427" x2="411.427" y1="543.8" y2="512.8"><stop offset="0" stop-color="#73ba25"/><stop offset="1" stop-color="#81c13b" stop-opacity=".85"/></linearGradient><linearGradient id="c" gradientTransform="matrix(.66667 0 0 -.37037 -256.38 197.926)" gradientUnits="userSpaceOnUse" x1="408.57" x2="408.57" y1="512.798" y2="504.698"><stop offset="0" stop-color="#ebc69a"/><stop offset="1" stop-color="#73ba25" stop-opacity="0"/></linearGradient><linearGradient id="f" gradientTransform="translate(-256.38 -333.867) scale(.66667)" gradientUnits="userSpaceOnUse" x1="411.57" x2="411.57" xlink:href="#c" y1="512.801" y2="503.801"><stop offset="0" stop-color="#ebc69a"/><stop offset="1" stop-color="#f4e0c8" stop-opacity="0"/></linearGradient><linearGradient id="a" gradientUnits="userSpaceOnUse" x2="0" y1="30" y2="8"><stop offset="0" stop-color="#cfd2d5"/><stop offset="1" stop-color="#eff0f1"/></linearGradient><path d="M6 2L2 8h28l-4-6H7z" fill="url(#d)" fill-rule="evenodd"/><path d="M2 8h28v22H2z" fill="url(#b)"/><path d="M2 8h12v22H2z" fill="url(#a)"/><path d="M14 8h16v22H14z" fill="url(#e)"/><path d="M3 24v5h5v-5zm1 1h1v1h1v-1h1v2H6v1H5v-1H4z" fill="#5c4c3e"/><g stroke-opacity=".55" stroke-width="1.867"><path d="M14 2v9l1-1 1 1 1-1s1 1 1 .972V2z" fill="#f4e0c8"/><path d="M14 2h4v6h-4z" fill="url(#f)"/><path d="M14 8v3l1-1 1 1 1-1s1 1 1 .973V8z" fill="url(#c)"/></g><path d="M18.969 16.844L30 27.875v-6.36l-3.757-3.758L22 16zm-2.125 2.125L27.875 30h-6.36l-3.758-3.757L16 22z" fill="url(#g)" opacity=".2"/><path d="M22 16a5.96 5.96 0 0 0-3.031.844l.562.562.188.188 1.937 1.937.719-.718-1.625-1.625c.195-.052.39-.098.594-.125.052-.008.103-.026.156-.032.168-.017.327-.031.5-.031a5 5 0 0 1 5 5c0 .243-.028.486-.063.719-.02.136-.031.274-.062.406a4.737 4.737 0 0 1-.281.813c-.014.03-.018.063-.032.093-.04.092-.108.164-.156.25-.004.008.005.023 0 .032l.75.718A5.96 5.96 0 0 0 28 22a6 6 0 0 0-6-6zm-5.156 2.969A5.96 5.96 0 0 0 16 22a6 6 0 0 0 6 6 5.96 5.96 0 0 0 3.031-.844l-.562-.562-.188-.188-1.937-1.906-.688.688 1.594 1.625c-.195.05-.39.097-.594.125-.052.007-.103.025-.156.03-.168.018-.327.032-.5.032s-.332-.014-.5-.031-.337-.03-.5-.063A5.017 5.017 0 0 1 17 22c0-.248.028-.48.063-.719.02-.136.031-.274.062-.406.067-.287.167-.548.281-.813.013-.03.018-.063.032-.093.04-.09.108-.165.156-.25v-.032z" fill="url(#h)"/><path d="M2 29v1h12v-1z" fill="#adb1b3"/><path d="M14 29h16v1H14z" fill="#649e26"/></svg>