<?xml version="1.0" encoding="UTF-8" standalone="no"?>
<svg
   width="24"
   height="24"
   viewBox="0 0 24 24"
   version="1.1"
   id="svg2"
   sodipodi:docname="bx-rename.svg"
   inkscape:version="1.3 (0e150ed6c4, 2023-07-21)"
   xmlns:inkscape="http://www.inkscape.org/namespaces/inkscape"
   xmlns:sodipodi="http://sodipodi.sourceforge.net/DTD/sodipodi-0.dtd"
   xmlns="http://www.w3.org/2000/svg"
   xmlns:svg="http://www.w3.org/2000/svg">
  <defs
     id="defs2" />
  <sodipodi:namedview
     id="namedview2"
     pagecolor="#ffffff"
     bordercolor="#666666"
     borderopacity="1.0"
     inkscape:showpageshadow="2"
     inkscape:pageopacity="0.0"
     inkscape:pagecheckerboard="0"
     inkscape:deskcolor="#d1d1d1"
     inkscape:zoom="33.666667"
     inkscape:cx="11.985149"
     inkscape:cy="12"
     inkscape:window-width="2560"
     inkscape:window-height="1023"
     inkscape:window-x="0"
     inkscape:window-y="0"
     inkscape:window-maximized="1"
     inkscape:current-layer="svg2" />
  <path
     d="M20.005 5.995h-1v2h1v8h-1v2h1c1.103 0 2-.897 2-2v-8c0-1.102-.898-2-2-2zm-14 4H15v4H6.005z"
     id="path1"
     style="fill:#f2f2f2" />
  <path
     d="M17.005 17.995V4H20V2h-8v2h3.005v1.995h-11c-1.103 0-2 .897-2 2v8c0 1.103.897 2 2 2h11V20H12v2h8v-2h-2.995v-2.005zm-13-2v-8h11v8h-11z"
     id="path2"
     style="fill:#f2f2f2" />
</svg>
