<?xml version="1.0" encoding="UTF-8" standalone="no"?>
<!-- Created with Inkscape (http://www.inkscape.org/) -->

<svg
   xmlns:dc="http://purl.org/dc/elements/1.1/"
   xmlns:cc="http://creativecommons.org/ns#"
   xmlns:rdf="http://www.w3.org/1999/02/22-rdf-syntax-ns#"
   xmlns:svg="http://www.w3.org/2000/svg"
   xmlns="http://www.w3.org/2000/svg"
   xmlns:sodipodi="http://sodipodi.sourceforge.net/DTD/sodipodi-0.dtd"
   xmlns:inkscape="http://www.inkscape.org/namespaces/inkscape"
   width="16"
   height="16"
   viewBox="0 0 4.2333333 4.2333333"
   version="1.1"
   id="svg8"
   inkscape:version="0.92.4 5da689c313, 2019-01-14"
   sodipodi:docname="midi-connector.svg">
  <defs
     id="defs2" />
  <sodipodi:namedview
     id="base"
     pagecolor="#ffffff"
     bordercolor="#666666"
     borderopacity="1.0"
     inkscape:pageopacity="0.0"
     inkscape:pageshadow="2"
     inkscape:zoom="7.919596"
     inkscape:cx="3.7723253"
     inkscape:cy="26.392644"
     inkscape:document-units="mm"
     inkscape:current-layer="layer1"
     showgrid="false"
     units="px"
     inkscape:window-width="1920"
     inkscape:window-height="992"
     inkscape:window-x="0"
     inkscape:window-y="27"
     inkscape:window-maximized="1" />
  <metadata
     id="metadata5">
    <rdf:RDF>
      <cc:Work
         rdf:about="">
        <dc:format>image/svg+xml</dc:format>
        <dc:type
           rdf:resource="http://purl.org/dc/dcmitype/StillImage" />
        <dc:title></dc:title>
      </cc:Work>
    </rdf:RDF>
  </metadata>
  <g
     inkscape:label="Layer 1"
     inkscape:groupmode="layer"
     id="layer1"
     transform="translate(0,-292.76667)">
    <path
       style="opacity:1;fill:#e6e6e6;stroke:#cccccc;stroke-width:0;stroke-linecap:round;stroke-linejoin:round;stroke-miterlimit:4;stroke-dasharray:none;paint-order:normal"
       d="M 8 0.58984375 A 7.4107144 7.4107144 0 0 0 0.58984375 8 A 7.4107144 7.4107144 0 0 0 5.5527344 14.986328 A 3.1696422 5.1166177 0 0 1 8 13.115234 A 3.1696422 5.1166177 0 0 1 10.445312 14.986328 A 7.4107144 7.4107144 0 0 0 15.410156 8 A 7.4107144 7.4107144 0 0 0 8 0.58984375 z M 8 1.609375 A 1.3392857 1.3392857 0 0 1 9.3398438 2.9472656 A 1.3392857 1.3392857 0 0 1 8 4.2871094 A 1.3392857 1.3392857 0 0 1 6.6601562 2.9472656 A 1.3392857 1.3392857 0 0 1 8 1.609375 z M 4.4648438 2.9902344 A 1.3392857 1.3392857 0 0 1 5.8027344 4.328125 A 1.3392857 1.3392857 0 0 1 4.4648438 5.6679688 A 1.3392857 1.3392857 0 0 1 3.125 4.328125 A 1.3392857 1.3392857 0 0 1 4.4648438 2.9902344 z M 11.570312 2.9902344 A 1.3392857 1.3392857 0 0 1 12.910156 4.328125 A 1.3392857 1.3392857 0 0 1 11.570312 5.6679688 A 1.3392857 1.3392857 0 0 1 10.230469 4.328125 A 1.3392857 1.3392857 0 0 1 11.570312 2.9902344 z M 2.84375 6.1953125 A 1.3392857 1.3392857 0 0 1 4.1816406 7.5351562 A 1.3392857 1.3392857 0 0 1 2.84375 8.8730469 A 1.3392857 1.3392857 0 0 1 1.5039062 7.5351562 A 1.3392857 1.3392857 0 0 1 2.84375 6.1953125 z M 13.199219 6.1953125 A 1.3392857 1.3392857 0 0 1 14.539062 7.5351562 A 1.3392857 1.3392857 0 0 1 13.199219 8.8730469 A 1.3392857 1.3392857 0 0 1 11.859375 7.5351562 A 1.3392857 1.3392857 0 0 1 13.199219 6.1953125 z "
       transform="matrix(0.26458333,0,0,0.26458333,0,292.76667)"
       id="path947" />
  </g>
</svg>
