<svg width="800" height="800" viewBox="0 0 800 800" fill="none" xmlns="http://www.w3.org/2000/svg">
<rect width="800" height="800" rx="120" fill="white"/>
<path fill-rule="evenodd" clip-rule="evenodd" d="M278.591 134C200.945 134 138 196.945 138 274.591V524.844C138 602.491 200.945 665.435 278.591 665.435H520.409C592.829 665.435 652.46 610.679 660.159 540.309H288.433C265.915 540.309 247.661 522.055 247.661 499.538C247.661 488.824 251.793 479.076 258.551 471.799C259.731 470.217 261.042 468.702 262.481 467.267L389.513 340.669H291.245C268.727 340.669 250.473 322.415 250.473 299.898C250.473 277.38 268.727 259.126 291.245 259.126H490.884C513.402 259.126 531.656 277.38 531.656 299.898C531.656 300.43 531.646 300.959 531.625 301.486C531.927 312.321 527.934 323.252 519.65 331.507L391.955 458.766H526.735C526.735 458.766 564.695 453.142 607.575 411.668C650.456 370.193 661 325.204 661 325.204L661 274.591C661 196.945 598.055 134 520.409 134H278.591Z" fill="url(#paint0_linear)"/>
<defs>
<linearGradient id="paint0_linear" x1="399.5" y1="134" x2="399.5" y2="665.435" gradientUnits="userSpaceOnUse">
<stop stop-color="#FF6600"/>
<stop offset="1" stop-color="#E4245E"/>
</linearGradient>
</defs>
</svg>
