<svg height="32" width="32" xmlns="http://www.w3.org/2000/svg" xmlns:xlink="http://www.w3.org/1999/xlink"><linearGradient id="b" gradientUnits="userSpaceOnUse" x1="2" x2="2" y1="30" y2="2"><stop offset="0" stop-color="#197cf1"/><stop offset="1" stop-color="#20bcfa"/></linearGradient><linearGradient id="d" gradientUnits="userSpaceOnUse" x1="23" x2="30" xlink:href="#a" y1="13" y2="20"/><linearGradient id="a"><stop offset="0" stop-color="#292c2f"/><stop offset="1" stop-opacity="0"/></linearGradient><linearGradient id="c" gradientUnits="userSpaceOnUse" x1="6" x2="26" xlink:href="#a" y1="6" y2="26"/><linearGradient id="e" gradientUnits="userSpaceOnUse" x1="2" x2="2" y1="30" y2="2"><stop offset="0" stop-color="#54d883"/><stop offset="1" stop-color="#abf9c7"/></linearGradient><rect fill="url(#b)" height="28" rx="14" width="28" x="2" y="2"/><path d="M16 2A13.965 13.965 0 0 0 2.078 14.53l.543.07L6 17l7.188 4.133 1.47 8.799A13.97 13.97 0 0 0 30 16c0-7.756-6.244-14-14-14z" fill="url(#c)" fill-rule="evenodd" opacity=".2"/><path d="M29.73 13.27L25 18l3.758 3.758a13.984 13.984 0 0 0 .972-8.488z" fill="url(#d)" fill-rule="evenodd" opacity=".2"/><path d="M16 2a14 14 0 0 0-13.059 9H3l3-1 1 1 1 1v-2l2-1V8l2-1 2-2v1l1-1-1-1h2v1l2-1-1-1v-.95A14 14 0 0 0 16 2zm10.375 4.625L26 7v1h1.469a14 14 0 0 0-1.094-1.375zm1.316 1.684L27 9l-2 2-1 1-1 3v1l1 1 1 1 2 1 2.791-.688A14 14 0 0 0 30 16a14 14 0 0 0-2.309-7.691zM4 13l-1 1h-.838c-.05.34-.088.681-.113 1.023v.002L4 16l1 1 2 1 1 1-1 1v2l1 2 2 2v2.629A14 14 0 0 0 16 30c.17-.003.34-.009.51-.018L17 29v-1l2-1 1-1v-2l1-1v-1l-1-1-3-1-1-1-1-1h-1l-1-1-3-1-2 1H6v-2H5v-2z" fill="url(#e)"/><path d="M29.979 15.414A14 14 0 0 1 16 29 14 14 0 0 1 2.021 15.586 14 14 0 0 0 2 16a14 14 0 0 0 14 14 14 14 0 0 0 14-14 14 14 0 0 0-.021-.586z" fill="#292c2f" opacity=".2"/></svg>