<svg height="32" width="32" xmlns="http://www.w3.org/2000/svg" xmlns:xlink="http://www.w3.org/1999/xlink"><linearGradient id="g" gradientTransform="rotate(-90 24 10)" gradientUnits="userSpaceOnUse" x1="22.9" x2="25.1" y1="10" y2="10"><stop offset="0" stop-color="#fdae23"/><stop offset="1" stop-color="#fdca73"/></linearGradient><linearGradient id="h" gradientTransform="rotate(-90 26 12)" gradientUnits="userSpaceOnUse" x1="24.9" x2="27.1" y1="12" y2="12"><stop offset="0" stop-color="#da4453"/><stop offset="1" stop-color="#e47681"/></linearGradient><linearGradient id="i" gradientTransform="rotate(-90 24 14)" gradientUnits="userSpaceOnUse" x1="22.9" x2="25.1" y1="14" y2="14"><stop offset="0" stop-color="#27ab5f"/><stop offset="1" stop-color="#4bd786"/></linearGradient><linearGradient id="j" gradientTransform="rotate(-90 22 12)" gradientUnits="userSpaceOnUse" x1="20.9" x2="23.1" y1="12" y2="12"><stop offset="0" stop-color="#0c85dc"/><stop offset="1" stop-color="#43aaf5"/></linearGradient><linearGradient id="a"><stop offset="0" stop-color="#0f1419"/><stop offset="1" stop-color="#22282e"/></linearGradient><radialGradient id="k" cx="2" cy="20.835" gradientTransform="matrix(1.998 0 .00002 11.988 -1.996 -223.769)" gradientUnits="userSpaceOnUse" r="1.001" xlink:href="#a"/><radialGradient id="n" cx="3.001" cy="19.834" gradientTransform="matrix(-1.998 0 0 11.988 35.996 -211.768)" gradientUnits="userSpaceOnUse" r="1.001" xlink:href="#a"/><linearGradient id="b"><stop offset="0" stop-color="#6f7881"/><stop offset="1" stop-color="#b0b4b8"/></linearGradient><linearGradient id="c"><stop offset="0" stop-color="#171e25"/><stop offset="1" stop-color="#333c45"/></linearGradient><linearGradient id="d" gradientUnits="userSpaceOnUse" x1="16" x2="16" y1="26" y2="6"><stop offset="0" stop-color="#535a61"/><stop offset=".25" stop-color="#6f7881"/><stop offset="1" stop-color="#adb6bb"/></linearGradient><linearGradient id="l" gradientUnits="userSpaceOnUse" x1="19" x2="19" xlink:href="#b" y1="22" y2="16"/><linearGradient id="m" gradientUnits="userSpaceOnUse" x1="19" x2="19" xlink:href="#c" y1="21" y2="17"/><linearGradient id="f" gradientUnits="userSpaceOnUse" x1="8" x2="8" xlink:href="#c" y1="15" y2="9"/><linearGradient id="e" gradientUnits="userSpaceOnUse" x1="6" x2="6" xlink:href="#b" y1="15" y2="9"/><path d="M7 6c-2.761 0-5 3.358-5 7.5v.5l1 1v10l-.021.482a2.5 2.5 0 0 0 3.289-.214L10.535 21h10.93l4.267 4.268a2.5 2.5 0 0 0 3.29.212L29 25V15l1-1v-.5C30 9.358 27.761 6 25 6z" fill="url(#d)"/><path d="M28 12a4 4 0 0 1-4 4 4 4 0 0 1-4-4 4 4 0 0 1 4-4 4 4 0 0 1 4 4zm-16 0a4 4 0 0 1-4 4 4 4 0 0 1-4-4 4 4 0 0 1 4-4 4 4 0 0 1 4 4z" fill="#6f7881"/><circle cx="8" cy="12" fill="url(#e)" r="3"/><path d="M8 9a3 3 0 0 0-1 .174V11H5.176A3 3 0 0 0 5 12a3 3 0 0 0 .174 1H7v1.824A3 3 0 0 0 8 15a3 3 0 0 0 1-.174V13h1.824A3 3 0 0 0 11 12a3 3 0 0 0-.174-1H9V9.176A3 3 0 0 0 8 9z" fill="url(#f)"/><path d="M24 8.9a1.1 1.1 0 0 1 1.1 1.1 1.1 1.1 0 0 1-1.1 1.1 1.1 1.1 0 0 1-1.1-1.1A1.1 1.1 0 0 1 24 8.9z" fill="url(#g)"/><path d="M26 10.9a1.1 1.1 0 0 1 1.1 1.1 1.1 1.1 0 0 1-1.1 1.1 1.1 1.1 0 0 1-1.1-1.1 1.1 1.1 0 0 1 1.1-1.1z" fill="url(#h)"/><path d="M24 12.9a1.1 1.1 0 0 1 1.1 1.1 1.1 1.1 0 0 1-1.1 1.1 1.1 1.1 0 0 1-1.1-1.1 1.1 1.1 0 0 1 1.1-1.1z" fill="url(#i)"/><path d="M22 10.9a1.1 1.1 0 0 1 1.1 1.1 1.1 1.1 0 0 1-1.1 1.1 1.1 1.1 0 0 1-1.1-1.1 1.1 1.1 0 0 1 1.1-1.1z" fill="url(#j)"/><path d="M10.535 20l-4.267 4.268A2.5 2.5 0 0 1 3 24.496V25l-.021.482a2.5 2.5 0 0 0 3.289-.214L10.535 21h10.93l4.267 4.268a2.5 2.5 0 0 0 3.29.212L29 25v-.502a2.5 2.5 0 0 1-3.268-.23L21.465 20z" fill="#292c2f" opacity=".2"/><path d="M2 14a2 4 0 0 1 2 4v4l-.002.002a2 4 0 0 1 0 .004 2 4 0 0 1-1.02 3.484 2.5 2.5 0 0 1-.98-1.984A2.5 2.5 0 0 1 2 23.465V18z" fill="url(#k)"/><path d="M23 19a3 3 0 0 1-3 3 3 3 0 0 1-3-3 3 3 0 0 1 3-3 3 3 0 0 1 3 3zm-8 0a3 3 0 0 1-3 3 3 3 0 0 1-3-3 3 3 0 0 1 3-3 3 3 0 0 1 3 3z" fill="url(#l)"/><path d="M22 19a2 2 0 0 1-2 2 2 2 0 0 1-2-2 2 2 0 0 1 2-2 2 2 0 0 1 2 2zm-8 0a2 2 0 0 1-2 2 2 2 0 0 1-2-2 2 2 0 0 1 2-2 2 2 0 0 1 2 2z" fill="url(#m)"/><path d="M30 14a2 4 0 0 0-2 4v4l.002.002a2 4 0 0 0 0 .004 2 4 0 0 0 1.02 3.484 2.5 2.5 0 0 0 .98-1.984 2.5 2.5 0 0 0-.002-.041V18z" fill="url(#n)"/></svg>