<?xml version="1.0" encoding="UTF-8" standalone="no"?>
<!-- Created with Inkscape (http://www.inkscape.org/) -->

<svg
   xmlns:dc="http://purl.org/dc/elements/1.1/"
   xmlns:cc="http://creativecommons.org/ns#"
   xmlns:rdf="http://www.w3.org/1999/02/22-rdf-syntax-ns#"
   xmlns:svg="http://www.w3.org/2000/svg"
   xmlns="http://www.w3.org/2000/svg"
   xmlns:xlink="http://www.w3.org/1999/xlink"
   xmlns:sodipodi="http://sodipodi.sourceforge.net/DTD/sodipodi-0.dtd"
   xmlns:inkscape="http://www.inkscape.org/namespaces/inkscape"
   width="32"
   height="32"
   id="svg5453"
   version="1.1"
   inkscape:version="0.48.4 r9939"
   sodipodi:docname="applications-education-mathematics.svg">
  <defs
     id="defs5455">
    <linearGradient
       gradientUnits="userSpaceOnUse"
       y2="503.798"
       x2="384.57144"
       y1="543.79797"
       x1="434.57144"
       id="linearGradient4586"
       xlink:href="#linearGradient4273"
       inkscape:collect="always"
       gradientTransform="translate(-1.1547241e-5,-1.6784668e-7)" />
    <linearGradient
       inkscape:collect="always"
       id="linearGradient4273">
      <stop
         style="stop-color:#343b40;stop-opacity:1"
         offset="0"
         id="stop4275" />
      <stop
         style="stop-color:#555e63;stop-opacity:1"
         offset="1"
         id="stop4277" />
    </linearGradient>
    <linearGradient
       id="linearGradient4152-0"
       inkscape:collect="always">
      <stop
         id="stop4154-0"
         offset="0"
         style="stop-color:#bd8d48;stop-opacity:1" />
      <stop
         id="stop4156-8"
         offset="1"
         style="stop-color:#e8b971;stop-opacity:1" />
    </linearGradient>
    <linearGradient
       inkscape:collect="always"
       xlink:href="#linearGradient4273"
       id="linearGradient3085"
       gradientUnits="userSpaceOnUse"
       gradientTransform="matrix(1,0,0,1.050001,-36.00001,-25.190442)"
       x1="434.57144"
       y1="543.79797"
       x2="384.57144"
       y2="503.798" />
    <linearGradient
       inkscape:collect="always"
       xlink:href="#linearGradient4152-0"
       id="linearGradient3087"
       gradientUnits="userSpaceOnUse"
       gradientTransform="matrix(1,0,0,1.0500001,348.57142,499.59799)"
       x1="24"
       y1="43.999973"
       x2="24"
       y2="4" />
  </defs>
  <sodipodi:namedview
     id="base"
     pagecolor="#ffffff"
     bordercolor="#666666"
     borderopacity="1.0"
     inkscape:pageopacity="0"
     inkscape:pageshadow="2"
     inkscape:zoom="15.999999"
     inkscape:cx="3.8900684"
     inkscape:cy="13.319493"
     inkscape:document-units="px"
     inkscape:current-layer="g3068"
     showgrid="true"
     fit-margin-top="0"
     fit-margin-left="0"
     fit-margin-right="0"
     fit-margin-bottom="0"
     inkscape:window-width="1864"
     inkscape:window-height="1060"
     inkscape:window-x="54"
     inkscape:window-y="-3"
     inkscape:window-maximized="1"
     inkscape:showpageshadow="false"
     borderlayer="true"
     showguides="true"
     inkscape:snap-bbox="true">
    <inkscape:grid
       type="xygrid"
       id="grid4063" />
    <sodipodi:guide
       position="4.2167969e-05,32.000026"
       orientation="32,0"
       id="guide4625" />
    <sodipodi:guide
       position="4.2167969e-05,2.6367188e-05"
       orientation="0,31.999969"
       id="guide4627" />
    <sodipodi:guide
       position="32.000012,2.6367188e-05"
       orientation="-32,0"
       id="guide4629" />
    <sodipodi:guide
       position="32.000012,32.000026"
       orientation="0,-31.999969"
       id="guide4631" />
    <sodipodi:guide
       position="2.0000422,30.000026"
       orientation="28,0"
       id="guide4633" />
    <sodipodi:guide
       position="2.0000422,2.0000264"
       orientation="0,27.999969"
       id="guide4635" />
    <sodipodi:guide
       position="30,17"
       orientation="-28,0"
       id="guide4637" />
    <sodipodi:guide
       position="30.000012,30.000026"
       orientation="0,-27.999969"
       id="guide4639" />
    <sodipodi:guide
       position="9.0000117,24.000271"
       orientation="14,0"
       id="guide4429" />
    <sodipodi:guide
       position="9.0000117,10.000271"
       orientation="0,14.000031"
       id="guide4431" />
    <sodipodi:guide
       position="23.000042,10.000271"
       orientation="-14,0"
       id="guide4433" />
    <sodipodi:guide
       position="23.000042,24.000271"
       orientation="0,-14.000031"
       id="guide4435" />
  </sodipodi:namedview>
  <metadata
     id="metadata5458">
    <rdf:RDF>
      <cc:Work
         rdf:about="">
        <dc:format>image/svg+xml</dc:format>
        <dc:type
           rdf:resource="http://purl.org/dc/dcmitype/StillImage" />
        <dc:title />
      </cc:Work>
    </rdf:RDF>
  </metadata>
  <g
     inkscape:label="Capa 1"
     inkscape:groupmode="layer"
     id="layer1"
     transform="translate(-384.57143,-515.798)">
    <g
       id="g3068"
       transform="matrix(0.66666621,0,0,0.66666621,152.19064,181.9329)">
      <rect
         y="503.798"
         x="348.57144"
         height="42.000034"
         width="48.000011"
         id="rect4567"
         style="fill:url(#linearGradient3085);fill-opacity:1;stroke:none" />
      <path
         id="rect4778"
         d="m 348.57142,503.798 0,2.1 0,39.9 2,0 46,0 5e-5,-3.14998 -5e-5,-36.75002 0,-2.1 -2,0 -44,0 z m 3.00007,3 41.99996,0 0,36.00002 -41.99996,0 z"
         style="fill:url(#linearGradient3087);fill-opacity:1;stroke:none"
         inkscape:connector-curvature="0"
         sodipodi:nodetypes="cccccccccccccccc" />
      <rect
         y="544.29803"
         x="348.57147"
         height="1.4999508"
         width="47.999954"
         id="rect4799"
         style="fill:#aa7f41;fill-opacity:1;stroke:none" />
      <path
         id="rect4553"
         d="m 351.57149,506.72982 0,36.0682 0,0 41.99996,0 0,0 0,-36.0682 0,0 z m 1.49994,1.56818 39.00002,0 0,33.00002 -39.00002,0 z"
         style="text-decoration:none;color:#000000;fill:#aa7f41;fill-opacity:0.49803922;fill-rule:nonzero;stroke:none;visibility:visible;display:inline;overflow:visible;enable-background:accumulate"
         inkscape:connector-curvature="0"
         sodipodi:nodetypes="ccccccccccccc" />
      <rect
         y="539.79803"
         x="377.07144"
         height="1.4999862"
         width="5.9999447"
         id="rect4568"
         style="text-decoration:none;color:#000000;fill:#007ad9;fill-opacity:1;fill-rule:nonzero;stroke:none;visibility:visible;display:inline;overflow:visible;enable-background:accumulate" />
      <rect
         y="539.79803"
         x="384.57144"
         height="1.500013"
         width="5.9999857"
         id="rect4570"
         style="text-decoration:none;color:#000000;fill:#d6d6d6;fill-opacity:1;fill-rule:nonzero;stroke:none;visibility:visible;display:inline;overflow:visible;enable-background:accumulate" />
      <g
         transform="matrix(0.9115774,-0.4111285,0.4111285,0.9115774,0,-0.71224974)"
         style="font-size:12.79379368000000028px;font-style:normal;font-variant:normal;font-weight:normal;font-stretch:normal;line-height:125%;letter-spacing:0px;word-spacing:0px;fill:#f2f2f2;fill-opacity:1;stroke:none;font-family:Oxygen;-inkscape-font-specification:Oxygen"
         id="text3091">
        <path
           d="m 106.24035,636.71759 -0.14368,-1.0245 3.22969,-3.58576 c 0.21655,-0.24155 0.42479,-0.5539 0.62469,-0.93705 0.20407,-0.38314 0.35191,-0.70798 0.44354,-0.97453 l 0.14368,-0.39355 c -1e-5,-0.51641 -0.14369,-0.91622 -0.43104,-1.19942 -0.28737,-0.28736 -0.6955,-0.43104 -1.22441,-0.43104 -0.88291,0 -1.5784,0.25613 -2.08649,0.76837 l -0.36232,-0.93704 c 0.57472,-0.5414 1.41598,-0.8121 2.52378,-0.81211 0.84958,10e-6 1.52633,0.23115 2.03026,0.69342 0.50392,0.45811 0.75588,1.0724 0.75588,1.84285 -0.0167,0.0583 -0.0417,0.13744 -0.075,0.23739 -0.0333,0.0958 -0.1062,0.28528 -0.21864,0.56847 -0.10829,0.2832 -0.22282,0.55182 -0.34359,0.80586 -0.12078,0.25405 -0.27487,0.53308 -0.46227,0.83709 -0.18325,0.30403 -0.37066,0.55807 -0.56223,0.76213 l -2.63622,2.81739 4.32915,0 -0.0687,0.96203 -5.4661,0"
           style="fill:#f2f2f2;fill-opacity:1"
           id="path3864"
           inkscape:connector-curvature="0" />
        <path
           d="m 116.48538,632.23227 2.43632,0 0,0.84958 -2.44256,0 0,2.67995 -0.85584,0 0,-2.67995 -2.48004,0 0,-0.84958 2.48629,0 0,-2.64872 0.85583,0 0,2.64872"
           style="fill:#f2f2f2;fill-opacity:1"
           id="path3866"
           inkscape:connector-curvature="0" />
        <path
           d="m 120.25855,636.71759 -0.14368,-1.0245 3.22969,-3.58576 c 0.21655,-0.24155 0.42479,-0.5539 0.62469,-0.93705 0.20407,-0.38314 0.35191,-0.70798 0.44354,-0.97453 l 0.14368,-0.39355 c -1e-5,-0.51641 -0.14369,-0.91622 -0.43104,-1.19942 -0.28737,-0.28736 -0.6955,-0.43104 -1.22441,-0.43104 -0.88291,0 -1.5784,0.25613 -2.08649,0.76837 l -0.36232,-0.93704 c 0.57472,-0.5414 1.41598,-0.8121 2.52378,-0.81211 0.84958,10e-6 1.52633,0.23115 2.03026,0.69342 0.50392,0.45811 0.75588,1.0724 0.75588,1.84285 -0.0167,0.0583 -0.0417,0.13744 -0.075,0.23739 -0.0333,0.0958 -0.1062,0.28528 -0.21864,0.56847 -0.10829,0.2832 -0.22282,0.55182 -0.34359,0.80586 -0.12078,0.25405 -0.27487,0.53308 -0.46227,0.83709 -0.18325,0.30403 -0.37066,0.55807 -0.56223,0.76213 l -2.63622,2.81739 4.32915,0 -0.0687,0.96203 -5.4661,0"
           style="fill:#f2f2f2;fill-opacity:1"
           id="path3868"
           inkscape:connector-curvature="0" />
        <path
           d="m 127.34887,634.36248 0,-0.88707 6.02832,0 0,0.88707 -6.02832,0 m -0.006,-2.63622 0,-0.89956 6.03457,0 0,0.89956 -6.03457,0"
           style="fill:#f2f2f2;fill-opacity:1"
           id="path3870"
           inkscape:connector-curvature="0" />
        <path
           d="m 141.20464,634.39996 -1.06198,0 0,2.31763 -1.04949,0 0,-2.31763 -4.22295,0 0,-0.95578 4.10426,-6.07206 1.16818,0 0,6.12203 1.14944,0 -0.0875,0.90581 m -2.11147,-5.60977 -3.12349,4.70396 3.12349,0 0,-4.70396"
           style="fill:#f2f2f2;fill-opacity:1"
           id="path3872"
           inkscape:connector-curvature="0" />
      </g>
    </g>
  </g>
</svg>
