
<svg xmlns="http://www.w3.org/2000/svg" viewBox="0 0 32 32">
  <defs
     id="defs3051">
    <style
       type="text/css"
       id="current-color-scheme">
      .ColorScheme-Text {
        color:#eff0f1;
      }
      </style>
  </defs>
  <path
     style="fill:currentColor;fill-opacity:1;stroke:none" 
     id="path902-3"
     d="M 10.216059,3.999996 C 6.36165,6.3471 4.006562,10.53215 4,15.04594 4,22.20027 9.798203,28 16.95064,28 c 4.51527,-0.004 8.702067,-2.3616 11.049359,-6.21981 l -0.790448,-0.79065 c -1.804349,1.05104 -3.854009,1.60734 -5.94203,1.61293 -6.556405,0 -11.871426,-5.31642 -11.871426,-11.87455 C 9.399395,8.6383 9.954441,6.58663 11.004389,4.7801 Z M 9.309675,5.81744 c -0.647223,1.55661 -0.984467,3.22463 -0.992794,4.91048 0,7.15433 5.7982,12.95406 12.95064,12.95406 1.70769,-0.004 3.397587,-0.34724 4.972421,-1.00782 l -0.318286,0.13915 c -2.253059,2.60601 -5.526603,4.10473 -8.971016,4.10718 -6.556407,0 -11.871422,-5.31642 -11.871422,-11.87455 0.0047,-3.44701 1.507386,-6.72169 4.116638,-8.97338 z m 14.857,1.99512 h 1.833332 V 8.75008 H 22.333341 L 24.166675,5.93752 H 22.333344 V 5 h 3.66666 z m -2.188636,6.24992 H 23.81137 V 15 h -3.666666 l 1.833335,-2.81258 h -1.833332 v -0.93753 h 3.666659 z m -5.1447,-4.00001 H 18.66667 V 11 H 15.000004 L 16.833339,8.18743 H 15.000007 V 7.2499 h 3.66666 z"
     class="ColorScheme-Text"
     />
</svg>
