<svg xmlns="http://www.w3.org/2000/svg" viewBox="0 0 32 32">
  <defs
     id="defs3051">
    <style
       type="text/css"
       id="current-color-scheme">
      .ColorScheme-Text {
        color:#eff0f1;
      }
      </style>
  </defs>
  <path
     style="fill:currentColor;fill-opacity:1;stroke:none" 
     d="M 16,4 A 12,12 0 0 0 9.916016,5.671875 L 15.292969,11.050781 16,10.339844 11.595703,5.935547 A 11,11 0 0 1 16,5 11,11 0 0 1 27,16 11,11 0 0 1 25.595703,21.351562 l 0.732422,0.728516 A 12,12 0 0 0 28,16 12,12 0 0 0 16,4 Z M 5.671875,9.916016 A 12,12 0 0 0 4,16 12,12 0 0 0 16,28 12,12 0 0 0 22.083984,26.328125 L 16.707031,20.949219 16,21.65625 20.40625,26.060547 A 11,11 0 0 1 16,27 11,11 0 0 1 5,16 11,11 0 0 1 6.404297,10.648438 L 5.671875,9.916016 Z"
     class="ColorScheme-Text"
     />
</svg>
