<svg width="32" xmlns="http://www.w3.org/2000/svg" height="32">
 <defs>
  <linearGradient id="a" y1="392.36" y2="365.2" x2="0" gradientUnits="userSpaceOnUse" gradientTransform="translate(365.57 152.44)">
   <stop stop-color="#ffffff" stop-opacity="0"/>
   <stop offset="1" stop-color="#ffffff" stop-opacity=".2"/>
  </linearGradient>
 </defs>
 <g transform="translate(-384.57-515.8)">
  <g color-rendering="auto" color-interpolation-filters="linearRGB" shape-rendering="auto" image-rendering="auto" text-rendering="auto" color-interpolation="sRGB" color="#000000">
   <path fill="#da2c2c" d="m389.57 517.8v28h22v-28h-14z"/>
   <rect opacity=".25" x="389.57" y="544.8" width="22" height="1"/>
   <rect opacity=".5" x="389.57" y="517.8" width="22" fill="#ffffff" height="1"/>
  </g>
  <rect width="1" x="392.57" y="518.8" fill="#ffffff" height="26" fill-opacity=".252"/>
  <g color-rendering="auto" color-interpolation-filters="linearRGB" shape-rendering="auto" image-rendering="auto" text-rendering="auto" color-interpolation="sRGB" color="#000000">
   <rect x="393.57" y="518.8" fill-opacity=".083" width="1" height="26"/>
   <path opacity=".8" fill="#ffffff" d="m398.43 525.8c-.162.01-.336 0-.527.132-1.705.734-.561 2.747 1.612 4.279.013-.289.133-.917.13-1.194-1.854-1.271-2.939-2.509-1.757-2.999 1.246-.517 1.633.895 1.655 2.944.116.12.92.654 1.042.739-.045-1.869-1.039-3.777-1.993-3.885-.051-.01-.107-.01-.161-.01m1.736 3.252l-.388-.151-.322.217-.065.682.406.312.169.226c1.251.83 2.317 1.469 3.718 1.997l.874.13h.575c.53-.313.214-.433 2.141-.673l-2.171.168c-1.675-.649-3.385-1.582-4.94-2.6m3.822 2.72c.251 0 2.211-.17 2.99-.242.772-.12 1.719-.156 1.54.746.204-.481-.261-1.298-.922-1.442-1.023-.229-2.646.398-3.229.591m.94.25c-.304.12-.999.207-1.327.316.465.241 2.802 1.103 3.766.923.154 0 .805-.468.821-.805-.05.613-2.906.156-3.26-.445m.635.011c-.25-.12-1.422-.114-1.681-.211-1.468.513-3.442 1.719-4.855 2.532l-.409.12c-.079.561-.425.755-.74 1.118l.478.481.374-.613c1.654-.998 4.924-2.611 6.832-3.386m-6.832 3.386c-.202.12-.395.241-.578.361-.424 1.204-.919 2.01-1.391 1.98.729.349 2.301-1.37 2.83-2.986m-2.83 2.986c-1.113-.661 1.243-1.867 1.77-2.217.119-.337-.206-.895-.1-1.292-1.661 1.034-2.643 2.531-2.086 3.24.134.168.276.253.417.265m1.617-2.52c.077-.31 1.103-1.015 1.289-1.123.248-1.954.26-2.147.471-3.666-.126-.12-.902-.725-1.022-.809-.149 1.624-.429 3.824-.826 5.293"/>
   <path fill="url(#a)" d="m389.57 517.8v28h22v-28h-17z"/>
  </g>
 </g>
</svg>
