<svg xmlns="http://www.w3.org/2000/svg" viewBox="0 0 22 22">
  <defs id="defs3051">
    <style type="text/css" id="current-color-scheme">
      .ColorScheme-Text {
        color:#eff0f1;
      }
      </style>
  </defs>
 <path 
     style="fill:currentColor;fill-opacity:1;stroke:none" 
     d="M 1 3 L 1 4 L 1 12 L 1 18 L 1 18.414062 L 1 19 L 2 19 L 8 19 L 14 19 L 14 18 L 8 18 L 2 18 L 2 17.414062 L 2.4628906 16.951172 L 8.7304688 10.683594 L 10.183594 12.134766 L 10.998047 12.949219 L 11 12.949219 L 11.816406 12.134766 L 13.269531 10.683594 L 14.585938 12 L 16 12 L 13.976562 9.9765625 L 19.728516 4.2226562 L 19.951172 4 L 20 4 L 20 4.2226562 L 20 12 L 21 12 L 21 3 L 20.951172 3 L 20 3 L 19.537109 3 L 2.4628906 3 L 2 3 L 1 3 z M 2 4 L 2.0488281 4 L 2.2714844 4.2226562 L 8.0234375 9.9765625 L 2 16 L 2 12 L 2 4.2226562 L 2 4 z M 3.4628906 4 L 18.537109 4 L 11 11.537109 L 3.4628906 4 z "
     class="ColorScheme-Text"
     />
    <path
       style="fill:#da4453;fill-opacity:1;stroke:none"
       d="M 18 13 C 16.338005 13 15 14.338005 15 16 C 15 17.661995 16.338005 19 18 19 C 19.661995 19 21 17.661995 21 16 C 21 14.338005 19.661995 13 18 13 z M 18 14 C 18.371625 14 18.714197 14.106065 19.011719 14.28125 L 16.28125 17.011719 C 16.106065 16.714197 16 16.371625 16 16 C 16 14.892003 16.892003 14 18 14 z M 19.71875 14.988281 C 19.893935 15.285803 20 15.628375 20 16 C 20 17.107997 19.107997 18 18 18 C 17.628375 18 17.285803 17.893935 16.988281 17.71875 L 19.71875 14.988281 z "
        />
</svg>
