<svg height="22" viewBox="0 0 5.8208331 5.8208336" width="22" xmlns="http://www.w3.org/2000/svg"><style type="text/css" id="current-color-scheme">.ColorScheme-Text{color:#eff0f1;}</style><g style="fill:currentColor;fill-opacity:1;stroke:none" class="ColorScheme-Text" transform="translate(0 -291.17915)"><path d="m15 10v7.085938l-2.292969-2.292969-.707031.707031 3.5 3.5 3.5-3.5-.707031-.707031-2.292969 2.292969v-7.085938z" transform="matrix(.26458333 0 0 .26458333 0 291.17915)"/><path d="m.79374999 291.9729v.26458h1.85208331v-.26458z"/><path d="m.79374999 292.76665v.26458h1.32291671v-.26458z"/><path d="m.79374999 293.5604v.26458h1.85208331v-.26458z"/><path d="m.79375004 296.20623v-.26458h1.85208326v.26458z"/><path d="m.79375 295.41248v-.26458h1.8520833v.26458z"/><path d="m.79374997 294.61873v-.26458h1.85208333v.26458z"/><path d="m3.175 294.61873v-1.87482l-.6066814.60668-.1870686-.18707.9260416-.92604.9260417.92604-.1870686.18707-.6066814-.60668v1.87482z"/></g></svg>