<?xml version="1.0" encoding="UTF-8" standalone="no"?>
<svg
   xmlns:dc="http://purl.org/dc/elements/1.1/"
   xmlns:cc="http://creativecommons.org/ns#"
   xmlns:rdf="http://www.w3.org/1999/02/22-rdf-syntax-ns#"
   xmlns:svg="http://www.w3.org/2000/svg"
   xmlns="http://www.w3.org/2000/svg"
   xmlns:xlink="http://www.w3.org/1999/xlink"
   xmlns:sodipodi="http://sodipodi.sourceforge.net/DTD/sodipodi-0.dtd"
   xmlns:inkscape="http://www.inkscape.org/namespaces/inkscape"
   viewBox="0 0 256 256"
   id="svg2"
   version="1.1"
   inkscape:version="0.91 r13725"
   sodipodi:docname="org.kde.plasma.systemmonitor.memory.svg">
  <metadata
     id="metadata10">
    <rdf:RDF>
      <cc:Work
         rdf:about="">
        <dc:format>image/svg+xml</dc:format>
        <dc:type
           rdf:resource="http://purl.org/dc/dcmitype/StillImage" />
        <dc:title />
      </cc:Work>
    </rdf:RDF>
  </metadata>
  <sodipodi:namedview
     pagecolor="#ffffff"
     bordercolor="#666666"
     borderopacity="1"
     objecttolerance="10"
     gridtolerance="10"
     guidetolerance="10"
     inkscape:pageopacity="0"
     inkscape:pageshadow="2"
     inkscape:window-width="1920"
     inkscape:window-height="1050"
     id="namedview8"
     showgrid="false"
     inkscape:zoom="2.6074563"
     inkscape:cx="63.449548"
     inkscape:cy="138.40443"
     inkscape:window-x="0"
     inkscape:window-y="30"
     inkscape:window-maximized="1"
     inkscape:current-layer="svg2" />
  <defs
     id="defs4">
    <style
       id="current-color-scheme"
       type="text/css">
      .ColorScheme-Text {
        color:#f2f2f2;
      }
      .ColorScheme-Background {
        color:#31363b;
      }
      .ColorScheme-Highlight {
        color:#3daee9;
      }
      .ColorScheme-ViewText {
        color:#31363b;
      }
      .ColorScheme-ViewBackground {
        color:#314045;
      }
      .ColorScheme-ViewHover {
        color:#93cee9;
      }
      .ColorScheme-ViewFocus{
        color:#3daee9;
      }
      .ColorScheme-ButtonText {
        color:#31363b;
      }
      .ColorScheme-ButtonBackground {
        color:#31363b;
      }
      .ColorScheme-ButtonHover {
        color:#93cee9;
      }
      .ColorScheme-ButtonFocus{
        color:#3daee9;
      }
      </style>
    <linearGradient
       inkscape:collect="always"
       xlink:href="#linearGradient4303"
       id="linearGradient5329"
       gradientUnits="userSpaceOnUse"
       gradientTransform="matrix(1.1250015,0,0,1,-59.071952,-8.0000193)"
       x1="409.57144"
       y1="543.79797"
       x2="409.57144"
       y2="503.798" />
    <linearGradient
       id="linearGradient4303"
       inkscape:collect="always">
      <stop
         id="stop4305"
         offset="0"
         style="stop-color:#c6cdd1;stop-opacity:1" />
      <stop
         id="stop4307"
         offset="1"
         style="stop-color:#e0e5e7;stop-opacity:1" />
    </linearGradient>
    <linearGradient
       gradientUnits="userSpaceOnUse"
       y2="532.79797"
       x2="419.57144"
       y1="512.79797"
       x1="399.57144"
       id="linearGradient4881-9"
       xlink:href="#linearGradient4400"
       inkscape:collect="always" />
    <linearGradient
       id="linearGradient4400"
       inkscape:collect="always">
      <stop
         id="stop4402"
         offset="0"
         style="stop-color:#020303;stop-opacity:1" />
      <stop
         id="stop4404"
         offset="1"
         style="stop-color:#424649;stop-opacity:0" />
    </linearGradient>
    <linearGradient
       gradientUnits="userSpaceOnUse"
       y2="8.0000267"
       x2="31.999989"
       y1="52.000027"
       x1="31.999989"
       id="linearGradient4659-6"
       xlink:href="#linearGradient4903"
       inkscape:collect="always" />
    <linearGradient
       inkscape:collect="always"
       id="linearGradient4903">
      <stop
         style="stop-color:#eef1f2;stop-opacity:1"
         offset="0"
         id="stop4905" />
      <stop
         style="stop-color:#f9fafb;stop-opacity:1"
         offset="1"
         id="stop4907" />
    </linearGradient>
    <linearGradient
       gradientUnits="userSpaceOnUse"
       y2="41"
       x2="42.999985"
       y1="21"
       x1="22.999987"
       id="linearGradient4231-8"
       xlink:href="#linearGradient4400"
       inkscape:collect="always" />
    <linearGradient
       gradientUnits="userSpaceOnUse"
       y2="1033.3622"
       x2="10.999989"
       y1="1050.3622"
       x1="10.999989"
       id="linearGradient4793-0"
       xlink:href="#linearGradient4159"
       inkscape:collect="always" />
    <linearGradient
       inkscape:collect="always"
       id="linearGradient4159">
      <stop
         style="stop-color:#2a2c2f;stop-opacity:1"
         offset="0"
         id="stop4161" />
      <stop
         style="stop-color:#424649;stop-opacity:1"
         offset="1"
         id="stop4163" />
    </linearGradient>
    <linearGradient
       gradientTransform="translate(-1.6503906e-6,-29)"
       gradientUnits="userSpaceOnUse"
       y2="497.79797"
       x2="408.57144"
       y1="549.79797"
       x1="408.57144"
       id="linearGradient4291"
       xlink:href="#linearGradient4251-0"
       inkscape:collect="always" />
    <linearGradient
       inkscape:collect="always"
       id="linearGradient4251-0">
      <stop
         style="stop-color:#63984b;stop-opacity:1"
         offset="0"
         id="stop4253-4" />
      <stop
         style="stop-color:#8fc278;stop-opacity:1"
         offset="1"
         id="stop4255-2" />
    </linearGradient>
    <linearGradient
       gradientTransform="translate(7.9999992,-11)"
       y2="527.79797"
       x2="417.57144"
       y1="518.79797"
       x1="408.57144"
       gradientUnits="userSpaceOnUse"
       id="linearGradient4259"
       xlink:href="#linearGradient4227"
       inkscape:collect="always" />
    <linearGradient
       inkscape:collect="always"
       id="linearGradient4227">
      <stop
         style="stop-color:#292c2f;stop-opacity:1"
         offset="0"
         id="stop4229" />
      <stop
         style="stop-color:#000000;stop-opacity:0;"
         offset="1"
         id="stop4231" />
    </linearGradient>
    <linearGradient
       y2="527.79797"
       x2="417.57144"
       y1="518.79797"
       x1="408.57144"
       gradientTransform="translate(15.999999,-11)"
       gradientUnits="userSpaceOnUse"
       id="linearGradient4263"
       xlink:href="#linearGradient4227"
       inkscape:collect="always" />
    <linearGradient
       gradientTransform="translate(-8.2519529e-7,-11)"
       gradientUnits="userSpaceOnUse"
       y2="527.79797"
       x2="417.57144"
       y1="518.79797"
       x1="408.57144"
       id="linearGradient4184"
       xlink:href="#linearGradient4227"
       inkscape:collect="always" />
    <linearGradient
       gradientTransform="matrix(0.85714287,0,0,0.8888889,60.653035,46.644314)"
       gradientUnits="userSpaceOnUse"
       y2="518.79797"
       x2="428.57144"
       y1="527.79797"
       x1="428.57144"
       id="linearGradient4183"
       xlink:href="#linearGradient4159"
       inkscape:collect="always" />
    <linearGradient
       gradientTransform="translate(-8.2519529e-7,-11)"
       gradientUnits="userSpaceOnUse"
       y2="519.79797"
       x2="398.57144"
       y1="526.79797"
       x1="398.57144"
       id="linearGradient4455"
       xlink:href="#linearGradient4903"
       inkscape:collect="always" />
    <linearGradient
       y2="518.79797"
       x2="428.57144"
       y1="527.79797"
       x1="428.57144"
       gradientTransform="matrix(0.85714287,0,0,0.8888889,52.653035,46.644314)"
       gradientUnits="userSpaceOnUse"
       id="linearGradient4281"
       xlink:href="#linearGradient4159"
       inkscape:collect="always" />
    <linearGradient
       y2="518.79797"
       x2="428.57144"
       y1="527.79797"
       x1="428.57144"
       gradientTransform="matrix(0.85714287,0,0,0.8888889,44.653035,46.644314)"
       gradientUnits="userSpaceOnUse"
       id="linearGradient4324"
       xlink:href="#linearGradient4159"
       inkscape:collect="always" />
    <linearGradient
       y2="497.79797"
       x2="408.57144"
       y1="549.79797"
       x1="408.57144"
       gradientTransform="translate(-1.6503906e-6,-7)"
       gradientUnits="userSpaceOnUse"
       id="linearGradient4304"
       xlink:href="#linearGradient4251-0"
       inkscape:collect="always" />
    <linearGradient
       y2="527.79797"
       x2="417.57144"
       y1="518.79797"
       x1="408.57144"
       gradientTransform="translate(7.9999992,11)"
       gradientUnits="userSpaceOnUse"
       id="linearGradient4306"
       xlink:href="#linearGradient4227"
       inkscape:collect="always" />
    <linearGradient
       y2="527.79797"
       x2="417.57144"
       y1="518.79797"
       x1="408.57144"
       gradientTransform="translate(15.999999,11)"
       gradientUnits="userSpaceOnUse"
       id="linearGradient4308"
       xlink:href="#linearGradient4227"
       inkscape:collect="always" />
    <linearGradient
       y2="527.79797"
       x2="417.57144"
       y1="518.79797"
       x1="408.57144"
       gradientTransform="translate(-8.2519529e-7,11)"
       gradientUnits="userSpaceOnUse"
       id="linearGradient4310"
       xlink:href="#linearGradient4227"
       inkscape:collect="always" />
    <linearGradient
       y2="518.79797"
       x2="428.57144"
       y1="527.79797"
       x1="428.57144"
       gradientTransform="matrix(0.85714287,0,0,0.8888889,60.653035,68.644314)"
       gradientUnits="userSpaceOnUse"
       id="linearGradient4312"
       xlink:href="#linearGradient4159"
       inkscape:collect="always" />
    <linearGradient
       y2="519.79797"
       x2="398.57144"
       y1="526.79797"
       x1="398.57144"
       gradientTransform="translate(-8.2519529e-7,11)"
       gradientUnits="userSpaceOnUse"
       id="linearGradient4314"
       xlink:href="#linearGradient4903"
       inkscape:collect="always" />
    <linearGradient
       y2="518.79797"
       x2="428.57144"
       y1="527.79797"
       x1="428.57144"
       gradientTransform="matrix(0.85714287,0,0,0.8888889,52.653035,68.644314)"
       gradientUnits="userSpaceOnUse"
       id="linearGradient4316"
       xlink:href="#linearGradient4159"
       inkscape:collect="always" />
    <linearGradient
       y2="518.79797"
       x2="428.57144"
       y1="527.79797"
       x1="428.57144"
       gradientTransform="matrix(0.85714287,0,0,0.8888889,44.653035,68.644314)"
       gradientUnits="userSpaceOnUse"
       id="linearGradient4318"
       xlink:href="#linearGradient4159"
       inkscape:collect="always" />
    <linearGradient
       inkscape:collect="always"
       xlink:href="#linearGradient4159"
       id="linearGradient4399"
       gradientUnits="userSpaceOnUse"
       x1="10.999989"
       y1="1050.3622"
       x2="10.999989"
       y2="1033.3622" />
  </defs>
  <path
     style="fill:currentColor;fill-opacity:0.5;stroke:none"
     d="m 16,10 224,0 c 3.324,0 6,2.676 6,6 l 0,224 c 0,3.324 -2.676,6 -6,6 l -224,0 c -3.324,0 -6,-2.676 -6,-6 L 10,16 c 0,-3.324 2.676,-6 6,-6 z"
     class="ColorScheme-ButtonText"
     id="rect4240" />
  <path
     style="fill:currentColor;fill-opacity:1;stroke:none"
     d="m 16,12 224,0 c 2.216,0 4,1.784 4,4 l 0,224 c 0,2.216 -1.784,4 -4,4 l -224,0 c -2.216,0 -4,-1.784 -4,-4 L 12,16 c 0,-2.216 1.784,-4 4,-4 z"
     class="ColorScheme-Background"
     id="rect4238" />
  <path
     style="fill:currentColor;fill-opacity:1;stroke:none"
     class="ColorScheme-Text"
     d="M 88.951172 28.369141 C 88.453939 28.369141 87.990967 28.426591 87.5625 28.542969 C 87.134033 28.659342 86.745605 28.836182 86.396484 29.074219 C 86.047363 29.306966 85.773275 29.622803 85.572266 30.019531 C 85.371257 30.41626 85.269531 30.869711 85.269531 31.382812 C 85.269531 32.128662 85.46346 32.716064 85.849609 33.144531 C 86.235758 33.567708 86.820638 33.928385 87.603516 34.224609 L 89.492188 34.945312 C 90.232747 35.230958 90.728516 35.514567 90.982422 35.794922 C 91.241618 36.069987 91.371094 36.485596 91.371094 37.041016 C 91.371094 37.52238 91.256185 37.927897 91.023438 38.255859 C 90.79598 38.578532 90.499756 38.810303 90.134766 38.953125 C 89.769775 39.090658 89.346598 39.160156 88.865234 39.160156 C 88.272786 39.160156 87.65568 39.053385 87.015625 38.841797 C 86.380859 38.630208 85.810547 38.341554 85.302734 37.976562 L 85.302734 39.230469 C 85.630697 39.521403 86.123942 39.767741 86.785156 39.96875 C 87.44637 40.169759 88.132975 40.269531 88.841797 40.269531 C 89.238525 40.269531 89.612386 40.236731 89.966797 40.167969 C 90.326497 40.099199 90.674562 39.984863 91.007812 39.826172 C 91.341065 39.662191 91.625244 39.458171 91.863281 39.214844 C 92.101318 38.971517 92.292725 38.660156 92.435547 38.279297 C 92.578369 37.898438 92.650391 37.470215 92.650391 36.994141 C 92.650391 36.607992 92.601071 36.262451 92.505859 35.960938 C 92.410649 35.659424 92.293213 35.405518 92.150391 35.199219 C 92.007568 34.99292 91.803548 34.800944 91.539062 34.621094 C 91.279867 34.435954 91.028483 34.284342 90.785156 34.167969 C 90.547119 34.051595 90.238281 33.919596 89.857422 33.771484 L 88.03125 33.058594 C 87.47583 32.841715 87.089925 32.602946 86.873047 32.34375 C 86.661458 32.079264 86.556641 31.703451 86.556641 31.216797 C 86.556641 30.820068 86.671549 30.486572 86.904297 30.216797 C 87.137044 29.947021 87.430745 29.757568 87.785156 29.646484 C 88.139567 29.530111 88.545085 29.470703 89 29.470703 C 89.491943 29.470703 89.982666 29.540203 90.474609 29.677734 C 90.971842 29.815267 91.392497 30.002197 91.736328 30.240234 L 92.244141 29.257812 C 91.789225 28.977459 91.271322 28.760824 90.689453 28.607422 C 90.112874 28.44873 89.53304 28.369141 88.951172 28.369141 z M 22.515625 28.527344 L 22.285156 40.111328 L 23.603516 40.111328 L 23.714844 32.962891 L 23.714844 30.224609 L 27.363281 38.818359 L 28.5625 38.818359 L 32.236328 30.320312 L 32.236328 32.931641 L 32.347656 40.111328 L 33.648438 40.111328 L 33.417969 28.527344 L 31.751953 28.527344 L 27.982422 37.326172 L 24.230469 28.527344 L 22.515625 28.527344 z M 96.314453 29.416016 L 95.259766 29.496094 L 95.044922 31.716797 L 93.751953 31.804688 L 93.720703 32.550781 L 95.013672 32.550781 L 95.013672 37.595703 C 95.013672 38.108805 95.058511 38.524414 95.148438 38.841797 C 95.238367 39.15918 95.400066 39.420654 95.632812 39.626953 C 95.870851 39.833252 96.177165 39.977295 96.552734 40.056641 C 96.928304 40.135991 97.42098 40.175781 98.029297 40.175781 L 98.576172 40.175781 L 98.640625 39.271484 L 97.972656 39.238281 C 97.269124 39.211831 96.818197 39.101969 96.617188 38.90625 C 96.416177 38.705241 96.314453 38.267497 96.314453 37.595703 L 96.314453 32.550781 L 98.537109 32.550781 L 98.537109 31.716797 L 96.314453 31.716797 L 96.314453 29.416016 z M 110.50195 29.416016 L 109.44727 29.496094 L 109.23242 31.716797 L 107.93945 31.804688 L 107.9082 32.550781 L 109.20117 32.550781 L 109.20117 37.595703 C 109.20117 38.108805 109.24597 38.524414 109.33594 38.841797 C 109.42584 39.15918 109.58757 39.420654 109.82031 39.626953 C 110.05835 39.833252 110.36466 39.977295 110.74023 40.056641 C 111.1158 40.135991 111.60848 40.175781 112.2168 40.175781 L 112.76367 40.175781 L 112.82617 39.271484 L 112.16016 39.238281 C 111.45662 39.211831 111.0057 39.101969 110.80469 38.90625 C 110.60368 38.705241 110.50195 38.267497 110.50195 37.595703 L 110.50195 32.550781 L 112.72461 32.550781 L 112.72461 31.716797 L 110.50195 31.716797 L 110.50195 29.416016 z M 39.376953 31.542969 C 38.266113 31.542969 37.35026 31.941488 36.630859 32.740234 C 35.911458 33.538981 35.552734 34.609538 35.552734 35.953125 C 35.552734 37.280843 35.919027 38.33374 36.654297 39.111328 C 37.389567 39.883626 38.347738 40.269531 39.527344 40.269531 C 40.585286 40.269531 41.52889 40.025146 42.359375 39.533203 L 42.082031 38.603516 C 41.637695 38.825684 41.236654 38.992432 40.876953 39.103516 C 40.517253 39.2146 40.116781 39.271484 39.677734 39.271484 C 38.868408 39.271484 38.213459 39.013102 37.710938 38.5 C 37.208415 37.981608 36.934896 37.189616 36.892578 36.121094 L 42.566406 36.121094 L 42.613281 35.453125 C 42.613281 34.225911 42.33667 33.269694 41.78125 32.582031 C 41.23112 31.889079 40.429606 31.542969 39.376953 31.542969 z M 48.207031 31.542969 C 47.133219 31.542969 46.271729 32.013509 45.621094 32.955078 L 45.470703 31.716797 L 44.408203 31.716797 L 44.408203 40.111328 L 45.724609 40.111328 L 45.724609 34.994141 C 45.835693 34.25887 46.079508 33.668945 46.455078 33.224609 C 46.835937 32.774984 47.348796 32.550781 47.994141 32.550781 C 48.581299 32.550781 48.98234 32.769938 49.199219 33.208984 C 49.416097 33.642741 49.525391 34.372233 49.525391 35.398438 L 49.525391 40.111328 L 50.841797 40.111328 L 50.841797 35.802734 C 50.857667 35.072754 50.887367 34.636963 50.929688 34.494141 C 51.07251 33.864665 51.341553 33.384033 51.738281 33.050781 C 52.13501 32.717529 52.587891 32.550781 53.095703 32.550781 C 53.323161 32.550781 53.522135 32.583581 53.691406 32.652344 C 53.865967 32.715824 54.003011 32.817546 54.103516 32.955078 C 54.20931 33.092611 54.293945 33.232178 54.357422 33.375 C 54.420902 33.512533 54.465739 33.694417 54.492188 33.921875 C 54.518637 34.149333 54.533773 34.343262 54.539062 34.501953 C 54.549642 34.655355 54.554687 34.859375 54.554688 35.113281 L 54.554688 40.111328 L 55.873047 40.111328 L 55.873047 34.701172 C 55.873047 32.595866 55.016602 31.542969 53.302734 31.542969 C 52.0861 31.542969 51.162679 32.110758 50.533203 33.248047 C 50.337484 32.713786 50.058919 32.295654 49.699219 31.994141 C 49.339518 31.692627 48.841797 31.542969 48.207031 31.542969 z M 61.498047 31.542969 C 60.265544 31.542969 59.297282 31.94401 58.59375 32.748047 C 57.895508 33.546794 57.546875 34.604736 57.546875 35.921875 C 57.546875 37.207275 57.900553 38.255127 58.609375 39.064453 C 59.318197 39.86849 60.281413 40.269531 61.498047 40.269531 C 62.688232 40.269531 63.646403 39.865967 64.371094 39.056641 C 65.095785 38.242025 65.457031 37.196696 65.457031 35.921875 C 65.457031 34.604736 65.108398 33.546794 64.410156 32.748047 C 63.711914 31.94401 62.74113 31.542969 61.498047 31.542969 z M 103.4082 31.542969 C 102.28678 31.542969 101.2762 31.752035 100.37695 32.169922 L 100.73438 33.136719 C 101.12051 32.951579 101.56079 32.809489 102.05273 32.708984 C 102.54468 32.60319 103.00317 32.550781 103.43164 32.550781 C 104.06641 32.550781 104.52938 32.700439 104.82031 33.001953 C 105.11654 33.303467 105.26562 33.761393 105.26562 34.375 L 105.26562 35.199219 L 103.92383 35.199219 C 102.57495 35.199219 101.59155 35.415283 100.97266 35.84375 C 100.35905 36.266927 100.05273 36.931966 100.05273 37.841797 C 100.05273 38.603516 100.28451 39.198486 100.75 39.626953 C 101.22078 40.05542 101.84294 40.269531 102.61523 40.269531 C 103.76839 40.269531 104.70443 39.828696 105.42383 38.945312 L 105.56641 40.103516 L 106.56641 40.103516 L 106.56641 34.564453 C 106.56641 33.495931 106.29232 32.726644 105.74219 32.255859 C 105.19735 31.779785 104.41854 31.542969 103.4082 31.542969 z M 126.00586 31.542969 C 125.12777 31.542969 124.44564 31.754557 123.95898 32.177734 C 123.47233 32.595622 123.22852 33.145752 123.22852 33.828125 C 123.22852 34.378255 123.37004 34.82666 123.65039 35.175781 C 123.93075 35.519613 124.44865 35.813314 125.20508 36.056641 L 126.125 36.351562 C 126.73332 36.547283 127.15397 36.754396 127.38672 36.976562 C 127.61947 37.198731 127.73633 37.474772 127.73633 37.802734 C 127.73633 38.278809 127.59676 38.644531 127.31641 38.898438 C 127.03605 39.147053 126.64062 39.271484 126.13281 39.271484 C 125.32349 39.271484 124.41715 39.030192 123.41211 38.548828 L 123.41211 39.652344 C 124.27962 40.064941 125.15568 40.269531 126.03906 40.269531 C 126.43579 40.269531 126.79956 40.222171 127.13281 40.126953 C 127.47135 40.031733 127.77262 39.889648 128.03711 39.699219 C 128.30688 39.508789 128.51846 39.254883 128.67188 38.9375 C 128.82528 38.614827 128.90234 38.244059 128.90234 37.826172 C 128.90234 37.48763 128.87014 37.201497 128.80664 36.96875 C 128.74314 36.730713 128.62826 36.509033 128.45898 36.302734 C 128.28971 36.096436 128.05347 35.917074 127.75195 35.763672 C 127.45573 35.60498 127.07235 35.450846 126.60156 35.302734 L 125.76758 35.041016 C 125.22274 34.866455 124.86654 34.70223 124.69727 34.548828 C 124.52799 34.395426 124.44336 34.146566 124.44336 33.802734 C 124.44336 33.395426 124.57284 33.086589 124.83203 32.875 C 125.09652 32.658122 125.53232 32.550781 126.14062 32.550781 C 126.823 32.550781 127.52979 32.735189 128.25977 33.105469 L 128.56836 32.128906 C 127.7749 31.737467 126.92098 31.542969 126.00586 31.542969 z M 71.019531 31.628906 C 70.511719 31.628906 70.028564 31.772949 69.568359 32.058594 C 69.113444 32.338949 68.727539 32.779785 68.410156 33.382812 L 68.265625 31.716797 L 67.210938 31.716797 L 67.210938 40.111328 L 68.529297 40.111328 L 68.529297 35.359375 C 68.529297 34.613525 68.761069 33.981283 69.226562 33.462891 C 69.697348 32.944499 70.292318 32.685547 71.011719 32.685547 C 71.159831 32.685547 71.339193 32.705727 71.550781 32.748047 L 71.607422 31.669922 C 71.45402 31.643472 71.257568 31.628906 71.019531 31.628906 z M 72.447266 31.716797 L 75.773438 39.857422 L 74.535156 43.015625 L 75.716797 43.269531 L 80.136719 31.716797 L 78.802734 31.716797 L 76.408203 38.421875 L 73.789062 31.716797 L 72.447266 31.716797 z M 114.46875 31.716797 L 114.46875 36.841797 C 114.46875 37.979085 114.71761 38.837484 115.21484 39.414062 C 115.71737 39.985352 116.45638 40.269531 117.42969 40.269531 C 118.11735 40.269531 118.65991 40.167236 119.05664 39.960938 C 119.45866 39.749349 119.79272 39.430991 120.0625 39.007812 L 120.19922 40.111328 L 121.3418 40.111328 L 121.3418 31.716797 L 120.02344 31.716797 L 120.02344 36.429688 C 120.02344 36.762938 120.00072 37.066732 119.95312 37.341797 C 119.90552 37.616862 119.8234 37.875814 119.70703 38.119141 C 119.59066 38.362467 119.43905 38.566488 119.25391 38.730469 C 119.07406 38.89445 118.84229 39.023926 118.55664 39.119141 C 118.27629 39.214351 117.95288 39.261719 117.58789 39.261719 C 116.94255 39.261719 116.47957 39.069743 116.19922 38.683594 C 115.92415 38.297445 115.78711 37.732178 115.78711 36.986328 L 115.78711 31.716797 L 114.46875 31.716797 z M 39.408203 32.550781 C 40.741211 32.550781 41.44043 33.45459 41.503906 35.263672 L 36.933594 35.263672 C 37.007654 34.427897 37.266602 33.765951 37.710938 33.279297 C 38.160562 32.792643 38.72583 32.550781 39.408203 32.550781 z M 61.498047 32.550781 C 62.36027 32.550781 63.012126 32.859619 63.451172 33.478516 C 63.890218 34.092122 64.109375 34.911296 64.109375 35.9375 C 64.109375 36.593424 64.019695 37.168213 63.839844 37.660156 C 63.659993 38.14681 63.368815 38.53776 62.966797 38.833984 C 62.570068 39.124919 62.079915 39.271484 61.498047 39.271484 C 60.651693 39.271484 60.006836 38.963216 59.5625 38.349609 C 59.118164 37.736003 58.896484 36.929443 58.896484 35.929688 C 58.896484 34.908772 59.118164 34.092122 59.5625 33.478516 C 60.006836 32.859619 60.651693 32.550781 61.498047 32.550781 z M 104.25781 36.072266 L 105.26562 36.072266 L 105.26562 37.921875 C 104.63616 38.847575 103.7797 39.310547 102.69531 39.310547 C 102.29858 39.310547 101.96761 39.183594 101.70312 38.929688 C 101.43864 38.675781 101.30664 38.315104 101.30664 37.849609 C 101.30664 37.590413 101.32935 37.373779 101.37695 37.199219 C 101.42455 37.019368 101.51172 36.855143 101.63867 36.707031 C 101.76562 36.55363 101.93994 36.436198 102.16211 36.351562 C 102.38428 36.261632 102.66789 36.192139 103.01172 36.144531 C 103.35555 36.096921 103.77116 36.072266 104.25781 36.072266 z M 20 50 L 20 51 L 236 51 L 236 50 L 20 50 z M 223.35156 63.650391 C 222.63094 63.650391 221.96753 63.779461 221.36328 64.039062 C 220.75903 64.29419 220.25163 64.646159 219.83984 65.09375 C 219.43254 65.541341 219.11499 66.075114 218.88672 66.697266 C 218.66292 67.314941 218.55078 67.983073 218.55078 68.699219 C 218.55078 69.415365 218.64878 70.076823 218.8457 70.685547 C 219.04712 71.289795 219.3383 71.817464 219.71875 72.269531 C 220.0992 72.721598 220.58358 73.076904 221.16992 73.332031 C 221.75627 73.587158 222.41772 73.714844 223.15625 73.714844 C 224.34684 73.714844 225.46159 73.512207 226.5 73.109375 L 226.5 68.583984 L 223.27148 68.583984 L 223.22266 69.525391 L 225.40625 69.525391 L 225.40625 72.484375 C 224.7841 72.676839 224.10376 72.773438 223.36523 72.773438 C 222.73413 72.773438 222.18286 72.675458 221.71289 72.478516 C 221.24292 72.281576 220.86459 72.001221 220.57812 71.638672 C 220.29614 71.271647 220.08602 70.845296 219.94727 70.357422 C 219.80851 69.865072 219.73828 69.309082 219.73828 68.691406 C 219.73828 67.912598 219.88013 67.215332 220.16211 66.597656 C 220.44409 65.97998 220.86296 65.489502 221.41797 65.126953 C 221.97298 64.759928 222.62362 64.576172 223.37109 64.576172 C 223.52327 64.576172 223.66984 64.580874 223.80859 64.589844 C 223.95182 64.598844 224.087 64.614349 224.2168 64.636719 C 224.3466 64.659099 224.46208 64.679356 224.56055 64.697266 C 224.65905 64.715166 224.76172 64.744876 224.86914 64.785156 C 224.98104 64.825436 225.0682 64.856526 225.13086 64.878906 C 225.19796 64.901286 225.28044 64.938475 225.37891 64.992188 C 225.48185 65.041417 225.54875 65.075848 225.58008 65.09375 C 225.61588 65.11165 225.68278 65.14746 225.78125 65.201172 C 225.87975 65.254882 225.93579 65.285972 225.94922 65.294922 L 226.23828 64.408203 C 225.50871 63.902425 224.54663 63.650391 223.35156 63.650391 z M 31.117188 63.703125 L 30.003906 63.783203 L 30.003906 73.585938 L 31.111328 73.585938 L 31.111328 69.699219 C 31.111328 69.43514 31.128262 69.189209 31.164062 68.960938 C 31.204342 68.732665 31.274577 68.506999 31.373047 68.283203 C 31.471517 68.059408 31.599202 67.867594 31.755859 67.710938 C 31.912516 67.549804 32.116536 67.422119 32.367188 67.328125 C 32.622313 67.229655 32.914876 67.181641 33.246094 67.181641 C 33.778727 67.181641 34.157064 67.349854 34.380859 67.685547 C 34.609131 68.016764 34.722656 68.53361 34.722656 69.236328 L 34.722656 73.585938 L 35.837891 73.585938 L 35.837891 69.195312 C 35.837891 68.282228 35.630534 67.576904 35.21875 67.080078 C 34.806966 66.583252 34.215739 66.335938 33.441406 66.335938 C 32.935628 66.335938 32.477621 66.433918 32.070312 66.630859 C 31.66748 66.823324 31.337728 67.103678 31.078125 67.470703 L 31.117188 66.080078 L 31.117188 63.703125 z M 68.728516 63.703125 L 67.626953 63.783203 L 67.626953 71.552734 C 67.626953 71.977946 67.676923 72.331299 67.775391 72.613281 C 67.873861 72.890788 68.02653 73.102295 68.232422 73.25 C 68.438314 73.397705 68.670085 73.500407 68.929688 73.558594 C 69.193765 73.612304 69.520752 73.640625 69.910156 73.640625 L 70.441406 73.640625 L 70.501953 72.875 L 70.199219 72.855469 C 70.006755 72.842039 69.857422 72.829263 69.75 72.820312 C 69.642578 72.806883 69.525716 72.789958 69.400391 72.767578 C 69.279541 72.740728 69.187663 72.709638 69.125 72.673828 C 69.06681 72.633548 69.006022 72.583578 68.943359 72.525391 C 68.880699 72.467201 68.835449 72.394206 68.808594 72.304688 C 68.786214 72.215168 68.765957 72.112467 68.748047 71.996094 C 68.734617 71.87972 68.728516 71.737874 68.728516 71.572266 L 68.728516 63.703125 z M 22.173828 63.783203 L 22.173828 73.585938 L 23.355469 73.585938 L 23.355469 68.845703 L 25.478516 68.845703 C 26.584066 68.845703 27.388753 68.623372 27.894531 68.175781 C 28.400309 67.723714 28.654297 67.058919 28.654297 66.181641 C 28.654297 65.751953 28.574627 65.37972 28.417969 65.066406 C 28.265788 64.748617 28.04484 64.497965 27.753906 64.314453 C 27.462972 64.130941 27.131266 63.997152 26.759766 63.912109 C 26.388265 63.827069 25.968018 63.783203 25.498047 63.783203 L 22.173828 63.783203 z M 51.574219 63.783203 C 51.359375 63.783203 51.183675 63.852053 51.044922 63.986328 C 50.910645 64.11613 50.84375 64.285726 50.84375 64.496094 C 50.84375 64.706462 50.91065 64.879395 51.044922 65.013672 C 51.183675 65.147949 51.359375 65.214844 51.574219 65.214844 C 51.784587 65.214844 51.958903 65.147944 52.097656 65.013672 C 52.23641 64.879395 52.306641 64.706462 52.306641 64.496094 C 52.306641 64.285726 52.236411 64.11613 52.097656 63.986328 C 51.963379 63.852051 51.789062 63.783203 51.574219 63.783203 z M 199.25586 63.783203 C 199.02311 63.944336 198.67253 64.107828 198.20703 64.273438 C 197.74601 64.434569 197.34741 64.550049 197.01172 64.617188 L 197.01172 65.501953 C 197.3116 65.461673 197.6744 65.374512 198.09961 65.240234 C 198.5293 65.105957 198.88599 64.961344 199.16797 64.804688 L 199.16797 72.78125 L 196.80469 72.78125 L 196.80469 73.585938 L 202.39062 73.585938 L 202.39062 72.78125 L 200.2832 72.78125 L 200.2832 63.783203 L 199.25586 63.783203 z M 211.67578 63.783203 L 207.29102 70.148438 L 207.29102 71.115234 L 211.75 71.115234 L 211.75 73.585938 L 212.81055 73.585938 L 212.81055 71.115234 L 213.93164 71.115234 L 214.01172 70.255859 L 212.81055 70.255859 L 212.81055 63.783203 L 211.67578 63.783203 z M 228.56836 63.783203 L 228.56836 73.585938 L 232.2207 73.585938 C 233.35311 73.585938 234.20443 73.343343 234.77734 72.855469 C 235.35474 72.363118 235.64453 71.684164 235.64453 70.820312 C 235.64453 70.198161 235.47493 69.686035 235.13477 69.283203 C 234.79907 68.875895 234.31942 68.58138 233.69727 68.402344 C 234.26571 68.183024 234.66569 67.895182 234.89844 67.537109 C 235.13566 67.174561 235.25391 66.724609 235.25391 66.1875 C 235.25391 65.368408 234.95996 64.764404 234.36914 64.375 C 233.7828 63.98112 232.87345 63.783203 231.64258 63.783203 L 228.56836 63.783203 z M 23.355469 64.669922 L 25.492188 64.669922 C 26.136719 64.669922 26.625243 64.786784 26.960938 65.019531 C 27.301106 65.247803 27.472656 65.6403 27.472656 66.195312 C 27.472656 66.839844 27.31665 67.291178 27.007812 67.550781 C 26.703451 67.810384 26.185221 67.939453 25.451172 67.939453 L 23.355469 67.939453 L 23.355469 64.669922 z M 229.75 64.669922 L 231.63672 64.669922 C 232.51847 64.669922 233.15356 64.788167 233.54297 65.025391 C 233.93237 65.262614 234.12695 65.697021 234.12695 66.328125 C 234.12695 66.954753 233.94792 67.39388 233.58984 67.644531 C 233.23177 67.890706 232.70882 68.013672 232.01953 68.013672 L 229.75 68.013672 L 229.75 64.669922 z M 211.75 65.167969 L 211.75 70.255859 L 208.39844 70.255859 L 211.75 65.167969 z M 46.988281 66.335938 C 46.24528 66.335938 45.669596 66.514974 45.257812 66.873047 C 44.84603 67.226644 44.638672 67.692139 44.638672 68.269531 C 44.638672 68.735026 44.756917 69.114746 44.994141 69.410156 C 45.231364 69.70109 45.670492 69.950358 46.310547 70.15625 L 47.089844 70.404297 C 47.604574 70.569906 47.961263 70.745605 48.158203 70.933594 C 48.355143 71.121582 48.453125 71.355306 48.453125 71.632812 C 48.453125 72.035646 48.33488 72.34375 48.097656 72.558594 C 47.860433 72.768962 47.525391 72.875 47.095703 72.875 C 46.410889 72.875 45.643392 72.67098 44.792969 72.263672 L 44.792969 73.197266 C 45.527018 73.546387 46.268148 73.720703 47.015625 73.720703 C 47.351318 73.720703 47.661377 73.680173 47.943359 73.599609 C 48.229818 73.519039 48.483236 73.397461 48.707031 73.236328 C 48.935303 73.075195 49.114339 72.860352 49.244141 72.591797 C 49.373942 72.318766 49.439453 72.005941 49.439453 71.652344 C 49.439453 71.365885 49.413085 71.124674 49.359375 70.927734 C 49.305665 70.726318 49.207682 70.537842 49.064453 70.363281 C 48.921224 70.188721 48.721924 70.036051 48.466797 69.90625 C 48.216146 69.771973 47.890544 69.642904 47.492188 69.517578 L 46.787109 69.296875 C 46.32609 69.14917 46.024089 69.010661 45.880859 68.880859 C 45.73763 68.751058 45.666016 68.538981 45.666016 68.248047 C 45.666016 67.903402 45.776774 67.641927 45.996094 67.462891 C 46.219889 67.279378 46.588786 67.1875 47.103516 67.1875 C 47.680908 67.1875 48.278809 67.344889 48.896484 67.658203 L 49.158203 66.832031 C 48.486816 66.500814 47.762614 66.335938 46.988281 66.335938 z M 57.146484 66.335938 C 56.157308 66.335938 55.354004 66.669027 54.736328 67.335938 C 54.118652 67.998372 53.810547 68.909098 53.810547 70.068359 C 53.810547 71.178385 54.111165 72.064128 54.710938 72.726562 C 55.315185 73.388998 56.124593 73.720703 57.140625 73.720703 C 57.574788 73.720703 57.963949 73.669353 58.308594 73.566406 C 58.653239 73.46346 58.902507 73.351318 59.054688 73.230469 L 58.845703 72.472656 C 58.393636 72.732259 57.893717 72.861328 57.347656 72.861328 C 56.564372 72.861328 55.969808 72.604574 55.5625 72.089844 C 55.155192 71.575114 54.951172 70.900879 54.951172 70.068359 C 54.951172 69.191081 55.164632 68.491862 55.589844 67.972656 C 56.015055 67.453451 56.578532 67.195313 57.28125 67.195312 C 57.836263 67.195312 58.331462 67.324382 58.765625 67.583984 L 59.080078 66.818359 C 58.927897 66.715413 58.681966 66.611328 58.341797 66.503906 C 58.006104 66.392008 57.607503 66.335938 57.146484 66.335938 z M 63.021484 66.335938 C 62.072591 66.335938 61.217936 66.511637 60.457031 66.865234 L 60.759766 67.685547 C 61.086507 67.52889 61.456787 67.407308 61.873047 67.322266 C 62.289307 67.232746 62.678467 67.1875 63.041016 67.1875 C 63.578125 67.1875 63.970622 67.315186 64.216797 67.570312 C 64.467448 67.82544 64.59375 68.213216 64.59375 68.732422 L 64.59375 69.429688 L 63.458984 69.429688 C 62.317627 69.429688 61.484619 69.612061 60.960938 69.974609 C 60.441732 70.332682 60.181641 70.896159 60.181641 71.666016 C 60.181641 72.310547 60.379556 72.815186 60.773438 73.177734 C 61.171793 73.540283 61.696126 73.720703 62.349609 73.720703 C 63.325358 73.720703 64.11784 73.347087 64.726562 72.599609 L 64.847656 73.580078 L 65.693359 73.580078 L 65.693359 68.892578 C 65.693359 67.988444 65.461589 67.337809 64.996094 66.939453 C 64.535075 66.536621 63.876383 66.335938 63.021484 66.335938 z M 78.107422 66.335938 C 77.198812 66.335938 76.470459 66.734538 75.919922 67.53125 L 75.791016 66.482422 L 74.892578 66.482422 L 74.892578 73.585938 L 76.005859 73.585938 L 76.005859 69.255859 C 76.099849 68.633708 76.30721 68.13379 76.625 67.757812 C 76.947266 67.37736 77.37972 67.1875 77.925781 67.1875 C 78.422607 67.1875 78.763753 67.374593 78.947266 67.746094 C 79.130778 68.113118 79.222656 68.729329 79.222656 69.597656 L 79.222656 73.585938 L 80.335938 73.585938 L 80.335938 69.941406 C 80.349367 69.32373 80.374346 68.952881 80.410156 68.832031 C 80.531006 68.299398 80.76001 67.893311 81.095703 67.611328 C 81.431396 67.329346 81.814453 67.1875 82.244141 67.1875 C 82.436605 67.1875 82.604818 67.217201 82.748047 67.275391 C 82.895752 67.329101 83.010661 67.414876 83.095703 67.53125 C 83.185223 67.647624 83.256836 67.765869 83.310547 67.886719 C 83.364257 68.003092 83.403407 68.157145 83.425781 68.349609 C 83.448161 68.542074 83.460374 68.705566 83.464844 68.839844 C 83.473844 68.969645 83.478516 69.142578 83.478516 69.357422 L 83.478516 73.585938 L 84.59375 73.585938 L 84.59375 69.007812 C 84.59375 67.2264 83.868164 66.335938 82.417969 66.335938 C 81.388509 66.335938 80.606852 66.816976 80.074219 67.779297 C 79.90861 67.32723 79.673503 66.973877 79.369141 66.71875 C 79.064779 66.463623 78.644531 66.335938 78.107422 66.335938 z M 89.246094 66.335938 C 88.306152 66.335938 87.532552 66.673747 86.923828 67.349609 C 86.315104 68.025472 86.009766 68.931478 86.009766 70.068359 C 86.009766 71.191813 86.321208 72.082275 86.943359 72.740234 C 87.565511 73.393717 88.374919 73.720703 89.373047 73.720703 C 90.268229 73.720703 91.068766 73.511963 91.771484 73.095703 L 91.535156 72.310547 C 91.15918 72.498535 90.819987 72.640381 90.515625 72.734375 C 90.211263 72.828365 89.873454 72.875 89.501953 72.875 C 88.817139 72.875 88.261149 72.65682 87.835938 72.222656 C 87.410725 71.784017 87.180339 71.113118 87.144531 70.208984 L 91.945312 70.208984 L 91.986328 69.644531 C 91.986328 68.60612 91.751221 67.796712 91.28125 67.214844 C 90.815755 66.628499 90.1368 66.335938 89.246094 66.335938 z M 96.71875 66.335938 C 95.81014 66.335938 95.079834 66.734538 94.529297 67.53125 L 94.402344 66.482422 L 93.501953 66.482422 L 93.501953 73.585938 L 94.617188 73.585938 L 94.617188 69.255859 C 94.711178 68.633708 94.916585 68.13379 95.234375 67.757812 C 95.556641 67.37736 95.991048 67.1875 96.537109 67.1875 C 97.033936 67.1875 97.375081 67.374593 97.558594 67.746094 C 97.742106 68.113118 97.833984 68.729329 97.833984 69.597656 L 97.833984 73.585938 L 98.947266 73.585938 L 98.947266 69.941406 C 98.960696 69.32373 98.985674 68.952881 99.021484 68.832031 C 99.142334 68.299398 99.371338 67.893311 99.707031 67.611328 C 100.04272 67.329346 100.42383 67.1875 100.85352 67.1875 C 101.04598 67.1875 101.21419 67.217201 101.35742 67.275391 C 101.50513 67.329101 101.62199 67.414876 101.70703 67.53125 C 101.79653 67.647624 101.86816 67.765869 101.92188 67.886719 C 101.97558 68.003092 102.01278 68.157145 102.03516 68.349609 C 102.05756 68.542074 102.07167 68.705566 102.07617 68.839844 C 102.08517 68.969645 102.08984 69.142578 102.08984 69.357422 L 102.08984 73.585938 L 103.20508 73.585938 L 103.20508 69.007812 C 103.20508 67.2264 102.47949 66.335938 101.0293 66.335938 C 99.999836 66.335938 99.21818 66.816976 98.685547 67.779297 C 98.519938 67.32723 98.284831 66.973877 97.980469 66.71875 C 97.676107 66.463623 97.255859 66.335938 96.71875 66.335938 z M 107.96484 66.335938 C 106.92196 66.335938 106.10311 66.67513 105.50781 67.355469 C 104.91699 68.031331 104.62109 68.926514 104.62109 70.041016 C 104.62109 71.128662 104.92171 72.014404 105.52148 72.699219 C 106.12126 73.379557 106.93538 73.720703 107.96484 73.720703 C 108.97192 73.720703 109.78133 73.378174 110.39453 72.693359 C 111.00773 72.004069 111.31445 71.11971 111.31445 70.041016 C 111.31445 68.926514 111.01855 68.031331 110.42773 67.355469 C 109.83691 66.67513 109.01668 66.335938 107.96484 66.335938 z M 116.02148 66.410156 C 115.5918 66.410156 115.18237 66.529785 114.79297 66.771484 C 114.40804 67.008708 114.08105 67.382324 113.8125 67.892578 L 113.69141 66.482422 L 112.79883 66.482422 L 112.79883 73.585938 L 113.91211 73.585938 L 113.91211 69.564453 C 113.91211 68.93335 114.11003 68.399577 114.50391 67.960938 C 114.90226 67.522297 115.40495 67.302734 116.01367 67.302734 C 116.139 67.302734 116.29167 67.319669 116.4707 67.355469 L 116.51758 66.443359 C 116.38778 66.420979 116.2229 66.410156 116.02148 66.410156 z M 37.146484 66.482422 L 39.958984 73.371094 L 38.912109 76.042969 L 39.912109 76.257812 L 43.652344 66.482422 L 42.523438 66.482422 L 40.496094 72.15625 L 38.28125 66.482422 L 37.146484 66.482422 z M 51.017578 66.482422 L 51.017578 73.585938 L 52.119141 73.585938 L 52.119141 66.482422 L 51.017578 66.482422 z M 117.23047 66.482422 L 120.04297 73.371094 L 118.99609 76.042969 L 119.99609 76.257812 L 123.73438 66.482422 L 122.60742 66.482422 L 120.58008 72.15625 L 118.36328 66.482422 L 117.23047 66.482422 z M 89.273438 67.1875 C 90.401366 67.1875 90.991211 67.953613 91.044922 69.484375 L 87.177734 69.484375 C 87.240394 68.777181 87.459961 68.218424 87.835938 67.806641 C 88.21639 67.394857 88.696045 67.1875 89.273438 67.1875 z M 107.96484 67.1875 C 108.69442 67.1875 109.24373 67.448975 109.61523 67.972656 C 109.98674 68.491862 110.17383 69.186361 110.17383 70.054688 C 110.17383 70.609701 110.09753 71.095459 109.94531 71.511719 C 109.79313 71.923503 109.5472 72.255208 109.20703 72.505859 C 108.87134 72.752035 108.45719 72.875 107.96484 72.875 C 107.2487 72.875 106.70215 72.614909 106.32617 72.095703 C 105.9502 71.576497 105.76172 70.894775 105.76172 70.048828 C 105.76172 69.184977 105.9502 68.491862 106.32617 67.972656 C 106.70215 67.448975 107.2487 67.1875 107.96484 67.1875 z M 229.75 68.853516 L 231.66992 68.853516 C 232.63672 68.853516 233.34342 69.001465 233.79102 69.296875 C 234.23861 69.592285 234.46289 70.090251 234.46289 70.792969 C 234.46289 71.455404 234.26831 71.936442 233.87891 72.236328 C 233.49398 72.536214 232.8772 72.6875 232.03125 72.6875 L 229.75 72.6875 L 229.75 68.853516 z M 63.740234 70.169922 L 64.59375 70.169922 L 64.59375 71.732422 C 64.061117 72.515706 63.335531 72.908203 62.417969 72.908203 C 62.082275 72.908203 61.801921 72.800781 61.578125 72.585938 C 61.354329 72.371094 61.242187 72.067708 61.242188 71.673828 C 61.242188 71.454508 61.262444 71.270752 61.302734 71.123047 C 61.343014 70.970866 61.417969 70.832357 61.525391 70.707031 C 61.632812 70.57723 61.778809 70.475911 61.966797 70.404297 C 62.154785 70.328207 62.394613 70.268799 62.685547 70.228516 C 62.976481 70.188236 63.328451 70.169922 63.740234 70.169922 z M 204.49219 72.103516 C 204.49219 72.430257 204.40029 73.572754 204.2168 75.533203 L 204.86719 75.533203 L 205.06836 74.78125 C 205.19816 74.284424 205.32918 73.773682 205.45898 73.25 C 205.58879 72.721842 205.6543 72.429281 205.6543 72.371094 L 205.6543 72.103516 L 204.49219 72.103516 z M 20 138 L 20 139 L 236 139 L 236 138 L 20 138 z M 25.115234 151.65039 C 24.694499 151.65039 24.302002 151.69838 23.939453 151.79688 C 23.576904 151.89538 23.248535 152.04663 22.953125 152.24805 C 22.657715 152.44499 22.425944 152.71117 22.255859 153.04688 C 22.085775 153.38256 22 153.76701 22 154.20117 C 22 154.83228 22.163493 155.32886 22.490234 155.69141 C 22.816976 156.04948 23.312174 156.35482 23.974609 156.60547 L 25.572266 157.21484 C 26.198893 157.45654 26.619141 157.69637 26.833984 157.93359 C 27.053304 158.16634 27.162109 158.51831 27.162109 158.98828 C 27.162109 159.39559 27.064128 159.73813 26.867188 160.01562 C 26.674723 160.28867 26.424072 160.48462 26.115234 160.60547 C 25.806396 160.72184 25.448324 160.78125 25.041016 160.78125 C 24.539714 160.78125 24.018148 160.69075 23.476562 160.51172 C 22.939453 160.33268 22.457031 160.09009 22.027344 159.78125 L 22.027344 160.8418 C 22.30485 161.08797 22.723714 161.29476 23.283203 161.46484 C 23.842692 161.63493 24.421712 161.7207 25.021484 161.7207 C 25.357178 161.7207 25.674723 161.69101 25.974609 161.63281 C 26.278971 161.57461 26.571533 161.47803 26.853516 161.34375 C 27.135498 161.205 27.378662 161.03402 27.580078 160.82812 C 27.781494 160.62223 27.94165 160.35742 28.0625 160.03516 C 28.18335 159.71289 28.244141 159.3501 28.244141 158.94727 C 28.244141 158.62052 28.203611 158.32935 28.123047 158.07422 C 28.042477 157.81909 27.941162 157.60425 27.820312 157.42969 C 27.699464 157.25513 27.528482 157.09163 27.304688 156.93945 C 27.085368 156.7828 26.871908 156.65706 26.666016 156.55859 C 26.4646 156.46009 26.203125 156.34798 25.880859 156.22266 L 24.335938 155.61719 C 23.865966 155.43368 23.538981 155.23299 23.355469 155.01367 C 23.176432 154.78988 23.087891 154.47233 23.087891 154.06055 C 23.087891 153.72485 23.185871 153.44312 23.382812 153.21484 C 23.579753 152.98657 23.82902 152.82446 24.128906 152.73047 C 24.428792 152.63197 24.771322 152.58398 25.15625 152.58398 C 25.57251 152.58398 25.988037 152.64148 26.404297 152.75781 C 26.825033 152.87419 27.181722 153.03295 27.472656 153.23438 L 27.902344 152.40234 C 27.517415 152.16512 27.078288 151.98136 26.585938 151.85156 C 26.098063 151.71729 25.607585 151.65039 25.115234 151.65039 z M 189.0293 151.65039 C 188.52799 151.65039 188.03475 151.72339 187.54688 151.87109 C 187.059 152.01432 186.66512 152.1967 186.36523 152.41602 L 186.69336 153.26758 C 187.0022 153.06616 187.35417 152.90267 187.74805 152.77734 C 188.1464 152.65202 188.53223 152.58984 188.9082 152.58984 C 189.07829 152.58984 189.24178 152.60532 189.39844 152.63672 C 189.55509 152.66352 189.71859 152.71962 189.88867 152.80469 C 190.05876 152.88529 190.20532 152.99129 190.32617 153.12109 C 190.44702 153.24642 190.54639 153.4174 190.62695 153.63672 C 190.70755 153.85604 190.74805 154.11003 190.74805 154.39648 C 190.74805 154.66056 190.72167 154.90177 190.66797 155.12109 C 190.61877 155.33594 190.52547 155.55688 190.38672 155.78516 C 190.24797 156.01343 190.125 156.19718 190.01758 156.33594 C 189.91016 156.47469 189.7325 156.68815 189.48633 156.97461 L 186.32422 160.70703 L 186.49805 161.58594 L 191.74219 161.58594 L 191.80273 160.78125 L 187.58008 160.78125 L 190.21094 157.69922 C 190.52873 157.32772 190.77466 157.02238 190.94922 156.78516 C 191.12826 156.54793 191.29175 156.29451 191.43945 156.02148 C 191.59163 155.74398 191.69434 155.46973 191.74805 155.20117 C 191.80625 154.93262 191.83594 154.62923 191.83594 154.28906 C 191.83594 153.89966 191.77844 153.54907 191.66211 153.24023 C 191.54574 152.92692 191.39307 152.67489 191.20508 152.48242 C 191.01709 152.28548 190.79752 152.12337 190.54688 151.99805 C 190.29621 151.86825 190.04557 151.7797 189.79492 151.73047 C 189.54875 151.67677 189.29338 151.65039 189.0293 151.65039 z M 197.19336 151.65039 C 196.47721 151.65039 195.86849 151.8619 195.36719 152.28711 C 194.86589 152.70785 194.49227 153.29492 194.24609 154.04688 C 194.00439 154.79434 193.88477 155.68343 193.88477 156.71289 C 193.88477 157.45589 193.94827 158.13151 194.07812 158.74023 C 194.2124 159.34448 194.41032 159.87687 194.66992 160.33789 C 194.934 160.79443 195.27792 161.14917 195.70312 161.4043 C 196.13281 161.65495 196.62939 161.78125 197.19336 161.78125 C 197.75285 161.78125 198.24333 161.65495 198.66406 161.4043 C 199.08927 161.14917 199.42708 160.7911 199.67773 160.33008 C 199.93286 159.86906 200.12272 159.33667 200.24805 158.73242 C 200.37337 158.12817 200.4375 157.45589 200.4375 156.71289 C 200.4375 155.93856 200.3687 155.24406 200.23438 154.63086 C 200.1001 154.01318 199.90275 153.48218 199.63867 153.03906 C 199.37907 152.59147 199.03931 152.24894 198.62305 152.01172 C 198.21126 151.77002 197.73494 151.65039 197.19336 151.65039 z M 205.27734 151.65039 C 204.5612 151.65039 203.95247 151.8619 203.45117 152.28711 C 202.94987 152.70785 202.57625 153.29492 202.33008 154.04688 C 202.08838 154.79434 201.9668 155.68343 201.9668 156.71289 C 201.9668 157.45589 202.0323 158.13151 202.16211 158.74023 C 202.29639 159.34448 202.4943 159.87687 202.75391 160.33789 C 203.01799 160.79443 203.3619 161.14917 203.78711 161.4043 C 204.2168 161.65495 204.71338 161.78125 205.27734 161.78125 C 205.83683 161.78125 206.32731 161.65495 206.74805 161.4043 C 207.17326 161.14917 207.51107 160.7911 207.76172 160.33008 C 208.01685 159.86906 208.20671 159.33667 208.33203 158.73242 C 208.45736 158.12817 208.51953 157.45589 208.51953 156.71289 C 208.51953 155.93856 208.45263 155.24406 208.31836 154.63086 C 208.18408 154.01318 207.98478 153.48218 207.7207 153.03906 C 207.4611 152.59147 207.12329 152.24894 206.70703 152.01172 C 206.29525 151.77002 205.81893 151.65039 205.27734 151.65039 z M 213.66992 151.7832 L 213.47461 161.58594 L 214.58984 161.58594 L 214.68359 155.53711 L 214.68359 153.2207 L 217.77148 160.49219 L 218.78516 160.49219 L 221.89453 153.30078 L 221.89453 155.50977 L 221.98828 161.58594 L 223.08984 161.58594 L 222.89453 151.7832 L 221.48438 151.7832 L 218.29492 159.23047 L 215.11914 151.7832 L 213.66992 151.7832 z M 225.79492 151.7832 C 225.58008 151.7832 225.40243 151.852 225.26367 151.98633 C 225.12939 152.11613 225.0625 152.28573 225.0625 152.49609 C 225.0625 152.70646 225.1294 152.87939 225.26367 153.01367 C 225.40243 153.14795 225.58008 153.21484 225.79492 153.21484 C 226.00529 153.21484 226.17961 153.14794 226.31836 153.01367 C 226.45711 152.87939 226.52734 152.70646 226.52734 152.49609 C 226.52734 152.28573 226.45714 152.11613 226.31836 151.98633 C 226.18408 151.85205 226.00977 151.7832 225.79492 151.7832 z M 228.56836 151.7832 L 228.56836 161.58594 L 232.2207 161.58594 C 233.35311 161.58594 234.20443 161.34334 234.77734 160.85547 C 235.35474 160.36312 235.64453 159.68416 235.64453 158.82031 C 235.64453 158.19816 235.47493 157.68604 235.13477 157.2832 C 234.79907 156.8759 234.31942 156.58138 233.69727 156.40234 C 234.26571 156.18302 234.66569 155.89518 234.89844 155.53711 C 235.13566 155.17456 235.25391 154.72461 235.25391 154.1875 C 235.25391 153.36841 234.95996 152.7644 234.36914 152.375 C 233.7828 151.98112 232.87345 151.7832 231.64258 151.7832 L 228.56836 151.7832 z M 197.19336 152.55664 C 198.6167 152.55664 199.32813 153.92814 199.32812 156.67188 C 199.32814 158.05492 199.14299 159.10278 198.77148 159.81445 C 198.40446 160.52165 197.87817 160.875 197.19336 160.875 C 196.49959 160.875 195.95776 160.51831 195.56836 159.80664 C 195.18343 159.09049 194.99219 158.04736 194.99219 156.67773 C 194.98819 155.36629 195.18229 154.35286 195.57617 153.63672 C 195.97005 152.9161 196.50854 152.55664 197.19336 152.55664 z M 205.27734 152.55664 C 206.70068 152.55664 207.41211 153.92814 207.41211 156.67188 C 207.41211 158.05492 207.22697 159.10278 206.85547 159.81445 C 206.48844 160.52165 205.96216 160.875 205.27734 160.875 C 204.58358 160.875 204.04175 160.51831 203.65234 159.80664 C 203.26742 159.09049 203.07617 158.04736 203.07617 156.67773 C 203.07217 155.36629 203.26628 154.35286 203.66016 153.63672 C 204.05404 152.9161 204.59253 152.55664 205.27734 152.55664 z M 229.75 152.66992 L 231.63672 152.66992 C 232.51847 152.66992 233.15356 152.78817 233.54297 153.02539 C 233.93237 153.26261 234.12695 153.69702 234.12695 154.32812 C 234.12695 154.95476 233.94792 155.39388 233.58984 155.64453 C 233.23177 155.89071 232.70882 156.01367 232.01953 156.01367 L 229.75 156.01367 L 229.75 152.66992 z M 42.773438 154.33594 C 41.824543 154.33594 40.969889 154.51164 40.208984 154.86523 L 40.509766 155.68555 C 40.836507 155.52889 41.20874 155.40731 41.625 155.32227 C 42.04126 155.23277 42.43042 155.1875 42.792969 155.1875 C 43.330078 155.1875 43.722575 155.31519 43.96875 155.57031 C 44.219401 155.82544 44.34375 156.21322 44.34375 156.73242 L 44.34375 157.42969 L 43.208984 157.42969 C 42.067627 157.42969 41.234618 157.61206 40.710938 157.97461 C 40.191732 158.33268 39.933594 158.89616 39.933594 159.66602 C 39.933594 160.31055 40.129556 160.81519 40.523438 161.17773 C 40.921793 161.54028 41.448079 161.7207 42.101562 161.7207 C 43.077312 161.7207 43.869792 161.34709 44.478516 160.59961 L 44.599609 161.58008 L 45.445312 161.58008 L 45.445312 156.89258 C 45.445312 155.98844 45.211589 155.33781 44.746094 154.93945 C 44.285075 154.53662 43.628337 154.33594 42.773438 154.33594 z M 50.59375 154.33594 C 49.568766 154.33594 48.795166 154.7981 48.271484 155.72461 L 48.158203 154.48242 L 47.230469 154.48242 L 47.230469 164.70117 L 48.345703 164.70117 L 48.345703 162.0293 L 48.298828 160.38477 C 48.826986 161.27547 49.585042 161.7207 50.574219 161.7207 C 51.505208 161.7207 52.230794 161.38428 52.75 160.71289 C 53.269206 160.0415 53.529297 159.15576 53.529297 158.05469 C 53.529297 156.90885 53.278646 156.00285 52.777344 155.33594 C 52.280518 154.66903 51.551595 154.33594 50.59375 154.33594 z M 29.263672 154.48242 L 31.257812 161.58594 L 32.318359 161.58594 L 34.185547 155.46289 L 36.160156 161.58594 L 37.146484 161.58594 L 39.060547 154.48242 L 38.039062 154.48242 L 36.623047 160.20312 L 34.769531 154.48242 L 33.582031 154.48242 L 31.835938 160.22266 L 30.318359 154.48242 L 29.263672 154.48242 z M 225.23828 154.48242 L 225.23828 161.58594 L 226.33789 161.58594 L 226.33789 154.48242 L 225.23828 154.48242 z M 50.466797 155.1875 C 51.746908 155.1875 52.386719 156.13875 52.386719 158.04102 C 52.386719 159.92537 51.72526 160.86719 50.400391 160.86719 C 49.729004 160.86719 49.208822 160.61043 48.841797 160.0957 C 48.479248 159.58097 48.298828 158.85872 48.298828 157.92773 C 48.303328 157.06836 48.48234 156.39746 48.835938 155.91406 C 49.189535 155.43066 49.732747 155.1875 50.466797 155.1875 z M 229.75 156.85352 L 231.66992 156.85352 C 232.63672 156.85352 233.34342 157.00145 233.79102 157.29688 C 234.23861 157.59229 234.46289 158.09025 234.46289 158.79297 C 234.46289 159.4554 234.26831 159.93644 233.87891 160.23633 C 233.49398 160.53621 232.8772 160.6875 232.03125 160.6875 L 229.75 160.6875 L 229.75 156.85352 z M 43.490234 158.16992 L 44.34375 158.16992 L 44.34375 159.73242 C 43.811117 160.51571 43.085531 160.9082 42.167969 160.9082 C 41.832275 160.9082 41.553874 160.80078 41.330078 160.58594 C 41.106283 160.37109 40.994141 160.06771 40.994141 159.67383 C 40.994141 159.45451 41.014398 159.27075 41.054688 159.12305 C 41.094968 158.97087 41.167969 158.83236 41.275391 158.70703 C 41.382812 158.57723 41.530762 158.47591 41.71875 158.4043 C 41.906738 158.3282 42.146566 158.2688 42.4375 158.22852 C 42.728434 158.18822 43.078451 158.16992 43.490234 158.16992 z M 20 226 L 20 227 L 236 227 L 236 226 L 20 226 z "
     id="rect7886" />
  <path
     style="fill:currentColor;fill-opacity:1;stroke:none"
     class="ColorScheme-Highlight"
     d="m 20,138 0,-57 c 40,0 50.000006,10 85,10 20,0 20,-5 35,-5 15,0 30,-5 40,-5 10,0 40,0 56,0 l 0,57 z"
     id="path10" />
  <path
     style="fill:currentColor;fill-opacity:1;stroke:none"
     class="ColorScheme-Highlight"
     d="m 20,226 0,-55 c 55,0 64.999997,50 79.999997,50 C 120,221 130,216 145,216 c 15,0 25,5 50,5 25,0 16,0 41,0 l 0,5 z"
     id="path12" />
  <g
     transform="matrix(0.6956522,0,0,0.6956522,-244.22362,-159.46806)"
     id="layer1-1-8"
     inkscape:label="Capa 1">
    <rect
       ry="0"
       y="497.798"
       x="385.57144"
       height="51.999908"
       width="45.999985"
       id="rect4139-3"
       style="opacity:1;fill:url(#linearGradient5329);fill-opacity:1;stroke:none" />
    <path
       inkscape:connector-curvature="0"
       id="path4795-0"
       d="m 387.57143,543.79799 6,6 37,0 1,-2e-5 0,-46.99998 0,-1 -2,-2 0,44 z"
       style="opacity:0.2;fill:url(#linearGradient4881-9);fill-opacity:1;fill-rule:evenodd;stroke:none;stroke-width:1px;stroke-linecap:butt;stroke-linejoin:miter;stroke-opacity:1" />
    <rect
       y="548.79797"
       x="385.57144"
       height="1.0000228"
       width="45.999985"
       id="rect4492-7"
       style="opacity:1;fill:#737b81;fill-opacity:1;stroke:none;stroke-width:2.79999995;stroke-miterlimit:4;stroke-dasharray:none;stroke-opacity:0.55026455" />
    <rect
       y="545.7981"
       x="393.57144"
       height="3.999939"
       width="30"
       id="rect4671-9"
       style="opacity:1;fill:#292c2e;fill-opacity:1;stroke:none;stroke-width:0.1;stroke-miterlimit:4;stroke-dasharray:none;stroke-opacity:1" />
    <rect
       style="opacity:1;fill:#abb9be;fill-opacity:1;stroke:none;stroke-width:0.1;stroke-miterlimit:4;stroke-dasharray:none;stroke-opacity:1"
       id="rect4963-4"
       width="15.599988"
       height="15.599988"
       x="400.77151"
       y="506.89804"
       ry="7.7999926" />
    <path
       transform="translate(376.57144,491.79797)"
       id="path4648-3"
       d="m 11,8 0,44 21,0 21,0 L 53,8 32,8 11,8 Z"
       style="fill:url(#linearGradient4659-6);fill-opacity:1;fill-rule:evenodd;stroke:none;stroke-width:1px;stroke-linecap:butt;stroke-linejoin:miter;stroke-opacity:1"
       inkscape:connector-curvature="0" />
    <rect
       y="532.79822"
       x="390.57144"
       height="5.0000229"
       width="11.999987"
       id="rect4985-0"
       style="opacity:1;fill:#fdbc4a;fill-opacity:1;stroke:none;stroke-width:0.1;stroke-miterlimit:4;stroke-dasharray:none;stroke-opacity:1" />
    <rect
       y="533.79822"
       x="391.57144"
       height="1.0000228"
       width="9.9999866"
       id="rect5119-1"
       style="opacity:1;fill:#ffffff;fill-opacity:1;stroke:none;stroke-width:0.1;stroke-miterlimit:4;stroke-dasharray:none;stroke-opacity:1" />
    <rect
       y="535.79846"
       x="391.57144"
       height="1.0000228"
       width="7.9999866"
       id="rect5121-8"
       style="opacity:1;fill:#ffffff;fill-opacity:1;stroke:none;stroke-width:0.1;stroke-miterlimit:4;stroke-dasharray:none;stroke-opacity:1" />
    <rect
       y="548.79797"
       x="393.57144"
       height="1"
       width="29.999987"
       id="rect4194-6"
       style="opacity:1;fill:#202324;fill-opacity:1;stroke:none;stroke-opacity:1" />
    <rect
       ry="9.6193602e-05"
       y="546.79797"
       x="395.5715"
       height="1"
       width="1.9999866"
       id="rect4544-7"
       style="opacity:1;fill:#f9cf8d;fill-opacity:1;stroke:none;stroke-opacity:1" />
    <rect
       ry="9.6193602e-05"
       y="547.79797"
       x="395.5715"
       height="1"
       width="1.9999866"
       id="rect4546-52"
       style="opacity:1;fill:#f6b44d;fill-opacity:1;stroke:none;stroke-opacity:1" />
    <rect
       ry="9.6193602e-05"
       y="546.79797"
       x="419.5715"
       height="1"
       width="1.9999866"
       id="rect4544-0-7"
       style="opacity:1;fill:#f9cf8d;fill-opacity:1;stroke:none;stroke-opacity:1" />
    <rect
       ry="9.6193602e-05"
       y="547.79797"
       x="419.5715"
       height="1"
       width="1.9999866"
       id="rect4546-7-1"
       style="opacity:1;fill:#f6b44d;fill-opacity:1;stroke:none;stroke-opacity:1" />
    <rect
       ry="9.6193602e-05"
       y="546.79797"
       x="398.5715"
       height="1"
       width="1.9999866"
       id="rect4544-6-7"
       style="opacity:1;fill:#f9cf8d;fill-opacity:1;stroke:none;stroke-opacity:1" />
    <rect
       ry="9.6193602e-05"
       y="547.79797"
       x="398.5715"
       height="1"
       width="1.9999866"
       id="rect4546-5-4"
       style="opacity:1;fill:#f6b44d;fill-opacity:1;stroke:none;stroke-opacity:1" />
    <rect
       ry="9.6193602e-05"
       y="546.79797"
       x="401.5715"
       height="1"
       width="1.9999866"
       id="rect4544-1-7"
       style="opacity:1;fill:#f9cf8d;fill-opacity:1;stroke:none;stroke-opacity:1" />
    <rect
       ry="9.6193602e-05"
       y="547.79797"
       x="401.5715"
       height="1"
       width="1.9999866"
       id="rect4546-3-3"
       style="opacity:1;fill:#f6b44d;fill-opacity:1;stroke:none;stroke-opacity:1" />
    <rect
       ry="9.6193602e-05"
       y="546.79797"
       x="407.57144"
       height="1"
       width="1.9999866"
       id="rect4544-06-6"
       style="opacity:1;fill:#f9cf8d;fill-opacity:1;stroke:none;stroke-opacity:1" />
    <rect
       ry="9.6193602e-05"
       y="547.79797"
       x="407.57144"
       height="1"
       width="1.9999866"
       id="rect4546-6-6"
       style="opacity:1;fill:#f6b44d;fill-opacity:1;stroke:none;stroke-opacity:1" />
    <rect
       ry="9.6193602e-05"
       y="546.79797"
       x="416.5715"
       height="1"
       width="1.9999866"
       id="rect4544-9-2"
       style="opacity:1;fill:#f9cf8d;fill-opacity:1;stroke:none;stroke-opacity:1" />
    <rect
       ry="9.6193602e-05"
       y="547.79797"
       x="416.5715"
       height="1"
       width="1.9999866"
       id="rect4546-0-4"
       style="opacity:1;fill:#f6b44d;fill-opacity:1;stroke:none;stroke-opacity:1" />
    <rect
       ry="9.6193602e-05"
       y="546.79797"
       x="413.5715"
       height="1"
       width="1.9999866"
       id="rect4544-8-5"
       style="opacity:1;fill:#f9cf8d;fill-opacity:1;stroke:none;stroke-opacity:1" />
    <rect
       ry="9.6193602e-05"
       y="547.79797"
       x="413.5715"
       height="1"
       width="1.9999866"
       id="rect4546-55-52"
       style="opacity:1;fill:#f6b44d;fill-opacity:1;stroke:none;stroke-opacity:1" />
    <rect
       ry="9.6193602e-05"
       y="546.79797"
       x="410.5715"
       height="1"
       width="1.9999866"
       id="rect4544-8-8-6"
       style="opacity:1;fill:#f9cf8d;fill-opacity:1;stroke:none;stroke-opacity:1" />
    <rect
       ry="9.6193602e-05"
       y="547.79797"
       x="410.5715"
       height="1"
       width="1.9999866"
       id="rect4546-55-5-8"
       style="opacity:1;fill:#f6b44d;fill-opacity:1;stroke:none;stroke-opacity:1" />
    <rect
       ry="9.6193602e-05"
       y="546.79797"
       x="404.5715"
       height="1"
       width="1.9999866"
       id="rect4544-8-89-4"
       style="opacity:1;fill:#f9cf8d;fill-opacity:1;stroke:none;stroke-opacity:1" />
    <rect
       ry="9.6193602e-05"
       y="547.79797"
       x="404.5715"
       height="1"
       width="1.9999866"
       id="rect4546-55-7-8"
       style="opacity:1;fill:#f6b44d;fill-opacity:1;stroke:none;stroke-opacity:1" />
    <rect
       y="532.79797"
       x="414.57144"
       height="0.99999231"
       width="12.999987"
       id="rect4979-6"
       style="opacity:1;fill:#f2f2f2;fill-opacity:1;stroke:none;stroke-width:0.1;stroke-miterlimit:4;stroke-dasharray:none;stroke-opacity:1" />
    <rect
       y="534.79803"
       x="414.57144"
       height="1"
       width="13.000044"
       id="rect4981-9"
       style="opacity:1;fill:#f2f2f2;fill-opacity:1;stroke:none;stroke-width:0.1;stroke-miterlimit:4;stroke-dasharray:none;stroke-opacity:1" />
    <rect
       y="536.79822"
       x="414.57144"
       height="1"
       width="13.000013"
       id="rect4983-9"
       style="opacity:1;fill:#f2f2f2;fill-opacity:1;stroke:none;stroke-width:0.1;stroke-miterlimit:4;stroke-dasharray:none;stroke-opacity:1" />
    <path
       transform="translate(376.57144,491.79797)"
       id="rect4200-3"
       d="m 18.707031,14.292969 -1.414062,1.414062 8,8 L 25,24 55,54 55,44 30,19 l -3.292969,3.292969 -8,-8 z m -2.146484,6.146484 -2.121094,2.121094 5.5,5.5 -1.353515,1.353515 L 47.169922,58 l 6.953125,0 -37.5625,-37.560547 z"
       style="opacity:0.2;fill:url(#linearGradient4231-8);fill-opacity:1;stroke:none;stroke-opacity:1"
       inkscape:connector-curvature="0" />
    <g
       style="fill:url(#linearGradient4793-0);fill-opacity:1"
       inkscape:label="Capa 1"
       id="layer1-7-9"
       transform="translate(387.57144,-527.56423)">
      <path
         inkscape:connector-curvature="0"
         style="opacity:1;fill:url(#linearGradient4399);fill-opacity:1;stroke:none"
         d="M 7,3 C 6.446,3 6,3.446 6,4 6,4.554 6.446,5 7,5 7.554,5 8,4.554 8,4 8,3.446 7.554,3 7,3 Z m 7,0 -2,2 3,3 -3,3 2,2 3,-3 2,-2 -5,-5 z M 4.5,9 C 3.669,9 3,9.669 3,10.5 3,11.331 3.669,12 4.5,12 5.331,12 6,11.331 6,10.5 6,9.669 5.331,9 4.5,9 Z M 9,15 c -1.108,0 -2,0.892 -2,2 0,1.108 0.892,2 2,2 1.108,0 2,-0.892 2,-2 0,-1.108 -0.892,-2 -2,-2 z"
         transform="translate(0,1030.3622)"
         id="rect4231-3" />
    </g>
  </g>
  <g
     transform="matrix(0.84210526,0,0,0.84210526,-298.16542,-324.17991)"
     id="layer1-6"
     inkscape:label="Capa 1">
    <path
       sodipodi:nodetypes="ccccc"
       inkscape:connector-curvature="0"
       id="rect4283"
       d="m 382.57144,504.79797 c 0,17.33333 0,-1.33333 0,16 l 52,0 0,-16 z"
       style="opacity:1;fill:url(#linearGradient4291);fill-opacity:1;stroke:none" />
    <path
       inkscape:connector-curvature="0"
       id="path4257"
       d="m 422.57144,507.79797 -6,8 5,5 13,0 0,-1 -12,-12 z"
       style="opacity:0.2;fill:url(#linearGradient4259);fill-opacity:1;fill-rule:evenodd;stroke:none;stroke-width:1px;stroke-linecap:butt;stroke-linejoin:miter;stroke-opacity:1" />
    <path
       inkscape:connector-curvature="0"
       id="path4261"
       d="m 430.57144,507.79797 -6,8 5,5 5,0 0,-9 -4,-4 z"
       style="opacity:0.2;fill:url(#linearGradient4263);fill-opacity:1;fill-rule:evenodd;stroke:none;stroke-width:1px;stroke-linecap:butt;stroke-linejoin:miter;stroke-opacity:1" />
    <path
       inkscape:connector-curvature="0"
       id="path4181"
       d="m 408.57144,515.79797 6,-8 13,13 -13,0 -2,0 1,0 z"
       style="opacity:0.2;fill:url(#linearGradient4184);fill-opacity:1;fill-rule:evenodd;stroke:none;stroke-width:1px;stroke-linecap:butt;stroke-linejoin:miter;stroke-opacity:1" />
    <rect
       y="519.79773"
       x="382.57144"
       height="0.99999976"
       width="52"
       id="rect4293"
       style="opacity:1;fill:#dce269;fill-opacity:1;stroke:none" />
    <rect
       y="507.79803"
       x="424.57144"
       height="7.9999986"
       width="6.0000005"
       id="rect4175"
       style="opacity:1;fill:url(#linearGradient4183);fill-opacity:1;stroke:none" />
    <path
       inkscape:connector-curvature="0"
       id="rect4193"
       d="m 431.57144,507.79797 0,1 1,0 0,-1 -1,0 z m 1,1 0,1 1,0 0,-1 -1,0 z m 0,1 -1,0 0,1 1,0 0,-1 z m 0,1 0,1 1,0 0,-1 -1,0 z m 0,1 -1,0 0,1 1,0 0,-1 z m 0,1 0,1 1,0 0,-1 -1,0 z m 0,1 -1,0 0,1 1,0 0,-1 z m 0,1 0,1 1,0 0,-1 -1,0 z m 0,1 -1,0 0,1 1,0 0,-1 z m 0,1 0,1 1,0 0,-1 -1,0 z m -1,0 -1,0 0,1 1,0 0,-1 z m -1,1 -1,0 0,1 1,0 0,-1 z m -1,0 0,-1 -1,0 0,1 1,0 z m -1,0 -1,0 0,1 1,0 0,-1 z m -1,0 0,-1 -1,0 0,1 1,0 z"
       style="opacity:0.6;fill:#dee372;fill-opacity:1;stroke:none" />
    <rect
       y="508.79797"
       x="385.57144"
       height="7"
       width="19"
       id="rect4277"
       style="opacity:1;fill:url(#linearGradient4455);fill-opacity:1;stroke:none" />
    <rect
       style="opacity:1;fill:url(#linearGradient4281);fill-opacity:1;stroke:none"
       id="rect4279"
       width="6.0000005"
       height="7.9999986"
       x="416.57144"
       y="507.79803" />
    <rect
       y="507.79803"
       x="408.57144"
       height="7.9999986"
       width="6.0000005"
       id="rect4322"
       style="opacity:1;fill:url(#linearGradient4324);fill-opacity:1;stroke:none" />
    <rect
       y="509.79797"
       x="386.57144"
       height="1"
       width="8"
       id="rect4457"
       style="opacity:1;fill:#ff5555;fill-opacity:1;stroke:none" />
    <rect
       style="opacity:1;fill:#35383b;fill-opacity:1;stroke:none"
       id="rect4459"
       width="2.9999983"
       height="0.99999636"
       x="386.57144"
       y="511.79797" />
    <rect
       y="511.79797"
       x="390.57144"
       height="0.99999636"
       width="3.9999983"
       id="rect4461"
       style="opacity:1;fill:#35383b;fill-opacity:1;stroke:none" />
    <path
       inkscape:connector-curvature="0"
       id="rect4463"
       d="m 390.57144,513.79797 0,1 -1,0 0,1 1,0 1,0 1,0 1,0 1,0 1,0 1,0 1,0 1,0 1,0 0,-1 -1,0 0,-1 -1,0 0,1 -1,0 -1,0 0,-1 -1,0 0,1 -1,0 0,-1 -1,0 0,1 -1,0 0,-1 -1,0 z"
       style="opacity:1;fill:#35383b;fill-opacity:1;stroke:none" />
    <path
       style="opacity:1;fill:url(#linearGradient4304);fill-opacity:1;stroke:none"
       d="m 382.57144,526.79797 c 0,17.33333 0,-1.33333 0,16 l 52,0 0,-16 z"
       id="path4275"
       inkscape:connector-curvature="0"
       sodipodi:nodetypes="ccccc" />
    <path
       style="opacity:0.2;fill:url(#linearGradient4306);fill-opacity:1;fill-rule:evenodd;stroke:none;stroke-width:1px;stroke-linecap:butt;stroke-linejoin:miter;stroke-opacity:1"
       d="m 422.57144,529.79797 -6,8 5,5 13,0 0,-1 -12,-12 z"
       id="path4277"
       inkscape:connector-curvature="0" />
    <path
       style="opacity:0.2;fill:url(#linearGradient4308);fill-opacity:1;fill-rule:evenodd;stroke:none;stroke-width:1px;stroke-linecap:butt;stroke-linejoin:miter;stroke-opacity:1"
       d="m 430.57144,529.79797 -6,8 5,5 5,0 0,-9 -4,-4 z"
       id="path4279"
       inkscape:connector-curvature="0" />
    <path
       style="opacity:0.2;fill:url(#linearGradient4310);fill-opacity:1;fill-rule:evenodd;stroke:none;stroke-width:1px;stroke-linecap:butt;stroke-linejoin:miter;stroke-opacity:1"
       d="m 408.57144,537.79797 6,-8 13,13 -13,0 -2,0 1,0 z"
       id="path4281"
       inkscape:connector-curvature="0" />
    <rect
       style="opacity:1;fill:#dce269;fill-opacity:1;stroke:none"
       id="rect4284"
       width="52"
       height="0.99999976"
       x="382.57144"
       y="541.79773" />
    <rect
       style="opacity:1;fill:url(#linearGradient4312);fill-opacity:1;stroke:none"
       id="rect4286"
       width="6.0000005"
       height="7.9999986"
       x="424.57144"
       y="529.79803" />
    <path
       style="opacity:0.6;fill:#dee372;fill-opacity:1;stroke:none"
       d="m 431.57144,529.79797 0,1 1,0 0,-1 -1,0 z m 1,1 0,1 1,0 0,-1 -1,0 z m 0,1 -1,0 0,1 1,0 0,-1 z m 0,1 0,1 1,0 0,-1 -1,0 z m 0,1 -1,0 0,1 1,0 0,-1 z m 0,1 0,1 1,0 0,-1 -1,0 z m 0,1 -1,0 0,1 1,0 0,-1 z m 0,1 0,1 1,0 0,-1 -1,0 z m 0,1 -1,0 0,1 1,0 0,-1 z m 0,1 0,1 1,0 0,-1 -1,0 z m -1,0 -1,0 0,1 1,0 0,-1 z m -1,1 -1,0 0,1 1,0 0,-1 z m -1,0 0,-1 -1,0 0,1 1,0 z m -1,0 -1,0 0,1 1,0 0,-1 z m -1,0 0,-1 -1,0 0,1 1,0 z"
       id="path4288"
       inkscape:connector-curvature="0" />
    <rect
       style="opacity:1;fill:url(#linearGradient4314);fill-opacity:1;stroke:none"
       id="rect4290"
       width="19"
       height="7"
       x="385.57144"
       y="530.79797" />
    <rect
       y="529.79803"
       x="416.57144"
       height="7.9999986"
       width="6.0000005"
       id="rect4292"
       style="opacity:1;fill:url(#linearGradient4316);fill-opacity:1;stroke:none" />
    <rect
       style="opacity:1;fill:url(#linearGradient4318);fill-opacity:1;stroke:none"
       id="rect4294"
       width="6.0000005"
       height="7.9999986"
       x="408.57144"
       y="529.79803" />
    <rect
       style="opacity:1;fill:#ff5555;fill-opacity:1;stroke:none"
       id="rect4296"
       width="8"
       height="1"
       x="386.57144"
       y="531.79797" />
    <rect
       y="533.79797"
       x="386.57144"
       height="0.99999636"
       width="2.9999983"
       id="rect4298"
       style="opacity:1;fill:#35383b;fill-opacity:1;stroke:none" />
    <rect
       style="opacity:1;fill:#35383b;fill-opacity:1;stroke:none"
       id="rect4300"
       width="3.9999983"
       height="0.99999636"
       x="390.57144"
       y="533.79797" />
    <path
       style="opacity:1;fill:#35383b;fill-opacity:1;stroke:none"
       d="m 390.57144,535.79797 0,1 -1,0 0,1 1,0 1,0 1,0 1,0 1,0 1,0 1,0 1,0 1,0 1,0 0,-1 -1,0 0,-1 -1,0 0,1 -1,0 -1,0 0,-1 -1,0 0,1 -1,0 0,-1 -1,0 0,1 -1,0 0,-1 -1,0 z"
       id="path4302"
       inkscape:connector-curvature="0" />
  </g>
</svg>
