<svg xmlns="http://www.w3.org/2000/svg" viewBox="0 0 256 256">
  <defs
     id="defs4">
    <style
       id="current-color-scheme"
       type="text/css">
      .ColorScheme-Text {
        color:#f2f2f2;
      }
      .ColorScheme-Background {
        color:#31363b;
      }
      .ColorScheme-Highlight {
        color:#3daee9;
      }
      .ColorScheme-ViewText {
        color:#31363b;
      }
      .ColorScheme-ViewBackground {
        color:#314045;
      }
      .ColorScheme-ViewHover {
        color:#93cee9;
      }
      .ColorScheme-ViewFocus{
        color:#3daee9;
      }
      .ColorScheme-ButtonText {
        color:#31363b;
      }
      .ColorScheme-ButtonBackground {
        color:#31363b;
      }
      .ColorScheme-ButtonHover {
        color:#93cee9;
      }
      .ColorScheme-ButtonFocus{
        color:#3daee9;
      }
      </style>
  </defs>
  <path
     style="fill:currentColor;fill-opacity:0.5;stroke:none"
     d="m 16,10 224,0 c 3.324,0 6,2.676 6,6 l 0,224 c 0,3.324 -2.676,6 -6,6 l -224,0 c -3.324,0 -6,-2.676 -6,-6 L 10,16 c 0,-3.324 2.676,-6 6,-6 z"
     class="ColorScheme-ButtonText"
     id="rect4240" />
  <path
     style="fill:currentColor;fill-opacity:1;stroke:none"
     d="m 16,12 224,0 c 2.216,0 4,1.784 4,4 l 0,224 c 0,2.216 -1.784,4 -4,4 l -224,0 c -2.216,0 -4,-1.784 -4,-4 L 12,16 c 0,-2.216 1.784,-4 4,-4 z"
     class="ColorScheme-Background"
     id="rect4238" />
  <path
     style="fill:currentColor;fill-opacity:1;stroke:none" 
     class="ColorScheme-Text"
     d="m 21.207031,26.73438 0,1.0625 3.44336,0 0,10.521484 1.396484,0 0,-10.521484 3.466797,0 0,-1.0625 -8.306641,0 z m 10.544922,0 c -0.253906,0 -0.462972,0.07959 -0.626953,0.238281 -0.158691,0.1534 -0.238281,0.352949 -0.238281,0.601563 0,0.24862 0.07959,0.452635 0.238281,0.611328 0.163981,0.158687 0.373047,0.238281 0.626953,0.238281 0.248617,0 0.45516,-0.07959 0.619141,-0.238281 0.163981,-0.158693 0.246094,-0.362708 0.246094,-0.611328 -10e-7,-0.248614 -0.08211,-0.448163 -0.246094,-0.601563 -0.158692,-0.158693 -0.365235,-0.238281 -0.619141,-0.238281 z m 6.824219,3.015625 c -1.073811,0 -1.937255,0.470543 -2.587891,1.412109 l -0.15039,-1.238281 -1.0625,0 0,8.394531 1.316406,0 0,-5.117187 c 0.111084,-0.735267 0.354899,-1.325191 0.730469,-1.769531 0.380859,-0.44962 0.893717,-0.675782 1.539062,-0.675782 0.587158,0 0.9882,0.22111 1.205078,0.660157 0.216878,0.433753 0.326172,1.163246 0.326172,2.189453 l 0,4.71289 1.316406,0 0,-4.308593 c 0.01587,-0.72998 0.04557,-1.165774 0.08789,-1.308594 0.142822,-0.62948 0.411865,-1.112059 0.808594,-1.445313 0.396728,-0.333246 0.849609,-0.5 1.357422,-0.5 0.227457,0 0.426432,0.03475 0.595703,0.103516 0.17456,0.06347 0.311604,0.165201 0.412109,0.302734 0.105797,0.137534 0.190433,0.277102 0.253906,0.419922 0.06348,0.137534 0.108319,0.319415 0.134766,0.546875 0.02647,0.227454 0.04161,0.421385 0.04687,0.580078 0.01058,0.1534 0.01758,0.357422 0.01758,0.611328 l 0,4.998047 1.316406,0 0,-5.412109 c 0,-2.105307 -0.856445,-3.15625 -2.570312,-3.15625 -1.216635,0 -2.140055,0.567791 -2.769531,1.705078 -0.19572,-0.53426 -0.474285,-0.952393 -0.833985,-1.253906 -0.359696,-0.301513 -0.855464,-0.451172 -1.49023,-0.451172 z m 13.162109,0 c -1.11084,0 -2.024739,0.398519 -2.74414,1.197266 -0.719401,0.798746 -1.080079,1.869304 -1.080079,3.21289 10e-7,1.327714 0.368246,2.38061 1.103516,3.158203 0.73527,0.772294 1.691488,1.158203 2.871094,1.158203 1.057943,0 2.003499,-0.246341 2.833984,-0.738281 l -0.277344,-0.927734 c -0.444335,0.222173 -0.84733,0.38892 -1.207031,0.5 -0.3597,0.111087 -0.758219,0.166015 -1.197265,0.166015 -0.809326,0 -1.466228,-0.256424 -1.96875,-0.769531 -0.502521,-0.518386 -0.774087,-1.310379 -0.816407,-2.378906 l 5.671875,0 0.04883,-0.667969 c 0,-1.227213 -0.278564,-2.183427 -0.833984,-2.871094 -0.550132,-0.692946 -1.351646,-1.039062 -2.404299,-1.039062 z m 8.886719,0.08594 c -0.507812,0 -0.990967,0.144047 -1.451172,0.429687 -0.454915,0.28036 -0.84082,0.721192 -1.158203,1.324219 l -0.142578,-1.666016 -1.056641,0 0,8.394531 1.31836,0 0,-4.751953 c 0,-0.745846 0.231771,-1.378091 0.697265,-1.896484 0.470785,-0.518393 1.065755,-0.777344 1.785157,-0.777344 0.148111,0 0.327474,0.02017 0.539062,0.0625 l 0.05664,-1.078125 c -0.153402,-0.02647 -0.349854,-0.04102 -0.587891,-0.04102 z m -29.53125,0.08789 0,8.394531 1.300781,0 0,-8.394531 -1.300781,0 z m 20.677734,0.832031 c 1.333011,0 2.030277,0.905764 2.09375,2.714844 l -4.570312,0 c 0.07406,-0.835773 0.333008,-1.497722 0.777344,-1.984375 0.449625,-0.486653 1.016845,-0.730469 1.699218,-0.730469 z M 20,50.000005 l 0,1 216,0 0,-1 -216,0 z M 52.910156,112 c -2.261984,0 -4.186142,0.67062 -5.769531,2.01367 -1.583389,1.32892 -2.763459,3.18156 -3.541016,5.55664 -0.763419,2.36095 -1.144531,5.16832 -1.144531,8.41993 0,2.34681 0.20525,4.48161 0.615234,6.4043 0.424122,1.90854 1.045266,3.59072 1.865235,5.04687 0.834107,1.44202 1.922572,2.56526 3.265625,3.3711 1.357191,0.79168 2.927672,1.1875 4.708984,1.1875 1.767175,0 3.313663,-0.39582 4.642578,-1.1875 1.343054,-0.80583 2.411431,-1.93642 3.203125,-3.39259 0.805832,-1.45615 1.406888,-3.13833 1.802735,-5.04687 0.395847,-1.90855 0.59375,-4.03601 0.59375,-6.38282 0,-2.44576 -0.212597,-4.63738 -0.636719,-6.5742 -0.424122,-1.95097 -1.052612,-3.6258 -1.886719,-5.0254 -0.819968,-1.41375 -1.888347,-2.49681 -3.203125,-3.24609 -1.30064,-0.76342 -2.804999,-1.14453 -4.515625,-1.14453 z m 25.53125,0 c -2.261984,0 -4.184189,0.67062 -5.767578,2.01367 -1.583389,1.32892 -2.763459,3.18156 -3.541016,5.55664 -0.763419,2.36095 -1.146484,5.16832 -1.146484,8.41993 0,2.34681 0.20525,4.48161 0.615234,6.4043 0.424122,1.90854 1.047219,3.59072 1.867188,5.04687 0.834107,1.44202 1.922572,2.56526 3.265625,3.3711 1.35719,0.79168 2.925719,1.1875 4.707031,1.1875 1.767175,0 3.315616,-0.39582 4.644532,-1.1875 1.343052,-0.80583 2.409477,-1.93642 3.201171,-3.39259 0.805832,-1.45615 1.406887,-3.13833 1.802735,-5.04687 0.395847,-1.90855 0.59375,-4.03601 0.59375,-6.38282 0,-2.44576 -0.212597,-4.63738 -0.636719,-6.5742 -0.424122,-1.95097 -1.052612,-3.6258 -1.886719,-5.0254 -0.819969,-1.41375 -1.886394,-2.49681 -3.201172,-3.24609 -1.30064,-0.76342 -2.806953,-1.14453 -4.517578,-1.14453 z m 36.898434,0 c -2.26198,0 -4.18419,0.67062 -5.76757,2.01367 -1.5834,1.32892 -2.76347,3.18156 -3.54102,5.55664 -0.76342,2.36095 -1.14648,5.16832 -1.14648,8.41993 0,2.34681 0.20524,4.48161 0.61523,6.4043 0.42412,1.90854 1.04722,3.59072 1.86719,5.04687 0.8341,1.44202 1.92257,2.56526 3.26562,3.3711 1.3572,0.79168 2.92573,1.1875 4.70703,1.1875 1.76718,0 3.31562,-0.39582 4.64454,-1.1875 1.34305,-0.80583 2.40947,-1.93642 3.20117,-3.39259 0.80583,-1.45615 1.40688,-3.13833 1.80273,-5.04687 0.39585,-1.90855 0.59375,-4.03601 0.59375,-6.38282 0,-2.44576 -0.21064,-4.63738 -0.63476,-6.5742 -0.42413,-1.95097 -1.05457,-3.6258 -1.88868,-5.0254 -0.81996,-1.41375 -1.88639,-2.49681 -3.20117,-3.24609 -1.30064,-0.76342 -2.80695,-1.14453 -4.51758,-1.14453 z m 25.53321,0 c -2.26199,0 -4.18615,0.67062 -5.76953,2.01367 -1.58339,1.32892 -2.76346,3.18156 -3.54102,5.55664 -0.76342,2.36095 -1.14453,5.16832 -1.14453,8.41993 0,2.34681 0.20525,4.48161 0.61523,6.4043 0.42412,1.90854 1.04527,3.59072 1.86524,5.04687 0.8341,1.44202 1.92257,2.56526 3.26562,3.3711 1.3572,0.79168 2.92767,1.1875 4.70899,1.1875 1.76717,0 3.31366,-0.39582 4.64257,-1.1875 1.34306,-0.80583 2.41144,-1.93642 3.20313,-3.39259 0.80583,-1.45615 1.40689,-3.13833 1.80273,-5.04687 0.39585,-1.90855 0.59375,-4.03601 0.59375,-6.38282 0,-2.44576 -0.21259,-4.63738 -0.63671,-6.5742 -0.42412,-1.95097 -1.05262,-3.6258 -1.88672,-5.0254 -0.81998,-1.41375 -1.88835,-2.49681 -3.20313,-3.24609 -1.30064,-0.76342 -2.805,-1.14453 -4.51562,-1.14453 z m 36.89843,0 c -2.26198,0 -4.18613,0.67062 -5.76953,2.01367 -1.58338,1.32892 -2.76346,3.18156 -3.54101,5.55664 -0.76342,2.36095 -1.14453,5.16832 -1.14453,8.41993 0,2.34681 0.20525,4.48161 0.61523,6.4043 0.42413,1.90854 1.04527,3.59072 1.86524,5.04687 0.8341,1.44202 1.92257,2.56526 3.26562,3.3711 1.35719,0.79168 2.92767,1.1875 4.70898,1.1875 1.76718,0 3.31367,-0.39582 4.64258,-1.1875 1.34306,-0.80583 2.41143,-1.93642 3.20313,-3.39259 0.80583,-1.45615 1.40689,-3.13833 1.80273,-5.04687 0.39585,-1.90855 0.59375,-4.03601 0.59375,-6.38282 0,-2.44576 -0.2126,-4.63738 -0.63672,-6.5742 -0.42412,-1.95097 -1.05261,-3.62579 -1.88672,-5.0254 -0.81996,-1.41375 -1.88834,-2.49681 -3.20312,-3.24609 -1.30064,-0.76342 -2.805,-1.14453 -4.51563,-1.14453 z m 25.53125,0 c -2.26198,0 -4.18418,0.67062 -5.76757,2.01367 -1.58339,1.32892 -2.76347,3.18156 -3.54102,5.55664 -0.76342,2.36095 -1.14648,5.16832 -1.14648,8.41993 0,2.34681 0.20525,4.48161 0.61523,6.4043 0.42413,1.90854 1.04722,3.59072 1.86719,5.04687 0.8341,1.44202 1.92257,2.56526 3.26562,3.3711 1.35719,0.79168 2.92572,1.1875 4.70703,1.1875 1.76718,0 3.31562,-0.39582 4.64454,-1.1875 1.34305,-0.80583 2.40947,-1.93642 3.20117,-3.39259 0.80583,-1.45615 1.40689,-3.13833 1.80273,-5.04687 0.39585,-1.90855 0.59375,-4.03601 0.59375,-6.38282 0,-2.44576 -0.21064,-4.63738 -0.63476,-6.5742 -0.42413,-1.95097 -1.05457,-3.62579 -1.88868,-5.0254 -0.81996,-1.41375 -1.88639,-2.49681 -3.20117,-3.24609 -1.30064,-0.76342 -2.80695,-1.14453 -4.51758,-1.14453 z m -150.392574,2.86328 c 4.495693,0 6.742188,4.33182 6.742188,12.99806 0,4.36845 -0.586362,7.67793 -1.759766,9.92578 -1.159267,2.23371 -2.8194,3.34961 -4.982422,3.34961 -2.191296,0 -3.902858,-1.12325 -5.132812,-3.3711 -1.215816,-2.26198 -1.824219,-5.55676 -1.824219,-9.88281 -0.01414,-4.14226 0.601612,-7.34349 1.845703,-9.60548 1.244091,-2.27612 2.948306,-3.41406 5.111328,-3.41406 z m 25.53125,0 c 4.495693,0 6.744141,4.33182 6.744141,12.99806 0,4.36845 -0.588315,7.67793 -1.761719,9.92578 -1.159267,2.23371 -2.8194,3.34961 -4.982422,3.34961 -2.191297,0 -3.902859,-1.12325 -5.132812,-3.3711 -1.215816,-2.26198 -1.822266,-5.55676 -1.822266,-9.88281 -0.01414,-4.14226 0.599659,-7.34349 1.84375,-9.60548 1.244091,-2.27612 2.948306,-3.41406 5.111328,-3.41406 z m 36.898434,0 c 4.4957,0 6.74414,4.33182 6.74414,12.99806 0,4.36845 -0.58636,7.67793 -1.75976,9.92578 -1.15927,2.23371 -2.82135,3.34961 -4.98438,3.34961 -2.19129,0 -3.9009,-1.12325 -5.13086,-3.3711 -1.21582,-2.26198 -1.82421,-5.55676 -1.82421,-9.88281 -0.0141,-4.14226 0.59965,-7.34349 1.84375,-9.60548 1.24408,-2.27612 2.9483,-3.41406 5.11132,-3.41406 z m 25.53321,0 c 4.49569,0 6.74218,4.33182 6.74218,12.99806 0,4.36845 -0.58635,7.67793 -1.75976,9.92578 -1.15927,2.23371 -2.8194,3.34961 -4.98242,3.34961 -2.1913,0 -3.90286,-1.12325 -5.13282,-3.3711 -1.21581,-2.26198 -1.82421,-5.55676 -1.82421,-9.88281 -0.0141,-4.14226 0.60161,-7.34349 1.8457,-9.60548 1.24409,-2.27612 2.9483,-3.41406 5.11133,-3.41406 z m 36.89843,0 c 4.4957,0 6.74219,4.33182 6.74219,12.99806 0,4.36845 -0.58636,7.67793 -1.75976,9.92578 -1.15927,2.23371 -2.8194,3.34961 -4.98243,3.34961 -2.19129,0 -3.90285,-1.12325 -5.13281,-3.3711 -1.21582,-2.26198 -1.82422,-5.55676 -1.82422,-9.88281 -0.0141,-4.14226 0.60162,-7.34349 1.84571,-9.60548 1.24409,-2.27612 2.9483,-3.41406 5.11132,-3.41406 z m 25.53125,0 c 4.4957,0 6.74415,4.33182 6.74415,12.99806 -10e-6,4.36845 -0.58637,7.67793 -1.75977,9.92578 -1.15927,2.23371 -2.82135,3.34961 -4.98438,3.34961 -2.19129,0 -3.9009,-1.12325 -5.13085,-3.3711 -1.21583,-2.26198 -1.82422,-5.55676 -1.82422,-9.88281 -0.0141,-4.14226 0.59966,-7.34349 1.84375,-9.60548 1.24409,-2.27612 2.9483,-3.41406 5.11132,-3.41406 z m -106.496089,6.08594 c -0.834106,0 -1.477291,0.24003 -1.929688,0.7207 -0.452397,0.46654 -0.679687,1.01812 -0.679687,1.6543 0,0.65032 0.22729,1.21659 0.679687,1.69726 0.452397,0.46654 1.095582,0.69922 1.929688,0.69922 0.834106,0 1.469943,-0.23268 1.908203,-0.69922 0.452396,-0.48067 0.677734,-1.04694 0.677734,-1.69726 0,-0.63618 -0.225338,-1.18776 -0.677734,-1.6543 -0.43826,-0.48067 -1.074097,-0.7207 -1.908203,-0.7207 z m 62.429689,0 c -0.83411,0 -1.47729,0.24003 -1.92969,0.7207 -0.45239,0.46654 -0.67773,1.01812 -0.67773,1.6543 0,0.65032 0.22534,1.21659 0.67773,1.69726 0.4524,0.46654 1.09558,0.69922 1.92969,0.69922 0.8341,0 1.46994,-0.23268 1.9082,-0.69922 0.45239,-0.48067 0.67969,-1.04694 0.67969,-1.69726 0,-0.63618 -0.2273,-1.18776 -0.67969,-1.6543 -0.43826,-0.48067 -1.0741,-0.7207 -1.9082,-0.7207 z m -62.429689,17.91797 c -0.834106,0 -1.477291,0.23465 -1.929688,0.70117 -0.452397,0.46654 -0.679687,1.02546 -0.679687,1.67578 0,0.63618 0.22729,1.19316 0.679687,1.67383 0.452397,0.46654 1.095582,0.70117 1.929688,0.70117 0.834106,0 1.469943,-0.23464 1.908203,-0.70117 0.452396,-0.48067 0.677734,-1.03765 0.677734,-1.67383 0,-0.65032 -0.225338,-1.20924 -0.677734,-1.67578 -0.43826,-0.46653 -1.074097,-0.70117 -1.908203,-0.70117 z m 62.429689,0 c -0.83411,0 -1.47729,0.23465 -1.92969,0.70117 -0.45239,0.46654 -0.67773,1.02546 -0.67773,1.67578 0,0.63618 0.22534,1.19316 0.67773,1.67383 0.4524,0.46654 1.09558,0.70117 1.92969,0.70117 0.8341,0 1.46994,-0.23464 1.9082,-0.70117 0.45239,-0.48067 0.67969,-1.03765 0.67969,-1.67383 0,-0.65032 -0.2273,-1.20924 -0.67969,-1.67578 -0.43826,-0.46653 -1.0741,-0.70117 -1.9082,-0.70117 z"
     id="path4296" />
</svg>
