<svg xmlns="http://www.w3.org/2000/svg" xmlns:inkscape="http://www.inkscape.org/namespaces/inkscape" viewBox="0 0 256 256">
  <defs
     id="defs4">
    <style
       id="current-color-scheme"
       type="text/css">
      .ColorScheme-Text {
        color:#f2f2f2;
      }
      .ColorScheme-Background {
        color:#31363b;
      }
      .ColorScheme-Highlight {
        color:#3daee9;
      }
      .ColorScheme-ViewText {
        color:#31363b;
      }
      .ColorScheme-ViewBackground {
        color:#314045;
      }
      .ColorScheme-ViewHover {
        color:#93cee9;
      }
      .ColorScheme-ViewFocus{
        color:#3daee9;
      }
      .ColorScheme-ButtonText {
        color:#31363b;
      }
      .ColorScheme-ButtonBackground {
        color:#31363b;
      }
      .ColorScheme-ButtonHover {
        color:#93cee9;
      }
      .ColorScheme-ButtonFocus{
        color:#3daee9;
      }
      </style>
  </defs>
  <path
     style="fill:currentColor;fill-opacity:0.5;stroke:none" 
     d="m 16,10 224,0 c 3.324,0 6,2.676 6,6 l 0,224 c 0,3.324 -2.676,6 -6,6 l -224,0 c -3.324,0 -6,-2.676 -6,-6 L 10,16 c 0,-3.324 2.676,-6 6,-6 z"
     class="ColorScheme-ButtonText"
     id="rect4240" />
  <path
     style="fill:currentColor;fill-opacity:1.0;stroke:none" 
     d="m 16,12 224,0 c 2.216,0 4,1.784 4,4 l 0,224 c 0,2.216 -1.784,4 -4,4 l -224,0 c -2.216,0 -4,-1.784 -4,-4 L 12,16 c 0,-2.216 1.784,-4 4,-4 z"
     class="ColorScheme-Background"
     id="rect4238" />
  <path
     inkscape:connector-curvature="0"
     style="fill:currentColor;fill-opacity:1;stroke:none" 
     class="ColorScheme-Text"
     d="m 224.81055,32.412109 c -0.83951,0 -1.55297,0.253153 -2.14063,0.759766 -0.58765,0.501293 -1.02586,1.199783 -1.31445,2.095703 -0.28333,0.890587 -0.42383,1.949228 -0.42383,3.175781 0,0.885254 0.0764,1.690749 0.22852,2.416016 0.15741,0.71994 0.38709,1.353064 0.6914,1.902344 0.30958,0.543953 0.71443,0.969464 1.21289,1.273437 0.50371,0.29864 1.08499,0.447266 1.7461,0.447266 0.65586,0 1.2314,-0.148626 1.72461,-0.447266 0.49846,-0.303973 0.89367,-0.73197 1.1875,-1.28125 0.29907,-0.549286 0.523,-1.184363 0.66992,-1.904297 0.14692,-0.71994 0.2207,-1.520996 0.2207,-2.40625 0,-0.922586 -0.0789,-1.749875 -0.23633,-2.480468 -0.1574,-0.735934 -0.3916,-1.368525 -0.70117,-1.896485 -0.30431,-0.53328 -0.69953,-0.940009 -1.1875,-1.222656 -0.48272,-0.287967 -1.04286,-0.431641 -1.67773,-0.431641 z m 0,1.078125 c 1.66852,0 2.5039,1.635251 2.5039,4.904297 0,1.647854 -0.2188,2.896214 -0.65429,3.744141 -0.43025,0.842587 -1.04683,1.263672 -1.84961,1.263672 -0.81328,0 -1.44782,-0.423558 -1.9043,-1.271485 -0.45124,-0.853253 -0.67578,-2.096662 -0.67578,-3.728515 -0.005,-1.562527 0.22187,-2.769787 0.68359,-3.623047 0.46173,-0.858593 1.09371,-1.289063 1.89649,-1.289063 z M 45.121094,72.105469 c -1.084392,0 -2.040609,0.251386 -2.871094,0.753906 -0.825195,0.497233 -1.459961,1.191971 -1.904297,2.085937 -0.444336,0.89396 -0.667969,1.91716 -0.667969,3.070313 0,0.899253 0.134522,1.725422 0.404297,2.476563 0.275066,0.75114 0.655925,1.383384 1.142578,1.896484 0.486654,0.507813 1.069011,0.903806 1.746094,1.189453 0.682373,0.280353 1.42391,0.419922 2.222656,0.419922 1.142579,0 2.160727,-0.226727 3.054688,-0.681641 l -0.326172,-1.039062 c -0.867513,0.407306 -1.726481,0.611328 -2.578125,0.611328 -1.311849,0 -2.352132,-0.442792 -3.119141,-1.326172 -0.761718,-0.883387 -1.142578,-2.048667 -1.142578,-3.498047 0,-1.444093 0.370768,-2.613852 1.111328,-3.507812 0.74585,-0.899254 1.761475,-1.34961 3.046875,-1.34961 0.999756,0 1.873292,0.233719 2.619141,0.699219 l 0.458984,-0.912109 c -0.825195,-0.592447 -1.890706,-0.888672 -3.197265,-0.888672 z m 173.396486,0 c -1.0844,0 -2.04256,0.251386 -2.87305,0.753906 -0.82519,0.497233 -1.45996,1.191971 -1.9043,2.085937 -0.44434,0.893961 -0.66601,1.91716 -0.66601,3.070313 0,0.899253 0.13452,1.725422 0.4043,2.476563 0.27506,0.751139 0.65592,1.383384 1.14257,1.896484 0.48666,0.507813 1.06901,0.903806 1.7461,1.189453 0.68237,0.280353 1.42195,0.419922 2.2207,0.419922 1.14258,0 2.16073,-0.226727 3.05469,-0.681641 l -0.32422,-1.039062 c -0.86751,0.407306 -1.72844,0.611328 -2.58008,0.611328 -1.31185,0 -2.35018,-0.442792 -3.11719,-1.326172 -0.76172,-0.883387 -1.14257,-2.048667 -1.14257,-3.498047 0,-1.444093 0.37076,-2.613852 1.11132,-3.507812 0.74586,-0.899254 1.76148,-1.34961 3.04688,-1.34961 0.99975,0 1.87134,0.233719 2.61719,0.699219 l 0.46093,-0.912109 c -0.82519,-0.592447 -1.8907,-0.888672 -3.19726,-0.888672 z m -116.83985,0.158203 -4.83398,11.583984 1.142578,0 4.865232,-11.583984 -1.17383,0 z m 104.31055,0 -4.24414,11.583984 1.42774,0 1.35546,-3.728515 4.43555,0 1.36523,3.728515 1.38086,0 -4.23632,-11.583984 -1.48438,0 z m 0.75391,1.365234 1.90429,5.521485 -3.79296,0 1.88867,-5.521485 z m -54.51563,1.824219 2.91992,4.085937 -3.13476,4.308594 1.32422,0 2.48437,-3.371094 2.4043,3.371094 1.4668,0 -3.0293,-4.24414 2.99805,-4.150391 -1.33204,0 -2.30078,3.261719 -2.33398,-3.261719 -1.4668,0 z M 99.859375,108.10547 c -1.036784,0 -1.880615,0.25895 -2.53125,0.77734 -0.650635,0.51839 -0.974609,1.21818 -0.974609,2.10157 0,0.67708 0.199544,1.26195 0.601562,1.7539 0.407308,0.49194 0.934733,0.8431 1.580078,1.05469 -0.777588,0.26977 -1.377604,0.67277 -1.800781,1.20703 -0.417887,0.52897 -0.626953,1.1814 -0.626953,1.95898 0,0.64535 0.171794,1.20501 0.515625,1.67579 0.349121,0.47078 0.800049,0.81689 1.355469,1.03906 0.555419,0.22216 1.180094,0.33203 1.873046,0.33203 1.073818,0 1.965008,-0.26652 2.673828,-0.80078 0.70882,-0.53426 1.06445,-1.28337 1.06445,-2.2461 0,-0.73527 -0.21859,-1.39022 -0.65234,-1.96679 -0.43376,-0.57658 -1.01416,-0.9821 -1.74414,-1.21485 0.66121,-0.23804 1.18164,-0.59171 1.5625,-1.0625 0.38615,-0.47607 0.58008,-1.05339 0.58008,-1.73046 0,-0.88868 -0.32341,-1.58847 -0.96875,-2.10157 -0.64006,-0.51839 -1.47632,-0.77734 -2.507815,-0.77734 z m 56.134765,0 c -0.74056,0 -1.39551,0.16423 -1.9668,0.49219 -0.57129,0.32267 -1.00903,0.75594 -1.31054,1.30078 -0.30152,0.54484 -0.45118,1.1499 -0.45118,1.8164 10e-6,0.50252 0.0947,0.97307 0.28516,1.41211 0.19043,0.43376 0.44433,0.79949 0.76172,1.09571 0.31738,0.29093 0.68563,0.52018 1.10352,0.68945 0.42318,0.16927 0.86401,0.25391 1.32421,0.25391 0.54484,0 1.0647,-0.132 1.55665,-0.39649 -0.40731,0.52368 -0.67831,0.87232 -0.81055,1.04688 l -3.00781,4.03125 1.55664,0 2.83203,-3.8711 c 0.32796,-0.44962 0.57682,-0.80273 0.74609,-1.05664 0.17456,-0.25919 0.35897,-0.57308 0.55469,-0.94336 0.19572,-0.37556 0.33471,-0.74129 0.41406,-1.0957 0.0846,-0.35441 0.12695,-0.73527 0.12695,-1.14258 0,-0.47607 -0.0821,-0.92953 -0.24609,-1.36328 -0.16398,-0.43376 -0.40022,-0.82162 -0.70703,-1.16016 -0.3068,-0.33854 -0.69775,-0.60758 -1.17383,-0.80859 -0.47607,-0.20101 -1.00602,-0.30078 -1.58789,-0.30078 z m -115.412109,0.1582 0.152344,1.0625 5.197266,0 -4,10.52149 1.316406,0 4.0625,-10.64844 0,-0.93555 -6.728516,0 z m 59.269531,0.81641 c 0.671798,0 1.209308,0.17179 1.611328,0.51562 0.40201,0.33854 0.60352,0.79142 0.60352,1.35742 0,0.62419 -0.18636,1.14209 -0.55664,1.55469 -0.37028,0.4126 -0.92294,0.69873 -1.658208,0.85742 -0.72998,-0.16398 -1.285156,-0.45011 -1.666015,-0.85742 -0.375569,-0.4126 -0.5625,-0.9305 -0.5625,-1.55469 0,-0.5607 0.202067,-1.01358 0.609375,-1.35742 0.412597,-0.34383 0.952637,-0.51562 1.61914,-0.51562 z m 56.183598,0.0645 c 0.76701,0 1.36198,0.2413 1.78515,0.72266 0.42318,0.48136 0.63477,1.07633 0.63477,1.78515 0,0.3597 -0.0569,0.6862 -0.16797,0.98243 -0.10579,0.29093 -0.24284,0.5297 -0.41211,0.71484 -0.16927,0.17985 -0.36572,0.33399 -0.58789,0.46094 -0.22217,0.1217 -0.44385,0.20885 -0.66602,0.26172 -0.21688,0.0476 -0.43351,0.0703 -0.65039,0.0703 -0.75643,0 -1.34887,-0.2242 -1.77734,-0.67383 -0.42847,-0.45491 -0.64258,-1.04484 -0.64258,-1.76953 0,-0.71411 0.21916,-1.31665 0.6582,-1.8086 0.44434,-0.49723 1.05388,-0.74609 1.82618,-0.74609 z m 53.16601,5.03906 0,1.07032 5.3086,0 0,-1.07032 -5.3086,0 z m -109.349608,0.10938 c 0.745848,0.15869 1.345858,0.46192 1.800778,0.90625 0.4602,0.44434 0.69141,0.98746 0.69141,1.63281 0,1.4388 -0.83122,2.1582 -2.492188,2.1582 -0.814615,0 -1.43929,-0.18692 -1.873046,-0.5625 -0.428468,-0.37556 -0.642578,-0.90551 -0.642578,-1.58789 -10e-7,-0.6665 0.2312,-1.21663 0.691406,-1.65039 0.460205,-0.43375 1.06779,-0.73249 1.824218,-0.89648 z m -54.68164,29.9707 -5.181641,7.52149 0,1.14257 5.267578,0 0,2.91993 1.253907,0 0,-2.91993 1.326172,0 0.09375,-1.01562 -1.419922,0 0,-7.64844 -1.339844,0 z m 51.873047,0 -0.222657,6.13281 1.064454,0.12696 c 0.243326,-0.2592 0.549642,-0.46574 0.919922,-0.61914 0.37028,-0.1534 0.751139,-0.22852 1.142578,-0.22852 0.534254,0 0.980134,0.11744 1.339844,0.35547 0.3597,0.23275 0.61808,0.53402 0.77148,0.9043 0.1534,0.36499 0.22852,0.78312 0.22852,1.2539 0,0.85694 -0.23682,1.52393 -0.71289,2 -0.47079,0.47078 -1.10303,0.70703 -1.896486,0.70703 -0.888672,0 -1.844319,-0.28866 -2.865234,-0.86523 l -0.451172,1.02344 c 1.147868,0.64005 2.280925,0.95898 3.402344,0.95898 0.544838,0 1.050128,-0.0802 1.515628,-0.24414 0.46549,-0.16398 0.87353,-0.40275 1.22265,-0.71484 0.35442,-0.31739 0.63045,-0.72291 0.82617,-1.21485 0.20101,-0.49723 0.30079,-1.05492 0.30079,-1.67382 0,-0.65064 -0.13201,-1.23804 -0.39649,-1.76172 -0.2592,-0.52898 -0.65714,-0.95467 -1.1914,-1.27735 -0.53426,-0.32796 -1.16203,-0.49218 -1.88672,-0.49218 -0.793459,0 -1.500248,0.20906 -2.119144,0.62695 l 0.126953,-3.95117 4.871091,0 0.10352,-1.04688 -6.093751,0 z m 59.626951,0 -2.61133,3.83985 c -0.31209,0.44962 -0.55338,0.81282 -0.72265,1.08789 -0.16928,0.27506 -0.34359,0.59399 -0.52344,0.95898 -0.17985,0.36499 -0.30681,0.72819 -0.38086,1.08789 -0.0741,0.35441 -0.11133,0.73527 -0.11133,1.14258 0,0.47607 0.0821,0.93148 0.2461,1.36523 0.16398,0.43376 0.40023,0.81967 0.70703,1.15821 0.3068,0.33325 0.69775,0.59977 1.17383,0.80078 0.47607,0.201 1.00602,0.30078 1.58789,0.30078 1.11084,0 2.00708,-0.34359 2.68945,-1.03125 0.68767,-0.69295 1.03125,-1.5494 1.03125,-2.57031 0,-0.99976 -0.34358,-1.82397 -1.03125,-2.47461 -0.68237,-0.65064 -1.4965,-0.97657 -2.44336,-0.97657 -0.58715,0 -1.13476,0.14714 -1.64258,0.44336 0.32268,-0.43376 0.59929,-0.82218 0.83203,-1.16601 l 2.69727,-3.9668 -1.49805,0 z m -111.414061,1.63477 0,6.01367 -3.958984,0 3.958984,-6.01367 z m 166.095701,0.95898 0,3.08789 -3.00586,0 0,0.97461 2.99805,0 0,3.12696 1.04687,0 0,-3.12696 2.96094,0 0,-0.97461 -2.96094,0 0,-3.08789 -1.03906,0 z m -55.30078,3.11914 c 0.75643,0 1.34888,0.22673 1.77734,0.68164 0.43376,0.44963 0.6504,1.03451 0.6504,1.75391 0,0.71411 -0.21916,1.31917 -0.65821,1.81641 -0.43904,0.49194 -1.04606,0.73828 -1.81836,0.73828 -0.76701,0 -1.36198,-0.23934 -1.78515,-0.72071 -0.42318,-0.48136 -0.63477,-1.07829 -0.63477,-1.78711 0,-0.3597 0.0544,-0.68367 0.16016,-0.9746 0.10579,-0.29094 0.24283,-0.52718 0.41211,-0.70704 0.16927,-0.18514 0.36125,-0.33732 0.57812,-0.45898 0.22218,-0.12696 0.44328,-0.21412 0.66016,-0.26172 0.22217,-0.0529 0.44133,-0.0801 0.6582,-0.0801 z m -56.253905,30.12891 c -0.592448,0 -1.177328,0.0872 -1.753906,0.26172 -0.576579,0.16927 -1.042074,0.38338 -1.396485,0.64258 l 0.388672,1.00781 c 0.36499,-0.23804 0.780599,-0.43197 1.246094,-0.58008 0.470785,-0.14811 0.928711,-0.22266 1.373047,-0.22266 0.201009,0 0.392983,0.0196 0.578123,0.0566 0.18514,0.0317 0.37907,0.0968 0.58008,0.19727 0.20101,0.0952 0.3728,0.21965 0.51562,0.37305 0.14283,0.14811 0.26221,0.35213 0.35743,0.61132 0.0952,0.25921 0.14257,0.55795 0.14257,0.89649 0,0.31209 -0.0322,0.59823 -0.0957,0.85742 -0.0582,0.25391 -0.17,0.51538 -0.33398,0.78516 -0.16398,0.26978 -0.3086,0.48641 -0.43555,0.65039 -0.12695,0.16398 -0.33602,0.41536 -0.62695,0.7539 l -3.736331,4.41211 0.205079,1.03907 6.197262,0 0.0723,-0.95118 -4.992189,0 3.111329,-3.64257 c 0.37557,-0.43905 0.66675,-0.79973 0.87305,-1.08008 0.21159,-0.28036 0.40356,-0.58163 0.57812,-0.9043 0.17986,-0.32796 0.30177,-0.64942 0.36524,-0.9668 0.0688,-0.31738 0.10351,-0.67806 0.10351,-1.08007 0,-0.46021 -0.0695,-0.87329 -0.20703,-1.23828 -0.13753,-0.37028 -0.3169,-0.66904 -0.53906,-0.89649 -0.22217,-0.23275 -0.48112,-0.42221 -0.77735,-0.57031 -0.29622,-0.1534 -0.59245,-0.26016 -0.88867,-0.31836 -0.29093,-0.0635 -0.5922,-0.0937 -0.904295,-0.0937 z m 55.689455,0.008 c -1.05795,0 -2.05901,0.28866 -3.00586,0.86524 l 0.42773,0.96679 c 0.85694,-0.49194 1.70329,-0.73828 2.53907,-0.73828 0.6136,0 1.11133,0.15666 1.49218,0.46875 0.38084,0.31209 0.57534,0.78768 0.58594,1.42774 l 0,0.0566 c 0,1.36474 -0.93603,2.04687 -2.80859,2.04687 l -0.33985,0 0,1.0625 0.33203,0 c 0.38615,0 0.72217,0.0196 1.00782,0.0566 0.29093,0.037 0.57454,0.10709 0.84961,0.21289 0.27506,0.1005 0.49926,0.2395 0.67382,0.41406 0.17456,0.16928 0.31413,0.39852 0.41993,0.68946 0.10579,0.28564 0.16015,0.62671 0.16015,1.02344 0,0.7194 -0.1914,1.26953 -0.57226,1.65039 -0.38086,0.38086 -0.90886,0.57226 -1.58594,0.57226 -0.84107,0 -1.8068,-0.27856 -2.89649,-0.83398 l 0,1.18945 c 0.97861,0.5131 1.95696,0.76953 2.93555,0.76953 1.01034,0 1.84155,-0.2867 2.49219,-0.86328 0.65593,-0.58187 0.99195,-1.41056 1.00781,-2.48437 l 0,-0.0547 c 0,-0.78817 -0.22363,-1.43246 -0.66797,-1.92969 -0.43904,-0.49723 -1.02392,-0.82121 -1.7539,-0.97461 1.40706,-0.36499 2.11132,-1.24609 2.11132,-2.64258 l 0,-0.0469 c -0.005,-0.62948 -0.16952,-1.167 -0.49218,-1.61133 -0.31739,-0.44963 -0.726,-0.77808 -1.22852,-0.98437 -0.49723,-0.2063 -1.05941,-0.3086 -1.68359,-0.3086 z m -111.634768,0.15039 c -0.275065,0.19043 -0.688151,0.38241 -1.238281,0.57813 -0.54484,0.19043 -1.015381,0.3269 -1.412109,0.40625 l 0,1.04687 c 0.354411,-0.0476 0.782633,-0.15185 1.285156,-0.31054 0.507813,-0.1587 0.928467,-0.3305 1.261719,-0.51563 l 0,9.42773 -2.792969,0 0,0.95118 6.601563,0 0,-0.95118 -2.490235,0 0,-10.63281 -1.214844,0 z m 164.683598,21.88672 0,0.98438 6.64062,0 0,-0.98438 -6.64062,0 z m 0,2.80859 0,0.98438 6.64062,0 0,-0.98438 -6.64062,0 z M 72.039062,216.10547 c -0.846354,0 -1.565755,0.25137 -2.158203,0.75391 -0.592448,0.49726 -1.033284,1.18945 -1.324218,2.07812 -0.285644,0.88333 -0.427735,1.93372 -0.427735,3.15039 0,0.87807 0.07511,1.67708 0.228516,2.39649 0.158691,0.71413 0.392415,1.3438 0.699219,1.88867 0.312093,0.53953 0.71818,0.9583 1.220703,1.25976 0.507812,0.29627 1.095214,0.44531 1.761718,0.44531 0.661215,0 1.241048,-0.14904 1.738282,-0.44531 0.502522,-0.30146 0.901041,-0.72466 1.197265,-1.26953 0.301514,-0.5448 0.52767,-1.17258 0.675782,-1.88672 0.148112,-0.71413 0.220703,-1.5106 0.220703,-2.38867 0,-0.91513 -0.07764,-1.73627 -0.236328,-2.46094 -0.158692,-0.73 -0.394938,-1.35524 -0.707032,-1.8789 -0.306803,-0.529 -0.705322,-0.93451 -1.197265,-1.21485 -0.486654,-0.28566 -1.051351,-0.42773 -1.691407,-0.42773 z m 0,1.07031 c 1.682129,0 2.523438,1.62068 2.523438,4.86328 0,1.63454 -0.219157,2.87378 -0.658203,3.71485 -0.433757,0.83573 -1.055909,1.2539 -1.865235,1.2539 -0.819905,0 -1.459717,-0.42065 -1.919921,-1.26172 -0.454916,-0.84633 -0.681641,-2.08055 -0.681641,-3.69921 -0.0053,-1.54987 0.223958,-2.74742 0.689453,-3.59376 0.465495,-0.85166 1.102783,-1.27734 1.912109,-1.27734 z m 83.320318,8.91797 c 0,0.3862 -0.10735,1.73782 -0.32422,4.05469 l 0.76953,0 0.23047,-0.88867 c 0.1534,-0.58714 0.30558,-1.18973 0.45898,-1.8086 0.15869,-0.6242 0.23828,-0.97026 0.23828,-1.03906 l 0,-0.31836 -1.37304,0 z"
     id="path4457" />
  <path
     style="fill:currentColor;fill-opacity:0.5;stroke:none" 
     class="ColorScheme-Text"
     d="M 20 20 L 20 56 L 236 56 L 236 20 L 20 20 z M 21 21 L 235 21 L 235 55 L 21 55 L 21 21 z M 20 64 L 20 92 L 68 92 L 68 64 L 20 64 z M 76 64 L 76 92 L 124 92 L 124 64 L 76 64 z M 132 64 L 132 92 L 180 92 L 180 64 L 132 64 z M 188 64 L 188 92 L 236 92 L 236 64 L 188 64 z M 21 65 L 67 65 L 67 91 L 21 91 L 21 65 z M 77 65 L 123 65 L 123 91 L 77 91 L 77 65 z M 133 65 L 179 65 L 179 91 L 133 91 L 133 65 z M 189 65 L 235 65 L 235 91 L 189 91 L 189 65 z M 20 100 L 20 128 L 68 128 L 68 100 L 20 100 z M 76 100 L 76 128 L 124 128 L 124 100 L 76 100 z M 132 100 L 132 128 L 180 128 L 180 100 L 132 100 z M 188 100 L 188 128 L 236 128 L 236 100 L 188 100 z M 21 101 L 67 101 L 67 127 L 21 127 L 21 101 z M 77 101 L 123 101 L 123 127 L 77 127 L 77 101 z M 133 101 L 179 101 L 179 127 L 133 127 L 133 101 z M 189 101 L 235 101 L 235 127 L 189 127 L 189 101 z M 20 136 L 20 164 L 68 164 L 68 136 L 20 136 z M 76 136 L 76 164 L 124 164 L 124 136 L 76 136 z M 132 136 L 132 164 L 180 164 L 180 136 L 132 136 z M 188 136 L 188 164 L 236 164 L 236 136 L 188 136 z M 21 137 L 67 137 L 67 163 L 21 163 L 21 137 z M 77 137 L 123 137 L 123 163 L 77 163 L 77 137 z M 133 137 L 179 137 L 179 163 L 133 163 L 133 137 z M 189 137 L 235 137 L 235 163 L 189 163 L 189 137 z M 20 172 L 20 200 L 68 200 L 68 172 L 20 172 z M 76 172 L 76 200 L 124 200 L 124 172 L 76 172 z M 132 172 L 132 200 L 180 200 L 180 172 L 132 172 z M 188 172 L 188 236 L 236 236 L 236 172 L 188 172 z M 21 173 L 67 173 L 67 199 L 21 199 L 21 173 z M 77 173 L 123 173 L 123 199 L 77 199 L 77 173 z M 133 173 L 179 173 L 179 199 L 133 199 L 133 173 z M 189 173 L 235 173 L 235 174.28516 L 235 233.71484 L 235 235 L 189 235 L 189 233.71484 L 189 174.28516 L 189 173 z M 20 208 L 20 236 L 124 236 L 124 208 L 20 208 z M 132 208 L 132 236 L 180 236 L 180 208 L 132 208 z M 21 209 L 22.166016 209 L 121.83398 209 L 123 209 L 123 235 L 121.83398 235 L 22.166016 235 L 21 235 L 21 209 z M 133 209 L 179 209 L 179 235 L 133 235 L 133 209 z "
     id="rect5114-3-4-2" />
</svg>
