<svg xmlns="http://www.w3.org/2000/svg" viewBox="0 0 256 256">
  <defs
     id="defs4">
    <style
       id="current-color-scheme"
       type="text/css">
      .ColorScheme-Text {
        color:#f2f2f2;
      }
      .ColorScheme-Background {
        color:#31363b;
      }
      .ColorScheme-Highlight {
        color:#3daee9;
      }
      .ColorScheme-ViewText {
        color:#31363b;
      }
      .ColorScheme-ViewBackground {
        color:#314045;
      }
      .ColorScheme-ViewHover {
        color:#93cee9;
      }
      .ColorScheme-ViewFocus{
        color:#3daee9;
      }
      .ColorScheme-ButtonText {
        color:#31363b;
      }
      .ColorScheme-ButtonBackground {
        color:#31363b;
      }
      .ColorScheme-ButtonHover {
        color:#93cee9;
      }
      .ColorScheme-ButtonFocus{
        color:#3daee9;
      }
      </style>
  </defs>
  <path
     style="fill:currentColor;fill-opacity:0.5;stroke:none"
     d="m 16,10 224,0 c 3.324,0 6,2.676 6,6 l 0,224 c 0,3.324 -2.676,6 -6,6 l -224,0 c -3.324,0 -6,-2.676 -6,-6 L 10,16 c 0,-3.324 2.676,-6 6,-6 z"
     class="ColorScheme-ButtonText"
     id="rect4240" />
  <path
     style="fill:currentColor;fill-opacity:1;stroke:none"
     d="m 16,12 224,0 c 2.216,0 4,1.784 4,4 l 0,224 c 0,2.216 -1.784,4 -4,4 l -224,0 c -2.216,0 -4,-1.784 -4,-4 L 12,16 c 0,-2.216 1.784,-4 4,-4 z"
     class="ColorScheme-Background"
     id="rect4238" />
  <path
     style="fill:currentColor;fill-opacity:1;stroke:none" 
     class="ColorScheme-Text"
     d="m 39.957031,66 0,44.8125 5.494141,0 0,-20.535156 18.169922,0 0,-3.927735 -18.169922,0 0,-16.205078 19.521484,0 L 65.279297,66 39.957031,66 Z m 35.205078,0 c -0.982178,0 -1.791458,0.306061 -2.425781,0.919922 -0.613862,0.5934 -0.919922,1.372268 -0.919922,2.333984 0,0.961716 0.30606,1.749419 0.919922,2.363282 0.634323,0.613861 1.443603,0.919921 2.425781,0.919921 0.961716,0 1.760208,-0.30606 2.394532,-0.919921 0.634323,-0.613863 0.951171,-1.401566 0.951171,-2.363282 0,-0.961716 -0.316848,-1.740584 -0.951171,-2.333984 C 76.942779,66.306061 76.144287,66 75.162109,66 Z m 99.046871,3.4375 -4.08203,0.306641 -0.83007,8.59375 -5.00196,0.33789 -0.12304,2.884766 5.00195,0 0,19.521483 c 0,1.98482 0.17558,3.59064 0.52344,4.81836 0.34785,1.22773 0.97076,2.24105 1.87109,3.03906 0.92079,0.79802 2.10774,1.35127 3.56055,1.65821 1.4528,0.30693 3.35585,0.45898 5.70898,0.45898 l 2.11719,0 0.24609,-3.49805 -2.57812,-0.12304 c -2.72146,-0.10232 -4.4705,-0.53197 -5.24805,-1.28907 -0.77756,-0.77755 -1.16602,-2.46577 -1.16602,-5.06445 l 0,-19.521483 8.59375,0 0,-3.222656 -8.59375,0 0,-8.900391 z m -40.88281,8.226562 c -4.29702,0 -7.83825,1.544997 -10.62109,4.634766 -2.78284,3.089769 -4.17383,7.232328 -4.17383,12.429688 0,5.135972 1.4214,9.208874 4.26563,12.216794 2.84423,2.98746 6.54829,4.48047 11.11132,4.48047 4.09241,0 7.74449,-0.95055 10.95703,-2.85351 l -1.07421,-3.5918 c -1.71881,0.85941 -3.27265,1.50389 -4.66407,1.93359 -1.39142,0.4297 -2.93642,0.64453 -4.63476,0.64453 -3.1307,0 -5.6694,-0.99175 -7.61328,-2.97656 -1.9439,-2.00528 -2.99646,-5.075648 -3.16016,-9.208983 l 21.94531,0 0.1836,-2.578125 c 0,-4.747195 -1.07414,-8.451262 -3.22266,-11.111328 -2.12805,-2.680528 -5.22688,-4.019532 -9.29883,-4.019532 z m 69.85742,0 c -4.76766,0 -8.51292,1.553832 -11.23437,4.664063 -2.70099,3.089769 -4.05078,7.182294 -4.05078,12.277344 0,4.97228 1.36941,9.023611 4.11133,12.154301 2.74191,3.11023 6.46755,4.66601 11.17382,4.66601 4.60396,0 8.30608,-1.56462 11.10938,-4.69531 2.80329,-3.15115 4.20508,-7.193648 4.20508,-12.125001 0,-5.09505 -1.3498,-9.187575 -4.05078,-12.277344 -2.70099,-3.110231 -6.4551,-4.664063 -11.26368,-4.664063 z m -130.568356,0.673829 0,32.474609 5.033204,0 0,-32.474609 -5.033204,0 z m 11.785157,0 12.552734,32.474609 5.126955,0 12.30664,-32.474609 -5.18555,0 c -1.06402,2.987459 -2.68063,7.459607 -4.84961,13.414062 -2.14851,5.954457 -3.75628,10.424647 -4.82031,13.412107 -1.330033,-3.51947 -3.2527,-8.696924 -5.769531,-15.531248 C 91.265349,82.798489 89.885147,79.0336 89.619141,78.337891 l -5.21875,0 z m 49.046879,3.222656 c 5.15644,0 7.85797,3.500027 8.10351,10.498047 l -17.67969,0 c 0.28648,-3.233004 1.289,-5.79132 3.00782,-7.673828 1.73926,-1.882508 3.92875,-2.824219 6.56836,-2.824219 z m 69.73632,0 c 3.33532,0 5.85049,1.197737 7.54883,3.591797 1.69836,2.373597 2.54883,5.545988 2.54883,9.515625 0,2.537294 -0.34921,4.757187 -1.04492,6.660151 -0.69572,1.88251 -1.81989,3.39709 -3.375,4.54297 -1.53466,1.12541 -3.42692,1.6875 -5.67774,1.6875 -3.27393,0 -5.77142,-1.18695 -7.49023,-3.56054 -1.71881,-2.3736 -2.57813,-5.494007 -2.57813,-9.361331 0,-3.949175 0.85932,-7.110778 2.57813,-9.484375 1.71881,-2.39406 4.2163,-3.591797 7.49023,-3.591797 z m -125.720699,62.644533 -5.033203,0.36914 0,35.51172 c 0,1.94389 0.225616,3.5605 0.675781,4.84961 0.450165,1.26865 1.146636,2.24077 2.08789,2.91601 0.941254,0.67526 2.004608,1.14611 3.191407,1.41211 1.20726,0.24556 2.70027,0.36719 4.480468,0.36719 l 2.425782,0 0.27539,-3.49805 -1.380859,-0.0918 c -0.879867,-0.0614 -1.565551,-0.11343 -2.056641,-0.1543 -0.491088,-0.0614 -1.022766,-0.14378 -1.595703,-0.2461 -0.552475,-0.12276 -0.971344,-0.26598 -1.257812,-0.42968 -0.266007,-0.18416 -0.54361,-0.40782 -0.830079,-0.67383 -0.286468,-0.26601 -0.490509,-0.60443 -0.613281,-1.01367 -0.10231,-0.40924 -0.193542,-0.8801 -0.27539,-1.41211 -0.06139,-0.53202 -0.09375,-1.1765 -0.09375,-1.9336 l 0,-35.97265 z m -25.167969,12.0332 c -4.297029,0 -7.836302,1.545 -10.619141,4.63477 -2.782838,3.08976 -4.173828,7.23232 -4.173828,12.42968 0,5.13598 1.421401,9.20888 4.265625,12.2168 C 44.611803,188.50699 48.31587,190 52.878906,190 c 4.09241,0 7.74449,-0.95055 10.957032,-2.85352 l -1.074219,-3.59179 c -1.718812,0.8594 -3.274597,1.50389 -4.666016,1.93359 -1.391419,0.4297 -2.936415,0.64453 -4.634765,0.64453 -3.130694,0 -5.667435,-0.99175 -7.611329,-2.97656 -1.943894,-2.00528 -2.99646,-5.07565 -3.160156,-9.20898 l 21.945313,0 0.183593,-2.57813 c 0,-4.7472 -1.074141,-8.45127 -3.222656,-11.11133 -2.128053,-2.68052 -5.228834,-4.01953 -9.300781,-4.01953 z m 52.300778,0 c -4.29703,0 -7.8363,1.545 -10.619138,4.63477 -2.782838,3.08976 -4.173828,7.23232 -4.173828,12.42968 0,5.13598 1.421401,9.20888 4.265625,12.2168 2.844224,2.98746 6.548291,4.48047 11.111331,4.48047 4.0924,0 7.74449,-0.95055 10.95703,-2.85352 l -1.07422,-3.59179 c -1.71881,0.8594 -3.27264,1.50389 -4.66406,1.93359 -1.39142,0.4297 -2.93642,0.64453 -4.63477,0.64453 -3.1307,0 -5.66939,-0.99175 -7.613279,-2.97656 -1.943894,-2.00528 -2.996461,-5.07565 -3.160157,-9.20898 l 21.945316,0 0.18359,-2.57813 c 0,-4.7472 -1.07414,-8.45127 -3.22266,-11.11133 -2.12806,-2.68052 -5.22884,-4.01953 -9.30078,-4.01953 z m 65.92969,0 c -4.29703,0 -7.8363,1.545 -10.61914,4.63477 -2.78284,3.08976 -4.17578,7.23232 -4.17578,12.42968 0,5.13598 1.42335,9.20888 4.26758,12.2168 2.84422,2.98746 6.54828,4.48047 11.11133,4.48047 4.0924,0 7.74448,-0.95055 10.95703,-2.85352 l -1.07422,-3.59179 c -1.71882,0.8594 -3.2746,1.50389 -4.66602,1.93359 -1.39142,0.4297 -2.93642,0.64453 -4.63476,0.64453 -3.1307,0 -5.66744,-0.99175 -7.61133,-2.97656 -1.9439,-2.00528 -2.99842,-5.07565 -3.16211,-9.20898 l 21.94531,0 0.18555,-2.57813 c 0,-4.7472 -1.07414,-8.45127 -3.22266,-11.11133 -2.12805,-2.68052 -5.22883,-4.01953 -9.30078,-4.01953 z m 35.45117,0 c -4.89043,0 -8.56409,1.71863 -11.01953,5.15625 l -0.55273,-4.48242 -4.41992,0 0,32.47461 5.0957,0 0,-18.10938 c 0,-7.42772 3.33522,-11.14257 10.00586,-11.14257 2.4759,0 4.20532,0.74846 5.1875,2.24218 0.98218,1.47327 1.47265,3.67158 1.47265,6.59766 l 0,20.41211 5.09571,0 0,-19.85938 c 0,-4.46072 -0.89168,-7.78517 -2.67188,-9.97461 -1.75973,-2.20989 -4.48973,-3.31445 -8.19336,-3.31445 z m -84.37695,0.67383 12.55469,32.47461 5.125,0 12.30859,-32.47461 -5.1875,0 c -1.06403,2.98746 -2.68063,7.45961 -4.84961,13.41406 -2.14851,5.95446 -3.75433,10.42465 -4.81836,13.41211 -1.33003,-3.51947 -3.25466,-8.69692 -5.77148,-15.53125 -2.49638,-6.83432 -3.87657,-10.59921 -4.14258,-11.29492 l -5.21875,0 z m -69.181641,3.22266 c 5.156435,0 7.857971,3.50003 8.103515,10.49804 l -17.679687,0 c 0.286469,-3.233 1.289,-5.79132 3.007812,-7.67383 1.739274,-1.8825 3.928756,-2.82421 6.56836,-2.82421 z m 52.300781,0 c 5.15644,0 7.85798,3.50003 8.10352,10.49804 l -17.679692,0 c 0.286468,-3.233 1.289001,-5.79132 3.007813,-7.67383 1.739272,-1.8825 3.928749,-2.82421 6.568359,-2.82421 z m 65.92969,0 c 5.15644,0 7.85797,3.50003 8.10351,10.49804 l -17.67968,0 c 0.28646,-3.233 1.28899,-5.79132 3.00781,-7.67383 1.73927,-1.8825 3.92876,-2.82421 6.56836,-2.82421 z"
     id="path4308" />
</svg>
