<?xml version="1.0" encoding="UTF-8" standalone="no"?>
<svg
   xmlns:dc="http://purl.org/dc/elements/1.1/"
   xmlns:cc="http://creativecommons.org/ns#"
   xmlns:rdf="http://www.w3.org/1999/02/22-rdf-syntax-ns#"
   xmlns:svg="http://www.w3.org/2000/svg"
   xmlns="http://www.w3.org/2000/svg"
   xmlns:sodipodi="http://sodipodi.sourceforge.net/DTD/sodipodi-0.dtd"
   xmlns:inkscape="http://www.inkscape.org/namespaces/inkscape"
   viewBox="0 0 256 256"
   id="svg2"
   version="1.1"
   inkscape:version="0.91 r13725"
   sodipodi:docname="org.kde.plasma.systemmonitor.diskusage.svg">
  <metadata
     id="metadata10">
    <rdf:RDF>
      <cc:Work
         rdf:about="">
        <dc:format>image/svg+xml</dc:format>
        <dc:type
           rdf:resource="http://purl.org/dc/dcmitype/StillImage" />
        <dc:title />
      </cc:Work>
    </rdf:RDF>
  </metadata>
  <sodipodi:namedview
     pagecolor="#ffffff"
     bordercolor="#666666"
     borderopacity="1"
     objecttolerance="10"
     gridtolerance="10"
     guidetolerance="10"
     inkscape:pageopacity="0"
     inkscape:pageshadow="2"
     inkscape:window-width="1920"
     inkscape:window-height="1050"
     id="namedview8"
     showgrid="false"
     inkscape:zoom="2.6074563"
     inkscape:cx="150.82109"
     inkscape:cy="83.327689"
     inkscape:window-x="0"
     inkscape:window-y="30"
     inkscape:window-maximized="1"
     inkscape:current-layer="svg2" />
  <defs
     id="defs4">
    <style
       id="current-color-scheme"
       type="text/css">
      .ColorScheme-Text {
        color:#f2f2f2;
      }
      .ColorScheme-Background {
        color:#31363b;
      }
      .ColorScheme-Highlight {
        color:#3daee9;
      }
      .ColorScheme-ViewText {
        color:#31363b;
      }
      .ColorScheme-ViewBackground {
        color:#314045;
      }
      .ColorScheme-ViewHover {
        color:#93cee9;
      }
      .ColorScheme-ViewFocus{
        color:#3daee9;
      }
      .ColorScheme-ButtonText {
        color:#31363b;
      }
      .ColorScheme-ButtonBackground {
        color:#31363b;
      }
      .ColorScheme-ButtonHover {
        color:#93cee9;
      }
      .ColorScheme-ButtonFocus{
        color:#3daee9;
      }
      </style>
  </defs>
  <path
     style="fill:currentColor;fill-opacity:0.5;stroke:none"
     d="m 16,10 224,0 c 3.324,0 6,2.676 6,6 l 0,224 c 0,3.324 -2.676,6 -6,6 l -224,0 c -3.324,0 -6,-2.676 -6,-6 L 10,16 c 0,-3.324 2.676,-6 6,-6 z"
     class="ColorScheme-ButtonText"
     id="rect4240" />
  <path
     style="fill:currentColor;fill-opacity:1;stroke:none"
     d="m 16,12 224,0 c 2.216,0 4,1.784 4,4 l 0,224 c 0,2.216 -1.784,4 -4,4 l -224,0 c -2.216,0 -4,-1.784 -4,-4 L 12,16 c 0,-2.216 1.784,-4 4,-4 z"
     class="ColorScheme-Background"
     id="rect4238" />
  <path
     style="fill:currentColor;fill-opacity:1;stroke:none"
     class="ColorScheme-Text"
     d="m 98.996094,26.57617 c -0.497233,0 -0.958252,0.05746 -1.386719,0.173828 -0.428467,0.116373 -0.818848,0.293217 -1.167969,0.53125 -0.349121,0.232753 -0.623209,0.548586 -0.824218,0.945312 -0.201009,0.396727 -0.300782,0.850182 -0.300782,1.363282 0,0.745853 0.191977,1.333252 0.578125,1.761718 0.38615,0.423174 0.971029,0.783852 1.753907,1.080079 l 1.888671,0.720703 c 0.740561,0.28564 1.236331,0.569249 1.490231,0.849609 0.2592,0.27506 0.39063,0.690674 0.39063,1.246094 0,0.481367 -0.11686,0.884931 -0.34961,1.212891 -0.22745,0.322673 -0.52368,0.556398 -0.88867,0.699218 -0.364992,0.137534 -0.78817,0.207032 -1.269534,0.207032 -0.592448,0 -1.209554,-0.106773 -1.849609,-0.31836 -0.634765,-0.211587 -1.205078,-0.500241 -1.712891,-0.865234 l 0,1.253906 c 0.327962,0.29094 0.821207,0.537275 1.482422,0.738281 0.661214,0.201007 1.347819,0.300781 2.056641,0.300781 0.396728,0 0.772539,-0.03475 1.126951,-0.103515 0.3597,-0.06877 0.70582,-0.181157 1.03906,-0.339844 0.33326,-0.16398 0.61743,-0.368001 0.85547,-0.611328 0.23804,-0.243327 0.42944,-0.554687 0.57227,-0.935547 0.14282,-0.38086 0.21484,-0.811036 0.21484,-1.287109 0,-0.386154 -0.0474,-0.729737 -0.14258,-1.03125 -0.0952,-0.301514 -0.21459,-0.555419 -0.35742,-0.761719 -0.14282,-0.2063 -0.34684,-0.398278 -0.61133,-0.578125 -0.25919,-0.18514 -0.51058,-0.336752 -0.7539,-0.453125 -0.23804,-0.116373 -0.54688,-0.248371 -0.927736,-0.396484 L 98.076172,31.26367 c -0.55542,-0.21688 -0.941325,-0.453697 -1.158203,-0.712891 -0.211589,-0.264486 -0.316407,-0.6403 -0.316407,-1.126953 0,-0.396727 0.114909,-0.73022 0.347657,-1 0.232747,-0.269773 0.526448,-0.459226 0.880859,-0.570312 0.354411,-0.116374 0.759929,-0.175782 1.214844,-0.175782 0.491943,0 0.984618,0.0695 1.476558,0.207032 0.49724,0.137533 0.91594,0.32446 1.25977,0.5625 l 0.50781,-0.982422 c -0.45492,-0.280354 -0.97282,-0.498944 -1.55468,-0.652344 -0.57658,-0.158693 -1.156418,-0.236328 -1.738286,-0.236328 z m -44.25,0.0625 -1.316406,0.0957 0,2.609375 0.0625,1.912109 c -0.126954,-0.232746 -0.261475,-0.42977 -0.404297,-0.59375 -0.137532,-0.169266 -0.306804,-0.325923 -0.507813,-0.46875 -0.201009,-0.14811 -0.442301,-0.259928 -0.722656,-0.333981 -0.280355,-0.07405 -0.596761,-0.109375 -0.951172,-0.109375 -1.11084,0 -1.991943,0.396 -2.642578,1.189453 -0.645345,0.79346 -0.96875,1.831788 -0.96875,3.117188 0,1.354166 0.313314,2.431722 0.9375,3.230468 0.629476,0.793454 1.523193,1.189453 2.68164,1.189453 1.200766,0 2.072348,-0.547611 2.617188,-1.642578 l 0.119141,1.484375 1.095703,0 0,-11.679687 z m 29.921875,0 -1.302735,0.0957 0,11.583984 1.302735,0 0,-3.070312 0.904297,-0.857422 3.332031,3.927734 1.546875,0 -3.966797,-4.5625 3.666016,-3.832031 -1.595703,0 -3.935547,4.259766 0.04883,-1.728516 0,-5.816406 z m -62.429688,0.0957 0,11.583984 1.396485,0 0,-5.404297 6.029296,0 0,5.404297 1.396485,0 0,-11.583984 -1.396485,0 0,5.164063 -6.029296,0 0,-5.164063 -1.396485,0 z m 38.5625,0 0,11.583984 3.513672,0 c 1.85669,0 3.317628,-0.505291 4.380859,-1.515625 1.063233,-1.010333 1.59375,-2.446613 1.59375,-4.308593 0,-0.78288 -0.09725,-1.489668 -0.292968,-2.119141 -0.19572,-0.634767 -0.472331,-1.175373 -0.832032,-1.625 -0.3597,-0.449627 -0.797444,-0.82544 -1.310546,-1.126953 -0.513102,-0.3068 -1.083415,-0.532955 -1.712891,-0.675781 -0.629476,-0.14282 -1.314128,-0.212891 -2.054687,-0.212891 l -3.285157,0 z m 12.400391,0 c -0.253906,0 -0.462972,0.07959 -0.626953,0.238281 -0.158692,0.1534 -0.236328,0.352949 -0.236328,0.601563 0,0.24862 0.07764,0.452635 0.236328,0.611328 0.163981,0.158687 0.373047,0.238281 0.626953,0.238281 0.248617,0 0.455159,-0.07959 0.61914,-0.238281 0.163981,-0.158693 0.246094,-0.362708 0.246094,-0.611328 0,-0.248614 -0.08211,-0.448163 -0.246094,-0.601563 -0.158691,-0.158693 -0.365233,-0.238281 -0.61914,-0.238281 z m 68.261718,0 0,7.386719 c 0,1.333013 0.38338,2.390955 1.15039,3.173828 0.76701,0.78288 1.89698,1.173828 3.38867,1.173828 0.74586,0 1.40837,-0.10482 1.99024,-0.316406 0.58186,-0.21688 1.05688,-0.518144 1.42187,-0.904297 0.37028,-0.391433 0.64942,-0.84936 0.83985,-1.373047 0.19043,-0.52368 0.28711,-1.100995 0.28711,-1.730469 l 0,-7.410156 -1.39844,0 0,7.363281 c 0,1.06852 -0.264,1.880127 -0.79297,2.435547 -0.52897,0.550133 -1.31087,0.824219 -2.34766,0.824219 -2.09472,0 -3.14257,-1.085692 -3.14257,-3.259766 l 0,-7.363281 -1.39649,0 z m -79.265624,1.046875 1.824218,0 c 1.592204,0 2.801758,0.383377 3.626954,1.150391 0.830485,0.761713 1.24414,1.961749 1.24414,3.601562 0,1.544593 -0.39095,2.719398 -1.173828,3.523438 -0.777588,0.798746 -1.937826,1.199218 -3.482422,1.199218 l -2.039062,0 0,-9.474609 z m -25.708985,1.968753 c -1.121419,0 -2.131999,0.207113 -3.03125,0.625 l 0.357422,0.96875 c 0.386149,-0.18514 0.824463,-0.327234 1.316406,-0.427734 0.491944,-0.105794 0.952393,-0.160157 1.38086,-0.160157 0.634766,0 1.097738,0.151612 1.388672,0.453125 0.296224,0.301514 0.445312,0.759441 0.445312,1.373047 l 0,0.824219 -1.341797,0 c -1.348876,0 -2.332275,0.214111 -2.951172,0.642578 -0.613606,0.42318 -0.919922,1.090173 -0.919922,2 10e-7,0.76172 0.231771,1.35669 0.697266,1.785156 0.470785,0.428467 1.092936,0.642578 1.865234,0.642578 1.153158,0 2.089194,-0.440838 2.808594,-1.324218 l 0.142578,1.158203 1,0 0,-5.539063 c 0,-1.068526 -0.276042,-1.837813 -0.826172,-2.308593 -0.54484,-0.476074 -1.321695,-0.712891 -2.332031,-0.712891 z m 42.306641,0 c -0.878092,0 -1.560221,0.211592 -2.046875,0.634766 -0.486653,0.417886 -0.730469,0.968017 -0.730469,1.65039 0,0.550134 0.14152,0.998536 0.421875,1.347656 0.280355,0.343834 0.798258,0.637533 1.554688,0.88086 l 0.919921,0.292969 c 0.608317,0.195713 1.028971,0.404779 1.261719,0.626953 0.232748,0.222166 0.34961,0.498212 0.34961,0.826172 0,0.476073 -0.139567,0.839843 -0.419922,1.09375 -0.280355,0.24862 -0.675781,0.373046 -1.183594,0.373046 -0.809326,0 -1.715658,-0.239336 -2.720703,-0.720703 l 0,1.101563 c 0.867513,0.412593 1.74357,0.61914 2.626953,0.61914 0.396728,0 0.760498,-0.04736 1.09375,-0.142578 0.338542,-0.09521 0.639812,-0.237301 0.904297,-0.427734 0.269775,-0.190427 0.481363,-0.444339 0.634766,-0.761719 0.153401,-0.322673 0.230468,-0.693441 0.230468,-1.111328 0,-0.338547 -0.03223,-0.624675 -0.0957,-0.857422 -0.06348,-0.238033 -0.178385,-0.459715 -0.347656,-0.666015 -0.169271,-0.2063 -0.405518,-0.385663 -0.707031,-0.539063 -0.296224,-0.158693 -0.679606,-0.312824 -1.150391,-0.460937 l -0.833984,-0.261719 c -0.544841,-0.17456 -0.901042,-0.338788 -1.070313,-0.492188 -0.169271,-0.1534 -0.253906,-0.40226 -0.253906,-0.746093 0,-0.407307 0.129476,-0.716141 0.388672,-0.927735 0.264485,-0.216873 0.700276,-0.326172 1.308594,-0.326172 0.682373,0 1.38916,0.186361 2.11914,0.556641 l 0.310547,-0.976562 c -0.79346,-0.391434 -1.649335,-0.585938 -2.564456,-0.585938 z m 29.714848,0 c -1.21135,0 -2.12525,0.545658 -2.74415,1.640625 l -0.13476,-1.466797 -1.0957,0 0,12.076172 1.3164,0 0,-3.158203 -0.0547,-1.943359 c 0.62418,1.052653 1.52042,1.578124 2.68945,1.578124 1.10026,0 1.95866,-0.395999 2.57226,-1.189453 0.61361,-0.79346 0.91993,-1.841311 0.91993,-3.142578 0,-1.354166 -0.29623,-2.424724 -0.88868,-3.21289 -0.58714,-0.788167 -1.44805,-1.181641 -2.58005,-1.181641 z m 8.27734,0 c -1.12142,0 -2.132,0.207113 -3.03125,0.625 l 0.35742,0.96875 c 0.38615,-0.18514 0.82446,-0.327234 1.31641,-0.427734 0.49194,-0.105794 0.95239,-0.160157 1.38086,-0.160157 0.63476,0 1.09774,0.151612 1.38867,0.453125 0.29623,0.301514 0.44336,0.759441 0.44336,1.373047 l 0,0.824219 -1.33985,0 c -1.34887,0 -2.33422,0.214111 -2.95312,0.642578 -0.61361,0.42318 -0.91992,1.090173 -0.91992,2 0,0.76172 0.23372,1.35669 0.69922,1.785156 0.47078,0.428467 1.09098,0.642578 1.86328,0.642578 1.15316,0 2.09114,-0.440838 2.81054,-1.324218 l 0.14258,1.158203 1,0 0,-5.539063 c 0,-1.068526 -0.27604,-1.837813 -0.82617,-2.308593 -0.54484,-0.476074 -1.3217,-0.712891 -2.33203,-0.712891 z m 8.83008,0 c -1.16903,0 -2.11768,0.393474 -2.84766,1.181641 -0.72998,0.782873 -1.0957,1.858475 -1.0957,3.228515 0,1.311847 0.35368,2.359698 1.0625,3.142578 0.71411,0.782874 1.67228,1.173828 2.87305,1.173828 0.5131,0 0.97355,-0.05998 1.38085,-0.18164 0.40732,-0.121667 0.70102,-0.253664 0.88086,-0.396484 L 127.625,37.001951 c -0.53426,0.306807 -1.12418,0.458985 -1.76953,0.458985 -0.9257,0 -1.62997,-0.30379 -2.11133,-0.91211 -0.48137,-0.608313 -0.7207,-1.404785 -0.7207,-2.388672 0,-1.036786 0.25138,-1.861002 0.7539,-2.474609 0.50253,-0.613607 1.16756,-0.919922 1.99805,-0.919922 0.65592,0 1.2408,0.152178 1.75391,0.458984 l 0.37304,-0.904297 c -0.17985,-0.121666 -0.47103,-0.246093 -0.87304,-0.373046 -0.39674,-0.13224 -0.86727,-0.197266 -1.41211,-0.197266 z m 7.08593,0 c -1.11083,0 -2.02668,0.398519 -2.74609,1.197266 -0.7194,0.798746 -1.07812,1.869304 -1.07812,3.21289 0,1.327714 0.36824,2.38061 1.10351,3.158203 0.73527,0.772294 1.69149,1.158203 2.8711,1.158203 1.05794,0 2.0035,-0.246341 2.83398,-0.738281 l -0.2793,-0.927734 c -0.44433,0.222173 -0.84538,0.38892 -1.20508,0.5 -0.3597,0.111087 -0.76017,0.166015 -1.19921,0.166015 -0.80933,0 -1.46428,-0.256424 -1.9668,-0.769531 -0.50251,-0.518386 -0.77603,-1.310379 -0.81836,-2.378906 l 5.67383,0 0.0488,-0.667969 c 0,-1.227213 -0.27857,-2.183427 -0.83399,-2.871094 -0.5501,-0.692946 -1.35161,-1.039062 -2.40427,-1.039062 z m 22.51758,0 c -0.87809,0 -1.56022,0.211592 -2.04687,0.634766 -0.48666,0.417886 -0.73047,0.968017 -0.73047,1.65039 0,0.550134 0.14152,0.998536 0.42187,1.347656 0.28036,0.343834 0.79827,0.637533 1.55469,0.88086 l 0.91992,0.292969 c 0.60832,0.195713 1.02898,0.404779 1.26172,0.626953 0.23275,0.222166 0.34961,0.498212 0.34961,0.826172 0,0.476073 -0.13957,0.839843 -0.41992,1.09375 -0.28035,0.24862 -0.67578,0.373046 -1.18359,0.373046 -0.80933,0 -1.71566,-0.239336 -2.72071,-0.720703 l 0,1.101563 c 0.86752,0.412593 1.74358,0.61914 2.62696,0.61914 0.39673,0 0.7605,-0.04736 1.09375,-0.142578 0.33854,-0.09521 0.63981,-0.237301 0.90429,-0.427734 0.26978,-0.190427 0.48137,-0.444339 0.63477,-0.761719 0.1534,-0.322673 0.23047,-0.693441 0.23047,-1.111328 0,-0.338547 -0.0322,-0.624675 -0.0957,-0.857422 -0.0635,-0.238033 -0.17839,-0.459715 -0.34765,-0.666015 -0.16928,-0.2063 -0.40552,-0.385663 -0.70703,-0.539063 -0.29622,-0.158693 -0.67961,-0.312824 -1.15039,-0.460937 l -0.83203,-0.261719 c -0.54485,-0.17456 -0.903,-0.338788 -1.07227,-0.492188 -0.16927,-0.1534 -0.25391,-0.40226 -0.25391,-0.746093 0,-0.407307 0.12948,-0.716141 0.38868,-0.927735 0.26448,-0.216873 0.70028,-0.326172 1.30859,-0.326172 0.68237,0 1.38916,0.186361 2.11914,0.556641 l 0.31055,-0.976562 c -0.79347,-0.391434 -1.64935,-0.585938 -2.56447,-0.585938 z m 7.58594,0 c -1.12141,0 -2.132,0.207113 -3.03125,0.625 l 0.35742,0.96875 c 0.38616,-0.18514 0.82447,-0.327234 1.31641,-0.427734 0.49195,-0.105794 0.95239,-0.160157 1.38086,-0.160157 0.63476,0 1.09774,0.151612 1.38867,0.453125 0.29622,0.301514 0.44531,0.759441 0.44531,1.373047 l 0,0.824219 -1.34179,0 c -1.34888,0 -2.33228,0.214111 -2.95118,0.642578 -0.6136,0.42318 -0.91992,1.090173 -0.91992,2 0,0.76172 0.23177,1.35669 0.69727,1.785156 0.47078,0.428467 1.09293,0.642578 1.86523,0.642578 1.15316,0 2.08919,-0.440838 2.8086,-1.324218 l 0.14257,1.158203 1,0 0,-5.539063 c 0,-1.068526 -0.27409,-1.837813 -0.82422,-2.308593 -0.54483,-0.476074 -1.32364,-0.712891 -2.33398,-0.712891 z m 8.64844,0 c -0.62419,0 -1.17684,0.11491 -1.6582,0.347656 -0.48137,0.227454 -0.86727,0.545812 -1.15821,0.953125 -0.29093,0.407307 -0.51009,0.870279 -0.6582,1.388672 -0.14811,0.5131 -0.22266,1.070802 -0.22266,1.673828 0,0.528974 0.072,1.031739 0.21485,1.507813 0.14811,0.476073 0.36222,0.909341 0.64257,1.300781 0.28036,0.39144 0.65617,0.7028 1.12696,0.935547 0.47607,0.232747 1.01163,0.349609 1.60937,0.349609 0.6189,0 1.14885,-0.124427 1.58789,-0.373047 0.44434,-0.248613 0.78792,-0.589677 1.03125,-1.023437 l 0.0234,0.984375 0,0.230469 c 0,1.052653 -0.21663,1.81185 -0.65039,2.277343 -0.42843,0.4655 -1.0929,0.697266 -1.99215,0.697266 -0.66121,0 -1.47534,-0.114337 -2.44336,-0.341797 l -0.10351,1.111328 c 0.95214,0.21688 1.80102,0.326172 2.54687,0.326172 1.37004,0 2.35539,-0.375813 2.95313,-1.126953 0.60302,-0.745853 0.90429,-1.85116 0.90429,-3.316406 l 0,-7.728516 -1.19921,0 -0.0781,1.205078 c -0.50255,-0.920406 -1.32873,-1.378906 -2.47659,-1.378906 z m 9.26758,0 c -1.11084,0 -2.02474,0.398519 -2.74414,1.197266 -0.7194,0.798746 -1.08008,1.869304 -1.08008,3.21289 0,1.327714 0.36824,2.38061 1.10351,3.158203 0.73527,0.772294 1.69149,1.158203 2.8711,1.158203 1.05794,0 2.0035,-0.246341 2.83398,-0.738281 l -0.27734,-0.927734 c -0.44434,0.222173 -0.84733,0.38892 -1.20703,0.5 -0.3597,0.111087 -0.75822,0.166015 -1.19727,0.166015 -0.80933,0 -1.46622,-0.256424 -1.96875,-0.769531 -0.50251,-0.518386 -0.77407,-1.310379 -0.81641,-2.378906 l 5.67188,0 0.0488,-0.667969 c 0,-1.227213 -0.27857,-2.183427 -0.83399,-2.871094 -0.5501,-0.692946 -1.35161,-1.039062 -2.40426,-1.039062 z m -135.109379,0.08594 c -0.507812,0 -0.990967,0.144047 -1.451172,0.429687 -0.454915,0.28036 -0.842773,0.721192 -1.160156,1.324219 l -0.142578,-1.666016 -1.054687,0 0,8.394531 1.316406,0 0,-4.751953 c 0,-0.745846 0.233724,-1.378091 0.699218,-1.896484 0.470785,-0.518393 1.065755,-0.777344 1.785157,-0.777344 0.148112,0 0.327474,0.02017 0.539062,0.0625 l 0.05664,-1.078125 c -0.153401,-0.02647 -0.349853,-0.04102 -0.587891,-0.04102 z m 26.929688,0.08789 0,8.394531 1.300781,0 0,-8.394531 -1.300781,0 z m -21.447266,0.832031 c 0.782878,0 1.372803,0.291181 1.769531,0.873047 0.402018,0.581867 0.603516,1.442792 0.603516,2.580078 -0.0053,1.042074 -0.199219,1.84611 -0.580078,2.41211 -0.380859,0.566 -1.001058,0.847656 -1.863281,0.847656 -0.819906,0 -1.426921,-0.30127 -1.81836,-0.904297 -0.386149,-0.603027 -0.578125,-1.429768 -0.578125,-2.482422 0,-1.05794 0.206544,-1.876545 0.619141,-2.453125 0.412598,-0.581866 1.027751,-0.873047 1.847656,-0.873047 z m 57.263677,0 c 1.51286,0 2.26953,1.124921 2.26953,3.373047 0,2.226967 -0.78191,3.339844 -2.34766,3.339844 -0.79346,0 -1.40804,-0.303796 -1.8418,-0.912109 -0.42846,-0.60832 -0.64257,-1.46224 -0.64257,-2.5625 0.005,-1.015627 0.21687,-1.809573 0.63476,-2.38086 0.41789,-0.571286 1.06022,-0.857422 1.92774,-0.857422 z m 24.375,0 c 1.33302,0 2.03223,0.905764 2.0957,2.714844 l -4.57031,0 c 0.074,-0.835773 0.333,-1.497722 0.77734,-1.984375 0.44962,-0.486653 1.01489,-0.730469 1.69727,-0.730469 z m 38.78515,0 c 1.60279,0 2.4043,0.990397 2.4043,2.96875 l 0,0.705079 c 0,0.380859 -0.0423,0.731441 -0.12695,1.048828 -0.0846,0.31738 -0.22112,0.611086 -0.40626,0.880859 -0.17984,0.264487 -0.42927,0.469074 -0.75195,0.617187 -0.32267,0.148114 -0.70353,0.222657 -1.14258,0.222657 -0.44433,0 -0.83219,-0.08968 -1.16015,-0.269531 -0.32268,-0.179847 -0.56958,-0.423663 -0.74414,-0.730469 -0.17456,-0.312094 -0.30152,-0.645594 -0.38086,-1 -0.0794,-0.354414 -0.11914,-0.737791 -0.11914,-1.150391 0,-0.433753 0.0398,-0.834798 0.11914,-1.205078 0.0846,-0.375573 0.21411,-0.724208 0.38867,-1.046875 0.17985,-0.322673 0.43123,-0.576579 0.75391,-0.761719 0.32796,-0.18514 0.71638,-0.279297 1.16601,-0.279297 z m 9.23438,0 c 1.33302,0 2.03223,0.905764 2.0957,2.714844 l -4.57031,0 c 0.074,-0.835773 0.33301,-1.497722 0.77734,-1.984375 0.44963,-0.486653 1.01489,-0.730469 1.69727,-0.730469 z m -143.416019,3.523438 1.007812,0 0,1.849609 c -0.629476,0.9257 -1.487874,1.388672 -2.572265,1.388672 -0.396729,0 -0.72575,-0.126953 -0.990235,-0.380859 -0.264486,-0.253907 -0.396484,-0.614585 -0.396484,-1.080078 0,-0.259194 0.02271,-0.475824 0.07031,-0.650391 0.04761,-0.179847 0.134766,-0.344074 0.261719,-0.492188 0.126953,-0.153399 0.301269,-0.272788 0.523438,-0.357421 0.222167,-0.08993 0.505778,-0.157478 0.849609,-0.205079 0.343831,-0.0476 0.75944,-0.07227 1.246094,-0.07227 z m 80.296879,0 1.00781,0 0,1.849609 c -0.62948,0.9257 -1.48593,1.388672 -2.57031,1.388672 -0.39674,0 -0.72771,-0.126953 -0.99219,-0.380859 -0.26448,-0.253907 -0.39649,-0.614585 -0.39649,-1.080078 0,-0.259194 0.0247,-0.475824 0.0723,-0.650391 0.0476,-0.179847 0.13476,-0.344074 0.26172,-0.492188 0.12695,-0.153399 0.30127,-0.272788 0.52344,-0.357421 0.22216,-0.08993 0.50577,-0.157478 0.8496,-0.205079 0.34384,-0.0476 0.75749,-0.07227 1.24415,-0.07227 z m 46.02148,0 1.00781,0 0,1.849609 c -0.62947,0.9257 -1.48787,1.388672 -2.57226,1.388672 -0.39673,0 -0.72575,-0.126953 -0.99024,-0.380859 -0.26448,-0.253907 -0.39648,-0.614585 -0.39648,-1.080078 0,-0.259194 0.0227,-0.475824 0.0703,-0.650391 0.0476,-0.179847 0.13477,-0.344074 0.26172,-0.492188 0.12695,-0.153399 0.30127,-0.272788 0.52344,-0.357421 0.22216,-0.08993 0.50577,-0.157478 0.84961,-0.205079 0.34382,-0.0476 0.75944,-0.07227 1.24609,-0.07227 z M 20,49.999998 l 0,1 216,0 0,-1 -216,0 z m 174.45703,15.287109 c -0.5013,0 -0.9965,0.073 -1.48437,0.220703 -0.48788,0.143234 -0.88176,0.325609 -1.18164,0.544922 l 0.32812,0.851563 c 0.30883,-0.20142 0.66081,-0.364908 1.05469,-0.490235 0.39836,-0.12532 0.78613,-0.1875 1.16211,-0.1875 0.17008,0 0.33358,0.01554 0.49023,0.04688 0.15666,0.02686 0.32015,0.08293 0.49024,0.167968 0.17008,0.08057 0.31469,0.186606 0.43554,0.316406 0.12085,0.125327 0.22217,0.296306 0.30274,0.515626 0.0806,0.219319 0.12109,0.473305 0.12109,0.759765 0,0.264073 -0.0283,0.50529 -0.082,0.724609 -0.0492,0.214847 -0.1425,0.43579 -0.28125,0.664063 -0.13875,0.228267 -0.26172,0.412028 -0.36914,0.550781 -0.10742,0.138754 -0.28507,0.352212 -0.53125,0.638672 l -3.16211,3.732422 0.17578,0.878906 5.24219,0 0.0606,-0.804687 -4.22266,0 2.63281,-3.082031 c 0.3178,-0.371501 0.56372,-0.676836 0.73828,-0.914063 0.17904,-0.23722 0.34253,-0.490639 0.49024,-0.763672 0.15216,-0.277507 0.25486,-0.551759 0.30859,-0.820312 0.0582,-0.268554 0.0879,-0.571936 0.0879,-0.91211 0,-0.3894 -0.0594,-0.739988 -0.17578,-1.048828 -0.11637,-0.313313 -0.26904,-0.565346 -0.45703,-0.757812 -0.18799,-0.19694 -0.4056,-0.357096 -0.65625,-0.482422 -0.25065,-0.129834 -0.5013,-0.220331 -0.75195,-0.269531 -0.24618,-0.05373 -0.50155,-0.08008 -0.76563,-0.08008 z m 20.91992,0 c -0.72062,0 -1.38403,0.129066 -1.98828,0.388672 -0.60425,0.255127 -1.11166,0.607094 -1.52344,1.054688 -0.4073,0.447586 -0.72485,0.981362 -0.95312,1.603515 -0.22379,0.617674 -0.33594,1.285807 -0.33594,2.001954 0,0.716146 0.098,1.377601 0.29492,1.986328 0.20142,0.604246 0.4926,1.13387 0.87305,1.585937 0.38045,0.452067 0.86483,0.80542 1.45117,1.060547 0.58635,0.255127 1.2478,0.382812 1.98633,0.382812 1.19059,0 2.30534,-0.202635 3.34375,-0.605468 l 0,-4.525391 -3.22851,0 -0.0469,0.941406 2.18164,0 0,2.960938 c -0.62215,0.192467 -1.30249,0.287109 -2.04102,0.287109 -0.6311,0 -1.18237,-0.09798 -1.65234,-0.294922 -0.46997,-0.19694 -0.8483,-0.477297 -1.13476,-0.839843 -0.28198,-0.367027 -0.49211,-0.793377 -0.63086,-1.28125 -0.13876,-0.492354 -0.20704,-1.048343 -0.20704,-1.666016 1e-5,-0.778807 0.1399,-1.47607 0.42188,-2.09375 0.28199,-0.617673 0.70085,-1.10815 1.25586,-1.470703 0.55501,-0.36702 1.20565,-0.550781 1.95312,-0.550781 0.15218,0 0.29875,0.0047 0.4375,0.01367 0.14324,0.0089 0.27841,0.02448 0.40821,0.04688 0.1298,0.02233 0.24527,0.04261 0.34375,0.06055 0.0985,0.01793 0.20116,0.04762 0.30859,0.08789 0.11189,0.04027 0.19905,0.07135 0.26172,0.09375 0.0671,0.02236 0.14957,0.05955 0.24805,0.113281 0.10294,0.04921 0.16984,0.08363 0.20117,0.101563 0.0358,0.01788 0.1027,0.05369 0.20117,0.107422 0.0985,0.05373 0.15457,0.08482 0.16797,0.09375 l 0.28906,-0.886719 c -0.72957,-0.50578 -1.69165,-0.757813 -2.88672,-0.757813 z m -184.691403,0.134766 -4.089844,9.800781 0.966797,0 4.117188,-9.800781 -0.994141,0 z m 155.734373,0 c -0.23274,0.161133 -0.58138,0.322675 -1.04687,0.488281 -0.46102,0.161134 -0.85962,0.27661 -1.19532,0.34375 l 0,0.886719 c 0.29989,-0.04028 0.66268,-0.129392 1.08789,-0.263672 0.42969,-0.13428 0.78443,-0.278893 1.06641,-0.435547 l 0,7.976563 -2.36328,0 0,0.804687 5.58594,0 0,-0.804687 -2.10742,0 0,-8.996094 -1.02735,0 z m 13.79102,0 -0.18946,5.189453 0.9004,0.107422 c 0.20589,-0.21932 0.46598,-0.393638 0.77929,-0.523438 0.31332,-0.1298 0.63558,-0.195312 0.9668,-0.195312 0.45207,0 0.8304,0.101321 1.13476,0.302734 0.30437,0.19694 0.52059,0.450359 0.65039,0.763672 0.12981,0.30884 0.19532,0.664147 0.19532,1.0625 0,0.7251 -0.20264,1.288573 -0.60547,1.691406 -0.39835,0.398354 -0.93213,0.597657 -1.60352,0.597657 -0.75195,0 -1.55997,-0.244549 -2.42383,-0.732422 l -0.38281,0.867187 c 0.97128,0.541587 1.93197,0.810547 2.88086,0.810547 0.46102,0 0.88737,-0.06828 1.28125,-0.207031 0.39388,-0.138753 0.73974,-0.339436 1.03516,-0.603516 0.29988,-0.268553 0.53165,-0.611083 0.69726,-1.027343 0.17008,-0.420734 0.25586,-0.894282 0.25586,-1.417969 0,-0.550533 -0.11214,-1.047115 -0.33593,-1.490234 -0.21932,-0.447587 -0.55575,-0.807045 -1.00782,-1.080079 -0.45206,-0.277506 -0.98445,-0.416015 -1.59765,-0.416015 -0.67139,0 -1.26929,0.175697 -1.79297,0.529297 l 0.10742,-3.34375 4.12305,0 0.0879,-0.884766 -5.15625,0 z m 20.93945,0 c -0.21485,0 -0.39054,0.06689 -0.5293,0.201172 -0.13427,0.1298 -0.20312,0.299399 -0.20312,0.509765 0,0.210367 0.0688,0.383299 0.20312,0.517579 0.13876,0.134273 0.31445,0.201171 0.5293,0.201171 0.21037,0 0.38468,-0.0669 0.52344,-0.201171 0.13875,-0.13428 0.20898,-0.307212 0.20898,-0.517579 0,-0.210366 -0.0702,-0.379965 -0.20898,-0.509765 -0.13428,-0.13428 -0.3086,-0.201172 -0.52344,-0.201172 z m 2.77344,0 0,9.800781 3.65234,0 c 1.13241,0 1.98568,-0.242595 2.5586,-0.730468 C 230.71216,73.999832 231,73.320883 231,72.457029 c 0,-0.622146 -0.1696,-1.134276 -0.50977,-1.537109 -0.33569,-0.407307 -0.81534,-0.699866 -1.4375,-0.878906 0.56844,-0.21932 0.96843,-0.509115 1.20118,-0.867188 0.23722,-0.362547 0.35742,-0.812503 0.35742,-1.349609 0,-0.819094 -0.2959,-1.423094 -0.88672,-1.8125 -0.58635,-0.39388 -1.49569,-0.589844 -2.72656,-0.589844 l -3.07422,0 z m 1.18164,0.884766 1.88672,0 c 0.88175,0 1.51684,0.118242 1.90625,0.355468 0.3894,0.23722 0.58398,0.671628 0.58398,1.302735 0,0.626626 -0.17903,1.065759 -0.53711,1.316406 -0.35807,0.24618 -0.88102,0.369141 -1.57031,0.369141 l -2.26953,0 0,-3.34375 z m -4.51172,1.8125 0,7.103515 1.10156,0 0,-7.103515 -1.10156,0 z m 4.51172,2.371093 1.91992,0 c 0.9668,0 1.67351,0.147946 2.12109,0.44336 0.4476,0.295406 0.67188,0.793373 0.67188,1.496094 0,0.662433 -0.19458,1.143472 -0.58398,1.443359 -0.38493,0.299887 -0.99976,0.451172 -1.84571,0.451172 l -2.2832,0 0,-3.833985 z m -46.81641,57.796878 c -0.5013,0 -0.99454,0.073 -1.48242,0.2207 -0.48787,0.14324 -0.88175,0.32561 -1.18164,0.54492 l 0.32812,0.85157 c 0.30885,-0.20142 0.66081,-0.36491 1.05469,-0.49024 0.39836,-0.12532 0.78418,-0.1875 1.16016,-0.1875 0.17009,0 0.33358,0.0155 0.49023,0.0469 0.15666,0.0269 0.32016,0.0829 0.49024,0.16797 0.17008,0.0806 0.31664,0.1866 0.4375,0.3164 0.12084,0.12533 0.22021,0.29631 0.30078,0.51563 0.0806,0.21932 0.12109,0.4733 0.12109,0.75976 0,0.26408 -0.0263,0.50529 -0.0801,0.72461 -0.0492,0.21485 -0.14249,0.43579 -0.28125,0.66407 -0.13875,0.22826 -0.26172,0.41202 -0.36914,0.55078 -0.10742,0.13875 -0.28507,0.35221 -0.53125,0.63867 l -3.16211,3.73242 0.17383,0.87891 5.24414,0 0.0606,-0.80469 -4.22266,0 2.63086,-3.08203 c 0.31779,-0.3715 0.56372,-0.67684 0.73828,-0.91406 0.17904,-0.23723 0.34253,-0.49064 0.49024,-0.76368 0.15215,-0.2775 0.25486,-0.55176 0.30859,-0.82031 0.0582,-0.26855 0.0879,-0.57194 0.0879,-0.91211 0,-0.3894 -0.0574,-0.73999 -0.17382,-1.04883 -0.11638,-0.31331 -0.26905,-0.56534 -0.45704,-0.75781 -0.18798,-0.19694 -0.40755,-0.35709 -0.6582,-0.48242 -0.25065,-0.12983 -0.5013,-0.22033 -0.75195,-0.26953 -0.24618,-0.0537 -0.50155,-0.0801 -0.76563,-0.0801 z m 8.16406,0 c -0.71614,0 -1.32487,0.2115 -1.82617,0.63672 -0.5013,0.42073 -0.87491,1.00781 -1.12109,1.75976 -0.2417,0.74748 -0.36328,1.63656 -0.36328,2.66602 0,0.743 0.0655,1.41862 0.19531,2.02734 0.13427,0.60425 0.33219,1.13664 0.5918,1.59766 0.26408,0.45654 0.60799,0.81128 1.0332,1.06641 0.42969,0.25065 0.92627,0.37695 1.49023,0.37695 0.55949,0 1.04997,-0.1263 1.47071,-0.37695 0.42521,-0.25513 0.76302,-0.6132 1.01367,-1.07422 0.25513,-0.46102 0.44499,-0.99341 0.57031,-1.59766 0.12533,-0.60425 0.18946,-1.27653 0.18946,-2.01953 0,-0.77433 -0.0688,-1.46883 -0.20313,-2.08203 -0.13427,-0.61768 -0.33358,-1.14868 -0.59766,-1.5918 -0.2596,-0.44759 -0.59741,-0.79012 -1.01367,-1.02734 -0.41178,-0.2417 -0.8881,-0.36133 -1.42969,-0.36133 z m 28.92383,0 c -0.72062,0 -1.38403,0.12906 -1.98828,0.38867 -0.60425,0.25513 -1.11166,0.6071 -1.52344,1.05469 -0.4073,0.44759 -0.72485,0.98136 -0.95312,1.60351 -0.22379,0.61768 -0.33594,1.28581 -0.33594,2.00196 0,0.71614 0.098,1.3776 0.29492,1.98633 0.20142,0.60424 0.4926,1.13387 0.87305,1.58593 0.38045,0.45207 0.86483,0.80542 1.45117,1.06055 0.58635,0.25513 1.2478,0.38281 1.98633,0.38281 1.19059,0 2.30534,-0.20263 3.34375,-0.60547 l 0,-4.52539 -3.22851,0 -0.0469,0.94141 2.18164,0 0,2.96094 c -0.62215,0.19246 -1.30249,0.28711 -2.04102,0.28711 -0.6311,0 -1.18237,-0.098 -1.65234,-0.29493 -0.46997,-0.19694 -0.8483,-0.47729 -1.13476,-0.83984 -0.28198,-0.36703 -0.49211,-0.79338 -0.63086,-1.28125 -0.13876,-0.49235 -0.20704,-1.04834 -0.20704,-1.66602 1e-5,-0.7788 0.1399,-1.47606 0.42188,-2.09374 0.28199,-0.61768 0.70085,-1.10815 1.25586,-1.47071 0.55501,-0.36702 1.20565,-0.55078 1.95312,-0.55078 0.15218,0 0.29875,0.005 0.4375,0.0137 0.14324,0.009 0.27841,0.0245 0.40821,0.0469 0.1298,0.0223 0.24527,0.0426 0.34375,0.0605 0.0985,0.0179 0.20116,0.0476 0.30859,0.0879 0.11189,0.0403 0.19905,0.0714 0.26172,0.0937 0.0671,0.0224 0.14957,0.0596 0.24805,0.11329 0.10294,0.0492 0.16984,0.0836 0.20117,0.10156 0.0358,0.0179 0.1027,0.0537 0.20117,0.10742 0.0985,0.0537 0.15457,0.0848 0.16797,0.0937 l 0.28906,-0.88672 c -0.72957,-0.50578 -1.69165,-0.75781 -2.88672,-0.75781 z m -180.986325,0.0527 -1.113281,0.082 0,9.80078 1.107422,0 0,-3.88672 c 0,-0.26408 0.01693,-0.51001 0.05273,-0.73828 0.04028,-0.22827 0.110514,-0.45394 0.208984,-0.67774 0.09847,-0.22379 0.226156,-0.4156 0.382813,-0.57226 0.156657,-0.16114 0.360677,-0.28882 0.611328,-0.38282 0.255127,-0.0985 0.547689,-0.14648 0.878906,-0.14648 0.532634,0 0.910971,0.16821 1.134766,0.50391 0.228271,0.33121 0.341797,0.84806 0.341797,1.55078 l 0,4.34961 1.115234,0 0,-4.39063 c 0,-0.91309 -0.205403,-1.61841 -0.617187,-2.11523 -0.411784,-0.49683 -1.004965,-0.74414 -1.779297,-0.74414 -0.505778,0 -0.961834,0.098 -1.369141,0.29492 -0.402832,0.19246 -0.734537,0.47282 -0.994141,0.83984 l 0.03906,-1.39062 0,-2.37696 z m -3.705078,0.082 -4.089844,9.80078 0.966797,0 4.117188,-9.80078 -0.994141,0 z m 164.931643,0 -4.38281,6.36328 0,0.96679 4.45703,0 0,2.47071 1.06054,0 0,-2.47071 1.1211,0 0.082,-0.85937 -1.20313,0 0,-6.4707 -1.13476,0 z m 4.59375,0 -0.18946,5.18945 0.9004,0.10742 c 0.20589,-0.21932 0.46598,-0.39364 0.77929,-0.52344 0.31332,-0.1298 0.63558,-0.19531 0.9668,-0.19531 0.45207,0 0.8304,0.10132 1.13476,0.30273 0.30437,0.19694 0.52059,0.45036 0.65039,0.76368 0.12981,0.30884 0.19532,0.66414 0.19532,1.0625 0,0.7251 -0.20264,1.28857 -0.60547,1.6914 -0.39835,0.39836 -0.93213,0.59766 -1.60352,0.59766 -0.75195,0 -1.55997,-0.24455 -2.42383,-0.73242 l -0.38281,0.86718 c 0.97128,0.54159 1.93197,0.81055 2.88086,0.81055 0.46102,0 0.88737,-0.0683 1.28125,-0.20703 0.39388,-0.13875 0.73974,-0.33944 1.03516,-0.60352 0.29988,-0.26855 0.53165,-0.61108 0.69726,-1.02734 0.17008,-0.42073 0.25586,-0.89428 0.25586,-1.41797 0,-0.55053 -0.11214,-1.04711 -0.33593,-1.49023 -0.21932,-0.44759 -0.55575,-0.80705 -1.00782,-1.08008 -0.45206,-0.27751 -0.98445,-0.41602 -1.59765,-0.41602 -0.67139,0 -1.26929,0.1757 -1.79297,0.5293 l 0.10742,-3.34375 4.12305,0 0.0879,-0.88476 -5.15625,0 z m 20.93945,0 c -0.21485,0 -0.39054,0.0669 -0.5293,0.20117 -0.13427,0.1298 -0.20312,0.2994 -0.20312,0.50976 0,0.21037 0.0688,0.3833 0.20312,0.51758 0.13876,0.13427 0.31445,0.20117 0.5293,0.20117 0.21037,0 0.38468,-0.0669 0.52344,-0.20117 0.13875,-0.13428 0.20898,-0.30721 0.20898,-0.51758 0,-0.21036 -0.0702,-0.37996 -0.20898,-0.50976 -0.13428,-0.13428 -0.3086,-0.20117 -0.52344,-0.20117 z m 2.77344,0 0,9.80078 3.65234,0 c 1.13241,0 1.98568,-0.2426 2.5586,-0.73047 0.57739,-0.49236 0.86523,-1.17131 0.86523,-2.03516 0,-0.62215 -0.1696,-1.13427 -0.50977,-1.53711 -0.33569,-0.4073 -0.81534,-0.69986 -1.4375,-0.8789 0.56844,-0.21932 0.96843,-0.50912 1.20118,-0.86719 0.23722,-0.36255 0.35742,-0.8125 0.35742,-1.34961 0,-0.81909 -0.2959,-1.42309 -0.88672,-1.8125 -0.58635,-0.39388 -1.49569,-0.58984 -2.72656,-0.58984 l -3.07422,0 z m -37.47071,0.77148 c 1.42335,0 2.13477,1.3715 2.13477,4.11523 0,1.38306 -0.18514,2.43091 -0.55664,3.14258 -0.36703,0.7072 -0.89331,1.06055 -1.57813,1.06055 -0.69376,0 -1.2356,-0.35669 -1.625,-1.06836 -0.38493,-0.71615 -0.57617,-1.75928 -0.57617,-3.12891 -0.004,-1.31144 0.19011,-2.32487 0.58399,-3.04101 0.39388,-0.72062 0.93237,-1.08008 1.61718,-1.08008 z m 38.65235,0.11328 1.88672,0 c 0.88175,0 1.51684,0.11824 1.90625,0.35547 0.3894,0.23722 0.58398,0.67163 0.58398,1.30273 0,0.62663 -0.17903,1.06576 -0.53711,1.31641 -0.35807,0.24618 -0.88102,0.36914 -1.57031,0.36914 l -2.26953,0 0,-3.34375 z m -29.41406,0.49805 0,5.08789 -3.34961,0 3.34961,-5.08789 z m -151.806644,1.16797 c -1.042888,0 -1.861735,0.33919 -2.457032,1.01953 -0.59082,0.67586 -0.886718,1.57104 -0.886718,2.68554 0,1.08764 0.300618,1.97534 0.90039,2.66016 0.599772,0.68033 1.4139,1.01953 2.44336,1.01953 1.00708,0 1.816487,-0.34253 2.429687,-1.02734 0.613199,-0.68929 0.919922,-1.57365 0.919922,-2.65235 0,-1.1145 -0.293946,-2.00968 -0.884766,-2.68554 -0.59082,-0.68034 -1.413005,-1.01953 -2.464843,-1.01953 z m 8.009765,0 c -0.90861,0 -1.638916,0.3986 -2.189453,1.19531 l -0.126953,-1.04883 -0.900391,0 0,7.10352 1.115235,0 0,-4.33008 c 0.09399,-0.62215 0.299397,-1.12012 0.617187,-1.4961 0.322266,-0.38045 0.756673,-0.57226 1.302735,-0.57226 0.496826,0 0.837971,0.18709 1.021484,0.55859 0.183512,0.36703 0.275391,0.98324 0.275391,1.85157 l 0,3.98828 1.113281,0 0,-3.64454 c 0.01343,-0.61768 0.03841,-0.98657 0.07422,-1.10742 0.120849,-0.53263 0.349853,-0.94067 0.685546,-1.22265 0.335694,-0.28199 0.716798,-0.42383 1.146485,-0.42383 0.192465,0 0.360677,0.0297 0.503906,0.0879 0.147705,0.0537 0.264567,0.13949 0.349609,0.25586 0.08952,0.11637 0.161131,0.23462 0.214844,0.35547 0.05371,0.11637 0.0909,0.27042 0.113282,0.46289 0.02239,0.19246 0.03655,0.35596 0.04102,0.49023 0.009,0.12981 0.01367,0.30274 0.01367,0.51758 l 0,4.22852 1.115234,0 0,-4.57813 c 0,-1.78141 -0.725586,-2.67187 -2.175781,-2.67187 -1.02946,0 -1.811117,0.48104 -2.34375,1.44336 -0.165609,-0.45207 -0.400716,-0.80542 -0.705078,-1.06055 -0.304362,-0.25513 -0.724609,-0.38281 -1.261719,-0.38281 z m 11.138672,0 c -0.939941,0 -1.715495,0.33781 -2.324219,1.01367 -0.608724,0.67586 -0.912109,1.58187 -0.912109,2.71875 0,1.12345 0.311442,2.01391 0.933594,2.67187 0.622152,0.65348 1.431559,0.98047 2.429687,0.98047 0.895183,0 1.693767,-0.20874 2.396485,-0.625 l -0.234375,-0.78515 c -0.375977,0.18798 -0.717123,0.32982 -1.021485,0.42382 -0.304362,0.094 -0.642171,0.14063 -1.013672,0.14063 -0.684814,0 -1.238851,-0.21818 -1.664062,-0.65234 -0.425213,-0.43865 -0.6556,-1.10954 -0.691406,-2.01368 l 4.800781,0 0.03906,-0.56445 c 0,-1.03841 -0.235107,-1.84782 -0.705078,-2.42969 -0.465495,-0.58634 -1.142497,-0.8789 -2.033203,-0.8789 z m 157.560547,0.14648 0,7.10352 1.10156,0 0,-7.10352 -1.10156,0 z m -176.708984,0.70508 c 0.729573,0 1.280843,0.26343 1.652343,0.78711 0.371501,0.5192 0.556641,1.21175 0.556641,2.08008 0,0.55501 -0.07633,1.04077 -0.228516,1.45703 -0.15218,0.41178 -0.398112,0.74349 -0.738281,0.99414 -0.335693,0.24618 -0.749837,0.36914 -1.242187,0.36914 -0.716146,0 -1.262696,-0.26009 -1.638672,-0.7793 -0.375977,-0.5192 -0.564453,-1.20093 -0.564453,-2.04687 0,-0.86386 0.188476,-1.55502 0.564453,-2.07422 0.375976,-0.52368 0.922526,-0.78711 1.638672,-0.78711 z m 19.173828,0 c 1.127927,0 1.719724,0.76611 1.773437,2.29687 l -3.867187,0 c 0.06266,-0.70719 0.282226,-1.26595 0.658203,-1.67773 0.380452,-0.41179 0.858154,-0.61914 1.435547,-0.61914 z m 162.046876,1.66601 1.91992,0 c 0.9668,0 1.67351,0.14795 2.12109,0.44336 0.4476,0.29541 0.67188,0.79338 0.67188,1.4961 0,0.66243 -0.19458,1.14347 -0.58398,1.44336 -0.38493,0.29988 -0.99976,0.45117 -1.84571,0.45117 l -2.2832,0 0,-3.83399 z m -22.56641,55.79688 c -0.5013,0 -0.99455,0.073 -1.48242,0.2207 -0.48787,0.14324 -0.88175,0.32561 -1.18164,0.54492 l 0.32812,0.85157 c 0.30884,-0.20142 0.66081,-0.36491 1.05469,-0.49024 0.39836,-0.12532 0.78613,-0.1875 1.16211,-0.1875 0.17008,0 0.33358,0.0155 0.49024,0.0469 0.15666,0.0269 0.3182,0.0829 0.48828,0.16797 0.17008,0.0806 0.31665,0.1866 0.4375,0.3164 0.12085,0.12533 0.22217,0.29631 0.30273,0.51563 0.0806,0.21932 0.11914,0.4733 0.11914,0.75976 0,0.26408 -0.0263,0.50529 -0.0801,0.72461 -0.0492,0.21485 -0.14249,0.43579 -0.28125,0.66407 -0.13875,0.22826 -0.26172,0.41202 -0.36914,0.55078 -0.10742,0.13875 -0.28507,0.35221 -0.53125,0.63867 l -3.16211,3.73242 0.17579,0.87891 5.24218,0 0.0606,-0.80469 -4.22266,0 2.63086,-3.08203 c 0.31779,-0.3715 0.56568,-0.67684 0.74024,-0.91406 0.17904,-0.23723 0.34253,-0.49064 0.49023,-0.76368 0.15216,-0.2775 0.25486,-0.55176 0.3086,-0.82031 0.0582,-0.26855 0.0859,-0.57194 0.0859,-0.91211 0,-0.3894 -0.0574,-0.73999 -0.17382,-1.04883 -0.11638,-0.31331 -0.26905,-0.56534 -0.45704,-0.75781 -0.18798,-0.19694 -0.40755,-0.35709 -0.6582,-0.48242 -0.25065,-0.12983 -0.50131,-0.22033 -0.75195,-0.26953 -0.24618,-0.0537 -0.50155,-0.0801 -0.76563,-0.0801 z m 12.83789,0 c -0.72062,0 -1.38403,0.12906 -1.98828,0.38867 -0.60425,0.25513 -1.11166,0.6071 -1.52344,1.05469 -0.4073,0.44759 -0.72485,0.98136 -0.95312,1.60351 -0.22379,0.61768 -0.33594,1.28581 -0.33594,2.00196 0,0.71614 0.098,1.3776 0.29492,1.98633 0.20142,0.60424 0.4926,1.13387 0.87305,1.58593 0.38045,0.45207 0.86483,0.80542 1.45117,1.06055 0.58635,0.25513 1.2478,0.38281 1.98633,0.38281 1.19059,0 2.30534,-0.20263 3.34375,-0.60547 l 0,-4.52539 -3.22851,0 -0.0469,0.94141 2.18164,0 0,2.96094 c -0.62215,0.19246 -1.30249,0.28711 -2.04102,0.28711 -0.6311,0 -1.18237,-0.098 -1.65234,-0.29493 -0.46997,-0.19694 -0.8483,-0.47729 -1.13476,-0.83984 -0.28198,-0.36703 -0.49211,-0.79338 -0.63086,-1.28125 -0.13876,-0.49235 -0.20704,-1.04834 -0.20704,-1.66602 1e-5,-0.7788 0.1399,-1.47606 0.42188,-2.09374 0.28199,-0.61768 0.70085,-1.10815 1.25586,-1.47071 0.55501,-0.36702 1.20565,-0.55078 1.95312,-0.55078 0.15218,0 0.29875,0.005 0.4375,0.0137 0.14324,0.009 0.27841,0.0245 0.40821,0.0469 0.1298,0.0223 0.24527,0.0426 0.34375,0.0605 0.0985,0.0179 0.20116,0.0476 0.30859,0.0879 0.11189,0.0403 0.19905,0.0714 0.26172,0.0937 0.0671,0.0224 0.14957,0.0596 0.24805,0.11329 0.10294,0.0492 0.16984,0.0836 0.20117,0.10156 0.0358,0.0179 0.1027,0.0537 0.20117,0.10742 0.0985,0.0537 0.15457,0.0848 0.16797,0.0937 l 0.28906,-0.88672 c -0.72957,-0.50578 -1.69165,-0.75781 -2.88672,-0.75781 z m -184.691403,0.13477 -4.089844,9.80078 0.966797,0 4.117188,-9.80078 -0.994141,0 z m 190.464843,0 c -0.21485,0 -0.39054,0.0669 -0.5293,0.20117 -0.13427,0.1298 -0.20312,0.2994 -0.20312,0.50976 0,0.21037 0.0688,0.3833 0.20312,0.51758 0.13876,0.13427 0.31445,0.20117 0.5293,0.20117 0.21037,0 0.38468,-0.0669 0.52344,-0.20117 0.13875,-0.13428 0.20898,-0.30721 0.20898,-0.51758 0,-0.21036 -0.0702,-0.37996 -0.20898,-0.50976 -0.13428,-0.13428 -0.3086,-0.20117 -0.52344,-0.20117 z m 2.77344,0 0,9.80078 3.65234,0 c 1.13241,0 1.98568,-0.2426 2.5586,-0.73047 0.57739,-0.49236 0.86523,-1.17131 0.86523,-2.03516 0,-0.62215 -0.1696,-1.13427 -0.50977,-1.53711 -0.33569,-0.4073 -0.81534,-0.69986 -1.4375,-0.8789 0.56844,-0.21932 0.96843,-0.50912 1.20118,-0.86719 0.23722,-0.36255 0.35742,-0.8125 0.35742,-1.34961 0,-0.81909 -0.2959,-1.42309 -0.88672,-1.8125 -0.58635,-0.39388 -1.49569,-0.58984 -2.72656,-0.58984 l -3.07422,0 z m 1.18164,0.88476 1.88672,0 c 0.88175,0 1.51684,0.11824 1.90625,0.35547 0.3894,0.23722 0.58398,0.67163 0.58398,1.30273 0,0.62663 -0.17903,1.06576 -0.53711,1.31641 -0.35807,0.24618 -0.88102,0.36914 -1.57031,0.36914 l -2.26953,0 0,-3.34375 z m -189.666017,1.66602 c -0.743001,0 -1.320638,0.17903 -1.732422,0.53711 -0.411784,0.3536 -0.617187,0.81909 -0.617187,1.39648 0,0.4655 0.118245,0.84522 0.355468,1.14063 0.237224,0.29093 0.674398,0.5402 1.314454,0.74609 l 0.779296,0.24805 c 0.51473,0.16561 0.871419,0.34131 1.06836,0.52929 0.19694,0.18799 0.294922,0.42171 0.294922,0.69922 0,0.40283 -0.118246,0.71094 -0.355469,0.92578 -0.237223,0.21037 -0.570313,0.31641 -1,0.31641 -0.684815,0 -1.452311,-0.20402 -2.302734,-0.61133 l 0,0.93359 c 0.734049,0.34912 1.473225,0.52344 2.220703,0.52344 0.335693,0 0.645751,-0.0405 0.927734,-0.12109 0.286458,-0.0806 0.541829,-0.2002 0.765625,-0.36133 0.228271,-0.16113 0.407308,-0.37597 0.537109,-0.64453 0.129802,-0.27303 0.19336,-0.58781 0.19336,-0.94141 0,-0.28645 -0.02636,-0.52767 -0.08008,-0.72461 -0.05371,-0.20142 -0.151693,-0.38989 -0.294922,-0.56445 -0.143229,-0.17456 -0.342529,-0.32528 -0.597656,-0.45508 -0.250651,-0.13428 -0.576254,-0.2653 -0.97461,-0.39062 l -0.703125,-0.22071 c -0.461019,-0.1477 -0.764974,-0.28621 -0.908203,-0.41601 -0.143229,-0.12981 -0.214844,-0.34188 -0.214844,-0.63281 0,-0.34465 0.110759,-0.60613 0.330078,-0.78516 0.223796,-0.18351 0.592693,-0.27539 1.107422,-0.27539 0.577393,0 1.175293,0.15739 1.792969,0.4707 l 0.261719,-0.82617 c -0.671387,-0.33122 -1.393636,-0.49609 -2.167969,-0.49609 z m 16.783203,0 c -0.948893,0 -1.803548,0.17569 -2.564453,0.52929 l 0.302735,0.82032 c 0.326742,-0.15666 0.698975,-0.27825 1.115234,-0.36329 0.41626,-0.0895 0.80542,-0.13476 1.167969,-0.13476 0.537109,0 0.927652,0.12768 1.173828,0.38281 0.250651,0.25513 0.376953,0.6429 0.376953,1.16211 l 0,0.69727 -1.134766,0 c -1.141357,0 -1.974365,0.18236 -2.498047,0.54492 -0.519205,0.35807 -0.779297,0.92155 -0.779297,1.6914 0,0.64454 0.197917,1.14918 0.591797,1.51172 0.398356,0.36255 0.924642,0.54297 1.578125,0.54297 0.975749,0 1.768229,-0.37362 2.376954,-1.12109 l 0.11914,0.98047 0.847656,0 0,-4.6875 c 0,-0.90414 -0.233724,-1.55477 -0.699218,-1.95313 -0.46102,-0.40283 -1.119711,-0.60351 -1.97461,-0.60351 z m 7.822266,0 c -1.024984,0 -1.798584,0.46215 -2.322266,1.38867 l -0.115234,-1.24219 -0.925781,0 0,10.21875 1.115234,0 0,-2.67187 -0.04883,-1.64454 c 0.528158,0.89071 1.288168,1.33594 2.277344,1.33594 0.93099,0 1.654622,-0.33642 2.173828,-1.00781 0.519206,-0.67139 0.779297,-1.55713 0.779297,-2.6582 0,-1.14584 -0.250651,-2.05185 -0.751954,-2.71875 -0.496825,-0.66692 -1.223795,-1 -2.18164,-1 z m -21.330078,0.14648 1.99414,7.10352 1.060547,0 1.867188,-6.12305 1.972656,6.12305 0.988281,0 1.91211,-7.10352 -1.019532,0 -1.416015,5.7207 -1.853516,-5.7207 -1.189453,0 -1.744141,5.74024 -1.517578,-5.74024 -1.054687,0 z m 181.878906,0 0,7.10352 1.10156,0 0,-7.10352 -1.10156,0 z m -160.675781,0.70508 c 1.28011,0 1.919922,0.95125 1.919922,2.85351 0,1.88436 -0.663412,2.82618 -1.988282,2.82618 -0.671386,0 -1.189616,-0.25676 -1.55664,-0.77149 -0.36255,-0.51473 -0.544922,-1.23698 -0.544922,-2.16797 0.0045,-0.85937 0.183512,-1.53027 0.537109,-2.01367 0.353597,-0.4834 0.898763,-0.72656 1.632813,-0.72656 z m 165.187501,1.66601 1.91992,0 c 0.9668,0 1.67351,0.14795 2.12109,0.44336 0.4476,0.29541 0.67188,0.79338 0.67188,1.4961 0,0.66243 -0.19458,1.14347 -0.58398,1.44336 -0.38493,0.29988 -0.99976,0.45117 -1.84571,0.45117 l -2.2832,0 0,-3.83399 z m -172.164064,1.31641 0.853516,0 0,1.56445 c -0.532634,0.78329 -1.25822,1.17383 -2.175781,1.17383 -0.335694,0 -0.616048,-0.10742 -0.839844,-0.32226 -0.223795,-0.21484 -0.335938,-0.51823 -0.335938,-0.91211 0,-0.21932 0.02027,-0.40308 0.06055,-0.55078 0.04028,-0.15218 0.115235,-0.29069 0.222656,-0.41602 0.107423,-0.1298 0.255371,-0.23111 0.44336,-0.30273 0.187988,-0.0761 0.425863,-0.13552 0.716797,-0.17579 0.290934,-0.0403 0.642904,-0.0586 1.054687,-0.0586 z"
     id="path5288" />
  <rect
     style="color:#f2f2f2;opacity:0.3;fill:currentColor;fill-opacity:1;stroke:none"
     id="rect6597"
     width="6"
     height="206"
     x="-90.000023"
     y="25"
     ry="3"
     transform="matrix(0,-1,1,0,0,0)"
     class="ColorScheme-Text" />
  <rect
     ry="3"
     y="25"
     x="-90.000023"
     height="133.07344"
     width="6"
     id="rect6599"
     style="color:#3daee9;fill:currentColor;fill-opacity:1;stroke:none"
     transform="matrix(0,-1,1,0,0,0)"
     class="ColorScheme-Highlight" />
  <rect
     style="color:#f2f2f2;opacity:0.3;fill:currentColor;fill-opacity:1;stroke:none"
     id="rect6597-7"
     width="6"
     height="206"
     x="-153.00002"
     y="25"
     ry="3"
     transform="matrix(0,-1,1,0,0,0)"
     class="ColorScheme-Text" />
  <rect
     ry="3"
     y="25"
     x="-153.00002"
     height="185"
     width="6"
     id="rect6599-9"
     style="color:#3daee9;fill:currentColor;fill-opacity:1;stroke:none"
     transform="matrix(0,-1,1,0,0,0)"
     class="ColorScheme-Highlight" />
  <rect
     style="color:#f2f2f2;opacity:0.3;fill:currentColor;fill-opacity:1;stroke:none"
     id="rect6597-7-1"
     width="6"
     height="206"
     x="-214.00002"
     y="25"
     ry="3"
     transform="matrix(0,-1,1,0,0,0)"
     class="ColorScheme-Text" />
  <rect
     ry="3"
     y="25"
     x="-214.00002"
     height="25"
     width="6"
     id="rect6599-9-5"
     style="color:#3daee9;fill:currentColor;fill-opacity:1;stroke:none"
     transform="matrix(0,-1,1,0,0,0)"
     class="ColorScheme-Highlight" />
</svg>
