<?xml version="1.0" encoding="UTF-8" standalone="no"?>
<svg
   xmlns:dc="http://purl.org/dc/elements/1.1/"
   xmlns:cc="http://creativecommons.org/ns#"
   xmlns:rdf="http://www.w3.org/1999/02/22-rdf-syntax-ns#"
   xmlns:svg="http://www.w3.org/2000/svg"
   xmlns="http://www.w3.org/2000/svg"
   xmlns:xlink="http://www.w3.org/1999/xlink"
   xmlns:sodipodi="http://sodipodi.sourceforge.net/DTD/sodipodi-0.dtd"
   xmlns:inkscape="http://www.inkscape.org/namespaces/inkscape"
   viewBox="0 0 256 256"
   id="svg2"
   version="1.1"
   inkscape:version="0.91 r13725"
   sodipodi:docname="org.kde.plasma.systemmonitor.net.svg">
  <metadata
     id="metadata9">
    <rdf:RDF>
      <cc:Work
         rdf:about="">
        <dc:format>image/svg+xml</dc:format>
        <dc:type
           rdf:resource="http://purl.org/dc/dcmitype/StillImage" />
      </cc:Work>
    </rdf:RDF>
  </metadata>
  <sodipodi:namedview
     pagecolor="#ffffff"
     bordercolor="#666666"
     borderopacity="1"
     objecttolerance="10"
     gridtolerance="10"
     guidetolerance="10"
     inkscape:pageopacity="0"
     inkscape:pageshadow="2"
     inkscape:window-width="1920"
     inkscape:window-height="1050"
     id="namedview8"
     showgrid="false"
     inkscape:zoom="1.84375"
     inkscape:cx="53.336578"
     inkscape:cy="109.91398"
     inkscape:window-x="0"
     inkscape:window-y="30"
     inkscape:window-maximized="1"
     inkscape:current-layer="svg2" />
  <defs
     id="defs4">
    <style
       id="current-color-scheme"
       type="text/css">
      .ColorScheme-Text {
        color:#f2f2f2;
      }
      .ColorScheme-Background {
        color:#31363b;
      }
      .ColorScheme-Highlight {
        color:#3daee9;
      }
      .ColorScheme-ViewText {
        color:#31363b;
      }
      .ColorScheme-ViewBackground {
        color:#314045;
      }
      .ColorScheme-ViewHover {
        color:#93cee9;
      }
      .ColorScheme-ViewFocus{
        color:#3daee9;
      }
      .ColorScheme-ButtonText {
        color:#31363b;
      }
      .ColorScheme-ButtonBackground {
        color:#31363b;
      }
      .ColorScheme-ButtonHover {
        color:#93cee9;
      }
      .ColorScheme-ButtonFocus{
        color:#3daee9;
      }
      </style>
    <linearGradient
       gradientTransform="translate(75.571402,509.21939)"
       inkscape:collect="always"
       xlink:href="#linearGradient4251-0"
       id="linearGradient4232"
       x1="30"
       y1="54"
       x2="30"
       y2="12"
       gradientUnits="userSpaceOnUse" />
    <linearGradient
       inkscape:collect="always"
       id="linearGradient4251-0">
      <stop
         style="stop-color:#63984b;stop-opacity:1"
         offset="0"
         id="stop4253-4" />
      <stop
         style="stop-color:#8fc278;stop-opacity:1"
         offset="1"
         id="stop4255-2" />
    </linearGradient>
    <linearGradient
       inkscape:collect="always"
       xlink:href="#linearGradient4227"
       id="linearGradient4940"
       gradientUnits="userSpaceOnUse"
       gradientTransform="translate(75.571402,527.21939)"
       x1="-6"
       y1="6"
       x2="24"
       y2="36" />
    <linearGradient
       id="linearGradient4227"
       inkscape:collect="always">
      <stop
         id="stop4229"
         offset="0"
         style="stop-color:#292c2f;stop-opacity:1" />
      <stop
         id="stop4231"
         offset="1"
         style="stop-color:#000000;stop-opacity:0;" />
    </linearGradient>
    <linearGradient
       inkscape:collect="always"
       xlink:href="#linearGradient4227"
       id="linearGradient4936"
       gradientUnits="userSpaceOnUse"
       gradientTransform="translate(75.571402,521.21939)"
       x1="-6"
       y1="6"
       x2="24"
       y2="36" />
    <linearGradient
       inkscape:collect="always"
       xlink:href="#linearGradient4227"
       id="linearGradient4932"
       gradientUnits="userSpaceOnUse"
       x1="-6"
       y1="6"
       x2="24"
       y2="36"
       gradientTransform="translate(75.571402,515.21939)" />
    <linearGradient
       gradientTransform="translate(75.571402,509.21939)"
       inkscape:collect="always"
       xlink:href="#linearGradient4227"
       id="linearGradient4864"
       x1="20"
       y1="20"
       x2="48"
       y2="48"
       gradientUnits="userSpaceOnUse" />
    <linearGradient
       inkscape:collect="always"
       xlink:href="#linearGradient4159"
       id="linearGradient4384"
       x1="-43"
       y1="1043.3622"
       x2="-43"
       y2="1012.3622"
       gradientUnits="userSpaceOnUse"
       gradientTransform="matrix(0.625,0,0,0.54839315,136.17143,-15.953279)" />
    <linearGradient
       inkscape:collect="always"
       id="linearGradient4159">
      <stop
         style="stop-color:#2a2c2f;stop-opacity:1"
         offset="0"
         id="stop4161" />
      <stop
         style="stop-color:#424649;stop-opacity:1"
         offset="1"
         id="stop4163" />
    </linearGradient>
    <linearGradient
       inkscape:collect="always"
       xlink:href="#linearGradient4300"
       id="linearGradient4818"
       gradientUnits="userSpaceOnUse"
       gradientTransform="translate(-677.57224,-474.37655)"
       x1="386.57144"
       y1="523.79797"
       x2="386.57144"
       y2="516.79797" />
    <linearGradient
       id="linearGradient4300"
       inkscape:collect="always">
      <stop
         id="stop4302"
         offset="0"
         style="stop-color:#22a7f0;stop-opacity:1" />
      <stop
         id="stop4304"
         offset="1"
         style="stop-color:#19b5fe;stop-opacity:1" />
    </linearGradient>
    <linearGradient
       inkscape:collect="always"
       xlink:href="#linearGradient4300"
       id="linearGradient4824"
       gradientUnits="userSpaceOnUse"
       gradientTransform="translate(-677.57224,-468.37655)"
       x1="386.57144"
       y1="523.79797"
       x2="386.57144"
       y2="516.79797" />
    <linearGradient
       inkscape:collect="always"
       xlink:href="#linearGradient4300"
       id="linearGradient4830"
       gradientUnits="userSpaceOnUse"
       gradientTransform="translate(-677.57224,-462.37655)"
       x1="386.57144"
       y1="523.79797"
       x2="386.57144"
       y2="516.79797" />
  </defs>
  <path
     style="fill:currentColor;fill-opacity:0.5;stroke:none"
     d="m 16,10 224,0 c 3.324,0 6,2.676 6,6 l 0,224 c 0,3.324 -2.676,6 -6,6 l -224,0 c -3.324,0 -6,-2.676 -6,-6 L 10,16 c 0,-3.324 2.676,-6 6,-6 z"
     class="ColorScheme-ButtonText"
     id="rect4240" />
  <path
     style="fill:currentColor;fill-opacity:1;stroke:none"
     d="m 16,12 224,0 c 2.216,0 4,1.784 4,4 l 0,224 c 0,2.216 -1.784,4 -4,4 l -224,0 c -2.216,0 -4,-1.784 -4,-4 L 12,16 c 0,-2.216 1.784,-4 4,-4 z"
     class="ColorScheme-Background"
     id="rect4238" />
  <path
     inkscape:connector-curvature="0"
     style="opacity:1;fill:currentColor;fill-opacity:1;stroke:none"
     class="ColorScheme-Text"
     d="m 77.035156,28.431573 -1.302734,0.0957 0,11.583984 1.302734,0 0,-3.070312 0.904297,-0.857422 3.332031,3.927734 1.546875,0 -3.966797,-4.5625 3.666016,-3.832031 -1.595703,0 -3.935547,4.261719 0.04883,-1.730469 0,-5.816406 z m -54.685547,0.0957 0,11.583984 1.292969,0 0,-6.197266 -0.111328,-3.601562 6.585938,9.798828 1.435546,0 0,-11.583984 -1.285156,0 0,6.601562 0.07227,3.261719 -6.609375,-9.863281 -1.38086,0 z m 65.705079,0 -0.228516,11.583984 1.316406,0 0.111328,-7.148437 0,-2.738282 3.650391,8.59375 1.197265,0 3.673829,-8.498047 0,2.611329 0.111328,7.179687 1.300781,0 -0.230469,-11.583984 -1.666015,0 -3.769532,8.798828 -3.751953,-8.798828 -1.714843,0 z m 32.548832,0 c -0.25391,0 -0.46298,0.07959 -0.62696,0.238281 -0.15869,0.153402 -0.23828,0.354899 -0.23828,0.603516 0,0.248616 0.0796,0.450683 0.23828,0.609375 0.16398,0.158691 0.37305,0.238281 0.62696,0.238281 0.24861,0 0.45516,-0.07959 0.61914,-0.238281 0.16398,-0.158692 0.24609,-0.360759 0.24609,-0.609375 0,-0.248617 -0.0821,-0.450114 -0.24609,-0.603516 -0.1587,-0.158691 -0.36524,-0.238281 -0.61914,-0.238281 z m -76.402348,0.888672 -1.054688,0.08008 -0.214843,2.220703 -1.292969,0.08789 -0.0332,0.746093 1.294922,0 0,5.044922 c 0,0.513102 0.04484,0.928711 0.134765,1.246094 0.08993,0.317383 0.251628,0.578857 0.484375,0.785156 0.238037,0.206299 0.544352,0.350342 0.919922,0.429688 0.37557,0.07935 0.866292,0.11914 1.474609,0.11914 l 0.548829,0 0.0625,-0.904297 -0.666016,-0.0332 c -0.703532,-0.02645 -1.156413,-0.136312 -1.357422,-0.332031 -0.201009,-0.201009 -0.300781,-0.638753 -0.300781,-1.310547 l 0,-5.044922 2.220703,0 0,-0.833984 -2.220703,0 0,-2.300781 z m 81.249998,0 -1.05469,0.08008 -0.21484,2.220703 -1.29297,0.08789 -0.0332,0.746093 1.29492,0 0,5.044922 c 0,0.513102 0.0448,0.928711 0.13477,1.246094 0.0899,0.317383 0.25162,0.578857 0.48437,0.785156 0.23804,0.206299 0.54435,0.350342 0.91992,0.429688 0.37557,0.07935 0.8663,0.11914 1.47461,0.11914 l 0.54883,0 0.0625,-0.904297 -0.66601,-0.0332 c -0.70355,-0.02645 -1.15642,-0.136312 -1.35743,-0.332031 -0.20101,-0.201009 -0.30078,-0.638753 -0.30078,-1.310547 l 0,-5.044922 2.22071,0 0,-0.833984 -2.22071,0 0,-2.300781 z m -88.105467,2.126953 c -1.11084,0 -2.026693,0.398519 -2.746094,1.197265 -0.719401,0.798747 -1.078125,1.869304 -1.078125,3.212891 0,1.327718 0.366293,2.380615 1.101563,3.158203 0.73527,0.772298 1.693441,1.158203 2.873047,1.158203 1.057942,0 2.001546,-0.244385 2.832031,-0.736328 l -0.277344,-0.929687 c -0.444336,0.222168 -0.845377,0.388916 -1.205078,0.5 -0.3597,0.111084 -0.760172,0.167968 -1.199219,0.167968 -0.809326,0 -1.464275,-0.258382 -1.966796,-0.771484 -0.502523,-0.518392 -0.776042,-1.310384 -0.81836,-2.378906 l 5.673828,0 0.04687,-0.667969 c 0,-1.227214 -0.276611,-2.183431 -0.832031,-2.871094 -0.55013,-0.692952 -1.351644,-1.039062 -2.404297,-1.039062 z m 26.849609,0 c -1.232503,0 -2.198811,0.401041 -2.902343,1.205078 -0.698242,0.798747 -1.048828,1.856689 -1.048828,3.173828 0,1.2854 0.355631,2.333252 1.064453,3.142578 0.708821,0.804037 1.670085,1.205078 2.886718,1.205078 1.190186,0 2.148357,-0.403564 2.873047,-1.21289 0.724691,-0.814616 1.087891,-1.859945 1.087891,-3.134766 0,-1.317139 -0.350586,-2.375081 -1.048828,-3.173828 -0.698242,-0.804037 -1.669027,-1.205078 -2.91211,-1.205078 z m 40.847658,0 c -1.2325,0 -2.20077,0.401041 -2.9043,1.205078 -0.69824,0.798747 -1.04687,1.856689 -1.04687,3.173828 0,1.2854 0.35368,2.333252 1.0625,3.142578 0.70882,0.804037 1.67203,1.205078 2.88867,1.205078 1.19018,0 2.14835,-0.403564 2.87305,-1.21289 0.72469,-0.814616 1.08593,-1.859945 1.08593,-3.134766 0,-1.317139 -0.34863,-2.375081 -1.04687,-3.173828 -0.69824,-0.804037 -1.66903,-1.205078 -2.91211,-1.205078 z m 9.79883,0 c -1.26424,0 -2.21289,0.443359 -2.84766,1.332031 l -0.14258,-1.158203 -1.14258,0 0,8.394531 1.31641,0 0,-4.68164 c 0,-1.920167 0.86344,-2.878907 2.58789,-2.878907 0.64006,0 1.08595,0.191976 1.33984,0.578125 0.25392,0.38086 0.38086,0.950601 0.38086,1.707032 l 0,5.27539 1.31641,0 0,-5.132812 c 0,-1.153158 -0.22925,-2.01408 -0.68945,-2.580078 -0.45492,-0.57129 -1.1617,-0.855469 -2.11914,-0.855469 z m 18.09961,0 c -1.23251,0 -2.20077,0.401041 -2.9043,1.205078 -0.69824,0.798747 -1.04688,1.856689 -1.04688,3.173828 0,1.2854 0.35368,2.333252 1.0625,3.142578 0.70883,0.804037 1.67204,1.205078 2.88868,1.205078 1.19018,0 2.14835,-0.403564 2.87304,-1.21289 0.72469,-0.814616 1.08594,-1.859945 1.08594,-3.134766 0,-1.317139 -0.34863,-2.375081 -1.04687,-3.173828 -0.69825,-0.804037 -1.66903,-1.205078 -2.91211,-1.205078 z m -59.224613,0.08594 c -0.507813,0 -0.990967,0.144043 -1.451172,0.429688 -0.454915,0.280355 -0.84082,0.721191 -1.158203,1.324218 l -0.142578,-1.666015 -1.056641,0 0,8.394531 1.318359,0 0,-4.751953 c 0,-0.74585 0.231771,-1.378092 0.697266,-1.896484 0.470785,-0.518392 1.065755,-0.777344 1.785156,-0.777344 0.148112,0 0.329427,0.02018 0.541016,0.0625 l 0.05469,-1.078125 c -0.153402,-0.02645 -0.349854,-0.04102 -0.587891,-0.04102 z m 68.746093,0 c -0.50781,0 -0.99292,0.144043 -1.45312,0.429688 -0.45492,0.280355 -0.84082,0.721191 -1.15821,1.324218 l -0.14258,-1.666015 -1.05468,0 0,8.394531 1.3164,0 0,-4.751953 c 0,-0.74585 0.23373,-1.378092 0.69922,-1.896484 0.47079,-0.518392 1.06576,-0.777344 1.78516,-0.777344 0.14811,0 0.32747,0.02018 0.53906,0.0625 l 0.0566,-1.078125 c -0.1534,-0.02645 -0.34985,-0.04102 -0.58789,-0.04102 z m -94.880859,0.08789 2.355469,8.394531 1.253906,0 2.205078,-7.236328 2.333985,7.236328 1.166015,0 2.261719,-8.394531 -1.207031,0 -1.673828,6.759765 -2.189453,-6.759765 -1.404297,0 -2.064453,6.783203 -1.792969,-6.783203 -1.244141,0 z m 72.363279,0 0,8.394531 1.30078,0 0,-8.394531 -1.30078,0 z m -82.568357,0.833984 c 1.333008,0 2.032227,0.903809 2.095703,2.712891 l -4.570312,0 c 0.07406,-0.835775 0.333008,-1.497721 0.777344,-1.984375 0.449625,-0.486654 1.014892,-0.728516 1.697265,-0.728516 z m 26.818359,0 c 0.862224,0 1.514078,0.308838 1.953126,0.927735 0.439046,0.613606 0.658203,1.43278 0.658203,2.458984 0,0.655924 -0.08968,1.230713 -0.269532,1.722656 -0.17985,0.486654 -0.471027,0.877604 -0.873047,1.173828 -0.396727,0.290935 -0.886881,0.4375 -1.46875,0.4375 -0.846353,0 -1.49121,-0.308268 -1.935546,-0.921875 -0.444336,-0.613606 -0.666016,-1.420166 -0.666016,-2.419921 0,-1.020916 0.22168,-1.837566 0.666016,-2.451172 0.444336,-0.618897 1.089193,-0.927735 1.935546,-0.927735 z m 40.847658,0 c 0.86222,0 1.51408,0.308838 1.95312,0.927735 0.43905,0.613606 0.65821,1.43278 0.65821,2.458984 0,0.655924 -0.0897,1.230713 -0.26953,1.722656 -0.17985,0.486654 -0.47103,0.877604 -0.87305,1.173828 -0.39673,0.290935 -0.88688,0.4375 -1.46875,0.4375 -0.84636,0 -1.49121,-0.308268 -1.93555,-0.921875 -0.44433,-0.613606 -0.66601,-1.420166 -0.66601,-2.419921 0,-1.020916 0.22168,-1.837566 0.66601,-2.451172 0.44434,-0.618897 1.08919,-0.927735 1.93555,-0.927735 z m 27.89844,0 c 0.86222,0 1.51212,0.308838 1.95117,0.927735 0.43904,0.613606 0.6582,1.43278 0.6582,2.458984 0,0.655924 -0.0897,1.230713 -0.26953,1.722656 -0.17985,0.486654 -0.47103,0.877604 -0.87305,1.173828 -0.39673,0.290935 -0.88493,0.4375 -1.46679,0.4375 -0.84636,0 -1.49121,-0.308268 -1.93555,-0.921875 -0.44434,-0.613606 -0.66797,-1.420166 -0.66797,-2.419921 0,-1.020916 0.22363,-1.837566 0.66797,-2.451172 0.44434,-0.618897 1.08919,-0.927735 1.93555,-0.927735 z M 20,49.999932 l 0,1 216,0 0,-1 -216,0 z m 24.861328,13.650391 c -0.716146,0 -1.32487,0.211507 -1.826172,0.636718 -0.501302,0.420736 -0.874918,1.007813 -1.121094,1.759766 -0.241699,0.747477 -0.363281,1.636556 -0.363281,2.666016 0,0.743001 0.06551,1.418619 0.195313,2.027343 0.134277,0.604248 0.330241,1.136638 0.589844,1.597657 0.264077,0.456543 0.609944,0.811279 1.035156,1.066406 0.429687,0.250651 0.926269,0.376953 1.490234,0.376953 0.559489,0 1.049968,-0.126302 1.470703,-0.376953 0.425212,-0.255127 0.763021,-0.6132 1.013672,-1.074219 0.255127,-0.461019 0.444987,-0.993408 0.570313,-1.597656 0.125325,-0.604248 0.1875,-1.27653 0.1875,-2.019531 0,-0.774333 -0.0669,-1.468832 -0.201172,-2.082032 -0.134278,-0.617675 -0.333579,-1.14868 -0.597656,-1.591797 -0.259603,-0.447591 -0.597413,-0.79012 -1.013672,-1.027343 -0.411784,-0.241699 -0.888103,-0.361328 -1.429688,-0.361328 z m 103.644532,0 c -0.71615,0 -1.32487,0.211507 -1.82617,0.636718 -0.5013,0.420736 -0.87687,1.007813 -1.12305,1.759766 -0.2417,0.747477 -0.36133,1.636556 -0.36133,2.666016 0,0.743001 0.0655,1.418619 0.19531,2.027343 0.13428,0.604248 0.33025,1.136638 0.58985,1.597657 0.26408,0.456543 0.60799,0.811279 1.0332,1.066406 0.42969,0.250651 0.92822,0.376953 1.49219,0.376953 0.55949,0 1.04801,-0.126302 1.46875,-0.376953 0.42521,-0.255127 0.76302,-0.6132 1.01367,-1.074219 0.25513,-0.461019 0.44694,-0.993408 0.57227,-1.597656 0.12532,-0.604248 0.1875,-1.27653 0.1875,-2.019531 0,-0.774333 -0.0669,-1.468832 -0.20117,-2.082032 -0.13428,-0.617675 -0.33358,-1.14868 -0.59766,-1.591797 -0.2596,-0.447591 -0.59741,-0.79012 -1.01367,-1.027343 -0.41179,-0.241699 -0.88811,-0.361328 -1.42969,-0.361328 z m 52.36719,0 c -0.71615,0 -1.32488,0.211507 -1.82617,0.636718 -0.50131,0.420736 -0.87492,1.007813 -1.1211,1.759766 -0.2417,0.747477 -0.36328,1.636556 -0.36328,2.666016 0,0.743001 0.0655,1.418619 0.19531,2.027343 0.13428,0.604248 0.3322,1.136638 0.5918,1.597657 0.26408,0.456543 0.60799,0.811279 1.0332,1.066406 0.42969,0.250651 0.92627,0.376953 1.49024,0.376953 0.55949,0 1.04996,-0.126302 1.4707,-0.376953 0.42521,-0.255127 0.76302,-0.6132 1.01367,-1.074219 0.25513,-0.461019 0.44499,-0.993408 0.57031,-1.597656 0.12533,-0.604248 0.1875,-1.27653 0.1875,-2.019531 0,-0.774333 -0.0669,-1.468832 -0.20117,-2.082032 -0.13427,-0.617675 -0.33357,-1.14868 -0.59765,-1.591797 -0.25961,-0.447591 -0.59742,-0.79012 -1.01368,-1.027343 -0.41178,-0.241699 -0.8881,-0.361328 -1.42968,-0.361328 z m -165.673831,0.05273 -1.113281,0.08008 0,9.802735 1.107421,0 0,-3.886719 c 0,-0.264079 0.01693,-0.51001 0.05273,-0.738281 0.04028,-0.228273 0.110514,-0.453939 0.208984,-0.677735 0.09847,-0.223795 0.226156,-0.41561 0.382813,-0.572265 0.156657,-0.161133 0.360677,-0.288819 0.611328,-0.382813 0.255127,-0.09847 0.547689,-0.146484 0.878906,-0.146484 0.532633,0 0.91097,0.168213 1.134766,0.503906 0.228271,0.331217 0.341797,0.848063 0.341797,1.550781 l 0,4.34961 1.115234,0 0,-4.390626 c 0,-0.913084 -0.207357,-1.618408 -0.619141,-2.115234 -0.411784,-0.496826 -1.003011,-0.744141 -1.777343,-0.74414 -0.505778,0 -0.963786,0.09798 -1.371094,0.294921 -0.402832,0.192465 -0.732585,0.472819 -0.992188,0.839844 l 0.03906,-1.390625 0,-2.376953 z m 122.496091,0 -1.09961,0.08008 0,9.802735 1.09961,0 0,-2.597657 0.76563,-0.724609 2.82031,3.322266 1.30859,0 -3.35546,-3.859376 3.10156,-3.24414 -1.34961,0 -3.33008,3.605469 0.0391,-1.462891 0,-4.921875 z m 52.36914,0 -1.10156,0.08008 0,9.802735 1.10156,0 0,-2.597657 0.76563,-0.724609 2.82031,3.322266 1.30859,0 -3.35742,-3.859376 3.10156,-3.24414 -1.3496,0 -3.33008,3.605469 0.041,-1.462891 0,-4.921875 z m -46.32617,0.08008 0,9.802735 3.65234,0 c 1.13241,0 1.98568,-0.242595 2.5586,-0.730469 0.57739,-0.492351 0.86523,-1.171306 0.86523,-2.035157 0,-0.622151 -0.16959,-1.134277 -0.50976,-1.537109 -0.3357,-0.407308 -0.81535,-0.701823 -1.4375,-0.880859 0.56844,-0.21932 0.97038,-0.507162 1.20312,-0.865235 0.23723,-0.362548 0.35547,-0.8125 0.35547,-1.349609 0,-0.819092 -0.2959,-1.423096 -0.88672,-1.8125 -0.58634,-0.39388 -1.49373,-0.591797 -2.72461,-0.591797 l -3.07617,0 z m 12.62305,0 -4.08985,9.802735 0.9668,0 4.11524,-9.802735 -0.99219,0 z m 15.60156,0 -4.08789,9.802735 0.9668,0 4.11523,-9.802735 -0.99414,0 z m 24.14453,0 0,9.802735 3.65235,0 c 1.1324,0 1.98372,-0.242595 2.55664,-0.730469 0.57739,-0.492351 0.86718,-1.171306 0.86718,-2.035157 0,-0.622151 -0.16959,-1.134277 -0.50976,-1.537109 -0.3357,-0.407308 -0.81535,-0.701823 -1.4375,-0.880859 0.56844,-0.21932 0.96842,-0.507162 1.20117,-0.865235 0.23722,-0.362548 0.35547,-0.8125 0.35547,-1.349609 0,-0.819092 -0.29395,-1.423096 -0.88477,-1.8125 -0.58634,-0.39388 -1.49568,-0.591797 -2.72656,-0.591797 l -3.07422,0 z m 12.6211,0 -4.0879,9.802735 0.9668,0 4.11524,-9.802735 -0.99414,0 z m -198.054692,0.751953 -0.892578,0.06836 -0.181641,1.878906 -1.09375,0.07422 -0.02734,0.630859 1.095703,0 0,4.271484 c 0,0.434164 0.03719,0.78418 0.113281,1.052735 0.07609,0.268554 0.213216,0.491455 0.410156,0.666015 0.201416,0.174561 0.459554,0.294191 0.777344,0.361328 0.31779,0.06714 0.73527,0.101563 1.25,0.101563 l 0.462891,0 0.05273,-0.765625 -0.5625,-0.02734 c -0.595296,-0.02238 -0.978353,-0.115641 -1.148437,-0.28125 -0.170086,-0.170084 -0.25586,-0.538981 -0.25586,-1.107422 l 0,-4.271484 1.88086,0 0,-0.705078 -1.88086,0 0,-1.947266 z m 14.1875,0.02148 c 1.42334,0 2.134766,1.3715 2.134766,4.115234 0,1.383057 -0.18514,2.430908 -0.556641,3.142578 -0.367025,0.707194 -0.89331,1.060547 -1.578125,1.060547 -0.693766,0 -1.235596,-0.356689 -1.625,-1.068359 -0.384928,-0.716146 -0.578125,-1.759278 -0.578125,-3.128907 -0.0045,-1.311442 0.190103,-2.324869 0.583985,-3.041015 0.39388,-0.720622 0.934326,-1.080078 1.61914,-1.080078 z m 103.644532,0 c 1.42334,0 2.13477,1.3715 2.13476,4.115234 0,1.383057 -0.18709,2.430908 -0.55859,3.142578 -0.36702,0.707194 -0.89136,1.060547 -1.57617,1.060547 -0.69377,0 -1.2356,-0.356689 -1.625,-1.068359 -0.38493,-0.716146 -0.57813,-1.759278 -0.57813,-3.128907 -0.004,-1.311442 0.19011,-2.324869 0.58399,-3.041015 0.39388,-0.720622 0.93432,-1.080078 1.61914,-1.080078 z m 52.36719,0 c 1.42334,0 2.13476,1.3715 2.13476,4.115234 0,1.383057 -0.18514,2.430908 -0.55664,3.142578 -0.36702,0.707194 -0.89331,1.060547 -1.57812,1.060547 -0.69377,0 -1.2356,-0.356689 -1.625,-1.068359 -0.38493,-0.716146 -0.57618,-1.759278 -0.57617,-3.128907 -0.004,-1.311442 0.1901,-2.324869 0.58398,-3.041015 0.39388,-0.720622 0.93237,-1.080078 1.61719,-1.080078 z m -35.95313,0.113281 1.88672,0 c 0.88176,0 1.51685,0.118245 1.90625,0.355469 0.3894,0.237223 0.58398,0.67163 0.58399,1.302734 0,0.626628 -0.17904,1.065755 -0.53711,1.316406 -0.35808,0.246175 -0.88103,0.369141 -1.57032,0.369141 l -2.26953,0 0,-3.34375 z m 52.36914,0 1.88672,0 c 0.88176,0 1.51685,0.118245 1.90625,0.355469 0.38941,0.237223 0.58399,0.67163 0.58399,1.302734 0,0.626628 -0.17904,1.065755 -0.53711,1.316406 -0.35808,0.246175 -0.88103,0.369141 -1.57032,0.369141 l -2.26953,0 0,-3.34375 z M 24.873047,66.33587 c -0.939942,0 -1.713542,0.337809 -2.322266,1.013671 -0.608724,0.675863 -0.914062,1.581869 -0.914062,2.71875 0,1.123454 0.311442,2.013916 0.933593,2.671875 0.622152,0.653483 1.433513,0.980469 2.431641,0.980469 0.895182,0 1.693766,-0.20874 2.396485,-0.625 l -0.236329,-0.785156 c -0.375976,0.187988 -0.715169,0.329834 -1.019531,0.423828 -0.304362,0.09399 -0.642171,0.140625 -1.013672,0.140625 -0.684814,0 -1.240804,-0.21818 -1.666015,-0.652344 -0.425212,-0.438639 -0.655599,-1.109538 -0.691407,-2.013672 l 4.800782,0 0.04102,-0.564453 c 0,-1.038411 -0.235107,-1.847819 -0.705078,-2.429687 -0.465495,-0.586345 -1.14445,-0.878906 -2.035156,-0.878906 z m 156.240233,0 c -0.743,0 -1.31868,0.179036 -1.73047,0.537109 -0.41178,0.353597 -0.61914,0.819092 -0.61914,1.396484 0,0.465495 0.1202,0.845215 0.35742,1.140625 0.23723,0.290934 0.6744,0.540202 1.31446,0.746094 l 0.77929,0.248047 c 0.51473,0.165609 0.87142,0.341308 1.06836,0.529297 0.19694,0.187988 0.29493,0.421712 0.29492,0.699218 10e-6,0.402834 -0.11824,0.710938 -0.35546,0.925782 -0.23723,0.210368 -0.57227,0.316406 -1.00196,0.316406 -0.68481,0 -1.45231,-0.20402 -2.30273,-0.611328 l 0,0.933594 c 0.73405,0.349121 1.47519,0.523437 2.22265,0.523437 0.3357,0 0.64576,-0.04053 0.92774,-0.121094 0.28646,-0.08057 0.53988,-0.202148 0.76367,-0.363281 0.22827,-0.161133 0.40731,-0.375976 0.53711,-0.644531 0.1298,-0.273031 0.19531,-0.585856 0.19531,-0.939453 0,-0.286459 -0.0264,-0.52767 -0.0801,-0.72461 -0.0537,-0.201416 -0.1517,-0.389892 -0.29493,-0.564453 -0.14323,-0.17456 -0.34253,-0.32723 -0.59765,-0.457031 -0.25065,-0.134277 -0.57626,-0.263346 -0.97461,-0.388672 l -0.70508,-0.220703 c -0.46102,-0.147705 -0.76302,-0.286214 -0.90625,-0.416016 -0.14323,-0.129801 -0.21484,-0.341878 -0.21484,-0.632812 0,-0.344645 0.11075,-0.60612 0.33007,-0.785156 0.2238,-0.183513 0.5927,-0.275391 1.10743,-0.275391 0.57739,0 1.17529,0.157389 1.79296,0.470703 l 0.26172,-0.826172 c -0.67138,-0.331217 -1.39559,-0.496093 -2.16992,-0.496093 z m 52.36914,0 c -0.743,0 -1.32064,0.179036 -1.73242,0.537109 -0.41178,0.353597 -0.61719,0.819092 -0.61719,1.396484 0,0.465495 0.11825,0.845215 0.35547,1.140625 0.23722,0.290934 0.67635,0.540202 1.31641,0.746094 l 0.77929,0.248047 c 0.51473,0.165609 0.86947,0.341308 1.06641,0.529297 0.19694,0.187988 0.29492,0.421712 0.29492,0.699218 0,0.402834 -0.11824,0.710938 -0.35547,0.925782 -0.23722,0.210368 -0.57031,0.316406 -1,0.316406 -0.68481,0 -1.45231,-0.20402 -2.30273,-0.611328 l 0,0.933594 c 0.73405,0.349121 1.47518,0.523437 2.22266,0.523437 0.33569,0 0.64379,-0.04053 0.92578,-0.121094 0.28646,-0.08057 0.54183,-0.202148 0.76562,-0.363281 0.22827,-0.161133 0.40731,-0.375976 0.53711,-0.644531 0.1298,-0.273031 0.19531,-0.585856 0.19531,-0.939453 0,-0.286459 -0.0283,-0.52767 -0.082,-0.72461 -0.0537,-0.201416 -0.15169,-0.389892 -0.29492,-0.564453 -0.14323,-0.17456 -0.34253,-0.32723 -0.59766,-0.457031 -0.25065,-0.134277 -0.5743,-0.263346 -0.97265,-0.388672 l -0.70508,-0.220703 c -0.46102,-0.147705 -0.76302,-0.286214 -0.90625,-0.416016 -0.14323,-0.129801 -0.21484,-0.341878 -0.21484,-0.632812 0,-0.344645 0.1088,-0.60612 0.32812,-0.785156 0.2238,-0.183513 0.59269,-0.275391 1.10742,-0.275391 0.5774,0 1.1753,0.157389 1.79297,0.470703 l 0.26172,-0.826172 c -0.67139,-0.331217 -1.39364,-0.496093 -2.16797,-0.496093 z M 24.900391,67.187432 c 1.127929,0 1.719726,0.766113 1.773437,2.296875 l -3.867187,0 c 0.06266,-0.707194 0.280273,-1.265951 0.65625,-1.677734 0.380452,-0.411784 0.860107,-0.619141 1.4375,-0.619141 z m 140.019529,1.666016 1.91992,0 c 0.9668,0 1.67546,0.147949 2.12305,0.443359 0.44759,0.29541 0.66992,0.793376 0.66992,1.496094 0,0.662435 -0.19458,1.143473 -0.58398,1.443359 -0.38493,0.299886 -0.99976,0.451172 -1.84571,0.451172 l -2.2832,0 0,-3.833984 z m 52.36914,0 1.91992,0 c 0.9668,0 1.67351,0.147949 2.1211,0.443359 0.44759,0.29541 0.67187,0.793376 0.67187,1.496094 0,0.662435 -0.19458,1.143473 -0.58398,1.443359 -0.38493,0.299886 -1.00171,0.451172 -1.84766,0.451172 l -2.28125,0 0,-3.833984 z M 20,225.99993 l 0,1 216,0 0,-1 -216,0 z"
     id="rect7886" />
  <path
     style="fill:#3b85b5;fill-opacity:1;fill-rule:evenodd;stroke:none;stroke-width:1px;stroke-linecap:butt;stroke-linejoin:miter;stroke-opacity:1"
     d="M 20,226 20,94.6 C 45.420545,119.79731 70.000003,206 94.999997,206 115,206 125,153 140,153 c 15,0 10,-73 35,-73 25,0 36,146 61,146 l 0,0 z"
     id="path5466-9"
     inkscape:connector-curvature="0"
     sodipodi:nodetypes="ccczzccc" />
  <path
     style="opacity:0.8;fill:#3bb566;fill-opacity:1;fill-rule:evenodd;stroke:none;stroke-width:1px;stroke-linecap:butt;stroke-linejoin:miter;stroke-opacity:1"
     d="m 20,226 0,0 c 0,0 47.428571,-3.9285 67.362167,-3.95858 34.513093,-1.74922 30.172323,-84.70541 44.780693,-84.96999 19.92916,-0.0326 17.59937,66.3104 60.20967,82.85856 6.59724,2.71345 14.71918,0.94491 25.50461,2.85572 L 236,226.00002 l 0,0 z"
     id="path5466-4"
     inkscape:connector-curvature="0"
     sodipodi:nodetypes="cccccsccc" />
  <g
     id="g5260"
     transform="matrix(0.76190412,0,0,0.76190412,-37.387685,-209.43979)">
    <path
       sodipodi:nodetypes="ccccccccccccccc"
       inkscape:connector-curvature="0"
       id="rect4200"
       d="m 81.571402,521.21939 0,42 4,0 0,-4 12,0 0,4 29.999998,0 0,-4 6,0 0,-26 -18,0 -29.999998,0 0,-10 0,-2 z"
       style="fill:url(#linearGradient4232);fill-opacity:1;stroke:none" />
    <path
       id="path4938"
       d="m 90.571402,549.21939 -5,4 6,6 6,0 0,4 6.999998,0 -13.999998,-14 z"
       style="opacity:0.2;fill:url(#linearGradient4940);fill-opacity:1;fill-rule:evenodd;stroke:none;stroke-width:1px;stroke-linecap:butt;stroke-linejoin:miter;stroke-opacity:1"
       inkscape:connector-curvature="0" />
    <path
       id="path4934"
       d="m 90.571402,543.21939 -5,4 12,12 3.999998,4 9,0 -19.999998,-20 z"
       style="opacity:0.2;fill:url(#linearGradient4936);fill-opacity:1;fill-rule:evenodd;stroke:none;stroke-width:1px;stroke-linecap:butt;stroke-linejoin:miter;stroke-opacity:1"
       inkscape:connector-curvature="0" />
    <path
       id="path4930"
       d="m 90.571402,537.21939 -5,4 21.999998,22 9,0 -25.999998,-26 z"
       style="opacity:0.2;fill:url(#linearGradient4932);fill-opacity:1;fill-rule:evenodd;stroke:none;stroke-width:1px;stroke-linecap:butt;stroke-linejoin:miter;stroke-opacity:1"
       inkscape:connector-curvature="0" />
    <path
       sodipodi:nodetypes="cccccccc"
       inkscape:connector-curvature="0"
       id="path4842"
       d="m 123.5714,539.21939 -20,17 6,7 18,0 0,-4 6,0 0,-10 z"
       style="opacity:0.2;fill:url(#linearGradient4864);fill-opacity:1;fill-rule:evenodd;stroke:none;stroke-width:1px;stroke-linecap:butt;stroke-linejoin:miter;stroke-opacity:1" />
    <rect
       y="562.21942"
       x="97.571404"
       height="0.99999636"
       width="29.999998"
       id="rect4234"
       style="fill:#dce269;fill-opacity:1;stroke:none" />
    <path
       id="path4303"
       d="m 105.5714,557.21939 0,1 1,0 0,-1 -1,0 z m 1,1 0,1 1,0 0,-1 -1,0 z m 1,0 1,0 0,-1 -1,0 0,1 z m 1,0 0,1 1,0 0,-1 -1,0 z m 1,0 1,0 0,-1 -1,0 0,1 z m 1,0 0,1 1,0 0,-1 -1,0 z m 1,0 1,0 0,-1 -1,0 0,1 z m 1,0 0,1 1,0 0,-1 -1,0 z m 1,0 1,0 0,-1 -1,0 0,1 z m 1,0 0,1 1,0 0,-1 -1,0 z m 1,0 1,0 0,-1 -1,0 0,1 z m 1,0 0,1 1,0 0,-1 -1,0 z m 1,0 1,0 0,-1 -1,0 0,1 z m 1,0 0,1 1,0 0,-1 -1,0 z m 1,0 1,0 0,-1 -1,0 0,1 z m 1,0 0,1 1,0 0,-1 -1,0 z"
       style="color:#000000;font-style:normal;font-variant:normal;font-weight:normal;font-stretch:normal;font-size:medium;line-height:normal;font-family:Sans;-inkscape-font-specification:Sans;text-indent:0;text-align:start;text-decoration:none;text-decoration-line:none;letter-spacing:normal;word-spacing:normal;text-transform:none;direction:ltr;block-progression:tb;writing-mode:lr-tb;baseline-shift:baseline;text-anchor:start;display:inline;overflow:visible;visibility:visible;opacity:0.6;fill:#dee372;fill-opacity:1;stroke:none;stroke-width:1;marker:none;enable-background:accumulate"
       inkscape:connector-curvature="0" />
    <path
       id="path4313"
       d="m 89.571402,556.21939 0,1 1,0 0,-1 -1,0 z m 1,1 0,1 1,0 0,-1 -1,0 z m 1,0 1,0 0,-1 -1,0 0,1 z m 1,0 0,1 1,0 0,-1 -1,0 z m 1,0 1,0 0,-1 -1,0 0,1 z m -4,0 -1,0 0,1 1,0 0,-1 z"
       style="color:#000000;font-style:normal;font-variant:normal;font-weight:normal;font-stretch:normal;font-size:medium;line-height:normal;font-family:Sans;-inkscape-font-specification:Sans;text-indent:0;text-align:start;text-decoration:none;text-decoration-line:none;letter-spacing:normal;word-spacing:normal;text-transform:none;direction:ltr;block-progression:tb;writing-mode:lr-tb;baseline-shift:baseline;text-anchor:start;display:inline;overflow:visible;visibility:visible;opacity:0.6;fill:#dee372;fill-opacity:1;stroke:none;stroke-width:1;marker:none;enable-background:accumulate"
       inkscape:connector-curvature="0" />
    <rect
       y="539.21942"
       x="103.67138"
       height="17.000187"
       width="20"
       id="rect4241"
       style="fill:url(#linearGradient4384);fill-opacity:1;fill-rule:evenodd;stroke:none" />
    <rect
       y="521.21942"
       x="81.571404"
       height="42"
       width="4"
       id="rect4487"
       style="fill:#afc0c6;fill-opacity:1;stroke:none" />
    <rect
       y="521.21942"
       x="81.571404"
       height="42.000004"
       width="0.99999988"
       id="rect4489"
       style="fill:#96aab5;fill-opacity:1;stroke:none" />
    <path
       inkscape:connector-curvature="0"
       style="color:#000000;font-style:normal;font-variant:normal;font-weight:normal;font-stretch:normal;font-size:medium;line-height:normal;font-family:Sans;-inkscape-font-specification:Sans;text-indent:0;text-align:start;text-decoration:none;text-decoration-line:none;letter-spacing:normal;word-spacing:normal;text-transform:none;direction:ltr;block-progression:tb;writing-mode:lr-tb;baseline-shift:baseline;text-anchor:start;display:inline;overflow:visible;visibility:visible;opacity:0.6;fill:#dee372;fill-opacity:1;stroke:none;stroke-width:1;marker:none;enable-background:accumulate"
       d="m 121.5714,536.21939 0,1 -1,0 0,-1 1,0 z m -1,1 0,1 -1,0 0,-1 1,0 z m -1,0 -1,0 0,-1 1,0 0,1 z m -1,0 0,1 -1,0 0,-1 1,0 z m -1,0 -1,0 0,-1 1,0 0,1 z m -1,0 0,1 -1,0 0,-1 1,0 z m -1,0 -1,0 0,-1 1,0 0,1 z m -1,0 0,1 -1,0 0,-1 1,0 z m -1,0 -1,0 0,-1 1,0 0,1 z m -1,0 0,1 -1,0 0,-1 1,0 z m -1,0 -1,0 0,-1 1,0 0,1 z m -1,0 0,1 -1,0 0,-1 1,0 z m -1,0 -1,0 0,-1 1,0 0,1 z m -1,0 0,1 -1,0 0,-1 1,0 z m -1,0 -1,0 0,-1 1,0 0,1 z m -1,0 0,1 -1,0 0,-1 1,0 z"
       id="path4497" />
    <path
       inkscape:connector-curvature="0"
       style="fill:url(#linearGradient4818);fill-opacity:1;stroke:none"
       d="m 85.571412,537.21939 0,4 3.90039,0 c 0.0355,0 0.0651,-0.016 0.0996,-0.0195 l 0,0.0195 1,0 0,-4 -1,0 0,0.0195 c -0.0345,-0.004 -0.0641,-0.0195 -0.0996,-0.0195 l -3.90039,0 z"
       id="path4816" />
    <path
       id="path4822"
       d="m 85.571412,543.21939 0,4 3.90039,0 c 0.0355,0 0.0651,-0.016 0.0996,-0.0195 l 0,0.0195 1,0 0,-4 -1,0 0,0.0195 c -0.0345,-0.004 -0.0641,-0.0195 -0.0996,-0.0195 l -3.90039,0 z"
       style="fill:url(#linearGradient4824);fill-opacity:1;stroke:none"
       inkscape:connector-curvature="0" />
    <path
       inkscape:connector-curvature="0"
       style="fill:url(#linearGradient4830);fill-opacity:1;stroke:none"
       d="m 85.571412,549.21939 0,4 3.90039,0 c 0.0355,0 0.0651,-0.016 0.0996,-0.0195 l 0,0.0195 1,0 0,-4 -1,0 0,0.0195 c -0.0345,-0.004 -0.0641,-0.0195 -0.0996,-0.0195 l -3.90039,0 z"
       id="path4828" />
    <rect
       y="552.21942"
       x="85.571404"
       height="1"
       width="5"
       id="rect4832"
       style="opacity:0.08999999;fill:#000000;fill-opacity:1;stroke:none" />
    <rect
       style="opacity:0.08999999;fill:#000000;fill-opacity:1;stroke:none"
       id="rect4834"
       width="5"
       height="1"
       x="85.571404"
       y="546.21942" />
    <rect
       y="540.21942"
       x="85.571404"
       height="1"
       width="5"
       id="rect4836"
       style="opacity:0.08999999;fill:#000000;fill-opacity:1;stroke:none" />
    <rect
       y="537.21942"
       x="80.571404"
       height="4"
       width="2"
       id="rect4197-4"
       style="opacity:1;fill:#afc0c6;fill-opacity:1;stroke:none" />
    <rect
       y="543.21942"
       x="80.571404"
       height="4"
       width="2"
       id="rect4197-7"
       style="opacity:1;fill:#afc0c6;fill-opacity:1;stroke:none" />
    <rect
       y="549.21942"
       x="80.571404"
       height="4"
       width="2"
       id="rect4197-5"
       style="opacity:1;fill:#afc0c6;fill-opacity:1;stroke:none" />
    <path
       id="rect4364"
       d="m 107.5714,542.21939 0,9 5,0 0,1 -5,0 0,1 5.5,0 0,1 1,0 0,-1 5.5,0 0,-1 -5,0 0,-1 5,0 0,-9 -12,0 z m 1,1 10,0 0,7 -10,0 0,-7 z m 7,1 0,1 2,0 0,-1 -2,0 z"
       style="opacity:1;fill:#afc0c6;fill-opacity:1;stroke-linecap:round"
       inkscape:connector-curvature="0" />
  </g>
</svg>
