<svg xmlns="http://www.w3.org/2000/svg" xmlns:inkscape="http://www.inkscape.org/namespaces/inkscape" viewBox="0 0 256 256">
  <defs
     id="defs4">
    <style
       id="current-color-scheme"
       type="text/css">
      .ColorScheme-Text {
        color:#f2f2f2;
      }
      .ColorScheme-Background {
        color:#31363b;
      }
      .ColorScheme-Highlight {
        color:#3daee9;
      }
      .ColorScheme-ViewText {
        color:#31363b;
      }
      .ColorScheme-ViewBackground {
        color:#314045;
      }
      .ColorScheme-ViewHover {
        color:#93cee9;
      }
      .ColorScheme-ViewFocus{
        color:#3daee9;
      }
      .ColorScheme-ButtonText {
        color:#31363b;
      }
      .ColorScheme-ButtonBackground {
        color:#31363b;
      }
      .ColorScheme-ButtonHover {
        color:#93cee9;
      }
      .ColorScheme-ButtonFocus{
        color:#3daee9;
      }
      </style>
  </defs>
  <path
     style="fill:currentColor;fill-opacity:0.5;stroke:none"
     d="m 16,10 224,0 c 3.324,0 6,2.676 6,6 l 0,224 c 0,3.324 -2.676,6 -6,6 l -224,0 c -3.324,0 -6,-2.676 -6,-6 L 10,16 c 0,-3.324 2.676,-6 6,-6 z"
     class="ColorScheme-ButtonText"
     id="rect4240" />
  <path
     style="fill:currentColor;fill-opacity:1;stroke:none"
     d="m 16,12 224,0 c 2.216,0 4,1.784 4,4 l 0,224 c 0,2.216 -1.784,4 -4,4 l -224,0 c -2.216,0 -4,-1.784 -4,-4 L 12,16 c 0,-2.216 1.784,-4 4,-4 z"
     class="ColorScheme-Background"
     id="rect4238" />
  <path
     style="fill:currentColor;fill-opacity:1.0;stroke:none"
     class="ColorScheme-Text"
     d="m 226.26758,24.60547 c -4.155,0 -7.90594,1.671562 -10.61719,4.382812 l 0.70899,0.708985 c 2.53049,-2.5305 6.0302,-4.091797 9.9082,-4.091797 3.878,0 7.3777,1.561297 9.9082,4.091797 l 0.70899,-0.708985 c -2.71125,-2.71125 -6.46219,-4.382812 -10.61719,-4.382812 z m -200.67383,2.128906 -4.244141,11.583984 1.427735,0 1.357422,-3.728515 4.435546,0 1.363282,3.728515 1.380859,0 -4.236328,-11.583984 -1.484375,0 z m 21.361328,0 c -0.253907,0 -0.462972,0.07959 -0.626953,0.238281 -0.158692,0.1534 -0.238281,0.352949 -0.238281,0.601563 0,0.24862 0.07959,0.452635 0.238281,0.611328 0.163981,0.158687 0.373046,0.238281 0.626953,0.238281 0.248616,0 0.453206,-0.07959 0.617188,-0.238281 0.163981,-0.158693 0.246093,-0.362708 0.246093,-0.611328 0,-0.248614 -0.08211,-0.448163 -0.246093,-0.601563 -0.158692,-0.158693 -0.363282,-0.238281 -0.617188,-0.238281 z m 80.835942,0 c -0.25391,0 -0.46297,0.07959 -0.62696,0.238281 -0.15868,0.1534 -0.23828,0.352949 -0.23828,0.601563 0,0.24862 0.0796,0.452635 0.23828,0.611328 0.16399,0.158687 0.37305,0.238281 0.62696,0.238281 0.24861,0 0.45516,-0.07959 0.61914,-0.238281 0.16398,-0.158693 0.24609,-0.362708 0.24609,-0.611328 0,-0.248614 -0.0821,-0.448163 -0.24609,-0.601563 -0.15869,-0.158693 -0.36524,-0.238281 -0.61914,-0.238281 z m -85.763676,0.888672 -1.056641,0.07813 -0.212891,2.222656 -1.292968,0.08789 -0.0332,0.74414 1.294921,0 0,5.046875 c 0,0.513107 0.04484,0.928714 0.134766,1.246094 0.08993,0.31738 0.249675,0.578856 0.482422,0.785156 0.238037,0.2063 0.546305,0.350341 0.921875,0.429688 0.375569,0.07935 0.866292,0.11914 1.474609,0.11914 l 0.548828,0 0.0625,-0.90625 -0.666015,-0.03125 c -0.703532,-0.02645 -1.156413,-0.136311 -1.357422,-0.332031 -0.201009,-0.201013 -0.300781,-0.638753 -0.300781,-1.310547 l 0,-5.046875 2.220703,0 0,-0.832031 -2.220703,0 0,-2.300781 z m 80.835936,0 -1.05469,0.07813 -0.21484,2.222656 -1.29297,0.08789 -0.0312,0.74414 1.29297,0 0,5.046875 c 0,0.513107 0.0448,0.928714 0.13477,1.246094 0.0899,0.31738 0.25162,0.578856 0.48437,0.785156 0.23804,0.2063 0.54436,0.350341 0.91992,0.429688 0.37558,0.07935 0.86824,0.11914 1.47656,0.11914 l 0.54688,0 0.0644,-0.90625 -0.66601,-0.03125 c -0.70353,-0.02645 -1.15641,-0.136311 -1.35742,-0.332031 -0.20101,-0.201013 -0.30274,-0.638753 -0.30274,-1.310547 l 0,-5.046875 2.22266,0 0,-0.832031 -2.22266,0 0,-2.300781 z m -96.515624,0.476562 1.904297,5.521485 -3.792969,0 1.888672,-5.521485 z m 199.919924,0.50586 c -3.047,0 -5.79691,1.226595 -7.78516,3.214843 l 0.70703,0.707032 c 1.8075,-1.80751 4.30813,-2.921875 7.07813,-2.921875 2.77,0 5.27061,1.114365 7.07812,2.921875 l 0.70703,-0.707032 c -1.98825,-1.988248 -4.73815,-3.214843 -7.78515,-3.214843 z M 36.337891,29.750001 c -1.169027,0 -2.117676,0.393474 -2.847657,1.181641 -0.72998,0.782873 -1.095703,1.858475 -1.095703,3.228515 0,1.311847 0.353678,2.359698 1.0625,3.142578 0.714112,0.782874 1.672282,1.173828 2.873047,1.173828 0.513102,0 0.973551,-0.05998 1.38086,-0.18164 0.407307,-0.121667 0.701008,-0.253664 0.880859,-0.396484 l -0.246094,-0.896485 c -0.534261,0.306807 -1.124186,0.458985 -1.769531,0.458985 -0.9257,0 -1.629964,-0.30379 -2.111328,-0.91211 -0.481364,-0.608313 -0.722656,-1.404785 -0.722656,-2.388672 -10e-7,-1.036786 0.251383,-1.861002 0.753906,-2.474609 0.502522,-0.613607 1.169514,-0.919922 2,-0.919922 0.655924,0 1.240804,0.152178 1.753906,0.458984 l 0.373047,-0.904297 C 38.443196,30.198647 38.152018,30.07422 37.75,29.947267 37.353271,29.815027 36.882731,29.750001 36.337891,29.750001 Z m 25.652343,0 c -1.110839,0 -2.026692,0.398519 -2.746093,1.197266 -0.719402,0.798746 -1.078125,1.869304 -1.078125,3.21289 0,1.327714 0.368245,2.38061 1.103515,3.158203 0.73527,0.772294 1.691488,1.158203 2.871094,1.158203 1.057943,0 2.001546,-0.246341 2.832031,-0.738281 l -0.277344,-0.927734 c -0.444336,0.222173 -0.845377,0.38892 -1.205078,0.5 -0.3597,0.111087 -0.760172,0.166015 -1.199218,0.166015 -0.809326,0 -1.464275,-0.256424 -1.966797,-0.769531 -0.502521,-0.518386 -0.77604,-1.310379 -0.81836,-2.378906 l 5.673829,0 0.04687,-0.667969 c 0,-1.227213 -0.276611,-2.183426 -0.832031,-2.871094 -0.550126,-0.692946 -1.351639,-1.039062 -2.404293,-1.039062 z m 12.306641,0 c -1.169027,0 -2.119629,0.393474 -2.849609,1.181641 -0.729981,0.782873 -1.09375,1.858475 -1.09375,3.228515 0,1.311847 0.353678,2.359698 1.0625,3.142578 0.714111,0.782874 1.672282,1.173828 2.873046,1.173828 0.513104,0 0.973552,-0.05998 1.38086,-0.18164 0.407308,-0.121667 0.701009,-0.253664 0.880859,-0.396484 l -0.246093,-0.896485 c -0.534262,0.306807 -1.124186,0.458985 -1.769532,0.458985 -0.9257,0 -1.629964,-0.30379 -2.111328,-0.91211 -0.481364,-0.608313 -0.722656,-1.404785 -0.722656,-2.388672 0,-1.036786 0.251383,-1.861002 0.753906,-2.474609 0.502523,-0.613607 1.169515,-0.919922 2,-0.919922 0.655925,0 1.240804,0.152178 1.753906,0.458984 l 0.373047,-0.904297 c -0.17985,-0.121666 -0.471028,-0.246093 -0.873047,-0.373046 -0.396728,-0.13224 -0.867268,-0.197266 -1.412109,-0.197266 z m 7.212891,0 c -1.232504,0 -2.200766,0.401045 -2.904297,1.205078 -0.698243,0.798747 -1.046875,1.856688 -1.046875,3.173828 0,1.2854 0.353678,2.333252 1.0625,3.142578 0.708821,0.804034 1.672038,1.205078 2.888672,1.205078 1.190186,0 2.146403,-0.403563 2.871093,-1.21289 0.724691,-0.814613 1.087891,-1.859946 1.087891,-3.134766 0,-1.31714 -0.348633,-2.375081 -1.046875,-3.173828 -0.698243,-0.804033 -1.669027,-1.205078 -2.912109,-1.205078 z m 9.798828,0 c -1.264242,0 -2.212891,0.443365 -2.847656,1.332031 l -0.144532,-1.158203 -1.142578,0 0,8.394531 1.31836,0 0,-4.68164 c -10e-7,-1.920167 0.86149,-2.88086 2.585937,-2.88086 0.640055,0 1.08789,0.193932 1.341797,0.580079 0.253906,0.380859 0.380859,0.948651 0.380859,1.705078 l 0,5.277343 1.316407,0 0,-5.132812 c -10e-7,-1.153153 -0.229248,-2.014078 -0.689454,-2.580078 -0.454915,-0.571287 -1.161702,-0.855469 -2.11914,-0.855469 z m 8.982426,0 c -1.264261,0 -2.214848,0.443365 -2.849614,1.332031 l -0.142578,-1.158203 -1.142578,0 0,8.394531 1.318359,0 0,-4.68164 c 0,-1.920167 0.861484,-2.88086 2.585941,-2.88086 0.64006,0 1.08593,0.193932 1.33984,0.580079 0.2539,0.38086 0.38086,0.948651 0.38086,1.705078 l 0,5.277343 1.31836,0 0,-5.132812 c 0,-1.153153 -0.23121,-2.014078 -0.69141,-2.580078 -0.45492,-0.571287 -1.15975,-0.855469 -2.11718,-0.855469 z m 8.29101,0 c -1.11084,0 -2.02669,0.398519 -2.74609,1.197266 -0.7194,0.798746 -1.07813,1.869304 -1.07813,3.21289 0,1.327714 0.36825,2.38061 1.10352,3.158203 0.73527,0.772294 1.69149,1.158203 2.87109,1.158203 1.05794,0 2.0035,-0.246341 2.83399,-0.738281 l -0.2793,-0.927734 c -0.44433,0.222173 -0.84538,0.38892 -1.20508,0.5 -0.35971,0.111087 -0.76017,0.166015 -1.19922,0.166015 -0.80932,0 -1.46427,-0.256424 -1.96679,-0.769531 -0.50251,-0.518386 -0.77603,-1.310379 -0.81836,-2.378906 l 5.67382,0 0.0488,-0.667969 c 0,-1.227213 -0.27856,-2.183426 -0.83398,-2.871094 -0.55011,-0.692946 -1.35162,-1.039062 -2.40427,-1.039062 z m 8.59375,0 c -1.16903,0 -2.11963,0.393474 -2.84961,1.181641 -0.72998,0.782873 -1.09375,1.858475 -1.09375,3.228515 0,1.311847 0.35368,2.359698 1.0625,3.142578 0.71412,0.782874 1.67228,1.173828 2.87305,1.173828 0.5131,0 0.9716,-0.05998 1.37891,-0.18164 0.40729,-0.121667 0.701,-0.253664 0.88085,-0.396484 l -0.24414,-0.896485 c -0.53426,0.306807 -1.12418,0.458985 -1.76953,0.458985 -0.9257,0 -1.62996,-0.30379 -2.11133,-0.91211 -0.48136,-0.608313 -0.72265,-1.404785 -0.72265,-2.388672 0,-1.036786 0.25138,-1.861002 0.7539,-2.474609 0.50252,-0.613607 1.16952,-0.919922 2,-0.919922 0.65593,0 1.24081,0.152178 1.75391,0.458984 l 0.37305,-0.904297 c -0.17986,-0.121666 -0.47103,-0.246093 -0.87305,-0.373046 -0.39673,-0.13224 -0.86727,-0.197266 -1.41211,-0.197266 z m 17.20899,0 c -1.2325,0 -2.20077,0.401045 -2.9043,1.205078 -0.69824,0.798747 -1.04688,1.856688 -1.04688,3.173828 0,1.2854 0.35368,2.333252 1.0625,3.142578 0.70882,0.804034 1.67204,1.205078 2.88868,1.205078 1.19018,0 2.14835,-0.403563 2.87304,-1.21289 0.72469,-0.814613 1.08594,-1.859946 1.08594,-3.134766 0,-1.31714 -0.34864,-2.375081 -1.04687,-3.173828 -0.69825,-0.804033 -1.66903,-1.205078 -2.91211,-1.205078 z m 9.79882,0 c -1.26424,0 -2.21289,0.443365 -2.84765,1.332031 l -0.14258,-1.158203 -1.14258,0 0,8.394531 1.31641,0 0,-4.68164 c 0,-1.920167 0.86344,-2.88086 2.58789,-2.88086 0.64005,0 1.08594,0.193932 1.33984,0.580079 0.25391,0.380859 0.38086,0.948651 0.38086,1.705078 l 0,5.277343 1.31836,0 0,-5.132812 c 0,-1.153153 -0.2312,-2.014078 -0.69141,-2.580078 -0.45491,-0.571287 -1.1617,-0.855469 -2.11914,-0.855469 z m 7.41993,0 c -0.8781,0 -1.56023,0.211592 -2.04688,0.634766 -0.48665,0.417886 -0.73047,0.968017 -0.73047,1.65039 0,0.550134 0.13957,0.998537 0.41992,1.347656 0.28036,0.343835 0.80022,0.637533 1.55664,0.88086 l 0.91993,0.292969 c 0.60832,0.195713 1.02897,0.404779 1.26172,0.626953 0.23274,0.222166 0.34765,0.498212 0.34765,0.826172 0,0.476073 -0.13957,0.839843 -0.41992,1.09375 -0.28036,0.24862 -0.67383,0.373046 -1.18164,0.373046 -0.80932,0 -1.71761,-0.239336 -2.72266,-0.720703 l 0,1.101563 c 0.86752,0.412593 1.74358,0.61914 2.62696,0.61914 0.39672,0 0.76245,-0.04736 1.0957,-0.142578 0.33854,-0.09521 0.63981,-0.237301 0.9043,-0.427734 0.26977,-0.190427 0.48135,-0.444339 0.63476,-0.761719 0.1534,-0.322673 0.23047,-0.693441 0.23047,-1.111328 0,-0.338547 -0.0322,-0.624675 -0.0957,-0.857422 -0.0635,-0.238033 -0.18034,-0.459715 -0.34961,-0.666015 -0.16927,-0.2063 -0.40357,-0.385663 -0.70508,-0.539063 -0.29623,-0.158693 -0.6796,-0.312824 -1.15039,-0.460937 l -0.83399,-0.261719 c -0.54484,-0.17456 -0.90104,-0.338788 -1.07031,-0.492188 -0.16927,-0.1534 -0.2539,-0.40226 -0.2539,-0.746093 0,-0.407307 0.12947,-0.716141 0.38867,-0.927735 0.26448,-0.216873 0.70027,-0.326172 1.30859,-0.326172 0.68237,0 1.38916,0.186361 2.11914,0.556641 l 0.3086,-0.976562 c -0.79346,-0.391435 -1.64738,-0.585938 -2.5625,-0.585938 z m -105.308598,0.173828 0,8.394531 1.302734,0 0,-8.394531 -1.302734,0 z m 3.046875,0 3.246094,8.394531 1.324218,0 3.181641,-8.394531 -1.339844,0 c -0.275065,0.772293 -0.693197,1.92749 -1.253906,3.466797 -0.55542,1.539307 -0.971028,2.69645 -1.246094,3.46875 -0.343831,-0.909833 -0.841553,-2.248865 -1.492187,-4.015625 -0.645345,-1.766767 -1.001546,-2.740075 -1.070313,-2.919922 l -1.349609,0 z m 77.791013,0 0,8.394531 1.30078,0 0,-8.394531 -1.30078,0 z M 62.021484,30.75586 c 1.333011,0 2.03223,0.905764 2.095704,2.714844 l -4.570313,0 c 0.07406,-0.835773 0.333008,-1.497722 0.777344,-1.984375 0.449625,-0.486653 1.014892,-0.730469 1.697265,-0.730469 z m 19.488282,0 c 0.862223,0 1.512124,0.310795 1.951172,0.929688 0.439046,0.613607 0.658203,1.432778 0.658203,2.458984 0,0.65592 -0.08968,1.23071 -0.269532,1.722657 -0.17985,0.486653 -0.471026,0.877601 -0.873047,1.173828 -0.396726,0.290933 -0.884928,0.435546 -1.466796,0.435546 -0.846354,0 -1.493164,-0.306315 -1.9375,-0.919921 C 79.12793,35.943035 78.90625,35.13648 78.90625,34.13672 c 0,-1.020914 0.22168,-1.837565 0.666016,-2.451172 0.444336,-0.618893 1.091146,-0.929688 1.9375,-0.929688 z m 27.103514,0 c 1.33302,0 2.03224,0.905764 2.0957,2.714844 l -4.57031,0 c 0.0741,-0.835773 0.33301,-1.497722 0.77735,-1.984375 0.44962,-0.486653 1.01489,-0.730469 1.69726,-0.730469 z m 25.77149,0 c 0.86222,0 1.51407,0.310795 1.95312,0.929688 0.43905,0.613607 0.6582,1.432778 0.6582,2.458984 0,0.65592 -0.0897,1.23071 -0.26953,1.722657 -0.17984,0.486653 -0.47102,0.877601 -0.87304,1.173828 -0.39673,0.290933 -0.88688,0.435546 -1.46875,0.435546 -0.84636,0 -1.49122,-0.306315 -1.93555,-0.919921 -0.44434,-0.613607 -0.66602,-1.420162 -0.66602,-2.419922 0,-1.020914 0.22168,-1.837565 0.66602,-2.451172 0.44433,-0.618893 1.08919,-0.929688 1.93555,-0.929688 z m 91.88281,1.84961 c -1.939,0 -3.68983,0.779672 -4.95508,2.044922 l 0.70898,0.708984 c 1.0845,-1.0845 2.5841,-1.753906 4.2461,-1.753906 1.662,0 3.16159,0.669406 4.24609,1.753906 l 0.70899,-0.708984 c -1.26525,-1.26525 -3.01608,-2.044922 -4.95508,-2.044922 z m 0,4 c -1.108,0 -2,0.892 -2,2 0,1.108 0.892,2 2,2 1.108,0 2,-0.892 2,-2 0,-1.108 -0.892,-2 -2,-2 z m 0,1 c 0.554,0 1,0.446 1,1 0,0.554 -0.446,1 -1,1 -0.554,0 -1,-0.446 -1,-1 0,-0.554 0.446,-1 1,-1 z M 20,50.000001 l 0,1 216,0 0,-1 -216,0 z m 10,12 0,21 10.5,0 0,1.75 1.75,0 0,1.75 -12.25,0 0,1.75 12.25,0 0,1.75 3.5,0 0,-1.75 12.25,0 0,-1.75 -12.25,0 0,-1.75 1.75,0 0,-1.75 10.5,0 0,-21 -28,0 z m 77.49414,0.177734 -1.01367,0.07422 0,2.007813 0.0488,1.470703 c -0.0977,-0.17904 -0.20068,-0.332845 -0.31055,-0.458985 -0.10579,-0.130206 -0.236,-0.249508 -0.39063,-0.359375 -0.15462,-0.113893 -0.34098,-0.198859 -0.55664,-0.255859 -0.21566,-0.05693 -0.4598,-0.08594 -0.73242,-0.08594 -0.85449,0 -1.53076,0.305669 -2.03125,0.916016 -0.49642,0.610353 -0.74609,1.409664 -0.74609,2.398438 0,1.041666 0.24056,1.869955 0.7207,2.484375 0.48422,0.610346 1.17139,0.916015 2.0625,0.916015 0.92367,0 1.59652,-0.421392 2.01563,-1.263672 l 0.0898,1.140625 0.84375,0 0,-8.984375 z m -32.539062,0.07422 2.679688,8.910156 1.019531,0 2.263672,-7.439453 2.210937,7.439453 1.042969,0 2.679687,-8.910156 -1.037109,0 -2.173828,7.542969 -2.214844,-7.355469 -1.037109,0 -2.222656,7.361328 -2.191407,-7.548828 -1.019531,0 z m 13.703125,0 c -0.195313,0 -0.356282,0.05957 -0.482422,0.181641 -0.12207,0.118 -0.183593,0.273603 -0.183593,0.464844 0,0.191246 0.06152,0.346683 0.183593,0.46875 0.12614,0.122073 0.287109,0.183593 0.482422,0.183593 0.191243,0 0.350423,-0.06152 0.476563,-0.183593 0.126139,-0.122067 0.189453,-0.277504 0.189453,-0.46875 0,-0.19124 -0.06331,-0.346844 -0.189453,-0.464844 -0.122071,-0.122074 -0.281251,-0.181641 -0.476563,-0.181641 z m 67.187497,0 c -0.19531,0 -0.35628,0.05957 -0.48242,0.181641 -0.12207,0.118 -0.18359,0.273604 -0.18359,0.464844 0,0.191246 0.0615,0.346683 0.18359,0.46875 0.12614,0.122073 0.28711,0.183593 0.48242,0.183593 0.19125,0 0.35043,-0.06152 0.47657,-0.183593 0.12614,-0.122067 0.18945,-0.277504 0.18945,-0.46875 0,-0.19124 -0.0633,-0.346844 -0.18945,-0.464844 -0.12207,-0.122074 -0.28125,-0.181641 -0.47657,-0.181641 z m 22.06446,0 c -0.21159,0.146487 -0.52995,0.294759 -0.95313,0.445313 -0.41911,0.146453 -0.78076,0.24948 -1.08594,0.310546 l 0,0.806641 c 0.27262,-0.03662 0.60173,-0.116208 0.98829,-0.238281 0.39062,-0.122067 0.71435,-0.254071 0.9707,-0.396484 l 0,7.25 -2.14844,0 0,0.732421 5.07813,0 0,-0.732421 -1.91602,0 0,-8.177735 -0.93359,0 z m -25.85547,0.683594 -0.81055,0.06055 -0.16602,1.708984 -0.99414,0.06641 -0.0254,0.574219 0.9961,0 0,3.880859 c 0,0.394694 0.0343,0.714845 0.10351,0.958985 0.0692,0.24414 0.19402,0.444822 0.37305,0.603515 0.18311,0.158727 0.41813,0.269079 0.70703,0.330079 0.2889,0.06107 0.66683,0.0918 1.13477,0.0918 l 0.42187,0 0.0488,-0.695313 -0.51367,-0.02539 c -0.54118,-0.02035 -0.88835,-0.105306 -1.04297,-0.255859 -0.15462,-0.15462 -0.23242,-0.491046 -0.23242,-1.007813 l 0,-3.880859 1.70898,0 0,-0.640625 -1.70898,0 0,-1.769531 z M 31.75,63.750001 l 24.5,0 0,17.5 -24.5,0 0,-17.5 z m 66.349609,0.820312 c -0.854492,0 -1.557942,0.307455 -2.111328,0.921876 -0.553385,0.614419 -0.830078,1.439129 -0.830078,2.472656 0,1.02132 0.282064,1.829587 0.847656,2.427734 0.565593,0.594073 1.303549,0.892578 2.210938,0.892578 0.813802,0 1.5389,-0.189946 2.177733,-0.568359 l -0.21289,-0.714844 c -0.341797,0.170893 -0.651041,0.299312 -0.927734,0.384766 -0.276692,0.08545 -0.584147,0.128906 -0.921875,0.128906 -0.622558,0 -1.127116,-0.197104 -1.513672,-0.591797 -0.386554,-0.39876 -0.596353,-1.010091 -0.628906,-1.832031 l 4.365237,0 0.0352,-0.511719 c 0,-0.944013 -0.21338,-1.681971 -0.640621,-2.210937 -0.423177,-0.53304 -1.039876,-0.798829 -1.84961,-0.798829 z m 16.595701,0 c -0.89925,0 -1.62988,0.303877 -2.1914,0.910157 -0.56153,0.602213 -0.8418,1.430501 -0.8418,2.484375 0,1.009113 0.27311,1.813802 0.81836,2.416015 0.54932,0.602214 1.28532,0.904297 2.20898,0.904297 0.3947,0 0.74919,-0.04704 1.0625,-0.140625 0.31332,-0.09359 0.53939,-0.19678 0.67774,-0.30664 l -0.18946,-0.689453 c -0.41097,0.236 -0.8649,0.355468 -1.36132,0.355468 -0.71208,0 -1.25277,-0.235191 -1.62305,-0.703125 -0.37028,-0.467933 -0.55664,-1.079097 -0.55664,-1.835937 0,-0.797527 0.19352,-1.43229 0.58008,-1.904297 0.38656,-0.472 0.90023,-0.708985 1.53906,-0.708985 0.50455,0 0.95296,0.117516 1.34766,0.353516 l 0.2871,-0.695312 c -0.13834,-0.09359 -0.36262,-0.189456 -0.67187,-0.28711 -0.30517,-0.101726 -0.66683,-0.152344 -1.08594,-0.152344 z m 5.54883,0 c -0.94808,0 -1.6932,0.309248 -2.23437,0.927735 -0.53712,0.61442 -0.80469,1.428219 -0.80469,2.441406 0,0.988767 0.27116,1.795409 0.8164,2.417969 0.54526,0.618487 1.28679,0.927734 2.22266,0.927734 0.91553,0 1.65152,-0.312993 2.20898,-0.935547 0.55746,-0.626626 0.83594,-1.429523 0.83594,-2.410156 0,-1.013187 -0.26757,-1.826986 -0.80468,-2.441406 -0.53711,-0.618487 -1.28402,-0.927735 -2.24024,-0.927735 z m 7.53711,0 c -0.97249,0 -1.70312,0.341798 -2.19141,1.025391 l -0.10937,-0.890625 -0.87891,0 0,6.457031 1.01367,0 0,-3.601562 c 0,-1.477053 0.66375,-2.214844 1.99024,-2.214844 0.49235,0 0.83594,0.148273 1.03125,0.445313 0.19531,0.292966 0.29297,0.730626 0.29297,1.3125 l 0,4.058593 1.01172,0 0,-3.949218 c 0,-0.887047 -0.17529,-1.547042 -0.5293,-1.982422 -0.34993,-0.439454 -0.89437,-0.660157 -1.63086,-0.660157 z m 6.91016,0 c -0.9725,0 -1.70312,0.341798 -2.19141,1.025391 l -0.10938,-0.890625 -0.8789,0 0,6.457031 1.01172,0 0,-3.601562 c 0,-1.477053 0.66374,-2.214844 1.99023,-2.214844 0.49236,0 0.83594,0.148273 1.03125,0.445313 0.19532,0.292966 0.29297,0.730626 0.29297,1.3125 l 0,4.058593 1.01367,0 0,-3.949218 c 0,-0.887047 -0.17724,-1.547042 -0.53125,-1.982422 -0.34993,-0.439454 -0.89242,-0.660157 -1.6289,-0.660157 z m 6.37695,0 c -0.85449,0 -1.55794,0.307455 -2.11133,0.921876 -0.55339,0.614419 -0.83008,1.439129 -0.83008,2.472656 0,1.02132 0.28207,1.829587 0.84766,2.427734 0.56559,0.594073 1.30354,0.892578 2.21094,0.892578 0.8138,0 1.5389,-0.189946 2.17773,-0.568359 l -0.21289,-0.714844 c -0.3418,0.170893 -0.65104,0.299312 -0.92773,0.384766 -0.2767,0.08545 -0.58415,0.128906 -0.92188,0.128906 -0.62256,0 -1.12712,-0.197104 -1.51367,-0.591797 -0.38657,-0.39876 -0.59637,-1.010091 -0.62891,-1.832031 l 4.36524,0 0.0352,-0.511719 c 0,-0.944013 -0.21337,-1.681971 -0.64062,-2.210937 -0.42317,-0.53304 -1.03988,-0.798829 -1.84961,-0.798829 z m 6.61133,0 c -0.89926,0 -1.62988,0.303877 -2.19141,0.910157 -0.56152,0.602213 -0.8418,1.430501 -0.8418,2.484375 0,1.009113 0.27116,1.813802 0.81641,2.416015 0.54932,0.602214 1.28728,0.904297 2.21094,0.904297 0.39469,0 0.74723,-0.04704 1.06055,-0.140625 0.31331,-0.09359 0.53938,-0.19678 0.67773,-0.30664 l -0.18945,-0.689453 c -0.41098,0.236 -0.86491,0.355468 -1.36133,0.355468 -0.71208,0 -1.25277,-0.235191 -1.62305,-0.703125 -0.37028,-0.467933 -0.55469,-1.079097 -0.55469,-1.835937 0,-0.797527 0.19353,-1.43229 0.58008,-1.904297 0.38656,-0.472 0.89827,-0.708985 1.53711,-0.708985 0.50455,0 0.95492,0.117516 1.34961,0.353516 l 0.28711,-0.695312 c -0.13835,-0.09359 -0.36263,-0.189456 -0.67188,-0.28711 -0.30517,-0.101726 -0.66683,-0.152344 -1.08593,-0.152344 z m 13.23828,0 c -0.94808,0 -1.6932,0.309248 -2.23438,0.927735 -0.53711,0.61442 -0.80468,1.428219 -0.80468,2.441406 0,0.988767 0.27116,1.795409 0.8164,2.417969 0.54525,0.618487 1.28679,0.927734 2.22266,0.927734 0.91553,0 1.65153,-0.312993 2.20898,-0.935547 0.55746,-0.626626 0.83594,-1.429523 0.83594,-2.410156 0,-1.013187 -0.26757,-1.826986 -0.80469,-2.441406 -0.5371,-0.618487 -1.28401,-0.927735 -2.24023,-0.927735 z m 7.53711,0 c -0.9725,0 -1.70313,0.341798 -2.19141,1.025391 l -0.10937,-0.890625 -0.87891,0 0,6.457031 1.01367,0 0,-3.601562 c 0,-1.477053 0.66374,-2.214844 1.99024,-2.214844 0.49235,0 0.83593,0.148273 1.03125,0.445313 0.1953,0.292966 0.29297,0.730626 0.29297,1.3125 l 0,4.058593 1.01171,0 0,-3.949218 c 0,-0.887047 -0.17529,-1.547042 -0.52929,-1.982422 -0.34994,-0.439454 -0.89437,-0.660157 -1.63086,-0.660157 z m -74.505861,0.06641 c -0.390626,0 -0.763184,0.110351 -1.117188,0.330078 -0.349934,0.215653 -0.646484,0.555664 -0.890625,1.019531 l -0.109375,-1.28125 -0.8125,0 0,6.457031 1.013672,0 0,-3.65625 c 0,-0.573733 0.179037,-1.060224 0.537109,-1.458984 0.362143,-0.398767 0.819662,-0.597656 1.373047,-0.597656 0.113933,0 0.253256,0.01629 0.416016,0.04883 l 0.04297,-0.830078 c -0.118002,-0.02033 -0.27002,-0.03125 -0.453125,-0.03125 z m -5.796875,0.06836 0,6.457031 1,0 0,-6.457031 -1,0 z m 67.187496,0 0,6.457031 1,0 0,-6.457031 -1,0 z M 98.125,65.345704 c 1.025392,0 1.562501,0.696284 1.611328,2.087891 l -3.515625,0 c 0.05697,-0.642907 0.25586,-1.152997 0.597656,-1.527344 0.345866,-0.374353 0.781739,-0.560547 1.306641,-0.560547 z m 6.56055,0 c 0.60221,0 1.05615,0.224282 1.36133,0.671875 0.30923,0.447593 0.46484,1.107589 0.46484,1.982422 -0.004,0.8016 -0.1543,1.420089 -0.44727,1.855469 -0.29297,0.435386 -0.77034,0.654297 -1.43359,0.654297 -0.63069,0 -1.09733,-0.233399 -1.39844,-0.697266 -0.29704,-0.463867 -0.44531,-1.100423 -0.44531,-1.910156 0,-0.813807 0.15918,-1.441246 0.47656,-1.884766 0.31739,-0.447593 0.79118,-0.671875 1.42188,-0.671875 z m 15.55859,0 c 0.66325,0 1.16423,0.238771 1.50195,0.714844 0.33773,0.472007 0.50586,1.101238 0.50586,1.890625 0,0.50456 -0.0687,0.945799 -0.20703,1.324219 -0.13834,0.374346 -0.36263,0.67643 -0.67187,0.904297 -0.30518,0.223793 -0.68132,0.335937 -1.12891,0.335937 -0.65104,0 -1.14844,-0.236978 -1.49023,-0.708984 -0.3418,-0.472 -0.51172,-1.092282 -0.51172,-1.861329 0,-0.78532 0.16992,-1.412758 0.51172,-1.884765 0.34179,-0.476073 0.83919,-0.714844 1.49023,-0.714844 z m 20.84961,0 c 1.02542,0 1.56253,0.696284 1.61133,2.087891 l -3.51563,0 c 0.057,-0.642907 0.25587,-1.152997 0.59766,-1.527344 0.34587,-0.374353 0.78174,-0.560547 1.30664,-0.560547 z m 19.82422,0 c 0.66325,0 1.16423,0.238771 1.50195,0.714844 0.33773,0.472007 0.50586,1.101238 0.50586,1.890625 0,0.50456 -0.0687,0.945799 -0.20703,1.324219 -0.13835,0.374346 -0.36263,0.67643 -0.67187,0.904297 -0.30518,0.223793 -0.68132,0.335937 -1.12891,0.335937 -0.65104,0 -1.14844,-0.236978 -1.49024,-0.708984 -0.34179,-0.472 -0.51171,-1.092282 -0.51171,-1.861329 0,-0.78532 0.16992,-1.412758 0.51171,-1.884765 0.3418,-0.476073 0.8392,-0.714844 1.49024,-0.714844 z M 51,67.250001 l 0,1.75 3.5,0 0,-1.75 -3.5,0 z m 0,5.25 0,1.75 3.5,0 0,-1.75 -3.5,0 z m 0,5.25 0,1.75 3.5,0 0,-1.75 -3.5,0 z m 175.26758,26.855469 c -1.44171,0 -2.78929,0.38292 -3.95508,1.04492 l 0.73828,0.73828 0.002,-0.002 2.7793,2.77734 0.70703,-0.70703 -2.48242,-2.48242 c 0.69547,-0.23256 1.43506,-0.36914 2.21094,-0.36914 3.87797,0 7,3.122 7,7 0,1.1625 -0.28584,2.2539 -0.7832,3.2168 l 0.73828,0.73828 c 0.66205,-1.1658 1.04492,-2.51338 1.04492,-3.95508 0,-4.432 -3.56803,-8 -8,-8 z m -204.029299,2.12891 0,11.58398 1.396485,0 0,-5.60156 2.507812,0 c 1.306559,0 2.257732,-0.264 2.855469,-0.79297 0.597737,-0.53426 0.896484,-1.32064 0.896484,-2.35742 0,-0.50782 -0.0922,-0.94613 -0.277343,-1.31641 -0.17985,-0.37557 -0.441325,-0.67179 -0.785157,-0.88867 -0.343831,-0.21688 -0.734782,-0.37606 -1.173828,-0.47656 -0.439047,-0.10051 -0.936767,-0.15039 -1.492187,-0.15039 l -3.927735,0 z m 33,0 c -0.253906,0 -0.462972,0.0796 -0.626953,0.23828 -0.158691,0.1534 -0.238281,0.35295 -0.238281,0.60156 0,0.24862 0.07959,0.45263 0.238281,0.61133 0.163981,0.15868 0.373047,0.23828 0.626953,0.23828 0.248617,0 0.45516,-0.0796 0.619141,-0.23828 0.163981,-0.1587 0.246094,-0.36271 0.246094,-0.61133 0,-0.24861 -0.08211,-0.44816 -0.246094,-0.60156 -0.158692,-0.1587 -0.365235,-0.23831 -0.619141,-0.23828 z m 89.025389,0 c -0.2539,0 -0.46297,0.0796 -0.62695,0.23828 -0.15869,0.1534 -0.23828,0.35295 -0.23828,0.60156 0,0.24862 0.0796,0.45263 0.23828,0.61133 0.16398,0.15868 0.37305,0.23828 0.62695,0.23828 0.24862,0 0.45516,-0.0796 0.61914,-0.23828 0.16398,-0.1587 0.2461,-0.36271 0.2461,-0.61133 0,-0.24861 -0.0821,-0.44816 -0.2461,-0.60156 -0.15869,-0.1587 -0.36523,-0.23831 -0.61914,-0.23828 z m -4.92773,0.88867 -1.05469,0.0781 -0.21484,2.22266 -1.29297,0.0879 -0.0312,0.74414 1.29297,0 0,5.04687 c 0,0.51311 0.0448,0.92872 0.13476,1.2461 0.0899,0.31738 0.25163,0.57885 0.48438,0.78515 0.23804,0.2063 0.54435,0.35035 0.91992,0.42969 0.37557,0.0793 0.86825,0.11914 1.47656,0.11914 l 0.54688,0 0.0645,-0.90625 -0.66797,-0.0312 c -0.70353,-0.0264 -1.15446,-0.13631 -1.35547,-0.33203 -0.201,-0.20101 -0.30273,-0.63875 -0.30273,-1.31055 l 0,-5.04687 2.22265,0 0,-0.83203 -2.22265,0 0,-2.30078 z m -115.701174,0.1582 2.523437,0 c 0.761719,0 1.3396,0.13704 1.736328,0.41211 0.402018,0.26977 0.603516,0.73274 0.603516,1.38867 0,0.76172 -0.181885,1.29672 -0.546875,1.60352 -0.359701,0.3068 -0.974284,0.45898 -1.841797,0.45898 l -2.474609,0 0,-3.86328 z m 195.677734,0.86914 c -0.66205,1.1658 -1.04492,2.51338 -1.04492,3.95508 0,4.432 3.56803,8 8,8 1.44171,0 2.78929,-0.38292 3.95508,-1.04492 l -0.6836,-0.6836 0.002,-0.002 -2.82813,-2.82812 -0.70703,0.70703 2.47852,2.47851 c -0.69731,0.23392 -1.43854,0.37305 -2.2168,0.37305 -3.87797,0 -7,-3.122 -7,-7 0,-1.1625 0.28583,-2.2539 0.7832,-3.2168 l -0.73828,-0.73828 z M 40.726562,109.75 c -1.11084,0 -2.026693,0.39852 -2.746093,1.19727 -0.719402,0.79874 -1.080078,1.8693 -1.080078,3.21289 0,1.32771 0.368245,2.38061 1.103515,3.1582 0.735271,0.77229 1.693441,1.1582 2.873047,1.1582 1.057943,0 2.001547,-0.24634 2.832031,-0.73828 l -0.277343,-0.92773 c -0.444336,0.22217 -0.847331,0.38892 -1.207032,0.5 -0.3597,0.11108 -0.758219,0.16601 -1.197265,0.16601 -0.809327,0 -1.466228,-0.25642 -1.96875,-0.76953 -0.502521,-0.51839 -0.774088,-1.31037 -0.816406,-2.37891 l 5.673828,0 0.04687,-0.66796 c 0,-1.22722 -0.278565,-2.18343 -0.833985,-2.8711 C 42.578771,110.09612 41.77921,109.75 40.726557,109.75 Z m 21.105469,0 c -1.232503,0 -2.200765,0.40104 -2.904297,1.20508 -0.698242,0.79874 -1.046875,1.85669 -1.046875,3.17383 0,1.2854 0.353679,2.33325 1.0625,3.14257 0.708822,0.80404 1.672038,1.20508 2.888672,1.20508 1.190186,0 2.146403,-0.40356 2.871094,-1.21289 0.724691,-0.81461 1.087891,-1.85994 1.087891,-3.13476 0,-1.31714 -0.348633,-2.37509 -1.046875,-3.17383 -0.698242,-0.80404 -1.669027,-1.20508 -2.91211,-1.20508 z m 17.154297,0 c -0.878093,0 -1.560222,0.21159 -2.046875,0.63477 -0.486654,0.41788 -0.730469,0.96801 -0.730469,1.65039 0,0.55013 0.139567,0.99853 0.419922,1.34765 0.280355,0.34384 0.800212,0.63754 1.556641,0.88086 l 0.919922,0.29297 c 0.608316,0.19571 1.02897,0.40478 1.261719,0.62695 0.232747,0.22217 0.349609,0.49822 0.349609,0.82618 0,0.47607 -0.14152,0.83984 -0.421875,1.09375 -0.280355,0.24862 -0.673828,0.37304 -1.181641,0.37304 -0.809326,0 -1.71761,-0.23933 -2.722656,-0.7207 l 0,1.10156 c 0.867513,0.4126 1.743571,0.61914 2.626953,0.61914 0.396729,0 0.762451,-0.0474 1.095703,-0.14258 0.338542,-0.0952 0.639811,-0.2373 0.904297,-0.42773 0.269775,-0.19043 0.481364,-0.44434 0.634766,-0.76172 0.153401,-0.32267 0.230468,-0.69344 0.230468,-1.11133 0,-0.33854 -0.03222,-0.62467 -0.0957,-0.85742 -0.06348,-0.23803 -0.180338,-0.45971 -0.349609,-0.66601 -0.169271,-0.2063 -0.403564,-0.38567 -0.705078,-0.53907 -0.296223,-0.15869 -0.679606,-0.31282 -1.150391,-0.46093 l -0.833984,-0.26172 c -0.544841,-0.17456 -0.901042,-0.33879 -1.070313,-0.49219 -0.16927,-0.1534 -0.253906,-0.40226 -0.253906,-0.74609 0,-0.40731 0.129476,-0.71615 0.388672,-0.92774 0.264485,-0.21687 0.700276,-0.32617 1.308594,-0.32617 0.682372,0 1.38916,0.18636 2.11914,0.55664 l 0.308594,-0.97656 C 80.755371,109.9445 79.901449,109.75 78.986328,109.75 Z m 11.783203,0 c -1.169026,0 -2.119628,0.39347 -2.849609,1.18164 -0.729981,0.78287 -1.09375,1.85848 -1.09375,3.22852 0,1.31184 0.353678,2.35969 1.0625,3.14257 0.714111,0.78288 1.672282,1.17383 2.873047,1.17383 0.513102,0 0.973551,-0.06 1.380859,-0.18164 0.407307,-0.12166 0.699056,-0.25366 0.878906,-0.39648 l -0.246093,-0.89649 c -0.534261,0.30681 -1.122231,0.45899 -1.767579,0.45899 -0.9257,0 -1.629964,-0.30379 -2.111328,-0.91211 -0.481364,-0.60832 -0.722656,-1.40479 -0.722656,-2.38867 0,-1.03679 0.251383,-1.86101 0.753906,-2.47461 0.502523,-0.61361 1.169516,-0.91992 2,-0.91993 0.655925,3e-5 1.240805,0.15218 1.753907,0.45899 l 0.373047,-0.9043 c -0.179851,-0.12166 -0.471029,-0.24609 -0.873047,-0.37304 -0.396728,-0.13224 -0.867269,-0.19727 -1.41211,-0.19727 z m 7.210938,0 c -1.232504,0 -2.198813,0.40104 -2.902344,1.20508 -0.698243,0.79874 -1.048828,1.85669 -1.048828,3.17383 0,1.2854 0.355631,2.33325 1.064453,3.14257 0.708821,0.80404 1.670085,1.20508 2.886719,1.20508 1.190186,0 2.148351,-0.40356 2.873051,-1.21289 0.72469,-0.81461 1.08789,-1.85994 1.08789,-3.13476 0,-1.31714 -0.35059,-2.37509 -1.04883,-3.17383 -0.69824,-0.80404 -1.669029,-1.20508 -2.912111,-1.20508 z m 9.800781,0 c -1.26424,0 -2.21484,0.44336 -2.84961,1.33203 l -0.14258,-1.1582 -1.14258,0 0,8.39453 1.31836,0 0,-4.68164 c 0,-1.92017 0.86149,-2.88086 2.58594,-2.88086 0.64005,0 1.08595,0.19393 1.33984,0.58008 0.25393,0.38086 0.38086,0.94865 0.38086,1.70508 l 0,5.27734 1.31836,0 0,-5.13281 c 0,-1.15316 -0.2312,-2.01408 -0.6914,-2.58008 -0.45492,-0.57129 -1.15975,-0.85547 -2.11719,-0.85547 z m 8.98047,0 c -1.26424,0 -2.21289,0.44336 -2.84766,1.33203 l -0.14258,-1.1582 -1.14257,0 0,8.39453 1.3164,0 0,-4.68164 c 0,-1.92017 0.86345,-2.88086 2.58789,-2.88086 0.64006,0 1.08594,0.19393 1.33985,0.58008 0.2539,0.38086 0.38086,0.94865 0.38086,1.70508 l 0,5.27734 1.31836,0 0,-5.13281 c 0,-1.15316 -0.2312,-2.01408 -0.69141,-2.58008 -0.45491,-0.57129 -1.1617,-0.85547 -2.11914,-0.85547 z m 8.29297,0 c -1.11084,0 -2.0267,0.39852 -2.7461,1.19727 -0.7194,0.79874 -1.07812,1.8693 -1.07812,3.21289 0,1.32771 0.36629,2.38061 1.10156,3.1582 0.73527,0.77229 1.69344,1.1582 2.87305,1.1582 1.05794,0 2.00154,-0.24634 2.83203,-0.73828 l -0.27734,-0.92773 c -0.44434,0.22217 -0.84538,0.38892 -1.20508,0.5 -0.3597,0.11108 -0.76017,0.16601 -1.19922,0.16601 -0.80933,0 -1.46428,-0.25642 -1.9668,-0.76953 -0.5025,-0.51839 -0.77602,-1.31037 -0.81836,-2.37891 l 5.67383,0 0.0469,-0.66796 c 0,-1.22722 -0.27662,-2.18343 -0.83204,-2.8711 -0.55012,-0.69294 -1.35164,-1.03906 -2.40429,-1.03906 z m 8.59179,0 c -1.16902,0 -2.11767,0.39347 -2.84765,1.18164 -0.72998,0.78287 -1.09571,1.85848 -1.09571,3.22852 0,1.31184 0.35564,2.35969 1.06446,3.14257 0.71411,0.78288 1.67033,1.17383 2.87109,1.17383 0.51311,0 0.97355,-0.06 1.38086,-0.18164 0.40731,-0.12166 0.70101,-0.25366 0.88086,-0.39648 l -0.24609,-0.89649 c -0.53427,0.30681 -1.12419,0.45899 -1.76953,0.45899 -0.9257,0 -1.62801,-0.30379 -2.10938,-0.91211 -0.48137,-0.60832 -0.72266,-1.40479 -0.72266,-2.38867 0,-1.03679 0.25138,-1.86101 0.75391,-2.47461 0.50252,-0.61361 1.16951,-0.91992 2,-0.91993 0.65593,3e-5 1.23885,0.15218 1.75195,0.45899 l 0.37305,-0.9043 c -0.17985,-0.12166 -0.46907,-0.24609 -0.87109,-0.37304 -0.39673,-0.13224 -0.86923,-0.19727 -1.41407,-0.19727 z m 17.21094,0 c -1.2325,0 -2.20076,0.40104 -2.9043,1.20508 -0.69823,0.79874 -1.04687,1.85669 -1.04687,3.17383 0,1.2854 0.35368,2.33325 1.0625,3.14257 0.70882,0.80404 1.67204,1.20508 2.88867,1.20508 1.19019,0 2.14836,-0.40356 2.87305,-1.21289 0.72469,-0.81461 1.08594,-1.85994 1.08594,-3.13476 0,-1.31714 -0.34864,-2.37509 -1.04688,-3.17383 -0.69824,-0.80404 -1.66902,-1.20508 -2.91211,-1.20508 z m 9.79883,0 c -1.26425,0 -2.2129,0.44336 -2.84766,1.33203 l -0.14257,-1.1582 -1.14258,0 0,8.39453 1.3164,0 0,-4.68164 c 0,-1.92017 0.86149,-2.88086 2.58594,-2.88086 0.64006,0 1.08789,0.19393 1.3418,0.58008 0.2539,0.38086 0.38086,0.94865 0.38086,1.70508 l 0,5.27734 1.3164,0 0,-5.13281 c 0,-1.15316 -0.22925,-2.01408 -0.68945,-2.58008 -0.45492,-0.57129 -1.16171,-0.85547 -2.11914,-0.85547 z m 7.41992,0 c -0.87809,0 -1.56217,0.21159 -2.04883,0.63477 -0.48665,0.41788 -0.72851,0.96801 -0.72851,1.65039 0,0.55013 0.13957,0.99853 0.41992,1.34765 0.28035,0.34384 0.79825,0.63754 1.55469,0.88086 l 0.92187,0.29297 c 0.60832,0.19571 1.02702,0.40478 1.25977,0.62695 0.23275,0.22217 0.34961,0.49822 0.34961,0.82618 0,0.47607 -0.13956,0.83984 -0.41992,1.09375 -0.28036,0.24862 -0.67383,0.37304 -1.18165,0.37304 -0.80932,0 -1.7176,-0.23933 -2.72265,-0.7207 l 0,1.10156 c 0.86751,0.4126 1.74357,0.61914 2.62695,0.61914 0.39673,0 0.7605,-0.0474 1.09375,-0.14258 0.33854,-0.0952 0.64177,-0.2373 0.90625,-0.42773 0.26978,-0.19043 0.48136,-0.44434 0.63477,-0.76172 0.1534,-0.32267 0.22851,-0.69344 0.22851,-1.11133 0,-0.33854 -0.0303,-0.62467 -0.0937,-0.85742 -0.0635,-0.23803 -0.18033,-0.45971 -0.34961,-0.66601 -0.16926,-0.2063 -0.40551,-0.38567 -0.70703,-0.53907 -0.29622,-0.15869 -0.6796,-0.31282 -1.15039,-0.46093 l -0.83203,-0.26172 c -0.54484,-0.17456 -0.903,-0.33879 -1.07227,-0.49219 -0.16927,-0.1534 -0.2539,-0.40226 -0.2539,-0.74609 0,-0.40731 0.12948,-0.71615 0.38867,-0.92774 0.26449,-0.21687 0.70223,-0.32617 1.31055,-0.32617 0.68237,0 1.38721,0.18636 2.11718,0.55664 l 0.31055,-0.97656 c -0.79346,-0.39144 -1.64738,-0.58594 -2.5625,-0.58594 z m -132.746092,0.0859 c -0.507813,0 -0.990967,0.14405 -1.451172,0.42968 -0.454915,0.28039 -0.842773,0.7212 -1.160156,1.32422 l -0.142578,-1.66601 -1.054688,0 0,8.39453 1.316407,0 0,-4.75195 c 0,-0.74585 0.233724,-1.37809 0.699218,-1.89649 0.470785,-0.51839 1.065755,-0.77734 1.785157,-0.77734 0.148112,0 0.327474,0.0202 0.539062,0.0625 l 0.05664,-1.07813 c -0.153402,-0.0265 -0.349854,-0.041 -0.587891,-0.041 z m 9.791016,0.0879 3.246094,8.39453 1.324218,0 3.181641,-8.39453 -1.339844,0 c -0.275065,0.77229 -0.693197,1.92751 -1.253906,3.46679 -0.55542,1.53934 -0.971029,2.69643 -1.246094,3.46876 -0.343831,-0.90986 -0.841553,-2.24887 -1.492187,-4.01563 -0.645346,-1.76677 -1.001547,-2.74008 -1.070313,-2.91992 l -1.349609,0 z m 9.458984,0 0,8.39453 1.300781,0 0,-8.39453 -1.300781,0 z m 12.869141,0 0,5.125 c 0,1.13728 0.248863,1.99568 0.746093,2.57226 0.502524,0.57129 1.239584,0.85547 2.212891,0.85547 0.687663,0 1.230225,-0.1023 1.626953,-0.30859 0.402019,-0.21159 0.738037,-0.52995 1.007813,-0.95313 l 0.134765,1.10352 1.142578,0 0,-8.39453 -1.316406,0 0,4.71289 c 0,0.33325 -0.02466,0.63704 -0.07227,0.91211 -0.04761,0.27506 -0.12972,0.53402 -0.246094,0.77734 -0.116373,0.24334 -0.266032,0.44735 -0.451172,0.61133 -0.179851,0.16398 -0.413574,0.29346 -0.699219,0.38867 -0.280354,0.0952 -0.601807,0.14258 -0.966797,0.14258 -0.645345,0 -1.108317,-0.19198 -1.388671,-0.57813 -0.275066,-0.38612 -0.414063,-0.95336 -0.414063,-1.69921 l 0,-5.26758 -1.316406,0 z m 76.156251,0 0,8.39453 1.30078,0 0,-8.39453 -1.30078,0 z m -102.847658,0.83203 c 1.333005,0 2.030271,0.90576 2.09375,2.71484 l -4.570312,0 c 0.07406,-0.83577 0.333008,-1.49772 0.777344,-1.98437 0.449626,-0.48666 1.016846,-0.73047 1.699218,-0.73047 z m 21.074219,0 c 0.862224,0 1.512126,0.31079 1.951172,0.92969 0.439047,0.6136 0.658203,1.43277 0.658203,2.45898 0,0.65592 -0.08968,1.23071 -0.269531,1.72266 -0.17985,0.48665 -0.471028,0.8776 -0.873047,1.17383 -0.396728,0.29093 -0.884928,0.43554 -1.466797,0.43554 -0.846354,0 -1.491211,-0.30631 -1.935547,-0.91992 -0.444336,-0.61361 -0.667968,-1.42016 -0.667968,-2.41992 0,-1.02091 0.223632,-1.83757 0.667968,-2.45117 0.444336,-0.6189 1.089193,-0.92969 1.935547,-0.92969 z m 36.148438,0 c 0.862223,0 1.514078,0.31079 1.953125,0.92969 0.439046,0.6136 0.658206,1.43277 0.658206,2.45898 0,0.65592 -0.0897,1.23071 -0.26953,1.72266 -0.17985,0.48665 -0.471032,0.8776 -0.873051,1.17383 -0.396729,0.29093 -0.886882,0.43554 -1.46875,0.43554 -0.846354,0 -1.491211,-0.30631 -1.935547,-0.91992 -0.444336,-0.61361 -0.666016,-1.42016 -0.666016,-2.41992 0,-1.02091 0.22168,-1.83757 0.666016,-2.45117 0.444336,-0.6189 1.089193,-0.92969 1.935547,-0.92969 z m 27.105471,0 c 1.33301,0 2.03028,0.90576 2.09375,2.71484 l -4.57031,0 c 0.0741,-0.83577 0.33496,-1.49772 0.77929,-1.98437 0.44963,-0.48666 1.01489,-0.73047 1.69727,-0.73047 z m 25.77148,0 c 0.86223,0 1.51213,0.31079 1.95117,0.92969 0.43905,0.6136 0.66016,1.43277 0.66016,2.45898 0,0.65592 -0.0916,1.23071 -0.27148,1.72266 -0.17986,0.48665 -0.46908,0.8776 -0.8711,1.17383 -0.39673,0.29093 -0.88688,0.43554 -1.46875,0.43554 -0.84635,0 -1.49121,-0.30631 -1.93554,-0.91992 -0.44434,-0.61361 -0.66797,-1.42016 -0.66797,-2.41992 0,-1.02091 0.22363,-1.83757 0.66797,-2.45117 0.44433,-0.6189 1.08919,-0.92969 1.93554,-0.92969 z M 20,130 l 0,1 216,0 0,-1 -216,0 z m 55.46875,12.25195 0,5.68164 c 0,1.0254 0.294759,1.8392 0.884766,2.44141 0.590006,0.60221 1.458008,0.90234 2.605468,0.90234 0.573731,0 1.085611,-0.0814 1.533204,-0.24414 0.44759,-0.16682 0.811034,-0.39827 1.091796,-0.69531 0.284831,-0.30111 0.5,-0.65185 0.646485,-1.05469 0.146484,-0.40283 0.220703,-0.84781 0.220703,-1.33203 l 0,-5.69922 -1.074219,0 0,5.66407 c 0,0.82194 -0.204427,1.4458 -0.611328,1.87304 -0.406901,0.42318 -1.009115,0.63477 -1.806641,0.63477 -1.611328,0 -2.416015,-0.83545 -2.416015,-2.50781 l 0,-5.66407 -1.074219,0 z m 16.216797,0 c -0.195312,0 -0.356283,0.0596 -0.482422,0.18164 -0.122071,0.118 -0.183594,0.27361 -0.183594,0.46485 0,0.19124 0.06152,0.34668 0.183594,0.46875 0.126139,0.12207 0.28711,0.18359 0.482422,0.18359 0.191244,0 0.350423,-0.0615 0.476562,-0.18359 0.126139,-0.12207 0.189454,-0.27751 0.189453,-0.46875 0,-0.19124 -0.06331,-0.34685 -0.189453,-0.46485 -0.12207,-0.12207 -0.281249,-0.18164 -0.476562,-0.18164 z m 26.048833,0 c -0.19532,0 -0.35433,0.0596 -0.48047,0.18164 -0.12207,0.118 -0.1836,0.27361 -0.1836,0.46485 0,0.19124 0.0615,0.34668 0.1836,0.46875 0.12614,0.12207 0.28515,0.18359 0.48047,0.18359 0.19123,0 0.35042,-0.0615 0.47656,-0.18359 0.12614,-0.12207 0.18945,-0.27751 0.18945,-0.46875 0,-0.19124 -0.0633,-0.34685 -0.18945,-0.46485 -0.12207,-0.12207 -0.28126,-0.18164 -0.47656,-0.18164 z m 3.73046,0.6836 -0.8125,0.0605 -0.16406,1.70899 -0.99609,0.0664 -0.0234,0.57422 0.99414,0 0,3.88086 c 0,0.3947 0.0343,0.71485 0.10352,0.95899 0.0692,0.24414 0.19401,0.44482 0.37304,0.60351 0.18311,0.15873 0.42009,0.26908 0.70899,0.33008 0.2889,0.0611 0.66682,0.0918 1.13476,0.0918 l 0.41992,0 0.0488,-0.69532 -0.51172,-0.0254 c -0.54118,-0.0203 -0.88834,-0.1053 -1.04296,-0.25585 -0.15462,-0.15462 -0.23243,-0.49105 -0.23243,-1.00782 l 0,-3.88086 1.70899,0 0,-0.64062 -1.70899,0 0,-1.76953 z m -34.210934,1.63476 c -0.972493,0 -1.703125,0.3418 -2.191406,1.02539 l -0.109375,-0.89062 -0.878906,0 0,6.45703 1.013672,0 0,-3.60156 c 0,-1.47706 0.663737,-2.21485 1.990234,-2.21485 0.49235,0 0.835937,0.14828 1.03125,0.44532 0.195313,0.29296 0.292969,0.73062 0.292969,1.3125 l 0,4.05859 1.011718,0 0,-3.94922 c 10e-7,-0.88705 -0.175293,-1.54704 -0.529296,-1.98242 -0.349936,-0.43945 -0.894369,-0.66016 -1.63086,-0.66016 z m 15.998044,0 c -0.85449,0 -1.55793,0.30746 -2.11133,0.92188 -0.55338,0.61442 -0.83007,1.43913 -0.83007,2.47265 0,1.02132 0.28206,1.82959 0.84765,2.42774 0.5656,0.59407 1.3016,0.89258 2.20899,0.89258 0.8138,0 1.54084,-0.18995 2.17969,-0.56836 l -0.21485,-0.71485 c -0.3418,0.1709 -0.65104,0.29932 -0.92773,0.38477 -0.2767,0.0855 -0.58221,0.12891 -0.91992,0.1289 -0.62257,0 -1.12712,-0.1971 -1.51368,-0.59179 -0.38657,-0.39876 -0.59637,-1.01009 -0.6289,-1.83203 l 4.36328,0 0.0371,-0.51172 c 0,-0.94402 -0.21338,-1.68197 -0.64063,-2.21094 -0.42317,-0.53304 -1.03987,-0.79883 -1.84961,-0.79883 z m 10.31446,0 c -0.67546,0 -1.19988,0.16276 -1.57422,0.48828 -0.37435,0.32146 -0.5625,0.74465 -0.5625,1.26953 0,0.42318 0.10856,0.76856 0.32422,1.03711 0.21566,0.26449 0.61344,0.49057 1.19531,0.67774 l 0.70898,0.22656 c 0.46794,0.15055 0.79167,0.31152 0.97071,0.48242 0.17903,0.1709 0.26757,0.38249 0.26757,0.63477 0,0.36621 -0.10661,0.64648 -0.32226,0.8418 -0.21566,0.19124 -0.51953,0.2871 -0.91016,0.2871 -0.62255,0 -1.32063,-0.18636 -2.09375,-0.55664 l 0,0.84961 c 0.66732,0.31738 1.34196,0.47657 2.02149,0.47657 0.30518,0 0.58545,-0.0381 0.84179,-0.11133 0.26042,-0.0732 0.49186,-0.18164 0.69532,-0.32813 0.20752,-0.14648 0.37028,-0.34179 0.48828,-0.58593 0.118,-0.24821 0.17773,-0.53402 0.17773,-0.85547 0,-0.26042 -0.0254,-0.47917 -0.0742,-0.65821 -0.0488,-0.1831 -0.13735,-0.35498 -0.26758,-0.51367 -0.1302,-0.15869 -0.31103,-0.29606 -0.54296,-0.41406 -0.22787,-0.12207 -0.52458,-0.24154 -0.88672,-0.35547 l -0.64063,-0.20117 c -0.4191,-0.13428 -0.69401,-0.26091 -0.82422,-0.37891 -0.1302,-0.118 -0.19531,-0.30778 -0.19531,-0.57226 0,-0.31332 0.1014,-0.55209 0.30078,-0.71485 0.20345,-0.16683 0.53792,-0.25 1.00586,-0.25 0.5249,0 1.06933,0.1429 1.63086,0.42774 l 0.23633,-0.75196 c -0.61035,-0.3011 -1.26676,-0.45117 -1.9707,-0.45117 z m -3.47852,0.0664 c -0.39062,0 -0.76318,0.11035 -1.11719,0.33008 -0.34993,0.21565 -0.64648,0.55566 -0.89062,1.01953 l -0.11133,-1.28125 -0.81055,0 0,6.45703 1.01368,0 0,-3.65625 c 0,-0.57373 0.17903,-1.06023 0.5371,-1.45898 0.36214,-0.39877 0.81966,-0.59766 1.37305,-0.59766 0.11393,0 0.2513,0.0163 0.41406,0.0488 l 0.043,-0.83008 c -0.118,-0.0203 -0.26806,-0.0312 -0.45117,-0.0312 z m -18.908202,0.0684 0,6.45703 1,0 0,-6.45703 -1,0 z m 2.34375,0 2.496093,6.45703 1.019531,0 2.447266,-6.45703 -1.03125,0 c -0.211589,0.59408 -0.533529,1.48193 -0.964844,2.66601 -0.427246,1.18408 -0.747395,2.07389 -0.958984,2.66797 -0.264486,-0.69987 -0.645996,-1.72884 -1.146484,-3.08789 -0.496417,-1.35905 -0.771319,-2.10775 -0.824219,-2.24609 l -1.037109,0 z m 23.705082,0 0,6.45703 1.00195,0 0,-6.45703 -1.00195,0 z m 6.92187,0 2.55664,6.26172 -0.95117,2.42968 0.9082,0.19532 3.40039,-8.88672 -1.02539,0 -1.84375,5.15625 -2.01367,-5.15625 -1.03125,0 z m -20.875,0.64062 c 1.02542,0 1.56253,0.69629 1.61133,2.08789 l -3.51563,0 c 0.057,-0.6429 0.25781,-1.15299 0.59961,-1.52734 0.34587,-0.37435 0.77979,-0.56055 1.30469,-0.56055 z M 44,150.91016 c -3.877991,0 -7.377708,1.55935 -9.908203,4.08984 l 0.900391,0.90039 c 2.300457,-2.30047 5.482363,-3.71875 9.007812,-3.71875 3.525459,0 6.707344,1.41828 9.007812,3.71875 L 53.908203,155 C 51.377708,152.46951 47.878001,150.91016 44,150.91016 Z M 44,156 c -2.467814,0 -4.696323,0.9932 -6.306641,2.60352 l 0.902344,0.90234 c 1.380283,-1.3803 3.289025,-2.23242 5.404297,-2.23242 2.115271,0 4.024025,0.85212 5.404297,2.23242 l 0.902344,-0.90234 C 48.696323,156.9932 46.467824,156 44,156 Z m 0,5.0918 c -1.410178,0 -2.544922,1.13473 -2.544922,2.54492 0,1.41019 1.134744,2.54492 2.544922,2.54492 1.410188,0 2.544922,-1.13473 2.544922,-2.54492 0,-1.41019 -1.134734,-2.54492 -2.544922,-2.54492 z m 0,1.27148 c 0.705094,0 1.273438,0.5684 1.273438,1.27344 0,0.70515 -0.568344,1.27344 -1.273438,1.27344 -0.705084,0 -1.273438,-0.56829 -1.273438,-1.27344 0,-0.70504 0.568354,-1.27344 1.273438,-1.27344 z M 44,188 c 0,0 -3.5,4.65166 -14,5.81836 0,0 0,16.33334 14,22.18164 14,-5.8483 14,-22.18164 14,-22.18164 C 47.5,192.65166 44,188 44,188 Z m 83.75195,0.17773 -1.00195,0.0742 0,8.91016 1.00195,0 0,-2.36133 0.69532,-0.66016 2.5625,3.02149 1.1914,0 -3.05273,-3.50977 2.82031,-2.94726 -1.22656,0 -3.02735,3.27734 0.0371,-1.33008 0,-4.47461 z m -52.734372,0.0742 3.289063,8.91016 0.939453,0 3.291015,-8.91016 -1.105468,0 c -0.12614,0.35808 -0.513184,1.46843 -1.160157,3.33203 -0.642903,1.85954 -1.138346,3.28093 -1.488281,4.26563 -0.268555,-0.74463 -0.552572,-1.53858 -0.849609,-2.38086 -0.29297,-0.84635 -0.61849,-1.78483 -0.976563,-2.81836 -0.358072,-1.03759 -0.634765,-1.83691 -0.830078,-2.39844 l -1.109375,0 z m 8.886719,0 0,8.91016 1.074219,0 0,-4.30859 1.927734,0 c 1.005045,0 1.737468,-0.20443 2.197266,-0.61133 0.459798,-0.41097 0.689453,-1.01498 0.689453,-1.8125 0,-0.39063 -0.07048,-0.72884 -0.212891,-1.01367 -0.138346,-0.2889 -0.340983,-0.51677 -0.605469,-0.6836 -0.264485,-0.16683 -0.564615,-0.28793 -0.902343,-0.36523 -0.337728,-0.0773 -0.721192,-0.11524 -1.148438,-0.11524 l -3.019531,0 z m 7.298828,0 0,8.91016 0.994141,0 0,-4.76758 -0.08398,-2.76953 5.064453,7.53711 1.105469,0 0,-8.91016 -0.988281,0 0,5.07813 0.05469,2.50781 -5.083984,-7.58594 -1.0625,0 z m 11.242185,0 2.67969,8.91016 1.01953,0 2.26367,-7.43945 2.21094,7.43945 1.04297,0 2.67969,-8.91016 -1.03711,0 -2.17383,7.54297 -2.21484,-7.35547 -1.03711,0 -2.22266,7.36133 -2.19141,-7.54883 -1.01953,0 z m -17.466794,0.80469 1.939453,0 c 0.585937,0 1.032714,0.10677 1.33789,0.31836 0.309245,0.20752 0.462891,0.56185 0.462891,1.06641 0,0.58594 -0.13916,0.99837 -0.419922,1.23437 -0.276693,0.23601 -0.748697,0.35352 -1.416016,0.35352 l -1.904296,0 0,-2.97266 z m 32.896484,1.51367 c -0.94808,0 -1.69124,0.30925 -2.23242,0.92774 -0.53711,0.61442 -0.80664,1.42822 -0.80664,2.4414 0,0.98877 0.27311,1.79541 0.81836,2.41797 0.54524,0.61849 1.28483,0.92774 2.2207,0.92774 0.91553,0 1.65348,-0.313 2.21094,-0.93555 0.55745,-0.62663 0.83594,-1.42952 0.83594,-2.41016 0,-1.01318 -0.26954,-1.82698 -0.80665,-2.4414 -0.5371,-0.61849 -1.28401,-0.92774 -2.24023,-0.92774 z m 7.32422,0.0664 c -0.39063,0 -0.76319,0.11035 -1.11719,0.33008 -0.34994,0.21565 -0.64648,0.55566 -0.89062,1.01953 l -0.10938,-1.28125 -0.8125,0 0,6.45703 1.01367,0 0,-3.65625 c 0,-0.57373 0.17904,-1.06024 0.53711,-1.45898 0.36215,-0.39877 0.81966,-0.59766 1.37305,-0.59766 0.11393,0 0.25325,0.0163 0.41602,0.0488 l 0.043,-0.83008 c -0.118,-0.0203 -0.27001,-0.0312 -0.45312,-0.0312 z m -7.32422,0.70898 c 0.66325,0 1.16423,0.23877 1.50195,0.71485 0.33774,0.472 0.50586,1.10124 0.50586,1.89062 0,0.50456 -0.0687,0.9458 -0.20703,1.32422 -0.13835,0.37435 -0.36263,0.67643 -0.67187,0.9043 -0.30518,0.22379 -0.68132,0.33594 -1.12891,0.33593 -0.65104,0 -1.14648,-0.23697 -1.48828,-0.70898 -0.34179,-0.472 -0.51367,-1.09228 -0.51367,-1.86133 0,-0.78532 0.17188,-1.41276 0.51367,-1.88476 0.3418,-0.47608 0.83724,-0.71485 1.48828,-0.71485 z M 44,196.16602 c 1.932991,0 3.5,1.567 3.5,3.5 0,1.4497 -0.894185,2.67768 -2.150391,3.20898 l 0.984375,4.95898 -4.667968,0 0.984375,-4.95898 C 41.394185,202.3437 40.5,201.11572 40.5,199.66602 c 0,-1.933 1.56701,-3.5 3.5,-3.5 z"
     id="path13622" />
  <path
     style="fill:currentColor;fill-opacity:0.5;stroke:none"
     class="ColorScheme-Text"
     d="m 80.015625,80.42188 c -0.834147,0 -1.57015,0.193525 -2.208984,0.580078 -0.634766,0.382487 -1.123047,0.917809 -1.464844,1.605469 -0.341797,0.687667 -0.513672,1.474281 -0.513672,2.361328 0,0.691727 0.104981,1.326497 0.3125,1.904297 0.211589,0.5778 0.504558,1.064291 0.878906,1.458984 0.37435,0.390627 0.820964,0.696289 1.341797,0.916016 0.524902,0.21566 1.094564,0.324219 1.708984,0.324219 0.878906,0 1.661947,-0.175451 2.34961,-0.525391 l -0.25,-0.798828 c -0.667317,0.313313 -1.329264,0.46875 -1.984375,0.46875 -1.009115,0 -1.808431,-0.340011 -2.398438,-1.019531 -0.585937,-0.679527 -0.878906,-1.5765 -0.878906,-2.691407 0,-1.11084 0.285808,-2.009599 0.855469,-2.697265 0.573731,-0.691734 1.354981,-1.03711 2.34375,-1.03711 0.769043,0 1.439942,0.179036 2.013672,0.53711 l 0.353515,-0.703125 C 81.839844,80.649747 81.020671,80.42188 80.015625,80.42188 Z m 78.060545,0 c -0.45572,0 -0.90609,0.0669 -1.34961,0.201172 -0.44352,0.130207 -0.8016,0.296707 -1.07422,0.496094 l 0.30078,0.773437 c 0.28076,-0.183107 0.59896,-0.331386 0.95704,-0.445312 0.36214,-0.113934 0.71484,-0.169922 1.05664,-0.169922 0.15462,0 0.30289,0.0145 0.44531,0.04297 0.14241,0.02441 0.29069,0.07503 0.44531,0.152344 0.15463,0.07324 0.28663,0.169103 0.39649,0.28711 0.10986,0.113926 0.20215,0.269363 0.27539,0.46875 0.0732,0.19938 0.10937,0.429039 0.10937,0.689453 0,0.240073 -0.0235,0.460776 -0.0723,0.660156 -0.0448,0.195313 -0.13168,0.395996 -0.25782,0.603516 -0.12614,0.20752 -0.23828,0.375813 -0.33593,0.501953 -0.0977,0.12614 -0.25667,0.317711 -0.48047,0.578125 l -2.875,3.394531 0.1582,0.798828 4.76758,0 0.0547,-0.732422 -3.83985,0 2.39258,-2.800781 c 0.2889,-0.337727 0.51318,-0.614425 0.67188,-0.830078 0.16276,-0.21566 0.31103,-0.447099 0.44531,-0.695313 0.13837,-0.252273 0.23245,-0.501953 0.28125,-0.746093 0.0529,-0.244147 0.0781,-0.520839 0.0781,-0.830079 0,-0.354006 -0.0524,-0.670411 -0.1582,-0.951171 -0.10579,-0.284834 -0.24316,-0.514487 -0.41406,-0.689453 -0.1709,-0.179034 -0.37175,-0.32552 -0.59961,-0.439454 -0.22787,-0.118026 -0.45573,-0.199407 -0.6836,-0.24414 -0.22379,-0.0488 -0.45523,-0.07422 -0.69531,-0.07422 z m 7.39844,0 c -0.79752,0 -1.44677,0.200849 -1.94727,0.599609 -0.50048,0.39876 -0.75195,0.937661 -0.75195,1.617188 0,0.520833 0.1556,0.969236 0.46484,1.347656 0.31332,0.37842 0.71843,0.64974 1.21485,0.8125 -0.59815,0.20752 -1.0612,0.516768 -1.38672,0.927734 -0.32145,0.406901 -0.48242,0.909666 -0.48242,1.507813 0,0.49642 0.13395,0.924969 0.39844,1.287109 0.26855,0.36214 0.61572,0.629882 1.04296,0.800782 0.42725,0.1709 0.90642,0.255859 1.43946,0.255859 0.826,0 1.51334,-0.206214 2.05859,-0.617187 0.54525,-0.410967 0.81641,-0.986003 0.81641,-1.726563 0,-0.565593 -0.16634,-1.070152 -0.5,-1.513672 -0.33366,-0.443527 -0.78027,-0.75456 -1.3418,-0.933594 0.50863,-0.183106 0.9082,-0.456219 1.20117,-0.818359 0.29704,-0.366213 0.44531,-0.809245 0.44531,-1.330078 0,-0.683593 -0.24772,-1.222494 -0.74414,-1.617188 -0.49235,-0.39876 -1.13427,-0.599609 -1.92773,-0.599609 z m 41.25391,0 c -0.45573,0 -0.90609,0.0669 -1.34961,0.201172 -0.44352,0.130207 -0.8016,0.296707 -1.07422,0.496094 l 0.29883,0.773437 c 0.28076,-0.183107 0.60091,-0.331386 0.95898,-0.445312 0.36214,-0.113934 0.71289,-0.169922 1.05469,-0.169922 0.15462,0 0.3029,0.0145 0.44531,0.04297 0.14242,0.02441 0.29265,0.07503 0.44727,0.152344 0.15462,0.07324 0.28661,0.169103 0.39648,0.28711 0.10986,0.113926 0.20019,0.269363 0.27344,0.46875 0.0732,0.19938 0.11133,0.429039 0.11133,0.689453 0,0.240073 -0.0254,0.460776 -0.0742,0.660156 -0.0448,0.195313 -0.12972,0.395996 -0.25586,0.603516 -0.12614,0.20752 -0.23829,0.375813 -0.33594,0.501953 -0.0977,0.12614 -0.25863,0.317711 -0.48242,0.578125 l -2.875,3.394531 0.1582,0.798828 4.76758,0 0.0547,-0.732422 -3.83789,0 2.39257,-2.800781 c 0.2889,-0.337727 0.51123,-0.614425 0.66993,-0.830078 0.16276,-0.21566 0.31104,-0.447099 0.44531,-0.695313 0.13837,-0.252273 0.23245,-0.501953 0.28125,-0.746093 0.0529,-0.244147 0.0801,-0.520839 0.0801,-0.830079 0,-0.354006 -0.0524,-0.670411 -0.15821,-0.951171 -0.10579,-0.284834 -0.24511,-0.514487 -0.41601,-0.689453 -0.1709,-0.179034 -0.3698,-0.32552 -0.59766,-0.439454 -0.22786,-0.118026 -0.45573,-0.199407 -0.68359,-0.24414 -0.2238,-0.0488 -0.45524,-0.07422 -0.69531,-0.07422 z m 7.42187,0 c -0.65105,0 -1.20443,0.193525 -1.66016,0.580078 -0.45572,0.382487 -0.79573,0.916016 -1.01953,1.599609 -0.21972,0.679527 -0.33008,1.487955 -0.33008,2.423829 0,0.675453 0.0597,1.28841 0.17774,1.841797 0.12207,0.549313 0.30111,1.034011 0.53711,1.453124 0.24007,0.415034 0.55289,0.73877 0.93945,0.970704 0.39062,0.227866 0.84277,0.341796 1.35547,0.341796 0.50863,10e-7 0.95345,-0.11393 1.33594,-0.341796 0.38655,-0.231934 0.69401,-0.557456 0.92187,-0.976563 0.23194,-0.419107 0.40365,-0.903805 0.51758,-1.453125 0.11393,-0.549313 0.17188,-1.160484 0.17188,-1.835937 0,-0.70394 -0.0615,-1.335125 -0.1836,-1.892579 -0.12207,-0.561526 -0.3029,-1.044432 -0.54297,-1.447265 -0.236,-0.4069 -0.54345,-0.717941 -0.92187,-0.933594 -0.37435,-0.219727 -0.80648,-0.330078 -1.29883,-0.330078 z m -80.74805,0.04883 -1.01172,0.07422 0,2.007812 0.0488,1.470704 c -0.0977,-0.179034 -0.20264,-0.330892 -0.3125,-0.457032 -0.10579,-0.130213 -0.236,-0.251468 -0.39062,-0.361328 -0.15462,-0.113967 -0.33903,-0.198926 -0.55469,-0.255859 -0.21565,-0.057 -0.45979,-0.08594 -0.73242,-0.08594 -0.85449,0 -1.53272,0.305663 -2.0332,0.916016 -0.49642,0.610353 -0.74414,1.409671 -0.74414,2.398437 -1e-5,1.041667 0.24055,1.869955 0.7207,2.484375 0.48421,0.610354 1.17138,0.916016 2.0625,0.916016 0.92366,0 1.59456,-0.421385 2.01367,-1.263672 l 0.0918,1.140625 0.84179,0 0,-8.984375 z m 15.20704,0.07422 -0.16993,4.716797 0.81641,0.09766 c 0.18718,-0.19938 0.42416,-0.356609 0.70898,-0.474609 0.28484,-0.118007 0.5778,-0.177735 0.87891,-0.177735 0.41097,0 0.75456,0.09228 1.03125,0.275391 0.27669,0.17904 0.4738,0.410486 0.5918,0.695312 0.118,0.280767 0.17773,0.602704 0.17773,0.964844 0,0.65918 -0.18262,1.170903 -0.54883,1.53711 -0.36214,0.362146 -0.84863,0.542968 -1.45898,0.542968 -0.68359,0 -1.41781,-0.220536 -2.20313,-0.664062 l -0.34961,0.787109 c 0.88298,0.492347 1.75651,0.738281 2.61914,0.738281 0.41911,0 0.80795,-0.06331 1.16602,-0.189453 0.35807,-0.12614 0.6709,-0.308761 0.93945,-0.548828 0.27262,-0.24414 0.48421,-0.555174 0.63477,-0.933594 0.15462,-0.382486 0.23242,-0.812989 0.23242,-1.289062 0,-0.500487 -0.10123,-0.952636 -0.30469,-1.355469 -0.19938,-0.4069 -0.50505,-0.734208 -0.91601,-0.982422 -0.41098,-0.25228 -0.89567,-0.376953 -1.45313,-0.376953 -0.61035,0 -1.15283,0.159016 -1.6289,0.480469 l 0.0976,-3.039063 3.74805,0 0.0781,-0.804687 -4.6875,0 z m 24.39062,0 0,8.910156 3.32031,0 c 1.02946,0 1.80339,-0.220542 2.32422,-0.664062 0.5249,-0.447594 0.78711,-1.06429 0.78711,-1.84961 0,-0.565593 -0.15365,-1.032231 -0.46289,-1.398437 -0.30518,-0.37028 -0.74105,-0.636062 -1.30664,-0.798828 0.51676,-0.19938 0.88216,-0.46159 1.09375,-0.78711 0.21566,-0.329586 0.32226,-0.738276 0.32226,-1.226562 0,-0.744627 -0.26758,-1.294438 -0.80468,-1.648438 -0.53304,-0.358073 -1.35954,-0.537109 -2.47852,-0.537109 l -2.79492,0 z m 11.47461,0 -3.7168,8.910156 0.87891,0 3.74023,-8.910156 -0.90234,0 z m 37.17578,0 0,8.910156 3.32031,0 c 1.02946,0 1.80534,-0.220542 2.32618,-0.664062 0.52489,-0.447594 0.7871,-1.06429 0.7871,-1.84961 0,-0.565593 -0.15559,-1.032231 -0.46484,-1.398437 -0.30517,-0.37028 -0.73909,-0.636062 -1.30469,-0.798828 0.51677,-0.19938 0.88021,-0.46159 1.0918,-0.78711 0.21566,-0.329586 0.32422,-0.738276 0.32422,-1.226562 0,-0.744627 -0.26953,-1.294438 -0.80664,-1.648438 -0.53304,-0.358073 -1.35954,-0.537109 -2.47852,-0.537109 l -2.79492,0 z m 11.47461,0 -3.7168,8.910156 0.87891,0 3.74219,-8.910156 -0.9043,0 z m -67.6582,0.628906 c 0.51676,0 0.93099,0.131998 1.24023,0.396484 0.30925,0.260414 0.46289,0.607583 0.46289,1.042969 0,0.48014 -0.14095,0.879879 -0.42578,1.197266 -0.28483,0.31738 -0.71175,0.53613 -1.27734,0.658203 -0.56152,-0.12614 -0.98828,-0.34489 -1.28125,-0.658203 -0.2889,-0.317387 -0.4336,-0.717126 -0.4336,-1.197266 0,-0.431313 0.15739,-0.778482 0.47071,-1.042969 0.31738,-0.264486 0.73144,-0.396484 1.24414,-0.396484 z m -47.1211,0.05469 -0.8125,0.06055 -0.16406,1.708985 -0.99414,0.06641 -0.0254,0.574219 0.99414,0 0,3.882812 c 0,0.3947 0.0363,0.712892 0.10547,0.957032 0.0692,0.24414 0.19205,0.446782 0.37109,0.605468 0.18311,0.158727 0.42009,0.267125 0.70899,0.328125 0.2889,0.06107 0.66683,0.0918 1.13476,0.0918 l 0.42188,0 0.0488,-0.695312 -0.51368,-0.02344 c -0.54118,-0.02035 -0.88834,-0.107259 -1.04297,-0.257812 -0.15462,-0.15462 -0.23242,-0.489093 -0.23242,-1.00586 l 0,-3.882812 1.70899,0 0,-0.640625 -1.70899,0 0,-1.769531 z m 95.80469,0.01758 c 1.29394,0 1.93945,1.247881 1.93945,3.742187 0,1.25732 -0.16813,2.208496 -0.50586,2.855469 -0.33366,0.642907 -0.81104,0.964844 -1.43359,0.964844 -0.6307,0 -1.12451,-0.32373 -1.47851,-0.970703 -0.34994,-0.651047 -0.52344,-1.598637 -0.52344,-2.84375 -0.004,-1.19222 0.17122,-2.114585 0.52929,-2.765625 0.35808,-0.655114 0.8501,-0.982422 1.47266,-0.982422 z m -40.07617,0.103515 1.71484,0 c 0.8016,0 1.37842,0.108559 1.73242,0.324219 0.35401,0.215653 0.53125,0.609861 0.53125,1.183594 0,0.56966 -0.16276,0.969399 -0.48828,1.197266 -0.32552,0.223793 -0.8011,0.335937 -1.42773,0.335937 l -2.0625,0 0,-3.041016 z m 48.65039,0 1.71484,0 c 0.8016,0 1.38038,0.108559 1.73438,0.324219 0.354,0.215653 0.53125,0.609861 0.53125,1.183594 0,0.56966 -0.16276,0.969399 -0.48828,1.197266 -0.32553,0.223793 -0.80306,0.335937 -1.42969,0.335937 l -2.0625,0 0,-3.041016 z M 86.533203,82.863286 c -0.948079,0 -1.691243,0.309241 -2.232422,0.927735 -0.537109,0.61442 -0.80664,1.428226 -0.80664,2.441406 0,0.988773 0.273112,1.795415 0.818359,2.417969 0.545248,0.618493 1.284831,0.927734 2.220703,0.927734 0.915527,0 1.653483,-0.311034 2.210938,-0.933594 0.557454,-0.626626 0.835937,-1.431476 0.835937,-2.412109 0,-1.01318 -0.269531,-1.826986 -0.80664,-2.441406 -0.53711,-0.618494 -1.284018,-0.927735 -2.240235,-0.927735 z m 7.539063,0 c -0.972494,0 -1.703125,0.341798 -2.191407,1.025391 l -0.109375,-0.890625 -0.878906,0 0,6.457031 1.011719,0 0,-3.599609 c 0,-1.477047 0.663737,-2.216797 1.990234,-2.216797 0.49235,0 0.835938,0.148272 1.03125,0.445312 0.195313,0.292967 0.292969,0.730634 0.292969,1.3125 l 0,4.058594 1.013672,0 0,-3.949219 c 0,-0.88704 -0.177247,-1.547035 -0.53125,-1.982421 -0.349935,-0.439454 -0.892416,-0.660157 -1.628906,-0.660157 z m 6.908204,0 c -0.9725,0 -1.703126,0.341798 -2.191408,1.025391 l -0.109374,-0.890625 -0.878907,0 0,6.457031 1.013672,0 0,-3.599609 c 0,-1.477047 0.663735,-2.216797 1.990237,-2.216797 0.49234,0 0.83593,0.148272 1.03125,0.445312 0.19531,0.292967 0.29297,0.730634 0.29297,1.3125 l 0,4.058594 1.01367,0 0,-3.949219 c 0,-0.88704 -0.17725,-1.547035 -0.53125,-1.982421 -0.34994,-0.439454 -0.89437,-0.660157 -1.63086,-0.660157 z m 6.37891,0 c -0.8545,0 -1.55795,0.307455 -2.11133,0.921875 -0.55339,0.61442 -0.83008,1.439123 -0.83008,2.472656 0,1.021321 0.28206,1.831541 0.84765,2.429688 0.5656,0.594073 1.3016,0.890625 2.20899,0.890625 0.8138,0 1.54085,-0.189939 2.17969,-0.568359 l -0.21289,-0.712891 c -0.3418,0.1709 -0.65104,0.297366 -0.92774,0.382813 -0.27669,0.08545 -0.58415,0.128906 -0.92187,0.128906 -0.62256,0 -1.12711,-0.197104 -1.51368,-0.591797 -0.38657,-0.398767 -0.59637,-1.010091 -0.6289,-1.832031 l 4.36328,0 0.0371,-0.511719 c 0,-0.944013 -0.21338,-1.680011 -0.64063,-2.208985 -0.42318,-0.53304 -1.03987,-0.800781 -1.8496,-0.800781 z m 6.60937,0 c -0.89925,0 -1.62989,0.30387 -2.19141,0.910157 -0.56152,0.602213 -0.84179,1.430501 -0.84179,2.484374 0,1.009114 0.27311,1.813803 0.81836,2.416016 0.54932,0.602213 1.28531,0.904297 2.20898,0.904297 0.39469,0 0.74919,-0.04704 1.0625,-0.140625 0.31331,-0.09359 0.53939,-0.194821 0.67773,-0.304688 l -0.18945,-0.689453 c -0.41097,0.236 -0.86491,0.353516 -1.36133,0.353516 -0.71208,0 -1.25276,-0.235192 -1.62304,-0.703125 -0.37028,-0.46794 -0.55664,-1.079104 -0.55664,-1.835938 0,-0.797526 0.19352,-1.43229 0.58007,-1.904296 0.38656,-0.472007 0.90023,-0.708985 1.53907,-0.708985 0.50456,0 0.95296,0.119462 1.34765,0.355469 l 0.28711,-0.697266 c -0.13834,-0.09359 -0.36068,-0.189456 -0.66992,-0.287109 -0.30518,-0.101727 -0.66878,-0.152344 -1.08789,-0.152344 z m 10.04102,0 c -0.8545,0 -1.55795,0.307455 -2.11133,0.921875 -0.55339,0.61442 -0.83008,1.439123 -0.83008,2.472656 0,1.021321 0.28206,1.831541 0.84766,2.429688 0.56559,0.594073 1.30159,0.890625 2.20898,0.890625 0.8138,0 1.54085,-0.189939 2.17969,-0.568359 L 126.0918,88.29688 c -0.3418,0.1709 -0.65104,0.297366 -0.92774,0.382813 -0.27669,0.08545 -0.58415,0.128906 -0.92187,0.128906 -0.62256,0 -1.12711,-0.197104 -1.51367,-0.591797 -0.38658,-0.398767 -0.59638,-1.010091 -0.62891,-1.832031 l 4.36328,0 0.0371,-0.511719 c 0,-0.944013 -0.21338,-1.680011 -0.64062,-2.208985 -0.42319,-0.53304 -1.03988,-0.800781 -1.84961,-0.800781 z m 64.78515,0 c -0.67546,0 -1.19987,0.162761 -1.57422,0.488281 -0.37434,0.321454 -0.5625,0.744632 -0.5625,1.269532 0,0.42318 0.10857,0.770509 0.32422,1.039062 0.21566,0.264487 0.6154,0.488608 1.19727,0.675782 l 0.70703,0.226562 c 0.46793,0.150553 0.79166,0.311522 0.9707,0.482422 0.17904,0.1709 0.26758,0.382486 0.26758,0.634766 0,0.366206 -0.10661,0.646483 -0.32227,0.841796 -0.21566,0.191247 -0.51953,0.28711 -0.91015,0.28711 -0.62256,0 -1.32064,-0.184408 -2.09375,-0.554688 l 0,0.847656 c 0.66731,0.317381 1.34196,0.476563 2.02148,0.476563 0.30518,0 0.58545,-0.03614 0.8418,-0.109375 0.26041,-0.07325 0.49186,-0.183598 0.69531,-0.330078 0.20752,-0.146487 0.37028,-0.341798 0.48828,-0.585938 0.118,-0.248213 0.17774,-0.534022 0.17774,-0.855468 0,-0.26042 -0.0254,-0.47917 -0.0742,-0.658204 -0.0488,-0.183106 -0.13737,-0.354978 -0.26758,-0.513671 -0.13021,-0.158694 -0.31103,-0.296063 -0.54297,-0.414063 -0.22786,-0.122067 -0.52262,-0.239582 -0.88476,-0.353516 l -0.64258,-0.203124 c -0.41911,-0.134274 -0.69206,-0.258947 -0.82227,-0.376954 -0.13021,-0.118 -0.19531,-0.309732 -0.19531,-0.574218 0,-0.313314 0.0994,-0.552084 0.29883,-0.714844 0.20344,-0.166827 0.53792,-0.25 1.00586,-0.25 0.5249,0 1.06933,0.142908 1.63086,0.427734 l 0.23828,-0.75 c -0.61035,-0.301106 -1.26872,-0.453125 -1.97266,-0.453125 z m 48.65235,0 c -0.67546,0 -1.20183,0.162761 -1.57618,0.488281 -0.37435,0.321454 -0.56054,0.744632 -0.56054,1.269532 0,0.42318 0.10856,0.770509 0.32422,1.039062 0.21566,0.264487 0.61344,0.488608 1.19531,0.675782 l 0.70898,0.226562 c 0.46794,0.150553 0.78971,0.311522 0.96875,0.482422 0.17904,0.1709 0.26953,0.382486 0.26953,0.634766 0,0.366206 -0.10856,0.646483 -0.32422,0.841796 -0.21565,0.191247 -0.51757,0.28711 -0.9082,0.28711 -0.62256,0 -1.32064,-0.184408 -2.09375,-0.554688 l 0,0.847656 c 0.66732,0.317381 1.34001,0.476563 2.01953,0.476563 0.30518,0 0.58545,-0.03614 0.8418,-0.109375 0.26042,-0.07325 0.49382,-0.183598 0.69727,-0.330078 0.20752,-0.146487 0.37027,-0.341798 0.48828,-0.585938 0.118,-0.248213 0.17578,-0.534022 0.17578,-0.855468 0,-0.26042 -0.0235,-0.47917 -0.0723,-0.658204 -0.0488,-0.183106 -0.13932,-0.354978 -0.26953,-0.513671 -0.13021,-0.158694 -0.31103,-0.296063 -0.54297,-0.414063 -0.22786,-0.122067 -0.52262,-0.239582 -0.88476,-0.353516 l -0.64063,-0.203124 c -0.4191,-0.134274 -0.694,-0.258947 -0.82422,-0.376954 -0.1302,-0.118 -0.19531,-0.309732 -0.19531,-0.574218 0,-0.313314 0.0995,-0.552084 0.29883,-0.714844 0.20345,-0.166827 0.53988,-0.25 1.00781,-0.25 0.52491,0 1.06739,0.142908 1.62891,0.427734 l 0.23828,-0.75 c -0.61035,-0.301106 -1.26676,-0.453125 -1.9707,-0.453125 z M 86.533203,83.638677 c 0.663249,0 1.164225,0.23877 1.501953,0.714844 0.337728,0.472006 0.507813,1.103191 0.507813,1.892578 0,0.50456 -0.07064,0.945805 -0.208985,1.324218 -0.138346,0.374354 -0.360676,0.674484 -0.669922,0.902344 -0.305175,0.2238 -0.683268,0.335938 -1.130859,0.335938 -0.651041,0 -1.146484,-0.235025 -1.488281,-0.707032 -0.341797,-0.472006 -0.513672,-1.094241 -0.513672,-1.863281 0,-0.78532 0.171875,-1.412759 0.513672,-1.884765 0.341797,-0.476074 0.83724,-0.714844 1.488281,-0.714844 z m 20.849607,0 c 1.02542,0 1.56253,0.696291 1.61133,2.08789 l -3.51562,0 c 0.057,-0.6429 0.25781,-1.151037 0.5996,-1.52539 0.34587,-0.374347 0.77979,-0.5625 1.30469,-0.5625 z m 16.65039,0 c 1.02536,0 1.56246,0.696291 1.61133,2.08789 l -3.51562,0 c 0.057,-0.6429 0.25781,-1.151037 0.59961,-1.52539 0.34586,-0.374347 0.77978,-0.5625 1.30468,-0.5625 z m 6.5625,0 c 0.60222,0 1.05616,0.224282 1.36133,0.671875 0.30925,0.447587 0.46289,1.109535 0.46289,1.984375 -0.004,0.801593 -0.15234,1.420082 -0.44531,1.855469 -0.29297,0.43538 -0.77034,0.652343 -1.43359,0.652343 -0.6307,0 -1.09734,-0.231445 -1.39844,-0.695312 -0.29704,-0.463867 -0.44531,-1.100423 -0.44531,-1.910156 0,-0.8138 0.15917,-1.443199 0.47656,-1.886719 0.31738,-0.447593 0.79117,-0.671875 1.42187,-0.671875 z m 43.47852,1.513672 1.74414,0 c 0.87891,0 1.52279,0.13379 1.92969,0.402344 0.4069,0.268553 0.60937,0.722488 0.60937,1.361328 0,0.602213 -0.17529,1.03988 -0.5293,1.3125 -0.34993,0.272626 -0.91064,0.410156 -1.67968,0.410156 l -2.07422,0 0,-3.486328 z m 48.65039,0 1.74609,0 c 0.87891,0 1.52084,0.13379 1.92774,0.402344 0.4069,0.268553 0.61133,0.722488 0.61133,1.361328 0,0.602213 -0.17725,1.03988 -0.53125,1.3125 -0.34994,0.272626 -0.9087,0.410156 -1.67774,0.410156 l -2.07617,0 0,-3.486328 z m -57.25781,0.03125 c 0.57373,0.122066 1.03678,0.353512 1.38672,0.695312 0.354,0.341794 0.53125,0.761393 0.53125,1.257813 0,1.106773 -0.64031,1.660156 -1.91797,1.660156 -0.62663,0 -1.1058,-0.144694 -1.43946,-0.433594 -0.32958,-0.2889 -0.49414,-0.695803 -0.49414,-1.220703 0,-0.5127 0.17725,-0.935878 0.53125,-1.269531 0.35401,-0.33366 0.82048,-0.563313 1.40235,-0.689453 z M 44,145.81836 c -5.288179,0 -10.062988,2.12736 -13.513672,5.57812 l 0.902344,0.90235 C 34.609308,149.0782 39.064373,147.0918 44,147.0918 c 4.935637,0 9.390692,1.9864 12.611328,5.20703 l 0.902344,-0.90235 C 54.062988,147.94572 49.288189,145.81836 44,145.81836 Z m 169.48633,14.60352 c -0.38249,0 -0.73682,0.0453 -1.06641,0.13476 -0.32959,0.0895 -0.62988,0.2251 -0.89844,0.4082 -0.26855,0.17904 -0.48013,0.42139 -0.63476,0.72657 -0.15462,0.30517 -0.23242,0.65608 -0.23242,1.05078 0,0.57373 0.15022,1.02588 0.44726,1.35547 0.29704,0.32552 0.74545,0.60221 1.34766,0.83007 l 1.45312,0.55469 c 0.56966,0.21973 0.95117,0.43669 1.14649,0.65235 0.19938,0.21158 0.30078,0.53173 0.30078,0.95898 0,0.37028 -0.0905,0.68131 -0.26953,0.93359 -0.17497,0.24821 -0.40284,0.42725 -0.6836,0.53711 -0.28076,0.1058 -0.60628,0.15821 -0.97656,0.15821 -0.45572,0 -0.92952,-0.0814 -1.42187,-0.24414 -0.48828,-0.16276 -0.92774,-0.3833 -1.31836,-0.66407 l 0,0.96289 c 0.25228,0.2238 0.632,0.41374 1.14062,0.56836 0.50863,0.15462 1.03679,0.23242 1.58203,0.23242 0.30518,0 0.59262,-0.0271 0.86524,-0.0801 0.27669,-0.0529 0.54443,-0.13965 0.80078,-0.26172 0.25635,-0.12614 0.4751,-0.28353 0.6582,-0.47071 0.18311,-0.18717 0.32959,-0.42773 0.43946,-0.7207 0.10986,-0.29297 0.16601,-0.62207 0.16601,-0.98828 0,-0.29704 -0.0381,-0.56103 -0.11133,-0.79297 -0.0732,-0.23193 -0.16357,-0.42724 -0.27343,-0.58594 -0.10987,-0.15868 -0.26726,-0.30696 -0.47071,-0.44531 -0.19938,-0.14242 -0.3929,-0.25814 -0.58008,-0.34765 -0.1831,-0.0895 -0.41991,-0.19271 -0.71289,-0.30665 l -1.40429,-0.54882 c -0.42724,-0.16683 -0.72379,-0.34945 -0.89063,-0.54883 -0.16276,-0.20345 -0.24414,-0.49284 -0.24414,-0.86719 0,-0.30518 0.0885,-0.56202 0.26758,-0.76953 0.17903,-0.20752 0.40511,-0.354 0.67773,-0.43945 0.27262,-0.0895 0.58366,-0.13282 0.9336,-0.13282 0.37842,0 0.75634,0.0524 1.13476,0.15821 0.38249,0.10579 0.70622,0.25048 0.97071,0.43359 l 0.39062,-0.75781 c -0.34993,-0.21566 -0.74772,-0.382 -1.19531,-0.5 -0.44352,-0.12207 -0.8903,-0.18359 -1.33789,-0.18359 z m -87.50586,0.0488 -1.01172,0.0742 0,2.00781 0.0488,1.47071 c -0.0977,-0.17904 -0.20264,-0.33088 -0.3125,-0.45703 -0.1058,-0.13022 -0.23601,-0.25147 -0.39063,-0.36133 -0.15462,-0.11397 -0.33902,-0.19893 -0.55468,-0.25586 -0.21566,-0.057 -0.45981,-0.0859 -0.73243,-0.0859 -0.85449,0 -1.53271,0.30565 -2.0332,0.91602 -0.49642,0.61034 -0.74414,1.40967 -0.74414,2.39843 0,1.04166 0.24056,1.86996 0.7207,2.48438 0.48422,0.61034 1.17139,0.916 2.0625,0.916 0.92367,0 1.59457,-0.42138 2.01368,-1.26367 l 0.0918,1.14063 0.8418,0 0,-8.98438 z m 21.50976,0 -1.01367,0.0742 0,2.00781 0.0488,1.47071 c -0.0976,-0.17904 -0.20068,-0.33088 -0.31055,-0.45703 -0.10579,-0.13022 -0.236,-0.25147 -0.39062,-0.36133 -0.15463,-0.11397 -0.34099,-0.19893 -0.55664,-0.25586 -0.21566,-0.057 -0.4598,-0.0859 -0.73242,-0.0859 -0.8545,0 -1.53077,0.30565 -2.03125,0.91602 -0.49642,0.61034 -0.7461,1.40967 -0.7461,2.39843 0,1.04166 0.24057,1.86996 0.72071,2.48438 0.48421,0.61034 1.17138,0.916 2.0625,0.916 0.92366,0 1.59651,-0.42138 2.01562,-1.26367 l 0.0918,1.14063 0.84179,0 0,-8.98438 z m -71.392574,0.0742 0,8.91016 5.16211,0 0.02539,-0.81641 -4.113281,0 0,-8.09375 -1.074219,0 z m 91.271484,0 2.67969,8.91016 1.01953,0 2.26367,-7.43946 2.20899,7.43946 1.04492,0 2.67968,-8.91016 -1.03906,0 -2.17187,7.54297 -2.2168,-7.35351 -1.03711,0 -2.2207,7.35937 -2.19141,-7.54883 -1.01953,0 z m 13.19531,0 0,8.91016 1.07422,0 0,-4.3086 1.92969,0 c 1.00505,0 1.73747,-0.20247 2.19726,-0.60936 0.4598,-0.41098 0.68946,-1.01693 0.68946,-1.81446 0,-0.39063 -0.0724,-0.7269 -0.21485,-1.01171 -0.13834,-0.2889 -0.33902,-0.51677 -0.60351,-0.68361 -0.26449,-0.16682 -0.56462,-0.28987 -0.90234,-0.36718 -0.33773,-0.0773 -0.7212,-0.11523 -1.14844,-0.11523 l -3.02149,0 z m 9.88282,0 -3.26563,8.91016 1.09766,0 1.04492,-2.86719 3.41016,0 1.05078,2.86719 1.0625,0 -3.25977,-8.91016 -1.14062,0 z m 13.0664,0 0,8.91016 1.07422,0 0,-4.3086 1.92969,0 c 1.00504,0 1.73747,-0.20247 2.19726,-0.60936 0.4598,-0.41098 0.68946,-1.01693 0.68946,-1.81446 0,-0.39063 -0.0724,-0.7269 -0.21485,-1.01171 -0.13834,-0.2889 -0.33903,-0.51677 -0.60351,-0.68361 -0.26449,-0.16682 -0.56462,-0.28987 -0.90235,-0.36718 -0.33772,-0.0773 -0.72119,-0.11523 -1.14843,-0.11523 l -3.02149,0 z m 14.42969,0 0,8.91016 1.07422,0 0,-3.66796 0.79297,-0.73243 3.38086,4.40039 1.25781,0 -3.83399,-4.94921 3.65039,-3.96094 -1.25781,0 -3.99023,4.26562 0,-4.26562 -1.07422,0 z m -122.253907,0.6836 -0.8125,0.0605 -0.164062,1.70899 -0.994141,0.0664 -0.02539,0.57422 0.994141,0 0,3.88282 c 0,0.3947 0.03629,0.71289 0.105469,0.95704 0.06917,0.24413 0.192058,0.44677 0.371093,0.60546 0.183106,0.15872 0.420085,0.26712 0.708985,0.32812 0.2889,0.0611 0.66683,0.0918 1.134765,0.0918 l 0.421876,0 0.04883,-0.69532 -0.513672,-0.0234 c -0.541178,-0.0203 -0.888346,-0.10726 -1.042969,-0.25782 -0.154622,-0.15462 -0.232422,-0.4891 -0.232422,-1.00586 l 0,-3.88281 1.708985,0 0,-0.64062 -1.708985,0 0,-1.76954 z m 36.156247,0 -0.81054,0.0605 -0.16602,1.70899 -0.99414,0.0664 -0.0234,0.57422 0.99414,0 0,3.88282 c 0,0.3947 0.0344,0.71289 0.10352,0.95704 0.0692,0.24413 0.19401,0.44677 0.37305,0.60546 0.1831,0.15872 0.41813,0.26712 0.70703,0.32812 0.2889,0.0611 0.66682,0.0918 1.13476,0.0918 l 0.42188,0 0.0488,-0.69532 -0.51172,-0.0234 c -0.54118,-0.0203 -0.89031,-0.10726 -1.04493,-0.25782 -0.15461,-0.15462 -0.23242,-0.4891 -0.23242,-1.00586 l 0,-3.88281 1.70899,0 0,-0.64062 -1.70899,0 0,-1.76954 z m 49.79297,0.12109 1.94141,0 c 0.58593,0 1.03076,0.10677 1.33594,0.31836 0.30924,0.20752 0.46484,0.5638 0.46484,1.06836 0,0.58593 -0.14112,0.99641 -0.42188,1.23242 -0.27669,0.236 -0.74869,0.35352 -1.41601,0.35352 l -1.9043,0 0,-2.97266 z m 22.94922,0 1.94141,0 c 0.58594,0 1.03076,0.10677 1.33593,0.31836 0.30925,0.20752 0.46485,0.5638 0.46485,1.06836 0,0.58593 -0.14112,0.99641 -0.42188,1.23242 -0.27669,0.236 -0.74869,0.35352 -1.41601,0.35352 l -1.9043,0 0,-2.97266 z m -13.5625,0.24414 1.46484,4.24805 -2.91601,0 1.45117,-4.24805 z m -106.236328,1.26953 c -0.86263,0 -1.640299,0.16097 -2.332031,0.48242 l 0.275391,0.74414 c 0.297038,-0.14241 0.633301,-0.25081 1.011719,-0.32812 0.378418,-0.0814 0.73291,-0.12305 1.0625,-0.12305 0.488281,0 0.844564,0.11572 1.068359,0.34766 0.227865,0.23194 0.341797,0.58463 0.341797,1.05664 l 0,0.63476 -1.03125,0 c -1.037597,0 -1.79541,0.16455 -2.271485,0.49416 -0.472004,0.32551 -0.707031,0.83918 -0.707031,1.53906 0,0.58594 0.179037,1.04345 0.53711,1.37304 0.362142,0.32959 0.839518,0.49414 1.433593,0.49414 0.887044,0 1.606771,-0.34001 2.160157,-1.01954 l 0.111328,0.89063 0.767578,0 0,-4.25977 c 0,-0.82193 -0.211588,-1.41325 -0.634766,-1.77539 -0.419108,-0.3662 -1.015788,-0.55078 -1.792969,-0.55078 z m 6.029297,0 c -0.675456,0 -1.19987,0.16276 -1.574218,0.48828 -0.374349,0.32146 -0.5625,0.74463 -0.5625,1.26953 0,0.42319 0.108561,0.77052 0.324218,1.03907 0.215658,0.26448 0.615397,0.48861 1.197266,0.67578 l 0.707031,0.22656 c 0.467936,0.15055 0.791667,0.31152 0.970703,0.48243 0.179036,0.17089 0.267579,0.38248 0.267579,0.63477 -10e-7,0.3662 -0.106609,0.64648 -0.322266,0.84179 -0.215657,0.19124 -0.519531,0.2871 -0.910156,0.2871 -0.622559,0 -1.320638,-0.18439 -2.09375,-0.55468 l 0,0.84765 c 0.667318,0.31738 1.341959,0.47657 2.021484,0.47657 0.305176,0 0.58545,-0.0361 0.841797,-0.10937 0.260417,-0.0733 0.491862,-0.1836 0.695312,-0.33008 0.20752,-0.14648 0.37028,-0.3418 0.488282,-0.58594 0.118001,-0.24821 0.177734,-0.53402 0.177734,-0.85546 0,-0.26042 -0.02539,-0.47917 -0.07422,-0.65821 -0.04883,-0.1831 -0.137369,-0.35498 -0.267578,-0.51367 -0.130208,-0.15869 -0.311035,-0.29606 -0.542969,-0.41406 -0.227864,-0.12207 -0.522623,-0.23958 -0.884765,-0.35352 l -0.642578,-0.20312 c -0.419109,-0.13428 -0.692058,-0.25895 -0.822266,-0.37696 -0.130209,-0.118 -0.195312,-0.30973 -0.195312,-0.57421 -10e-7,-0.31332 0.09945,-0.55209 0.298828,-0.71485 0.20345,-0.16682 0.537923,-0.25 1.005859,-0.25 0.524902,0 1.069335,0.14291 1.630859,0.42774 l 0.238282,-0.75 c -0.610352,-0.30111 -1.268718,-0.45313 -1.972657,-0.45313 z m 19.654301,0 c -0.67546,0 -1.20183,0.16276 -1.57618,0.48828 -0.37435,0.32146 -0.56054,0.74463 -0.56054,1.26953 0,0.42319 0.10856,0.77052 0.32422,1.03907 0.21566,0.26448 0.61344,0.48861 1.19531,0.67578 l 0.70898,0.22656 c 0.46794,0.15055 0.78971,0.31152 0.96875,0.48243 0.17904,0.17089 0.26953,0.38248 0.26953,0.63477 0,0.3662 -0.10856,0.64648 -0.32421,0.84179 -0.21566,0.19124 -0.51758,0.2871 -0.90821,0.2871 -0.62256,0 -1.32064,-0.18439 -2.09375,-0.55468 l 0,0.84765 c 0.66732,0.31738 1.34001,0.47657 2.01953,0.47657 0.30518,0 0.58545,-0.0361 0.8418,-0.10937 0.26042,-0.0733 0.49381,-0.1836 0.69727,-0.33008 0.20751,-0.14648 0.37027,-0.3418 0.48828,-0.58594 0.118,-0.24821 0.17578,-0.53402 0.17578,-0.85546 0,-0.26042 -0.0235,-0.47917 -0.0723,-0.65821 -0.0488,-0.1831 -0.13932,-0.35498 -0.26953,-0.51367 -0.1302,-0.15869 -0.31103,-0.29606 -0.54297,-0.41406 -0.22786,-0.12207 -0.52262,-0.23958 -0.88476,-0.35352 l -0.64063,-0.20312 c -0.4191,-0.13428 -0.69401,-0.25895 -0.82422,-0.37696 -0.13021,-0.118 -0.19531,-0.30973 -0.19531,-0.57421 0,-0.31332 0.0994,-0.55209 0.29883,-0.71485 0.20345,-0.16682 0.53987,-0.25 1.00781,-0.25 0.5249,0 1.06739,0.14291 1.62891,0.42774 l 0.23828,-0.75 c -0.61035,-0.30111 -1.26677,-0.45313 -1.9707,-0.45313 z m 6.11523,0 c -0.85449,0 -1.55794,0.30746 -2.11133,0.92188 -0.55338,0.61442 -0.83008,1.43912 -0.83008,2.47265 0,1.02132 0.28207,1.83154 0.84766,2.42969 0.56559,0.59407 1.3016,0.89062 2.20898,0.89062 0.81381,0 1.54086,-0.18993 2.17969,-0.56835 l -0.21289,-0.71289 c -0.3418,0.17089 -0.65104,0.29736 -0.92773,0.38281 -0.2767,0.0855 -0.58415,0.1289 -0.92188,0.1289 -0.62256,0 -1.12712,-0.1971 -1.51367,-0.59179 -0.38657,-0.39877 -0.59637,-1.01009 -0.62891,-1.83203 l 4.36329,0 0.0371,-0.51172 c 0,-0.94402 -0.21337,-1.68001 -0.64062,-2.20899 -0.42317,-0.53304 -1.03988,-0.80078 -1.84961,-0.80078 z m 21.01953,0 c -0.94808,0 -1.69124,0.30924 -2.23242,0.92774 -0.53711,0.61442 -0.80664,1.42822 -0.80664,2.4414 0,0.98878 0.27311,1.79542 0.81836,2.41797 0.54525,0.61849 1.28483,0.92773 2.2207,0.92773 0.91553,0 1.65349,-0.31103 2.21094,-0.93359 0.55745,-0.62663 0.83594,-1.43147 0.83594,-2.41211 0,-1.01318 -0.26954,-1.82698 -0.80664,-2.4414 -0.53712,-0.6185 -1.28402,-0.92774 -2.24024,-0.92774 z m 13.85547,0 c -0.86263,0 -1.6403,0.16097 -2.33203,0.48242 l 0.27539,0.74414 c 0.29704,-0.14241 0.63525,-0.25081 1.01367,-0.32812 0.37842,-0.0814 0.73291,-0.12305 1.0625,-0.12305 0.48828,0 0.84261,0.11572 1.06641,0.34766 0.22786,0.23194 0.34179,0.58463 0.34179,1.05664 l 0,0.63476 -1.03124,0 c -1.0376,0 -1.79346,0.16455 -2.26954,0.49416 -0.472,0.32551 -0.70898,0.83918 -0.70898,1.53906 0,0.58594 0.17904,1.04345 0.53711,1.37304 0.36214,0.32959 0.84147,0.49414 1.43555,0.49414 0.88704,0 1.60677,-0.34001 2.16015,-1.01954 l 0.10938,0.89063 0.76953,0 0,-4.25977 c 0,-0.82193 -0.21159,-1.41325 -0.63477,-1.77539 -0.4191,-0.3662 -1.01774,-0.55078 -1.79492,-0.55078 z m -49.86523,0.13477 0,3.94336 c 0,0.87484 0.19173,1.53304 0.57422,1.97656 0.38656,0.43945 0.95443,0.66015 1.70312,0.66015 0.52897,0 0.94482,-0.0796 1.25,-0.23828 0.30924,-0.16276 0.56787,-0.4069 0.77539,-0.73242 l 0.10352,0.84766 0.8789,0 0,-6.45703 -1.01367,0 0,3.625 c 0,0.25634 -0.0181,0.49154 -0.0547,0.70312 -0.0366,0.21159 -0.0999,0.41048 -0.18945,0.59766 -0.0895,0.18717 -0.20524,0.34456 -0.34766,0.4707 -0.13834,0.12614 -0.31738,0.22559 -0.53711,0.29883 -0.21565,0.0732 -0.46338,0.10937 -0.74414,0.10937 -0.49642,0 -0.8527,-0.14827 -1.06836,-0.44531 -0.21158,-0.29704 -0.3164,-0.73291 -0.3164,-1.30664 l 0,-4.05273 -1.01367,0 z m 53.51562,0 2.55664,6.26172 -0.95117,2.42968 0.9082,0.19532 3.40039,-8.88672 -1.02539,0 -1.84375,5.1582 -2.01367,-5.1582 -1.03125,0 z m -38.50195,0.64062 c 1.02542,0 1.56253,0.69629 1.61133,2.08789 l -3.51563,0 c 0.057,-0.6429 0.25781,-1.15103 0.59961,-1.52539 0.34587,-0.37434 0.77979,-0.5625 1.30469,-0.5625 z m 6.5625,0 c 0.60221,0 1.05615,0.22428 1.36133,0.67188 0.30924,0.44758 0.46289,1.10954 0.46289,1.98437 -0.004,0.8016 -0.15235,1.42008 -0.44532,1.85547 -0.29297,0.43538 -0.77034,0.65234 -1.43359,0.65234 -0.6307,0 -1.09733,-0.23144 -1.39844,-0.69531 -0.29703,-0.46386 -0.44531,-1.10042 -0.44531,-1.91015 0,-0.8138 0.15918,-1.4432 0.47656,-1.88672 0.31739,-0.4476 0.79118,-0.67188 1.42188,-0.67188 z m 14.43359,0 c 0.66325,0 1.16423,0.23877 1.50196,0.71485 0.33772,0.472 0.50781,1.10319 0.50781,1.89257 0,0.50456 -0.0706,0.94581 -0.20899,1.32422 -0.13834,0.37436 -0.36068,0.67449 -0.66992,0.90235 -0.30518,0.2238 -0.68327,0.33593 -1.13086,0.33593 -0.65104,0 -1.14649,-0.23502 -1.48828,-0.70703 -0.3418,-0.472 -0.51367,-1.09424 -0.51367,-1.86328 0,-0.78532 0.17187,-1.41276 0.51367,-1.88476 0.34179,-0.47608 0.83724,-0.71485 1.48828,-0.71485 z m 7.07422,0 c 0.60221,0 1.05616,0.22428 1.36133,0.67188 0.30925,0.44758 0.46484,1.10954 0.46484,1.98437 -0.004,0.8016 -0.15234,1.42008 -0.44531,1.85547 -0.29297,0.43538 -0.7723,0.65234 -1.43555,0.65234 -0.6307,0 -1.09537,-0.23144 -1.39648,-0.69531 -0.29703,-0.46386 -0.44727,-1.10042 -0.44727,-1.91015 0,-0.8138 0.15919,-1.4432 0.47657,-1.88672 0.31738,-0.4476 0.79118,-0.67188 1.42187,-0.67188 z m 52.11914,1.45899 0,0.82422 4.08203,0 0,-0.82422 -4.08203,0 z m -111.359374,1.25195 0.775391,0 0,1.42187 c -0.484212,0.71208 -1.144368,1.06836 -1.978516,1.06836 -0.305175,0 -0.558268,-0.0977 -0.761719,-0.29296 -0.20345,-0.19532 -0.304687,-0.47201 -0.304687,-0.83008 0,-0.19938 0.01807,-0.36768 0.05469,-0.50196 0.03662,-0.13834 0.103516,-0.26302 0.201172,-0.37695 0.09766,-0.11797 0.231445,-0.21026 0.402344,-0.27539 0.170898,-0.0692 0.387858,-0.1216 0.652344,-0.1582 0.264485,-0.0366 0.584635,-0.0547 0.958984,-0.0547 z m 66.675784,0 0.77343,0 0,1.42187 c -0.48421,0.71208 -1.14241,1.06836 -1.97656,1.06836 -0.30517,0 -0.56022,-0.0977 -0.76367,-0.29296 -0.20345,-0.19532 -0.30469,-0.47201 -0.30469,-0.83008 0,-0.19938 0.0181,-0.36768 0.0547,-0.50196 0.0366,-0.13834 0.10352,-0.26302 0.20117,-0.37695 0.0977,-0.11797 0.23341,-0.21026 0.4043,-0.27539 0.1709,-0.0692 0.38786,-0.1216 0.65234,-0.1582 0.26449,-0.0366 0.58464,-0.0547 0.95899,-0.0547 z m 10.24609,1.75781 c 0,0.29704 -0.0832,1.33692 -0.25,3.11914 l 0.5918,0 0.17773,-0.68359 c 0.11801,-0.45166 0.23552,-0.91651 0.35352,-1.39258 0.12206,-0.48017 0.18359,-0.74595 0.18359,-0.79883 l 0,-0.24413 -1.05664,0 z m -36.38281,38.36329 -1.01172,0.0742 0,2.00781 0.0488,1.47071 c -0.0977,-0.17907 -0.20264,-0.33285 -0.3125,-0.45899 -0.1058,-0.1302 -0.23601,-0.24951 -0.39063,-0.35937 -0.15462,-0.11421 -0.33902,-0.19919 -0.55468,-0.25587 -0.21566,-0.0567 -0.45981,-0.0859 -0.73243,-0.0859 -0.85449,0 -1.53271,0.30562 -2.0332,0.91602 -0.49642,0.61033 -0.74414,1.4097 -0.74414,2.39843 0,1.04167 0.24056,1.86991 0.7207,2.48438 0.48422,0.61033 1.17139,0.91601 2.0625,0.91601 0.92367,1e-5 1.59457,-0.4214 2.01368,-1.26367 l 0.0918,1.14063 0.8418,0 0,-8.98438 z m 43.70117,0 -1.01172,0.0742 0,2.00781 0.0488,1.47071 c -0.0976,-0.17907 -0.20264,-0.33285 -0.3125,-0.45899 -0.1058,-0.1302 -0.236,-0.24951 -0.39063,-0.35937 -0.15461,-0.11421 -0.33902,-0.19919 -0.55468,-0.25587 -0.21566,-0.0567 -0.4598,-0.0859 -0.73242,-0.0859 -0.8545,0 -1.53272,0.30562 -2.03321,0.91602 -0.49642,0.61033 -0.74414,1.4097 -0.74414,2.39843 0,1.04167 0.24057,1.86991 0.72071,2.48438 0.48421,0.61033 1.17138,0.91601 2.0625,0.91601 0.92366,1e-5 1.59456,-0.4214 2.01367,-1.26367 l 0.0918,1.14063 0.8418,0 0,-8.98438 z m -93.583984,0.0742 0,8.91016 5.16211,0 0.02539,-0.81837 -4.113281,0 0,-8.09179 -1.074219,0 z m 19.591797,0.6836 -0.8125,0.0605 -0.164062,1.70899 -0.994141,0.0664 -0.02539,0.57422 0.994141,0 0,3.88086 c 0,0.39473 0.03629,0.71485 0.105469,0.95899 0.06917,0.24413 0.192058,0.44484 0.371093,0.60351 0.183106,0.1584 0.420085,0.26875 0.708985,0.33008 0.2889,0.0613 0.66683,0.0918 1.134765,0.0918 l 0.421876,0 0.04883,-0.69532 -0.513672,-0.0254 c -0.541178,-0.0203 -0.888346,-0.10532 -1.042969,-0.25586 -0.154622,-0.1546 -0.232422,-0.49101 -0.232422,-1.00781 l 0,-3.88087 1.708985,0 0,-0.64062 -1.708985,0 0,-1.76953 z m 54.466797,0 -0.81055,0.0605 -0.16601,1.70899 -0.99414,0.0664 -0.0234,0.57422 0.99414,0 0,3.88086 c 0,0.39473 0.0343,0.71485 0.10352,0.95899 0.0692,0.24413 0.19401,0.44484 0.37304,0.60351 0.18311,0.1584 0.41813,0.26875 0.70703,0.33008 0.2889,0.0613 0.66684,0.0918 1.13477,0.0918 l 0.42187,0 0.0488,-0.69532 -0.51172,-0.0254 c -0.54118,-0.0203 -0.8903,-0.10532 -1.04492,-0.25586 -0.15462,-0.1546 -0.23242,-0.49101 -0.23242,-1.00781 l 0,-3.88087 1.70898,0 0,-0.64062 -1.70898,0 0,-1.76953 z m -65.367188,1.63476 c -0.86263,0 -1.640299,0.16096 -2.332031,0.48242 l 0.275391,0.74414 c 0.297038,-0.14241 0.633301,-0.25079 1.011719,-0.32813 0.378418,-0.0813 0.73291,-0.12305 1.0625,-0.12305 0.488281,0 0.844564,0.11572 1.068359,0.34766 0.227865,0.23193 0.341797,0.58464 0.341797,1.05664 l 0,0.63476 -1.03125,0 c -1.037597,0 -1.79541,0.16461 -2.271485,0.49415 -0.472004,0.32553 -0.707031,0.83724 -0.707031,1.5371 0,0.58594 0.179037,1.0454 0.53711,1.375 0.362142,0.3296 0.839518,0.49414 1.433593,0.49414 0.887044,1e-5 1.606771,-0.33999 2.160157,-1.01953 l 0.111328,0.89063 0.767578,0 0,-4.25977 c 0,-0.82193 -0.211588,-1.41514 -0.634766,-1.77734 -0.419108,-0.3662 -1.015788,-0.54883 -1.792969,-0.54883 z m 6.029297,0 c -0.675456,0 -1.19987,0.16275 -1.574218,0.48828 -0.374349,0.32147 -0.5625,0.74467 -0.5625,1.26953 0,0.4232 0.108561,0.76858 0.324218,1.03711 0.215658,0.26454 0.615397,0.4906 1.197266,0.67774 l 0.707031,0.22656 c 0.467936,0.15053 0.791667,0.31156 0.970703,0.48242 0.179036,0.17094 0.267579,0.3825 0.267579,0.63477 -10e-7,0.3662 -0.106609,0.64646 -0.322266,0.84179 -0.215657,0.19127 -0.519531,0.28711 -0.910156,0.28711 -0.622559,0 -1.320638,-0.18435 -2.09375,-0.55468 l 0,0.84765 c 0.667318,0.3174 1.341959,0.47656 2.021484,0.47656 0.305176,1e-5 0.58545,-0.0381 0.841797,-0.11132 0.260417,-0.0732 0.491862,-0.18159 0.695312,-0.32813 0.20752,-0.14646 0.37028,-0.3418 0.488282,-0.58594 0.118001,-0.2482 0.177734,-0.534 0.177734,-0.85546 0,-0.2604 -0.02539,-0.47914 -0.07422,-0.65821 -0.04883,-0.18306 -0.137369,-0.35494 -0.267578,-0.51367 -0.130208,-0.15867 -0.311035,-0.29606 -0.542969,-0.41406 -0.227864,-0.12207 -0.522623,-0.24154 -0.884765,-0.35547 l -0.642578,-0.20117 c -0.419109,-0.13427 -0.692058,-0.25896 -0.822266,-0.37696 -0.130209,-0.118 -0.195312,-0.30968 -0.195312,-0.57421 -10e-7,-0.31327 0.09945,-0.55205 0.298828,-0.71485 0.20345,-0.1668 0.537923,-0.25 1.005859,-0.25 0.524902,0 1.069335,0.14294 1.630859,0.42774 l 0.238282,-0.75196 c -0.610352,-0.30113 -1.268718,-0.45117 -1.972657,-0.45117 z m 19.654301,0 c -0.67546,0 -1.20183,0.16275 -1.57618,0.48828 -0.37435,0.32147 -0.56054,0.74467 -0.56054,1.26953 0,0.4232 0.10856,0.76858 0.32422,1.03711 0.21566,0.26454 0.61344,0.4906 1.19531,0.67774 l 0.70898,0.22656 c 0.46794,0.15053 0.78971,0.31156 0.96875,0.48242 0.17904,0.17094 0.26953,0.3825 0.26953,0.63477 0,0.3662 -0.10856,0.64646 -0.32421,0.84179 -0.21566,0.19127 -0.51758,0.28711 -0.90821,0.28711 -0.62256,0 -1.32064,-0.18435 -2.09375,-0.55468 l 0,0.84765 c 0.66732,0.3174 1.34001,0.47656 2.01953,0.47656 0.30518,1e-5 0.58545,-0.0381 0.8418,-0.11132 0.26042,-0.0732 0.49381,-0.18159 0.69727,-0.32813 0.20751,-0.14646 0.37027,-0.3418 0.48828,-0.58594 0.118,-0.2482 0.17578,-0.534 0.17578,-0.85546 0,-0.2604 -0.0235,-0.47914 -0.0723,-0.65821 -0.0488,-0.18306 -0.13932,-0.35494 -0.26953,-0.51367 -0.1302,-0.15867 -0.31103,-0.29606 -0.54297,-0.41406 -0.22786,-0.12207 -0.52262,-0.24154 -0.88476,-0.35547 l -0.64063,-0.20117 c -0.4191,-0.13427 -0.69401,-0.25896 -0.82422,-0.37696 -0.13021,-0.118 -0.19531,-0.30968 -0.19531,-0.57421 0,-0.31327 0.0994,-0.55205 0.29883,-0.71485 0.20345,-0.1668 0.53987,-0.25 1.00781,-0.25 0.5249,0 1.06739,0.14294 1.62891,0.42774 l 0.23828,-0.75196 c -0.61035,-0.30113 -1.26677,-0.45117 -1.9707,-0.45117 z m 6.11523,0 c -0.85449,0 -1.55794,0.30741 -2.11133,0.92188 -0.55338,0.6144 -0.83008,1.43912 -0.83008,2.47265 0,1.02134 0.28207,1.8296 0.84766,2.42774 0.56559,0.59406 1.3016,0.89257 2.20898,0.89257 0.81381,1e-5 1.54086,-0.18996 2.17969,-0.56836 l -0.21289,-0.71485 c -0.3418,0.17087 -0.65104,0.2993 -0.92773,0.38477 -0.2767,0.0855 -0.58415,0.1289 -0.92188,0.1289 -0.62256,0 -1.12712,-0.19706 -1.51367,-0.59179 -0.38657,-0.39874 -0.59637,-1.0101 -0.62891,-1.83203 l 4.36329,0 0.0371,-0.51172 c 0,-0.94407 -0.21337,-1.68005 -0.64062,-2.20899 -0.42317,-0.53306 -1.03988,-0.80078 -1.84961,-0.80078 z m 22.85156,0 c -0.85449,0 -1.55794,0.30741 -2.11133,0.92188 -0.55338,0.6144 -0.83007,1.43912 -0.83007,2.47265 0,1.02134 0.28207,1.8296 0.84765,2.42774 0.5656,0.59406 1.30159,0.89257 2.20899,0.89257 0.8138,1e-5 1.54085,-0.18996 2.17969,-0.56836 l -0.2129,-0.71485 c -0.3418,0.17087 -0.65104,0.2993 -0.92773,0.38477 -0.27669,0.0855 -0.58414,0.1289 -0.92187,0.1289 -0.62256,0 -1.12712,-0.19706 -1.51368,-0.59179 -0.38657,-0.39874 -0.59637,-1.0101 -0.6289,-1.83203 l 4.36328,0 0.0371,-0.51172 c 0,-0.94407 -0.21339,-1.68005 -0.64063,-2.20899 -0.42318,-0.53306 -1.03987,-0.80078 -1.84961,-0.80078 z m 5.84766,0 c -0.67546,0 -1.20183,0.16275 -1.57617,0.48828 -0.37435,0.32147 -0.56055,0.74467 -0.56055,1.26953 0,0.4232 0.10857,0.76858 0.32422,1.03711 0.21566,0.26454 0.61345,0.4906 1.19531,0.67774 l 0.70899,0.22656 c 0.46794,0.15053 0.78971,0.31156 0.96875,0.48242 0.17903,0.17094 0.26953,0.3825 0.26953,0.63477 0,0.3662 -0.10857,0.64646 -0.32422,0.84179 -0.21566,0.19127 -0.51758,0.28711 -0.9082,0.28711 -0.62256,0 -1.32064,-0.18435 -2.09375,-0.55468 l 0,0.84765 c 0.66732,0.3174 1.34001,0.47656 2.01953,0.47656 0.30518,1e-5 0.58545,-0.0381 0.84179,-0.11132 0.26042,-0.0732 0.49382,-0.18159 0.69727,-0.32813 0.20752,-0.14646 0.37028,-0.3418 0.48828,-0.58594 0.118,-0.2482 0.17578,-0.534 0.17578,-0.85546 0,-0.2604 -0.0235,-0.47914 -0.0723,-0.65821 -0.0488,-0.18306 -0.13932,-0.35494 -0.26953,-0.51367 -0.13021,-0.15867 -0.31104,-0.29606 -0.54297,-0.41406 -0.22786,-0.12207 -0.52262,-0.24154 -0.88477,-0.35547 l -0.64062,-0.20117 c -0.41911,-0.13427 -0.69402,-0.25896 -0.82422,-0.37696 -0.13021,-0.118 -0.19532,-0.30968 -0.19532,-0.57421 0,-0.31327 0.0994,-0.55205 0.29883,-0.71485 0.20345,-0.1668 0.53988,-0.25 1.00781,-0.25 0.52491,0 1.06738,0.14294 1.62891,0.42774 l 0.23828,-0.75196 c -0.61034,-0.30113 -1.26676,-0.45117 -1.9707,-0.45117 z m 10.5332,0 c -0.85449,0 -1.55794,0.30741 -2.11133,0.92188 -0.55338,0.6144 -0.83007,1.43912 -0.83007,2.47265 0,1.02134 0.28401,1.8296 0.84961,2.42774 0.56559,0.59406 1.30159,0.89257 2.20898,0.89257 0.81381,1e-5 1.5389,-0.18996 2.17773,-0.56836 l -0.21289,-0.71485 c -0.3418,0.17087 -0.65104,0.2993 -0.92773,0.38477 -0.27669,0.0855 -0.58415,0.1289 -0.92188,0.1289 -0.62256,0 -1.12711,-0.19706 -1.51367,-0.59179 -0.38657,-0.39874 -0.59637,-1.0101 -0.6289,-1.83203 l 4.36523,0 0.0352,-0.51172 c 0,-0.94407 -0.21338,-1.68005 -0.64063,-2.20899 -0.42317,-0.53306 -1.03987,-0.80078 -1.84961,-0.80078 z m 17.83594,0 c -0.86263,0 -1.6403,0.16096 -2.33203,0.48242 l 0.27539,0.74414 c 0.29704,-0.14241 0.6333,-0.25079 1.01172,-0.32813 0.37841,-0.0813 0.7329,-0.12305 1.0625,-0.12305 0.48828,0 0.84456,0.11572 1.06836,0.34766 0.22786,0.23193 0.34179,0.58464 0.34179,1.05664 l 0,0.63476 -1.03125,0 c -1.0376,0 -1.79541,0.16461 -2.27148,0.49415 -0.47201,0.32553 -0.70703,0.83724 -0.70703,1.5371 0,0.58594 0.17903,1.0454 0.53711,1.375 0.36214,0.3296 0.83951,0.49414 1.43359,0.49414 0.88704,1e-5 1.60677,-0.33999 2.16016,-1.01953 l 0.11133,0.89063 0.76757,0 0,-4.25977 c 0,-0.82193 -0.21158,-1.41514 -0.63476,-1.77734 -0.41911,-0.3662 -1.01579,-0.54883 -1.79297,-0.54883 z m -11,0.0684 c -0.39062,0 -0.76123,0.10839 -1.11523,0.32813 -0.34994,0.2156 -0.64844,0.55566 -0.89258,1.01953 l -0.10938,-1.28125 -0.8125,0 0,6.45703 1.01367,0 0,-3.65625 c 0,-0.57374 0.17904,-1.06025 0.53711,-1.45899 0.36214,-0.3988 0.81966,-0.59765 1.37305,-0.59765 0.11393,0 0.25326,0.0162 0.41602,0.0488 l 0.043,-0.83008 c -0.118,-0.02 -0.27002,-0.0293 -0.45313,-0.0293 z m -61.05859,0.0664 0,3.94336 c 0,0.8748 0.19173,1.53303 0.57422,1.97656 0.38656,0.43947 0.95443,0.66015 1.70312,0.66015 0.52897,0 0.94482,-0.0796 1.25,-0.23828 0.30924,-0.1628 0.56787,-0.40688 0.77539,-0.73242 l 0.10352,0.84766 0.8789,0 0,-6.45703 -1.01367,0 0,3.625 c 0,0.25633 -0.0181,0.49152 -0.0547,0.70312 -0.0366,0.2116 -0.0999,0.41052 -0.18945,0.59766 -0.0895,0.1872 -0.20524,0.34261 -0.34766,0.46875 -0.13834,0.12613 -0.31738,0.22751 -0.53711,0.30078 -0.21565,0.0733 -0.46338,0.10937 -0.74414,0.10937 -0.49642,0 -0.8527,-0.14824 -1.06836,-0.44531 -0.21158,-0.29706 -0.3164,-0.73291 -0.3164,-1.30664 l 0,-4.05273 -1.01367,0 z m 28.4414,0 2.5586,6.26172 -0.95313,2.42967 0.91016,0.19533 3.40039,-8.88672 -1.02539,0 -1.84375,5.1582 -2.01367,-5.1582 -1.03321,0 z m 47.26563,0 2.55859,6.26172 -0.95312,2.42967 0.91015,0.19533 3.40039,-8.88672 -1.02539,0 -1.84375,5.1582 -2.01367,-5.1582 -1.0332,0 z m -60.69336,0.64062 c 1.02542,0 1.56253,0.69629 1.61133,2.08789 l -3.51563,0 c 0.057,-0.64293 0.25781,-1.15105 0.59961,-1.52539 0.34587,-0.37433 0.77979,-0.5625 1.30469,-0.5625 z m 6.5625,0 c 0.60221,0 1.05615,0.22428 1.36133,0.67188 0.30924,0.44753 0.46289,1.10755 0.46289,1.98242 -0.004,0.8016 -0.15235,1.42007 -0.44532,1.85546 -0.29297,0.4354 -0.77034,0.6543 -1.43359,0.6543 -0.6307,0 -1.09733,-0.23137 -1.39844,-0.69532 -0.29703,-0.46386 -0.44531,-1.10237 -0.44531,-1.91211 0,-0.8138 0.15918,-1.4413 0.47656,-1.88476 0.31739,-0.4476 0.79118,-0.67188 1.42188,-0.67188 z m 16.28906,0 c 1.02542,0 1.56253,0.69629 1.61133,2.08789 l -3.51563,0 c 0.057,-0.64293 0.25782,-1.15105 0.59961,-1.52539 0.34587,-0.37433 0.77979,-0.5625 1.30469,-0.5625 z m 16.38281,0 c 1.02542,0 1.56253,0.69629 1.61133,2.08789 l -3.51562,0 c 0.057,-0.64293 0.25585,-1.15105 0.59765,-1.52539 0.34587,-0.37433 0.78174,-0.5625 1.30664,-0.5625 z m 11.0293,0 c 0.60221,0 1.05615,0.22428 1.36133,0.67188 0.30924,0.44753 0.46289,1.10755 0.46289,1.98242 -0.004,0.8016 -0.15235,1.42007 -0.44531,1.85546 -0.29298,0.4354 -0.77035,0.6543 -1.4336,0.6543 -0.63069,0 -1.09733,-0.23137 -1.39843,-0.69532 -0.29705,-0.46386 -0.44532,-1.10237 -0.44532,-1.91211 0,-0.8138 0.15918,-1.4413 0.47656,-1.88476 0.31739,-0.4476 0.79119,-0.67188 1.42188,-0.67188 z m -81.433594,2.71094 0.775391,0 0,1.42187 c -0.484212,0.71207 -1.144368,1.06836 -1.978516,1.06836 -0.305175,0 -0.558268,-0.0976 -0.761719,-0.29296 -0.20345,-0.19534 -0.304687,-0.47202 -0.304687,-0.83008 0,-0.19934 0.01807,-0.36762 0.05469,-0.50196 0.03662,-0.13833 0.103516,-0.26302 0.201172,-0.37695 0.09766,-0.11773 0.231445,-0.21006 0.402344,-0.27539 0.170898,-0.0691 0.387858,-0.12154 0.652344,-0.1582 0.264485,-0.0367 0.584635,-0.0547 0.958984,-0.0547 z m 88.867184,0 0.77539,0 0,1.42187 c -0.48421,0.71207 -1.14436,1.06836 -1.97851,1.06836 -0.30517,0 -0.55827,-0.0976 -0.76172,-0.29296 -0.20345,-0.19534 -0.30469,-0.47202 -0.30469,-0.83008 0,-0.19934 0.0181,-0.36762 0.0547,-0.50196 0.0366,-0.13833 0.10351,-0.26302 0.20117,-0.37695 0.0977,-0.11773 0.23145,-0.21006 0.40235,-0.27539 0.17089,-0.0691 0.38785,-0.12154 0.65234,-0.1582 0.26449,-0.0367 0.58463,-0.0547 0.95898,-0.0547 z"
     id="path13714" />
  <path
     style="opacity:1;fill:#1d99f3;fill-opacity:1;stroke:none"
     d="m 141,80 0,7 -2,0 3,3 3,-3 -2,0 0,-7 -2,0 z"
     id="rect8909"
     inkscape:connector-curvature="0" />
  <path
     style="opacity:1;fill:#fdbc4b;fill-opacity:1;stroke:none"
     d="m 197,90 0,-7 -2,0 3,-3 3,3 -2,0 0,7 -2,0 z"
     id="rect8909-6"
     inkscape:connector-curvature="0" />
</svg>
