<?xml version="1.0" encoding="UTF-8" standalone="no"?>
<svg
   xmlns:dc="http://purl.org/dc/elements/1.1/"
   xmlns:cc="http://creativecommons.org/ns#"
   xmlns:rdf="http://www.w3.org/1999/02/22-rdf-syntax-ns#"
   xmlns:svg="http://www.w3.org/2000/svg"
   xmlns="http://www.w3.org/2000/svg"
   xmlns:xlink="http://www.w3.org/1999/xlink"
   xmlns:sodipodi="http://sodipodi.sourceforge.net/DTD/sodipodi-0.dtd"
   xmlns:inkscape="http://www.inkscape.org/namespaces/inkscape"
   viewBox="0 0 256 256"
   id="svg2"
   version="1.1"
   inkscape:version="0.91 r13725"
   sodipodi:docname="org.kde.plasma.mediacontroller.svg">
  <metadata
     id="metadata10">
    <rdf:RDF>
      <cc:Work
         rdf:about="">
        <dc:format>image/svg+xml</dc:format>
        <dc:type
           rdf:resource="http://purl.org/dc/dcmitype/StillImage" />
        <dc:title />
      </cc:Work>
    </rdf:RDF>
  </metadata>
  <sodipodi:namedview
     pagecolor="#ffffff"
     bordercolor="#666666"
     borderopacity="1"
     objecttolerance="10"
     gridtolerance="10"
     guidetolerance="10"
     inkscape:pageopacity="0"
     inkscape:pageshadow="2"
     inkscape:window-width="1920"
     inkscape:window-height="1050"
     id="namedview8"
     showgrid="false"
     inkscape:zoom="1.84375"
     inkscape:cx="19.924103"
     inkscape:cy="71.722083"
     inkscape:window-x="0"
     inkscape:window-y="30"
     inkscape:window-maximized="1"
     inkscape:current-layer="svg2" />
  <defs
     id="defs4">
    <style
       id="current-color-scheme"
       type="text/css">
      .ColorScheme-Text {
        color:#f2f2f2;
      }
      .ColorScheme-Background {
        color:#31363b;
      }
      .ColorScheme-Highlight {
        color:#3daee9;
      }
      .ColorScheme-ViewText {
        color:#31363b;
      }
      .ColorScheme-ViewBackground {
        color:#314045;
      }
      .ColorScheme-ViewHover {
        color:#93cee9;
      }
      .ColorScheme-ViewFocus{
        color:#3daee9;
      }
      .ColorScheme-ButtonText {
        color:#31363b;
      }
      .ColorScheme-ButtonBackground {
        color:#31363b;
      }
      .ColorScheme-ButtonHover {
        color:#93cee9;
      }
      .ColorScheme-ButtonFocus{
        color:#3daee9;
      }
      </style>
    <radialGradient
       gradientTransform="translate(2.6458317,-6.9390098e-4)"
       gradientUnits="userSpaceOnUse"
       r="12.699996"
       fy="280.06671"
       fx="18.520836"
       cy="280.06671"
       cx="18.520836"
       id="radialGradient4553"
       xlink:href="#linearGradient4547"
       inkscape:collect="always" />
    <linearGradient
       id="linearGradient4547"
       inkscape:collect="always">
      <stop
         id="stop4549"
         offset="0"
         style="stop-color:#313437;stop-opacity:1;" />
      <stop
         style="stop-color:#313437;stop-opacity:0.49803922;"
         offset="0.97916687"
         id="stop4555" />
      <stop
         id="stop4551"
         offset="1"
         style="stop-color:#313437;stop-opacity:0;" />
    </linearGradient>
    <linearGradient
       gradientTransform="translate(2.6458335,4.5990358e-6)"
       gradientUnits="userSpaceOnUse"
       y2="267.63126"
       x2="19.049999"
       y1="292.50208"
       x1="19.049999"
       id="linearGradient4652"
       xlink:href="#linearGradient4303"
       inkscape:collect="always" />
    <linearGradient
       inkscape:collect="always"
       id="linearGradient4303">
      <stop
         style="stop-color:#c6cdd1;stop-opacity:1"
         offset="0"
         id="stop4305" />
      <stop
         style="stop-color:#e0e5e7;stop-opacity:1"
         offset="1"
         id="stop4307" />
    </linearGradient>
    <linearGradient
       gradientTransform="translate(1.5875001,-0.26453607)"
       gradientUnits="userSpaceOnUse"
       y2="278.74374"
       x2="28.045834"
       y1="282.97708"
       x1="28.045834"
       id="linearGradient4742"
       xlink:href="#linearGradient4736-9"
       inkscape:collect="always" />
    <linearGradient
       id="linearGradient4736-9"
       inkscape:collect="always">
      <stop
         id="stop4738-8"
         offset="0"
         style="stop-color:#cccccc;stop-opacity:1;" />
      <stop
         id="stop4740-1"
         offset="1"
         style="stop-color:#cccccc;stop-opacity:0;" />
    </linearGradient>
    <linearGradient
       gradientTransform="translate(-1.8520816,1.9532025e-6)"
       gradientUnits="userSpaceOnUse"
       y2="267.36673"
       x2="6.6145825"
       y1="292.76672"
       x1="6.6145825"
       id="linearGradient4306"
       xlink:href="#linearGradient4143"
       inkscape:collect="always" />
    <linearGradient
       inkscape:collect="always"
       id="linearGradient4143">
      <stop
         style="stop-color:#197cf1;stop-opacity:1"
         offset="0"
         id="stop4145" />
      <stop
         style="stop-color:#20bcfa;stop-opacity:1"
         offset="1"
         id="stop4147" />
    </linearGradient>
    <linearGradient
       gradientUnits="userSpaceOnUse"
       y2="38.999729"
       x2="32"
       y1="23"
       x1="16.000011"
       id="linearGradient4507"
       xlink:href="#linearGradient4227"
       inkscape:collect="always"
       gradientTransform="matrix(0.26458334,0,0,0.26458334,-0.2645848,263.13332)" />
    <linearGradient
       id="linearGradient4227"
       inkscape:collect="always">
      <stop
         id="stop4229"
         offset="0"
         style="stop-color:#292c2f;stop-opacity:1" />
      <stop
         id="stop4231"
         offset="1"
         style="stop-color:#000000;stop-opacity:0;" />
    </linearGradient>
    <linearGradient
       gradientTransform="translate(0,-2.00004)"
       gradientUnits="userSpaceOnUse"
       y2="1033.3622"
       x2="10.99999"
       y1="1049.3622"
       x1="10.99999"
       id="linearGradient4444"
       xlink:href="#linearGradient4438"
       inkscape:collect="always" />
    <linearGradient
       id="linearGradient4438"
       inkscape:collect="always">
      <stop
         id="stop4440"
         offset="0"
         style="stop-color:#000000;stop-opacity:0" />
      <stop
         id="stop4442"
         offset="1"
         style="stop-color:#000000;stop-opacity:1" />
    </linearGradient>
    <linearGradient
       gradientTransform="translate(0,-2.00004)"
       gradientUnits="userSpaceOnUse"
       y2="3.0000401"
       x2="10.99999"
       y1="19.00004"
       x1="10.99999"
       id="linearGradient4452"
       xlink:href="#linearGradient4290-2"
       inkscape:collect="always" />
    <linearGradient
       inkscape:collect="always"
       id="linearGradient4290-2">
      <stop
         style="stop-color:#7cbaf8;stop-opacity:1"
         offset="0"
         id="stop4292" />
      <stop
         style="stop-color:#f4fcff;stop-opacity:1"
         offset="1"
         id="stop4294" />
    </linearGradient>
  </defs>
  <path
     style="fill:currentColor;fill-opacity:0.5;stroke:none"
     d="m 16,10 224,0 c 3.324,0 6,2.676 6,6 l 0,224 c 0,3.324 -2.676,6 -6,6 l -224,0 c -3.324,0 -6,-2.676 -6,-6 L 10,16 c 0,-3.324 2.676,-6 6,-6 z"
     class="ColorScheme-ButtonText"
     id="rect4240" />
  <path
     style="fill:currentColor;fill-opacity:1;stroke:none"
     d="m 16,12 224,0 c 2.216,0 4,1.784 4,4 l 0,224 c 0,2.216 -1.784,4 -4,4 l -224,0 c -2.216,0 -4,-1.784 -4,-4 L 12,16 c 0,-2.216 1.784,-4 4,-4 z"
     class="ColorScheme-Background"
     id="rect4238" />
  <path
     style="fill:currentColor;fill-opacity:1;stroke:none"
     class="ColorScheme-Text"
     d="m 104.72656,26.638673 -1.30273,0.0957 0,11.583984 1.30273,0 0,-3.070312 0.9043,-0.857422 3.33203,3.927734 1.54688,0 -3.9668,-4.5625 3.66601,-3.832031 -1.5957,0 -3.93555,4.259766 0.0488,-1.728516 0,-5.816406 z m -82.488279,0.0957 0,11.583984 1.396485,0 0,-4.769531 1.03125,-0.951172 4.396484,5.720703 1.632812,0 -4.982421,-6.435547 4.746093,-5.148437 -1.634765,0 -5.189453,5.544922 0,-5.544922 -1.396485,0 z m 47.154297,0 c -0.253906,0 -0.462972,0.07959 -0.626953,0.238281 -0.158691,0.1534 -0.236328,0.352949 -0.236328,0.601563 0,0.24862 0.07764,0.452635 0.236328,0.611328 0.163981,0.158687 0.373047,0.238281 0.626953,0.238281 0.248617,0 0.455159,-0.07959 0.619141,-0.238281 0.163981,-0.158693 0.246093,-0.362708 0.246093,-0.611328 0,-0.248614 -0.08211,-0.448163 -0.246093,-0.601563 -0.158692,-0.158693 -0.365234,-0.238281 -0.619141,-0.238281 z m 6.990234,0 0,11.583984 1.396485,0 0,-5.585937 3.507812,0 c 0.433757,0.9786 1.213135,2.840577 2.339844,5.585937 l 1.445313,0 c -0.163981,-0.38086 -0.425456,-0.980874 -0.785157,-1.800781 -0.35441,-0.8199 -0.667724,-1.541829 -0.9375,-2.166016 -0.269775,-0.629479 -0.526204,-1.236492 -0.769531,-1.818359 0.666504,-0.190427 1.169271,-0.509358 1.507813,-0.958984 0.343831,-0.45492 0.515625,-1.087158 0.515625,-1.896485 0,-1.010333 -0.291179,-1.754395 -0.873047,-2.230468 C 83.1486,26.971193 82.25236,26.734376 81.041016,26.734376 l -4.658204,0 z m 34.945308,0 0.28516,4.021484 0.72266,0 0.30078,-4.021484 -1.3086,0 z m -33.548823,1.046875 3.285156,0 c 0.804037,0 1.368734,0.159176 1.691406,0.476562 0.322673,0.312094 0.482422,0.792727 0.482422,1.44336 0,0.386147 -0.03028,0.69946 -0.09375,0.9375 -0.06348,0.238033 -0.185384,0.442627 -0.365234,0.617187 -0.174561,0.169274 -0.418376,0.288656 -0.730469,0.357422 -0.312093,0.06877 -0.720133,0.103516 -1.222656,0.103516 l -3.046875,0 0,-3.935547 z m -42.257813,1.968753 c -1.232503,0 -2.200764,0.401045 -2.904296,1.205078 -0.698242,0.798747 -1.048829,1.856688 -1.048829,3.173828 0,1.2854 0.355632,2.333252 1.064453,3.142578 0.708823,0.804034 1.672038,1.205078 2.888672,1.205078 1.190186,0 2.146403,-0.403563 2.871094,-1.21289 0.724691,-0.814613 1.087891,-1.859946 1.087891,-3.134766 0,-1.31714 -0.350586,-2.375081 -1.048828,-3.173828 -0.698242,-0.804033 -1.667074,-1.205078 -2.910157,-1.205078 z m 9.798828,0 c -1.264241,0 -2.214843,0.443365 -2.849609,1.332031 l -0.142578,-1.158203 -1.142578,0 0,8.394531 1.318359,0 0,-4.68164 c 0,-1.920167 0.861491,-2.88086 2.585938,-2.88086 0.640055,0 1.085937,0.193932 1.339844,0.580079 0.253905,0.380859 0.380859,0.948651 0.380859,1.705078 l 0,5.277343 1.318359,0 0,-5.132812 c 0,-1.153153 -0.231201,-2.014078 -0.691406,-2.580078 -0.454915,-0.571287 -1.15975,-0.855469 -2.117188,-0.855469 z m 8.210938,0 c -1.163737,0 -2.077637,0.40609 -2.744141,1.220703 -0.666504,0.814613 -1,1.882645 -1,3.205078 0,1.248367 0.34611,2.278564 1.039063,3.087891 0.698242,0.809327 1.594482,1.21289 2.689453,1.21289 1.248373,0 2.156657,-0.517907 2.722656,-1.554687 l -0.0332,1.958984 0,3.119141 1.302734,0 0,-12.076172 -1.191406,0 -0.142578,1.357422 c -0.566002,-1.020913 -1.447106,-1.53125 -2.642581,-1.53125 z m 36.738281,0 c -1.232503,0 -2.200765,0.401045 -2.904297,1.205078 -0.698242,0.798747 -1.046875,1.856688 -1.046875,3.173828 0,1.2854 0.353679,2.333252 1.0625,3.142578 0.708822,0.804034 1.672038,1.205078 2.888672,1.205078 1.190186,0 2.146403,-0.403563 2.871094,-1.21289 0.724691,-0.814613 1.087891,-1.859946 1.087891,-3.134766 0,-1.31714 -0.348633,-2.375081 -1.046875,-3.173828 -0.698242,-0.804033 -1.669027,-1.205078 -2.91211,-1.205078 z m 9.226563,0 c -1.169027,0 -2.117676,0.393474 -2.847656,1.181641 -0.72998,0.782873 -1.095704,1.858475 -1.095704,3.228515 0,1.311847 0.355632,2.359698 1.064454,3.142578 0.714111,0.782874 1.670328,1.173828 2.871093,1.173828 0.513109,0 0.973549,-0.05998 1.380859,-0.18164 0.40731,-0.121667 0.70101,-0.253664 0.88086,-0.396484 l -0.24609,-0.896485 c -0.53426,0.306807 -1.12419,0.458985 -1.769535,0.458985 -0.925699,0 -1.628011,-0.30379 -2.109375,-0.91211 -0.481364,-0.608313 -0.722656,-1.404785 -0.722656,-2.388672 0,-1.036786 0.251383,-1.861002 0.753906,-2.474609 0.502523,-0.613607 1.169515,-0.919922 2,-0.919922 0.65593,0 1.24081,0.152178 1.75391,0.458984 l 0.37109,-0.904297 c -0.17985,-0.121666 -0.46907,-0.246093 -0.87109,-0.373046 -0.39673,-0.13224 -0.86922,-0.197266 -1.414066,-0.197266 z m 17.384766,0 c -0.87809,0 -1.56022,0.211592 -2.04688,0.634766 -0.48665,0.417886 -0.73046,0.968017 -0.73046,1.65039 0,0.550134 0.14152,0.998537 0.42187,1.347656 0.28036,0.343834 0.79826,0.637533 1.55469,0.88086 L 117,34.556642 c 0.60832,0.195713 1.02897,0.404779 1.26172,0.626953 0.23275,0.222166 0.34961,0.498212 0.34961,0.826172 0,0.476073 -0.13957,0.839843 -0.41992,1.09375 -0.28036,0.24862 -0.67578,0.373046 -1.1836,0.373046 -0.80932,0 -1.71565,-0.239336 -2.7207,-0.720703 l 0,1.101563 c 0.86751,0.412593 1.74357,0.61914 2.62695,0.61914 0.39673,0 0.7605,-0.04736 1.09375,-0.142578 0.33854,-0.09521 0.63981,-0.237301 0.9043,-0.427734 0.26977,-0.190427 0.48136,-0.444339 0.63477,-0.761719 0.15339,-0.322673 0.23046,-0.693441 0.23046,-1.111328 0,-0.338547 -0.0322,-0.624675 -0.0957,-0.857422 -0.0635,-0.238033 -0.17838,-0.459715 -0.34766,-0.666015 -0.16926,-0.2063 -0.40551,-0.385663 -0.70703,-0.539063 -0.29622,-0.158693 -0.6796,-0.312824 -1.15039,-0.460937 l -0.83398,-0.261719 c -0.54484,-0.17456 -0.90105,-0.338788 -1.07031,-0.492188 -0.16928,-0.1534 -0.25391,-0.40226 -0.25391,-0.746093 0,-0.407307 0.12947,-0.716141 0.38867,-0.927735 0.26448,-0.216873 0.70027,-0.326172 1.30859,-0.326172 0.68238,0 1.38917,0.186361 2.11915,0.556641 l 0.31054,-0.976562 c -0.79346,-0.391434 -1.64933,-0.585938 -2.56445,-0.585938 z m -57.367188,0.173828 0,5.125 c 0,1.137287 0.24886,1.995686 0.746094,2.572266 0.502522,0.571286 1.241536,0.855468 2.214843,0.855468 0.687663,0 1.230225,-0.1023 1.626953,-0.308593 0.402019,-0.211594 0.738037,-0.529952 1.007813,-0.953125 l 0.134766,1.103515 1.142578,0 0,-8.394531 -1.31836,0 0,4.712891 c 0,0.333253 -0.02271,0.637042 -0.07031,0.912109 -0.04761,0.27506 -0.129721,0.534017 -0.246094,0.777344 -0.116374,0.243333 -0.267985,0.447348 -0.453125,0.611328 -0.17985,0.16398 -0.411621,0.293459 -0.697266,0.388672 -0.280354,0.09521 -0.603759,0.142578 -0.96875,0.142578 -0.645345,0 -1.108317,-0.191978 -1.388671,-0.578125 -0.275066,-0.386147 -0.41211,-0.953365 -0.41211,-1.699219 l 0,-5.267578 -1.318359,0 z m 9.220703,0 0,8.394531 1.300781,0 0,-8.394531 -1.300781,0 z M 35.521484,30.75586 c 0.862224,0 1.512126,0.310795 1.951172,0.929688 0.439046,0.613607 0.658203,1.432778 0.658203,2.458984 0,0.65592 -0.08968,1.23071 -0.269531,1.722657 -0.17985,0.486653 -0.471028,0.877601 -0.873047,1.173828 -0.396728,0.290933 -0.884928,0.435546 -1.466797,0.435546 -0.846354,0 -1.493164,-0.306315 -1.9375,-0.919921 -0.444336,-0.613607 -0.666015,-1.420162 -0.666015,-2.419922 0,-1.020914 0.221679,-1.837565 0.666015,-2.451172 0.444336,-0.618893 1.091146,-0.929688 1.9375,-0.929688 z m 18.16211,0 c 0.835774,0 1.458496,0.286136 1.871094,0.857422 0.412597,0.566 0.61914,1.349856 0.61914,2.34961 0,2.343346 -0.831787,3.513671 -2.498047,3.513671 -0.846354,0 -1.490641,-0.30127 -1.929687,-0.904296 -0.439046,-0.603027 -0.658203,-1.424724 -0.658203,-2.466797 0,-1.026207 0.216634,-1.840333 0.65039,-2.44336 0.439046,-0.603026 1.088379,-0.90625 1.945313,-0.90625 z m 36.585937,0 c 0.862224,0 1.512126,0.310795 1.951172,0.929688 0.439047,0.613607 0.658203,1.432778 0.658203,2.458984 0,0.65592 -0.08968,1.23071 -0.269531,1.722657 -0.17985,0.486653 -0.471028,0.877601 -0.873047,1.173828 -0.396728,0.290933 -0.884928,0.435546 -1.466797,0.435546 -0.846354,0 -1.491211,-0.306315 -1.935547,-0.919921 -0.444336,-0.613607 -0.667968,-1.420162 -0.667968,-2.419922 0,-1.020914 0.223632,-1.837565 0.667968,-2.451172 0.444336,-0.618893 1.089193,-0.929688 1.935547,-0.929688 z M 20,50.000001 l 0,1 216,0 0,-1 -216,0 z M 128,188 c -13.296,0 -24,10.704 -24,24 0,13.296 10.704,24 24,24 13.296,0 24,-10.704 24,-24 0,-13.296 -10.704,-24 -24,-24 z m 0,3 c 11.634,0 21,9.366 21,21 0,11.634 -9.366,21 -21,21 -11.634,0 -21,-9.366 -21,-21 0,-11.634 9.366,-21 21,-21 z m -86,5 c -8.864,0 -16,7.136 -16,16 0,8.864 7.136,16 16,16 8.864,0 16,-7.136 16,-16 0,-8.864 -7.136,-16 -16,-16 z m 172,0 c -8.864,0 -16,7.136 -16,16 0,8.864 7.136,16 16,16 8.864,0 16,-7.136 16,-16 0,-8.864 -7.136,-16 -16,-16 z m -172,2 c 7.756,0 14,6.244 14,14 0,7.756 -6.244,14 -14,14 -7.756,0 -14,-6.244 -14,-14 0,-7.756 6.244,-14 14,-14 z m 172,0 c 7.756,0 14,6.244 14,14 0,7.756 -6.244,14 -14,14 -7.756,0 -14,-6.244 -14,-14 0,-7.756 6.244,-14 14,-14 z m -92,5 0,18 12,-9 -12,-9 z m -86,3 0,12 4,0 0,-6 0,-6 -4,0 z m 4,6 8,6 0,-12 -8,6 z m 168,-6 0,12 8,-6 -8,-6 z m 8,6 0,6 4,0 0,-12 -4,0 0,6 z"
     id="path7228" />
  <g
     transform="matrix(4.3292767,0,0,4.3292767,54.690916,-1093.4679)"
     id="layer1-7"
     inkscape:label="Capa 1">
    <g
       transform="translate(-2.3812507,0)"
       id="g4785">
      <path
         inkscape:connector-curvature="0"
         id="path4744"
         d="m 21.166667,276.36238 a 3.7042129,3.7042129 0 0 0 -3.704212,3.70428 3.7042129,3.7042129 0 0 0 3.704212,3.70428 3.7042129,3.7042129 0 0 0 3.704213,-3.70428 3.7042129,3.7042129 0 0 0 -3.704213,-3.70428 z m 0,2.70103 a 1.0032232,1.0032232 0 0 1 1.003228,1.00325 1.0032232,1.0032232 0 0 1 -1.003228,1.00325 1.0032232,1.0032232 0 0 1 -1.003227,-1.00325 1.0032232,1.0032232 0 0 1 1.003227,-1.00325 z"
         style="opacity:1;fill:#000000;fill-opacity:0.15686275;stroke:none;stroke-width:0.1;stroke-linecap:round;stroke-linejoin:miter;stroke-miterlimit:4;stroke-dasharray:none;stroke-opacity:0.29943501" />
      <path
         style="opacity:1;fill:url(#radialGradient4553);fill-opacity:1;stroke:none;stroke-width:0.1;stroke-linecap:round;stroke-linejoin:miter;stroke-miterlimit:4;stroke-dasharray:none;stroke-opacity:0.29943501"
         d="m 21.166667,267.36666 a 12.699996,12.699996 0 0 0 -12.7000011,12.7 12.699996,12.699996 0 0 0 12.7000011,12.7 12.699996,12.699996 0 0 0 12.700001,-12.7 12.699996,12.699996 0 0 0 -12.700001,-12.7 z m 0,9.26042 a 3.4395781,3.4395781 0 0 1 3.439584,3.43958 3.4395781,3.4395781 0 0 1 -3.439584,3.43959 3.4395781,3.4395781 0 0 1 -3.439583,-3.43959 3.4395781,3.4395781 0 0 1 3.439583,-3.43958 z"
         id="circle4545"
         inkscape:connector-curvature="0" />
      <path
         style="opacity:1;fill:url(#linearGradient4652);fill-opacity:1;stroke:none;stroke-width:0.1;stroke-linecap:round;stroke-linejoin:miter;stroke-miterlimit:4;stroke-dasharray:none;stroke-opacity:0.29943501"
         d="M 21.166667,267.63125 A 12.435412,12.435412 0 0 0 8.7312489,280.06666 12.435412,12.435412 0 0 0 21.166667,292.50208 12.435412,12.435412 0 0 0 33.602084,280.06666 12.435412,12.435412 0 0 0 21.166667,267.63125 Z m 0,8.99583 a 3.4395832,3.4395832 0 0 0 -0.289904,0.0145 3.4395781,3.4395781 0 0 1 0.289904,-0.0145 z m 0.289905,0.0145 a 3.4395781,3.4395781 0 0 1 0.17725,0.0217 3.4395832,3.4395832 0 0 0 -0.17725,-0.0217 z m -0.757059,0.0217 a 3.4395832,3.4395832 0 0 0 -0.166915,0.0248 3.4395781,3.4395781 0 0 1 0.166915,-0.0248 z m 1.101224,0.0248 a 3.4395781,3.4395781 0 0 1 0.172083,0.0388 3.4395832,3.4395832 0 0 0 -0.172083,-0.0388 z m -1.440222,0.0388 a 3.4395832,3.4395832 0 0 0 -0.157096,0.0403 3.4395781,3.4395781 0 0 1 0.157096,-0.0403 z m 1.769401,0.0403 a 3.4395781,3.4395781 0 0 1 0.172083,0.0568 3.4395832,3.4395832 0 0 0 -0.172083,-0.0568 z m -2.09858,0.0568 a 3.4395832,3.4395832 0 0 0 -0.156579,0.0568 3.4395781,3.4395781 0 0 1 0.156579,-0.0568 z m 2.427242,0.0568 a 3.4395781,3.4395781 0 0 1 0.157614,0.0708 3.4395832,3.4395832 0 0 0 -0.157614,-0.0708 z m -2.741435,0.0708 a 3.4395832,3.4395832 0 0 0 -0.155029,0.0754 3.4395781,3.4395781 0 0 1 0.155029,-0.0754 z m 3.054078,0.0754 a 3.4395781,3.4395781 0 0 1 0.143144,0.0816 3.4395832,3.4395832 0 0 0 -0.143144,-0.0816 z m -3.352251,0.0816 a 3.4395832,3.4395832 0 0 0 -0.153995,0.0946 3.4395781,3.4395781 0 0 1 0.153995,-0.0946 z m 3.64939,0.0946 a 3.4395781,3.4395781 0 0 1 0.134876,0.0966 3.4395832,3.4395832 0 0 0 -0.134876,-0.0966 z m -3.938261,0.0966 a 3.4395832,3.4395832 0 0 0 -0.137976,0.10438 3.4395781,3.4395781 0 0 1 0.137976,-0.10438 z m 4.211113,0.10438 a 3.4395781,3.4395781 0 0 1 0.132808,0.11679 3.4395832,3.4395832 0 0 0 -0.132808,-0.11679 z m -4.481897,0.11679 a 3.4395832,3.4395832 0 0 0 -0.123507,0.11472 3.4395781,3.4395781 0 0 1 0.123507,-0.11472 z m 4.738212,0.11472 a 3.4395781,3.4395781 0 0 1 0.114722,0.12351 3.4395832,3.4395832 0 0 0 -0.114722,-0.12351 z m -4.976441,0.12351 a 3.4395832,3.4395832 0 0 0 -0.116788,0.13281 3.4395781,3.4395781 0 0 1 0.116788,-0.13281 z m 5.207951,0.13281 a 3.4395781,3.4395781 0 0 1 0.104387,0.13798 3.4395832,3.4395832 0 0 0 -0.104387,-0.13798 z m -5.429126,0.13798 a 3.4395832,3.4395832 0 0 0 -0.09663,0.13487 3.4395781,3.4395781 0 0 1 0.09663,-0.13487 z m 5.630148,0.13487 a 3.4395781,3.4395781 0 0 1 0.09457,0.154 3.4395832,3.4395832 0 0 0 -0.09457,-0.154 z m -5.821351,0.154 a 3.4395832,3.4395832 0 0 0 -0.08165,0.14314 3.4395781,3.4395781 0 0 1 0.08165,-0.14314 z m 5.997567,0.14314 a 3.4395781,3.4395781 0 0 1 0.07545,0.15503 3.4395832,3.4395832 0 0 0 -0.07545,-0.15503 z m -6.154663,0.15503 a 3.4395832,3.4395832 0 0 0 -0.0708,0.15761 3.4395781,3.4395781 0 0 1 0.0708,-0.15761 z m 3.115055,0.12661 a 1.3229165,1.3229165 0 0 1 1.322917,1.32291 1.3229165,1.3229165 0 0 1 -1.322917,1.32292 1.3229165,1.3229165 0 0 1 -1.322916,-1.32292 1.3229165,1.3229165 0 0 1 1.322916,-1.32291 z m 3.185853,0.031 a 3.4395781,3.4395781 0 0 1 0.05684,0.15658 3.4395832,3.4395832 0 0 0 -0.05684,-0.15658 z m -6.428549,0.15658 a 3.4395832,3.4395832 0 0 0 -0.05684,0.17209 3.4395781,3.4395781 0 0 1 0.05684,-0.17209 z m 6.542237,0.17209 a 3.4395781,3.4395781 0 0 1 0.04031,0.15709 3.4395832,3.4395832 0 0 0 -0.04031,-0.15709 z m -6.639388,0.15709 a 3.4395832,3.4395832 0 0 0 -0.03876,0.17208 3.4395781,3.4395781 0 0 1 0.03876,-0.17208 z m 6.718453,0.17208 a 3.4395781,3.4395781 0 0 1 0.0248,0.16692 3.4395832,3.4395832 0 0 0 -0.0248,-0.16692 z m -6.782015,0.16692 a 3.4395832,3.4395832 0 0 0 -0.0217,0.17725 3.4395781,3.4395781 0 0 1 0.0217,-0.17725 z m 6.828523,0.17725 a 3.4395781,3.4395781 0 0 1 0.01447,0.2899 3.4395832,3.4395832 0 0 0 -0.01447,-0.2899 z m -6.864697,0.2899 a 3.4395832,3.4395832 0 0 0 0.01447,0.28991 3.4395781,3.4395781 0 0 1 -0.01447,-0.28991 z m 6.864697,0.28991 a 3.4395781,3.4395781 0 0 1 -0.0217,0.17725 3.4395832,3.4395832 0 0 0 0.0217,-0.17725 z m -6.828523,0.17725 a 3.4395832,3.4395832 0 0 0 0.0248,0.16691 3.4395781,3.4395781 0 0 1 -0.0248,-0.16691 z m 6.782015,0.16691 a 3.4395781,3.4395781 0 0 1 -0.03876,0.17209 3.4395832,3.4395832 0 0 0 0.03876,-0.17209 z m -6.718453,0.17209 a 3.4395832,3.4395832 0 0 0 0.04031,0.15709 3.4395781,3.4395781 0 0 1 -0.04031,-0.15709 z m 6.639388,0.15709 a 3.4395781,3.4395781 0 0 1 -0.05684,0.17209 3.4395832,3.4395832 0 0 0 0.05684,-0.17209 z m -6.542237,0.17209 a 3.4395832,3.4395832 0 0 0 0.05684,0.15657 3.4395781,3.4395781 0 0 1 -0.05684,-0.15657 z m 6.428549,0.15657 a 3.4395781,3.4395781 0 0 1 -0.0708,0.15762 3.4395832,3.4395832 0 0 0 0.0708,-0.15762 z m -6.300908,0.15762 a 3.4395832,3.4395832 0 0 0 0.07545,0.15503 3.4395781,3.4395781 0 0 1 -0.07545,-0.15503 z m 6.154663,0.15503 a 3.4395781,3.4395781 0 0 1 -0.08165,0.14314 3.4395832,3.4395832 0 0 0 0.08165,-0.14314 z m -5.997567,0.14314 a 3.4395832,3.4395832 0 0 0 0.09457,0.154 3.4395781,3.4395781 0 0 1 -0.09457,-0.154 z m 5.821351,0.154 a 3.4395781,3.4395781 0 0 1 -0.09663,0.13487 3.4395832,3.4395832 0 0 0 0.09663,-0.13487 z m -5.630148,0.13487 a 3.4395832,3.4395832 0 0 0 0.104387,0.13798 3.4395781,3.4395781 0 0 1 -0.104387,-0.13798 z m 5.429126,0.13798 a 3.4395781,3.4395781 0 0 1 -0.116788,0.13281 3.4395832,3.4395832 0 0 0 0.116788,-0.13281 z m -5.207951,0.13281 a 3.4395832,3.4395832 0 0 0 0.114722,0.1235 3.4395781,3.4395781 0 0 1 -0.114722,-0.1235 z m 4.976441,0.1235 a 3.4395781,3.4395781 0 0 1 -0.123507,0.11472 3.4395832,3.4395832 0 0 0 0.123507,-0.11472 z m -4.738212,0.11472 a 3.4395832,3.4395832 0 0 0 0.132808,0.11679 3.4395781,3.4395781 0 0 1 -0.132808,-0.11679 z m 4.481897,0.11679 a 3.4395781,3.4395781 0 0 1 -0.137976,0.10439 3.4395832,3.4395832 0 0 0 0.137976,-0.10439 z m -4.211113,0.10439 a 3.4395832,3.4395832 0 0 0 0.134876,0.0966 3.4395781,3.4395781 0 0 1 -0.134876,-0.0966 z m 3.938261,0.0966 a 3.4395781,3.4395781 0 0 1 -0.153995,0.0946 3.4395832,3.4395832 0 0 0 0.153995,-0.0946 z m -3.64939,0.0946 a 3.4395832,3.4395832 0 0 0 0.143144,0.0816 3.4395781,3.4395781 0 0 1 -0.143144,-0.0816 z m 3.352251,0.0816 a 3.4395781,3.4395781 0 0 1 -0.155029,0.0754 3.4395832,3.4395832 0 0 0 0.155029,-0.0754 z m -3.054078,0.0754 a 3.4395832,3.4395832 0 0 0 0.157614,0.0708 3.4395781,3.4395781 0 0 1 -0.157614,-0.0708 z m 2.741435,0.0708 a 3.4395781,3.4395781 0 0 1 -0.156579,0.0568 3.4395832,3.4395832 0 0 0 0.156579,-0.0568 z m -2.427242,0.0568 a 3.4395832,3.4395832 0 0 0 0.172083,0.0568 3.4395781,3.4395781 0 0 1 -0.172083,-0.0568 z m 2.09858,0.0568 a 3.4395781,3.4395781 0 0 1 -0.157096,0.0403 3.4395832,3.4395832 0 0 0 0.157096,-0.0403 z m -1.769401,0.0403 a 3.4395832,3.4395832 0 0 0 0.172083,0.0388 3.4395781,3.4395781 0 0 1 -0.172083,-0.0388 z m 1.440222,0.0388 a 3.4395781,3.4395781 0 0 1 -0.166915,0.0248 3.4395832,3.4395832 0 0 0 0.166915,-0.0248 z m -1.101224,0.0248 a 3.4395832,3.4395832 0 0 0 0.17725,0.0217 3.4395781,3.4395781 0 0 1 -0.17725,-0.0217 z m 0.757059,0.0217 a 3.4395781,3.4395781 0 0 1 -0.289905,0.0145 3.4395832,3.4395832 0 0 0 0.289905,-0.0145 z"
         id="path4308"
         inkscape:connector-curvature="0" />
      <path
         style="opacity:1;fill:#313437;fill-opacity:1;stroke:none;stroke-width:0.1;stroke-linecap:round;stroke-linejoin:miter;stroke-miterlimit:4;stroke-dasharray:none;stroke-opacity:0.29943501"
         d="M 21.166667,268.16041 A 11.906245,11.906245 0 0 0 9.2604156,280.06666 11.906245,11.906245 0 0 0 21.166667,291.97291 11.906245,11.906245 0 0 0 33.072918,280.06666 11.906245,11.906245 0 0 0 21.166667,268.16041 Z m 0,8.46667 a 3.4395781,3.4395781 0 0 1 3.439584,3.43958 3.4395781,3.4395781 0 0 1 -3.439584,3.43959 3.4395781,3.4395781 0 0 1 -3.439583,-3.43959 3.4395781,3.4395781 0 0 1 3.439583,-3.43958 z m 0,0.79375 a 2.6458282,2.6458282 0 0 0 -2.645833,2.64583 2.6458282,2.6458282 0 0 0 2.645833,2.64584 2.6458282,2.6458282 0 0 0 2.645834,-2.64584 2.6458282,2.6458282 0 0 0 -2.645834,-2.64583 z m 0,1.32292 a 1.3229115,1.3229115 0 0 1 1.322917,1.32291 1.3229115,1.3229115 0 0 1 -1.322917,1.32292 1.3229115,1.3229115 0 0 1 -1.322916,-1.32292 1.3229115,1.3229115 0 0 1 1.322916,-1.32291 z"
         id="circle4543"
         inkscape:connector-curvature="0" />
      <path
         inkscape:connector-curvature="0"
         style="fill:url(#linearGradient4742);fill-opacity:1;stroke:none"
         d="m 28.839584,278.47921 0,0.52916 0,1.66037 c -0.07805,-0.0453 -0.1675,-0.0729 -0.264584,-0.0729 -0.293157,0 -0.529166,0.23601 -0.529166,0.52917 0,0.29316 0.236009,0.52917 0.529166,0.52917 0.293157,0 0.529167,-0.23601 0.529167,-0.52917 l 0,-1.5875 1.852083,0 0,0.60203 c -0.07805,-0.0453 -0.1675,-0.0729 -0.264583,-0.0729 -0.293157,0 -0.529167,0.23601 -0.529167,0.52916 0,0.29316 0.23601,0.52917 0.529167,0.52917 0.293157,0 0.529167,-0.23601 0.529167,-0.52917 l 0,-2.11666 -2.38125,0 z m 0.264583,0.52916 1.852083,0 0,0.26459 -1.852083,0 0,-0.26459 z"
         id="rect4141" />
      <path
         style="fill:#4c5053;fill-opacity:1;stroke:none"
         d="m 26.822133,270.27108 c -0.577927,-0.33354 -1.174773,-0.59804 -1.779756,-0.81944 l -2.062656,5.57723 c 0.294443,0.10736 0.584737,0.23544 0.865846,0.39782 0.281108,0.1621 0.537832,0.34924 0.777498,0.55086 l 3.798623,-4.57478 c -0.494258,-0.41316 -1.021625,-0.79789 -1.599555,-1.13169 z"
         id="path4128"
         inkscape:connector-curvature="0" />
      <path
         id="path4197"
         d="m 15.5112,289.86225 c -0.57793,-0.3338 -1.105322,-0.71828 -1.599559,-1.13168 l 3.798627,-4.57478 c 0.239666,0.20164 0.49639,0.38872 0.777473,0.55085 0.281109,0.16228 0.571405,0.29114 0.865871,0.39783 l -2.062656,5.57723 c -0.604983,-0.2214 -1.201851,-0.48591 -1.779756,-0.81945 z"
         style="fill:#4c5053;fill-opacity:1;stroke:none"
         inkscape:connector-curvature="0" />
      <path
         inkscape:connector-curvature="0"
         style="fill:#4c5053;fill-opacity:0.19774014;stroke:none"
         d="m 13.168606,288.0646 c -0.471869,-0.47172 -0.881699,-0.97979 -1.252166,-1.50679 l 4.853277,-3.43604 c 0.17925,0.25688 0.378869,0.50394 0.608402,0.73344 0.229507,0.22951 0.476562,0.42922 0.733368,0.60841 l -3.435838,4.85325 c -0.527079,-0.37039 -1.035171,-0.7803 -1.507043,-1.25227 z"
         id="path4461" />
      <path
         style="fill:#4c5053;fill-opacity:0.19774014;stroke:none"
         d="m 30.962223,274.41112 c -0.333669,-0.57785 -0.718373,-1.10524 -1.131581,-1.5994 l -4.574905,3.79852 c 0.201643,0.23977 0.388647,0.49637 0.550928,0.77755 0.162344,0.28118 0.291142,0.57145 0.397851,0.86582 l 5.577156,-2.06273 c -0.2214,-0.60488 -0.485781,-1.20165 -0.819449,-1.77976 z"
         id="path4463"
         inkscape:connector-curvature="0" />
      <path
         id="path4465"
         d="m 11.371085,285.72221 c -0.333644,-0.57811 -0.598023,-1.17488 -0.819424,-1.77976 l 5.577131,-2.06273 c 0.106693,0.29437 0.23557,0.58489 0.397876,0.86582 0.162326,0.28118 0.349261,0.53779 0.550903,0.77755 l -4.57488,3.79853 c -0.413233,-0.49417 -0.797935,-1.02156 -1.131606,-1.59941 z"
         style="fill:#4c5053;fill-opacity:0.19774014;stroke:none"
         inkscape:connector-curvature="0" />
      <path
         inkscape:connector-curvature="0"
         style="opacity:1;fill:#000000;fill-opacity:0.07843137;stroke:none;stroke-width:0.1;stroke-linecap:round;stroke-linejoin:miter;stroke-miterlimit:4;stroke-dasharray:none;stroke-opacity:0.29943501"
         d="M 80,52 A 12,12 0 0 0 68,64 12,12 0 0 0 80,76 12,12 0 0 0 92,64 12,12 0 0 0 80,52 Z m 0,1 A 11,11 0 0 1 91,64 11,11 0 0 1 80,75 11,11 0 0 1 69,64 11,11 0 0 1 80,53 Z"
         transform="matrix(0.26458334,0,0,0.26458334,-1.0093054e-6,263.13333)"
         id="path4780" />
    </g>
    <path
       inkscape:connector-curvature="0"
       id="rect4188"
       d="m 2.3812485,267.36666 0,25.4 25.4000005,0 0,-10.84791 -2.38125,0 c -1.026054,0 -1.852083,-0.82603 -1.852083,-1.85209 0,-1.02605 0.826029,-1.85208 1.852083,-1.85208 l 2.38125,0 0,-10.84792 -25.4000005,0 z"
       style="opacity:1;fill:url(#linearGradient4306);fill-opacity:1;stroke:none;stroke-width:0.1;stroke-linecap:round;stroke-linejoin:miter;stroke-miterlimit:4;stroke-dasharray:none;stroke-opacity:0.29943501" />
    <path
       id="rect4480"
       d="m 5.2141508,269.29625 -0.374138,0.37414 2.1166671,2.11667 -0.07752,0.0775 2.9104172,2.91042 0.155029,0 0.7482749,0 0.155028,0 0,-1.5875 -1.3229152,-1.32292 -1.322917,-1.32291 -0.871265,0.87126 -2.116667,-2.11667 z m -0.567924,1.62626 -0.561206,0.56121 1.455208,1.45521 -0.358117,0.35811 1.477945,1.47795 1.8391651,0 -3.8529951,-3.85248 z"
       style="opacity:0.2;fill:url(#linearGradient4507);fill-opacity:1;stroke:none;stroke-opacity:1"
       inkscape:connector-curvature="0" />
    <g
       style="fill:url(#linearGradient4444);fill-opacity:1;stroke:none"
       inkscape:label="Capa 1"
       id="layer1-2"
       transform="matrix(0.26458334,0,0,0.26458334,3.1750013,-4.1916754)">
      <path
         inkscape:connector-curvature="0"
         style="opacity:1;fill:url(#linearGradient4452);fill-opacity:1;stroke:none"
         d="M 7,3 C 6.446,3 6,3.446 6,4 6,4.554 6.446,5 7,5 7.554,5 8,4.554 8,4 8,3.446 7.554,3 7,3 Z m 7,0 -2,2 3,3 -3,3 2,2 3,-3 2,-2 -5,-5 z M 4.5,9 C 3.669,9 3,9.669 3,10.5 3,11.331 3.669,12 4.5,12 5.331,12 6,11.331 6,10.5 6,9.669 5.331,9 4.5,9 Z M 9,15 c -1.108,0 -2,0.892 -2,2 0,1.108 0.892,2 2,2 1.108,0 2,-0.892 2,-2 0,-1.108 -0.892,-2 -2,-2 z"
         transform="translate(0,1030.3622)"
         id="rect4231" />
    </g>
    <path
       inkscape:connector-curvature="0"
       id="path4532"
       d="m 27.516666,267.36666 0,10.58334 -2.38125,0 c -1.026054,0 -1.852083,0.82602 -1.852083,1.85208 0,0.58063 0.264987,1.09701 0.680578,1.43609 -0.260127,-0.31882 -0.415995,-0.72608 -0.415995,-1.17151 0,-1.02605 0.826029,-1.85208 1.852083,-1.85208 l 2.38125,0 0,-10.84792 -0.264583,0 z m 0,14.55209 0,10.58333 -25.1354175,0 0,0.26458 25.4000005,0 0,-10.84791 -0.264583,0 z"
       style="opacity:1;fill:#000000;fill-opacity:0.31372549;stroke:none;stroke-width:0.1;stroke-linecap:round;stroke-linejoin:miter;stroke-miterlimit:4;stroke-dasharray:none;stroke-opacity:0.29943501" />
    <path
       sodipodi:nodetypes="ccccccssccsc"
       inkscape:connector-curvature="0"
       id="path4537"
       d="m 2.3812485,267.36666 0,0.26459 25.1354175,0 0,-0.26459 z m 21.1733855,12.8323 c -0.0031,0.0439 -0.0067,0.0876 -0.0067,0.13229 0,1.02605 0.826029,1.85208 1.852083,1.85208 l 2.38125,0 0,-0.26458 -2.38125,0 c -0.981317,0 -1.777613,-0.7563 -1.845365,-1.71979 z"
       style="opacity:1;fill:#ffffff;fill-opacity:0.23529412;stroke:none;stroke-width:0.1;stroke-linecap:round;stroke-linejoin:miter;stroke-miterlimit:4;stroke-dasharray:none;stroke-opacity:0.29943501" />
  </g>
</svg>
