<?xml version="1.0" encoding="UTF-8" standalone="no"?>
<svg
   xmlns:dc="http://purl.org/dc/elements/1.1/"
   xmlns:cc="http://creativecommons.org/ns#"
   xmlns:rdf="http://www.w3.org/1999/02/22-rdf-syntax-ns#"
   xmlns:svg="http://www.w3.org/2000/svg"
   xmlns="http://www.w3.org/2000/svg"
   xmlns:sodipodi="http://sodipodi.sourceforge.net/DTD/sodipodi-0.dtd"
   xmlns:inkscape="http://www.inkscape.org/namespaces/inkscape"
   viewBox="0 0 256 256"
   id="svg2"
   version="1.1"
   inkscape:version="0.91 r13725"
   sodipodi:docname="org.kde.plasma.systemloadviewer.svg">
  <metadata
     id="metadata10">
    <rdf:RDF>
      <cc:Work
         rdf:about="">
        <dc:format>image/svg+xml</dc:format>
        <dc:type
           rdf:resource="http://purl.org/dc/dcmitype/StillImage" />
        <dc:title />
      </cc:Work>
    </rdf:RDF>
  </metadata>
  <sodipodi:namedview
     pagecolor="#ffffff"
     bordercolor="#666666"
     borderopacity="1"
     objecttolerance="10"
     gridtolerance="10"
     guidetolerance="10"
     inkscape:pageopacity="0"
     inkscape:pageshadow="2"
     inkscape:window-width="1920"
     inkscape:window-height="1050"
     id="namedview8"
     showgrid="false"
     inkscape:zoom="2.6074563"
     inkscape:cx="86.222828"
     inkscape:cy="126.78573"
     inkscape:window-x="0"
     inkscape:window-y="30"
     inkscape:window-maximized="1"
     inkscape:current-layer="svg2" />
  <defs
     id="defs4">
    <style
       id="current-color-scheme"
       type="text/css">
      .ColorScheme-Text {
        color:#f2f2f2;
      }
      .ColorScheme-Background {
        color:#31363b;
      }
      .ColorScheme-Highlight {
        color:#3daee9;
      }
      .ColorScheme-ViewText {
        color:#31363b;
      }
      .ColorScheme-ViewBackground {
        color:#314045;
      }
      .ColorScheme-ViewHover {
        color:#93cee9;
      }
      .ColorScheme-ViewFocus{
        color:#3daee9;
      }
      .ColorScheme-ButtonText {
        color:#31363b;
      }
      .ColorScheme-ButtonBackground {
        color:#31363b;
      }
      .ColorScheme-ButtonHover {
        color:#93cee9;
      }
      .ColorScheme-ButtonFocus{
        color:#3daee9;
      }
      </style>
  </defs>
  <path
     style="fill:currentColor;fill-opacity:0.5;stroke:none"
     d="m 16,10 224,0 c 3.324,0 6,2.676 6,6 l 0,224 c 0,3.324 -2.676,6 -6,6 l -224,0 c -3.324,0 -6,-2.676 -6,-6 L 10,16 c 0,-3.324 2.676,-6 6,-6 z"
     class="ColorScheme-ButtonText"
     id="rect4240" />
  <path
     style="fill:currentColor;fill-opacity:1;stroke:none"
     d="m 16,12 224,0 c 2.216,0 4,1.784 4,4 l 0,224 c 0,2.216 -1.784,4 -4,4 l -224,0 c -2.216,0 -4,-1.784 -4,-4 L 12,16 c 0,-2.216 1.784,-4 4,-4 z"
     class="ColorScheme-Background"
     id="rect4238" />
  <path
     style="fill:currentColor;fill-opacity:1;stroke:none"
     class="ColorScheme-Text"
     d="m 43.978516,20.57617 c -1.084392,0 -2.042562,0.249433 -2.873047,0.751953 -0.825196,0.497233 -1.459961,1.193931 -1.904297,2.087891 -0.444336,0.893966 -0.666016,1.917159 -0.666016,3.070312 0,0.899253 0.134522,1.725423 0.404297,2.476563 0.275065,0.75114 0.655924,1.383384 1.142578,1.896484 0.486654,0.507813 1.069011,0.903806 1.746094,1.189453 0.682373,0.280353 1.42391,0.419922 2.222656,0.419922 1.142578,0 2.160726,-0.226727 3.054688,-0.681641 l -0.326172,-1.039062 c -0.867513,0.407307 -1.726482,0.609375 -2.578125,0.609375 -1.311849,0 -2.352132,-0.440839 -3.119141,-1.324219 -0.761718,-0.883387 -1.142578,-2.05062 -1.142578,-3.5 0,-1.444093 0.370768,-2.611899 1.111328,-3.505859 0.74585,-0.899254 1.761475,-1.34961 3.046875,-1.34961 0.999756,0 1.871338,0.233719 2.617188,0.699219 l 0.460937,-0.912109 C 46.350586,20.872395 45.285074,20.57617 43.978516,20.57617 Z m 144.072264,0 c -0.49723,0 -0.9602,0.05746 -1.38867,0.173828 -0.42847,0.116373 -0.8169,0.293217 -1.16602,0.53125 -0.34912,0.232753 -0.6232,0.548586 -0.82421,0.945312 -0.20101,0.396727 -0.30274,0.850182 -0.30274,1.363282 0,0.745853 0.19393,1.333252 0.58008,1.761718 0.38615,0.423174 0.97103,0.783852 1.7539,1.080079 l 1.88672,0.720703 c 0.74056,0.28564 1.23828,0.569249 1.49219,0.849609 0.25919,0.27506 0.38867,0.690674 0.38867,1.246094 0,0.481367 -0.11491,0.88493 -0.34765,1.212891 -0.22746,0.322673 -0.52368,0.556398 -0.88867,0.699218 -0.36499,0.137534 -0.78817,0.207032 -1.26954,0.207032 -0.59244,0 -1.20955,-0.106773 -1.84961,-0.31836 -0.63476,-0.211587 -1.20507,-0.500241 -1.71289,-0.865234 l 0,1.253906 c 0.32796,0.29094 0.82121,0.537275 1.48243,0.738281 0.66121,0.201007 1.34586,0.300781 2.05468,0.300781 0.39673,0 0.77255,-0.03475 1.12696,-0.103515 0.3597,-0.06877 0.70581,-0.181157 1.03906,-0.339844 0.33325,-0.16398 0.61938,-0.368001 0.85742,-0.611328 0.23803,-0.243327 0.42944,-0.554687 0.57227,-0.935547 0.14282,-0.38086 0.21289,-0.811036 0.21289,-1.287109 0,-0.386154 -0.0474,-0.729737 -0.14258,-1.03125 -0.0952,-0.301514 -0.2146,-0.555419 -0.35742,-0.761719 -0.14282,-0.2063 -0.34489,-0.398278 -0.60938,-0.578125 -0.25919,-0.18514 -0.51058,-0.336752 -0.7539,-0.453125 -0.23804,-0.116373 -0.54883,-0.248371 -0.92969,-0.396484 l -1.82422,-0.714844 c -0.55542,-0.21688 -0.94132,-0.453697 -1.1582,-0.712891 -0.21159,-0.264486 -0.31836,-0.6403 -0.31836,-1.126953 0,-0.396727 0.11686,-0.73022 0.34961,-1 0.23274,-0.269773 0.52644,-0.459226 0.88086,-0.570312 0.3544,-0.116374 0.75992,-0.175782 1.21484,-0.175782 0.49194,0 0.98266,0.0695 1.47461,0.207032 0.49723,0.137533 0.91789,0.32446 1.26172,0.5625 l 0.50781,-0.982422 c -0.45492,-0.280354 -0.97282,-0.498944 -1.55469,-0.652344 -0.57658,-0.158693 -1.15641,-0.236328 -1.73828,-0.236328 z m -138.914061,0.158203 0,11.583984 1.396484,0 0,-5.601562 2.505859,0 c 1.30656,0 2.259685,-0.263996 2.857422,-0.792969 0.597738,-0.53426 0.896485,-1.320635 0.896485,-2.357422 0,-0.507813 -0.0922,-0.946126 -0.277344,-1.316406 -0.179851,-0.375567 -0.443278,-0.671792 -0.787109,-0.888672 -0.343832,-0.21688 -0.734782,-0.376062 -1.173828,-0.476562 -0.439047,-0.100507 -0.934816,-0.150391 -1.490235,-0.150391 l -3.927734,0 z m 9.25,0 0,7.386719 c 0,1.333013 0.385335,2.390955 1.152343,3.173828 0.767009,0.78288 1.895021,1.173828 3.386719,1.173828 0.74585,0 1.410319,-0.10482 1.992188,-0.316406 0.581868,-0.21688 1.054931,-0.518144 1.419922,-0.904297 0.37028,-0.391433 0.651367,-0.84936 0.841797,-1.373047 0.19043,-0.52368 0.285156,-1.100995 0.285156,-1.730469 l 0,-7.410156 -1.396485,0 0,7.363281 c 0,1.06852 -0.263997,1.880127 -0.792968,2.435547 -0.528972,0.550133 -1.312826,0.824219 -2.34961,0.824219 -2.094726,0 -3.142578,-1.085692 -3.142578,-3.259766 l 0,-7.363281 -1.396484,0 z m 40.917969,0 -0.230469,11.583984 1.318361,0 0.10937,-7.148437 0,-2.738281 3.65039,8.59375 1.19922,0 3.67383,-8.498047 0,2.609375 0.10938,7.18164 1.30273,0 -0.23047,-11.583984 -1.66601,0 -3.76954,8.798828 -3.7539,-8.798828 -1.712892,0 z m -48.771485,1.046875 2.521485,0 c 0.761718,0 1.341552,0.137043 1.738281,0.412109 0.402018,0.269774 0.603515,0.732746 0.603515,1.388672 0,0.76172 -0.181885,1.296716 -0.546875,1.603516 -0.3597,0.306807 -0.974284,0.458984 -1.841797,0.458984 l -2.474609,0 0,-3.863281 z m 65.632817,1.96875 c -1.11084,0 -2.0267,0.398519 -2.7461,1.197266 -0.7194,0.798746 -1.07812,1.869304 -1.07812,3.21289 0,1.327714 0.36629,2.38061 1.10156,3.158203 0.73527,0.772294 1.69344,1.158203 2.87305,1.158203 1.05794,0 2.00154,-0.246341 2.83203,-0.738281 l -0.27735,-0.927734 c -0.44434,0.222173 -0.84537,0.38892 -1.20507,0.5 -0.3597,0.111087 -0.76018,0.166015 -1.19922,0.166015 -0.80933,0 -1.46428,-0.256424 -1.9668,-0.769531 -0.50251,-0.518386 -0.77603,-1.310379 -0.81836,-2.378906 l 5.67383,0 0.0469,-0.667969 c 0,-1.227213 -0.27661,-2.183427 -0.83203,-2.871094 -0.55015,-0.692946 -1.35167,-1.039062 -2.40432,-1.039062 z m 8.83007,0 c -1.07381,0 -1.9353,0.470543 -2.58593,1.412109 l -0.15039,-1.238281 -1.06446,0 0,8.394531 1.31836,0 0,-5.117187 c 0.11109,-0.735267 0.3549,-1.325191 0.73047,-1.769531 0.38085,-0.44962 0.89372,-0.675782 1.53906,-0.675782 0.58716,0 0.9882,0.22111 1.20508,0.660157 0.21687,0.433753 0.32617,1.163246 0.32617,2.189453 l 0,4.71289 1.31641,0 0,-4.308593 c 0.0159,-0.72998 0.0456,-1.165774 0.0879,-1.308594 0.14283,-0.62948 0.41187,-1.112059 0.80859,-1.445313 0.39673,-0.333246 0.84961,-0.5 1.35743,-0.5 0.22746,0 0.42643,0.03475 0.5957,0.103516 0.17456,0.06347 0.3116,0.165201 0.41211,0.302734 0.1058,0.137534 0.19044,0.277102 0.2539,0.419922 0.0635,0.137534 0.1083,0.319415 0.13477,0.546875 0.0264,0.227454 0.0415,0.421385 0.0469,0.580078 0.0106,0.1534 0.0156,0.357422 0.0156,0.611328 l 0,4.998047 1.31836,0 0,-5.412109 c 0,-2.105307 -0.8584,-3.15625 -2.57227,-3.15625 -1.21663,0 -2.13809,0.567791 -2.76757,1.705078 -0.19572,-0.53426 -0.47428,-0.952393 -0.83399,-1.253906 -0.35971,-0.301513 -0.85744,-0.451172 -1.4922,-0.451172 z m 13.29102,0 c -1.2325,0 -2.20076,0.401045 -2.9043,1.205078 -0.69824,0.798747 -1.04687,1.856688 -1.04687,3.173828 0,1.2854 0.35367,2.333252 1.0625,3.142578 0.70882,0.804034 1.67204,1.205078 2.88867,1.205078 1.19019,0 2.14836,-0.403563 2.87305,-1.21289 0.72469,-0.814613 1.08593,-1.859946 1.08593,-3.134766 0,-1.31714 -0.34863,-2.375081 -1.04687,-3.173828 -0.69825,-0.804033 -1.66903,-1.205078 -2.91211,-1.205078 z m 70.63281,0 c -1.12142,0 -2.13199,0.207113 -3.03125,0.625 l 0.35742,0.96875 c 0.38615,-0.18514 0.82446,-0.327234 1.31641,-0.427734 0.49194,-0.105794 0.95239,-0.160157 1.38086,-0.160157 0.63477,0 1.09774,0.151612 1.38867,0.453125 0.29623,0.301514 0.44336,0.759441 0.44336,1.373047 l 0,0.824219 -1.33984,0 c -1.34888,0 -2.33423,0.214111 -2.95313,0.642578 -0.6136,0.42318 -0.91992,1.090173 -0.91992,2 0,0.76172 0.23373,1.35669 0.69922,1.785156 0.47079,0.428467 1.09099,0.642578 1.86328,0.642578 1.15316,0 2.08919,-0.440838 2.80859,-1.324218 l 0.14453,1.158203 1,0 0,-5.539063 c 10e-6,-1.068526 -0.27603,-1.837813 -0.82617,-2.308593 -0.54484,-0.476074 -1.32169,-0.712891 -2.33203,-0.712891 z m 9.24219,0 c -1.21134,0 -2.12524,0.545658 -2.74414,1.640625 l -0.13477,-1.466797 -1.0957,0 0,12.076172 1.31641,0 0,-3.158203 -0.0547,-1.943359 c 0.62419,1.052653 1.52043,1.578124 2.68945,1.578124 1.10026,0 1.95671,-0.395999 2.57031,-1.189453 0.61361,-0.79346 0.92188,-1.841311 0.92188,-3.142578 0,-1.354166 -0.29623,-2.424724 -0.88867,-3.21289 -0.58715,-0.788167 -1.44807,-1.181641 -2.58007,-1.181641 z m -70.35352,0.08594 c -0.5078,0 -0.99096,0.144047 -1.45117,0.429687 -0.45491,0.28036 -0.84277,0.721192 -1.16015,1.324219 l -0.14258,-1.666016 -1.05469,0 0,8.394531 1.31641,0 0,-4.751953 c 0,-0.745846 0.23372,-1.378091 0.69921,-1.896484 0.47079,-0.518393 1.06576,-0.777344 1.78516,-0.777344 0.14811,0 0.32748,0.02017 0.53906,0.0625 l 0.0566,-1.078125 c -0.1534,-0.02647 -0.34985,-0.04102 -0.58789,-0.04102 z m 1.42774,0.08789 3.32422,8.140625 -1.23633,3.158203 1.18164,0.253906 4.41992,-11.552734 -1.33398,0 -2.39649,6.705078 -2.61719,-6.705078 -1.34179,0 z m 43.71875,0 2.35547,8.394531 1.2539,0 2.20703,-7.236328 2.33204,7.236328 1.16601,0 2.26172,-8.394531 -1.20508,0 -1.67578,6.759766 -2.18945,-6.759766 -1.4043,0 -2.0625,6.783203 -1.79297,-6.783203 -1.24609,0 z m -76.75781,0.832031 c 1.33301,0 2.03223,0.905764 2.0957,2.714844 l -4.57031,0 c 0.074,-0.835773 0.333,-1.497722 0.77734,-1.984375 0.44963,-0.486653 1.01489,-0.730469 1.69727,-0.730469 z m 22.08984,0 c 0.86223,0 1.51213,0.310795 1.95117,0.929688 0.43905,0.613607 0.66016,1.432778 0.66016,2.458984 0,0.65592 -0.0916,1.23071 -0.27149,1.722657 -0.17985,0.486653 -0.46908,0.877601 -0.87109,1.173828 -0.39673,0.290933 -0.88688,0.435546 -1.46875,0.435546 -0.84635,10e-7 -1.49121,-0.306315 -1.93555,-0.919921 -0.44434,-0.613607 -0.66601,-1.420162 -0.66601,-2.419922 0,-1.020914 0.22167,-1.837565 0.66601,-2.451172 0.44434,-0.618893 1.0892,-0.929688 1.93555,-0.929688 z m 79.72461,0 c 1.51285,0 2.26953,1.124921 2.26953,3.373047 0,2.226967 -0.7819,3.339844 -2.34766,3.339844 -0.79345,0 -1.40803,-0.303796 -1.84179,-0.912109 -0.42847,-0.60832 -0.64258,-1.46224 -0.64258,-2.5625 0.005,-1.015627 0.21688,-1.809573 0.63476,-2.38086 0.41789,-0.571286 1.06023,-0.857422 1.92774,-0.857422 z m -8.24414,3.523438 1.00781,0 0,1.849609 c -0.62947,0.9257 -1.48592,1.388672 -2.57031,1.388672 -0.39673,0 -0.7277,-0.126953 -0.99219,-0.380859 -0.26449,-0.253907 -0.39648,-0.614585 -0.39648,-1.080078 0,-0.259194 0.0247,-0.475824 0.0723,-0.650391 0.0476,-0.179847 0.13477,-0.344074 0.26172,-0.492188 0.12695,-0.153399 0.30127,-0.272788 0.52344,-0.357421 0.22216,-0.08993 0.50382,-0.157478 0.84765,-0.205079 0.34384,-0.0476 0.75944,-0.07227 1.2461,-0.07227 z M 22,45.999998 22,136 l 62,0 0,-90.000002 -62,0 z m 75,0 L 97,151 l 0,83 62,0 0,-83 0,-105.000002 -62,0 z m 75,0 L 172,151 l 0,83 62,0 0,-83 0,-105.000002 -62,0 z m -149,1 60,0 0,32 -60,0 0,-32 z m 75,0 60,0 L 158,151 l 0,82 -60,0 0,-82 0,-104.000002 z m 75,0 60,0 L 233,151 l 0,82 -60,0 0,-82 0,-104.000002 z m -150,33 60,0 L 83,135 23,135 23,79.999998 Z M 22,144 l 0,90 62,0 0,-90 -62,0 z m 1,1 60,0 0,12 -60,0 0,-12 z m 0,13 60,0 0,75 -60,0 0,-75 z"
     id="path4463" />
  <rect
     style="fill:#c9ce3b;fill-opacity:1;stroke:none"
     id="rect3069-46-5-6-6-3"
     width="59.999996"
     height="7.9999814"
     x="23.000004"
     y="-212.99995"
     transform="scale(1,-1)" />
  <rect
     style="fill:#f67400;fill-opacity:1;stroke:none"
     id="rect3069-46-5-6-6-5-4"
     width="59.999996"
     height="12.000022"
     x="23"
     y="-205.00002"
     transform="scale(1,-1)" />
  <rect
     style="fill:#c9ce3b;fill-opacity:1;stroke:none"
     id="rect3069-46-5-6-8-6-5"
     width="60.000004"
     height="27.833244"
     x="98"
     y="-158.83333"
     transform="scale(1,-1)" />
  <rect
     style="fill:#11d116;fill-opacity:1;stroke:none"
     id="rect3069-46-5-6-8-2-9-5"
     width="60.000004"
     height="25.000023"
     x="98"
     y="106.00002" />
  <rect
     style="color:#f2f2f2;clip-rule:nonzero;display:inline;overflow:visible;visibility:visible;opacity:0.1;isolation:auto;mix-blend-mode:normal;color-interpolation:sRGB;color-interpolation-filters:linearRGB;solid-color:#000000;solid-opacity:1;fill:currentColor;fill-opacity:1;fill-rule:nonzero;stroke:none;stroke-width:1.35000002;stroke-linecap:butt;stroke-linejoin:miter;stroke-miterlimit:4;stroke-dasharray:none;stroke-dashoffset:0;stroke-opacity:1;color-rendering:auto;image-rendering:auto;shape-rendering:auto;text-rendering:auto;enable-background:accumulate"
     id="rect5264-2"
     width="10"
     height="3"
     x="174"
     y="222.00002"
     class="ColorScheme-Text" />
  <rect
     style="color:#3daee9;clip-rule:nonzero;display:inline;overflow:visible;visibility:visible;opacity:1;isolation:auto;mix-blend-mode:normal;color-interpolation:sRGB;color-interpolation-filters:linearRGB;solid-color:#000000;solid-opacity:1;fill:currentColor;fill-opacity:1;fill-rule:nonzero;stroke:none;stroke-width:1.35000002;stroke-linecap:butt;stroke-linejoin:miter;stroke-miterlimit:4;stroke-dasharray:none;stroke-dashoffset:0;stroke-opacity:1;color-rendering:auto;image-rendering:auto;shape-rendering:auto;text-rendering:auto;enable-background:accumulate"
     id="rect5903"
     width="60"
     height="20"
     x="23"
     y="213.00002"
     class="ColorScheme-Highlight" />
  <rect
     style="fill:#c9ce3b;fill-opacity:1;stroke:none"
     id="rect3069-46-5-6-6-3-8"
     width="59.999996"
     height="7.9999814"
     x="23.000004"
     y="-114.99996"
     transform="scale(1,-1)" />
  <rect
     style="color:#3daee9;clip-rule:nonzero;display:inline;overflow:visible;visibility:visible;opacity:1;isolation:auto;mix-blend-mode:normal;color-interpolation:sRGB;color-interpolation-filters:linearRGB;solid-color:#000000;solid-opacity:1;fill:currentColor;fill-opacity:1;fill-rule:nonzero;stroke:none;stroke-width:1.35000002;stroke-linecap:butt;stroke-linejoin:miter;stroke-miterlimit:4;stroke-dasharray:none;stroke-dashoffset:0;stroke-opacity:1;color-rendering:auto;image-rendering:auto;shape-rendering:auto;text-rendering:auto;enable-background:accumulate"
     id="rect5903-1"
     width="60"
     height="20"
     x="23"
     y="115.00002"
     class="ColorScheme-Highlight" />
  <rect
     style="color:#3daee9;clip-rule:nonzero;display:inline;overflow:visible;visibility:visible;opacity:1;isolation:auto;mix-blend-mode:normal;color-interpolation:sRGB;color-interpolation-filters:linearRGB;solid-color:#000000;solid-opacity:1;fill:currentColor;fill-opacity:1;fill-rule:nonzero;stroke:none;stroke-width:1.35000002;stroke-linecap:butt;stroke-linejoin:miter;stroke-miterlimit:4;stroke-dasharray:none;stroke-dashoffset:0;stroke-opacity:1;color-rendering:auto;image-rendering:auto;shape-rendering:auto;text-rendering:auto;enable-background:accumulate"
     id="rect5903-16"
     width="60"
     height="74.16671"
     x="98"
     y="158.83333"
     class="ColorScheme-Highlight" />
  <rect
     style="fill:#c9ce3b;fill-opacity:1;stroke:none"
     id="rect3069-46-5-6-8-6-5-7"
     width="60.000004"
     height="4"
     x="173"
     y="-221.00002"
     transform="scale(1,-1)" />
  <rect
     style="fill:#11d116;fill-opacity:1;stroke:none"
     id="rect3069-46-5-6-8-2-9-5-5"
     width="60.000004"
     height="2.0000226"
     x="173"
     y="215.00002" />
  <rect
     style="color:#3daee9;clip-rule:nonzero;display:inline;overflow:visible;visibility:visible;opacity:1;isolation:auto;mix-blend-mode:normal;color-interpolation:sRGB;color-interpolation-filters:linearRGB;solid-color:#000000;solid-opacity:1;fill:currentColor;fill-opacity:1;fill-rule:nonzero;stroke:none;stroke-width:1.35000002;stroke-linecap:butt;stroke-linejoin:miter;stroke-miterlimit:4;stroke-dasharray:none;stroke-dashoffset:0;stroke-opacity:1;color-rendering:auto;image-rendering:auto;shape-rendering:auto;text-rendering:auto;enable-background:accumulate"
     id="rect5903-16-0"
     width="60"
     height="12"
     x="173"
     y="221.00002"
     class="ColorScheme-Highlight" />
</svg>
