<?xml version="1.0" encoding="UTF-8" standalone="no"?>
<svg
   xmlns:dc="http://purl.org/dc/elements/1.1/"
   xmlns:cc="http://creativecommons.org/ns#"
   xmlns:rdf="http://www.w3.org/1999/02/22-rdf-syntax-ns#"
   xmlns:svg="http://www.w3.org/2000/svg"
   xmlns="http://www.w3.org/2000/svg"
   xmlns:xlink="http://www.w3.org/1999/xlink"
   xmlns:sodipodi="http://sodipodi.sourceforge.net/DTD/sodipodi-0.dtd"
   xmlns:inkscape="http://www.inkscape.org/namespaces/inkscape"
   viewBox="0 0 256 256"
   id="svg2"
   version="1.1"
   inkscape:version="0.91 r13725"
   sodipodi:docname="org.kde.muonnotifier.svg">
  <metadata
     id="metadata10">
    <rdf:RDF>
      <cc:Work
         rdf:about="">
        <dc:format>image/svg+xml</dc:format>
        <dc:type
           rdf:resource="http://purl.org/dc/dcmitype/StillImage" />
        <dc:title />
      </cc:Work>
    </rdf:RDF>
  </metadata>
  <sodipodi:namedview
     pagecolor="#ffffff"
     bordercolor="#666666"
     borderopacity="1"
     objecttolerance="10"
     gridtolerance="10"
     guidetolerance="10"
     inkscape:pageopacity="0"
     inkscape:pageshadow="2"
     inkscape:window-width="1920"
     inkscape:window-height="1046"
     id="namedview8"
     showgrid="false"
     inkscape:zoom="2.6074563"
     inkscape:cx="95.307125"
     inkscape:cy="104.85747"
     inkscape:window-x="0"
     inkscape:window-y="34"
     inkscape:window-maximized="1"
     inkscape:current-layer="svg2" />
  <defs
     id="defs4">
    <style
       id="current-color-scheme"
       type="text/css">
      .ColorScheme-Text {
        color:#f2f2f2;
      }
      .ColorScheme-Background {
        color:#31363b;
      }
      .ColorScheme-Highlight {
        color:#3daee9;
      }
      .ColorScheme-ViewText {
        color:#31363b;
      }
      .ColorScheme-ViewBackground {
        color:#314045;
      }
      .ColorScheme-ViewHover {
        color:#93cee9;
      }
      .ColorScheme-ViewFocus{
        color:#3daee9;
      }
      .ColorScheme-ButtonText {
        color:#31363b;
      }
      .ColorScheme-ButtonBackground {
        color:#31363b;
      }
      .ColorScheme-ButtonHover {
        color:#93cee9;
      }
      .ColorScheme-ButtonFocus{
        color:#3daee9;
      }
      </style>
    <linearGradient
       gradientUnits="userSpaceOnUse"
       y2="11"
       x2="24"
       y1="43.999973"
       x1="24"
       id="linearGradient4205-8"
       xlink:href="#linearGradient4143"
       inkscape:collect="always" />
    <linearGradient
       inkscape:collect="always"
       id="linearGradient4143">
      <stop
         style="stop-color:#197cf1;stop-opacity:1"
         offset="0"
         id="stop4145" />
      <stop
         style="stop-color:#20bcfa;stop-opacity:1"
         offset="1"
         id="stop4147" />
    </linearGradient>
    <linearGradient
       gradientTransform="matrix(1.1250015,0,0,1,-51.071966,0)"
       gradientUnits="userSpaceOnUse"
       y2="513.79797"
       x2="409.57144"
       y1="543.79797"
       x1="409.57144"
       id="linearGradient4158-98"
       xlink:href="#linearGradient4143"
       inkscape:collect="always" />
    <linearGradient
       gradientTransform="translate(-384.57143,-499.798)"
       gradientUnits="userSpaceOnUse"
       y2="538.79797"
       x2="416.57172"
       y1="522.79773"
       x1="400.57144"
       id="linearGradient4232"
       xlink:href="#linearGradient4227-6-3"
       inkscape:collect="always" />
    <linearGradient
       id="linearGradient4227-6-3"
       inkscape:collect="always">
      <stop
         id="stop4229-7-5"
         offset="0"
         style="stop-color:#292c2f;stop-opacity:1" />
      <stop
         id="stop4231-53-6"
         offset="1"
         style="stop-color:#000000;stop-opacity:0;" />
    </linearGradient>
    <linearGradient
       y2="10"
       x2="24"
       y1="14"
       x1="24"
       gradientUnits="userSpaceOnUse"
       id="linearGradient4174-7"
       xlink:href="#linearGradient4143"
       inkscape:collect="always" />
    <linearGradient
       gradientUnits="userSpaceOnUse"
       y2="14"
       x2="25"
       y1="10"
       x1="25"
       id="linearGradient4302-8"
       xlink:href="#linearGradient4159-7"
       inkscape:collect="always" />
    <linearGradient
       inkscape:collect="always"
       id="linearGradient4159-7">
      <stop
         style="stop-color:#1d1e1e;stop-opacity:1"
         offset="0"
         id="stop4161-4" />
      <stop
         style="stop-color:#44484c;stop-opacity:1"
         offset="1"
         id="stop4163-9" />
    </linearGradient>
    <linearGradient
       gradientUnits="userSpaceOnUse"
       y2="503.798"
       x2="408.57144"
       y1="516.79797"
       x1="408.57144"
       id="linearGradient4187-2"
       xlink:href="#linearGradient4143"
       inkscape:collect="always" />
    <linearGradient
       gradientUnits="userSpaceOnUse"
       y2="514.79797"
       x2="400.57144"
       y1="517.79797"
       x1="400.57144"
       id="linearGradient4290-26"
       xlink:href="#linearGradient4303-7-6"
       inkscape:collect="always" />
    <linearGradient
       id="linearGradient4303-7-6"
       inkscape:collect="always">
      <stop
         id="stop4305-0-1"
         offset="0"
         style="stop-color:#c6cdd1;stop-opacity:1" />
      <stop
         id="stop4307-6-6"
         offset="1"
         style="stop-color:#e0e5e7;stop-opacity:1" />
    </linearGradient>
    <linearGradient
       gradientUnits="userSpaceOnUse"
       y2="15"
       x2="32"
       y1="17.999973"
       x1="32"
       id="linearGradient4282-9"
       xlink:href="#linearGradient4303-7-6"
       inkscape:collect="always" />
    <linearGradient
       gradientUnits="userSpaceOnUse"
       y2="23"
       x2="24"
       y1="38.999729"
       x1="24"
       id="linearGradient4222"
       xlink:href="#linearGradient4290"
       inkscape:collect="always" />
    <linearGradient
       id="linearGradient4290"
       inkscape:collect="always">
      <stop
         id="stop4292"
         offset="0"
         style="stop-color:#7cbaf8;stop-opacity:1" />
      <stop
         id="stop4294"
         offset="1"
         style="stop-color:#f4fcff;stop-opacity:1" />
    </linearGradient>
    <linearGradient
       gradientTransform="matrix(1.1250015,0,0,1,-51.071966,0)"
       gradientUnits="userSpaceOnUse"
       y2="503.798"
       x2="409.57144"
       y1="543.79797"
       x1="409.57144"
       id="linearGradient4158-9"
       xlink:href="#linearGradient4159-7"
       inkscape:collect="always" />
    <linearGradient
       gradientUnits="userSpaceOnUse"
       y2="7"
       x2="35"
       y1="44"
       x1="35"
       id="linearGradient4555"
       xlink:href="#linearGradient4143"
       inkscape:collect="always" />
    <linearGradient
       gradientUnits="userSpaceOnUse"
       y2="18.000015"
       x2="22.000011"
       y1="4"
       x1="7.9999962"
       id="linearGradient4884"
       xlink:href="#linearGradient4227-6-3"
       inkscape:collect="always" />
    <linearGradient
       gradientUnits="userSpaceOnUse"
       y2="503.798"
       x2="396.57144"
       y1="520.79797"
       x1="396.57144"
       id="linearGradient4866"
       xlink:href="#linearGradient4435"
       inkscape:collect="always" />
    <linearGradient
       id="linearGradient4435"
       inkscape:collect="always">
      <stop
         id="stop4437"
         offset="0"
         style="stop-color:#c61423;stop-opacity:1" />
      <stop
         id="stop4439"
         offset="1"
         style="stop-color:#dc2b41;stop-opacity:1" />
    </linearGradient>
    <linearGradient
       gradientUnits="userSpaceOnUse"
       y2="504.798"
       x2="396.57144"
       y1="527.79797"
       x1="396.57144"
       id="linearGradient5028"
       xlink:href="#linearGradient4448"
       inkscape:collect="always" />
    <linearGradient
       id="linearGradient4448"
       inkscape:collect="always">
      <stop
         id="stop4450"
         offset="0"
         style="stop-color:#ffffff;stop-opacity:0" />
      <stop
         id="stop4452"
         offset="1"
         style="stop-color:#ffffff;stop-opacity:0.3137255" />
    </linearGradient>
    <linearGradient
       inkscape:collect="always"
       xlink:href="#linearGradient4152-6-4"
       id="linearGradient10119"
       gradientUnits="userSpaceOnUse"
       gradientTransform="matrix(0.45000065,0,0,0.40000004,-66.79683,369.65412)"
       x1="409.57144"
       y1="543.79797"
       x2="409.57144"
       y2="503.798" />
    <linearGradient
       id="linearGradient4152-6-4"
       inkscape:collect="always">
      <stop
         id="stop4154-5-0"
         offset="0"
         style="stop-color:#bd8d48;stop-opacity:1" />
      <stop
         id="stop4156-1-7"
         offset="1"
         style="stop-color:#e8b971;stop-opacity:1" />
    </linearGradient>
    <linearGradient
       inkscape:collect="always"
       xlink:href="#linearGradient4303-6-2-4"
       id="linearGradient10121"
       gradientUnits="userSpaceOnUse"
       x1="409.57144"
       y1="542.79797"
       x2="409.57144"
       y2="504.798"
       gradientTransform="matrix(0.40000004,0,0,0.40000004,-46.36804,369.65412)" />
    <linearGradient
       id="linearGradient4303-6-2-4"
       inkscape:collect="always">
      <stop
         id="stop4305-5-2-4"
         offset="0"
         style="stop-color:#977a5c;stop-opacity:1" />
      <stop
         id="stop4307-8-7-4"
         offset="1"
         style="stop-color:#9d8062;stop-opacity:1" />
    </linearGradient>
    <linearGradient
       inkscape:collect="always"
       xlink:href="#linearGradient4273-8-6-5"
       id="linearGradient10115"
       gradientUnits="userSpaceOnUse"
       x1="408.57144"
       y1="541.79797"
       x2="408.57144"
       y2="505.798"
       gradientTransform="matrix(0.40000004,0,0,0.40000004,-46.36804,369.65412)" />
    <linearGradient
       id="linearGradient4273-8-6-5"
       inkscape:collect="always">
      <stop
         id="stop4275-6-6-5"
         offset="0"
         style="stop-color:#e3dfd6;stop-opacity:1" />
      <stop
         id="stop4277-8-5"
         offset="1"
         style="stop-color:#f4f1e8;stop-opacity:1" />
    </linearGradient>
    <linearGradient
       inkscape:collect="always"
       xlink:href="#linearGradient4410-0-0-1"
       id="linearGradient10117"
       gradientUnits="userSpaceOnUse"
       x1="414.57144"
       y1="531.79797"
       x2="426.57144"
       y2="543.79797"
       gradientTransform="matrix(0.40000004,0,0,0.40000004,-46.36804,369.65412)" />
    <linearGradient
       id="linearGradient4410-0-0-1"
       inkscape:collect="always">
      <stop
         id="stop4412-2-2"
         offset="0"
         style="stop-color:#383e51;stop-opacity:1" />
      <stop
         id="stop4414-5-4"
         offset="1"
         style="stop-color:#655c6f;stop-opacity:0" />
    </linearGradient>
    <linearGradient
       inkscape:collect="always"
       xlink:href="#linearGradient6165-5-2"
       id="linearGradient10123"
       gradientUnits="userSpaceOnUse"
       x1="413.57144"
       y1="528.79797"
       x2="418.57144"
       y2="533.79797"
       gradientTransform="matrix(0.40000004,0,0,0.40000004,-46.36804,369.65412)" />
    <linearGradient
       id="linearGradient6165-5-2"
       inkscape:collect="always">
      <stop
         id="stop6167-5-3"
         offset="0"
         style="stop-color:#bdb49e;stop-opacity:0.25882354" />
      <stop
         id="stop6169-3-6"
         offset="1"
         style="stop-color:#bdb49e;stop-opacity:0;" />
    </linearGradient>
    <linearGradient
       inkscape:collect="always"
       xlink:href="#linearGradient4303-7-6"
       id="linearGradient17051"
       gradientUnits="userSpaceOnUse"
       x1="409.57144"
       y1="543.79797"
       x2="409.57144"
       y2="503.798"
       gradientTransform="matrix(0.4,0,0,0.4,-45.96802,157.65414)" />
    <linearGradient
       inkscape:collect="always"
       xlink:href="#linearGradient4227-6-3"
       id="linearGradient17053"
       gradientUnits="userSpaceOnUse"
       gradientTransform="matrix(0.4,0,0,0.4,-45.96802,157.65414)"
       x1="402.57144"
       y1="520.79797"
       x2="418.57147"
       y2="536.79797" />
    <linearGradient
       inkscape:collect="always"
       xlink:href="#linearGradient4298-8-0"
       id="linearGradient17055"
       gradientUnits="userSpaceOnUse"
       x1="24"
       y1="33"
       x2="24"
       y2="13"
       gradientTransform="matrix(0.4,0,0,0.4,107.86055,357.57334)" />
    <linearGradient
       inkscape:collect="always"
       id="linearGradient4298-8-0">
      <stop
         style="stop-color:#42a603;stop-opacity:1"
         offset="0"
         id="stop4300-4" />
      <stop
         style="stop-color:#78da06;stop-opacity:1"
         offset="1"
         id="stop4302-9-9" />
    </linearGradient>
    <linearGradient
       inkscape:collect="always"
       xlink:href="#linearGradient4298-8-0"
       id="linearGradient17057"
       gradientUnits="userSpaceOnUse"
       x1="410.57144"
       y1="539.79797"
       x2="428.57144"
       y2="523.79797"
       gradientTransform="matrix(0.4,0,0,0.4,-45.96802,157.65414)" />
    <linearGradient
       inkscape:collect="always"
       xlink:href="#linearGradient4298-8-0"
       id="linearGradient17059"
       gradientUnits="userSpaceOnUse"
       gradientTransform="matrix(0.35999999,0,0,0.35999999,-29.62516,178.60607)"
       x1="409.57144"
       y1="543.79797"
       x2="409.57144"
       y2="503.798" />
  </defs>
  <path
     style="fill:currentColor;fill-opacity:0.5;stroke:none"
     d="m 16,10 224,0 c 3.324,0 6,2.676 6,6 l 0,224 c 0,3.324 -2.676,6 -6,6 l -224,0 c -3.324,0 -6,-2.676 -6,-6 L 10,16 c 0,-3.324 2.676,-6 6,-6 z"
     class="ColorScheme-ButtonText"
     id="rect4240" />
  <path
     style="fill:currentColor;fill-opacity:1;stroke:none"
     d="m 16,12 224,0 c 2.216,0 4,1.784 4,4 l 0,224 c 0,2.216 -1.784,4 -4,4 l -224,0 c -2.216,0 -4,-1.784 -4,-4 L 12,16 c 0,-2.216 1.784,-4 4,-4 z"
     class="ColorScheme-Background"
     id="rect4238" />
  <path
     style="fill:currentColor;fill-opacity:0.5;stroke:none"
     class="ColorScheme-Text"
     d="m 20,49.999931 0,1 216,0 0,-1 -216,0 z m 12.78125,18.955078 0,1 1,0 0,-1 -1,0 z m 0,2 0,1 1,0 0,-1 -1,0 z m 0,2 0,1 1,0 0,-1 -1,0 z m 0,2 0,1 1,0 0,-1 -1,0 z m 0,2 0,1 1,0 0,-1 -1,0 z m 0,2 0,1 1,0 0,-1 -1,0 z m 0,2 0,1 1,0 0,-1 -1,0 z m 0,2 0,1 1,0 0,-1 -1,0 z m 0,2 0,1 1,0 0,-1 -1,0 z m 0,2 0,1 1,0 0,-1 -1,0 z m 0,2 0,1 1,0 0,-1 -1,0 z m 0,2 0,1 1,0 0,-1 -1,0 z m 108.28711,0.990234 -1.10156,0.08008 0,9.802727 1.10156,0 0,-2.597649 0.76367,-0.72461 2.82031,3.322259 1.31055,0 -3.35742,-3.859368 3.10156,-3.244141 -1.34961,0 -3.33008,3.605469 0.041,-1.46289 0,-4.921876 z m 33.7168,0 -1.10157,0.08008 0,7.769531 c 0,0.425206 0.05,0.778556 0.14844,1.060546 0.0985,0.27751 0.24919,0.48902 0.45508,0.63672 0.20589,0.14769 0.43962,0.25039 0.69922,0.30859 0.26408,0.0537 0.59106,0.082 0.98047,0.082 l 0.52929,0 0.0605,-0.76562 -0.30078,-0.0215 c -0.19247,-0.0135 -0.34375,-0.0243 -0.45117,-0.0332 -0.10743,-0.0134 -0.22429,-0.0303 -0.34961,-0.0527 -0.12085,-0.0269 -0.21077,-0.058 -0.27344,-0.0937 -0.0582,-0.0403 -0.11897,-0.0902 -0.18164,-0.14844 -0.0626,-0.0582 -0.1079,-0.13314 -0.13477,-0.22266 -0.0223,-0.0895 -0.0426,-0.19222 -0.0605,-0.30859 -0.0134,-0.11638 -0.0195,-0.256268 -0.0195,-0.421875 l 0,-7.869141 z m -70.40235,0.08008 0,9.802727 5.67969,0 0.0273,-0.90039 -4.52539,0 0,-8.902337 -1.18164,0 z m 7.72852,0 c -0.21485,0 -0.3925,0.06689 -0.53125,0.201171 -0.13428,0.129802 -0.20117,0.301353 -0.20117,0.511719 0,0.210367 0.0669,0.381345 0.20117,0.515625 0.13875,0.13428 0.3164,0.203125 0.53125,0.203125 0.21036,0 0.38468,-0.06884 0.52344,-0.203125 0.13875,-0.13428 0.20703,-0.305258 0.20703,-0.515625 0,-0.210366 -0.0683,-0.381918 -0.20703,-0.511719 -0.13428,-0.134279 -0.3086,-0.201171 -0.52344,-0.201171 z m -79.33008,0.929687 0,1 1,0 0,-1 -1,0 z m 85.38477,1.623047 c -1.06975,0 -1.87305,0.375 -2.41016,1.126953 l -0.12109,-0.980469 -0.9668,0 0,7.103509 1.11523,0 0,-3.96093 c 0,-1.62476 0.73031,-2.4375 2.18946,-2.4375 0.54158,-10e-7 0.91992,0.163494 1.13476,0.490234 0.21484,0.322267 0.32227,0.803299 0.32227,1.443359 l 0,4.464837 1.11328,0 0,-4.343743 c 0,-0.975753 -0.19458,-1.702721 -0.58399,-2.181641 -0.38492,-0.4834 -0.98282,-0.724609 -1.79296,-0.724609 z m 31.42773,0 c -0.93994,0 -1.71354,0.337812 -2.32227,1.013672 -0.60872,0.675867 -0.91406,1.58187 -0.91406,2.71875 0,1.123453 0.31144,2.013911 0.9336,2.671871 0.62215,0.65348 1.43351,0.98047 2.43164,0.98047 0.89518,0 1.69377,-0.20875 2.39648,-0.625 l -0.23633,-0.78516 c -0.37598,0.188 -0.71517,0.32984 -1.01953,0.42383 -0.30436,0.094 -0.64217,0.14063 -1.01367,0.14063 -0.68482,0 -1.24081,-0.21818 -1.66602,-0.65235 -0.42522,-0.43864 -0.6556,-1.109533 -0.6914,-2.013666 l 4.80078,0 0.041,-0.564453 c 0,-1.038414 -0.2351,-1.847821 -0.70507,-2.429688 -0.4655,-0.586346 -1.14445,-0.878906 -2.03516,-0.878906 z m 12.66992,0 c -1.06974,0 -1.87305,0.375 -2.41015,1.126953 l -0.1211,-0.980469 -0.9668,0 0,7.103509 1.11329,0 0,-3.96093 c 0,-1.62476 0.7303,-2.4375 2.18945,-2.4375 0.54159,-10e-7 0.91992,0.163494 1.13476,0.490234 0.21484,0.322267 0.32227,0.803299 0.32227,1.443359 l 0,4.464837 1.11523,0 0,-4.343743 c 0,-0.975753 -0.19457,-1.702721 -0.58398,-2.181641 -0.38493,-0.4834 -0.98283,-0.724609 -1.79297,-0.724609 z m 7.01563,0 c -0.93994,0 -1.71354,0.337812 -2.32227,1.013672 -0.60873,0.675867 -0.91406,1.58187 -0.91406,2.71875 0,1.123453 0.31144,2.013911 0.93359,2.671871 0.62216,0.65348 1.43156,0.98047 2.42969,0.98047 0.89518,0 1.69376,-0.20875 2.39648,-0.625 l -0.23437,-0.78516 c -0.37598,0.188 -0.71517,0.32984 -1.01953,0.42383 -0.30436,0.094 -0.64217,0.14063 -1.01367,0.14063 -0.68482,0 -1.24081,-0.21818 -1.66602,-0.65235 -0.42522,-0.43864 -0.65561,-1.109533 -0.69141,-2.013666 l 4.80079,0 0.0391,-0.564453 c 0,-1.038414 -0.23315,-1.847821 -0.70313,-2.429688 -0.46549,-0.586346 -1.14445,-0.878906 -2.03515,-0.878906 z m -12.16602,0.07227 c -0.42969,0 -0.83911,0.121581 -1.22851,0.363281 -0.38493,0.237227 -0.71192,0.61084 -0.98047,1.121094 l -0.1211,-1.410157 -0.89258,0 0,7.103515 1.11524,0 0,-4.021483 c 0,-0.6311 0.19596,-1.166829 0.58984,-1.605469 0.39836,-0.43864 0.903,-0.65625 1.51172,-0.65625 0.12532,0 0.27799,0.01693 0.45703,0.05273 l 0.0469,-0.912109 c -0.12981,-0.0224 -0.29664,-0.03516 -0.49805,-0.03516 z m -45.56055,0.07422 0,7.103513 1.10157,0 0,-7.103513 -1.10157,0 z m 10.67579,0 0,4.337891 c 0,0.962332 0.21012,1.687912 0.63086,2.175782 0.4252,0.48339 1.04948,0.72461 1.87304,0.72461 0.58187,0 1.04125,-0.0872 1.37696,-0.26172 0.34017,-0.17903 0.62329,-0.44857 0.85156,-0.80664 l 0.11523,0.93359 0.9668,0 0,-7.103513 -1.11524,0 0,3.988282 c 0,0.281986 -0.0203,0.538737 -0.0605,0.771484 -0.0403,0.232747 -0.10857,0.452306 -0.20703,0.658207 -0.0985,0.20588 -0.22616,0.37882 -0.38282,0.51758 -0.15218,0.13875 -0.35009,0.24755 -0.59179,0.32812 -0.23723,0.0806 -0.50953,0.12108 -0.81836,0.1211 -0.54607,0 -0.93856,-0.1635 -1.17578,-0.49024 -0.23275,-0.32674 -0.34766,-0.804442 -0.34766,-1.435548 l 0,-4.458985 -1.11523,0 z m 7.10937,0 2.4707,3.458985 -2.65234,3.644528 1.12305,0 2.09961,-2.853513 2.03515,2.853513 1.24219,0 -2.56445,-3.591794 2.53711,-3.511719 -1.12696,0 -1.94726,2.759766 -1.97461,-2.759766 -1.24219,0 z m -96.55664,0.230469 0,1 1,0 0,-1 -1,0 z m 116.83984,0.47461 c 1.12792,0 1.71775,0.766115 1.77149,2.296874 l -3.86719,0 c 0.0627,-0.707193 0.28222,-1.267907 0.6582,-1.679687 0.38046,-0.411787 0.86012,-0.617187 1.4375,-0.617187 z m 19.68555,0 c 1.12791,0 1.71775,0.766115 1.77148,2.296874 l -3.86718,0 c 0.0627,-0.707193 0.28222,-1.267907 0.6582,-1.679687 0.38045,-0.411787 0.86011,-0.617187 1.4375,-0.617187 z m -135.02539,0.02539 0,1 1,0 0,-1 -1,0 z m 2,0 0,1 1,0 0,-1 -1,0 z m 2,0 0,1 1,0 0,-1 -1,0 z m 2,0 0,1 1,0 0,-1 -1,0 z m 2,0 0,1 1,0 0,-1 -1,0 z m 2,0 0,1 1,0 0,-1 -1,0 z m 2,0 0,1 1,0 0,-1 -1,0 z m -13.5,33.500004 0,1 1,0 0,-1 -1,0 z m 0,2 0,1 1,0 0,-1 -1,0 z m 0,2 0,1 1,0 0,-1 -1,0 z m 0,2 0,1 1,0 0,-1 -1,0 z m 0,2 0,1 1,0 0,-1 -1,0 z m 0,2 0,1 1,0 0,-1 -1,0 z m 0,2 0,1 1,0 0,-1 -1,0 z m 0,2 0,1 1,0 0,-1 -1,0 z m 0,2 0,1 1,0 0,-1 -1,0 z m 0,2 0,1 1,0 0,-1 -1,0 z m 0,2 0,1 1,0 0,-1 -1,0 z m 0,2 0,1 1,0 0,-1 -1,0 z m 71.60156,1.07031 0,9.80273 1.18164,0 0,-4.03515 0.87305,-0.80469 3.71875,4.83984 1.38281,0 -4.21484,-5.44531 4.01367,-4.35742 -1.38281,0 -4.39063,4.69336 0,-4.69336 -1.18164,0 z m 16.82617,0.75195 -0.89453,0.0684 -0.17968,1.87891 -1.09571,0.0742 -0.0273,0.63086 1.0957,0 0,4.26953 c 0,0.43417 0.0372,0.78613 0.11328,1.05469 0.0761,0.26855 0.21322,0.4895 0.41016,0.66406 0.20141,0.17456 0.46151,0.29614 0.7793,0.36328 0.31779,0.0671 0.73332,0.10156 1.24804,0.10156 l 0.46289,0 0.0547,-0.76562 -0.56445,-0.0273 c -0.5953,-0.0224 -0.97836,-0.11564 -1.14844,-0.28125 -0.17009,-0.17008 -0.25391,-0.54093 -0.25391,-1.10937 l 0,-4.26953 1.87891,0 0,-0.70508 -1.87891,0 0,-1.94727 z m -88.42773,0.17774 0,1 1,0 0,-1 -1,0 z m 82.42383,1.62304 c -0.9489,0 -1.80355,0.1757 -2.56446,0.5293 l 0.30274,0.82031 c 0.32674,-0.15666 0.69897,-0.27824 1.11523,-0.36328 0.41626,-0.0895 0.80543,-0.13476 1.16797,-0.13476 0.53712,0 0.92766,0.12768 1.17383,0.38281 0.25065,0.25513 0.37695,0.6429 0.37695,1.16211 l 0,0.69727 -1.13476,0 c -1.14136,0 -1.97436,0.18236 -2.49805,0.54492 -0.5192,0.35807 -0.7793,0.92155 -0.7793,1.6914 0,0.64454 0.19792,1.14722 0.5918,1.50977 0.39835,0.36255 0.92465,0.54492 1.57813,0.54492 0.97575,0 1.76628,-0.37361 2.375,-1.12109 l 0.12109,0.98047 0.8457,0 0,-4.6875 c 0,-0.90414 -0.23177,-1.55478 -0.69726,-1.95313 -0.46102,-0.40283 -1.11971,-0.60352 -1.97461,-0.60352 z m 12.23242,0 c -0.93994,0 -1.71354,0.33781 -2.32227,1.01368 -0.60872,0.67586 -0.91211,1.58187 -0.91211,2.71875 3e-5,1.12345 0.30949,2.01391 0.93165,2.67187 0.62215,0.65349 1.43351,0.98047 2.43164,0.98047 0.89518,0 1.69376,-0.20874 2.39648,-0.625 l -0.23437,-0.78516 c -0.37598,0.188 -0.71713,0.32984 -1.02149,0.42383 -0.30436,0.094 -0.64216,0.14063 -1.01367,0.14063 -0.68481,0 -1.23886,-0.21818 -1.66406,-0.65235 -0.42522,-0.43864 -0.65561,-1.10953 -0.69141,-2.01367 l 4.79883,0 0.041,-0.56445 c 0,-1.03841 -0.23511,-1.84782 -0.70507,-2.42969 -0.4655,-0.58635 -1.14445,-0.87891 -2.03516,-0.87891 z m -94.65625,0.37696 0,1 1,0 0,-1 -1,0 z m 94.68359,0.47461 c 1.12791,0 1.71971,0.76611 1.77344,2.29687 l -3.86719,0 c 0.0627,-0.7072 0.28223,-1.26791 0.65821,-1.67968 0.38044,-0.41179 0.85815,-0.61719 1.43554,-0.61719 z m -93.18359,0.0254 0,1 1,0 0,-1 -1,0 z m 2,0 0,1 1,0 0,-1 -1,0 z m 2,0 0,1 1,0 0,-1 -1,0 z m 2,0 0,1 1,0 0,-1 -1,0 z m 2,0 0,1 1,0 0,-1 -1,0 z m 2,0 0,1 1,0 0,-1 -1,0 z m 2,0 0,1 1,0 0,-1 -1,0 z m 69.64258,2.95508 0.85351,0 0,1.56445 c -0.53263,0.78329 -1.25821,1.17578 -2.17578,1.17578 -0.33569,0 -0.61605,-0.10742 -0.83984,-0.32227 -0.22379,-0.21483 -0.33594,-0.52018 -0.33594,-0.91406 0,-0.21932 0.0203,-0.40112 0.0605,-0.54883 0.0403,-0.15218 0.11523,-0.29264 0.22265,-0.41796 0.10742,-0.1298 0.25538,-0.22917 0.44336,-0.30079 0.188,-0.0761 0.42587,-0.13551 0.7168,-0.17578 0.29093,-0.0403 0.64291,-0.0605 1.05469,-0.0605 z m -83.14258,0.54492 0,1 1,0 0,-1 -1,0 z m 0,2 0,1 1,0 0,-1 -1,0 z m 0,2 0,1 1,0 0,-1 -1,0 z m 0,2 0,1 1,0 0,-1 -1,0 z m 0,2 0,1 1,0 0,-1 -1,0 z m 0,2 0,1 1,0 0,-1 -1,0 z m 0,2 0,1 1,0 0,-1 -1,0 z m 0,2 0,1 1,0 0,-1 -1,0 z m 0,2 0,1 1,0 0,-1 -1,0 z m 0,2 0,1 1,0 0,-1 -1,0 z m 0,2 0,1 1,0 0,-1 -1,0 z m 0,2 0,1 1,0 0,-1 -1,0 z m 75.95313,0.9375 c -0.96234,0 -1.79867,0.21484 -2.50586,0.64453 -0.70272,0.42521 -1.23511,1.01978 -1.59766,1.78516 -0.36255,0.7609 -0.54297,1.64664 -0.54297,2.6582 0,0.99365 0.17431,1.86246 0.52344,2.60547 0.35359,0.743 0.88126,1.32536 1.58398,1.74609 0.7072,0.42073 1.55103,0.63086 2.53125,0.63086 0.72958,0 1.38493,-0.12159 1.9668,-0.36328 0.58187,-0.24618 1.06291,-0.5887 1.44336,-1.02734 0.38493,-0.44312 0.67944,-0.96607 0.88086,-1.57032 0.20589,-0.60872 0.30859,-1.27824 0.30859,-2.00781 0,-1.00708 -0.18237,-1.89282 -0.54492,-2.6582 -0.35807,-0.76986 -0.88574,-1.36914 -1.58398,-1.79883 -0.69824,-0.42969 -1.51849,-0.64453 -2.46289,-0.64453 z m 7.4375,0.0527 -1.09961,0.0801 0,9.80273 1.09961,0 0,-2.59765 0.76562,-0.72461 2.82031,3.32226 1.3086,0 -3.35547,-3.85937 3.10156,-3.24414 -1.34961,0 -3.33008,3.60547 0.0391,-1.46289 0,-4.92188 z m 14.62304,0 -1.10156,0.0801 0,7.76953 c 0,0.42521 0.05,0.77856 0.14844,1.06055 0.0985,0.27751 0.25113,0.48902 0.45703,0.63672 0.20589,0.14769 0.43766,0.25039 0.69726,0.30859 0.26408,0.0537 0.59107,0.082 0.98047,0.082 l 0.53125,0 0.0606,-0.76562 -0.30274,-0.0215 c -0.19246,-0.0135 -0.34179,-0.0243 -0.44921,-0.0332 -0.10743,-0.0134 -0.22429,-0.0303 -0.34961,-0.0527 -0.12085,-0.0269 -0.21273,-0.058 -0.27539,-0.0937 -0.0582,-0.0403 -0.11898,-0.0902 -0.18164,-0.14844 -0.0627,-0.0582 -0.1079,-0.13314 -0.13477,-0.22266 -0.0223,-0.0895 -0.0407,-0.19222 -0.0586,-0.30859 -0.0134,-0.11638 -0.0215,-0.25627 -0.0215,-0.42188 l 0,-7.86914 z m -22.06836,0.87891 c 0.743,0 1.37533,0.18237 1.89453,0.54492 0.52368,0.36255 0.90813,0.85303 1.1543,1.4707 0.24618,0.6132 0.36914,1.32935 0.36914,2.14844 0,0.59082 -0.0702,1.12932 -0.20898,1.61719 -0.13876,0.4834 -0.34554,0.90698 -0.62305,1.26953 -0.27303,0.36255 -0.63111,0.64429 -1.07422,0.8457 -0.44312,0.20142 -0.95248,0.30274 -1.52539,0.30274 -0.76091,0 -1.4021,-0.17766 -1.92578,-0.53125 -0.52368,-0.3536 -0.90674,-0.82854 -1.14844,-1.42383 -0.2417,-0.5953 -0.36328,-1.28785 -0.36328,-2.08008 0,-0.81909 0.1263,-1.53858 0.37695,-2.15625 0.25513,-0.62215 0.64429,-1.11263 1.16797,-1.4707 0.52816,-0.35808 1.16325,-0.53711 1.90625,-0.53711 z m -75.94531,0.13086 0,1 1,0 0,-1 -1,0 z m 103.64063,1.62304 c -0.9489,0 -1.80355,0.1757 -2.56446,0.5293 l 0.30078,0.82031 c 0.32674,-0.15666 0.69898,-0.27824 1.11524,-0.36328 0.41626,-0.0895 0.80542,-0.13476 1.16797,-0.13476 0.5371,0 0.9296,0.12768 1.17578,0.38281 0.25064,0.25513 0.375,0.6429 0.375,1.16211 l 0,0.69727 -1.13477,0 c -1.14136,-1e-5 -1.97241,0.18236 -2.49609,0.54492 -0.51921,0.35807 -0.7793,0.92155 -0.7793,1.6914 0,0.64454 0.19595,1.14722 0.58985,1.50977 0.39836,0.36255 0.92464,0.54492 1.57812,0.54492 0.97575,0 1.76823,-0.37362 2.37695,-1.12109 l 0.1211,0.98047 0.8457,0 0,-4.6875 c 0,-0.90414 -0.23373,-1.55478 -0.69922,-1.95313 -0.46102,-0.40283 -1.11777,-0.60352 -1.97265,-0.60352 z m 7.7207,0.0723 c -0.42969,0 -0.83911,0.12158 -1.22852,0.36328 -0.38492,0.23723 -0.71191,0.61084 -0.98047,1.1211 l -0.12109,-1.41016 -0.89258,0 0,7.10351 1.11524,0 0,-4.02148 c 0,-0.6311 0.19596,-1.16683 0.58984,-1.60547 0.39836,-0.43864 0.903,-0.65625 1.51172,-0.65625 0.12533,0 0.27604,0.0169 0.45508,0.0527 l 0.0469,-0.91211 c -0.1298,-0.0224 -0.29468,-0.0352 -0.49609,-0.0352 z m -22.1836,0.0742 0,4.33789 c 0,0.96233 0.21208,1.68791 0.63282,2.17578 0.42521,0.48339 1.04948,0.72461 1.87304,0.72461 0.58187,0 1.03931,-0.0872 1.375,-0.26172 0.34018,-0.17903 0.62525,-0.44857 0.85352,-0.80664 l 0.11328,0.93359 0.9668,0 0,-7.10351 -1.11328,0 0,3.98828 c 0,0.28199 -0.0203,0.53874 -0.0606,0.77149 -0.0403,0.23274 -0.11049,0.4523 -0.20899,0.6582 -0.0985,0.20588 -0.22615,0.37882 -0.38281,0.51758 -0.15218,0.13875 -0.34814,0.24755 -0.58984,0.32812 -0.23722,0.0806 -0.51147,0.12108 -0.82031,0.1211 -0.54606,0 -0.93661,-0.1635 -1.17383,-0.49024 -0.23275,-0.32674 -0.34961,-0.80444 -0.34961,-1.43555 l 0,-4.45898 -1.11524,0 z m -89.17773,0.23047 0,1 1,0 0,-1 -1,0 z m 1.5,0.5 0,1 1,0 0,-1 -1,0 z m 2,0 0,1 1,0 0,-1 -1,0 z m 2,0 0,1 1,0 0,-1 -1,0 z m 2,0 0,1 1,0 0,-1 -1,0 z m 2,0 0,1 1,0 0,-1 -1,0 z m 2,0 0,1 1,0 0,-1 -1,0 z m 2,0 0,1 1,0 0,-1 -1,0 z m 90.85937,2.95508 0.85157,0 0,1.56445 c -0.53224,0.78271 -1.25723,1.1752 -2.17383,1.17578 l -0.002,0 c -0.33478,-4.4e-4 -0.61456,-0.10786 -0.83789,-0.32227 -0.2238,-0.21483 -0.33594,-0.52018 -0.33594,-0.91406 0,-0.21932 0.0203,-0.40112 0.0605,-0.54883 0.0403,-0.15218 0.11328,-0.29264 0.22071,-0.41796 0.10742,-0.1298 0.25537,-0.22917 0.44336,-0.30079 0.18798,-0.0761 0.42781,-0.13551 0.71875,-0.17578 0.29093,-0.0403 0.64291,-0.0605 1.05468,-0.0605 z m -104.35937,0.54492 0,1 1,0 0,-1 -1,0 z m 0,2 0,1 1,0 0,-1 -1,0 z m 0,2 0,1 1,0 0,-1 -1,0 z m 0,2 0,1 1,0 0,-1 -1,0 z m 0,2 0,1 1,0 0,-1 -1,0 z m 0,2 0,1 1,0 0,-1 -1,0 z m 0,2 0,1 1,0 0,-1 -1,0 z m 0,2 0,1 1,0 0,-1 -1,0 z m 0,2 0,1 1,0 0,-1 -1,0 z m 0,2 0,1 1,0 0,-1 -1,0 z m 0,2 0,1 1,0 0,-1 -1,0 z m 0,2 0,1 1,0 0,-1 -1,0 z m 81.67187,0.99023 -1.0996,0.0801 0,9.80273 1.0996,0 0,-2.59765 0.76563,-0.72461 2.82031,3.32226 1.3086,0 -3.35547,-3.85937 3.10156,-3.24414 -1.34961,0 -3.33008,3.60547 0.0391,-1.46289 0,-4.92188 z m 34.16797,0 -1.11523,0.0801 0,2.20899 0.0547,1.61914 c -0.10742,-0.19694 -0.22291,-0.36516 -0.34375,-0.50391 -0.11638,-0.14323 -0.25961,-0.27564 -0.42969,-0.39649 -0.17009,-0.12532 -0.37216,-0.2186 -0.60938,-0.28124 -0.23722,-0.0627 -0.50675,-0.0938 -0.80664,-0.0938 -0.93994,0 -1.68578,0.33448 -2.23632,1.00586 -0.54606,0.67139 -0.81836,1.55103 -0.81836,2.63868 0,1.14583 0.26479,2.05656 0.79297,2.73242 0.53263,0.67138 1.2893,1.00781 2.26953,1.00781 1.01602,0 1.75382,-0.46411 2.21484,-1.39062 l 0.0996,1.25585 0.92773,0 0,-9.88281 z m -41.39843,0.0801 -3.5918,9.80273 1.20898,0 1.14844,-3.15624 3.75195,0 1.1543,3.15624 1.16992,0 -3.58593,-9.80273 -1.25586,0 z m 43.93554,0 c -0.21484,0 -0.39054,0.0669 -0.52929,0.20117 -0.13428,0.1298 -0.20118,0.30135 -0.20118,0.51172 0,0.21037 0.0669,0.38135 0.20118,0.51563 0.13875,0.13428 0.31445,0.20312 0.52929,0.20312 0.21037,0 0.38469,-0.0688 0.52344,-0.20312 0.13875,-0.13428 0.20898,-0.30526 0.20898,-0.51563 10e-6,-0.21037 -0.0702,-0.38192 -0.20898,-0.51172 -0.13428,-0.13428 -0.3086,-0.20117 -0.52344,-0.20117 z m -118.37695,0.92969 0,1 1,0 0,-1 -1,0 z m 75.08008,0.22656 1.61133,4.67188 -3.20899,0 1.59766,-4.67188 z m 15.22656,1.39648 c -1.04289,0 -1.86173,0.3392 -2.45703,1.01954 -0.59082,0.67586 -0.88672,1.57104 -0.88672,2.68554 0,1.08765 0.30062,1.97339 0.90039,2.65821 0.59977,0.68033 1.4139,1.02148 2.44336,1.02148 1.00708,0 1.81649,-0.34253 2.42969,-1.02734 0.6132,-0.68929 0.91992,-1.57365 0.91992,-2.65235 0,-1.1145 -0.29395,-2.00968 -0.88477,-2.68554 -0.59082,-0.68034 -1.413,-1.01954 -2.46484,-1.01954 z m 8.29102,0 c -1.06974,1e-5 -1.87305,0.375 -2.41016,1.12696 l -0.12109,-0.98047 -0.9668,0 0,7.10351 1.11523,0 0,-3.96093 c 0,-1.62476 0.73031,-2.4375 2.18946,-2.4375 0.54158,0 0.91992,0.16349 1.13476,0.49023 0.21485,0.32227 0.32227,0.8033 0.32227,1.44336 l 0,4.46484 1.11328,0 0,-4.34374 c 0,-0.97576 -0.19459,-1.70273 -0.58398,-2.18165 -0.38495,-0.4834 -0.98283,-0.72459 -1.79297,-0.72461 z m 6.70703,0 c -0.9489,0 -1.80355,0.1757 -2.56446,0.5293 l 0.30274,0.82031 c 0.32674,-0.15666 0.69897,-0.27824 1.11523,-0.36328 0.41626,-0.0895 0.80542,-0.13476 1.16797,-0.13476 0.53711,0 0.92766,0.12768 1.17383,0.38281 0.25065,0.25513 0.37695,0.6429 0.37695,1.16211 l 0,0.69727 -1.13476,0 c -1.14136,-1e-5 -1.97437,0.18236 -2.49805,0.54492 -0.51921,0.35807 -0.7793,0.92155 -0.7793,1.6914 0,0.64454 0.19792,1.14722 0.5918,1.50977 0.39835,0.36255 0.92464,0.54492 1.57813,0.54492 0.97574,0 1.76627,-0.37362 2.375,-1.12109 l 0.12109,0.98047 0.8457,0 0,-4.6875 c 0,-0.90414 -0.23177,-1.55478 -0.69726,-1.95313 -0.46102,-0.40283 -1.11972,-0.60352 -1.97461,-0.60352 z m 12.51562,0.14649 0,7.10351 1.10156,0 0,-7.10351 -1.10156,0 z m -117.82031,0.23047 0,1 1,0 0,-1 -1,0 z m 90.30664,0.47461 c 0.72957,0 1.28084,0.26147 1.65234,0.78515 0.3715,0.51921 0.55663,1.21371 0.55665,2.08204 -3e-5,0.55501 -0.0763,1.04077 -0.22852,1.45703 -0.15218,0.41178 -0.39811,0.74349 -0.73828,0.99414 -0.3357,0.24618 -0.74984,0.36914 -1.24219,0.36914 -0.71615,0 -1.26269,-0.26009 -1.63867,-0.7793 -0.37597,-0.51921 -0.56445,-1.20093 -0.56445,-2.04687 0,-0.86386 0.18848,-1.55697 0.56445,-2.07618 0.37598,-0.52368 0.92252,-0.78515 1.63867,-0.78515 z m 22.44531,0 c 0.66244,0 1.1604,0.24593 1.4961,0.73828 0.34016,0.49235 0.50976,1.21932 0.50976,2.18164 -0.004,0.88176 -0.16797,1.56211 -0.49023,2.04101 -0.32227,0.47893 -0.8466,0.71876 -1.57617,0.71876 -0.69377,-1e-5 -1.20785,-0.25538 -1.53907,-0.76563 -0.32674,-0.51025 -0.49023,-1.21086 -0.49023,-2.10156 0,-0.89518 0.17627,-1.58635 0.52539,-2.07422 0.34913,-0.49235 0.87069,-0.73828 1.56445,-0.73828 z m -111.25195,0.0254 0,1 1,0 0,-1 -1,0 z m 2,0 0,1 1,0 0,-1 -1,0 z m 2,0 0,1 1,0 0,-1 -1,0 z m 2,0 0,1 1,0 0,-1 -1,0 z m 2,0 0,1 1,0 0,-1 -1,0 z m 2,0 0,1 1,0 0,-1 -1,0 z m 2,0 0,1 1,0 0,-1 -1,0 z m 92.52344,2.95508 0.85351,0 0,1.56445 c -0.53263,0.78329 -1.25822,1.17578 -2.17578,1.17578 -0.33569,0 -0.61604,-0.10742 -0.83984,-0.32227 -0.2238,-0.21483 -0.33594,-0.52018 -0.33594,-0.91406 0,-0.21932 0.0203,-0.40112 0.0606,-0.54883 0.0403,-0.15218 0.11523,-0.29264 0.22265,-0.41796 0.10743,-0.1298 0.25538,-0.22917 0.44336,-0.30079 0.18799,-0.0761 0.42587,-0.13551 0.7168,-0.17578 0.29093,-0.0403 0.6429,-0.0605 1.05469,-0.0605 z"
     id="path10832" />
  <path
     inkscape:connector-curvature="0"
     style="color:#f2f2f2;font-style:normal;font-variant:normal;font-weight:normal;font-stretch:normal;font-size:13.75px;line-height:125%;font-family:Oxygen-Sans;-inkscape-font-specification:Oxygen-Sans;text-align:start;letter-spacing:0px;word-spacing:0px;writing-mode:lr-tb;text-anchor:start;fill:currentColor;fill-opacity:1;stroke:none"
     d="m 49.541016,26.638603 -1.316407,0.0957 0,2.609375 0.0625,1.912109 C 48.160156,31.023044 48.025634,30.82602 47.882812,30.66204 47.74528,30.492767 47.576009,30.33611 47.375,30.19329 c -0.201009,-0.148113 -0.442301,-0.259931 -0.722656,-0.333984 -0.280355,-0.07406 -0.596761,-0.109375 -0.951172,-0.109375 -1.11084,0 -1.991944,0.395993 -2.642578,1.189453 -0.645345,0.79346 -0.96875,1.833741 -0.96875,3.119141 0,1.354166 0.313314,2.429769 0.9375,3.228515 0.629476,0.793454 1.523193,1.189453 2.68164,1.189453 1.200765,0 2.072347,-0.547611 2.617188,-1.642578 l 0.11914,1.484375 1.095704,0 0,-11.679687 z m 66.119144,0 -1.30274,0.0957 0,9.179687 c 0,0.50252 0.0594,0.920653 0.17578,1.253907 0.11638,0.32796 0.29574,0.579346 0.53907,0.753906 0.24332,0.17456 0.51936,0.296468 0.82617,0.365234 0.31209,0.06347 0.69799,0.0957 1.1582,0.0957 l 0.62695,0 0.0703,-0.90625 -0.35743,-0.02344 c -0.22745,-0.01587 -0.40429,-0.02846 -0.53125,-0.03906 -0.12695,-0.01587 -0.26399,-0.03799 -0.41211,-0.06445 -0.14281,-0.03172 -0.25211,-0.06704 -0.32617,-0.109375 -0.0688,-0.04761 -0.13883,-0.107014 -0.21289,-0.175781 -0.0741,-0.06877 -0.12842,-0.155925 -0.16015,-0.261719 -0.0265,-0.105793 -0.0492,-0.227701 -0.0703,-0.365234 -0.0159,-0.137533 -0.0234,-0.30428 -0.0234,-0.5 l 0,-9.298828 z m 13.28125,0 -1.33203,0.0957 0,11.583984 1.07031,0 0.11914,-1.476562 c 0.28564,0.470787 0.65641,0.863688 1.11133,1.175781 0.45491,0.3068 0.99242,0.458984 1.61132,0.458984 1.14787,0 2.02702,-0.390954 2.64063,-1.173828 0.61889,-0.78288 0.92969,-1.840821 0.92969,-3.173828 0,-1.354166 -0.29623,-2.422198 -0.88868,-3.205078 -0.59244,-0.78288 -1.46598,-1.173828 -2.61914,-1.173828 -0.56599,0 -1.07633,0.134517 -1.53125,0.404297 -0.44962,0.264487 -0.82292,0.620692 -1.11914,1.070312 l 0.008,-1.458984 0,-3.126953 z m 9.34765,0 -1.30078,0.0957 0,9.179687 c 0,0.50252 0.0575,0.920653 0.17383,1.253907 0.11637,0.32796 0.29574,0.579346 0.53906,0.753906 0.24333,0.17456 0.51937,0.296468 0.82617,0.365234 0.3121,0.06347 0.698,0.0957 1.15821,0.0957 l 0.62695,0 0.0703,-0.90625 -0.35547,-0.02344 c -0.22746,-0.01587 -0.40625,-0.02846 -0.5332,-0.03906 -0.12695,-0.01587 -0.264,-0.03799 -0.41211,-0.06445 -0.14282,-0.03172 -0.25016,-0.06704 -0.32422,-0.109375 -0.0688,-0.04761 -0.14078,-0.107014 -0.21484,-0.175781 -0.0741,-0.06877 -0.12647,-0.155925 -0.1582,-0.261719 -0.0265,-0.105793 -0.0511,-0.227701 -0.0723,-0.365234 -0.0159,-0.137533 -0.0234,-0.30428 -0.0234,-0.5 l 0,-9.298828 z M 22,26.734306 l 0,7.386719 c 0,1.333006 0.383383,2.390948 1.150391,3.173828 0.767008,0.78288 1.896972,1.173828 3.388671,1.173828 0.74585,0 1.408366,-0.104813 1.990235,-0.316406 0.581869,-0.216874 1.056885,-0.518144 1.421875,-0.904297 0.37028,-0.391433 0.649414,-0.84936 0.839844,-1.373047 0.19043,-0.52368 0.287109,-1.100995 0.287109,-1.730469 l 0,-7.410156 -1.396484,0 0,7.363281 c 0,1.06852 -0.265951,1.880127 -0.794922,2.435547 -0.528972,0.550133 -1.310873,0.824219 -2.347657,0.824219 -2.094726,0 -3.142578,-1.085692 -3.142578,-3.259766 l 0,-7.363281 -1.396484,0 z m 89.16016,0 c -0.25391,0 -0.46298,0.07959 -0.62696,0.238281 -0.15869,0.1534 -0.23828,0.352949 -0.23828,0.601563 0,0.24862 0.0796,0.452641 0.23828,0.611328 0.16398,0.158693 0.37305,0.238281 0.62696,0.238281 0.24861,0 0.45515,-0.07959 0.61914,-0.238281 0.16398,-0.158687 0.24609,-0.362708 0.24609,-0.611328 0,-0.248614 -0.0821,-0.448163 -0.24609,-0.601563 -0.1587,-0.158693 -0.36524,-0.238281 -0.61914,-0.238281 z m -49.359379,0.888672 -1.05664,0.07813 -0.212891,2.222656 -1.294922,0.08789 -0.03125,0.74414 1.292969,0 0,5.046875 c 0,0.513107 0.04484,0.928714 0.134765,1.246094 0.08993,0.31738 0.251628,0.578856 0.484376,0.785156 0.238037,0.2063 0.544352,0.350341 0.919921,0.429688 0.37557,0.07935 0.868246,0.11914 1.476563,0.11914 l 0,-0.002 0.546875,0 0.06445,-0.904297 -0.666016,-0.03125 C 62.75545,37.41875 62.302569,37.308889 62.101559,37.113169 61.90055,36.912156 61.800778,36.474416 61.800778,35.802622 l 0,-5.046875 2.220703,0 0,-0.832031 -2.220703,0 0,-2.300781 z m -24.638672,2.126953 c -1.211344,0 -2.125244,0.545652 -2.74414,1.640625 l -0.134766,-1.466797 -1.095703,0 0,12.076172 1.316406,0 0,-3.158203 -0.05469,-1.943359 c 0.624186,1.052653 1.520426,1.578124 2.689453,1.578124 1.10026,0 1.958659,-0.395999 2.572266,-1.189453 0.613607,-0.79346 0.919921,-1.841311 0.919921,-3.142578 0,-1.354166 -0.296223,-2.424724 -0.888671,-3.21289 -0.587156,-0.788174 -1.448077,-1.181641 -2.580076,-1.181641 z m 17.544922,0 c -1.121419,0 -2.131998,0.207107 -3.03125,0.625 l 0.357422,0.96875 c 0.386149,-0.18514 0.824463,-0.327234 1.316406,-0.427734 0.491944,-0.105794 0.952393,-0.160157 1.38086,-0.160157 0.634765,0 1.097737,0.151612 1.388672,0.453125 0.296224,0.301514 0.443359,0.759441 0.443359,1.373047 l 0,0.824219 -1.339844,0 c -1.348876,0 -2.334228,0.214111 -2.953125,0.642578 -0.613606,0.42318 -0.919922,1.090173 -0.919922,2 0,0.76172 0.233724,1.35669 0.699219,1.785156 0.470785,0.428467 1.090983,0.642578 1.863281,0.642578 1.153158,0 2.091147,-0.440838 2.810547,-1.324218 l 0.142578,1.158203 1,0 0,-5.539063 c 0,-1.068526 -0.276042,-1.837813 -0.826172,-2.308593 -0.54484,-0.47608 -1.321695,-0.712891 -2.332031,-0.712891 z m 14.457031,0 c -1.110839,0 -2.026692,0.398519 -2.746093,1.197266 -0.719401,0.798753 -1.080078,1.869304 -1.080078,3.21289 0,1.327714 0.368245,2.380617 1.103515,3.158203 0.73527,0.7723 1.693441,1.158203 2.873047,1.158203 1.057943,0 2.001546,-0.246341 2.832031,-0.738281 l -0.277343,-0.927734 c -0.444336,0.222167 -0.847331,0.388913 -1.207032,0.5 -0.3597,0.111087 -0.758219,0.166015 -1.197265,0.166015 -0.809326,0 -1.466228,-0.256424 -1.96875,-0.769531 -0.502521,-0.518386 -0.774086,-1.310379 -0.816406,-2.378906 l 5.673828,0 0.04687,-0.667969 c 0,-1.227213 -0.278565,-2.183427 -0.833985,-2.871094 -0.550125,-0.692953 -1.349685,-1.039062 -2.402339,-1.039062 z m 7.59961,0 c -0.878093,0 -1.560222,0.211586 -2.046875,0.634766 -0.486654,0.417886 -0.730469,0.968017 -0.730469,1.65039 0,0.550134 0.14152,0.998537 0.421875,1.347656 0.280355,0.343834 0.798259,0.637533 1.554688,0.88086 l 0.919921,0.292969 c 0.608318,0.19572 1.028972,0.404779 1.261719,0.626953 0.232748,0.222166 0.34961,0.498212 0.34961,0.826172 0,0.476073 -0.139568,0.839843 -0.419922,1.09375 -0.280355,0.24862 -0.675781,0.373046 -1.183594,0.373046 -0.809326,0 -1.715657,-0.239336 -2.720703,-0.720703 l 0,1.101563 c 0.867513,0.412593 1.743571,0.61914 2.626953,0.61914 0.396729,0 0.760498,-0.04736 1.09375,-0.142578 0.338541,-0.09521 0.639811,-0.237301 0.904297,-0.427734 0.269775,-0.190427 0.481366,-0.444332 0.634766,-0.761719 0.153406,-0.322666 0.230468,-0.693435 0.230468,-1.111328 0,-0.33854 -0.03224,-0.624675 -0.0957,-0.857422 -0.06347,-0.238033 -0.178383,-0.459715 -0.347656,-0.666015 -0.169271,-0.2063 -0.405517,-0.385663 -0.707031,-0.539063 -0.296224,-0.158693 -0.679607,-0.312824 -1.150391,-0.460937 l -0.832031,-0.261719 c -0.544841,-0.17456 -0.902995,-0.338788 -1.072266,-0.492188 -0.169271,-0.153406 -0.253906,-0.402267 -0.253906,-0.746093 0,-0.407307 0.129476,-0.716141 0.388672,-0.927735 0.264486,-0.216873 0.700277,-0.326172 1.308594,-0.326172 0.682373,0 1.389159,0.186361 2.11914,0.556641 l 0.310547,-0.976562 c -0.79346,-0.39144 -1.649336,-0.585938 -2.564456,-0.585938 z m 11.298828,0 c -1.12142,0 -2.130044,0.207107 -3.029297,0.625 l 0.355469,0.96875 c 0.386147,-0.18514 0.826419,-0.327234 1.318359,-0.427734 0.491947,-0.105794 0.952393,-0.160157 1.38086,-0.160157 0.634766,0 1.097738,0.151612 1.388671,0.453125 0.296227,0.301514 0.44336,0.759441 0.44336,1.373047 l 0,0.824219 -1.341797,0 c -1.348873,0 -2.332272,0.214111 -2.951172,0.642578 -0.613607,0.42318 -0.919922,1.090173 -0.919922,2 0,0.76172 0.231773,1.35669 0.697266,1.785156 0.470787,0.428467 1.092934,0.642578 1.865234,0.642578 1.15316,0 2.089194,-0.440838 2.808594,-1.324218 l 0.142578,1.158203 1,0 0,-5.539063 c 0,-1.068526 -0.274092,-1.837813 -0.824219,-2.308593 -0.54484,-0.47608 -1.323651,-0.712891 -2.333984,-0.712891 z m 16.91797,0 c -1.12142,0 -2.132,0.207107 -3.03125,0.625 l 0.35742,0.96875 c 0.38615,-0.18514 0.82446,-0.327234 1.31641,-0.427734 0.49194,-0.105794 0.95239,-0.160157 1.38086,-0.160157 0.63476,0 1.09773,0.151612 1.38867,0.453125 0.29622,0.301514 0.44336,0.759441 0.44336,1.373047 l 0,0.824219 -1.33985,0 c -1.34888,0 -2.33423,0.214111 -2.95312,0.642578 -0.61361,0.42318 -0.91992,1.090173 -0.91992,2 0,0.76172 0.23372,1.35669 0.69922,1.785156 0.47078,0.428467 1.09098,0.642578 1.86328,0.642578 1.15316,0 2.08919,-0.440838 2.80859,-1.324218 l 0.14453,1.158203 1,0 0,-5.539063 c 0,-1.068526 -0.27604,-1.837813 -0.82617,-2.308593 -0.54484,-0.47608 -1.3217,-0.712891 -2.33203,-0.712891 z m 17.32812,0 c -1.12142,0 -2.132,0.207107 -3.03125,0.625 l 0.35743,0.96875 c 0.38614,-0.18514 0.82446,-0.327234 1.3164,-0.427734 0.49194,-0.105794 0.95239,-0.160157 1.38086,-0.160157 0.63476,0 1.09774,0.151612 1.38867,0.453125 0.29623,0.301514 0.44532,0.759441 0.44532,1.373047 l 0,0.824219 -1.3418,0 c -1.34888,0 -2.33228,0.214111 -2.95117,0.642578 -0.61361,0.42318 -0.91993,1.090173 -0.91993,2 1e-5,0.76172 0.23178,1.35669 0.69727,1.785156 0.47079,0.428467 1.09294,0.642578 1.86523,0.642578 1.15317,0 2.0892,-0.440838 2.8086,-1.324218 l 0.14258,1.158203 1,0 0,-5.539063 c 0,-1.068526 -0.2741,-1.837813 -0.82422,-2.308593 -0.54485,-0.47608 -1.32365,-0.712891 -2.33399,-0.712891 z m 22.99414,0 c -1.11084,0 -2.02473,0.398519 -2.74414,1.197266 -0.7194,0.798753 -1.08007,1.869304 -1.08007,3.21289 0,1.327714 0.36824,2.380617 1.10351,3.158203 0.73527,0.7723 1.69149,1.158203 2.87109,1.158203 1.05795,0 2.00351,-0.246341 2.83399,-0.738281 l -0.27734,-0.927734 c -0.44434,0.222167 -0.84734,0.388913 -1.20704,0.5 -0.3597,0.111087 -0.75821,0.166015 -1.19726,0.166015 -0.80933,0 -1.46623,-0.256424 -1.96875,-0.769531 -0.50251,-0.518386 -0.77407,-1.310379 -0.81641,-2.378906 l 5.67188,0 0.0488,-0.667969 c 0,-1.227213 -0.27857,-2.183427 -0.83399,-2.871094 -0.5501,-0.692953 -1.35161,-1.039062 -2.40427,-1.039062 z m -52.605464,0.173828 3.24414,8.394531 1.326172,0 3.181642,-8.394531 -1.341798,0 c -0.275067,0.772293 -0.691247,1.92749 -1.251953,3.466797 -0.55542,1.539307 -0.971027,2.69645 -1.246094,3.46875 -0.343833,-0.909833 -0.841554,-2.248865 -1.492187,-4.015625 -0.645347,-1.766767 -1.003499,-2.740075 -1.072266,-2.919922 l -1.347656,0 z m 17.804684,0 0,8.394531 1.30078,0 0,-8.394531 -1.30078,0 z m 20.95508,0.824219 c 1.52344,0 2.28516,1.127439 2.28516,3.380859 0,2.226967 -0.7819,3.339844 -2.34766,3.339844 -0.79345,0 -1.40804,-0.293699 -1.8418,-0.880859 -0.42846,-0.587154 -0.64257,-1.45117 -0.64257,-2.59375 0,-1.020914 0.20654,-1.817379 0.61914,-2.388672 0.41788,-0.571287 1.06022,-0.857422 1.92773,-0.857422 z m -94.445311,0.0078 c 1.512858,0 2.269531,1.124921 2.269531,3.373047 0,2.226967 -0.781901,3.339844 -2.347656,3.339844 -0.793458,0 -1.408041,-0.303796 -1.841797,-0.912109 -0.428467,-0.60832 -0.642578,-1.46224 -0.642578,-2.5625 0.0053,-1.015627 0.216878,-1.809573 0.634765,-2.38086 0.417888,-0.571286 1.060221,-0.857422 1.927735,-0.857422 z m 8.878906,0 c 0.782877,0 1.372803,0.291181 1.769531,0.873047 0.402018,0.581867 0.603516,1.442792 0.603516,2.580078 -0.0053,1.042074 -0.199219,1.84611 -0.580078,2.41211 -0.38086,0.566 -1.001058,0.847656 -1.863282,0.847656 -0.819906,0 -1.42692,-0.30127 -1.818359,-0.904297 -0.386149,-0.603027 -0.578125,-1.429768 -0.578125,-2.482422 0,-1.05794 0.206543,-1.876545 0.619141,-2.453125 0.412597,-0.581866 1.02775,-0.873047 1.847656,-0.873047 z m 23.304687,0 c 1.333004,0 2.030271,0.905764 2.09375,2.714844 l -4.570312,0 c 0.07406,-0.835773 0.333008,-1.497722 0.777344,-1.984375 0.449625,-0.486653 1.016845,-0.730469 1.699218,-0.730469 z m 76.138668,0 c 1.33302,0 2.03224,0.905764 2.09571,2.714844 l -4.57031,0 c 0.074,-0.835773 0.333,-1.497722 0.77734,-1.984375 0.44962,-0.486653 1.01489,-0.730469 1.69726,-0.730469 z m -89.779292,3.523438 1.007812,0 0,1.849609 c -0.629476,0.9257 -1.485921,1.388672 -2.570312,1.388672 -0.396729,0 -0.727703,-0.126953 -0.992188,-0.380859 -0.264486,-0.253907 -0.396484,-0.614585 -0.396484,-1.080078 0,-0.2592 0.02466,-0.475831 0.07227,-0.650391 0.04761,-0.179847 0.134766,-0.344074 0.261719,-0.492188 0.126953,-0.153399 0.30127,-0.272781 0.523438,-0.357421 0.222168,-0.08993 0.505778,-0.157479 0.849609,-0.205079 0.343831,-0.0476 0.757487,-0.07227 1.244141,-0.07227 z m 33.357421,0 1.007813,0 0,1.849609 c -0.62948,0.9257 -1.485919,1.388672 -2.570313,1.388672 -0.396726,0 -0.7277,-0.126953 -0.992187,-0.380859 -0.264487,-0.253907 -0.396484,-0.614585 -0.396484,-1.080078 0,-0.2592 0.02271,-0.475831 0.07031,-0.650391 0.04761,-0.179847 0.134765,-0.344074 0.261719,-0.492188 0.126953,-0.1534 0.303224,-0.272781 0.52539,-0.357421 0.222167,-0.08993 0.503823,-0.157479 0.847657,-0.205079 0.343826,-0.0476 0.75944,-0.07227 1.246093,-0.07227 z m 16.916011,0 1.00782,0 0,1.849609 c -0.62948,0.9257 -1.48592,1.388672 -2.57032,1.388672 -0.39672,0 -0.7277,-0.126953 -0.99218,-0.380859 -0.26449,-0.253907 -0.39649,-0.614585 -0.39649,-1.080078 0,-0.2592 0.0247,-0.475831 0.0723,-0.650391 0.0476,-0.179847 0.13476,-0.344074 0.26172,-0.492188 0.12695,-0.153399 0.30127,-0.272781 0.52344,-0.357421 0.22216,-0.08993 0.50382,-0.157479 0.84765,-0.205079 0.34383,-0.0476 0.75944,-0.07227 1.24609,-0.07227 z m 17.33008,0 1.00782,0 0,1.849609 c -0.62948,0.9257 -1.48592,1.388672 -2.57032,1.388672 -0.39672,0 -0.7277,-0.126953 -0.99218,-0.380859 -0.26449,-0.253907 -0.39649,-0.614585 -0.39649,-1.080078 0,-0.2592 0.0227,-0.475831 0.0703,-0.650391 0.0476,-0.179847 0.13477,-0.344074 0.26172,-0.492188 0.12696,-0.153399 0.30127,-0.272781 0.52344,-0.357421 0.22217,-0.08993 0.50578,-0.157479 0.84961,-0.205079 0.34383,-0.0476 0.75944,-0.07227 1.24609,-0.07227 z M 53.324219,63.427665 c -0.420736,0 -0.813233,0.04997 -1.175781,0.148438 -0.36255,0.09847 -0.690919,0.247799 -0.986329,0.449219 -0.29541,0.19694 -0.529134,0.463134 -0.699218,0.798828 -0.170085,0.335693 -0.253907,0.72209 -0.253907,1.15625 0,0.631106 0.163493,1.127687 0.490235,1.490234 0.326742,0.358073 0.819987,0.661456 1.482422,0.912109 l 1.597656,0.611329 c 0.626628,0.2417 1.048828,0.48153 1.263672,0.71875 0.21932,0.232746 0.328125,0.582761 0.328125,1.052734 0,0.407307 -0.09798,0.749837 -0.294922,1.027344 -0.192464,0.273033 -0.443115,0.47095 -0.751953,0.591797 -0.308838,0.116373 -0.666911,0.173828 -1.074219,0.173828 -0.501302,0 -1.022868,-0.08854 -1.564453,-0.267578 -0.537109,-0.17904 -1.021485,-0.423589 -1.451172,-0.732422 l 0,1.060547 c 0.277506,0.246173 0.69637,0.454913 1.255859,0.625 0.559489,0.17008 1.140463,0.255859 1.740235,0.255859 0.335693,0 0.653239,-0.02969 0.953125,-0.08789 0.304362,-0.05819 0.596923,-0.154789 0.878906,-0.289062 0.281983,-0.138753 0.523193,-0.311685 0.724609,-0.517578 0.201416,-0.205894 0.363526,-0.468749 0.484375,-0.791016 0.12085,-0.322267 0.181641,-0.685064 0.181641,-1.087891 0,-0.326746 -0.04053,-0.61792 -0.121094,-0.873046 -0.08057,-0.255127 -0.181885,-0.469972 -0.302734,-0.644532 -0.120849,-0.174561 -0.293782,-0.338055 -0.517578,-0.490235 -0.21932,-0.15666 -0.430827,-0.284346 -0.636719,-0.382812 -0.201416,-0.09847 -0.46289,-0.210618 -0.785156,-0.335938 l -1.544922,-0.603516 c -0.469971,-0.183513 -0.796956,-0.386148 -0.980469,-0.605468 -0.179036,-0.223794 -0.267578,-0.541339 -0.267578,-0.953125 0,-0.335694 0.09798,-0.61743 0.294922,-0.845703 0.19694,-0.228267 0.444255,-0.388429 0.744141,-0.482422 0.299885,-0.09847 0.642415,-0.148438 1.027343,-0.148438 0.41626,0 0.83374,0.05746 1.25,0.173828 0.420736,0.116374 0.775472,0.277096 1.066407,0.478516 l 0.429687,-0.833984 c -0.384928,-0.237227 -0.822102,-0.420982 -1.314453,-0.550782 -0.487874,-0.13428 -0.978353,-0.201172 -1.470703,-0.201172 z m 72.556641,0.05469 -1.11524,0.08008 0,2.208984 0.0547,1.617188 c -0.10742,-0.19694 -0.2229,-0.3632 -0.34375,-0.501953 -0.11637,-0.143227 -0.2596,-0.275638 -0.42968,-0.396485 -0.17009,-0.125326 -0.37216,-0.220536 -0.60938,-0.283203 -0.23723,-0.06267 -0.50675,-0.09375 -0.80664,-0.09375 -0.93994,0 -1.6858,0.336426 -2.23633,1.007813 -0.54607,0.671386 -0.81836,1.551025 -0.81836,2.638672 0,1.145833 0.26481,2.056562 0.79297,2.732422 0.53263,0.671386 1.28735,1.005859 2.26758,1.005859 1.01603,0 1.75578,-0.462159 2.2168,-1.388672 l 0.0996,1.255859 0.92774,0 0,-9.882812 z m -41.183594,0.08008 c -0.21484,0 -0.390544,0.06689 -0.529297,0.201172 -0.13428,0.1298 -0.201172,0.299399 -0.201172,0.509766 0,0.210366 0.06689,0.383298 0.201172,0.517578 0.138753,0.134273 0.314457,0.201172 0.529297,0.201172 0.210373,0 0.384684,-0.0669 0.523437,-0.201172 0.138753,-0.13428 0.208985,-0.307212 0.208985,-0.517578 -10e-7,-0.210367 -0.07023,-0.379966 -0.208985,-0.509766 -0.13428,-0.13428 -0.308591,-0.201172 -0.523437,-0.201172 z m 17.878904,0 0,6.25 c 0,1.127927 0.3256,2.023107 0.97461,2.685547 0.64901,0.662433 1.60302,0.994141 2.86524,0.994141 0.6311,0 1.19319,-0.08854 1.68554,-0.267579 0.49235,-0.183506 0.89429,-0.438878 1.20313,-0.765625 0.31331,-0.331213 0.5498,-0.718989 0.71093,-1.162109 0.16114,-0.443113 0.24219,-0.930257 0.24219,-1.462891 l 0,-6.271484 -1.18164,0 0,6.230469 c 0,0.904133 -0.22428,1.590573 -0.67187,2.060547 -0.4476,0.465493 -1.11101,0.699218 -1.98828,0.699218 -1.77247,0 -2.65821,-0.920165 -2.65821,-2.759765 l 0,-6.230469 -1.18164,0 z m -13.775389,0.751953 -0.894531,0.06641 -0.179688,1.88086 -1.095703,0.07422 -0.02734,0.630859 1.095703,0 0,4.269531 c 0,0.434167 0.03719,0.786134 0.113281,1.054688 0.07609,0.268553 0.21321,0.489502 0.410156,0.664062 0.201414,0.17456 0.46151,0.296141 0.779297,0.363281 0.317793,0.06714 0.73332,0.09961 1.248047,0.09961 l 0.462891,0 0.05469,-0.765625 -0.564453,-0.02539 c -0.5953,-0.02238 -0.978351,-0.117596 -1.148437,-0.283203 -0.17008,-0.170087 -0.253907,-0.538982 -0.253907,-1.107422 l 0,-4.269531 1.878907,0 0,-0.705078 -1.878907,0 0,-1.947266 z m 47.453129,0 -0.89258,0.06641 -0.18164,1.88086 -1.09571,0.07422 -0.0254,0.630859 1.09375,0 0,4.269531 c 0,0.434167 0.0372,0.786134 0.11328,1.054688 0.0761,0.268553 0.21322,0.489502 0.41016,0.664062 0.20141,0.17456 0.4615,0.296141 0.7793,0.363281 0.31778,0.06714 0.73331,0.09961 1.24804,0.09961 l 0.4629,0 0.0547,-0.765625 -0.56445,-0.02539 c -0.5953,-0.02238 -0.97836,-0.117596 -1.14844,-0.283203 -0.17008,-0.170087 -0.2539,-0.538982 -0.2539,-1.107422 l 0,-4.269531 1.8789,0 0,-0.705078 -1.8789,0 0,-1.947266 z m -75.330082,1.798828 c -0.939941,0 -1.713541,0.337812 -2.322266,1.013672 -0.608724,0.675867 -0.914062,1.583823 -0.914062,2.720703 0,1.123454 0.311442,2.013915 0.933594,2.671875 0.622151,0.65348 1.431559,0.980469 2.429687,0.980469 0.895182,0 1.693767,-0.20874 2.396485,-0.625 l -0.234375,-0.785156 c -0.375977,0.187986 -0.71517,0.327881 -1.019532,0.421875 -0.304362,0.094 -0.642171,0.140625 -1.013671,0.140625 -0.684815,0 -1.240805,-0.216224 -1.666016,-0.650391 -0.425212,-0.43864 -0.6556,-1.109538 -0.691406,-2.013672 l 4.800781,0 0.03906,-0.564453 c 0,-1.038413 -0.233154,-1.847821 -0.703125,-2.429687 -0.465494,-0.586347 -1.144449,-0.88086 -2.035156,-0.88086 z m 7.271484,0 c -0.989176,0 -1.79248,0.333087 -2.410156,1 -0.617676,0.662434 -0.927734,1.575115 -0.927734,2.734375 0,1.110027 0.300618,1.99577 0.90039,2.658203 0.604249,0.662434 1.413657,0.994141 2.429688,0.994141 0.434164,0 0.823324,-0.0533 1.167969,-0.15625 0.344645,-0.10294 0.593912,-0.213131 0.746093,-0.333984 l -0.208984,-0.759766 c -0.452067,0.259607 -0.950032,0.390625 -1.496094,0.390625 -0.783284,0 -1.377848,-0.258704 -1.785156,-0.773437 C 66.20402,71.352392 66,70.680107 66,69.847587 c 0,-0.87728 0.211507,-1.576496 0.636719,-2.095703 0.425211,-0.519207 0.99064,-0.779297 1.693359,-0.779297 0.555013,0 1.048259,0.131019 1.482422,0.390625 l 0.316406,-0.765625 c -0.15218,-0.102946 -0.398112,-0.208986 -0.738281,-0.316406 -0.335693,-0.1119 -0.734293,-0.167969 -1.195313,-0.167969 z m 47.210938,0 c -1.02498,0 -1.79859,0.464112 -2.32227,1.390625 l -0.11523,-1.242187 -0.92578,0 0,10.21875 1.11523,0 0,-2.671875 -0.0469,-1.646485 c 0.52816,0.890707 1.28622,1.337891 2.27539,1.337891 0.93099,0 1.65658,-0.336426 2.17578,-1.007812 0.51921,-0.671387 0.77734,-1.55713 0.77734,-2.658204 0,-1.145833 -0.25065,-2.053796 -0.75195,-2.720703 -0.49683,-0.666913 -1.22379,-1 -2.18164,-1 z m 14.8457,0 c -0.94889,0 -1.8055,0.177657 -2.5664,0.53125 l 0.30273,0.81836 c 0.32674,-0.15666 0.69898,-0.276288 1.11524,-0.361329 0.41626,-0.08952 0.80541,-0.134765 1.16796,-0.134765 0.53711,0 0.92766,0.127686 1.17383,0.382812 0.25066,0.255127 0.37696,0.64095 0.37696,1.160157 l 0,0.699218 -1.13477,0 c -1.14136,0 -1.97437,0.180416 -2.49805,0.542969 -0.5192,0.358067 -0.77734,0.9235 -0.77734,1.693359 0,0.644534 0.19596,1.147219 0.58984,1.509766 0.39836,0.362547 0.92464,0.544922 1.57813,0.544922 0.97574,0 1.76822,-0.375574 2.37695,-1.123047 l 0.12109,0.980469 0.84571,0 0,-4.685547 c 0,-0.904133 -0.23373,-1.554772 -0.69922,-1.953125 -0.46102,-0.402833 -1.11776,-0.605469 -1.97266,-0.605469 z m 12.23243,0 c -0.93995,0 -1.7155,0.337812 -2.32422,1.013672 -0.60872,0.675867 -0.91211,1.583823 -0.91211,2.720703 0,1.123454 0.31144,2.013915 0.93359,2.671875 0.62215,0.65348 1.43156,0.980469 2.42969,0.980469 0.89518,0 1.69377,-0.20874 2.39648,-0.625 l -0.23437,-0.785156 c -0.37598,0.187986 -0.71713,0.327881 -1.02149,0.421875 -0.30436,0.094 -0.64217,0.140625 -1.01367,0.140625 -0.68482,0 -1.23885,-0.216224 -1.66406,-0.650391 -0.42522,-0.43864 -0.65561,-1.109538 -0.69141,-2.013672 l 4.80078,0 0.0391,-0.564453 c 0,-1.038413 -0.23511,-1.847821 -0.70508,-2.429687 -0.4655,-0.586347 -1.1425,-0.88086 -2.0332,-0.88086 z m 6.43164,0 c -0.743,0 -1.32065,0.179036 -1.73243,0.53711 -0.41178,0.353593 -0.61718,0.819091 -0.61718,1.396484 0,0.4655 0.11824,0.847171 0.35547,1.142578 0.23721,0.290933 0.67635,0.538247 1.3164,0.744141 l 0.77734,0.248047 c 0.51474,0.165613 0.87142,0.343263 1.06836,0.53125 0.19694,0.187986 0.29493,0.419759 0.29493,0.697265 0,0.402834 -0.11825,0.712895 -0.35547,0.927735 -0.23722,0.210373 -0.57032,0.314453 -1,0.314453 -0.68482,0 -1.45232,-0.202062 -2.30274,-0.609375 l 0,0.93164 c 0.73405,0.34912 1.47518,0.525391 2.22266,0.525391 0.33569,0 0.6438,-0.04053 0.92578,-0.121094 0.28646,-0.08057 0.54183,-0.202148 0.76563,-0.363281 0.22827,-0.161127 0.4073,-0.375971 0.53711,-0.644531 0.1298,-0.273027 0.19531,-0.585853 0.19531,-0.939453 0,-0.28646 -0.0283,-0.52767 -0.082,-0.72461 -0.0537,-0.201413 -0.1517,-0.389893 -0.29493,-0.564453 -0.14322,-0.17456 -0.34253,-0.327231 -0.59765,-0.457031 -0.25066,-0.13428 -0.5743,-0.263345 -0.97266,-0.388672 l -0.70508,-0.222656 c -0.46102,-0.1477 -0.76302,-0.286216 -0.90625,-0.416016 -0.14323,-0.129807 -0.21484,-0.339926 -0.21484,-0.630859 0,-0.344647 0.1088,-0.606123 0.32813,-0.785156 0.22379,-0.183514 0.59269,-0.275391 1.10742,-0.275391 0.57739,0 1.17529,0.155437 1.79297,0.46875 l 0.26171,-0.824219 c -0.67138,-0.33122 -1.39363,-0.498047 -2.16796,-0.498047 z m -66.642582,0.07422 c -0.429687,0 -0.839109,0.121581 -1.228516,0.363281 -0.384927,0.237227 -0.711916,0.610841 -0.980469,1.121094 l -0.121094,-1.410156 -0.892578,0 0,7.103515 1.115235,0 0,-4.021484 c 0,-0.631107 0.195963,-1.166835 0.589843,-1.605469 0.39836,-0.43864 0.902999,-0.658203 1.511719,-0.658203 0.125327,0 0.277991,0.01889 0.457031,0.05469 l 0.04687,-0.914063 c -0.1298,-0.0224 -0.296633,-0.0332 -0.498046,-0.0332 z m -10.84961,0.07422 0,4.33789 c 0,0.96232 0.210124,1.685948 0.63086,2.173829 0.425211,0.483393 1.049478,0.726562 1.873046,0.726562 0.581869,0 1.04126,-0.08911 1.376954,-0.263672 0.340169,-0.179033 0.625244,-0.446614 0.853515,-0.804687 l 0.113281,0.933593 0.966797,0 0,-7.103515 -1.115234,0 0,3.988281 c 0,0.281987 -0.01831,0.538738 -0.05859,0.771484 -0.04028,0.232747 -0.110514,0.45231 -0.208984,0.658204 -0.09847,0.205886 -0.226155,0.378824 -0.382813,0.517578 -0.15218,0.138753 -0.348144,0.247558 -0.589844,0.328125 -0.237223,0.08057 -0.511474,0.121093 -0.820312,0.121093 -0.546061,0 -0.936605,-0.163494 -1.173828,-0.490234 -0.232747,-0.32674 -0.34961,-0.806393 -0.34961,-1.4375 l 0,-4.457031 -1.115234,0 z m 12.716797,0 0,7.103515 1.101563,0 0,-7.103515 -1.101563,0 z m 7.613281,0 2.8125,6.888672 -1.046875,2.671875 1,0.214843 3.740235,-9.77539 -1.128907,0 -2.027343,5.673828 -2.214844,-5.673828 -1.134766,0 z m -30.802734,0.705078 c 1.127927,0 1.717771,0.764162 1.771484,2.294922 l -3.867187,0 c 0.06266,-0.707194 0.282226,-1.265955 0.658203,-1.677735 0.380453,-0.411786 0.860107,-0.617187 1.4375,-0.617187 z m 54.328128,0 c 1.28011,0 1.91992,0.951256 1.91992,2.853515 0,1.884361 -0.66146,2.826172 -1.98633,2.826172 -0.67139,0 -1.19157,-0.256757 -1.55859,-0.771484 -0.36255,-0.514733 -0.54297,-1.238935 -0.54297,-2.169922 0.004,-0.859373 0.18351,-1.530272 0.53711,-2.013672 0.3536,-0.4834 0.89681,-0.724609 1.63086,-0.724609 z m 7.51367,0 c 0.66243,0 1.1604,0.245928 1.49609,0.738281 0.34017,0.492347 0.50977,1.219321 0.50977,2.181641 -0.004,0.881753 -0.16797,1.562089 -0.49024,2.041015 -0.32226,0.47892 -0.84659,0.71875 -1.57617,0.71875 -0.69376,0 -1.20785,-0.255371 -1.53906,-0.765625 -0.32675,-0.510253 -0.49024,-1.210855 -0.49024,-2.101562 1e-5,-0.89518 0.17627,-1.586346 0.5254,-2.074219 0.34912,-0.492353 0.87068,-0.738281 1.56445,-0.738281 z m 19.7168,0 c 1.1279,0 1.7197,0.764162 1.77343,2.294922 l -3.86718,0 c 0.0627,-0.707194 0.28222,-1.265955 0.6582,-1.677735 0.38045,-0.411786 0.85815,-0.617187 1.43555,-0.617187 z m -11.54102,2.980469 0.85352,0 0,1.564453 c -0.53264,0.783286 -1.25823,1.175781 -2.17579,1.175781 -0.33569,0 -0.61409,-0.107419 -0.83789,-0.322266 -0.22379,-0.214846 -0.33593,-0.520182 -0.33593,-0.914062 0,-0.21932 0.0203,-0.403081 0.0605,-0.550781 0.0403,-0.15218 0.11329,-0.290689 0.22071,-0.416016 0.10742,-0.129807 0.25536,-0.231121 0.44336,-0.302734 0.18798,-0.07611 0.42781,-0.133562 0.71875,-0.173829 0.29093,-0.04027 0.64094,-0.06055 1.05273,-0.06055 z m -54.898438,53.535157 -1.101562,0.0801 0,7.76758 c 0,0.42521 0.04997,0.77855 0.148438,1.06054 0.09847,0.2775 0.251139,0.49097 0.457031,0.63867 0.205892,0.14769 0.437662,0.25039 0.697265,0.30859 0.264079,0.0537 0.591065,0.0801 0.980469,0.0801 l 0.53125,0 0.05859,-0.76563 -0.300781,-0.0195 c -0.192464,-0.0135 -0.34375,-0.0243 -0.451172,-0.0332 -0.107422,-0.0134 -0.222331,-0.0323 -0.347656,-0.0547 -0.120852,-0.0269 -0.212731,-0.0579 -0.275391,-0.0937 -0.05819,-0.0403 -0.118981,-0.0883 -0.181641,-0.14648 -0.06266,-0.0582 -0.107912,-0.13315 -0.134765,-0.22266 -0.02237,-0.0895 -0.04264,-0.19222 -0.06055,-0.30859 -0.01343,-0.11638 -0.01953,-0.25822 -0.01953,-0.42383 l 0,-7.86719 z m 69.843748,0 -1.11328,0.0801 0,2.20898 0.0527,1.61718 c -0.10742,-0.19694 -0.22095,-0.3632 -0.3418,-0.50194 -0.11637,-0.14324 -0.2596,-0.27564 -0.42969,-0.39649 -0.17009,-0.12532 -0.37411,-0.22053 -0.61133,-0.2832 -0.23722,-0.0627 -0.5048,-0.0937 -0.80468,-0.0937 -0.93994,0 -1.6858,0.33643 -2.23633,1.00781 -0.54607,0.67139 -0.82031,1.55103 -0.82031,2.63868 0,1.14583 0.2648,2.05656 0.79296,2.73242 0.53264,0.67138 1.28931,1.00586 2.26954,1.00586 1.01603,0 1.75383,-0.46216 2.21484,-1.38867 l 0.10156,1.25585 0.92578,0 0,-9.88281 z m -92.691404,0.0801 -3.591797,9.80273 1.208985,0 1.148437,-3.15625 3.751953,0 1.154297,3.15625 1.169922,0 -3.585937,-9.80273 -1.25586,0 z m 26.640625,0 c -0.214846,0 -0.390549,0.0669 -0.529297,0.20117 -0.134277,0.1298 -0.203125,0.2994 -0.203125,0.50977 0,0.21036 0.06885,0.3833 0.203125,0.51758 0.138748,0.13427 0.314451,0.20117 0.529297,0.20117 0.210367,0 0.384684,-0.0669 0.523438,-0.20117 0.138753,-0.13428 0.208984,-0.30722 0.208984,-0.51758 0,-0.21037 -0.07023,-0.37997 -0.208984,-0.50977 -0.134274,-0.13428 -0.308591,-0.20117 -0.523438,-0.20117 z m 21.619139,0 c -0.21484,0 -0.39249,0.0669 -0.53125,0.20117 -0.13428,0.1298 -0.20117,0.2994 -0.20117,0.50977 0,0.21036 0.0669,0.3833 0.20117,0.51758 0.13876,0.13427 0.31641,0.20117 0.53125,0.20117 0.21037,0 0.38469,-0.0669 0.52344,-0.20117 0.13875,-0.13428 0.20898,-0.30722 0.20898,-0.51758 0,-0.21037 -0.0702,-0.37997 -0.20898,-0.50977 -0.13427,-0.13428 -0.30859,-0.20117 -0.52344,-0.20117 z m 21.12891,0 0,6.24999 c 0,1.12793 0.32365,2.02311 0.97265,2.68555 0.64901,0.66243 1.60499,0.99414 2.86719,0.99414 0.63111,0 1.1932,-0.0885 1.68555,-0.26757 0.49235,-0.18351 0.89233,-0.43888 1.20117,-0.76563 0.31331,-0.33121 0.5498,-0.719 0.71094,-1.1621 0.16113,-0.44312 0.24219,-0.93026 0.24219,-1.4629 l 0,-6.27148 -1.18164,0 0,6.23047 c -10e-6,0.90412 -0.22429,1.59057 -0.67188,2.06055 -0.44759,0.46549 -1.10905,0.69921 -1.98633,0.69921 -1.77246,0 -2.6582,-0.92016 -2.6582,-2.75976 l 0,-6.23047 -1.18164,0 z m -25.29883,0.75195 -0.892578,0.0664 -0.181641,1.88086 -1.09375,0.0742 -0.02734,0.63085 1.09375,0 0,4.26953 c 0,0.43416 0.03915,0.78613 0.115234,1.05469 0.07609,0.26855 0.213216,0.4895 0.410156,0.66406 0.201413,0.17456 0.459551,0.29614 0.777344,0.36328 0.317787,0.0671 0.735267,0.0996 1.25,0.0996 l 0.46289,0 0.05273,-0.76563 -0.5625,-0.0254 c -0.595293,-0.0224 -0.978351,-0.11759 -1.148438,-0.2832 -0.170086,-0.17009 -0.255859,-0.53898 -0.255859,-1.10742 l 0,-4.26953 1.880859,0 0,-0.70507 -1.880859,0 0,-1.94727 z m 58.97461,0 -0.89258,0.0664 -0.18164,1.88086 -1.09375,0.0742 -0.0273,0.63085 1.09375,0 0,4.26953 c 0,0.43416 0.0391,0.78613 0.11523,1.05469 0.0761,0.26855 0.21322,0.4895 0.41016,0.66406 0.20141,0.17456 0.45955,0.29614 0.77734,0.36328 0.31779,0.0671 0.73527,0.0996 1.25,0.0996 l 0.46289,0 0.0527,-0.76563 -0.5625,-0.0254 c -0.5953,-0.0224 -0.97836,-0.11759 -1.14844,-0.2832 -0.17009,-0.17009 -0.25586,-0.53898 -0.25586,-1.10742 l 0,-4.26953 1.88086,0 0,-0.70507 -1.88086,0 0,-1.94727 z m -102.425782,0.40235 1.611328,4.67381 -3.208984,0 1.597656,-4.67381 z m 8.800781,1.39648 c -1.024984,0 -1.798584,0.46411 -2.322265,1.39062 l -0.115235,-1.24218 -0.925781,0 0,10.21874 1.115234,0 0,-2.67188 -0.04687,-1.64648 c 0.528157,0.89071 1.286213,1.33789 2.27539,1.33789 0.930989,0 1.656575,-0.33643 2.175781,-1.00781 0.519206,-0.67139 0.777344,-1.55713 0.777344,-2.65821 0,-1.14583 -0.250651,-2.05379 -0.751953,-2.7207 -0.496827,-0.6669 -1.223796,-0.99999 -2.181641,-0.99999 z m 7.761719,0 c -1.024983,0 -1.798584,0.46411 -2.322266,1.39062 l -0.115234,-1.24218 -0.925781,0 0,10.21874 1.113281,0 0,-2.67188 -0.04687,-1.64648 c 0.528157,0.89071 1.288167,1.33789 2.277344,1.33789 0.930989,0 1.654622,-0.33643 2.173828,-1.00781 0.519205,-0.67139 0.779297,-1.55713 0.779297,-2.65821 0,-1.14583 -0.250651,-2.05379 -0.751953,-2.7207 -0.496826,-0.6669 -1.223796,-0.99999 -2.181641,-0.99999 z m 15.011719,0 c -0.989173,0 -1.792476,0.33309 -2.410156,0.99999 -0.617674,0.66243 -0.925782,1.57512 -0.925782,2.73438 0,1.11002 0.298665,1.99577 0.898438,2.6582 0.604247,0.66243 1.415607,0.99414 2.431641,0.99414 0.434159,0 0.823322,-0.0533 1.167968,-0.15625 0.344647,-0.10294 0.593914,-0.21313 0.746094,-0.33398 l -0.208984,-0.75979 c -0.452067,0.25961 -0.951987,0.39062 -1.498047,0.39062 -0.783287,0 -1.37785,-0.2587 -1.785157,-0.77343 -0.407306,-0.51473 -0.611328,-1.18701 -0.611328,-2.01953 0,-0.87728 0.213466,-1.5765 0.638672,-2.09571 0.425214,-0.5192 0.988686,-0.77929 1.691406,-0.77929 0.555014,0 1.050215,0.13101 1.484376,0.39062 l 0.314453,-0.76561 c -0.15218,-0.10295 -0.398115,-0.20899 -0.738282,-0.31641 -0.335693,-0.1119 -0.734292,-0.16797 -1.195312,-0.16797 z m 5.875,0 c -0.948893,0 -1.803553,0.17766 -2.564453,0.53124 l 0.302734,0.81836 c 0.32674,-0.15666 0.697021,-0.27629 1.113281,-0.36133 0.41626,-0.0895 0.805416,-0.13476 1.167969,-0.13476 0.537107,0 0.929608,0.12768 1.175781,0.38281 0.250654,0.25513 0.375,0.64095 0.375,1.16016 l 0,0.69921 -1.132812,0 c -1.14136,0 -1.974367,0.18042 -2.498047,0.54297 -0.519207,0.35807 -0.779297,0.9235 -0.779297,1.69336 0,0.64454 0.197917,1.14722 0.591797,1.50977 0.398353,0.36254 0.922685,0.54492 1.576172,0.54492 0.975747,0 1.768226,-0.37557 2.376953,-1.12305 l 0.121094,0.98047 0.845703,0 0,-4.68554 c 0,-0.90414 -0.231772,-1.55478 -0.697266,-1.95313 -0.46102,-0.40282 -1.119709,-0.60546 -1.974609,-0.60546 z m 15.750003,0 c -1.04289,0 -1.86173,0.34115 -2.45703,1.02148 -0.59082,0.67586 -0.88477,1.57104 -0.88477,2.68554 0,1.08765 0.29866,1.97339 0.89844,2.65821 0.59977,0.68033 1.4139,1.02148 2.44336,1.02148 1.00708,0 1.81844,-0.34253 2.43164,-1.02734 0.6132,-0.68929 0.91992,-1.57365 0.91992,-2.65235 0,-1.1145 -0.2959,-2.00968 -0.88672,-2.68554 -0.59082,-0.68033 -1.413,-1.02148 -2.46484,-1.02148 z m 8.29297,0 c -1.06974,0 -1.87305,0.37695 -2.41016,1.1289 l -0.12109,-0.98046 -0.9668,0 0,7.1035 1.11328,0 0,-3.96093 c 0,-1.62476 0.73031,-2.4375 2.18945,-2.4375 0.54159,0 0.91993,0.16349 1.13477,0.49023 0.21485,0.32227 0.32226,0.80331 0.32226,1.44336 l 0,4.46484 1.11524,0 0,-4.34375 c 0,-0.97574 -0.19458,-1.70272 -0.58399,-2.18164 -0.38492,-0.48339 -0.98282,-0.72655 -1.79296,-0.72655 z m 20.08789,0 c -1.02498,0 -1.80054,0.46411 -2.32422,1.39062 l -0.11328,-1.24218 -0.92579,0 0,10.21874 1.11329,0 0,-2.67188 -0.0469,-1.64648 c 0.52816,0.89071 1.28622,1.33789 2.27539,1.33789 0.931,0 1.65658,-0.33643 2.17578,-1.00781 0.51921,-0.67139 0.7793,-1.55713 0.7793,-2.65821 0,-1.14583 -0.25065,-2.05379 -0.75195,-2.7207 -0.49683,-0.6669 -1.2238,-0.99999 -2.18164,-0.99999 z m 14.84375,0 c -0.9489,0 -1.80356,0.17766 -2.56446,0.53124 l 0.30274,0.81836 c 0.32674,-0.15666 0.69702,-0.27629 1.11328,-0.36133 0.41626,-0.0895 0.80542,-0.13476 1.16797,-0.13476 0.53711,0 0.92961,0.12768 1.17578,0.38281 0.25065,0.25513 0.375,0.64095 0.375,1.16016 l 0,0.69921 -1.13281,0 c -1.14136,0 -1.97437,0.18042 -2.49805,0.54297 -0.51921,0.35807 -0.7793,0.9235 -0.7793,1.69336 0,0.64454 0.19792,1.14722 0.5918,1.50977 0.39835,0.36254 0.92268,0.54492 1.57617,0.54492 0.97575,0 1.76823,-0.37557 2.37695,-1.12305 l 0.1211,0.98047 0.8457,0 0,-4.68554 c 0,-0.90414 -0.23177,-1.55478 -0.69726,-1.95313 -0.46102,-0.40282 -1.11971,-0.60546 -1.97461,-0.60546 z m 12.23242,0 c -0.93994,0 -1.71354,0.33781 -2.32227,1.01366 -0.60872,0.67587 -0.91406,1.58383 -0.91406,2.72071 0,1.12345 0.31145,2.01391 0.93359,2.67187 0.62216,0.65348 1.43352,0.98047 2.43164,0.98047 0.89519,0 1.69378,-0.20874 2.39649,-0.625 l -0.23633,-0.78516 c -0.37598,0.18799 -0.71517,0.32789 -1.01953,0.42188 -0.30436,0.094 -0.64217,0.14062 -1.01367,0.14062 -0.68482,0 -1.24081,-0.21622 -1.66602,-0.65039 -0.42522,-0.43864 -0.6556,-1.10954 -0.6914,-2.01367 l 4.80078,0 0.041,-0.56445 c 0,-1.03842 -0.2351,-1.84782 -0.70508,-2.42969 -0.46549,-0.58634 -1.14445,-0.88085 -2.03515,-0.88085 z m 6.43164,0 c -0.743,0 -1.31869,0.17904 -1.73047,0.5371 -0.41179,0.35359 -0.61914,0.81909 -0.61914,1.39649 0,0.4655 0.11824,0.84717 0.35547,1.14257 0.23722,0.29094 0.67635,0.53825 1.3164,0.74414 l 0.7793,0.24805 c 0.51473,0.16561 0.87142,0.34326 1.06836,0.53125 0.19694,0.18799 0.29492,0.41976 0.29492,0.69727 0,0.40283 -0.11824,0.71289 -0.35547,0.92773 -0.23722,0.21037 -0.57226,0.31445 -1.00195,0.31445 -0.68482,0 -1.45231,-0.20206 -2.30273,-0.60937 l 0,0.93164 c 0.73404,0.34912 1.47517,0.52539 2.22265,0.52539 0.3357,0 0.6438,-0.0405 0.92578,-0.12109 0.28646,-0.0806 0.54184,-0.20215 0.76563,-0.36329 0.22827,-0.16112 0.40731,-0.37597 0.53711,-0.64453 0.1298,-0.27302 0.19531,-0.58585 0.19531,-0.93945 0,-0.28646 -0.0263,-0.52767 -0.0801,-0.72461 -0.0537,-0.20141 -0.15169,-0.38989 -0.29492,-0.56444 -0.14323,-0.17456 -0.34252,-0.32724 -0.59766,-0.45704 -0.25064,-0.13428 -0.57625,-0.26335 -0.97461,-0.38867 l -0.70507,-0.22266 c -0.46102,-0.1477 -0.76303,-0.28622 -0.90625,-0.41602 -0.14324,-0.1298 -0.21485,-0.33992 -0.21485,-0.63086 0,-0.34464 0.11076,-0.60612 0.33008,-0.78515 0.2238,-0.18352 0.5927,-0.27539 1.10742,-0.27539 0.5774,0 1.1753,0.15543 1.79297,0.46875 l 0.26172,-0.82421 c -0.67139,-0.33122 -1.39559,-0.49805 -2.16992,-0.49805 z m -89.642579,0.14844 0,7.1035 1.101562,0 0,-7.1035 -1.101562,0 z m 21.619139,0 0,7.1035 1.09961,0 0,-7.1035 -1.09961,0 z m -38.390624,0.70507 c 1.280111,0 1.919922,0.95125 1.919922,2.85351 0,1.88436 -0.661459,2.82617 -1.986328,2.82617 -0.671387,0 -1.191569,-0.25675 -1.558594,-0.77148 -0.362548,-0.51473 -0.542968,-1.23894 -0.542968,-2.16992 0.0045,-0.85938 0.183512,-1.53027 0.537109,-2.01367 0.353597,-0.4834 0.89681,-0.72461 1.630859,-0.72461 z m 7.761719,0 c 1.280111,0 1.919922,0.95125 1.919922,2.85351 0,1.88436 -0.663411,2.82617 -1.988281,2.82617 -0.671387,0 -1.189616,-0.25675 -1.556641,-0.77148 -0.362549,-0.51473 -0.544922,-1.23894 -0.544922,-2.16992 0.0045,-0.85938 0.183512,-1.53027 0.537109,-2.01367 0.353597,-0.4834 0.898763,-0.72461 1.632813,-0.72461 z m 36.763675,0 c 0.72957,0 1.28084,0.26147 1.65234,0.78515 0.3715,0.51921 0.55664,1.21371 0.55664,2.08203 0,0.55502 -0.0744,1.04078 -0.22656,1.45704 -0.15218,0.41178 -0.40006,0.74154 -0.74024,0.99218 -0.33569,0.24618 -0.74984,0.36915 -1.24218,0.36915 -0.71615,0 -1.26074,-0.25813 -1.63672,-0.77734 -0.37598,-0.51921 -0.56445,-1.20288 -0.56445,-2.04883 -1e-5,-0.86385 0.18847,-1.55501 0.56445,-2.07422 0.37598,-0.52368 0.92057,-0.78515 1.63672,-0.78515 z m 28.25195,0 c 1.28011,0 1.92188,0.95125 1.92188,2.85351 -10e-6,1.88436 -0.66341,2.82617 -1.98829,2.82617 -0.67138,0 -1.18961,-0.25675 -1.55664,-0.77148 -0.36254,-0.51473 -0.54492,-1.23894 -0.54492,-2.16992 0.004,-0.85938 0.18351,-1.53027 0.53711,-2.01367 0.3536,-0.4834 0.89681,-0.72461 1.63086,-0.72461 z m 7.51367,0 c 0.66244,0 1.16236,0.24592 1.49805,0.73828 0.34017,0.49234 0.50976,1.21932 0.50976,2.18164 -0.004,0.88175 -0.16796,1.56209 -0.49023,2.04101 -0.32227,0.47892 -0.84855,0.71875 -1.57813,0.71875 -0.69376,0 -1.20589,-0.25537 -1.5371,-0.76562 -0.32675,-0.51025 -0.49024,-1.21086 -0.49024,-2.10156 0,-0.89518 0.17431,-1.58635 0.52344,-2.07422 0.34912,-0.49236 0.87069,-0.73828 1.56445,-0.73828 z m 19.71875,0 c 1.12792,0 1.71775,0.76416 1.77149,2.29492 l -3.86719,0 c 0.0627,-0.70719 0.28222,-1.26596 0.6582,-1.67774 0.38046,-0.41178 0.86012,-0.61718 1.4375,-0.61718 z m -70.515623,2.98047 0.851562,0 0,1.56445 c -0.532633,0.78329 -1.256268,1.17578 -2.173828,1.17578 -0.335693,0 -0.616044,-0.10742 -0.839843,-0.32227 -0.223794,-0.21484 -0.335938,-0.52018 -0.335938,-0.91406 0,-0.21932 0.02028,-0.40308 0.06055,-0.55078 0.04029,-0.15218 0.115236,-0.29069 0.222656,-0.41601 0.10742,-0.12981 0.253413,-0.23113 0.441406,-0.30274 0.187987,-0.0761 0.427817,-0.13356 0.71875,-0.17383 0.290934,-0.0403 0.642901,-0.0605 1.054688,-0.0605 z m 58.974613,0 0.85156,0 0,1.56445 c -0.53263,0.78329 -1.25627,1.17578 -2.17383,1.17578 -0.33569,0 -0.61604,-0.10742 -0.83984,-0.32227 -0.2238,-0.21484 -0.33594,-0.52018 -0.33594,-0.91406 0,-0.21932 0.0203,-0.40308 0.0605,-0.55078 0.0403,-0.15218 0.11523,-0.29069 0.22265,-0.41601 0.10742,-0.12981 0.25342,-0.23113 0.44141,-0.30274 0.18799,-0.0761 0.42782,-0.13356 0.71875,-0.17383 0.29093,-0.0403 0.6429,-0.0605 1.05469,-0.0605 z"
     id="path5316" />
  <rect
     ry="2.8"
     rx="2.8"
     y="85.954033"
     x="47.281891"
     height="28"
     width="28"
     id="rect10238"
     style="color:#31363b;fill:currentColor;fill-opacity:0.00392157;stroke:none"
     class="ColorScheme-Background" />
  <rect
     rx="3.4480841"
     y="87.111931"
     x="49.439774"
     height="20.842037"
     width="20.842037"
     id="rect10240"
     style="opacity:0.2;fill:#232629;fill-opacity:1;stroke:none" />
  <rect
     class="ColorScheme-Background"
     style="color:#31363b;fill:currentColor;fill-opacity:1;stroke:#3daee9;stroke-width:1.15789104;stroke-miterlimit:4;stroke-dasharray:none;stroke-opacity:1"
     id="rect10242"
     width="19.684334"
     height="19.684334"
     x="48.860901"
     y="86.53289"
     rx="1.9684334"
     ry="1.9684334" />
  <rect
     class="ColorScheme-Highlight"
     y="89.427818"
     x="51.755486"
     height="13.894692"
     width="13.894692"
     id="rect10244"
     style="color:#3daee9;fill:currentColor;fill-opacity:1;stroke:none" />
  <rect
     style="color:#31363b;fill:currentColor;fill-opacity:0.00392157;stroke:none"
     id="rect6327-9"
     width="28"
     height="28"
     x="32.889107"
     y="119.95403"
     rx="2.8"
     ry="2.8"
     class="ColorScheme-Background" />
  <rect
     style="opacity:0.2;fill:#232629;fill-opacity:1;stroke:none"
     id="rect6329-6"
     width="20.842173"
     height="20.842173"
     x="23.157753"
     y="120.11193"
     rx="3.4481065" />
  <rect
     class="ColorScheme-Background"
     ry="1.9684461"
     rx="1.9684461"
     y="119.53292"
     x="22.578873"
     height="19.684462"
     width="19.684462"
     id="rect6331-2"
     style="color:#31363b;fill:currentColor;fill-opacity:1;stroke:#3daee9;stroke-width:1.15789855;stroke-miterlimit:4;stroke-dasharray:none;stroke-opacity:1" />
  <rect
     class="ColorScheme-Highlight"
     style="color:#3daee9;fill:currentColor;fill-opacity:1;stroke:none"
     id="rect6333-5"
     width="13.894782"
     height="13.894782"
     x="25.47348"
     y="122.42782" />
  <path
     class="ColorScheme-Background"
     sodipodi:nodetypes="cccc"
     inkscape:connector-curvature="0"
     id="rect6335-1"
     d="m 27.789439,124.74362 9.263118,0 -9.263118,9.26311 z"
     style="color:#31363b;fill:currentColor;fill-opacity:1;stroke:none" />
  <g
     id="g21577"
     transform="matrix(1.375,0,0,1.375,-75.226206,-407.90938)">
    <rect
       ry="7.9999938"
       y="359.17334"
       x="109.46057"
       height="15.999988"
       width="15.999995"
       id="rect4166-6"
       style="fill:url(#linearGradient17051);fill-opacity:1;stroke:none" />
    <path
       id="path4696-8"
       d="m 119.06055,366.37334 0,4.4 -3.2,0 4.02578,4.02578 c 2.27409,-0.71834 4.09932,-2.42123 4.98672,-4.61328 l -3.8125,-3.8125 -2,0 z"
       style="opacity:0.2;fill:url(#linearGradient17053);fill-opacity:1;fill-rule:evenodd;stroke:none"
       inkscape:connector-curvature="0" />
    <path
       sodipodi:nodetypes="cccccccc"
       inkscape:connector-curvature="0"
       id="rect4318-9"
       d="m 117.46055,362.77334 -3.6,3.6 2,0 0,4.4 3.2,0 0,-4.4 2,0 z"
       style="fill:url(#linearGradient17055);fill-opacity:1;stroke:none" />
    <path
       id="path4619-7"
       d="m 117.46055,374.37334 c 3.9888,0 7.2,-3.2112 7.2,-7.2 0,-3.9888 -3.2112,-7.2 -7.2,-7.2 l 0,0.8 c 3.5456,0 6.4,2.8544 6.4,6.4 0,3.5456 -2.8544,6.4 -6.4,6.4 l 0,0.8 z"
       style="opacity:0.5;fill:#808080;fill-opacity:1;stroke:none"
       inkscape:connector-curvature="0" />
    <path
       inkscape:connector-curvature="0"
       id="rect4681-1"
       d="m 117.46055,359.97334 c -3.98879,0 -7.2,3.21121 -7.2,7.2 0,3.9888 3.21121,7.2 7.2,7.2 3.9888,0 7.2,-3.2112 7.2,-7.2 0,-3.98879 -3.2112,-7.2 -7.2,-7.2 z m 0,0.8 c 3.5456,0 6.4,2.85441 6.4,6.4 0,3.5456 -2.8544,6.4 -6.4,6.4 -3.54559,0 -6.4,-2.8544 -6.4,-6.4 0,-3.54559 2.85441,-6.4 6.4,-6.4 z"
       style="fill:url(#linearGradient17057);fill-opacity:1;stroke:none" />
    <path
       id="rect4600-8"
       d="m 117.46055,374.37334 0,-0.8 c -3.5456,0 -6.4,-2.8544 -6.4,-6.4 0,-3.5456 2.8544,-6.4 6.4,-6.4 l 0,-0.8 c -3.9888,0 -7.2,3.2112 -7.2,7.2 0,3.9888 3.2112,7.2 7.2,7.2 z"
       style="fill:url(#linearGradient17059);fill-opacity:1;stroke:none"
       inkscape:connector-curvature="0" />
    <path
       id="rect4775-4"
       d="m 109.46524,366.97334 c -0.002,0.0667 -0.005,0.13285 -0.005,0.2 0,4.432 3.568,8 8,8 4.432,0 8,-3.568 8,-8 0,-0.0671 -0.003,-0.13326 -0.005,-0.2 -0.10567,4.33863 -3.63034,7.8 -7.99531,7.8 -4.36497,0 -7.88964,-3.46137 -7.99531,-7.8 z"
       style="fill:#99a1a7;fill-opacity:1;stroke:none"
       inkscape:connector-curvature="0" />
  </g>
  <g
     id="g22005"
     transform="matrix(1.375,0,0,1.375,-74.676392,-639.40938)">
    <rect
       ry="0"
       y="571.17334"
       x="109.86053"
       height="15.99999"
       width="14.399999"
       id="rect4139-86-6-9-5"
       style="fill:url(#linearGradient10119);fill-opacity:1;stroke:none" />
    <rect
       y="571.57336"
       x="110.26056"
       height="15.2"
       width="13.600001"
       id="rect4250-1-7-3"
       style="opacity:0.5;fill:url(#linearGradient10121);fill-opacity:1;stroke:none" />
    <rect
       y="586.77332"
       x="109.86053"
       height="0.39998949"
       width="14.399999"
       id="rect4171-6-9-1-0"
       style="fill:#aa7f41;fill-opacity:1;stroke:none" />
    <rect
       y="571.97333"
       x="110.66052"
       height="14.399991"
       width="12.800001"
       id="rect4242-7-3-6"
       style="fill:url(#linearGradient10115);fill-opacity:1;stroke:none" />
    <rect
       y="582.37329"
       x="118.66058"
       height="0.40000004"
       width="1.2000002"
       id="rect4236-8-6-3"
       style="fill:#bdb49e;fill-opacity:1;stroke:none" />
    <rect
       y="585.57336"
       x="110.66052"
       height="0.79998952"
       width="12.800014"
       id="rect4244-0-4-9"
       style="fill:#2d2110;fill-opacity:0.31372549;stroke:none" />
    <path
       inkscape:connector-curvature="0"
       id="path4252-9-3-3"
       d="m 123.46055,581.57334 -4,4 0,-4 z"
       style="fill:#ebebeb;fill-opacity:1;fill-rule:evenodd;stroke:none" />
    <path
       inkscape:connector-curvature="0"
       id="path4281-9-4-1"
       d="m 119.46055,585.57334 1.6,1.6 3.2,0 0,-4.4 0,-0.4 -0.8,-0.8 z"
       style="opacity:0.2;fill:url(#linearGradient10117);fill-opacity:1;fill-rule:evenodd;stroke:none" />
    <rect
       style="fill:#2d2110;fill-opacity:0.31372549;stroke:none"
       id="rect4301-5-4-1"
       width="12.800014"
       height="0.39998952"
       x="110.66052"
       y="585.97333" />
    <path
       inkscape:connector-curvature="0"
       id="path6163-2-1-6"
       d="m 119.86055,581.97334 0,3.2 3.2,-3.2 z"
       style="fill:url(#linearGradient10123);fill-opacity:1;fill-rule:evenodd;stroke:none" />
    <rect
       y="575.17334"
       x="111.46057"
       height="0.40000004"
       width="0.80000007"
       id="rect4152-1-8-7"
       style="fill:#bdb49e;fill-opacity:1;stroke:none" />
    <rect
       y="575.17334"
       x="112.66052"
       height="0.40000004"
       width="1.2000002"
       id="rect4154-7-2-5"
       style="fill:#bdb49e;fill-opacity:1;stroke:none" />
    <rect
       y="575.17334"
       x="114.26056"
       height="0.40000004"
       width="2.0000002"
       id="rect4156-0-6-8"
       style="fill:#bdb49e;fill-opacity:1;stroke:none" />
    <rect
       y="575.17334"
       x="117.06055"
       height="0.40000004"
       width="2.4000003"
       id="rect4158-5-2-6"
       style="fill:#bdb49e;fill-opacity:1;stroke:none" />
    <rect
       y="575.17334"
       x="119.86053"
       height="0.40000004"
       width="1.2000002"
       id="rect4160-7-3-9"
       style="fill:#bdb49e;fill-opacity:1;stroke:none" />
    <rect
       y="575.17334"
       x="121.46057"
       height="0.40000004"
       width="0.80000007"
       id="rect4162-76-0-3"
       style="fill:#bdb49e;fill-opacity:1;stroke:none" />
    <rect
       y="575.97333"
       x="111.46057"
       height="0.40000004"
       width="1.6000001"
       id="rect4164-8-7-6-1"
       style="fill:#bdb49e;fill-opacity:1;stroke:none" />
    <rect
       y="575.97333"
       x="113.46057"
       height="0.40000004"
       width="0.80000007"
       id="rect4166-3-0-6"
       style="fill:#bdb49e;fill-opacity:1;stroke:none" />
    <rect
       y="575.97333"
       x="114.66052"
       height="0.40000004"
       width="3.6000004"
       id="rect4168-2-6-6"
       style="fill:#bdb49e;fill-opacity:1;stroke:none" />
    <rect
       y="575.97333"
       x="118.66058"
       height="0.40000004"
       width="2.4000003"
       id="rect4170-3-2-6"
       style="fill:#bdb49e;fill-opacity:1;stroke:none" />
    <rect
       y="575.97333"
       x="121.46057"
       height="0.40001059"
       width="1.1999954"
       id="rect4172-9-6-1"
       style="fill:#bdb49e;fill-opacity:1;stroke:none" />
    <rect
       y="577.57336"
       x="111.46057"
       height="0.40000004"
       width="0.80000007"
       id="rect4174-2-6-2"
       style="fill:#bdb49e;fill-opacity:1;stroke:none" />
    <rect
       y="577.57336"
       x="112.66052"
       height="0.40000004"
       width="1.2000002"
       id="rect4176-39-1-4-0"
       style="fill:#bdb49e;fill-opacity:1;stroke:none" />
    <rect
       y="577.57336"
       x="114.26056"
       height="0.40000004"
       width="2.4000003"
       id="rect4178-8-7-2"
       style="fill:#bdb49e;fill-opacity:1;stroke:none" />
    <rect
       y="577.57336"
       x="117.46057"
       height="0.40000004"
       width="1.6000001"
       id="rect4180-9-8-4"
       style="fill:#bdb49e;fill-opacity:1;stroke:none" />
    <rect
       y="577.57336"
       x="119.46057"
       height="0.40000004"
       width="0.80000007"
       id="rect4182-0-1-4"
       style="fill:#bdb49e;fill-opacity:1;stroke:none" />
    <rect
       y="577.57336"
       x="120.66058"
       height="0.40000004"
       width="2.0000002"
       id="rect4184-7-0-3"
       style="fill:#bdb49e;fill-opacity:1;stroke:none" />
    <rect
       y="578.37329"
       x="111.46057"
       height="0.40000004"
       width="0.80000007"
       id="rect4186-3-6-6"
       style="fill:#bdb49e;fill-opacity:1;stroke:none" />
    <rect
       y="578.37329"
       x="112.66052"
       height="0.40000004"
       width="2.0000002"
       id="rect4188-2-6-9"
       style="fill:#bdb49e;fill-opacity:1;stroke:none" />
    <rect
       y="578.37329"
       x="115.06055"
       height="0.40000004"
       width="1.2000002"
       id="rect4190-00-6-1"
       style="fill:#bdb49e;fill-opacity:1;stroke:none" />
    <rect
       y="578.37329"
       x="116.66052"
       height="0.40000004"
       width="0.40000004"
       id="rect4192-3-2-9"
       style="fill:#bdb49e;fill-opacity:1;stroke:none" />
    <rect
       y="578.37329"
       x="117.46057"
       height="0.40000004"
       width="2.0000002"
       id="rect4194-9-5-4"
       style="fill:#bdb49e;fill-opacity:1;stroke:none" />
    <rect
       y="578.37329"
       x="119.86053"
       height="0.40000004"
       width="1.2000002"
       id="rect4196-94-3-4"
       style="fill:#bdb49e;fill-opacity:1;stroke:none" />
    <rect
       y="578.37329"
       x="121.46057"
       height="0.40000004"
       width="1.2000002"
       id="rect4198-1-4-9"
       style="fill:#bdb49e;fill-opacity:1;stroke:none" />
    <rect
       y="579.97333"
       x="111.46057"
       height="0.40000004"
       width="2.4000003"
       id="rect4200-0-8-0-3"
       style="fill:#bdb49e;fill-opacity:1;stroke:none" />
    <rect
       y="579.97333"
       x="114.26056"
       height="0.40000004"
       width="1.2000002"
       id="rect4202-3-9-0"
       style="fill:#bdb49e;fill-opacity:1;stroke:none" />
    <rect
       y="579.97333"
       x="115.86053"
       height="0.40000004"
       width="1.2000002"
       id="rect4204-6-0-0"
       style="fill:#bdb49e;fill-opacity:1;stroke:none" />
    <rect
       y="579.97333"
       x="117.46057"
       height="0.40000004"
       width="1.2000002"
       id="rect4206-6-2-3-6"
       style="fill:#bdb49e;fill-opacity:1;stroke:none" />
    <rect
       y="579.97333"
       x="119.06055"
       height="0.40000004"
       width="2.0000002"
       id="rect4208-7-6-1"
       style="fill:#bdb49e;fill-opacity:1;stroke:none" />
    <rect
       y="579.97333"
       x="121.46057"
       height="0.40000004"
       width="0.40000004"
       id="rect4210-62-6-1"
       style="fill:#bdb49e;fill-opacity:1;stroke:none" />
    <rect
       y="580.77332"
       x="111.46057"
       height="0.40000004"
       width="2.0000002"
       id="rect4214-0-2-4-3"
       style="fill:#bdb49e;fill-opacity:1;stroke:none" />
    <rect
       y="580.77332"
       x="113.86053"
       height="0.40000004"
       width="2.0000002"
       id="rect4216-0-3-4-0"
       style="fill:#bdb49e;fill-opacity:1;stroke:none" />
    <rect
       y="580.77332"
       x="116.26056"
       height="0.40000004"
       width="2.0000002"
       id="rect4218-4-1-8-8"
       style="fill:#bdb49e;fill-opacity:1;stroke:none" />
    <rect
       y="580.77332"
       x="118.66058"
       height="0.40000004"
       width="1.2000002"
       id="rect4220-80-3-1"
       style="fill:#bdb49e;fill-opacity:1;stroke:none" />
    <rect
       y="580.77332"
       x="120.26056"
       height="0.40000004"
       width="1.2000002"
       id="rect4222-5-8-7"
       style="fill:#bdb49e;fill-opacity:1;stroke:none" />
    <rect
       y="580.77332"
       x="121.86053"
       height="0.40001059"
       width="0.39999539"
       id="rect4224-2-2-8"
       style="fill:#bdb49e;fill-opacity:1;stroke:none" />
    <rect
       y="581.57336"
       x="111.46057"
       height="0.40000004"
       width="0.80000007"
       id="rect4226-5-3-6"
       style="fill:#bdb49e;fill-opacity:1;stroke:none" />
    <rect
       y="582.37329"
       x="111.46057"
       height="0.40000004"
       width="1.6000001"
       id="rect4228-4-5-8"
       style="fill:#bdb49e;fill-opacity:1;stroke:none" />
    <rect
       y="582.37329"
       x="113.46057"
       height="0.40000004"
       width="1.6000001"
       id="rect4230-6-4-6"
       style="fill:#bdb49e;fill-opacity:1;stroke:none" />
    <rect
       y="582.37329"
       x="115.46057"
       height="0.40000004"
       width="1.6000001"
       id="rect4232-8-1-3"
       style="fill:#bdb49e;fill-opacity:1;stroke:none" />
    <rect
       y="582.37329"
       x="117.46057"
       height="0.40000004"
       width="0.80000007"
       id="rect4234-4-9-6"
       style="fill:#bdb49e;fill-opacity:1;stroke:none" />
    <rect
       y="583.17334"
       x="111.46057"
       height="0.40000004"
       width="1.2000002"
       id="rect4243-68-1-7"
       style="fill:#bdb49e;fill-opacity:1;stroke:none" />
    <rect
       y="583.17334"
       x="113.06055"
       height="0.40000004"
       width="0.40000004"
       id="rect4245-21-8-5"
       style="fill:#bdb49e;fill-opacity:1;stroke:none" />
    <rect
       y="583.17334"
       x="113.86053"
       height="0.40000004"
       width="1.6000001"
       id="rect4247-32-6-6"
       style="fill:#bdb49e;fill-opacity:1;stroke:none" />
    <rect
       y="583.17334"
       x="115.86053"
       height="0.40000004"
       width="1.2000002"
       id="rect4249-1-0-2"
       style="fill:#bdb49e;fill-opacity:1;stroke:none" />
    <rect
       y="583.17334"
       x="117.46057"
       height="0.40000004"
       width="2.0000002"
       id="rect4251-8-8-1"
       style="fill:#bdb49e;fill-opacity:1;stroke:none" />
  </g>
  <rect
     rx="3.4480841"
     y="60.111996"
     x="23.157822"
     height="20.842037"
     width="20.842037"
     id="rect10240-3"
     style="opacity:0.2;fill:#232629;fill-opacity:1;stroke:none" />
  <rect
     class="ColorScheme-Background"
     style="color:#31363b;fill:currentColor;fill-opacity:1;stroke:#3daee9;stroke-width:1.15789104;stroke-miterlimit:4;stroke-dasharray:none;stroke-opacity:1"
     id="rect10242-9"
     width="19.684334"
     height="19.684334"
     x="22.578945"
     y="59.532986"
     rx="1.9684334"
     ry="1.9684334" />
  <rect
     class="ColorScheme-Highlight"
     y="62.427883"
     x="25.47353"
     height="13.894692"
     width="13.894692"
     id="rect10244-5"
     style="color:#3daee9;fill:currentColor;fill-opacity:1;stroke:none" />
  <rect
     ry="2.8"
     rx="2.8"
     y="115.95403"
     x="47.281891"
     height="28"
     width="28"
     id="rect10238-9"
     style="color:#31363b;fill:currentColor;fill-opacity:0.00392157;stroke:none"
     class="ColorScheme-Background" />
  <rect
     ry="2.8"
     rx="2.8"
     y="145.95404"
     x="47.281891"
     height="28"
     width="28"
     id="rect10238-97"
     style="color:#31363b;fill:currentColor;fill-opacity:0.00392157;stroke:none"
     class="ColorScheme-Background" />
  <rect
     rx="3.4480841"
     y="147.11194"
     x="49.439774"
     height="20.842037"
     width="20.842037"
     id="rect10240-5"
     style="opacity:0.2;fill:#232629;fill-opacity:1;stroke:none" />
  <rect
     class="ColorScheme-Background"
     style="color:#31363b;fill:currentColor;fill-opacity:1;stroke:#3daee9;stroke-width:1.15789104;stroke-miterlimit:4;stroke-dasharray:none;stroke-opacity:1"
     id="rect10242-8"
     width="19.684334"
     height="19.684334"
     x="48.860901"
     y="146.53293"
     rx="1.9684334"
     ry="1.9684334" />
  <rect
     class="ColorScheme-Highlight"
     y="149.42783"
     x="51.755486"
     height="13.894692"
     width="13.894692"
     id="rect10244-0"
     style="color:#3daee9;fill:currentColor;fill-opacity:1;stroke:none" />
  <rect
     rx="3.4480841"
     y="177.11194"
     x="49.439774"
     height="20.842037"
     width="20.842037"
     id="rect10240-1-7"
     style="opacity:0.2;fill:#232629;fill-opacity:1;stroke:none" />
  <rect
     class="ColorScheme-Background"
     style="color:#31363b;fill:currentColor;fill-opacity:1;stroke:#3daee9;stroke-width:1.15789104;stroke-miterlimit:4;stroke-dasharray:none;stroke-opacity:1"
     id="rect10242-3-9"
     width="19.684334"
     height="19.684334"
     x="48.860901"
     y="176.53293"
     rx="1.9684334"
     ry="1.9684334" />
  <rect
     class="ColorScheme-Highlight"
     y="179.42783"
     x="51.755486"
     height="13.894692"
     width="13.894692"
     id="rect10244-7-1"
     style="color:#3daee9;fill:currentColor;fill-opacity:1;stroke:none" />
  <g
     transform="matrix(0.55,0,0,0.55,-138.43244,-101.13493)"
     id="layer1-51"
     inkscape:label="Capa 1">
    <rect
       ry="0"
       y="503.798"
       x="390.57144"
       height="39.999969"
       width="35.999992"
       id="rect4139"
       style="opacity:1;fill:url(#linearGradient4158-9);fill-opacity:1;stroke:none" />
    <path
       id="path4542"
       transform="translate(384.57143,499.798)"
       d="m 42,6.7070312 c -1.096939,0.453249 -2.194079,1.0487232 -3.291016,1.828125 -1.844633,1.31066 -3.59172,2.9609048 -5.242187,4.9511718 -1.60192,1.94172 -3.058481,4.15126 -4.369141,6.626953 -1.26212,2.427154 -2.208783,4.950939 -2.839844,7.572266 -0.679599,2.62132 -0.970133,5.024544 -0.873046,7.208984 0.145626,2.135894 0.606125,3.932379 1.382812,5.388672 0.776693,1.456287 1.843925,2.499799 3.203125,3.130859 1.359207,0.63106 2.962001,0.751622 4.806641,0.363282 1.796086,-0.388347 3.616297,-1.236215 5.460937,-2.546875 C 40.842095,40.796962 41.425815,40.322841 42,39.830078 l 0,-4.570312 c -0.362065,0.282134 -0.730533,0.550824 -1.105469,0.800781 -1.456293,0.92232 -2.865402,1.455936 -4.224609,1.601562 -1.407747,0.145634 -2.595546,-0.09746 -3.566406,-0.728515 -0.97086,-0.63106 -1.72384,-1.577724 -2.257813,-2.839844 -0.485433,-1.26212 -0.728515,-2.766125 -0.728515,-4.513672 -10e-7,-1.796093 0.290526,-3.738818 0.873046,-5.826172 0.582514,-2.087346 1.408616,-4.077523 2.476563,-5.970703 1.067947,-1.94172 2.232021,-3.641363 3.494141,-5.097656 1.310666,-1.504833 2.670378,-2.7183051 4.078124,-3.6406251 C 41.360608,8.8305578 41.680821,8.6448356 42,8.4707031 l 0,-1.7636719 z"
       style="font-style:normal;font-variant:normal;font-weight:normal;font-stretch:normal;font-size:medium;line-height:125%;font-family:'Impregnable Personal Use Only';-inkscape-font-specification:'Impregnable Personal Use Only';letter-spacing:0px;word-spacing:0px;fill:url(#linearGradient4555);fill-opacity:1;stroke:none;stroke-width:1px;stroke-linecap:butt;stroke-linejoin:miter;stroke-opacity:1"
       inkscape:connector-curvature="0" />
    <rect
       y="542.79797"
       x="390.57144"
       height="0.9999736"
       width="35.999992"
       id="rect4171-3"
       style="opacity:1;fill:#080809;fill-opacity:1;stroke:none" />
    <rect
       y="503.798"
       x="390.57144"
       height="39.999969"
       width="2"
       id="rect4965"
       style="opacity:0.6;fill:#080809;fill-opacity:1;stroke:none;stroke-opacity:1" />
    <path
       id="path4873"
       transform="translate(384.57143,499.798)"
       d="m 16,4 0,14 0,3 L 12,18.691406 8,21 31,44 42,44 42,30 16,4 Z"
       style="opacity:0.2;fill:url(#linearGradient4884);fill-opacity:1;fill-rule:evenodd;stroke:none;stroke-width:1px;stroke-linecap:butt;stroke-linejoin:miter;stroke-opacity:1"
       inkscape:connector-curvature="0" />
    <rect
       y="541.79797"
       x="392.57144"
       height="1"
       width="33.999989"
       id="rect4967"
       style="opacity:1;fill:#8b8f8f;fill-opacity:1;stroke:none;stroke-opacity:1" />
    <rect
       y="540.79816"
       x="392.57144"
       height="1"
       width="34"
       id="rect4971"
       style="opacity:1;fill:#212323;fill-opacity:0.45197742;stroke:none;stroke-opacity:1" />
    <path
       inkscape:connector-curvature="0"
       id="rect4783"
       d="m 392.57143,503.798 0,17 4,-2.30859 4,2.30859 0,-17 -8,0 z"
       style="opacity:1;fill:url(#linearGradient4866);fill-opacity:1;stroke:none;stroke-opacity:1" />
    <path
       sodipodi:nodetypes="cccccc"
       inkscape:connector-curvature="0"
       id="rect5011"
       d="m 393.57144,503.798 6,0 0,15 -3,-2 -3,2 z"
       style="opacity:0.15;fill:url(#linearGradient5028);fill-opacity:1;stroke:none;stroke-opacity:1" />
  </g>
  <g
     id="g21586-8-5-9"
     transform="matrix(1.157891,0,0,1.157891,-47.1984,-208.77171)">
    <rect
       style="opacity:0.2;fill:#232629;fill-opacity:1;stroke:none"
       id="rect10240-1-7-4"
       width="18"
       height="18"
       x="83.46051"
       y="359.1734"
       rx="2.9779005" />
    <rect
       ry="1.7000161"
       rx="1.7000161"
       y="358.67334"
       x="82.960571"
       height="17.000162"
       width="17.000162"
       id="rect10242-3-9-8"
       style="color:#31363b;fill:currentColor;fill-opacity:1;stroke:#3daee9;stroke-width:1;stroke-miterlimit:4;stroke-dasharray:none;stroke-opacity:1"
       class="ColorScheme-Background" />
  </g>
  <g
     transform="matrix(0.55,0,0,0.55,-138.43244,-71.13493)"
     id="layer1-8"
     inkscape:label="Capa 1">
    <path
       id="path4194-6"
       transform="translate(384.57143,499.798)"
       d="m 9,11 0,2 1,-1 -1,-1 z m 30,0 -1,1 1,1 0,-2 z"
       style="fill:url(#linearGradient4205-8);fill-opacity:1;fill-rule:evenodd;stroke:none;stroke-width:1px;stroke-linecap:butt;stroke-linejoin:miter;stroke-opacity:1"
       inkscape:connector-curvature="0" />
    <rect
       ry="0"
       y="513.79797"
       x="390.57144"
       height="29.999973"
       width="36"
       id="rect4139-4"
       style="opacity:1;fill:url(#linearGradient4158-98);fill-opacity:1;stroke:none" />
    <path
       id="path4224"
       transform="translate(384.57143,499.798)"
       d="m 23,23 0,7 -7,0 3,3 3,0 0,3 1,1 0,2 -7,0 5,5 21,0 0,-2 0,-1 0,-8 -10,-10 0,7 -2,0 -1,-1 -3,0 0,-3 -3,-3 z m 3,10 5,0 0,5 -5,0 0,-5 z"
       style="opacity:0.2;fill:url(#linearGradient4232);fill-opacity:1;fill-rule:evenodd;stroke:none;stroke-width:1px;stroke-linecap:butt;stroke-linejoin:miter;stroke-opacity:1"
       inkscape:connector-curvature="0" />
    <path
       style="fill:url(#linearGradient4174-7);fill-opacity:1;fill-rule:evenodd;stroke:none;stroke-width:1px;stroke-linecap:butt;stroke-linejoin:miter;stroke-opacity:1"
       d="m 10,10 -1,1 1,1 -4,2 18,0 18,0 -4,-2 1,-1 -1,-1 -14,0 -14,0 z"
       transform="translate(384.57143,499.798)"
       id="path4172-4"
       inkscape:connector-curvature="0" />
    <path
       id="path4183-8"
       transform="translate(384.57143,499.798)"
       d="m 10,10 -1,1 1,1 -4,2 18,0 18,0 -4,-2 1,-1 -1,-1 -14,0 -14,0 z"
       style="opacity:0.6;fill:url(#linearGradient4302-8);fill-opacity:1;fill-rule:evenodd;stroke:none;stroke-width:1px;stroke-linecap:butt;stroke-linejoin:miter;stroke-opacity:1"
       inkscape:connector-curvature="0" />
    <path
       id="rect4176-9"
       transform="translate(384.57143,499.798)"
       d="m 10,10 -1,1 30,0 -1,-1 -14,0 -14,0 z"
       style="opacity:0.2;fill:#000000;fill-opacity:1;stroke:none;stroke-opacity:1"
       inkscape:connector-curvature="0" />
    <path
       sodipodi:nodetypes="csssccssscc"
       inkscape:connector-curvature="0"
       id="rect4304-8"
       d="m 400.57143,516.798 0,-5 c 0,-4.432 3.568,-8 8,-8 4.432,0 8,3.568 8,8 l 0,5 -1,0 0,-5 c 0,-3.878 -3.122,-7 -7,-7 -3.878,0 -7,3.122 -7,7 l 0,5 z"
       style="opacity:1;fill:url(#linearGradient4187-2);fill-opacity:1;stroke:none;stroke-opacity:1" />
    <path
       inkscape:connector-curvature="0"
       id="path4189-6"
       d="m 401.07143,514.798 a 1.5000002,1.5000002 0 0 1 1.5,1.5 1.5000002,1.5000002 0 0 1 -1.5,1.5 1.5000002,1.5000002 0 0 1 -1.5,-1.5 1.5000002,1.5000002 0 0 1 1.5,-1.5 z m 0,1 a 0.50000024,0.50000024 0 0 0 -0.5,0.5 0.50000024,0.50000024 0 0 0 0.5,0.5 0.50000024,0.50000024 0 0 0 0.5,-0.5 0.50000024,0.50000024 0 0 0 -0.5,-0.5 z"
       style="opacity:1;fill:url(#linearGradient4290-26);fill-opacity:1;stroke:none;stroke-opacity:1" />
    <path
       id="circle4191-5"
       transform="translate(384.57143,499.798)"
       d="M 31.5,15 A 1.5000002,1.5000002 0 0 0 30,16.5 1.5000002,1.5000002 0 0 0 31.5,18 1.5000002,1.5000002 0 0 0 33,16.5 1.5000002,1.5000002 0 0 0 31.5,15 Z m 0,1 A 0.50000024,0.50000024 0 0 1 32,16.5 0.50000024,0.50000024 0 0 1 31.5,17 0.50000024,0.50000024 0 0 1 31,16.5 0.50000024,0.50000024 0 0 1 31.5,16 Z"
       style="opacity:1;fill:url(#linearGradient4282-9);fill-opacity:1;stroke:none;stroke-opacity:1"
       inkscape:connector-curvature="0" />
    <path
       id="rect4202-6"
       transform="translate(384.57143,499.798)"
       d="m 16,23 0,7 7,0 0,-7 -7,0 z m 9,0 0,7 7,0 0,-7 -7,0 z m -8,1 5,0 0,5 -5,0 0,-5 z m 9,0 5,0 0,5 -5,0 0,-5 z m -10,8 0,7 7,0 0,-7 -7,0 z m 9,0 0,7 7,0 0,-7 -7,0 z m -8,1 5,0 0,5 -5,0 0,-5 z m 9,0 5,0 0,5 -5,0 0,-5 z"
       style="fill:url(#linearGradient4222);fill-opacity:1;stroke:none"
       inkscape:connector-curvature="0" />
    <rect
       y="542.79797"
       x="390.57144"
       height="0.9999736"
       width="35.999992"
       id="rect4171-39"
       style="opacity:1;fill:#1c5593;fill-opacity:1;stroke:none" />
  </g>
</svg>
