<?xml version="1.0" encoding="UTF-8" standalone="no"?>
<svg
   xmlns:dc="http://purl.org/dc/elements/1.1/"
   xmlns:cc="http://creativecommons.org/ns#"
   xmlns:rdf="http://www.w3.org/1999/02/22-rdf-syntax-ns#"
   xmlns:svg="http://www.w3.org/2000/svg"
   xmlns="http://www.w3.org/2000/svg"
   xmlns:sodipodi="http://sodipodi.sourceforge.net/DTD/sodipodi-0.dtd"
   xmlns:inkscape="http://www.inkscape.org/namespaces/inkscape"
   viewBox="0 0 256 256"
   id="svg2"
   version="1.1"
   inkscape:version="0.91 r13725"
   sodipodi:docname="org.kde.plasma.colorpicker.svg">
  <metadata
     id="metadata10">
    <rdf:RDF>
      <cc:Work
         rdf:about="">
        <dc:format>image/svg+xml</dc:format>
        <dc:type
           rdf:resource="http://purl.org/dc/dcmitype/StillImage" />
        <dc:title />
      </cc:Work>
    </rdf:RDF>
  </metadata>
  <sodipodi:namedview
     pagecolor="#ffffff"
     bordercolor="#666666"
     borderopacity="1"
     objecttolerance="10"
     gridtolerance="10"
     guidetolerance="10"
     inkscape:pageopacity="0"
     inkscape:pageshadow="2"
     inkscape:window-width="1920"
     inkscape:window-height="1050"
     id="namedview8"
     showgrid="false"
     inkscape:zoom="1.84375"
     inkscape:cx="36.518796"
     inkscape:cy="157.07701"
     inkscape:window-x="0"
     inkscape:window-y="30"
     inkscape:window-maximized="1"
     inkscape:current-layer="svg2" />
  <defs
     id="defs4">
    <style
       id="current-color-scheme"
       type="text/css">
      .ColorScheme-Text {
        color:#f2f2f2;
      }
      .ColorScheme-Background {
        color:#31363b;
      }
      .ColorScheme-Highlight {
        color:#3daee9;
      }
      .ColorScheme-ViewText {
        color:#31363b;
      }
      .ColorScheme-ViewBackground {
        color:#314045;
      }
      .ColorScheme-ViewHover {
        color:#93cee9;
      }
      .ColorScheme-ViewFocus{
        color:#3daee9;
      }
      .ColorScheme-ButtonText {
        color:#31363b;
      }
      .ColorScheme-ButtonBackground {
        color:#31363b;
      }
      .ColorScheme-ButtonHover {
        color:#93cee9;
      }
      .ColorScheme-ButtonFocus{
        color:#3daee9;
      }
      </style>
  </defs>
  <path
     style="fill:currentColor;fill-opacity:0.5;stroke:none"
     d="m 16,10 224,0 c 3.324,0 6,2.676 6,6 l 0,224 c 0,3.324 -2.676,6 -6,6 l -224,0 c -3.324,0 -6,-2.676 -6,-6 L 10,16 c 0,-3.324 2.676,-6 6,-6 z"
     class="ColorScheme-ButtonText"
     id="rect4240" />
  <path
     style="fill:currentColor;fill-opacity:1;stroke:none"
     d="m 16,12 224,0 c 2.216,0 4,1.784 4,4 l 0,224 c 0,2.216 -1.784,4 -4,4 l -224,0 c -2.216,0 -4,-1.784 -4,-4 L 12,16 c 0,-2.216 1.784,-4 4,-4 z"
     class="ColorScheme-Background"
     id="rect4238" />
  <path
     inkscape:connector-curvature="0"
     style="opacity:1;fill:currentColor;fill-opacity:1;stroke:none"
     class="ColorScheme-Text"
     d="m 183.03125,26.33594 c -0.97291,3.40503 -3.35445,6.332281 -4.4043,8.675781 -0.3674,0.69677 -0.5957,1.478799 -0.5957,2.324219 0,2.769999 2.23,5 5,5 2.77,0 5,-2.230001 5,-5 0,-0.84542 -0.2283,-1.627449 -0.5957,-2.324219 -1.04985,-2.3435 -3.4314,-5.270751 -4.4043,-8.675781 z m 19.54883,0 0,16 1,0 0,-16 -1,0 z M 27.332031,26.576174 c -1.084391,0 -2.042562,0.249433 -2.873047,0.751953 -0.825195,0.49724 -1.459961,1.193931 -1.904296,2.087891 -0.444338,0.89397 -0.666016,1.917152 -0.666016,3.070312 0,0.89925 0.134521,1.725423 0.404297,2.476563 0.275065,0.75114 0.655925,1.383384 1.142578,1.896484 0.486654,0.50782 1.06901,0.903803 1.746094,1.189453 0.682372,0.28035 1.423909,0.419922 2.222656,0.419922 1.142579,0 2.160726,-0.226731 3.054687,-0.681641 l -0.326172,-1.039062 c -0.867512,0.4073 -1.726481,0.609375 -2.578124,0.609375 -1.311849,0 -2.352132,-0.440839 -3.119141,-1.324219 -0.761719,-0.88339 -1.142578,-2.05062 -1.142578,-3.5 0,-1.44409 0.370768,-2.611899 1.111328,-3.505859 0.745849,-0.89925 1.761474,-1.34961 3.046875,-1.34961 0.999756,0 1.873292,0.233719 2.61914,0.699219 l 0.458985,-0.912109 c -0.825195,-0.59244 -1.890706,-0.888672 -3.197266,-0.888672 z m 15.615235,0.0625 -1.300782,0.0957 0,9.179687 c 0,0.502522 0.05745,0.920657 0.173828,1.253907 0.116375,0.32796 0.295736,0.579346 0.539063,0.753906 0.243327,0.17456 0.519369,0.296474 0.826172,0.365234 0.312093,0.0635 0.697998,0.0957 1.158203,0.0957 l 0.626953,0 0.07031,-0.90625 -0.355469,-0.02344 c -0.227458,-0.0159 -0.40625,-0.02846 -0.533203,-0.03906 -0.126953,-0.0159 -0.263998,-0.03805 -0.41211,-0.06445 -0.142822,-0.0317 -0.250162,-0.06701 -0.324218,-0.109375 -0.06877,-0.0476 -0.140788,-0.107011 -0.214844,-0.175781 -0.07406,-0.0688 -0.126463,-0.155929 -0.158203,-0.261719 -0.02645,-0.10579 -0.05111,-0.227704 -0.07227,-0.365234 -0.01587,-0.13754 -0.02344,-0.30428 -0.02344,-0.5 l 0,-9.298828 z m 44.544922,0 -1.300782,0.0957 0,11.583984 1.300782,0 0,-3.070312 0.904296,-0.857422 3.332032,3.927734 1.546875,0 -3.966797,-4.5625 3.666015,-3.832031 -1.595703,0 -3.935547,4.259766 0.04883,-1.728516 0,-5.816406 z m -21.962891,0.0957 0,11.583984 1.396484,0 0,-5.601562 2.507813,0 c 1.306559,0 2.25773,-0.263989 2.855468,-0.792969 0.59774,-0.53426 0.896485,-1.320632 0.896485,-2.357422 0,-0.50781 -0.0922,-0.946126 -0.277344,-1.316406 -0.17985,-0.37557 -0.441325,-0.671792 -0.785156,-0.888672 -0.343831,-0.21688 -0.734782,-0.376062 -1.173828,-0.476562 -0.439046,-0.10051 -0.936768,-0.150391 -1.492188,-0.150391 l -3.927734,0 z m 10.148437,0 c -0.253906,0 -0.462971,0.0796 -0.626953,0.238281 -0.158691,0.1534 -0.238281,0.352953 -0.238281,0.601563 0,0.24862 0.07959,0.452638 0.238281,0.611328 0.163982,0.15869 0.373047,0.238281 0.626953,0.238281 0.248617,0 0.45516,-0.0796 0.619141,-0.238281 0.163981,-0.15869 0.246094,-0.362708 0.246094,-0.611328 0,-0.24861 -0.08211,-0.448163 -0.246094,-0.601563 -0.158691,-0.15869 -0.365234,-0.238281 -0.619141,-0.238281 z m -8.751953,1.046875 2.523438,0 c 0.761719,0 1.3396,0.137049 1.736328,0.412109 0.402019,0.26978 0.603517,0.732742 0.603515,1.388672 10e-7,0.76172 -0.181884,1.296716 -0.546874,1.603516 -0.359702,0.30681 -0.974284,0.458984 -1.841797,0.458984 l -2.47461,0 0,-3.863281 z m -31.11914,1.968753 c -1.232504,0 -2.200766,0.401038 -2.904297,1.205078 -0.698243,0.79874 -1.046875,1.856688 -1.046875,3.173828 0,1.2854 0.353678,2.333258 1.0625,3.142578 0.708821,0.80404 1.672038,1.205078 2.888672,1.205078 1.190186,0 2.146403,-0.40356 2.871093,-1.21289 0.724691,-0.81461 1.087891,-1.859946 1.087891,-3.134766 0,-1.31714 -0.348633,-2.375088 -1.046875,-3.173828 -0.698243,-0.80404 -1.669027,-1.205078 -2.912109,-1.205078 z m 14.28125,0 c -1.232504,0 -2.200765,0.401038 -2.904297,1.205078 -0.698242,0.79874 -1.046875,1.856688 -1.046875,3.173828 0,1.2854 0.353678,2.333258 1.0625,3.142578 0.708822,0.80404 1.672038,1.205078 2.888672,1.205078 1.190185,0 2.148354,-0.40356 2.873047,-1.21289 0.72469,-0.81461 1.085937,-1.859946 1.085937,-3.134766 0,-1.31714 -0.348633,-2.375088 -1.046875,-3.173828 -0.698242,-0.80404 -1.669027,-1.205078 -2.912109,-1.205078 z m 32.175781,0 c -1.169027,0 -2.11963,0.393471 -2.84961,1.181641 -0.729979,0.78287 -1.09375,1.858475 -1.09375,3.228515 0,1.31185 0.353679,2.359698 1.0625,3.142578 0.714113,0.78288 1.672282,1.173828 2.873047,1.173828 0.513102,0 0.971599,-0.06 1.378907,-0.18164 0.407308,-0.12167 0.701009,-0.253664 0.880859,-0.396484 l -0.244141,-0.896485 c -0.534261,0.30681 -1.124186,0.458985 -1.769531,0.458985 -0.9257,0 -1.629964,-0.30379 -2.111328,-0.91211 -0.481364,-0.60832 -0.722656,-1.404782 -0.722656,-2.388672 0,-1.03678 0.251383,-1.861009 0.753906,-2.474609 0.502523,-0.61361 1.169515,-0.919922 2,-0.919922 0.655925,0 1.240804,0.152174 1.753906,0.458984 l 0.373047,-0.904297 c -0.179851,-0.121669 -0.471029,-0.246086 -0.873047,-0.373046 -0.396728,-0.13224 -0.867269,-0.197266 -1.412109,-0.197266 z m 15.304687,0 c -1.11084,0 -2.024739,0.398526 -2.74414,1.197266 -0.719401,0.79875 -1.080078,1.86931 -1.080078,3.21289 0,1.32772 0.368245,2.380603 1.103515,3.158203 0.73527,0.77229 1.691488,1.158203 2.871094,1.158203 1.057943,0 2.003505,-0.246341 2.83398,-0.738281 l -0.27734,-0.927734 c -0.444336,0.22217 -0.84733,0.38892 -1.207031,0.5 -0.3597,0.11108 -0.758219,0.166015 -1.197265,0.166015 -0.809326,0 -1.466228,-0.256421 -1.96875,-0.769531 -0.502521,-0.51839 -0.774086,-1.310376 -0.816406,-2.378906 l 5.671872,0 0.0488,-0.667969 c 0,-1.22721 -0.27857,-2.183423 -0.833984,-2.871094 -0.55007,-0.692949 -1.351614,-1.039062 -2.404267,-1.039062 z m -37.958984,0.08594 c -0.507812,0 -0.990967,0.144047 -1.451172,0.429687 -0.454915,0.28036 -0.84082,0.721199 -1.158203,1.324219 l -0.142578,-1.666016 -1.056641,0 0,8.394531 1.31836,0 0,-4.751953 c 0,-0.74585 0.231771,-1.378084 0.697265,-1.896484 0.470785,-0.51839 1.065757,-0.777344 1.785156,-0.777344 0.148112,0 0.327475,0.0202 0.539063,0.0625 l 0.05664,-1.078125 c -0.153402,-0.0265 -0.349854,-0.04102 -0.587891,-0.04102 z m 46.845705,0 c -0.50782,0 -0.99097,0.144047 -1.45117,0.429687 -0.45492,0.28036 -0.84082,0.721199 -1.15821,1.324219 l -0.14258,-1.666016 -1.05664,0 0,8.394531 1.31836,0 0,-4.751953 c 0,-0.74585 0.23178,-1.378084 0.69727,-1.896484 0.47079,-0.51839 1.06576,-0.777344 1.78516,-0.777344 0.14811,0 0.32747,0.0202 0.53906,0.0625 l 0.0566,-1.078125 c -0.1534,-0.0265 -0.34986,-0.04102 -0.58789,-0.04102 z m -31.435549,0.08789 0,8.394531 1.300781,0 0,-8.394531 -1.300781,0 z m -39.21289,0.832031 c 0.862223,0 1.512125,0.310788 1.951171,0.929688 0.439046,0.6136 0.658204,1.432784 0.658204,2.458984 0,0.65592 -0.08968,1.230707 -0.269532,1.722657 -0.17985,0.48665 -0.471029,0.877598 -0.873046,1.173828 -0.39673,0.29093 -0.884929,0.435546 -1.466797,0.435546 -0.846354,0 -1.493164,-0.306311 -1.9375,-0.919921 -0.444336,-0.61361 -0.666016,-1.420162 -0.666016,-2.419922 0,-1.02091 0.22168,-1.837572 0.666016,-2.451172 0.444336,-0.6189 1.091146,-0.929688 1.9375,-0.929688 z m 14.28125,0 c 0.862223,0 1.514079,0.310788 1.953125,0.929688 0.439046,0.6136 0.658203,1.432784 0.658203,2.458984 0,0.65592 -0.08968,1.230707 -0.269531,1.722657 -0.179851,0.48665 -0.471029,0.877598 -0.873047,1.173828 -0.396728,0.29093 -0.886882,0.435546 -1.46875,0.435546 -0.846354,0 -1.491211,-0.306311 -1.935547,-0.919921 -0.444336,-0.61361 -0.666016,-1.420162 -0.666016,-2.419922 0,-1.02091 0.22168,-1.837572 0.666016,-2.451172 0.444336,-0.6189 1.089193,-0.929688 1.935547,-0.929688 z m 47.513671,0 c 1.333011,0 2.030277,0.905764 2.09375,2.714844 l -4.570312,0 c 0.07406,-0.83577 0.333008,-1.497725 0.777344,-1.984375 0.449625,-0.48665 1.016847,-0.730469 1.699218,-0.730469 z m 87.712888,3.296875 c 1.0377,0.72121 1.7168,1.918284 1.7168,3.283204 0,2.216 -1.784,4 -4,4 -1.36496,0 -2.562,-0.679047 -3.2832,-1.716797 0.64704,0.44971 1.43212,0.716797 2.2832,0.716797 2.216,0 4,-1.784 4,-4 0,-0.851081 -0.26709,-1.636164 -0.7168,-2.283204 z M 20,50.000002 l 0,1 216,0 0,-1 -216,0 z"
     id="rect7886" />
  <path
     style="fill:#1d99f3;fill-opacity:1;stroke:none;"
     d="m 234.12949,34.335232 a 8,8 0 0 1 -8,8 8,8 0 0 1 -8,-8 8,8 0 0 1 8,-8 8,8 0 0 1 8,8 z"
     id="path4522" />
  <path
     inkscape:connector-curvature="0"
     style="fill:#fdbc4b;fill-opacity:1;stroke:none;stroke-width:2;stroke-linecap:butt;stroke-linejoin:round;stroke-miterlimit:4;stroke-dasharray:none"
     d="m 96,124.00002 64,0 0,48 -64,0 z"
     id="rect5559-0-3-0" />
  <path
     inkscape:connector-curvature="0"
     style="fill:#1d99f3;fill-opacity:1;stroke:none;stroke-width:2;stroke-linecap:butt;stroke-linejoin:round;stroke-miterlimit:4;stroke-dasharray:none"
     d="m 24.000002,64.00002 64,0 0,48 -64,0 z"
     id="rect5559" />
  <path
     inkscape:connector-curvature="0"
     style="fill:#f47750;fill-opacity:1;stroke:none;stroke-width:2;stroke-linecap:butt;stroke-linejoin:round;stroke-miterlimit:4;stroke-dasharray:none"
     d="m 168,64.00002 64,0 0,48 -64,0 z"
     id="rect5559-0" />
  <path
     inkscape:connector-curvature="0"
     style="fill:#da4453;fill-opacity:1;stroke:none;stroke-width:2;stroke-linecap:butt;stroke-linejoin:round;stroke-miterlimit:4;stroke-dasharray:none"
     d="m 96,64.00002 64,0 0,48 -64,0 z"
     id="rect5559-0-3" />
  <path
     inkscape:connector-curvature="0"
     style="fill:#2ecc71;fill-opacity:1;stroke:none;stroke-width:2;stroke-linecap:butt;stroke-linejoin:round;stroke-miterlimit:4;stroke-dasharray:none"
     d="m 168,124.00002 64,0 0,48 -64,0 z"
     id="rect5559-0-6" />
  <path
     inkscape:connector-curvature="0"
     style="fill:#9b59b6;fill-opacity:1;stroke:none;stroke-width:2;stroke-linecap:butt;stroke-linejoin:round;stroke-miterlimit:4;stroke-dasharray:none"
     d="m 24.000002,188.00002 64,0 0,48.00002 -64,0 z"
     id="rect5559-01-3" />
  <path
     inkscape:connector-curvature="0"
     style="fill:#31363b;fill-opacity:1;stroke:none;stroke-width:2;stroke-linecap:butt;stroke-linejoin:round;stroke-miterlimit:4;stroke-dasharray:none"
     d="m 168,188.00002 64,0 0,48.00002 -64,0 z"
     id="rect5559-0-6-8" />
  <path
     inkscape:connector-curvature="0"
     style="fill:#b0b8b8;fill-opacity:1;stroke:none;stroke-width:2;stroke-linecap:butt;stroke-linejoin:round;stroke-miterlimit:4;stroke-dasharray:none"
     d="m 24.000002,124.00002 64,0 0,48 -64,0 z"
     id="rect5559-01" />
  <path
     inkscape:connector-curvature="0"
     style="fill:#01ffd2;fill-opacity:1;stroke:none;stroke-width:2;stroke-linecap:butt;stroke-linejoin:round;stroke-miterlimit:4;stroke-dasharray:none"
     d="m 96,188.00002 64,0 0,48.00002 -64,0 z"
     id="rect5559-0-3-0-4" />
</svg>
