<?xml version="1.0" encoding="UTF-8" standalone="no"?>
<svg
   xmlns:dc="http://purl.org/dc/elements/1.1/"
   xmlns:cc="http://creativecommons.org/ns#"
   xmlns:rdf="http://www.w3.org/1999/02/22-rdf-syntax-ns#"
   xmlns:svg="http://www.w3.org/2000/svg"
   xmlns="http://www.w3.org/2000/svg"
   xmlns:xlink="http://www.w3.org/1999/xlink"
   xmlns:sodipodi="http://sodipodi.sourceforge.net/DTD/sodipodi-0.dtd"
   xmlns:inkscape="http://www.inkscape.org/namespaces/inkscape"
   viewBox="0 0 256 256"
   id="svg2"
   version="1.1"
   inkscape:version="0.91 r13725"
   sodipodi:docname="org.kde.plasma.clipboard.svg">
  <metadata
     id="metadata10">
    <rdf:RDF>
      <cc:Work
         rdf:about="">
        <dc:format>image/svg+xml</dc:format>
        <dc:type
           rdf:resource="http://purl.org/dc/dcmitype/StillImage" />
        <dc:title />
      </cc:Work>
    </rdf:RDF>
  </metadata>
  <sodipodi:namedview
     pagecolor="#ffffff"
     bordercolor="#666666"
     borderopacity="1"
     objecttolerance="10"
     gridtolerance="10"
     guidetolerance="10"
     inkscape:pageopacity="0"
     inkscape:pageshadow="2"
     inkscape:window-width="1920"
     inkscape:window-height="1050"
     id="namedview8"
     showgrid="false"
     inkscape:zoom="1.84375"
     inkscape:cx="18.048297"
     inkscape:cy="115.21664"
     inkscape:window-x="0"
     inkscape:window-y="30"
     inkscape:window-maximized="1"
     inkscape:current-layer="svg2" />
  <defs
     id="defs4">
    <style
       id="current-color-scheme"
       type="text/css">
      .ColorScheme-Text {
        color:#f2f2f2;
      }
      .ColorScheme-Background {
        color:#31363b;
      }
      .ColorScheme-Highlight {
        color:#3daee9;
      }
      .ColorScheme-ViewText {
        color:#31363b;
      }
      .ColorScheme-ViewBackground {
        color:#314045;
      }
      .ColorScheme-ViewHover {
        color:#93cee9;
      }
      .ColorScheme-ViewFocus{
        color:#3daee9;
      }
      .ColorScheme-ButtonText {
        color:#31363b;
      }
      .ColorScheme-ButtonBackground {
        color:#31363b;
      }
      .ColorScheme-ButtonHover {
        color:#93cee9;
      }
      .ColorScheme-ButtonFocus{
        color:#3daee9;
      }
      </style>
    <linearGradient
       gradientUnits="userSpaceOnUse"
       y2="3"
       x2="32"
       y1="61"
       x1="32"
       id="linearGradient4306-2"
       xlink:href="#linearGradient4300-7"
       inkscape:collect="always"
       gradientTransform="matrix(0.49999977,0,0,0.48275841,384.57144,516.34974)" />
    <linearGradient
       id="linearGradient4300-7"
       inkscape:collect="always">
      <stop
         id="stop4302-3"
         offset="0"
         style="stop-color:#bdc3c7;stop-opacity:1" />
      <stop
         id="stop4304-3"
         offset="1"
         style="stop-color:#dadfe1;stop-opacity:1" />
    </linearGradient>
    <linearGradient
       gradientUnits="userSpaceOnUse"
       y2="47"
       x2="47"
       y1="61"
       x1="47"
       id="linearGradient4357-8"
       xlink:href="#linearGradient4351-20"
       inkscape:collect="always"
       gradientTransform="matrix(0.48275841,0,0,0.48275841,385.26109,516.10836)" />
    <linearGradient
       id="linearGradient4351-20"
       inkscape:collect="always">
      <stop
         id="stop4353-91"
         offset="0"
         style="stop-color:#566472;stop-opacity:1" />
      <stop
         id="stop4355-4"
         offset="1"
         style="stop-color:#5e6b78;stop-opacity:1" />
    </linearGradient>
    <linearGradient
       inkscape:collect="always"
       xlink:href="#linearGradient4410"
       id="linearGradient5285"
       gradientUnits="userSpaceOnUse"
       gradientTransform="matrix(0.48275841,0,0,-0.48275841,378.50247,553.76351)"
       x1="54"
       y1="31"
       x2="39.500008"
       y2="16.500048" />
    <linearGradient
       id="linearGradient4410"
       inkscape:collect="always">
      <stop
         id="stop4412"
         offset="0"
         style="stop-color:#383e51;stop-opacity:1" />
      <stop
         id="stop4414"
         offset="1"
         style="stop-color:#655c6f;stop-opacity:0" />
    </linearGradient>
    <linearGradient
       gradientUnits="userSpaceOnUse"
       y2="3"
       x2="32"
       y1="61"
       x1="32"
       id="linearGradient4306-83"
       xlink:href="#linearGradient4300-2-7"
       inkscape:collect="always"
       gradientTransform="matrix(0.49999977,0,0,0.48275841,384.57144,516.34974)" />
    <linearGradient
       id="linearGradient4300-2-7">
      <stop
         style="stop-color:#7fcc74;stop-opacity:1"
         offset="0"
         id="stop4302-4-9" />
      <stop
         style="stop-color:#87d37c;stop-opacity:1"
         offset="1"
         id="stop4304-1-9" />
    </linearGradient>
    <linearGradient
       gradientUnits="userSpaceOnUse"
       y2="47"
       x2="47"
       y1="61"
       x1="47"
       id="linearGradient4357-33"
       xlink:href="#linearGradient4351-4-9"
       inkscape:collect="always"
       gradientTransform="matrix(0.48275841,0,0,0.48275841,385.26109,516.10836)" />
    <linearGradient
       id="linearGradient4351-4-9"
       inkscape:collect="always">
      <stop
         id="stop4353-4-1"
         offset="0"
         style="stop-color:#ade2a1;stop-opacity:1" />
      <stop
         id="stop4355-3-4"
         offset="1"
         style="stop-color:#cfeec9;stop-opacity:1" />
    </linearGradient>
    <linearGradient
       inkscape:collect="always"
       xlink:href="#linearGradient4300-8"
       id="linearGradient5295"
       gradientUnits="userSpaceOnUse"
       gradientTransform="matrix(0.49999977,0,0,0.48275841,384.57144,516.34974)"
       x1="32"
       y1="61"
       x2="32"
       y2="3" />
    <linearGradient
       id="linearGradient4300-8">
      <stop
         style="stop-color:#f62459;stop-opacity:1"
         offset="0"
         id="stop4302-2" />
      <stop
         style="stop-color:#f73768;stop-opacity:1"
         offset="1"
         id="stop4304-9-0" />
    </linearGradient>
    <linearGradient
       inkscape:collect="always"
       xlink:href="#linearGradient4351-99"
       id="linearGradient5297"
       gradientUnits="userSpaceOnUse"
       gradientTransform="matrix(0.48275841,0,0,0.48275841,385.26109,516.10836)"
       x1="47"
       y1="61"
       x2="47"
       y2="47" />
    <linearGradient
       id="linearGradient4351-99">
      <stop
         style="stop-color:#ffd6af;stop-opacity:1"
         offset="0"
         id="stop4353-0" />
      <stop
         style="stop-color:#fffcf9;stop-opacity:1"
         offset="1"
         id="stop4355-83" />
    </linearGradient>
    <linearGradient
       gradientUnits="userSpaceOnUse"
       y2="3"
       x2="32"
       y1="61"
       x1="32"
       id="linearGradient4306-92"
       xlink:href="#linearGradient4300-3-4"
       inkscape:collect="always"
       gradientTransform="matrix(0.49999977,0,0,0.48275841,384.57144,516.34974)" />
    <linearGradient
       id="linearGradient4300-3-4"
       inkscape:collect="always">
      <stop
         id="stop4302-0-1"
         offset="0"
         style="stop-color:#26c281;stop-opacity:1" />
      <stop
         id="stop4304-7"
         offset="1"
         style="stop-color:#3fc380;stop-opacity:1" />
    </linearGradient>
    <linearGradient
       gradientUnits="userSpaceOnUse"
       y2="47"
       x2="47"
       y1="61"
       x1="47"
       id="linearGradient4357-41"
       xlink:href="#linearGradient4351-4-55"
       inkscape:collect="always"
       gradientTransform="matrix(0.48275841,0,0,0.48275841,385.26109,516.10836)" />
    <linearGradient
       id="linearGradient4351-4-55"
       inkscape:collect="always">
      <stop
         id="stop4353-0-6"
         offset="0"
         style="stop-color:#036b53;stop-opacity:1" />
      <stop
         id="stop4355-2"
         offset="1"
         style="stop-color:#036b53;stop-opacity:1" />
    </linearGradient>
    <linearGradient
       gradientUnits="userSpaceOnUse"
       y2="3"
       x2="32"
       y1="61"
       x1="32"
       id="linearGradient4306-9"
       xlink:href="#linearGradient4300-2-4"
       inkscape:collect="always"
       gradientTransform="matrix(0.49999977,0,0,0.48275841,384.57144,516.34974)" />
    <linearGradient
       id="linearGradient4300-2-4">
      <stop
         style="stop-color:#f5ce5b;stop-opacity:1"
         offset="0"
         id="stop4302-4-6" />
      <stop
         style="stop-color:#f5d76e;stop-opacity:1"
         offset="1"
         id="stop4304-1-8" />
    </linearGradient>
    <linearGradient
       gradientUnits="userSpaceOnUse"
       y2="47"
       x2="47"
       y1="61"
       x1="47"
       id="linearGradient4357-1"
       xlink:href="#linearGradient4351-4"
       inkscape:collect="always"
       gradientTransform="matrix(0.48275841,0,0,0.48275841,385.26109,516.10836)" />
    <linearGradient
       id="linearGradient4351-4"
       inkscape:collect="always">
      <stop
         id="stop4353-4"
         offset="0"
         style="stop-color:#957209;stop-opacity:1" />
      <stop
         id="stop4355-3-0"
         offset="1"
         style="stop-color:#a4800a;stop-opacity:1" />
    </linearGradient>
    <linearGradient
       gradientUnits="userSpaceOnUse"
       y2="3"
       x2="32"
       y1="61"
       x1="32"
       id="linearGradient4306-06"
       xlink:href="#linearGradient4300-6"
       inkscape:collect="always"
       gradientTransform="matrix(0.49999977,0,0,0.48275841,384.57144,516.34974)" />
    <linearGradient
       inkscape:collect="always"
       id="linearGradient4300-6">
      <stop
         style="stop-color:#cf000f;stop-opacity:1"
         offset="0"
         id="stop4302-6" />
      <stop
         style="stop-color:#d91e18;stop-opacity:1"
         offset="1"
         id="stop4304-9" />
    </linearGradient>
    <linearGradient
       gradientUnits="userSpaceOnUse"
       y2="47"
       x2="47"
       y1="61"
       x1="47"
       id="linearGradient4357-6"
       xlink:href="#linearGradient4351-9"
       inkscape:collect="always"
       gradientTransform="matrix(0.48275841,0,0,0.48275841,385.26109,516.10836)" />
    <linearGradient
       id="linearGradient4351-9"
       inkscape:collect="always">
      <stop
         id="stop4353-8"
         offset="0"
         style="stop-color:#fb7d80;stop-opacity:1" />
      <stop
         id="stop4355-3"
         offset="1"
         style="stop-color:#fcbcbe;stop-opacity:1" />
    </linearGradient>
    <linearGradient
       gradientUnits="userSpaceOnUse"
       y2="3"
       x2="32"
       y1="61"
       x1="32"
       id="linearGradient4306-0"
       xlink:href="#linearGradient4300"
       inkscape:collect="always"
       gradientTransform="matrix(0.49999977,0,0,0.48275841,384.57144,516.34974)" />
    <linearGradient
       id="linearGradient4300"
       inkscape:collect="always">
      <stop
         id="stop4302"
         offset="0"
         style="stop-color:#22a7f0;stop-opacity:1" />
      <stop
         id="stop4304"
         offset="1"
         style="stop-color:#19b5fe;stop-opacity:1" />
    </linearGradient>
    <linearGradient
       gradientUnits="userSpaceOnUse"
       y2="47"
       x2="47"
       y1="61"
       x1="47"
       id="linearGradient4357-0"
       xlink:href="#linearGradient4351"
       inkscape:collect="always"
       gradientTransform="matrix(0.48275841,0,0,0.48275841,385.26109,516.10836)" />
    <linearGradient
       id="linearGradient4351"
       inkscape:collect="always">
      <stop
         id="stop4353"
         offset="0"
         style="stop-color:#c8e3fe;stop-opacity:1" />
      <stop
         id="stop4355"
         offset="1"
         style="stop-color:#ffffff;stop-opacity:1" />
    </linearGradient>
    <linearGradient
       gradientUnits="userSpaceOnUse"
       y2="3"
       x2="32"
       y1="61"
       x1="32"
       id="linearGradient4306"
       xlink:href="#linearGradient4300-3"
       inkscape:collect="always"
       gradientTransform="matrix(0.49999977,0,0,0.48275841,384.57144,516.34974)" />
    <linearGradient
       id="linearGradient4300-3">
      <stop
         id="stop4302-0"
         offset="0"
         style="stop-color:#f39c12;stop-opacity:1;" />
      <stop
         id="stop4304-0"
         offset="1"
         style="stop-color:#f9a11f;stop-opacity:1" />
    </linearGradient>
    <linearGradient
       gradientUnits="userSpaceOnUse"
       y2="47"
       x2="47"
       y1="61"
       x1="47"
       id="linearGradient4357"
       xlink:href="#linearGradient4351-5"
       inkscape:collect="always"
       gradientTransform="matrix(0.48275841,0,0,0.48275841,385.26109,516.10836)" />
    <linearGradient
       id="linearGradient4351-5">
      <stop
         id="stop4353-1"
         offset="0"
         style="stop-color:#fddda3;stop-opacity:1" />
      <stop
         id="stop4355-8"
         offset="1"
         style="stop-color:#fde3a7;stop-opacity:1" />
    </linearGradient>
    <linearGradient
       inkscape:collect="always"
       xlink:href="#linearGradient4410"
       id="linearGradient4503"
       gradientUnits="userSpaceOnUse"
       gradientTransform="matrix(0.48275841,0,0,-0.48275841,378.50247,553.76351)"
       x1="54"
       y1="31"
       x2="39.500008"
       y2="16.500048" />
    <linearGradient
       inkscape:collect="always"
       xlink:href="#linearGradient4410"
       id="linearGradient4505"
       gradientUnits="userSpaceOnUse"
       gradientTransform="matrix(0.48275841,0,0,-0.48275841,378.50247,553.76351)"
       x1="54"
       y1="31"
       x2="39.500008"
       y2="16.500048" />
    <linearGradient
       inkscape:collect="always"
       xlink:href="#linearGradient4410"
       id="linearGradient4507"
       gradientUnits="userSpaceOnUse"
       gradientTransform="matrix(0.48275841,0,0,-0.48275841,378.50247,553.76351)"
       x1="54"
       y1="31"
       x2="39.500008"
       y2="16.500048" />
    <linearGradient
       inkscape:collect="always"
       xlink:href="#linearGradient4410"
       id="linearGradient4509"
       gradientUnits="userSpaceOnUse"
       gradientTransform="matrix(0.48275841,0,0,-0.48275841,378.50247,553.76351)"
       x1="54"
       y1="31"
       x2="39.500008"
       y2="16.500048" />
    <linearGradient
       inkscape:collect="always"
       xlink:href="#linearGradient4410"
       id="linearGradient4511"
       gradientUnits="userSpaceOnUse"
       gradientTransform="matrix(0.48275841,0,0,-0.48275841,378.50247,553.76351)"
       x1="54"
       y1="31"
       x2="39.500008"
       y2="16.500048" />
    <linearGradient
       inkscape:collect="always"
       xlink:href="#linearGradient4410"
       id="linearGradient4513"
       gradientUnits="userSpaceOnUse"
       gradientTransform="matrix(0.48275841,0,0,-0.48275841,378.50247,553.76351)"
       x1="54"
       y1="31"
       x2="39.500008"
       y2="16.500048" />
    <linearGradient
       inkscape:collect="always"
       xlink:href="#linearGradient4410"
       id="linearGradient4515"
       gradientUnits="userSpaceOnUse"
       gradientTransform="matrix(0.48275841,0,0,-0.48275841,378.50247,553.76351)"
       x1="54"
       y1="31"
       x2="39.500008"
       y2="16.500048" />
  </defs>
  <path
     style="fill:currentColor;fill-opacity:0.5;stroke:none"
     d="m 16,10 224,0 c 3.324,0 6,2.676 6,6 l 0,224 c 0,3.324 -2.676,6 -6,6 l -224,0 c -3.324,0 -6,-2.676 -6,-6 L 10,16 c 0,-3.324 2.676,-6 6,-6 z"
     class="ColorScheme-ButtonText"
     id="rect4240" />
  <path
     style="fill:currentColor;fill-opacity:1;stroke:none"
     d="m 16,12 224,0 c 2.216,0 4,1.784 4,4 l 0,224 c 0,2.216 -1.784,4 -4,4 l -224,0 c -2.216,0 -4,-1.784 -4,-4 L 12,16 c 0,-2.216 1.784,-4 4,-4 z"
     class="ColorScheme-Background"
     id="rect4238" />
  <path
     style="fill:#1d99f3;fill-opacity:1;stroke:none"
     d="m 16.785744,17.025921 221.999996,0 0,24.000023 -221.999996,0 z"
     class="ColorScheme-Highlight"
     id="rect10264" />
  <path
     style="fill:currentColor;fill-opacity:1;stroke:none"
     d="m 17.907501,18.025921 219.999999,0 0,22.000023 -219.999999,0 z"
     class="ColorScheme-Background"
     id="rect10266" />
  <path
     style="fill:currentColor;fill-opacity:1.0;stroke:none"
     class="ColorScheme-Text"
     d="M 27.240234 24.410156 C 26.860841 24.410156 26.506608 24.456606 26.179688 24.546875 C 25.85276 24.637075 25.557396 24.774358 25.291016 24.958984 C 25.024629 25.139512 24.813523 25.383784 24.660156 25.691406 C 24.506783 25.999096 24.429688 26.352115 24.429688 26.75 C 24.429688 27.328413 24.578414 27.782946 24.873047 28.115234 C 25.16768 28.443422 25.61359 28.721447 26.210938 28.951172 L 27.650391 29.511719 C 28.215444 29.733245 28.59533 29.952497 28.789062 30.169922 C 28.986829 30.383248 29.085937 30.706035 29.085938 31.136719 C 29.085936 31.510072 28.997899 31.823801 28.820312 32.078125 C 28.64676 32.32835 28.421065 32.508378 28.142578 32.619141 C 27.864085 32.725803 27.541115 32.779297 27.173828 32.779297 C 26.721788 32.779297 26.250085 32.697327 25.761719 32.533203 C 25.277385 32.369143 24.842538 32.146372 24.455078 31.863281 L 24.455078 32.833984 C 24.705311 33.05961 25.081423 33.250389 25.585938 33.40625 C 26.09045 33.562178 26.613464 33.640625 27.154297 33.640625 C 27.457004 33.640625 27.743252 33.613637 28.013672 33.560547 C 28.288125 33.507247 28.552367 33.419938 28.806641 33.296875 C 29.060914 33.169713 29.279311 33.010992 29.460938 32.822266 C 29.642564 32.633539 29.787511 32.391025 29.896484 32.095703 C 30.005458 31.800313 30.060547 31.468796 30.060547 31.099609 C 30.060547 30.800187 30.023827 30.532653 29.951172 30.298828 C 29.878522 30.065003 29.78866 29.869012 29.679688 29.708984 C 29.570714 29.549024 29.414697 29.399227 29.212891 29.259766 C 29.015124 29.116137 28.824332 28.998399 28.638672 28.908203 C 28.457045 28.817943 28.220288 28.716425 27.929688 28.601562 L 26.537109 28.046875 C 26.113323 27.878648 25.819777 27.695099 25.654297 27.494141 C 25.49285 27.289014 25.412109 26.996527 25.412109 26.619141 C 25.412109 26.311451 25.500149 26.052976 25.677734 25.84375 C 25.855321 25.634525 26.079189 25.48844 26.349609 25.402344 C 26.620029 25.312084 26.928291 25.265625 27.275391 25.265625 C 27.650751 25.265625 28.026984 25.319115 28.402344 25.425781 C 28.78173 25.532444 29.102888 25.678721 29.365234 25.863281 L 29.751953 25.099609 C 29.404846 24.882184 29.010373 24.714665 28.566406 24.595703 C 28.126473 24.47264 27.684208 24.410154 27.240234 24.410156 z M 55.416016 24.460938 L 54.410156 24.533203 L 54.410156 33.517578 L 55.410156 33.517578 L 55.410156 29.955078 C 55.410156 29.713053 55.424771 29.488522 55.457031 29.279297 C 55.493351 29.070071 55.557684 28.861376 55.646484 28.65625 C 55.735274 28.451123 55.848974 28.278327 55.990234 28.134766 C 56.131494 27.987105 56.314989 27.869367 56.541016 27.783203 C 56.771076 27.692943 57.035318 27.648438 57.333984 27.648438 C 57.814284 27.648436 58.155622 27.801686 58.357422 28.109375 C 58.563262 28.412964 58.666016 28.88724 58.666016 29.53125 L 58.666016 33.517578 L 59.671875 33.517578 L 59.671875 29.494141 C 59.671875 28.657304 59.486561 28.010038 59.115234 27.554688 C 58.743921 27.099338 58.208012 26.873047 57.509766 26.873047 C 57.053686 26.873047 56.642677 26.962047 56.275391 27.142578 C 55.912144 27.318938 55.613 27.575721 55.378906 27.912109 L 55.416016 26.638672 L 55.416016 24.460938 z M 34.09375 26.873047 C 33.24617 26.873047 32.54696 27.181371 31.998047 27.800781 C 31.44914 28.420259 31.173828 29.251006 31.173828 30.292969 C 31.173828 31.322564 31.454605 32.139108 32.015625 32.742188 C 32.576638 33.341099 33.306978 33.640625 34.207031 33.640625 C 35.014245 33.640625 35.735474 33.449913 36.369141 33.068359 L 36.158203 32.349609 C 35.81917 32.521937 35.510781 32.650231 35.236328 32.736328 C 34.961875 32.822488 34.657266 32.865234 34.322266 32.865234 C 33.704746 32.865234 33.205692 32.667417 32.822266 32.269531 C 32.438812 31.867479 32.229532 31.250512 32.197266 30.421875 L 36.527344 30.421875 L 36.5625 29.90625 C 36.5625 28.954551 36.351528 28.210982 35.927734 27.677734 C 35.507977 27.14032 34.89693 26.873047 34.09375 26.873047 z M 40.279297 26.873047 C 39.423644 26.873047 38.65293 27.033334 37.966797 27.357422 L 38.240234 28.109375 C 38.534874 27.965814 38.868787 27.855308 39.244141 27.777344 C 39.619501 27.695284 39.971908 27.654297 40.298828 27.654297 C 40.783161 27.654297 41.135442 27.770082 41.357422 28.003906 C 41.583449 28.237732 41.697266 28.592443 41.697266 29.068359 L 41.697266 29.708984 L 40.673828 29.708984 C 39.644621 29.708984 38.894095 29.874743 38.421875 30.207031 C 37.953688 30.53522 37.71875 31.052239 37.71875 31.757812 C 37.71875 32.348524 37.89678 32.81029 38.251953 33.142578 C 38.611166 33.474866 39.084561 33.640625 39.673828 33.640625 C 40.553701 33.640625 41.269453 33.298357 41.818359 32.613281 L 41.927734 33.511719 L 42.689453 33.511719 L 42.689453 29.216797 C 42.689453 28.38816 42.480307 27.790869 42.060547 27.425781 C 41.644834 27.056595 41.05019 26.873047 40.279297 26.873047 z M 51.449219 26.873047 C 50.557239 26.873047 49.834324 27.177853 49.277344 27.789062 C 48.720364 28.396175 48.441406 29.230439 48.441406 30.292969 C 48.441406 31.310265 48.71112 32.123357 49.251953 32.730469 C 49.796826 33.337647 50.527166 33.640625 51.443359 33.640625 C 51.834859 33.640625 52.187267 33.594365 52.498047 33.5 C 52.808827 33.40564 53.032695 33.302169 53.169922 33.191406 L 52.982422 32.496094 C 52.574775 32.734018 52.123259 32.853516 51.630859 32.853516 C 50.924546 32.853516 50.388771 32.618234 50.021484 32.146484 C 49.654198 31.674734 49.470703 31.055941 49.470703 30.292969 C 49.470703 29.488931 49.661495 28.848896 50.044922 28.373047 C 50.428355 27.89713 50.936647 27.660156 51.570312 27.660156 C 52.070786 27.660156 52.516703 27.779586 52.908203 28.017578 L 53.193359 27.314453 C 53.056133 27.220153 52.83409 27.123854 52.527344 27.025391 C 52.224637 26.922828 51.864932 26.873047 51.449219 26.873047 z M 47.242188 26.939453 C 46.85472 26.939453 46.485906 27.049959 46.134766 27.271484 C 45.787659 27.488906 45.49216 27.833131 45.25 28.300781 L 45.142578 27.007812 L 44.335938 27.007812 L 44.335938 33.517578 L 45.341797 33.517578 L 45.341797 29.832031 C 45.341797 29.253619 45.51982 28.763381 45.875 28.361328 C 46.234213 27.959343 46.687421 27.757813 47.236328 27.757812 C 47.349341 27.757812 47.486996 27.775664 47.648438 27.808594 L 47.691406 26.970703 C 47.57436 26.949873 47.423809 26.939443 47.242188 26.939453 z M 34.117188 27.654297 C 35.134253 27.654297 35.666377 28.354863 35.714844 29.757812 L 32.228516 29.757812 C 32.285026 29.109703 32.483232 28.59809 32.822266 28.220703 C 33.165332 27.84325 33.596533 27.654297 34.117188 27.654297 z M 40.927734 30.386719 L 41.697266 30.386719 L 41.697266 31.820312 C 41.216966 32.538188 40.561775 32.896484 39.734375 32.896484 C 39.431668 32.896484 39.180322 32.798425 38.978516 32.601562 C 38.776709 32.404637 38.675781 32.124659 38.675781 31.763672 C 38.675781 31.562646 38.694129 31.395128 38.730469 31.259766 C 38.766789 31.120304 38.83282 30.993769 38.929688 30.878906 C 39.026558 30.760146 39.160558 30.66743 39.330078 30.601562 C 39.499591 30.531862 39.714216 30.478373 39.976562 30.441406 C 40.238909 30.404436 40.556416 30.386719 40.927734 30.386719 z M 64.835938 32.244141 C 64.62203 32.244141 64.458716 32.310141 64.345703 32.441406 C 64.232696 32.572668 64.175781 32.729503 64.175781 32.914062 C 64.175781 33.094589 64.232691 33.25331 64.345703 33.388672 C 64.46275 33.519934 64.626064 33.585938 64.835938 33.585938 C 65.045823 33.585938 65.205486 33.519938 65.314453 33.388672 C 65.427466 33.25741 65.484375 33.098689 65.484375 32.914062 C 65.484375 32.729503 65.427465 32.572668 65.314453 32.441406 C 65.205486 32.310144 65.045823 32.244141 64.835938 32.244141 z M 67.791016 32.244141 C 67.577102 32.244141 67.413795 32.310141 67.300781 32.441406 C 67.187775 32.572668 67.130859 32.729503 67.130859 32.914062 C 67.130859 33.094589 67.187779 33.25331 67.300781 33.388672 C 67.417835 33.519934 67.581142 33.585938 67.791016 33.585938 C 68.000889 33.585938 68.158598 33.519938 68.267578 33.388672 C 68.380591 33.25741 68.4375 33.098689 68.4375 32.914062 C 68.4375 32.729503 68.38059 32.572668 68.267578 32.441406 C 68.158598 32.310144 68.000889 32.244141 67.791016 32.244141 z M 70.744141 32.244141 C 70.530227 32.244141 70.36692 32.310141 70.253906 32.441406 C 70.1409 32.572668 70.083984 32.729503 70.083984 32.914062 C 70.083984 33.094589 70.140904 33.25331 70.253906 33.388672 C 70.370953 33.519934 70.534261 33.585938 70.744141 33.585938 C 70.954021 33.585938 71.11369 33.519938 71.222656 33.388672 C 71.33567 33.25741 71.392578 33.098689 71.392578 32.914062 C 71.392578 32.729503 71.335668 32.572668 71.222656 32.441406 C 71.11369 32.310144 70.954021 32.244141 70.744141 32.244141 z M 34.246094 51.939453 L 33.144531 52.021484 L 33.144531 59.789062 C 33.144531 60.214275 33.194502 60.567627 33.292969 60.849609 C 33.391439 61.127116 33.542155 61.338625 33.748047 61.486328 C 33.953939 61.634033 34.187663 61.738688 34.447266 61.796875 C 34.711345 61.850585 35.03833 61.876953 35.427734 61.876953 L 35.957031 61.876953 L 36.017578 61.111328 L 35.714844 61.091797 C 35.52238 61.078367 35.373046 61.065601 35.265625 61.056641 C 35.158202 61.043211 35.041341 61.026276 34.916016 61.003906 C 34.795163 60.977056 34.703284 60.945966 34.640625 60.910156 C 34.582435 60.869876 34.523597 60.819906 34.460938 60.761719 C 34.398268 60.703529 34.353026 60.630534 34.326172 60.541016 C 34.303792 60.451496 34.283535 60.348795 34.265625 60.232422 C 34.252195 60.116048 34.246094 59.974202 34.246094 59.808594 L 34.246094 51.939453 z M 92.375 51.939453 L 91.246094 52.021484 L 91.246094 61.822266 L 92.152344 61.822266 L 92.253906 60.574219 C 92.495605 60.972575 92.80843 61.304281 93.193359 61.568359 C 93.578287 61.827962 94.032959 61.957031 94.556641 61.957031 C 95.527908 61.957031 96.271806 61.625325 96.791016 60.962891 C 97.314696 60.300456 97.578125 59.405274 97.578125 58.277344 C 97.578125 57.13151 97.327472 56.228841 96.826172 55.566406 C 96.324872 54.903971 95.585127 54.572266 94.609375 54.572266 C 94.130452 54.572266 93.699381 54.685791 93.314453 54.914062 C 92.934001 55.137859 92.617838 55.43986 92.367188 55.820312 L 92.375 54.585938 L 92.375 51.939453 z M 103.61328 51.939453 L 102.51172 52.021484 L 102.51172 59.789062 C 102.51172 60.214275 102.56172 60.567627 102.66016 60.849609 C 102.75866 61.127116 102.90934 61.338623 103.11523 61.486328 C 103.32112 61.634033 103.55484 61.738688 103.81445 61.796875 C 104.07852 61.850585 104.40552 61.876953 104.79492 61.876953 L 105.32422 61.876953 L 105.38477 61.111328 L 105.08398 61.091797 C 104.89151 61.078367 104.74023 61.065601 104.63281 61.056641 C 104.52539 61.043211 104.41048 61.026276 104.28516 61.003906 C 104.16431 60.977056 104.07243 60.945966 104.00977 60.910156 C 103.95157 60.869876 103.89078 60.819906 103.82812 60.761719 C 103.76552 60.703529 103.72023 60.630534 103.69336 60.541016 C 103.67106 60.451496 103.65081 60.348795 103.63281 60.232422 C 103.61941 60.116048 103.61328 59.974202 103.61328 59.808594 L 103.61328 51.939453 z M 25.181641 52.021484 L 25.181641 61.822266 L 26.363281 61.822266 L 26.363281 57.083984 L 28.484375 57.083984 C 29.589924 57.083984 30.396566 56.859701 30.902344 56.412109 C 31.408122 55.960043 31.660156 55.295247 31.660156 54.417969 C 31.660156 53.988281 31.582436 53.616048 31.425781 53.302734 C 31.273599 52.984944 31.052653 52.734294 30.761719 52.550781 C 30.470785 52.367269 30.139078 52.23348 29.767578 52.148438 C 29.396077 52.063398 28.97583 52.021484 28.505859 52.021484 L 25.181641 52.021484 z M 99.806641 52.021484 C 99.591801 52.021484 99.414151 52.088384 99.275391 52.222656 C 99.141121 52.352458 99.074219 52.522054 99.074219 52.732422 C 99.074219 52.94279 99.141121 53.115723 99.275391 53.25 C 99.414151 53.384277 99.591801 53.451172 99.806641 53.451172 C 100.01701 53.451172 100.19133 53.384272 100.33008 53.25 C 100.46883 53.115723 100.53906 52.94279 100.53906 52.732422 C 100.53906 52.522054 100.46887 52.352458 100.33008 52.222656 C 100.1958 52.088379 100.02148 52.021484 99.806641 52.021484 z M 26.363281 52.90625 L 28.498047 52.90625 C 29.142578 52.90625 29.633057 53.023111 29.96875 53.255859 C 30.30892 53.484131 30.478516 53.876628 30.478516 54.431641 C 30.478516 55.076172 30.324463 55.527507 30.015625 55.787109 C 29.711263 56.046713 29.191081 56.175781 28.457031 56.175781 L 26.363281 56.175781 L 26.363281 52.90625 z M 39.871094 54.572266 C 38.922201 54.572266 38.067546 54.747965 37.306641 55.101562 L 37.609375 55.921875 C 37.936116 55.765218 38.306396 55.643636 38.722656 55.558594 C 39.138916 55.469074 39.530029 55.423828 39.892578 55.423828 C 40.429687 55.423828 40.82023 55.551514 41.066406 55.806641 C 41.317056 56.061767 41.443359 56.449544 41.443359 56.96875 L 41.443359 57.667969 L 40.308594 57.667969 C 39.167237 57.667969 38.334229 57.848388 37.810547 58.210938 C 37.291342 58.56901 37.03125 59.132487 37.03125 59.902344 C 37.031251 60.546875 37.229167 61.051514 37.623047 61.414062 C 38.021403 61.776612 38.547689 61.957031 39.201172 61.957031 C 40.176921 61.957031 40.967448 61.583413 41.576172 60.835938 L 41.697266 61.816406 L 42.542969 61.816406 L 42.542969 57.130859 C 42.542969 56.226725 42.311198 55.574137 41.845703 55.175781 C 41.384684 54.772949 40.725993 54.572266 39.871094 54.572266 z M 46.505859 54.572266 C 45.762858 54.572266 45.185221 54.751302 44.773438 55.109375 C 44.361654 55.462972 44.154297 55.928467 44.154297 56.505859 C 44.154297 56.971354 44.274496 57.351074 44.511719 57.646484 C 44.748943 57.937418 45.186117 58.186686 45.826172 58.392578 L 46.605469 58.640625 C 47.120199 58.806234 47.476888 58.983886 47.673828 59.171875 C 47.870768 59.359863 47.96875 59.591634 47.96875 59.869141 C 47.968751 60.271973 47.850504 60.580079 47.613281 60.794922 C 47.376057 61.00529 47.042968 61.111328 46.613281 61.111328 C 45.928467 61.111328 45.159018 60.907308 44.308594 60.5 L 44.308594 61.433594 C 45.042644 61.782714 45.783773 61.957031 46.53125 61.957031 C 46.866944 61.957031 47.177002 61.916501 47.458984 61.835938 C 47.745443 61.755367 48.000814 61.635742 48.224609 61.474609 C 48.452881 61.313477 48.631918 61.098633 48.761719 60.830078 C 48.891521 60.557047 48.955078 60.242269 48.955078 59.888672 C 48.955078 59.602214 48.92872 59.361004 48.875 59.164062 C 48.82129 58.962646 48.723307 58.77417 48.580078 58.599609 C 48.436849 58.425049 48.23755 58.274333 47.982422 58.144531 C 47.731772 58.010254 47.40617 57.879232 47.007812 57.753906 L 46.302734 57.533203 C 45.841715 57.385498 45.539713 57.246988 45.396484 57.117188 C 45.253255 56.987386 45.181641 56.777262 45.181641 56.486328 C 45.181641 56.141683 45.292399 55.878255 45.511719 55.699219 C 45.735515 55.515707 46.104411 55.423828 46.619141 55.423828 C 47.196534 55.423828 47.794433 55.581218 48.412109 55.894531 L 48.673828 55.068359 C 48.002441 54.737141 47.280191 54.572266 46.505859 54.572266 z M 53.535156 54.572266 C 52.626546 54.572266 51.896239 54.970865 51.345703 55.767578 L 51.21875 54.720703 L 50.318359 54.720703 L 50.318359 61.822266 L 51.433594 61.822266 L 51.433594 57.492188 C 51.527584 56.870035 51.732991 56.37207 52.050781 55.996094 C 52.373046 55.615642 52.807455 55.423828 53.353516 55.423828 C 53.850342 55.423828 54.189535 55.610921 54.373047 55.982422 C 54.556559 56.349447 54.648438 56.967611 54.648438 57.835938 L 54.648438 61.822266 L 55.763672 61.822266 L 55.763672 58.177734 C 55.777102 57.560058 55.802081 57.191163 55.837891 57.070312 C 55.95874 56.53768 56.185791 56.129639 56.521484 55.847656 C 56.857177 55.565674 57.240235 55.423828 57.669922 55.423828 C 57.862387 55.423828 58.030599 55.453529 58.173828 55.511719 C 58.321533 55.565429 58.438395 55.651204 58.523438 55.767578 C 58.612947 55.883951 58.684567 56.002197 58.738281 56.123047 C 58.791991 56.23942 58.829181 56.393473 58.851562 56.585938 C 58.873953 56.778402 58.888108 56.941895 58.892578 57.076172 C 58.901578 57.205973 58.90625 57.378906 58.90625 57.59375 L 58.90625 61.822266 L 60.019531 61.822266 L 60.019531 57.244141 C 60.019531 55.462727 59.293946 54.572266 57.84375 54.572266 C 56.814291 54.572266 56.034587 55.053304 55.501953 56.015625 C 55.336344 55.563558 55.101237 55.210205 54.796875 54.955078 C 54.492513 54.699951 54.072269 54.572265 53.535156 54.572266 z M 64.363281 54.572266 C 63.414387 54.572266 62.559732 54.747965 61.798828 55.101562 L 62.101562 55.921875 C 62.428303 55.765218 62.798584 55.643636 63.214844 55.558594 C 63.631104 55.469074 64.022217 55.423828 64.384766 55.423828 C 64.921875 55.423828 65.31242 55.551514 65.558594 55.806641 C 65.809246 56.061767 65.935547 56.449544 65.935547 56.96875 L 65.935547 57.667969 L 64.800781 57.667969 C 63.659423 57.667969 62.826415 57.848388 62.302734 58.210938 C 61.783528 58.56901 61.523438 59.132487 61.523438 59.902344 C 61.523438 60.546875 61.721353 61.051514 62.115234 61.414062 C 62.51359 61.776612 63.037923 61.957031 63.691406 61.957031 C 64.667154 61.957031 65.459635 61.583413 66.068359 60.835938 L 66.189453 61.816406 L 67.035156 61.816406 L 67.035156 57.130859 C 67.035156 56.226725 66.803386 55.574137 66.337891 55.175781 C 65.876872 54.772949 65.21818 54.572266 64.363281 54.572266 z M 75.179688 54.572266 C 74.271078 54.572266 73.540771 54.970865 72.990234 55.767578 L 72.863281 54.720703 L 71.964844 54.720703 L 71.964844 61.822266 L 73.078125 61.822266 L 73.078125 57.492188 C 73.172115 56.870035 73.377523 56.37207 73.695312 55.996094 C 74.017578 55.615642 74.451986 55.423828 74.998047 55.423828 C 75.494873 55.423828 75.836019 55.610921 76.019531 55.982422 C 76.203043 56.349447 76.294922 56.967611 76.294922 57.835938 L 76.294922 61.822266 L 77.408203 61.822266 L 77.408203 58.177734 C 77.421633 57.560058 77.446612 57.191163 77.482422 57.070312 C 77.603272 56.53768 77.832276 56.129639 78.167969 55.847656 C 78.503663 55.565674 78.886718 55.423828 79.316406 55.423828 C 79.50887 55.423828 79.67513 55.453529 79.818359 55.511719 C 79.966064 55.565429 80.082927 55.651204 80.167969 55.767578 C 80.257489 55.883951 80.329099 56.002197 80.382812 56.123047 C 80.436522 56.23942 80.475663 56.393473 80.498047 56.585938 C 80.520437 56.778402 80.532649 56.941895 80.537109 57.076172 C 80.546109 57.205973 80.550781 57.378906 80.550781 57.59375 L 80.550781 61.822266 L 81.666016 61.822266 L 81.666016 57.244141 C 81.666016 55.462727 80.940429 54.572266 79.490234 54.572266 C 78.460774 54.572266 77.679117 55.053304 77.146484 56.015625 C 76.980875 55.563558 76.745768 55.210205 76.441406 54.955078 C 76.137047 54.699949 75.716797 54.572263 75.179688 54.572266 z M 86.425781 54.572266 C 85.382893 54.572266 84.564047 54.911458 83.96875 55.591797 C 83.377931 56.26766 83.082031 57.162842 83.082031 58.277344 C 83.082031 59.36499 83.38265 60.252685 83.982422 60.9375 C 84.582194 61.617838 85.396321 61.957031 86.425781 61.957031 C 87.432861 61.957031 88.242269 61.614501 88.855469 60.929688 C 89.468669 60.240397 89.775391 59.356038 89.775391 58.277344 C 89.775391 57.162842 89.479492 56.26766 88.888672 55.591797 C 88.297852 54.911458 87.477619 54.572266 86.425781 54.572266 z M 109.54883 54.572266 C 108.60889 54.572266 107.83334 54.910074 107.22461 55.585938 C 106.61589 56.2618 106.3125 57.167805 106.3125 58.304688 C 106.3125 59.42814 106.62393 60.318603 107.24609 60.976562 C 107.86824 61.630046 108.67766 61.957031 109.67578 61.957031 C 110.57097 61.957031 111.36955 61.748291 112.07227 61.332031 L 111.83789 60.546875 C 111.46191 60.734864 111.12077 60.876709 110.81641 60.970703 C 110.51205 61.064693 110.17423 61.111328 109.80273 61.111328 C 109.11791 61.111328 108.56388 60.8951 108.13867 60.460938 C 107.71345 60.022298 107.48307 59.349447 107.44727 58.445312 L 112.24609 58.445312 L 112.28711 57.882812 C 112.28711 56.844402 112.05201 56.033041 111.58203 55.451172 C 111.11654 54.864827 110.43953 54.572266 109.54883 54.572266 z M 99.25 54.720703 L 99.25 61.822266 L 100.34961 61.822266 L 100.34961 54.720703 L 99.25 54.720703 z M 94.501953 55.417969 C 95.791017 55.417969 96.435547 56.370606 96.435547 58.277344 C 96.435547 60.161702 95.774088 61.105469 94.449219 61.105469 C 93.777833 61.105469 93.257649 60.856201 92.890625 60.359375 C 92.528075 59.862549 92.347656 59.13086 92.347656 58.164062 C 92.347656 57.300213 92.521973 56.625977 92.871094 56.142578 C 93.224692 55.65918 93.767903 55.417969 94.501953 55.417969 z M 86.425781 55.423828 C 87.155354 55.423828 87.706624 55.687256 88.078125 56.210938 C 88.449625 56.730142 88.634766 57.422689 88.634766 58.291016 C 88.634766 58.846028 88.558436 59.331787 88.40625 59.748047 C 88.25407 60.159831 88.008139 60.491537 87.667969 60.742188 C 87.332276 60.988363 86.918131 61.111328 86.425781 61.111328 C 85.709635 61.111328 85.163086 60.851237 84.787109 60.332031 C 84.411132 59.812825 84.222656 59.131104 84.222656 58.285156 C 84.222656 57.421306 84.411132 56.730144 84.787109 56.210938 C 85.163086 55.687255 85.709635 55.423828 86.425781 55.423828 z M 109.57422 55.423828 C 110.70213 55.423828 111.29393 56.189942 111.34766 57.720703 L 107.48047 57.720703 C 107.54317 57.013509 107.76269 56.454753 108.13867 56.042969 C 108.51912 55.631185 108.99683 55.423828 109.57422 55.423828 z M 40.589844 58.40625 L 41.443359 58.40625 L 41.443359 59.970703 C 40.910726 60.753987 40.18514 61.144531 39.267578 61.144531 C 38.931884 61.144531 38.651529 61.037109 38.427734 60.822266 C 38.203939 60.607422 38.091797 60.304036 38.091797 59.910156 C 38.091797 59.690836 38.112054 59.50708 38.152344 59.359375 C 38.192624 59.207194 38.267579 59.068685 38.375 58.943359 C 38.482423 58.813558 38.630371 58.71224 38.818359 58.640625 C 39.006348 58.564535 39.244222 58.507077 39.535156 58.466797 C 39.82609 58.426517 40.178064 58.40625 40.589844 58.40625 z M 65.082031 58.40625 L 65.935547 58.40625 L 65.935547 59.970703 C 65.402914 60.753987 64.677328 61.144531 63.759766 61.144531 C 63.424073 61.144531 63.143718 61.037109 62.919922 60.822266 C 62.696126 60.607422 62.583984 60.304036 62.583984 59.910156 C 62.583984 59.690836 62.604241 59.50708 62.644531 59.359375 C 62.684811 59.207194 62.759766 59.068685 62.867188 58.943359 C 62.974609 58.813558 63.122559 58.71224 63.310547 58.640625 C 63.498535 58.564535 63.73641 58.507077 64.027344 58.466797 C 64.318278 58.426517 64.67025 58.40625 65.082031 58.40625 z M 60.900391 79.126953 L 59.798828 79.208984 L 59.798828 89.009766 L 60.900391 89.009766 L 60.900391 86.412109 L 61.664062 85.6875 L 64.484375 89.009766 L 65.792969 89.009766 L 62.4375 85.150391 L 65.539062 81.90625 L 64.189453 81.90625 L 60.859375 85.511719 L 60.900391 84.048828 L 60.900391 79.126953 z M 72.587891 79.126953 L 71.474609 79.208984 L 71.474609 81.417969 L 71.527344 83.035156 C 71.419923 82.838216 71.306397 82.670003 71.185547 82.53125 C 71.069174 82.388021 70.925944 82.255615 70.755859 82.134766 C 70.585774 82.009438 70.381754 81.916176 70.144531 81.853516 C 69.907307 81.790856 69.637777 81.759766 69.337891 81.759766 C 68.39795 81.759766 67.654053 82.094238 67.103516 82.765625 C 66.557455 83.437012 66.283203 84.316651 66.283203 85.404297 C 66.283203 86.55013 66.548015 87.460856 67.076172 88.136719 C 67.608806 88.808105 68.365479 89.144531 69.345703 89.144531 C 70.361735 89.144531 71.099528 88.682373 71.560547 87.755859 L 71.662109 89.009766 L 72.587891 89.009766 L 72.587891 79.126953 z M 77.267578 81.759766 C 76.327636 81.759766 75.554037 82.097575 74.945312 82.773438 C 74.336589 83.449299 74.03125 84.355304 74.03125 85.492188 C 74.031251 86.61564 74.342693 87.506103 74.964844 88.164062 C 75.586996 88.817545 76.396403 89.144531 77.394531 89.144531 C 78.289713 89.144531 79.090251 88.935791 79.792969 88.519531 L 79.556641 87.734375 C 79.180665 87.922364 78.841471 88.064209 78.537109 88.158203 C 78.232747 88.252193 77.894939 88.298828 77.523438 88.298828 C 76.838622 88.298828 76.282634 88.082601 75.857422 87.648438 C 75.43221 87.209797 75.201823 86.536947 75.166016 85.632812 L 79.966797 85.632812 L 80.007812 85.070312 C 80.007812 84.031902 79.772705 83.220541 79.302734 82.638672 C 78.837239 82.052327 78.158288 81.759766 77.267578 81.759766 z M 87.822266 81.759766 C 86.779379 81.759766 85.96053 82.098958 85.365234 82.779297 C 84.774413 83.45516 84.478516 84.350342 84.478516 85.464844 C 84.478516 86.55249 84.779134 87.440185 85.378906 88.125 C 85.978678 88.805338 86.792807 89.144531 87.822266 89.144531 C 88.829346 89.144531 89.638753 88.802002 90.251953 88.117188 C 90.865153 87.427897 91.171875 86.543538 91.171875 85.464844 C 91.171875 84.350342 90.875976 83.45516 90.285156 82.779297 C 89.694336 82.098958 88.874105 81.759766 87.822266 81.759766 z M 100.0957 81.759766 C 99.567541 81.759766 99.098716 81.857746 98.691406 82.054688 C 98.284096 82.247151 97.957108 82.516683 97.710938 82.861328 C 97.464767 83.205973 97.279627 83.596517 97.154297 84.035156 C 97.028967 84.46932 96.966797 84.940919 96.966797 85.451172 C 96.966797 85.898763 97.027598 86.325684 97.148438 86.728516 C 97.273758 87.131348 97.454176 87.496908 97.691406 87.828125 C 97.928626 88.159343 98.246171 88.424154 98.644531 88.621094 C 99.047371 88.818034 99.50204 88.916016 100.00781 88.916016 C 100.5315 88.916016 100.97811 88.811931 101.34961 88.601562 C 101.72559 88.391194 102.01677 88.1014 102.22266 87.734375 L 102.24414 88.568359 L 102.24414 88.761719 C 102.24414 89.652425 102.06039 90.295573 101.69336 90.689453 C 101.33082 91.083333 100.76872 91.279297 100.00781 91.279297 C 99.44833 91.279297 98.758543 91.182697 97.939453 90.990234 L 97.851562 91.931641 C 98.657223 92.115153 99.37671 92.207031 100.00781 92.207031 C 101.16708 92.207031 102.00008 91.889486 102.50586 91.253906 C 103.01612 90.622802 103.27148 89.687093 103.27148 88.447266 L 103.27148 81.908203 L 102.25781 81.908203 L 102.18945 82.927734 C 101.76423 82.148926 101.06697 81.759766 100.0957 81.759766 z M 95.878906 81.833984 C 95.449216 81.833984 95.039795 81.953614 94.650391 82.195312 C 94.265462 82.432536 93.938477 82.806152 93.669922 83.316406 L 93.548828 81.908203 L 92.65625 81.908203 L 92.65625 89.009766 L 93.769531 89.009766 L 93.769531 84.988281 C 93.769531 84.357177 93.967447 83.823405 94.361328 83.384766 C 94.759684 82.946126 95.262367 82.726563 95.871094 82.726562 C 95.996414 82.726562 96.149085 82.743497 96.328125 82.779297 L 96.375 81.867188 C 96.2452 81.844808 96.080326 81.833984 95.878906 81.833984 z M 24.429688 81.908203 L 26.423828 89.009766 L 27.484375 89.009766 L 29.351562 82.886719 L 31.324219 89.009766 L 32.3125 89.009766 L 34.224609 81.908203 L 33.205078 81.908203 L 31.787109 87.626953 L 29.935547 81.908203 L 28.746094 81.908203 L 27.001953 87.648438 L 25.484375 81.908203 L 24.429688 81.908203 z M 34.929688 81.908203 L 36.923828 89.009766 L 37.984375 89.009766 L 39.851562 82.886719 L 41.826172 89.009766 L 42.8125 89.009766 L 44.726562 81.908203 L 43.705078 81.908203 L 42.289062 87.626953 L 40.435547 81.908203 L 39.248047 81.908203 L 37.501953 87.648438 L 35.984375 81.908203 L 34.929688 81.908203 z M 45.431641 81.908203 L 47.423828 89.009766 L 48.486328 89.009766 L 50.351562 82.886719 L 52.326172 89.009766 L 53.3125 89.009766 L 55.226562 81.908203 L 54.205078 81.908203 L 52.789062 87.626953 L 50.935547 81.908203 L 49.748047 81.908203 L 48.001953 87.648438 L 46.484375 81.908203 L 45.431641 81.908203 z M 69.5 82.611328 C 70.162436 82.611328 70.662354 82.859214 70.998047 83.351562 C 71.338217 83.843913 71.507813 84.570882 71.507812 85.533203 C 71.503313 86.414958 71.339844 87.095297 71.017578 87.574219 C 70.695312 88.053141 70.169026 88.292969 69.439453 88.292969 C 68.745686 88.292969 68.233562 88.037598 67.902344 87.527344 C 67.575603 87.01709 67.412109 86.316488 67.412109 85.425781 C 67.412109 84.530599 67.586427 83.839438 67.935547 83.351562 C 68.284669 82.859213 68.806235 82.611328 69.5 82.611328 z M 77.294922 82.611328 C 78.42285 82.611328 79.012692 83.377442 79.066406 84.908203 L 75.199219 84.908203 C 75.261879 84.201009 75.481446 83.642253 75.857422 83.230469 C 76.237874 82.818685 76.71753 82.611328 77.294922 82.611328 z M 87.822266 82.611328 C 88.551839 82.611328 89.101155 82.874755 89.472656 83.398438 C 89.844156 83.917642 90.03125 84.610189 90.03125 85.478516 C 90.031251 86.033528 89.954919 86.519287 89.802734 86.935547 C 89.650553 87.347331 89.404622 87.679037 89.064453 87.929688 C 88.728759 88.175862 88.314616 88.298828 87.822266 88.298828 C 87.10612 88.298828 86.559571 88.038737 86.183594 87.519531 C 85.807618 87.000325 85.619141 86.318604 85.619141 85.472656 C 85.619141 84.608806 85.807618 83.917642 86.183594 83.398438 C 86.559571 82.874756 87.10612 82.611328 87.822266 82.611328 z M 100.14844 82.611328 C 101.50465 82.611328 102.18359 83.449056 102.18359 85.123047 L 102.18359 85.720703 C 102.18359 86.042969 102.1478 86.338867 102.07617 86.607422 C 102.00457 86.875977 101.88908 87.123291 101.73242 87.351562 C 101.58024 87.575358 101.36873 87.749675 101.0957 87.875 C 100.82266 88.000326 100.50041 88.064453 100.12891 88.064453 C 99.752934 88.064453 99.425948 87.988123 99.148438 87.835938 C 98.875407 87.683757 98.665288 87.478353 98.517578 87.21875 C 98.369878 86.954671 98.262462 86.67098 98.195312 86.371094 C 98.128213 86.071208 98.09375 85.747559 98.09375 85.398438 C 98.09375 85.031413 98.128152 84.69222 98.195312 84.378906 C 98.266913 84.061116 98.375727 83.765218 98.523438 83.492188 C 98.675618 83.219156 98.889079 83.004313 99.162109 82.847656 C 99.439619 82.691 99.767986 82.611328 100.14844 82.611328 z M 57.300781 87.621094 C 57.063557 87.621094 56.883137 87.692704 56.757812 87.835938 C 56.632486 87.979167 56.568359 88.150147 56.568359 88.351562 C 56.568359 88.548502 56.63249 88.721435 56.757812 88.869141 C 56.887614 89.01237 57.068033 89.083984 57.300781 89.083984 C 57.533528 89.083984 57.711181 89.012374 57.832031 88.869141 C 57.957357 88.725911 58.019531 88.552979 58.019531 88.351562 C 58.019531 88.150148 57.957361 87.979167 57.832031 87.835938 C 57.711181 87.692708 57.533528 87.621094 57.300781 87.621094 z M 82.357422 87.621094 C 82.120199 87.621094 81.937826 87.692704 81.8125 87.835938 C 81.687175 87.979167 81.625 88.150147 81.625 88.351562 C 81.625 88.548502 81.68717 88.721435 81.8125 88.869141 C 81.942302 89.01237 82.124675 89.083984 82.357422 89.083984 C 82.59017 89.083984 82.765869 89.012374 82.886719 88.869141 C 83.012045 88.725911 83.076172 88.552979 83.076172 88.351562 C 83.076172 88.150148 83.012042 87.979167 82.886719 87.835938 C 82.765869 87.692708 82.59017 87.621094 82.357422 87.621094 z M 60.900391 191.12695 L 59.798828 191.20898 L 59.798828 201.00977 L 60.900391 201.00977 L 60.900391 198.41211 L 61.664062 197.6875 L 64.484375 201.00977 L 65.792969 201.00977 L 62.4375 197.15039 L 65.539062 193.90625 L 64.189453 193.90625 L 60.859375 197.51172 L 60.900391 196.04883 L 60.900391 191.12695 z M 72.587891 191.12695 L 71.474609 191.20898 L 71.474609 193.41797 L 71.527344 195.03516 C 71.419923 194.83822 71.306397 194.67 71.185547 194.53125 C 71.069174 194.38802 70.925944 194.25561 70.755859 194.13477 C 70.585774 194.00945 70.381754 193.91618 70.144531 193.85352 C 69.907307 193.79082 69.637777 193.75977 69.337891 193.75977 C 68.39795 193.75977 67.654053 194.09425 67.103516 194.76562 C 66.557455 195.43702 66.283203 196.31665 66.283203 197.4043 C 66.283203 198.55013 66.548015 199.46086 67.076172 200.13672 C 67.608806 200.80811 68.365479 201.14453 69.345703 201.14453 C 70.361735 201.14453 71.099528 200.68237 71.560547 199.75586 L 71.662109 201.00977 L 72.587891 201.00977 L 72.587891 191.12695 z M 77.267578 193.75977 C 76.327636 193.75977 75.554036 194.09758 74.945312 194.77344 C 74.336589 195.4493 74.03125 196.35531 74.03125 197.49219 C 74.031251 198.61564 74.342693 199.5061 74.964844 200.16406 C 75.586996 200.81754 76.396403 201.14453 77.394531 201.14453 C 78.289713 201.14453 79.090251 200.93578 79.792969 200.51953 L 79.556641 199.73438 C 79.180665 199.92237 78.841471 200.06421 78.537109 200.1582 C 78.232747 200.2522 77.894939 200.29883 77.523438 200.29883 C 76.838622 200.29883 76.282634 200.0826 75.857422 199.64844 C 75.43221 199.2098 75.201823 198.53695 75.166016 197.63281 L 79.966797 197.63281 L 80.007812 197.07031 C 80.007812 196.0319 79.772705 195.22054 79.302734 194.63867 C 78.837239 194.05233 78.158288 193.75977 77.267578 193.75977 z M 87.822266 193.75977 C 86.779379 193.75977 85.96053 194.09896 85.365234 194.7793 C 84.774413 195.45516 84.478516 196.35034 84.478516 197.46484 C 84.478516 198.55249 84.779134 199.44019 85.378906 200.125 C 85.978678 200.80533 86.792807 201.14453 87.822266 201.14453 C 88.829346 201.14453 89.638753 200.802 90.251953 200.11719 C 90.865153 199.4279 91.171875 198.54354 91.171875 197.46484 C 91.171875 196.35034 90.875976 195.45516 90.285156 194.7793 C 89.694336 194.09896 88.874105 193.75977 87.822266 193.75977 z M 100.0957 193.75977 C 99.567541 193.75977 99.098716 193.85777 98.691406 194.05469 C 98.284096 194.24715 97.957107 194.51668 97.710938 194.86133 C 97.464767 195.20597 97.279627 195.59652 97.154297 196.03516 C 97.028967 196.46932 96.966797 196.94287 96.966797 197.45312 C 96.966797 197.90071 97.027597 198.32568 97.148438 198.72852 C 97.273758 199.13135 97.454176 199.49691 97.691406 199.82812 C 97.928626 200.15935 98.246171 200.42415 98.644531 200.62109 C 99.047371 200.81803 99.502041 200.91602 100.00781 200.91602 C 100.5315 200.91602 100.97811 200.81193 101.34961 200.60156 C 101.72559 200.3912 102.01677 200.10139 102.22266 199.73438 L 102.24414 200.56641 L 102.24414 200.76172 C 102.24414 201.65243 102.06039 202.29558 101.69336 202.68945 C 101.33082 203.08333 100.76872 203.2793 100.00781 203.2793 C 99.44833 203.2793 98.758543 203.1827 97.939453 202.99023 L 97.851562 203.93164 C 98.657223 204.11515 99.376711 204.20703 100.00781 204.20703 C 101.16708 204.20703 102.00008 203.88949 102.50586 203.25391 C 103.01612 202.6228 103.27148 201.68709 103.27148 200.44727 L 103.27148 193.9082 L 102.25781 193.9082 L 102.18945 194.92773 C 101.76423 194.14893 101.06697 193.75977 100.0957 193.75977 z M 95.878906 193.83398 C 95.449216 193.83398 95.039795 193.95361 94.650391 194.19531 C 94.265462 194.43254 93.938477 194.80615 93.669922 195.31641 L 93.548828 193.9082 L 92.65625 193.9082 L 92.65625 201.00977 L 93.769531 201.00977 L 93.769531 196.98828 C 93.769531 196.35718 93.967447 195.82341 94.361328 195.38477 C 94.759684 194.94613 95.262367 194.72656 95.871094 194.72656 C 95.996414 194.72656 96.149085 194.7435 96.328125 194.7793 L 96.375 193.86719 C 96.2452 193.84479 96.080326 193.83398 95.878906 193.83398 z M 24.429688 193.9082 L 26.423828 201.00977 L 27.484375 201.00977 L 29.351562 194.88672 L 31.324219 201.00977 L 32.3125 201.00977 L 34.224609 193.9082 L 33.205078 193.9082 L 31.787109 199.62695 L 29.935547 193.9082 L 28.746094 193.9082 L 27.001953 199.64844 L 25.484375 193.9082 L 24.429688 193.9082 z M 34.929688 193.9082 L 36.923828 201.00977 L 37.984375 201.00977 L 39.851562 194.88672 L 41.826172 201.00977 L 42.8125 201.00977 L 44.726562 193.9082 L 43.705078 193.9082 L 42.289062 199.62695 L 40.435547 193.9082 L 39.248047 193.9082 L 37.501953 199.64844 L 35.984375 193.9082 L 34.929688 193.9082 z M 45.431641 193.9082 L 47.423828 201.00977 L 48.486328 201.00977 L 50.351562 194.88672 L 52.326172 201.00977 L 53.3125 201.00977 L 55.226562 193.9082 L 54.205078 193.9082 L 52.789062 199.62695 L 50.935547 193.9082 L 49.748047 193.9082 L 48.001953 199.64844 L 46.484375 193.9082 L 45.431641 193.9082 z M 69.5 194.61133 C 70.162436 194.61133 70.662354 194.85921 70.998047 195.35156 C 71.338217 195.84391 71.507813 196.57088 71.507812 197.5332 C 71.503313 198.41496 71.339844 199.0953 71.017578 199.57422 C 70.695312 200.05314 70.169026 200.29297 69.439453 200.29297 C 68.745686 200.29297 68.233562 200.0376 67.902344 199.52734 C 67.575603 199.01709 67.412109 198.31649 67.412109 197.42578 C 67.412109 196.5306 67.586427 195.83944 67.935547 195.35156 C 68.284669 194.85921 68.806234 194.61133 69.5 194.61133 z M 77.294922 194.61133 C 78.42285 194.61133 79.012692 195.37744 79.066406 196.9082 L 75.199219 196.9082 C 75.261879 196.20101 75.481446 195.64225 75.857422 195.23047 C 76.237874 194.81868 76.71753 194.61133 77.294922 194.61133 z M 87.822266 194.61133 C 88.551839 194.61133 89.101155 194.87476 89.472656 195.39844 C 89.844156 195.91764 90.03125 196.61019 90.03125 197.47852 C 90.031251 198.03353 89.954919 198.51929 89.802734 198.93555 C 89.650553 199.34733 89.404622 199.67904 89.064453 199.92969 C 88.728759 200.17587 88.314616 200.29883 87.822266 200.29883 C 87.10612 200.29883 86.559571 200.03874 86.183594 199.51953 C 85.807618 199.00032 85.619141 198.3186 85.619141 197.47266 C 85.619141 196.6088 85.807618 195.91764 86.183594 195.39844 C 86.559571 194.87476 87.10612 194.61133 87.822266 194.61133 z M 100.14844 194.61133 C 101.50465 194.61133 102.18359 195.44905 102.18359 197.12305 L 102.18359 197.7207 C 102.18359 198.04297 102.1478 198.33887 102.07617 198.60742 C 102.00457 198.87598 101.88908 199.1233 101.73242 199.35156 C 101.58024 199.57536 101.36873 199.74968 101.0957 199.875 C 100.82266 200.00033 100.50041 200.06445 100.12891 200.06445 C 99.752934 200.06445 99.425948 199.98815 99.148438 199.83594 C 98.875407 199.68376 98.665288 199.47835 98.517578 199.21875 C 98.369878 198.95467 98.262453 198.67098 98.195312 198.37109 C 98.128213 198.07121 98.09375 197.74756 98.09375 197.39844 C 98.09375 197.03141 98.128152 196.69222 98.195312 196.37891 C 98.266913 196.06112 98.375727 195.76522 98.523438 195.49219 C 98.675618 195.21915 98.889079 195.00431 99.162109 194.84766 C 99.439619 194.691 99.767986 194.61133 100.14844 194.61133 z M 57.300781 199.62109 C 57.063557 199.62109 56.883138 199.69269 56.757812 199.83594 C 56.632486 199.97916 56.568359 200.1521 56.568359 200.35352 C 56.568359 200.55046 56.632489 200.72143 56.757812 200.86914 C 56.887614 201.01237 57.068033 201.08398 57.300781 201.08398 C 57.533528 201.08398 57.711181 201.01238 57.832031 200.86914 C 57.957357 200.72591 58.019531 200.55493 58.019531 200.35352 C 58.019531 200.1521 57.957361 199.97916 57.832031 199.83594 C 57.711181 199.69271 57.533528 199.62109 57.300781 199.62109 z M 82.357422 199.62109 C 82.120199 199.62109 81.937826 199.69269 81.8125 199.83594 C 81.687175 199.97916 81.625 200.1521 81.625 200.35352 C 81.625 200.55046 81.68717 200.72143 81.8125 200.86914 C 81.942302 201.01237 82.124675 201.08398 82.357422 201.08398 C 82.59017 201.08398 82.765869 201.01238 82.886719 200.86914 C 83.012045 200.72591 83.076172 200.55493 83.076172 200.35352 C 83.076172 200.1521 83.012042 199.97916 82.886719 199.83594 C 82.765869 199.69271 82.59017 199.62109 82.357422 199.62109 z M 34.117188 217.12695 L 33.017578 217.20898 L 33.017578 224.97656 C 33.017578 225.40177 33.065589 225.75512 33.164062 226.03711 C 33.262532 226.31462 33.415202 226.52613 33.621094 226.67383 C 33.826986 226.82152 34.058756 226.92617 34.318359 226.98438 C 34.582438 227.03807 34.909424 227.06445 35.298828 227.06445 L 35.830078 227.06445 L 35.890625 226.29883 L 35.587891 226.2793 C 35.395427 226.2658 35.246094 226.25314 35.138672 226.24414 C 35.03125 226.23074 34.914388 226.21381 34.789062 226.19141 C 34.668211 226.16451 34.576332 226.13346 34.513672 226.09766 C 34.455482 226.05736 34.394691 226.00746 34.332031 225.94922 C 34.269361 225.89102 34.226073 225.81804 34.199219 225.72852 C 34.176839 225.63902 34.156572 225.5363 34.138672 225.41992 C 34.125242 225.30355 34.117188 225.1617 34.117188 224.99609 L 34.117188 217.12695 z M 65.068359 217.12695 L 63.966797 217.20898 L 63.966797 227.00977 L 65.068359 227.00977 L 65.068359 224.41211 L 65.833984 223.6875 L 68.654297 227.00977 L 69.962891 227.00977 L 66.605469 223.15039 L 69.708984 219.90625 L 68.359375 219.90625 L 65.029297 223.51172 L 65.068359 222.04883 L 65.068359 217.12695 z M 76.757812 217.12695 L 75.642578 217.20898 L 75.642578 219.41797 L 75.697266 221.03516 C 75.589844 220.83822 75.474365 220.67 75.353516 220.53125 C 75.237142 220.38802 75.093912 220.25561 74.923828 220.13477 C 74.753743 220.00945 74.551676 219.91618 74.314453 219.85352 C 74.077229 219.79082 73.807699 219.75977 73.507812 219.75977 C 72.567871 219.75977 71.822021 220.09425 71.271484 220.76562 C 70.725423 221.43702 70.453125 222.31665 70.453125 223.4043 C 70.453125 224.55013 70.717937 225.46085 71.246094 226.13672 C 71.778728 226.80811 72.5354 227.14453 73.515625 227.14453 C 74.531657 227.14453 75.269451 226.68238 75.730469 225.75586 L 75.832031 227.00977 L 76.757812 227.00977 L 76.757812 217.12695 z M 60.517578 217.96094 L 59.623047 218.02734 L 59.443359 219.9082 L 58.347656 219.98047 L 58.322266 220.61133 L 59.416016 220.61133 L 59.416016 224.88281 C 59.416016 225.31698 59.453206 225.66699 59.529297 225.93555 C 59.605387 226.2041 59.742512 226.427 59.939453 226.60156 C 60.140869 226.77612 60.400961 226.89575 60.71875 226.96289 C 61.036541 227.02999 61.452068 227.06445 61.966797 227.06445 L 62.429688 227.06445 L 62.484375 226.29883 L 61.919922 226.27148 C 61.324626 226.24908 60.941569 226.15584 60.771484 225.99023 C 60.601399 225.82015 60.517578 225.45125 60.517578 224.88281 L 60.517578 220.61133 L 62.396484 220.61133 L 62.396484 219.9082 L 60.517578 219.9082 L 60.517578 217.96094 z M 28.470703 219.75977 C 27.445719 219.75977 26.672118 220.22192 26.148438 221.14844 L 26.035156 219.9082 L 25.107422 219.9082 L 25.107422 230.125 L 26.222656 230.125 L 26.222656 227.45312 L 26.175781 225.80859 C 26.703939 226.6993 27.461996 227.14453 28.451172 227.14453 C 29.382162 227.14453 30.107747 226.81006 30.626953 226.13867 C 31.146159 225.46729 31.40625 224.5796 31.40625 223.47852 C 31.40625 222.33268 31.155599 221.42667 30.654297 220.75977 C 30.157471 220.09285 29.428553 219.75977 28.470703 219.75977 z M 39.744141 219.75977 C 38.795248 219.75977 37.940592 219.93546 37.179688 220.28906 L 37.482422 221.10938 C 37.809164 220.95271 38.179443 220.83113 38.595703 220.74609 C 39.011962 220.65659 39.401123 220.61133 39.763672 220.61133 C 40.300782 220.61133 40.693278 220.73901 40.939453 220.99414 C 41.190104 221.24927 41.314453 221.63704 41.314453 222.15625 L 41.314453 222.85547 L 40.179688 222.85547 C 39.038331 222.85547 38.207276 223.03588 37.683594 223.39844 C 37.164388 223.75651 36.904297 224.31999 36.904297 225.08984 C 36.904297 225.73438 37.10026 226.23902 37.494141 226.60156 C 37.892497 226.96412 38.418783 227.14453 39.072266 227.14453 C 40.048015 227.14453 40.840495 226.77092 41.449219 226.02344 L 41.570312 227.00391 L 42.416016 227.00391 L 42.416016 222.31836 C 42.416016 221.41423 42.184245 220.76163 41.71875 220.36328 C 41.257732 219.96045 40.59904 219.75977 39.744141 219.75977 z M 47.699219 219.75977 C 46.629476 219.75977 45.826172 220.13477 45.289062 220.88672 L 45.167969 219.9082 L 44.201172 219.9082 L 44.201172 227.00977 L 45.316406 227.00977 L 45.316406 223.04883 C 45.316406 221.42407 46.046712 220.61133 47.505859 220.61133 C 48.047444 220.61133 48.42578 220.77482 48.640625 221.10156 C 48.855468 221.42383 48.962891 221.90486 48.962891 222.54492 L 48.962891 227.00977 L 50.076172 227.00977 L 50.076172 222.66602 C 50.076172 221.69026 49.881593 220.9633 49.492188 220.48438 C 49.107259 220.00097 48.509359 219.75977 47.699219 219.75977 z M 54.716797 219.75977 C 53.776856 219.75977 53.001302 220.09757 52.392578 220.77344 C 51.783854 221.4493 51.480469 222.35531 51.480469 223.49219 C 51.480469 224.61564 51.789958 225.5061 52.412109 226.16406 C 53.034261 226.81755 53.845622 227.14453 54.84375 227.14453 C 55.738933 227.14453 56.537516 226.93579 57.240234 226.51953 L 57.005859 225.73438 C 56.629882 225.92237 56.288736 226.06421 55.984375 226.1582 C 55.680013 226.2522 55.342203 226.29883 54.970703 226.29883 C 54.285888 226.29883 53.731852 226.0826 53.306641 225.64844 C 52.881428 225.2098 52.651041 224.53695 52.615234 223.63281 L 57.414062 223.63281 L 57.455078 223.07031 C 57.455078 222.0319 57.219971 221.22054 56.75 220.63867 C 56.284505 220.05233 55.607507 219.75977 54.716797 219.75977 z M 81.4375 219.75977 C 80.497559 219.75977 79.722005 220.09757 79.113281 220.77344 C 78.504557 221.4493 78.201172 222.35531 78.201172 223.49219 C 78.201172 224.61564 78.512614 225.5061 79.134766 226.16406 C 79.756917 226.81755 80.566324 227.14453 81.564453 227.14453 C 82.459635 227.14453 83.25822 226.93579 83.960938 226.51953 L 83.726562 225.73438 C 83.350585 225.92237 83.011393 226.06421 82.707031 226.1582 C 82.402669 226.2522 82.062906 226.29883 81.691406 226.29883 C 81.006592 226.29883 80.452556 226.0826 80.027344 225.64844 C 79.602132 225.2098 79.371745 224.53695 79.335938 223.63281 L 84.136719 223.63281 L 84.175781 223.07031 C 84.175781 222.0319 83.940673 221.22054 83.470703 220.63867 C 83.005208 220.05233 82.328204 219.75977 81.4375 219.75977 z M 91.992188 219.75977 C 90.949299 219.75977 90.128499 220.09896 89.533203 220.7793 C 88.942383 221.45516 88.648438 222.35034 88.648438 223.46484 C 88.648438 224.55249 88.947102 225.44019 89.546875 226.125 C 90.146647 226.80534 90.962728 227.14453 91.992188 227.14453 C 92.999268 227.14453 93.808675 226.80201 94.421875 226.11719 C 95.035074 225.4279 95.341797 224.54354 95.341797 223.46484 C 95.341797 222.35034 95.045898 221.45516 94.455078 220.7793 C 93.864257 220.09896 93.044027 219.75977 91.992188 219.75977 z M 104.26367 219.75977 C 103.73552 219.75977 103.26864 219.85777 102.86133 220.05469 C 102.45402 220.24715 102.12704 220.51668 101.88086 220.86133 C 101.63469 221.20597 101.44955 221.59652 101.32422 222.03516 C 101.19889 222.46932 101.13477 222.94287 101.13477 223.45312 C 101.13477 223.90072 101.19557 224.32569 101.31641 224.72852 C 101.44174 225.13135 101.62411 225.4969 101.86133 225.82812 C 102.09856 226.15935 102.41609 226.42415 102.81445 226.62109 C 103.21728 226.81803 103.67195 226.91602 104.17773 226.91602 C 104.70141 226.91602 105.14803 226.81193 105.51953 226.60156 C 105.89551 226.3912 106.18669 226.1014 106.39258 225.73438 L 106.41211 226.56641 L 106.41211 226.76172 C 106.41211 227.65243 106.22835 228.29557 105.86133 228.68945 C 105.49878 229.08334 104.93863 229.2793 104.17773 229.2793 C 103.61824 229.2793 102.92846 229.1827 102.10938 228.99023 L 102.02148 229.93164 C 102.82714 230.11515 103.54663 230.20703 104.17773 230.20703 C 105.33699 230.20703 106.16806 229.88949 106.67383 229.25391 C 107.18408 228.6228 107.43945 227.68709 107.43945 226.44727 L 107.43945 219.9082 L 106.42578 219.9082 L 106.35938 220.92773 C 105.93416 220.14893 105.23495 219.75977 104.26367 219.75977 z M 100.04883 219.83398 C 99.619136 219.83398 99.209712 219.95361 98.820312 220.19531 C 98.435393 220.43254 98.108404 220.80615 97.839844 221.31641 L 97.71875 219.9082 L 96.826172 219.9082 L 96.826172 227.00977 L 97.939453 227.00977 L 97.939453 222.98828 C 97.939453 222.35718 98.13737 221.82341 98.53125 221.38477 C 98.92961 220.94613 99.432294 220.72656 100.04102 220.72656 C 100.16634 220.72656 100.31901 220.7435 100.49805 220.7793 L 100.54492 219.86719 C 100.41512 219.84479 100.25024 219.83398 100.04883 219.83398 z M 28.34375 220.61133 C 29.623861 220.61133 30.263672 221.56258 30.263672 223.46484 C 30.263672 225.3492 29.602214 226.29297 28.277344 226.29297 C 27.605958 226.29297 27.085775 226.03426 26.71875 225.51953 C 26.356201 225.0048 26.175781 224.28255 26.175781 223.35156 C 26.180281 222.49219 26.359294 221.82129 26.712891 221.33789 C 27.066488 220.85449 27.609701 220.61133 28.34375 220.61133 z M 54.742188 220.61133 C 55.870114 220.61133 56.461911 221.37744 56.515625 222.9082 L 52.648438 222.9082 C 52.711098 222.201 52.930664 221.64225 53.306641 221.23047 C 53.687093 220.81868 54.164794 220.61133 54.742188 220.61133 z M 73.669922 220.61133 C 74.332357 220.61133 74.830323 220.85921 75.166016 221.35156 C 75.506185 221.84391 75.675781 222.57088 75.675781 223.5332 C 75.671281 224.41496 75.509766 225.0953 75.1875 225.57422 C 74.865234 226.05314 74.338948 226.29297 73.609375 226.29297 C 72.915608 226.29297 72.403483 226.0376 72.072266 225.52734 C 71.745524 225.01709 71.582031 224.31649 71.582031 223.42578 C 71.582031 222.5306 71.756348 221.83944 72.105469 221.35156 C 72.454591 220.85921 72.976156 220.61133 73.669922 220.61133 z M 81.464844 220.61133 C 82.592772 220.61133 83.182614 221.37744 83.236328 222.9082 L 79.369141 222.9082 C 79.431801 222.201 79.651368 221.64225 80.027344 221.23047 C 80.407797 220.81868 80.887452 220.61133 81.464844 220.61133 z M 91.992188 220.61133 C 92.721761 220.61133 93.271077 220.87475 93.642578 221.39844 C 94.014078 221.91764 94.201172 222.61019 94.201172 223.47852 C 94.201172 224.03353 94.124841 224.51929 93.972656 224.93555 C 93.820475 225.34733 93.574544 225.67903 93.234375 225.92969 C 92.898681 226.17586 92.484537 226.29883 91.992188 226.29883 C 91.276042 226.29883 90.729493 226.03874 90.353516 225.51953 C 89.977539 225.00032 89.789062 224.3186 89.789062 223.47266 C 89.789062 222.6088 89.977539 221.91764 90.353516 221.39844 C 90.729493 220.87475 91.276041 220.61133 91.992188 220.61133 z M 104.31836 220.61133 C 105.67456 220.61133 106.35156 221.44905 106.35156 223.12305 L 106.35156 223.7207 C 106.35155 224.04297 106.31577 224.33887 106.24414 224.60742 C 106.17254 224.87598 106.05899 225.1233 105.90234 225.35156 C 105.75016 225.57536 105.53671 225.74968 105.26367 225.875 C 104.99065 226.00033 104.66838 226.06445 104.29688 226.06445 C 103.9209 226.06445 103.59587 225.98815 103.31836 225.83594 C 103.04533 225.68376 102.8352 225.47835 102.6875 225.21875 C 102.5398 224.95467 102.43042 224.67098 102.36328 224.37109 C 102.29618 224.07121 102.26367 223.74756 102.26367 223.39844 C 102.26367 223.03141 102.29618 222.69222 102.36328 222.37891 C 102.43488 222.06112 102.54566 221.76522 102.69336 221.49219 C 102.84554 221.21915 103.059 221.00431 103.33203 220.84766 C 103.60954 220.691 103.93791 220.61133 104.31836 220.61133 z M 40.462891 223.59375 L 41.314453 223.59375 L 41.314453 225.1582 C 40.781819 225.94149 40.058186 226.33203 39.140625 226.33203 C 38.804931 226.33203 38.524576 226.22461 38.300781 226.00977 C 38.076985 225.79493 37.964844 225.49154 37.964844 225.09766 C 37.964844 224.87834 37.985101 224.69457 38.025391 224.54688 C 38.065671 224.3947 38.138672 224.25619 38.246094 224.13086 C 38.353516 224.00106 38.501464 223.89974 38.689453 223.82812 C 38.877441 223.75203 39.117268 223.69456 39.408203 223.6543 C 39.699137 223.614 40.051107 223.59375 40.462891 223.59375 z M 86.525391 225.62109 C 86.288168 225.62109 86.107748 225.69269 85.982422 225.83594 C 85.857097 225.97917 85.794922 226.1521 85.794922 226.35352 C 85.794922 226.55046 85.857092 226.72143 85.982422 226.86914 C 86.112224 227.01237 86.292644 227.08398 86.525391 227.08398 C 86.758138 227.08398 86.935792 227.01238 87.056641 226.86914 C 87.181966 226.72591 87.244141 226.55493 87.244141 226.35352 C 87.244141 226.1521 87.181971 225.97917 87.056641 225.83594 C 86.935792 225.69271 86.758138 225.62109 86.525391 225.62109 z "
     id="path4986" />
  <path
     style="fill:currentColor;fill-opacity:0.5;stroke:none"
     class="ColorScheme-Text"
     d="m 16.007812,70.621094 0,1 223.242188,0 0,-1 -223.242188,0 z m 0,26 0,1 223.242188,0 0,-1 -223.242188,0 z m 0,85.999996 0,1 223.242188,0 0,-1 -223.242188,0 z m 0,26 0,1 223.242188,0 0,-1 -223.242188,0 z"
     id="path10300" />
  <g
     transform="matrix(1.1363626,0,0,1.1363626,-413.6944,-486.22443)"
     id="layer1-7"
     inkscape:label="Capa 1">
    <path
       sodipodi:nodetypes="cccccccc"
       id="rect3500"
       d="m 389.57144,517.79801 0,27.99999 14.99999,0 7.00003,-7 -3e-5,-14.24137 0,-6.75862 -7,0 z"
       style="fill:url(#linearGradient4306);fill-opacity:1;stroke:none"
       inkscape:connector-curvature="0" />
    <rect
       y="544.79797"
       x="389.57144"
       height="0.99997306"
       width="14.999983"
       id="rect4169"
       style="opacity:1;fill:#2e3132;fill-opacity:0.29411765;stroke:none" />
    <rect
       y="517.79797"
       x="389.57144"
       height="1.0000261"
       width="21.999994"
       id="rect4236"
       style="opacity:1;fill:#ffffff;fill-opacity:0.41176471;stroke:none" />
    <path
       sodipodi:nodetypes="cccc"
       inkscape:connector-curvature="0"
       id="path4314"
       d="m 411.57144,538.798 -7.00001,7 0,-7 z"
       style="fill:url(#linearGradient4357);fill-opacity:1;fill-rule:evenodd;stroke:none;stroke-width:1px;stroke-linecap:butt;stroke-linejoin:miter;stroke-opacity:1" />
    <path
       sodipodi:nodetypes="cccc"
       style="opacity:0.2;fill:url(#linearGradient4503);fill-opacity:1;fill-rule:evenodd;stroke:none;stroke-width:1px;stroke-linecap:butt;stroke-linejoin:miter;stroke-opacity:1"
       d="m 397.57143,545.79797 7,-6.99997 0,7 z"
       id="path4320"
       inkscape:connector-curvature="0" />
    <rect
       y="526.79797"
       x="375.89221"
       height="10.999983"
       width="0"
       id="rect4035"
       style="fill:#ffffff;fill-opacity:1;stroke:none" />
    <rect
       y="525.79797"
       x="375.57144"
       height="10.999983"
       width="0"
       id="rect4035-4"
       style="fill:#ffffff;fill-opacity:1;stroke:none" />
    <rect
       y="525.68414"
       x="374.03558"
       height="11.113901"
       width="0"
       id="rect4035-3"
       style="fill:#fbd2bf;fill-opacity:1;stroke:none" />
    <rect
       y="525.79797"
       x="375.57144"
       height="10.999983"
       width="0"
       id="rect4035-1"
       style="fill:#fbd2bf;fill-opacity:1;stroke:none" />
    <path
       id="rect4139"
       d="m 396.57143,524.798 c -1.108,0 -2,0.892 -2,2 0,1.108 0.892,2 2,2 0.503,0 0.95592,-0.18973 1.30664,-0.49414 0.43078,0.73415 0.69336,1.57738 0.69336,2.49414 0,0.91676 -0.26258,1.75999 -0.69336,2.49414 -0.35072,-0.30442 -0.80364,-0.49414 -1.30664,-0.49414 -1.108,0 -2,0.892 -2,2 0,1.108 0.892,2 2,2 0.74107,0 1.37905,-0.4042 1.72461,-1 l 5.27539,0 0,1 3,0 0,-3 -3,0 0,1 -5,0 c 0,-0.19695 -0.0373,-0.383 -0.0898,-0.5625 0.68341,-0.97209 1.08984,-2.15337 1.08984,-3.4375 0,-1.2799 -0.41662,-2.44727 -1.0957,-3.41797 0.0563,-0.18526 0.0957,-0.37788 0.0957,-0.58203 l 4,0 0,2 4,0 0,-4 -4,0 0,1 -4.27539,0 c -0.34556,-0.5958 -0.98354,-1 -1.72461,-1 z m 0,1 c 0.554,0 1,0.446 1,1 0,0.554 -0.446,1 -1,1 -0.554,0 -1,-0.446 -1,-1 0,-0.554 0.446,-1 1,-1 z m 7,0 2,0 0,2 -2,0 0,-2 z m -7,8 c 0.554,0 1,0.446 1,1 0,0.554 -0.446,1 -1,1 -0.554,0 -1,-0.446 -1,-1 0,-0.554 0.446,-1 1,-1 z m 8,1 1,0 0,1 -1,0 0,-1 z"
       style="color:#000000;clip-rule:nonzero;display:inline;overflow:visible;visibility:visible;opacity:1;isolation:auto;mix-blend-mode:normal;color-interpolation:sRGB;color-interpolation-filters:linearRGB;solid-color:#000000;solid-opacity:1;fill:#fddda3;fill-opacity:1;fill-rule:nonzero;stroke:none;stroke-width:1;stroke-linecap:butt;stroke-linejoin:miter;stroke-miterlimit:4;stroke-dasharray:none;stroke-dashoffset:0;stroke-opacity:1;color-rendering:auto;image-rendering:auto;shape-rendering:auto;text-rendering:auto;enable-background:accumulate"
       inkscape:connector-curvature="0" />
  </g>
  <g
     transform="matrix(1.1363626,0,0,1.1363626,-356.02773,-486.22443)"
     id="layer1-3"
     inkscape:label="Capa 1">
    <path
       sodipodi:nodetypes="cccccccc"
       id="rect3500-4"
       d="m 389.57144,517.79801 0,27.99999 14.99999,0 7.00003,-7 -3e-5,-14.24137 0,-6.75862 -7,0 z"
       style="fill:url(#linearGradient4306-0);fill-opacity:1;stroke:none"
       inkscape:connector-curvature="0" />
    <rect
       y="544.79797"
       x="389.57144"
       height="0.99997306"
       width="14.999983"
       id="rect4169-7"
       style="opacity:1;fill:#2e3132;fill-opacity:0.29411765;stroke:none" />
    <rect
       y="517.79797"
       x="389.57144"
       height="1.0000261"
       width="21.999994"
       id="rect4236-1"
       style="opacity:1;fill:#ffffff;fill-opacity:0.40983605;stroke:none" />
    <path
       sodipodi:nodetypes="cccc"
       inkscape:connector-curvature="0"
       id="path4314-6"
       d="m 411.57144,538.798 -7.00001,7 0,-7 z"
       style="fill:url(#linearGradient4357-0);fill-opacity:1;fill-rule:evenodd;stroke:none;stroke-width:1px;stroke-linecap:butt;stroke-linejoin:miter;stroke-opacity:1" />
    <path
       sodipodi:nodetypes="cccc"
       style="opacity:0.2;fill:url(#linearGradient4505);fill-opacity:1;fill-rule:evenodd;stroke:none;stroke-width:1px;stroke-linecap:butt;stroke-linejoin:miter;stroke-opacity:1"
       d="m 397.57143,545.79797 7,-6.99997 0,7 z"
       id="path4320-5"
       inkscape:connector-curvature="0" />
    <g
       style="fill:#ffffff;fill-opacity:1"
       inkscape:label="Capa 1"
       id="layer1-7-5"
       transform="translate(392.57143,-513.5642)">
      <path
         inkscape:connector-curvature="0"
         style="color:#000000;display:inline;overflow:visible;visibility:visible;fill:#ffffff;fill-opacity:1;fill-rule:nonzero;stroke:none;stroke-width:1.39999998;marker:none;enable-background:accumulate"
         d="M 2,2 2,3 8,3 8,2 2,2 Z M 2,5 2,6 14,6 14,5 2,5 Z M 2,8 2,9 7,9 7,8 2,8 Z m 6,0 0,6 6,0 0,-6 -6,0 z m 1,1 4,0 0,4 -4,0 0,-4 z m -7,1 0,1 5,0 0,-1 -5,0 z m 0,3 0,1 5,0 0,-1 -5,0 z"
         transform="translate(0,1036.3622)"
         id="rect4020" />
    </g>
  </g>
  <g
     transform="matrix(1.1363626,0,0,1.1363626,-240.69438,-486.22443)"
     id="layer1-5"
     inkscape:label="Capa 1">
    <path
       sodipodi:nodetypes="cccccccc"
       id="rect3500-5"
       d="m 389.57144,517.79801 0,27.99999 14.99999,0 7.00003,-7 -3e-5,-14.24137 0,-6.75862 -7,0 z"
       style="fill:url(#linearGradient4306-06);fill-opacity:1;stroke:none"
       inkscape:connector-curvature="0" />
    <rect
       y="544.79797"
       x="389.57144"
       height="0.99997306"
       width="14.999983"
       id="rect4169-1"
       style="opacity:1;fill:#2e3132;fill-opacity:0.29411765;stroke:none" />
    <rect
       y="517.79797"
       x="389.57144"
       height="1.0000261"
       width="21.999994"
       id="rect4236-4"
       style="opacity:1;fill:#ffffff;fill-opacity:0.41176471;stroke:none" />
    <path
       sodipodi:nodetypes="cccc"
       inkscape:connector-curvature="0"
       id="path4314-5"
       d="m 411.57144,538.798 -7.00001,7 0,-7 z"
       style="fill:url(#linearGradient4357-6);fill-opacity:1;fill-rule:evenodd;stroke:none;stroke-width:1px;stroke-linecap:butt;stroke-linejoin:miter;stroke-opacity:1" />
    <path
       sodipodi:nodetypes="cccc"
       style="opacity:0.2;fill:url(#linearGradient4507);fill-opacity:1;fill-rule:evenodd;stroke:none;stroke-width:1px;stroke-linecap:butt;stroke-linejoin:miter;stroke-opacity:1"
       d="m 397.57143,545.79797 7,-6.99997 0,7 z"
       id="path4320-2"
       inkscape:connector-curvature="0" />
    <rect
       y="526.79797"
       x="375.89221"
       height="10.999983"
       width="0"
       id="rect4035-2"
       style="fill:#ffffff;fill-opacity:1;stroke:none" />
    <rect
       y="525.79797"
       x="375.57144"
       height="10.999983"
       width="0"
       id="rect4035-4-6"
       style="fill:#ffffff;fill-opacity:1;stroke:none" />
    <rect
       y="525.68414"
       x="374.03558"
       height="11.113901"
       width="0"
       id="rect4035-3-3"
       style="fill:#fbd2bf;fill-opacity:1;stroke:none" />
    <rect
       y="525.79797"
       x="375.57144"
       height="10.999983"
       width="0"
       id="rect4035-1-2"
       style="fill:#fbd2bf;fill-opacity:1;stroke:none" />
    <rect
       y="525.79797"
       x="375.57144"
       height="10.999983"
       width="0"
       id="rect4035-5"
       style="fill:#fbfbfb;fill-opacity:1;stroke:none" />
    <g
       style="fill:#fcbcbe;fill-opacity:1"
       inkscape:label="Capa 1"
       id="layer1-4"
       transform="matrix(1.000664,0,0,1.0019257,392.57554,-515.56347)">
      <path
         style="fill:#fcbcbe;fill-opacity:1"
         inkscape:connector-curvature="0"
         d="m 3.8563926,1038.3619 c -0.1620039,0.01 -0.3360071,0 -0.5270111,0.132 -1.7040376,0.7323 -0.5610818,2.7413 1.610965,4.2706 0.013004,-0.2881 0.1330718,-0.9155 0.1300718,-1.1916 -1.8530404,-1.2688 -2.9370637,-2.504 -1.7560385,-2.9937 1.2450273,-0.5162 1.6314446,0.8931 1.6534449,2.9385 0.1160024,0.12 0.9195931,0.6531 1.0415955,0.7372 -0.045,-1.8654 -1.0380041,-3.7694 -1.9920247,-3.8774 -0.051,-0.01 -0.1070024,-0.01 -0.1610035,-0.01 m 1.734762,3.2454 -0.3877326,-0.1508 -0.3214651,0.2163 -0.064748,0.6807 0.4060512,0.311 0.1685119,0.2258 c 1.2500277,0.8283 2.314987,1.4663 3.7160175,1.9933 l 0.8737343,0.1296 0.5750118,0 c 0.530011,-0.3121 0.214005,-0.4322 2.140047,-0.6722 l -2.170047,0.168 c -1.6740362,-0.6482 -3.3823484,-1.5791 -4.936383,-2.5947 m 3.8199596,2.7152 c 0.2510051,0 2.2094464,-0.1697 2.9884634,-0.2417 0.771017,-0.1201 1.718038,-0.1561 1.539034,0.7442 0.204004,-0.4801 -0.260838,-1.2952 -0.921853,-1.4392 -1.022022,-0.2281 -2.643825,0.3974 -3.2268372,0.5895 m 0.9396202,0.2495 c -0.304006,0.1201 -0.9985291,0.2069 -1.326536,0.3149 0.4650108,0.2401 2.79971,1.1011 3.763731,0.921 0.154003,0 0.804875,-0.4676 0.820876,-0.8038 -0.05,0.6122 -2.904063,0.1561 -3.258071,-0.4441 m 0.635014,0.011 c -0.250006,-0.12 -1.4206556,-0.1141 -1.6796614,-0.2101 -1.4666569,0.5124 -3.4394495,1.7154 -4.8514807,2.5268 l -0.4090085,0.1201 c -0.078868,0.5604 -0.4246069,0.7534 -0.740016,1.1163 l 0.4780107,0.4802 0.3740078,-0.6122 c 1.6530354,-0.9963 4.9211068,-2.606 6.8271481,-3.3791 m -6.8271481,3.3791 c -0.2020041,0.12 -0.3950083,0.2401 -0.5780127,0.3601 -0.424009,1.2016 -0.9180196,2.0106 -1.3900303,1.9758 0.7290164,0.3481 2.2992398,-1.3673 2.828251,-2.9806 m -2.828251,2.9806 c -1.1120236,-0.6602 1.2418265,-1.8633 1.7688375,-2.2126 0.1190029,-0.3361 -0.2063133,-0.893 -0.1003117,-1.2892 -1.6600363,1.0324 -2.6415472,2.5259 -2.0845351,3.2341 0.1340029,0.1681 0.276006,0.2521 0.4170093,0.2641 m 1.615552,-2.5151 c 0.077302,-0.3094 1.1027298,-1.0131 1.2877338,-1.1212 0.2480895,-1.9505 0.259907,-2.1431 0.4706356,-3.6594 -0.1260022,-0.12 -0.9015505,-0.7238 -1.0215527,-0.8078 -0.1489201,1.6205 -0.4289977,3.8165 -0.8250059,5.2833"
         id="path26"
         sodipodi:nodetypes="ccccccccccccccccccccccccccccccccccccccccccccccccccccc" />
    </g>
  </g>
  <g
     transform="matrix(1.1363626,0,0,1.1363626,-298.36106,-486.22443)"
     id="layer1-55"
     inkscape:label="Capa 1">
    <path
       sodipodi:nodetypes="cccccccc"
       id="rect3500-52"
       d="m 389.57144,517.79801 0,27.99999 14.99999,0 7.00003,-7 -3e-5,-14.24137 0,-6.75862 -7,0 z"
       style="fill:url(#linearGradient4306-9);fill-opacity:1;stroke:none"
       inkscape:connector-curvature="0" />
    <rect
       y="544.79797"
       x="389.57144"
       height="0.99997306"
       width="14.999983"
       id="rect4169-96"
       style="opacity:1;fill:#2e3132;fill-opacity:0.29411765;stroke:none" />
    <rect
       y="517.79797"
       x="389.57144"
       height="1.0000261"
       width="21.999994"
       id="rect4236-37"
       style="opacity:1;fill:#ffffff;fill-opacity:0.41176471;stroke:none" />
    <path
       sodipodi:nodetypes="cccc"
       inkscape:connector-curvature="0"
       id="path4314-7"
       d="m 411.57144,538.798 -7.00001,7 0,-7 z"
       style="fill:url(#linearGradient4357-1);fill-opacity:1;fill-rule:evenodd;stroke:none;stroke-width:1px;stroke-linecap:butt;stroke-linejoin:miter;stroke-opacity:1" />
    <path
       sodipodi:nodetypes="cccc"
       style="opacity:0.2;fill:url(#linearGradient4509);fill-opacity:1;fill-rule:evenodd;stroke:none;stroke-width:1px;stroke-linecap:butt;stroke-linejoin:miter;stroke-opacity:1"
       d="m 397.57143,545.79797 7,-6.99997 0,7 z"
       id="path4320-4"
       inkscape:connector-curvature="0" />
    <rect
       y="526.79797"
       x="375.89221"
       height="10.999983"
       width="0"
       id="rect4035-0"
       style="fill:#ffffff;fill-opacity:1;stroke:none" />
    <rect
       y="525.79797"
       x="375.57144"
       height="10.999983"
       width="0"
       id="rect4035-4-3"
       style="fill:#ffffff;fill-opacity:1;stroke:none" />
    <rect
       y="525.68414"
       x="374.03558"
       height="11.113901"
       width="0"
       id="rect4035-3-2"
       style="fill:#fbd2bf;fill-opacity:1;stroke:none" />
    <rect
       y="525.79797"
       x="375.57144"
       height="10.999983"
       width="0"
       id="rect4035-1-5"
       style="fill:#fbd2bf;fill-opacity:1;stroke:none" />
    <rect
       y="525.79797"
       x="375.57144"
       height="10.999983"
       width="0"
       id="rect4035-5-0"
       style="fill:#fbfbfb;fill-opacity:1;stroke:none" />
    <rect
       y="525.79797"
       x="375.57144"
       height="10.999983"
       width="0"
       id="rect4035-8-5"
       style="fill:#fffcf9;fill-opacity:1;stroke:none" />
    <rect
       y="525.79797"
       x="375.57144"
       height="10.999983"
       width="0"
       id="rect4035-44"
       style="fill:#e8d9eb;fill-opacity:1;stroke:none" />
    <rect
       y="525.79797"
       x="375.57144"
       height="10.999983"
       width="0"
       id="rect4035-7"
       style="fill:#e8d9eb;fill-opacity:1;stroke:none" />
    <g
       style="fill:#aa810a;fill-opacity:1"
       inkscape:label="Capa 1"
       id="layer1-9"
       transform="translate(392.57143,-513.5642)">
      <path
         inkscape:connector-curvature="0"
         style="fill:#aa810a;fill-opacity:1;stroke:none"
         d="m 2,1038.3622 0,12 12,0 0,-12 z m 1,1 4,0 0,1 1,0 0,-1 5,0 0,10 -10,0 z m 5,1 0,1 1,0 0,-1 z m 0,1 -1,0 0,1 1,0 z m 0,1 0,1 1,0 0,-1 z m 0,1 -1,0 0,1 1,0 z m 0,1 0,1 1,0 0,-1 z m 0,1 -1,0 0,1 0,1 2,0 0,-1 0,0 -1,0 z"
         id="rect4173"
         sodipodi:nodetypes="cccccccccccccccccccccccccccccccccccccccccccccccc" />
    </g>
  </g>
  <g
     transform="matrix(1.1363626,0,0,1.1363626,-240.69438,-442.22443)"
     id="layer1-2"
     inkscape:label="Capa 1">
    <path
       sodipodi:nodetypes="cccccccc"
       id="rect3500-3"
       d="m 389.57144,517.79801 0,27.99999 14.99999,0 7.00003,-7 -3e-5,-14.24137 0,-6.75862 -7,0 z"
       style="fill:url(#linearGradient4306-92);fill-opacity:1;stroke:none"
       inkscape:connector-curvature="0" />
    <rect
       y="544.79797"
       x="389.57144"
       height="0.99997306"
       width="14.999983"
       id="rect4169-2"
       style="opacity:1;fill:#2e3132;fill-opacity:0.29411765;stroke:none" />
    <rect
       y="517.79797"
       x="389.57144"
       height="1.0000261"
       width="21.999994"
       id="rect4236-49"
       style="opacity:1;fill:#ffffff;fill-opacity:0.40983605;stroke:none" />
    <path
       sodipodi:nodetypes="cccc"
       inkscape:connector-curvature="0"
       id="path4314-0"
       d="m 411.57144,538.798 -7.00001,7 0,-7 z"
       style="fill:url(#linearGradient4357-41);fill-opacity:1;fill-rule:evenodd;stroke:none;stroke-width:1px;stroke-linecap:butt;stroke-linejoin:miter;stroke-opacity:1" />
    <path
       sodipodi:nodetypes="cccc"
       style="opacity:0.2;fill:url(#linearGradient4511);fill-opacity:1;fill-rule:evenodd;stroke:none;stroke-width:1px;stroke-linecap:butt;stroke-linejoin:miter;stroke-opacity:1"
       d="m 397.57143,545.79797 7,-6.99997 0,7 z"
       id="path4320-6"
       inkscape:connector-curvature="0" />
    <g
       style="fill:#ffffff;fill-opacity:1"
       inkscape:label="Capa 1"
       id="layer1-7-9"
       transform="translate(392.57143,-514.5642)" />
    <rect
       y="525.79797"
       x="375.57144"
       height="10.999983"
       width="0"
       id="rect4035-6"
       style="fill:#036b53;fill-opacity:1;stroke:none" />
    <path
       id="rect4139-9"
       d="m 396.57143,524.798 c -1.108,0 -2,0.892 -2,2 0,1.108 0.892,2 2,2 0.503,0 0.95592,-0.18973 1.30664,-0.49414 0.43078,0.73415 0.69336,1.57738 0.69336,2.49414 0,0.91676 -0.26258,1.75999 -0.69336,2.49414 -0.35072,-0.30442 -0.80364,-0.49414 -1.30664,-0.49414 -1.108,0 -2,0.892 -2,2 0,1.108 0.892,2 2,2 0.74107,0 1.37905,-0.4042 1.72461,-1 l 5.27539,0 0,1 3,0 0,-3 -3,0 0,1 -5,0 c 0,-0.19695 -0.0373,-0.383 -0.0898,-0.5625 0.68341,-0.97209 1.08984,-2.15337 1.08984,-3.4375 0,-1.2799 -0.41662,-2.44727 -1.0957,-3.41797 0.0563,-0.18526 0.0957,-0.37788 0.0957,-0.58203 l 4,0 0,2 4,0 0,-4 -4,0 0,1 -4.27539,0 c -0.34556,-0.5958 -0.98354,-1 -1.72461,-1 z m 0,1 c 0.554,0 1,0.446 1,1 0,0.554 -0.446,1 -1,1 -0.554,0 -1,-0.446 -1,-1 0,-0.554 0.446,-1 1,-1 z m 7,0 2,0 0,2 -2,0 0,-2 z m -7,8 c 0.554,0 1,0.446 1,1 0,0.554 -0.446,1 -1,1 -0.554,0 -1,-0.446 -1,-1 0,-0.554 0.446,-1 1,-1 z m 8,1 1,0 0,1 -1,0 0,-1 z"
       style="color:#000000;clip-rule:nonzero;display:inline;overflow:visible;visibility:visible;opacity:1;isolation:auto;mix-blend-mode:normal;color-interpolation:sRGB;color-interpolation-filters:linearRGB;solid-color:#000000;solid-opacity:1;fill:#036b53;fill-opacity:1;fill-rule:nonzero;stroke:none;stroke-width:1;stroke-linecap:butt;stroke-linejoin:miter;stroke-miterlimit:4;stroke-dasharray:none;stroke-dashoffset:0;stroke-opacity:1;color-rendering:auto;image-rendering:auto;shape-rendering:auto;text-rendering:auto;enable-background:accumulate"
       inkscape:connector-curvature="0" />
  </g>
  <g
     transform="matrix(1.1363626,0,0,1.1363626,-356.02773,-442.22443)"
     id="layer1-19"
     inkscape:label="Capa 1">
    <path
       sodipodi:nodetypes="cccccccc"
       id="rect3500-0"
       d="m 389.57144,517.79801 0,27.99999 14.99999,0 7.00003,-7 -3e-5,-14.24137 0,-6.75862 -7,0 z"
       style="fill:url(#linearGradient5295);fill-opacity:1;stroke:none"
       inkscape:connector-curvature="0" />
    <rect
       y="544.79797"
       x="389.57144"
       height="0.99997306"
       width="14.999983"
       id="rect4169-95"
       style="opacity:1;fill:#2e3132;fill-opacity:0.29411765;stroke:none" />
    <rect
       y="517.79797"
       x="389.57144"
       height="1.0000261"
       width="21.999994"
       id="rect4236-23"
       style="opacity:1;fill:#ffffff;fill-opacity:0.41176471;stroke:none" />
    <path
       sodipodi:nodetypes="cccc"
       inkscape:connector-curvature="0"
       id="path4314-97"
       d="m 411.57144,538.798 -7.00001,7 0,-7 z"
       style="fill:url(#linearGradient5297);fill-opacity:1;fill-rule:evenodd;stroke:none;stroke-width:1px;stroke-linecap:butt;stroke-linejoin:miter;stroke-opacity:1" />
    <path
       sodipodi:nodetypes="cccc"
       style="opacity:0.2;fill:url(#linearGradient4513);fill-opacity:1;fill-rule:evenodd;stroke:none;stroke-width:1px;stroke-linecap:butt;stroke-linejoin:miter;stroke-opacity:1"
       d="m 397.57143,545.79797 7,-6.99997 0,7 z"
       id="path4320-7"
       inkscape:connector-curvature="0" />
    <rect
       y="526.79797"
       x="375.89221"
       height="10.999983"
       width="0"
       id="rect4035-07"
       style="fill:#ffffff;fill-opacity:1;stroke:none" />
    <rect
       y="525.79797"
       x="375.57144"
       height="10.999983"
       width="0"
       id="rect4035-4-5"
       style="fill:#ffffff;fill-opacity:1;stroke:none" />
    <rect
       y="525.68414"
       x="374.03558"
       height="11.113901"
       width="0"
       id="rect4035-3-9"
       style="fill:#fbd2bf;fill-opacity:1;stroke:none" />
    <rect
       y="525.79797"
       x="375.57144"
       height="10.999983"
       width="0"
       id="rect4035-1-52"
       style="fill:#fbd2bf;fill-opacity:1;stroke:none" />
    <rect
       y="525.79797"
       x="375.57144"
       height="10.999983"
       width="0"
       id="rect4035-5-6"
       style="fill:#fbfbfb;fill-opacity:1;stroke:none" />
    <g
       style="fill:#fffcf9;fill-opacity:1"
       inkscape:label="Capa 1"
       id="layer1-9-5"
       transform="translate(392.57143,-513.5642)">
      <rect
         style="fill:#fffcf9;fill-opacity:1;stroke:none"
         id="rect4035-2-5"
         width="0"
         height="10.999983"
         x="-17"
         y="1039.3622" />
      <path
         inkscape:connector-curvature="0"
         d="m 13.634953,1038.3678 a 1.500133,6.7506007 44.989453 0 0 -5.5835433,3.8242 1.500133,6.7506007 44.989453 0 0 -2.657025,3.0857 c 0.8069772,0.2571 1.4359595,0.8862 1.6929526,1.6935 a 1.500133,6.7506007 44.989453 0 0 3.0847227,-2.6579 1.500133,6.7506007 44.989453 0 0 3.711626,-5.8345 1.500133,6.7506007 44.989453 0 0 -0.249013,-0.1114 m -8.6347572,7.9939 C 2,1047.1655 4.249937,1049.0649 2,1050.3622 c 2.9999158,0 4.4998734,-1.5014 4.4998734,-2.5026 0,-0.4991 0.051,-1.4173 -1.4999576,-1.5003"
         id="path88"
         style="fill:#fffcf9;fill-opacity:1" />
    </g>
  </g>
  <g
     transform="matrix(1.1363626,0,0,1.1363626,-298.36106,-442.22443)"
     id="layer1-09"
     inkscape:label="Capa 1">
    <path
       sodipodi:nodetypes="cccccccc"
       id="rect3500-1"
       d="m 389.57144,517.79801 0,27.99999 14.99999,0 7.00003,-7 -3e-5,-14.24137 0,-6.75862 -7,0 z"
       style="fill:url(#linearGradient4306-83);fill-opacity:1;stroke:none"
       inkscape:connector-curvature="0" />
    <rect
       y="544.79797"
       x="389.57144"
       height="0.99997306"
       width="14.999983"
       id="rect4169-6"
       style="opacity:1;fill:#2e3132;fill-opacity:0.29411765;stroke:none" />
    <rect
       y="517.79797"
       x="389.57144"
       height="1.0000261"
       width="21.999994"
       id="rect4236-34"
       style="opacity:1;fill:#ffffff;fill-opacity:0.41176471;stroke:none" />
    <path
       sodipodi:nodetypes="cccc"
       inkscape:connector-curvature="0"
       id="path4314-70"
       d="m 411.57144,538.798 -7.00001,7 0,-7 z"
       style="fill:url(#linearGradient4357-33);fill-opacity:1;fill-rule:evenodd;stroke:none;stroke-width:1px;stroke-linecap:butt;stroke-linejoin:miter;stroke-opacity:1" />
    <path
       sodipodi:nodetypes="cccc"
       style="opacity:0.2;fill:url(#linearGradient4515);fill-opacity:1;fill-rule:evenodd;stroke:none;stroke-width:1px;stroke-linecap:butt;stroke-linejoin:miter;stroke-opacity:1"
       d="m 397.57143,545.79797 7,-6.99997 0,7 z"
       id="path4320-29"
       inkscape:connector-curvature="0" />
    <rect
       y="526.79797"
       x="375.89221"
       height="10.999983"
       width="0"
       id="rect4035-9"
       style="fill:#ffffff;fill-opacity:1;stroke:none" />
    <rect
       y="525.79797"
       x="375.57144"
       height="10.999983"
       width="0"
       id="rect4035-4-71"
       style="fill:#ffffff;fill-opacity:1;stroke:none" />
    <rect
       y="525.68414"
       x="374.03558"
       height="11.113901"
       width="0"
       id="rect4035-3-6"
       style="fill:#fbd2bf;fill-opacity:1;stroke:none" />
    <rect
       y="525.79797"
       x="375.57144"
       height="10.999983"
       width="0"
       id="rect4035-1-0"
       style="fill:#fbd2bf;fill-opacity:1;stroke:none" />
    <rect
       y="525.79797"
       x="375.57144"
       height="10.999983"
       width="0"
       id="rect4035-5-71"
       style="fill:#fbfbfb;fill-opacity:1;stroke:none" />
    <rect
       y="525.79797"
       x="375.57144"
       height="10.999983"
       width="0"
       id="rect4035-8-75"
       style="fill:#fffcf9;fill-opacity:1;stroke:none" />
    <rect
       y="525.79797"
       x="375.57144"
       height="10.999983"
       width="0"
       id="rect4035-44-5"
       style="fill:#e8d9eb;fill-opacity:1;stroke:none" />
    <rect
       y="525.79797"
       x="375.57144"
       height="10.999983"
       width="0"
       id="rect4035-7-0"
       style="fill:#e8d9eb;fill-opacity:1;stroke:none" />
    <g
       style="fill:#e3f5df;fill-opacity:1"
       inkscape:label="Capa 1"
       id="layer1-96"
       transform="translate(392.57143,-513.56419)">
      <path
         inkscape:connector-curvature="0"
         style="opacity:1;fill:#e3f5df;fill-opacity:1;stroke:none;stroke-opacity:1"
         d="m 2,2 0,8.992188 -1,1 0,0.0078 1,0 0,2 12,0 0,-2.998047 1,0 0,-0.0098 L 14,9.9921875 14,2 2,2 Z M 3,3 13,3 13,8.9921875 9.0058594,5 9,5 l 0,0.00195 -0.00586,0 L 6.4980469,7.4941406 6.0039062,7 6,7 5.9960938,7 3,9.9941406 3,3 Z M 5,4 C 4.446,4 4,4.446 4,5 4,5.554 4.446,6 5,6 5.554,6 6,5.554 6,5 6,4.446 5.554,4 5,4 Z M 9,6.4101562 13,10.408203 13,11 10.007812,11 7.2070312,8.203125 9,6.4101562 Z m -3,2 0.5,0.5 L 8.5898438,11 3.4082031,11 6,8.4101562 Z M 3,12 l 6.5898438,0 0.00195,0.002 1.4082032,0 0,-0.002 2,0 0,1 -10.0000001,0 0,-1 z"
         transform="translate(0,1036.3622)"
         id="rect4139-0" />
    </g>
  </g>
  <g
     transform="matrix(1.1363626,0,0,1.1363626,-413.6944,-442.22443)"
     id="layer1-90"
     inkscape:label="Capa 1">
    <path
       sodipodi:nodetypes="cccccccc"
       id="rect3500-07"
       d="m 389.57144,517.79801 0,27.99999 14.99999,0 7.00003,-7 -3e-5,-14.24137 0,-6.75862 -7,0 z"
       style="fill:url(#linearGradient4306-2);fill-opacity:1;stroke:none"
       inkscape:connector-curvature="0" />
    <rect
       y="544.79797"
       x="389.57144"
       height="0.99997306"
       width="14.999983"
       id="rect4169-45"
       style="opacity:1;fill:#2e3132;fill-opacity:0.29411765;stroke:none" />
    <rect
       y="517.79797"
       x="389.57144"
       height="1.0000261"
       width="21.999994"
       id="rect4236-27"
       style="opacity:1;fill:#ffffff;fill-opacity:0.41176471;stroke:none" />
    <path
       sodipodi:nodetypes="cccc"
       inkscape:connector-curvature="0"
       id="path4314-4"
       d="m 411.57144,538.798 -7.00001,7 0,-7 z"
       style="fill:url(#linearGradient4357-8);fill-opacity:1;fill-rule:evenodd;stroke:none;stroke-width:1px;stroke-linecap:butt;stroke-linejoin:miter;stroke-opacity:1" />
    <path
       sodipodi:nodetypes="cccc"
       style="opacity:0.2;fill:url(#linearGradient5285);fill-opacity:1;fill-rule:evenodd;stroke:none;stroke-width:1px;stroke-linecap:butt;stroke-linejoin:miter;stroke-opacity:1"
       d="m 397.57143,545.79797 7,-6.99997 0,7 z"
       id="path4320-82"
       inkscape:connector-curvature="0" />
    <rect
       y="526.79797"
       x="375.89221"
       height="10.999983"
       width="0"
       id="rect4035-38"
       style="fill:#ffffff;fill-opacity:1;stroke:none" />
    <rect
       y="525.79797"
       x="375.57144"
       height="10.999983"
       width="0"
       id="rect4035-4-26"
       style="fill:#ffffff;fill-opacity:1;stroke:none" />
    <rect
       y="525.68414"
       x="374.03558"
       height="11.113901"
       width="0"
       id="rect4035-3-7"
       style="fill:#fbd2bf;fill-opacity:1;stroke:none" />
    <rect
       y="525.79797"
       x="375.57144"
       height="10.999983"
       width="0"
       id="rect4035-1-9"
       style="fill:#fbd2bf;fill-opacity:1;stroke:none" />
    <path
       id="rect4020-1"
       d="m 394.57143,524.798 0,1 6,0 0,-1 -6,0 z m 0,3 0,1 12,0 0,-1 -12,0 z m 0,3 0,1 6,0 0,-1 -6,0 z m 0,2 0,1 12,0 0,-1 -12,0 z m 0,3 0,1 9,0 0,-1 -9,0 z"
       style="color:#000000;display:inline;overflow:visible;visibility:visible;fill:#5e6b78;fill-opacity:1;fill-rule:nonzero;stroke:none;stroke-width:1.39999998;marker:none;enable-background:accumulate"
       inkscape:connector-curvature="0" />
  </g>
</svg>
