<?xml version="1.0" encoding="UTF-8" standalone="no"?>
<svg
   xmlns:dc="http://purl.org/dc/elements/1.1/"
   xmlns:cc="http://creativecommons.org/ns#"
   xmlns:rdf="http://www.w3.org/1999/02/22-rdf-syntax-ns#"
   xmlns:svg="http://www.w3.org/2000/svg"
   xmlns="http://www.w3.org/2000/svg"
   xmlns:xlink="http://www.w3.org/1999/xlink"
   xmlns:sodipodi="http://sodipodi.sourceforge.net/DTD/sodipodi-0.dtd"
   xmlns:inkscape="http://www.inkscape.org/namespaces/inkscape"
   viewBox="0 0 256 256"
   id="svg2"
   version="1.1"
   inkscape:version="0.91 r13725"
   sodipodi:docname="org.kde.plasma.systemmonitor.diskactivity.svg">
  <metadata
     id="metadata10">
    <rdf:RDF>
      <cc:Work
         rdf:about="">
        <dc:format>image/svg+xml</dc:format>
        <dc:type
           rdf:resource="http://purl.org/dc/dcmitype/StillImage" />
        <dc:title />
      </cc:Work>
    </rdf:RDF>
  </metadata>
  <sodipodi:namedview
     pagecolor="#ffffff"
     bordercolor="#666666"
     borderopacity="1"
     objecttolerance="10"
     gridtolerance="10"
     guidetolerance="10"
     inkscape:pageopacity="0"
     inkscape:pageshadow="2"
     inkscape:window-width="1920"
     inkscape:window-height="1050"
     id="namedview8"
     showgrid="false"
     inkscape:zoom="1.84375"
     inkscape:cx="55.358508"
     inkscape:cy="105.19616"
     inkscape:window-x="0"
     inkscape:window-y="30"
     inkscape:window-maximized="1"
     inkscape:current-layer="svg2" />
  <defs
     id="defs4">
    <style
       id="current-color-scheme"
       type="text/css">
      .ColorScheme-Text {
        color:#f2f2f2;
      }
      .ColorScheme-Background {
        color:#31363b;
      }
      .ColorScheme-Highlight {
        color:#3daee9;
      }
      .ColorScheme-ViewText {
        color:#31363b;
      }
      .ColorScheme-ViewBackground {
        color:#314045;
      }
      .ColorScheme-ViewHover {
        color:#93cee9;
      }
      .ColorScheme-ViewFocus{
        color:#3daee9;
      }
      .ColorScheme-ButtonText {
        color:#31363b;
      }
      .ColorScheme-ButtonBackground {
        color:#31363b;
      }
      .ColorScheme-ButtonHover {
        color:#93cee9;
      }
      .ColorScheme-ButtonFocus{
        color:#3daee9;
      }
      </style>
    <linearGradient
       inkscape:collect="always"
       xlink:href="#linearGradient4303"
       id="linearGradient4158"
       x1="409.57144"
       y1="543.79797"
       x2="409.57144"
       y2="503.798"
       gradientUnits="userSpaceOnUse"
       gradientTransform="matrix(1.1250015,0,0,1,-59.071952,-8.0000193)" />
    <linearGradient
       id="linearGradient4303"
       inkscape:collect="always">
      <stop
         id="stop4305"
         offset="0"
         style="stop-color:#c6cdd1;stop-opacity:1" />
      <stop
         id="stop4307"
         offset="1"
         style="stop-color:#e0e5e7;stop-opacity:1" />
    </linearGradient>
    <linearGradient
       gradientUnits="userSpaceOnUse"
       y2="532.79797"
       x2="419.57144"
       y1="512.79797"
       x1="399.57144"
       id="linearGradient4881"
       xlink:href="#linearGradient4400"
       inkscape:collect="always" />
    <linearGradient
       id="linearGradient4400"
       inkscape:collect="always">
      <stop
         id="stop4402"
         offset="0"
         style="stop-color:#020303;stop-opacity:1" />
      <stop
         id="stop4404"
         offset="1"
         style="stop-color:#424649;stop-opacity:0" />
    </linearGradient>
    <linearGradient
       gradientUnits="userSpaceOnUse"
       y2="8.0000267"
       x2="31.999989"
       y1="52.000027"
       x1="31.999989"
       id="linearGradient4659"
       xlink:href="#linearGradient4903"
       inkscape:collect="always" />
    <linearGradient
       inkscape:collect="always"
       id="linearGradient4903">
      <stop
         style="stop-color:#eef1f2;stop-opacity:1"
         offset="0"
         id="stop4905" />
      <stop
         style="stop-color:#f9fafb;stop-opacity:1"
         offset="1"
         id="stop4907" />
    </linearGradient>
    <linearGradient
       gradientUnits="userSpaceOnUse"
       y2="41"
       x2="42.999985"
       y1="21"
       x1="22.999987"
       id="linearGradient4231"
       xlink:href="#linearGradient4400"
       inkscape:collect="always" />
    <linearGradient
       gradientUnits="userSpaceOnUse"
       y2="1033.3622"
       x2="10.999989"
       y1="1050.3622"
       x1="10.999989"
       id="linearGradient4793"
       xlink:href="#linearGradient4159"
       inkscape:collect="always" />
    <linearGradient
       inkscape:collect="always"
       id="linearGradient4159">
      <stop
         style="stop-color:#2a2c2f;stop-opacity:1"
         offset="0"
         id="stop4161" />
      <stop
         style="stop-color:#424649;stop-opacity:1"
         offset="1"
         id="stop4163" />
    </linearGradient>
    <linearGradient
       gradientTransform="translate(-1.6503906e-6,-29)"
       gradientUnits="userSpaceOnUse"
       y2="497.79797"
       x2="408.57144"
       y1="549.79797"
       x1="408.57144"
       id="linearGradient4291-1"
       xlink:href="#linearGradient4251-0"
       inkscape:collect="always" />
    <linearGradient
       inkscape:collect="always"
       id="linearGradient4251-0">
      <stop
         style="stop-color:#63984b;stop-opacity:1"
         offset="0"
         id="stop4253-4" />
      <stop
         style="stop-color:#8fc278;stop-opacity:1"
         offset="1"
         id="stop4255-2" />
    </linearGradient>
    <linearGradient
       gradientTransform="translate(7.9999992,-11)"
       y2="527.79797"
       x2="417.57144"
       y1="518.79797"
       x1="408.57144"
       gradientUnits="userSpaceOnUse"
       id="linearGradient4259"
       xlink:href="#linearGradient4227"
       inkscape:collect="always" />
    <linearGradient
       id="linearGradient4227"
       inkscape:collect="always">
      <stop
         id="stop4229"
         offset="0"
         style="stop-color:#292c2f;stop-opacity:1" />
      <stop
         id="stop4231"
         offset="1"
         style="stop-color:#000000;stop-opacity:0;" />
    </linearGradient>
    <linearGradient
       y2="527.79797"
       x2="417.57144"
       y1="518.79797"
       x1="408.57144"
       gradientTransform="translate(15.999999,-11)"
       gradientUnits="userSpaceOnUse"
       id="linearGradient4263"
       xlink:href="#linearGradient4227"
       inkscape:collect="always" />
    <linearGradient
       gradientTransform="translate(-8.2519529e-7,-11)"
       gradientUnits="userSpaceOnUse"
       y2="527.79797"
       x2="417.57144"
       y1="518.79797"
       x1="408.57144"
       id="linearGradient4184"
       xlink:href="#linearGradient4227"
       inkscape:collect="always" />
    <linearGradient
       gradientTransform="matrix(0.85714287,0,0,0.8888889,60.653035,46.644314)"
       gradientUnits="userSpaceOnUse"
       y2="518.79797"
       x2="428.57144"
       y1="527.79797"
       x1="428.57144"
       id="linearGradient4183"
       xlink:href="#linearGradient4159"
       inkscape:collect="always" />
    <linearGradient
       gradientTransform="translate(-8.2519529e-7,-11)"
       gradientUnits="userSpaceOnUse"
       y2="519.79797"
       x2="398.57144"
       y1="526.79797"
       x1="398.57144"
       id="linearGradient4455"
       xlink:href="#linearGradient4903"
       inkscape:collect="always" />
    <linearGradient
       y2="518.79797"
       x2="428.57144"
       y1="527.79797"
       x1="428.57144"
       gradientTransform="matrix(0.85714287,0,0,0.8888889,52.653035,46.644314)"
       gradientUnits="userSpaceOnUse"
       id="linearGradient4281"
       xlink:href="#linearGradient4159"
       inkscape:collect="always" />
    <linearGradient
       y2="518.79797"
       x2="428.57144"
       y1="527.79797"
       x1="428.57144"
       gradientTransform="matrix(0.85714287,0,0,0.8888889,44.653035,46.644314)"
       gradientUnits="userSpaceOnUse"
       id="linearGradient4324"
       xlink:href="#linearGradient4159"
       inkscape:collect="always" />
    <linearGradient
       y2="497.79797"
       x2="408.57144"
       y1="549.79797"
       x1="408.57144"
       gradientTransform="translate(-1.6503906e-6,-7)"
       gradientUnits="userSpaceOnUse"
       id="linearGradient4304"
       xlink:href="#linearGradient4251-0"
       inkscape:collect="always" />
    <linearGradient
       y2="527.79797"
       x2="417.57144"
       y1="518.79797"
       x1="408.57144"
       gradientTransform="translate(7.9999992,11)"
       gradientUnits="userSpaceOnUse"
       id="linearGradient4306"
       xlink:href="#linearGradient4227"
       inkscape:collect="always" />
    <linearGradient
       y2="527.79797"
       x2="417.57144"
       y1="518.79797"
       x1="408.57144"
       gradientTransform="translate(15.999999,11)"
       gradientUnits="userSpaceOnUse"
       id="linearGradient4308"
       xlink:href="#linearGradient4227"
       inkscape:collect="always" />
    <linearGradient
       y2="527.79797"
       x2="417.57144"
       y1="518.79797"
       x1="408.57144"
       gradientTransform="translate(-8.2519529e-7,11)"
       gradientUnits="userSpaceOnUse"
       id="linearGradient4310"
       xlink:href="#linearGradient4227"
       inkscape:collect="always" />
    <linearGradient
       y2="518.79797"
       x2="428.57144"
       y1="527.79797"
       x1="428.57144"
       gradientTransform="matrix(0.85714287,0,0,0.8888889,60.653035,68.644314)"
       gradientUnits="userSpaceOnUse"
       id="linearGradient4312"
       xlink:href="#linearGradient4159"
       inkscape:collect="always" />
    <linearGradient
       y2="519.79797"
       x2="398.57144"
       y1="526.79797"
       x1="398.57144"
       gradientTransform="translate(-8.2519529e-7,11)"
       gradientUnits="userSpaceOnUse"
       id="linearGradient4314"
       xlink:href="#linearGradient4903"
       inkscape:collect="always" />
    <linearGradient
       y2="518.79797"
       x2="428.57144"
       y1="527.79797"
       x1="428.57144"
       gradientTransform="matrix(0.85714287,0,0,0.8888889,52.653035,68.644314)"
       gradientUnits="userSpaceOnUse"
       id="linearGradient4316"
       xlink:href="#linearGradient4159"
       inkscape:collect="always" />
    <linearGradient
       y2="518.79797"
       x2="428.57144"
       y1="527.79797"
       x1="428.57144"
       gradientTransform="matrix(0.85714287,0,0,0.8888889,44.653035,68.644314)"
       gradientUnits="userSpaceOnUse"
       id="linearGradient4318"
       xlink:href="#linearGradient4159"
       inkscape:collect="always" />
    <linearGradient
       inkscape:collect="always"
       xlink:href="#linearGradient4159"
       id="linearGradient4403"
       gradientUnits="userSpaceOnUse"
       x1="10.999989"
       y1="1050.3622"
       x2="10.999989"
       y2="1033.3622" />
  </defs>
  <path
     style="fill:currentColor;fill-opacity:0.5;stroke:none"
     d="m 16,10 224,0 c 3.324,0 6,2.676 6,6 l 0,224 c 0,3.324 -2.676,6 -6,6 l -224,0 c -3.324,0 -6,-2.676 -6,-6 L 10,16 c 0,-3.324 2.676,-6 6,-6 z"
     class="ColorScheme-ButtonText"
     id="rect4240" />
  <path
     style="fill:currentColor;fill-opacity:1;stroke:none"
     d="m 16,12 224,0 c 2.216,0 4,1.784 4,4 l 0,224 c 0,2.216 -1.784,4 -4,4 l -224,0 c -2.216,0 -4,-1.784 -4,-4 L 12,16 c 0,-2.216 1.784,-4 4,-4 z"
     class="ColorScheme-Background"
     id="rect4238" />
  <path
     style="fill:currentColor;fill-opacity:1;stroke:none"
     class="ColorScheme-Text"
     d="m 113.30273,28.36907 c -0.84635,0 -1.56575,0.251383 -2.1582,0.753906 -0.59245,0.497233 -1.03328,1.189453 -1.32422,2.078125 -0.28564,0.883382 -0.42969,1.933756 -0.42969,3.15039 0,0.878093 0.0771,1.677084 0.23047,2.396485 0.1587,0.714111 0.39242,1.343831 0.69922,1.888672 0.3121,0.539551 0.71818,0.958252 1.22071,1.259765 0.50781,0.296224 1.09521,0.445313 1.76171,0.445313 0.66122,0 1.24105,-0.149089 1.73829,-0.445313 0.50252,-0.301513 0.90104,-0.72469 1.19726,-1.269531 0.30151,-0.54484 0.52767,-1.172607 0.67578,-1.886719 0.14811,-0.714111 0.22071,-1.510579 0.22071,-2.388672 0,-0.91512 -0.0776,-1.736246 -0.23633,-2.460937 -0.15869,-0.72998 -0.39494,-1.355225 -0.70703,-1.878906 -0.30681,-0.528972 -0.70533,-0.934489 -1.19727,-1.214844 -0.48665,-0.285645 -1.05135,-0.427734 -1.69141,-0.427734 z m -58.445308,0.0625 -1.31836,0.0957 0,2.609375 0.06445,1.914062 c -0.126954,-0.232747 -0.261475,-0.431722 -0.404297,-0.595703 -0.137533,-0.169271 -0.306804,-0.325928 -0.507813,-0.46875 -0.201009,-0.148112 -0.442301,-0.257975 -0.722656,-0.332031 -0.280355,-0.07406 -0.596761,-0.111328 -0.951172,-0.111328 -1.11084,0 -1.991943,0.395996 -2.642578,1.189453 -0.645345,0.793457 -0.96875,1.83374 -0.96875,3.11914 0,1.354167 0.313314,2.429769 0.9375,3.228516 0.629476,0.793457 1.523193,1.189453 2.681641,1.189453 1.200765,0 2.072347,-0.547607 2.617187,-1.642578 l 0.119141,1.484375 1.095703,0 0,-11.679687 z m 29.921875,0 -1.302735,0.0957 0,11.583984 1.302735,0 0,-3.070312 0.904297,-0.857422 3.332031,3.927734 1.546875,0 -3.966797,-4.5625 3.666016,-3.832031 -1.595703,0 -3.935547,4.261719 0.04883,-1.730469 0,-5.816406 z m -62.429688,0.0957 0,11.583984 1.396485,0 0,-5.402344 6.029297,0 0,5.402344 1.396484,0 0,-11.583984 -1.396484,0 0,5.166015 -6.029297,0 0,-5.166015 -1.396485,0 z m 38.5625,0 0,11.583984 3.513672,0 c 1.85669,0 3.317627,-0.50529 4.38086,-1.515625 1.063232,-1.010335 1.59375,-2.446614 1.59375,-4.308594 0,-0.782877 -0.09725,-1.487711 -0.292969,-2.117187 -0.19572,-0.634766 -0.474284,-1.177328 -0.833984,-1.626953 -0.359701,-0.449626 -0.795492,-0.82544 -1.308594,-1.126953 -0.513102,-0.306804 -1.083415,-0.531006 -1.712891,-0.673828 -0.629476,-0.142823 -1.316081,-0.214844 -2.056641,-0.214844 l -3.283203,0 z m 12.400391,0 c -0.253906,0 -0.462972,0.07959 -0.626953,0.238281 -0.158692,0.153402 -0.238281,0.354899 -0.238281,0.603516 0,0.248616 0.07959,0.450683 0.238281,0.609375 0.163981,0.158691 0.373047,0.238281 0.626953,0.238281 0.248617,0 0.45516,-0.07959 0.619141,-0.238281 0.163981,-0.158692 0.246093,-0.360759 0.246093,-0.609375 0,-0.248617 -0.08211,-0.450114 -0.246093,-0.603516 C 73.772949,28.60686 73.566406,28.52727 73.3125,28.52727 Z m 21.923828,0 0,0.849609 1.650391,0 0,9.884766 -1.650391,0 0,0.849609 4.681641,0 0,-0.849609 -1.634766,0 0,-9.884766 1.634766,0 0,-0.849609 -4.681641,0 z m 11.251952,0 -4.83398,11.583984 1.14258,0 4.86523,-11.583984 -1.17383,0 z m 16.73242,0 -0.22851,11.583984 1.3164,0 0.11133,-7.148437 0,-2.738282 3.65039,8.59375 1.19727,0 3.67383,-8.498047 0,2.611329 0.11132,7.179687 1.30079,0 -0.23047,-11.583984 -1.66602,0 -3.76953,8.798828 -3.75195,-8.798828 -1.71485,0 z m 32.54883,0 c -0.25391,0 -0.46297,0.07959 -0.62695,0.238281 -0.15869,0.153402 -0.23828,0.354899 -0.23828,0.603516 0,0.248616 0.0796,0.450683 0.23828,0.609375 0.16398,0.158691 0.37304,0.238281 0.62695,0.238281 0.24862,0 0.45516,-0.07959 0.61914,-0.238281 0.16398,-0.158692 0.2461,-0.360759 0.2461,-0.609375 0,-0.248617 -0.0821,-0.450114 -0.2461,-0.603516 -0.15869,-0.158691 -0.36523,-0.238281 -0.61914,-0.238281 z m 4.84766,0.888672 -1.05469,0.08008 -0.21484,2.220703 -1.29297,0.08789 -0.0332,0.746093 1.29493,0 0,5.044922 c 0,0.513102 0.0448,0.928711 0.13476,1.246094 0.0899,0.317383 0.25163,0.578857 0.48438,0.785156 0.23803,0.206299 0.54435,0.350342 0.91992,0.429688 0.37557,0.07935 0.86629,0.11914 1.47461,0.11914 l 0.54883,0 0.0625,-0.904297 -0.66602,-0.0332 c -0.70353,-0.02645 -1.15641,-0.136312 -1.35742,-0.332031 -0.20101,-0.201009 -0.30078,-0.638753 -0.30078,-1.310547 l 0,-5.044922 2.2207,0 0,-0.833984 -2.2207,0 0,-2.300781 z m -47.31446,0.02344 c 1.68213,0 2.52344,1.620687 2.52344,4.863281 0,1.634522 -0.21916,2.87378 -0.6582,3.714844 -0.43376,0.835775 -1.05591,1.253906 -1.86524,1.253906 -0.8199,0 -1.45971,-0.420654 -1.91992,-1.261718 -0.45491,-0.846355 -0.68164,-2.080567 -0.68164,-3.699219 -0.005,-1.549886 0.22396,-2.747396 0.68945,-3.59375 0.4655,-0.851644 1.10279,-1.277344 1.91211,-1.277344 z m -50.994136,0.134766 1.824218,0 c 1.592204,0 2.799805,0.383382 3.625,1.15039 0.830486,0.761719 1.246094,1.963705 1.246094,3.603516 0,1.544596 -0.39095,2.717448 -1.173828,3.521484 -0.777588,0.798747 -1.937825,1.199219 -3.482422,1.199219 l -2.039062,0 0,-9.474609 z m -25.708985,1.96875 c -1.121419,0 -2.131998,0.209066 -3.03125,0.626953 l 0.357422,0.966797 c 0.386149,-0.18514 0.824463,-0.32723 1.316407,-0.427735 0.491943,-0.105794 0.952392,-0.158203 1.380859,-0.158203 0.634765,0 1.097738,0.149658 1.388672,0.451172 0.296224,0.301514 0.445312,0.75944 0.445312,1.373047 l 0,0.824219 -1.341797,0 c -1.348877,0 -2.332275,0.216064 -2.951172,0.644531 -0.613606,0.423177 -0.919921,1.088216 -0.919921,1.998047 0,0.761719 0.23177,1.356689 0.697265,1.785156 0.470785,0.428467 1.092936,0.642578 1.865235,0.642578 1.153157,0 2.089192,-0.440836 2.808593,-1.324219 l 0.142578,1.158204 1,0 0,-5.539063 c 0,-1.068522 -0.276041,-1.837809 -0.826171,-2.308594 -0.544841,-0.476074 -1.321696,-0.71289 -2.332032,-0.71289 z m 42.306641,0 c -0.878092,0 -1.560221,0.211588 -2.046875,0.634765 -0.486654,0.417888 -0.730469,0.968018 -0.730469,1.650391 0,0.55013 0.14152,0.998535 0.421875,1.347656 0.280355,0.343832 0.798259,0.637533 1.554688,0.88086 l 0.919922,0.294921 c 0.608317,0.19572 1.028971,0.402833 1.261718,0.625 0.232748,0.222168 0.34961,0.49821 0.34961,0.826172 0,0.476075 -0.139567,0.841797 -0.419922,1.095704 -0.280355,0.248616 -0.675781,0.373046 -1.183594,0.373046 -0.809326,0 -1.715657,-0.241292 -2.720703,-0.722656 l 0,1.103516 c 0.867513,0.412597 1.743571,0.617187 2.626953,0.617187 0.396729,0 0.760498,-0.04736 1.09375,-0.142578 0.338542,-0.09522 0.639811,-0.237305 0.904297,-0.427734 0.269775,-0.19043 0.481364,-0.444336 0.634766,-0.761719 0.153401,-0.322673 0.230468,-0.693441 0.230468,-1.111328 0,-0.338542 -0.03223,-0.624675 -0.0957,-0.857422 -0.06348,-0.238037 -0.178385,-0.459717 -0.347656,-0.666016 -0.169271,-0.206298 -0.405518,-0.38566 -0.707031,-0.539062 -0.296227,-0.158692 -0.679609,-0.312826 -1.150394,-0.460938 l -0.833984,-0.261718 c -0.544841,-0.174561 -0.901042,-0.338786 -1.070313,-0.492188 -0.169271,-0.153402 -0.253906,-0.402262 -0.253906,-0.746094 0,-0.407308 0.129476,-0.716145 0.388672,-0.927734 0.264486,-0.216878 0.700277,-0.324219 1.308594,-0.324219 0.682373,0 1.38916,0.184408 2.11914,0.554688 l 0.308594,-0.976563 c -0.793457,-0.391439 -1.64738,-0.585937 -2.5625,-0.585937 z m 61.30273,0 c -1.2325,0 -2.20076,0.401041 -2.90429,1.205078 -0.69824,0.798747 -1.04688,1.856689 -1.04688,3.173828 0,1.2854 0.35368,2.333252 1.0625,3.142578 0.70882,0.804037 1.67204,1.205078 2.88867,1.205078 1.19019,0 2.14836,-0.403564 2.87305,-1.21289 0.72469,-0.814616 1.08594,-1.859945 1.08594,-3.134766 0,-1.317139 -0.34863,-2.375081 -1.04688,-3.173828 -0.69824,-0.804037 -1.66902,-1.205078 -2.91211,-1.205078 z m 9.79883,0 c -1.26424,0 -2.21289,0.443359 -2.84765,1.332031 l -0.14258,-1.158203 -1.14258,0 0,8.394531 1.31641,0 0,-4.68164 c 0,-1.920167 0.86344,-2.878907 2.58789,-2.878907 0.64005,0 1.08593,0.191976 1.33984,0.578125 0.25391,0.38086 0.38086,0.950602 0.38086,1.707032 l 0,5.27539 1.31641,0 0,-5.132812 c 0,-1.153158 -0.22925,-2.014079 -0.68946,-2.580078 -0.45491,-0.57129 -1.1617,-0.855469 -2.11914,-0.855469 z m 18.09961,0 c -1.2325,0 -2.20076,0.401041 -2.9043,1.205078 -0.69824,0.798747 -1.04687,1.856689 -1.04687,3.173828 0,1.2854 0.35368,2.333252 1.0625,3.142578 0.70882,0.804037 1.67204,1.205078 2.88867,1.205078 1.19019,0 2.14836,-0.403564 2.87305,-1.21289 0.72469,-0.814616 1.08594,-1.859945 1.08594,-3.134766 0,-1.317139 -0.34864,-2.375081 -1.04688,-3.173828 -0.69824,-0.804037 -1.66903,-1.205078 -2.91211,-1.205078 z m -122.382811,0.08594 c -0.507812,0 -0.99292,0.144043 -1.453125,0.429688 -0.454915,0.280355 -0.84082,0.721191 -1.158203,1.324218 l -0.142578,-1.666015 -1.054687,0 0,8.394531 1.316406,0 0,-4.751953 c 0,-0.74585 0.233724,-1.378092 0.699219,-1.896484 0.470784,-0.518392 1.065755,-0.777344 1.785156,-0.777344 0.148112,0 0.327474,0.02018 0.539062,0.0625 l 0.05664,-1.078125 c -0.153402,-0.02645 -0.349854,-0.04102 -0.587891,-0.04102 z m 131.904301,0 c -0.50782,0 -0.99292,0.144043 -1.45313,0.429688 -0.45491,0.280355 -0.84082,0.721191 -1.1582,1.324218 l -0.14258,-1.666015 -1.05469,0 0,8.394531 1.31641,0 0,-4.751953 c 0,-0.74585 0.23372,-1.378092 0.69922,-1.896484 0.47078,-0.518392 1.06575,-0.777344 1.78515,-0.777344 0.14812,0 0.32748,0.02018 0.53907,0.0625 l 0.0566,-1.078125 c -0.1534,-0.02645 -0.34986,-0.04102 -0.58789,-0.04102 z m -104.974613,0.08789 0,8.394531 1.300781,0 0,-8.394531 -1.300781,0 z m 82.457033,0 0,8.394531 1.30078,0 0,-8.394531 -1.30078,0 z M 51.207031,32.55071 c 0.782878,0 1.372803,0.289226 1.769531,0.871094 0.402019,0.581868 0.603516,1.44279 0.603516,2.580078 -0.0053,1.042074 -0.199219,1.84611 -0.580078,2.412109 -0.380859,0.566 -1.001058,0.847657 -1.863281,0.847657 -0.819906,0 -1.426921,-0.30127 -1.81836,-0.904297 -0.386149,-0.603027 -0.578125,-1.429769 -0.578125,-2.482422 0,-1.057943 0.206543,-1.876546 0.619141,-2.453125 0.412598,-0.581868 1.027751,-0.871094 1.847656,-0.871094 z m 89.001949,0 c 0.86223,0 1.51408,0.308838 1.95313,0.927735 0.43905,0.613606 0.6582,1.43278 0.6582,2.458984 0,0.655924 -0.0897,1.230713 -0.26953,1.722656 -0.17985,0.486654 -0.47103,0.877604 -0.87305,1.173828 -0.39672,0.290935 -0.88688,0.4375 -1.46875,0.4375 -0.84635,0 -1.49121,-0.308268 -1.93554,-0.921875 -0.44434,-0.613606 -0.66602,-1.420166 -0.66602,-2.419921 0,-1.020915 0.22168,-1.837566 0.66602,-2.451172 0.44433,-0.618897 1.08919,-0.927735 1.93554,-0.927735 z m 27.89844,0 c 0.86223,0 1.51213,0.308838 1.95117,0.927735 0.43905,0.613606 0.65821,1.43278 0.65821,2.458984 0,0.655924 -0.0897,1.230713 -0.26953,1.722656 -0.17985,0.486654 -0.47103,0.877604 -0.87305,1.173828 -0.39673,0.290935 -0.88493,0.4375 -1.4668,0.4375 -0.84635,0 -1.49121,-0.308268 -1.93554,-0.921875 -0.44434,-0.613606 -0.66797,-1.420166 -0.66797,-2.419921 0,-1.020915 0.22363,-1.837566 0.66797,-2.451172 0.44433,-0.618897 1.08919,-0.927735 1.93554,-0.927735 z m -130.658201,3.521485 1.007812,0 0,1.849609 c -0.629476,0.9257 -1.487874,1.388672 -2.572265,1.388672 -0.396729,0 -0.725749,-0.126953 -0.990235,-0.380859 -0.264485,-0.253907 -0.398437,-0.614584 -0.398437,-1.080079 0,-0.259196 0.02466,-0.47583 0.07227,-0.65039 0.04761,-0.179851 0.134766,-0.344076 0.261719,-0.492188 0.126953,-0.153401 0.30127,-0.270833 0.523438,-0.355469 0.222168,-0.08993 0.505778,-0.159423 0.849609,-0.207031 0.343831,-0.04761 0.75944,-0.07227 1.246094,-0.07227 z M 20,49.999929 l 0,1 216,0 0,-1 -216,0 z M 52.091797,63.20696 c -0.555013,0.81014 -0.983317,1.706706 -1.283203,2.691407 -0.299886,0.980224 -0.449219,2.006429 -0.449219,3.076171 0,1.181641 0.152669,2.311931 0.457031,3.390625 0.308838,1.074219 0.738526,1.992432 1.289063,2.757813 l 1.033203,0 c -1.12793,-1.772461 -1.691406,-3.830404 -1.691406,-6.175781 0,-2.090251 0.566813,-4.003581 1.699218,-5.740235 l -1.054687,0 z m 22.216797,0 c 0.6132,0.975749 1.048991,1.916179 1.308594,2.820313 0.259602,0.904134 0.388671,1.867594 0.388671,2.892578 0,1.12793 -0.139892,2.231852 -0.421875,3.310547 -0.281982,1.074219 -0.705566,2.037679 -1.269531,2.892578 l 1.041016,0 c 0.537109,-0.738526 0.960693,-1.656738 1.269531,-2.757813 0.313314,-1.10555 0.46875,-2.25 0.46875,-3.43164 0,-2.121582 -0.577637,-4.030192 -1.732422,-5.726563 l -1.052734,0 z m -16.476563,0.44336 c -0.877278,0 -1.592041,0.219563 -2.142578,0.658203 -0.550537,0.438639 -0.824219,1.031819 -0.824219,1.779297 0,0.572916 0.169597,1.066162 0.509766,1.482421 0.344645,0.41626 0.789876,0.713542 1.335938,0.892579 -0.657959,0.228271 -1.165365,0.569417 -1.523438,1.021484 -0.353597,0.447591 -0.53125,1.000244 -0.53125,1.658203 0,0.546061 0.144613,1.01766 0.435547,1.416016 0.29541,0.398356 0.678467,0.692871 1.148437,0.880859 0.469971,0.187988 0.999593,0.28125 1.585938,0.28125 0.90861,0 1.661946,-0.225667 2.261719,-0.677734 0.599772,-0.452067 0.90039,-1.085775 0.90039,-1.900391 0,-0.622152 -0.183756,-1.178141 -0.550781,-1.666016 -0.367025,-0.487874 -0.86084,-0.82845 -1.478516,-1.02539 0.559489,-0.201416 1.001954,-0.502035 1.324219,-0.900391 0.326742,-0.402832 0.490235,-0.889974 0.490235,-1.46289 -10e-7,-0.751953 -0.274252,-1.345134 -0.820313,-1.779297 -0.541585,-0.43864 -1.248291,-0.658203 -2.121094,-0.658203 z m 11.708985,0 c -0.716146,0 -1.32487,0.211507 -1.826172,0.636718 -0.501302,0.420736 -0.874919,1.007813 -1.121094,1.759766 -0.241699,0.747477 -0.363281,1.636556 -0.363281,2.666016 0,0.743001 0.06551,1.418619 0.195312,2.027343 0.134278,0.604248 0.330241,1.136638 0.589844,1.597657 0.264079,0.456543 0.609945,0.811279 1.035156,1.066406 0.429688,0.250651 0.92627,0.376953 1.490235,0.376953 0.559489,0 1.049967,-0.126302 1.470703,-0.376953 0.425211,-0.255127 0.763021,-0.6132 1.013672,-1.074219 0.255127,-0.461019 0.444987,-0.993408 0.570312,-1.597656 0.125326,-0.604248 0.1875,-1.27653 0.1875,-2.019531 0,-0.774333 -0.06689,-1.468832 -0.201172,-2.082032 C 72.447754,66.013113 72.248454,65.482107 71.984375,65.038991 71.724772,64.5914 71.386963,64.248871 70.970703,64.011648 70.558919,63.769949 70.082601,63.65032 69.541016,63.65032 Z m 84.845704,0 c -0.71615,0 -1.32487,0.211507 -1.82617,0.636718 -0.50131,0.420736 -0.87492,1.007813 -1.1211,1.759766 -0.2417,0.747477 -0.36328,1.636556 -0.36328,2.666016 0,0.743001 0.0655,1.418619 0.19531,2.027343 0.13428,0.604248 0.33025,1.136638 0.58985,1.597657 0.26408,0.456543 0.60994,0.811279 1.03515,1.066406 0.42969,0.250651 0.92627,0.376953 1.49024,0.376953 0.55949,0 1.04997,-0.126302 1.4707,-0.376953 0.42521,-0.255127 0.76302,-0.6132 1.01367,-1.074219 0.25513,-0.461019 0.44499,-0.993408 0.57032,-1.597656 0.12532,-0.604248 0.1875,-1.27653 0.1875,-2.019531 0,-0.774333 -0.0669,-1.468832 -0.20118,-2.082032 -0.13427,-0.617675 -0.33357,-1.148681 -0.59765,-1.591797 -0.2596,-0.447591 -0.59741,-0.79012 -1.01367,-1.027343 -0.41179,-0.241699 -0.88811,-0.361328 -1.42969,-0.361328 z m 53.46875,0 c -0.71615,0 -1.32487,0.211507 -1.82617,0.636718 -0.50131,0.420736 -0.87492,1.007813 -1.1211,1.759766 -0.2417,0.747477 -0.36328,1.636556 -0.36328,2.666016 0,0.743001 0.0655,1.418619 0.19531,2.027343 0.13428,0.604248 0.3322,1.136638 0.5918,1.597657 0.26408,0.456543 0.60799,0.811279 1.0332,1.066406 0.42969,0.250651 0.92627,0.376953 1.49024,0.376953 0.55949,0 1.04997,-0.126302 1.4707,-0.376953 0.42521,-0.255127 0.76302,-0.6132 1.01367,-1.074219 0.25513,-0.461019 0.44499,-0.993408 0.57032,-1.597656 0.12532,-0.604248 0.1875,-1.27653 0.1875,-2.019531 0,-0.774333 -0.0669,-1.468832 -0.20118,-2.082032 -0.13427,-0.617675 -0.33357,-1.148681 -0.59765,-1.591797 -0.2596,-0.447591 -0.59741,-0.79012 -1.01367,-1.027343 -0.41179,-0.241699 -0.88811,-0.361328 -1.42969,-0.361328 z m -173.830079,0.05273 -1.115235,0.08008 0,2.208985 0.05273,1.61914 c -0.107422,-0.19694 -0.220948,-0.365153 -0.341797,-0.503906 -0.116374,-0.143229 -0.259603,-0.275635 -0.429688,-0.396484 -0.170084,-0.125326 -0.374105,-0.218588 -0.611328,-0.28125 -0.237223,-0.06266 -0.504801,-0.09375 -0.804687,-0.09375 -0.939942,0 -1.685791,0.334472 -2.236329,1.005859 -0.546061,0.671387 -0.818359,1.551025 -0.818359,2.638672 0,1.145833 0.262858,2.056559 0.791016,2.732422 0.532633,0.671386 1.289306,1.007812 2.269531,1.007812 1.016032,0 1.755778,-0.464111 2.216797,-1.390625 l 0.09961,1.25586 0.927735,0 0,-9.882813 z m 128.611329,0.08008 0,9.802735 3.65234,0 c 1.13241,0 1.98568,-0.242595 2.5586,-0.730469 0.57739,-0.492351 0.86718,-1.171306 0.86718,-2.035157 0,-0.622151 -0.17155,-1.134277 -0.51172,-1.537109 -0.33569,-0.407308 -0.81339,-0.701823 -1.43554,-0.880859 0.56844,-0.21932 0.96842,-0.507162 1.20117,-0.865235 0.23722,-0.362548 0.35547,-0.8125 0.35547,-1.349609 0,-0.819092 -0.2959,-1.423096 -0.88672,-1.8125 -0.58634,-0.39388 -1.49373,-0.591797 -2.72461,-0.591797 l -3.07617,0 z m 12.62305,0 -4.08789,9.802735 0.96679,0 4.11524,-9.802735 -0.99414,0 z m 15.60351,0 -4.08984,9.802735 0.96679,0 4.11524,-9.802735 -0.99219,0 z m 8.875,0 c -0.23275,0.161133 -0.58138,0.324626 -1.04687,0.490235 -0.46102,0.161132 -0.85962,0.276611 -1.19532,0.34375 l 0,0.884765 c 0.29989,-0.04028 0.66268,-0.127441 1.08789,-0.261719 0.42969,-0.134277 0.78443,-0.27889 1.06641,-0.435546 l 0,7.976562 -2.36328,0 0,0.804688 5.58594,0 0,-0.804688 -2.10743,0 0,-8.998047 -1.02734,0 z m 16.36914,0 0,9.802735 3.65235,0 c 1.1324,0 1.98372,-0.242595 2.55664,-0.730469 0.57739,-0.492351 0.86718,-1.171306 0.86718,-2.035157 0,-0.622151 -0.16959,-1.134277 -0.50976,-1.537109 -0.3357,-0.407308 -0.81535,-0.701823 -1.4375,-0.880859 0.56844,-0.21932 0.96842,-0.507162 1.20117,-0.865235 0.23722,-0.362548 0.35547,-0.8125 0.35547,-1.349609 0,-0.819092 -0.29395,-1.423096 -0.88477,-1.8125 -0.58634,-0.39388 -1.49568,-0.591797 -2.72656,-0.591797 l -3.07422,0 z m 12.6211,0 -4.0879,9.802735 0.9668,0 4.11524,-9.802735 -0.99414,0 z M 57.826172,64.476491 c 0.568441,0 1.021159,0.144613 1.361328,0.435547 0.340169,0.286459 0.511719,0.669515 0.511719,1.148438 0,0.528157 -0.15739,0.967285 -0.470703,1.316406 -0.313314,0.349121 -0.780192,0.590332 -1.402344,0.724609 -0.617676,-0.138753 -1.087891,-0.379964 -1.410156,-0.724609 -0.31779,-0.349121 -0.476563,-0.788249 -0.476563,-1.316406 0,-0.474447 0.17098,-0.857503 0.515625,-1.148438 0.349121,-0.290934 0.807129,-0.435547 1.371094,-0.435547 z m 11.714844,0.08008 c 1.423339,0 2.134765,1.3715 2.134765,4.115234 0,1.383057 -0.18514,2.430908 -0.55664,3.142578 -0.367025,0.707194 -0.893311,1.060547 -1.578125,1.060547 -0.693767,0 -1.235596,-0.356689 -1.625,-1.068359 -0.384929,-0.716146 -0.578125,-1.759278 -0.578125,-3.128907 -0.0045,-1.311442 0.192057,-2.324869 0.585937,-3.041015 0.39388,-0.720622 0.932373,-1.080078 1.617188,-1.080078 z m 84.845704,0 c 1.42334,0 2.13476,1.3715 2.13476,4.115234 0,1.383057 -0.18514,2.430908 -0.55664,3.142578 -0.36702,0.707194 -0.89331,1.060547 -1.57812,1.060547 -0.69377,0 -1.2356,-0.356689 -1.625,-1.068359 -0.38493,-0.716146 -0.57813,-1.759278 -0.57813,-3.128907 -0.004,-1.311442 0.19011,-2.324869 0.58399,-3.041015 0.39388,-0.720622 0.93432,-1.080078 1.61914,-1.080078 z m 53.46875,0 c 1.42334,0 2.13476,1.3715 2.13476,4.115234 0,1.383057 -0.18514,2.430908 -0.55664,3.142578 -0.36702,0.707194 -0.89331,1.060547 -1.57812,1.060547 -0.69377,0 -1.2356,-0.356689 -1.625,-1.068359 -0.38493,-0.716146 -0.57617,-1.759278 -0.57617,-3.128907 -0.004,-1.311442 0.1901,-2.324869 0.58398,-3.041015 0.39388,-0.720622 0.93237,-1.080078 1.61719,-1.080078 z m -44.03711,0.113281 1.88672,0 c 0.88175,0 1.5188,0.118245 1.9082,0.355469 0.38941,0.237223 0.58399,0.67163 0.58399,1.302734 0,0.626628 -0.17904,1.065755 -0.53711,1.316406 -0.35808,0.246175 -0.88298,0.369141 -1.57227,0.369141 l -2.26953,0 0,-3.34375 z m 53.4707,0 1.88672,0 c 0.88176,0 1.51685,0.118245 1.90625,0.355469 0.38941,0.237223 0.58399,0.67163 0.58399,1.302734 0,0.626628 -0.17904,1.065755 -0.53711,1.316406 -0.35808,0.246175 -0.88103,0.369141 -1.57032,0.369141 l -2.26953,0 0,-3.34375 z M 24.134766,66.335867 c -0.743002,0 -1.320638,0.179036 -1.732422,0.537109 -0.411784,0.353597 -0.617188,0.819092 -0.617188,1.396484 0,0.465495 0.118246,0.845215 0.355469,1.140625 0.237223,0.290934 0.676351,0.540202 1.316406,0.746094 l 0.779297,0.248047 c 0.51473,0.165609 0.869466,0.341308 1.066406,0.529297 0.19694,0.187988 0.296875,0.421712 0.296875,0.699218 0,0.402833 -0.120198,0.710938 -0.357421,0.925782 -0.237224,0.210368 -0.570313,0.316406 -1,0.316406 -0.684815,0 -1.452312,-0.20402 -2.302735,-0.611328 l 0,0.933594 c 0.73405,0.349121 1.475179,0.523437 2.222656,0.523437 0.335694,0 0.643799,-0.04053 0.925782,-0.121094 0.286458,-0.08057 0.541829,-0.202148 0.765625,-0.363281 0.228271,-0.161133 0.407308,-0.375976 0.537109,-0.644531 0.129801,-0.273031 0.195313,-0.585856 0.195313,-0.939453 0,-0.286459 -0.02637,-0.52767 -0.08008,-0.72461 -0.05371,-0.201416 -0.153645,-0.389892 -0.296875,-0.564453 -0.143229,-0.17456 -0.342529,-0.32723 -0.597656,-0.457031 -0.250651,-0.134277 -0.5743,-0.263346 -0.972656,-0.388672 L 23.933594,69.296804 C 23.472575,69.149099 23.170573,69.01059 23.027344,68.880788 22.884115,68.750987 22.8125,68.53891 22.8125,68.247976 c 0,-0.344645 0.108805,-0.60612 0.328125,-0.785156 0.223796,-0.183513 0.594645,-0.275391 1.109375,-0.275391 0.577393,0 1.17334,0.157389 1.791016,0.470703 l 0.261718,-0.826172 c -0.671386,-0.331217 -1.393636,-0.496093 -2.167968,-0.496093 z m 14.259765,0 c -0.948893,0 -1.803548,0.175699 -2.564453,0.529296 l 0.302734,0.820313 c 0.326742,-0.156657 0.698975,-0.278239 1.115235,-0.363281 0.41626,-0.08952 0.80542,-0.134766 1.167969,-0.134766 0.537109,0 0.927653,0.127686 1.173828,0.382812 0.250651,0.255127 0.376953,0.642904 0.376953,1.16211 l 0,0.697266 -1.134766,0 c -1.141357,0 -1.974365,0.182373 -2.498047,0.544921 -0.519205,0.358073 -0.779296,0.92155 -0.779296,1.691407 0,0.644531 0.197916,1.14917 0.591796,1.511718 0.398356,0.362549 0.924642,0.542969 1.578125,0.542969 0.975749,0 1.76823,-0.373616 2.376953,-1.121094 l 0.119141,0.980469 0.847656,0 0,-4.6875 c 0,-0.904134 -0.233724,-1.554769 -0.699218,-1.953125 -0.461019,-0.402832 -1.119711,-0.603515 -1.97461,-0.603515 z m 141.619139,0 c -0.743,0 -1.32064,0.179036 -1.73242,0.537109 -0.41178,0.353597 -0.61719,0.819092 -0.61719,1.396484 0,0.465495 0.11825,0.845215 0.35547,1.140625 0.23722,0.290934 0.67635,0.540202 1.31641,0.746094 l 0.77734,0.248047 c 0.51473,0.165609 0.87142,0.341308 1.06836,0.529297 0.19694,0.187988 0.29492,0.421712 0.29492,0.699218 0,0.402833 -0.11824,0.710938 -0.35547,0.925782 -0.23722,0.210368 -0.57031,0.316406 -1,0.316406 -0.68481,0 -1.45231,-0.20402 -2.30273,-0.611328 l 0,0.933594 c 0.73405,0.349121 1.47323,0.523437 2.2207,0.523437 0.3357,0 0.64575,-0.04053 0.92774,-0.121094 0.28646,-0.08057 0.54183,-0.202148 0.76562,-0.363281 0.22827,-0.161133 0.40731,-0.375976 0.53711,-0.644531 0.1298,-0.273031 0.19336,-0.585856 0.19336,-0.939453 0,-0.286459 -0.0264,-0.52767 -0.0801,-0.72461 -0.0537,-0.201416 -0.15169,-0.389892 -0.29492,-0.564453 -0.14323,-0.17456 -0.34253,-0.32723 -0.59766,-0.457031 -0.25065,-0.134277 -0.5743,-0.263346 -0.97265,-0.388672 l -0.70508,-0.220703 c -0.46102,-0.147705 -0.76302,-0.286214 -0.90625,-0.416016 -0.14323,-0.129801 -0.21484,-0.341878 -0.21484,-0.632812 0,-0.344645 0.1088,-0.60612 0.32812,-0.785156 0.2238,-0.183513 0.59269,-0.275391 1.10742,-0.275391 0.5774,0 1.1753,0.157389 1.79297,0.470703 l 0.26172,-0.826172 c -0.67139,-0.331217 -1.39364,-0.496093 -2.16797,-0.496093 z m 53.46875,0 c -0.743,0 -1.32064,0.179036 -1.73242,0.537109 -0.41178,0.353597 -0.61719,0.819092 -0.61719,1.396484 0,0.465495 0.11825,0.845215 0.35547,1.140625 0.23722,0.290934 0.67635,0.540202 1.31641,0.746094 l 0.77929,0.248047 c 0.51473,0.165609 0.86947,0.341308 1.06641,0.529297 0.19694,0.187988 0.29492,0.421712 0.29492,0.699218 0,0.402833 -0.11824,0.710938 -0.35547,0.925782 -0.23722,0.210368 -0.57031,0.316406 -1,0.316406 -0.68481,0 -1.45231,-0.20402 -2.30273,-0.611328 l 0,0.933594 c 0.73405,0.349121 1.47518,0.523437 2.22266,0.523437 0.33569,0 0.64379,-0.04053 0.92578,-0.121094 0.28646,-0.08057 0.54183,-0.202148 0.76562,-0.363281 0.22827,-0.161133 0.40731,-0.375976 0.53711,-0.644531 0.1298,-0.273031 0.19531,-0.585856 0.19531,-0.939453 0,-0.286459 -0.0283,-0.52767 -0.082,-0.72461 -0.0537,-0.201416 -0.15169,-0.389892 -0.29492,-0.564453 -0.14323,-0.17456 -0.34253,-0.32723 -0.59766,-0.457031 -0.25065,-0.134277 -0.5743,-0.263346 -0.97265,-0.388672 l -0.70508,-0.220703 c -0.46102,-0.147705 -0.76302,-0.286214 -0.90625,-0.416016 -0.14323,-0.129801 -0.21484,-0.341878 -0.21484,-0.632812 0,-0.344645 0.1088,-0.60612 0.32812,-0.785156 0.2238,-0.183513 0.59269,-0.275391 1.10742,-0.275391 0.5774,0 1.1753,0.157389 1.79297,0.470703 l 0.26172,-0.826172 c -0.67139,-0.331217 -1.39364,-0.496093 -2.16797,-0.496093 z M 63.673828,66.482351 c -0.264079,0 -0.468099,0.07634 -0.611328,0.228516 -0.143229,0.147705 -0.214844,0.322021 -0.214844,0.523437 0,0.205892 0.07162,0.384928 0.214844,0.537109 0.143229,0.147705 0.347249,0.222657 0.611328,0.222657 0.264079,0 0.464762,-0.07495 0.603516,-0.222657 0.143229,-0.152181 0.214844,-0.331217 0.214844,-0.537109 0,-0.201416 -0.07161,-0.375732 -0.214844,-0.523437 -0.138754,-0.152181 -0.339437,-0.228516 -0.603516,-0.228516 z m -32.738281,0.705078 c 0.662435,0 1.162353,0.245931 1.498047,0.738281 0.340169,0.492351 0.509765,1.221273 0.509765,2.183594 -0.0045,0.881755 -0.167968,1.562093 -0.490234,2.041016 -0.322266,0.478922 -0.848551,0.716797 -1.578125,0.716797 -0.693766,0 -1.205892,-0.253418 -1.537109,-0.763672 -0.326742,-0.510254 -0.490235,-1.210856 -0.490235,-2.101563 0,-0.895182 0.174317,-1.588297 0.523438,-2.076172 0.349121,-0.49235 0.870687,-0.738281 1.564453,-0.738281 z m 132.882813,1.666016 1.92187,0 c 0.9668,0 1.67351,0.147949 2.1211,0.443359 0.44759,0.29541 0.67187,0.793376 0.67187,1.496094 0,0.662435 -0.19458,1.143473 -0.58398,1.443359 -0.38493,0.299886 -1.00171,0.451172 -1.84766,0.451172 l -2.2832,0 0,-3.833984 z m 53.4707,0 1.91992,0 c 0.9668,0 1.67351,0.147949 2.1211,0.443359 0.44759,0.29541 0.67187,0.793376 0.67187,1.496094 0,0.662435 -0.19458,1.143473 -0.58398,1.443359 -0.38493,0.299886 -1.00171,0.451172 -1.84766,0.451172 l -2.28125,0 0,-3.833984 z m -159.462888,0.0332 c 0.631103,0.134277 1.138509,0.389648 1.523437,0.765625 0.389405,0.375976 0.583985,0.836751 0.583985,1.382812 0,1.217448 -0.701986,1.826172 -2.107422,1.826172 -0.68929,0 -1.218913,-0.158773 -1.585938,-0.476562 -0.362548,-0.31779 -0.542968,-0.766358 -0.542968,-1.34375 0,-0.563965 0.19458,-1.02946 0.583984,-1.396485 0.389404,-0.367024 0.904867,-0.619059 1.544922,-0.757812 z m -18.712891,1.283203 0.853516,0 0,1.5625 c -0.532634,0.783284 -1.25822,1.175781 -2.175781,1.175781 -0.335694,0 -0.616049,-0.107422 -0.839844,-0.322265 -0.223796,-0.214844 -0.335938,-0.51823 -0.335938,-0.91211 0,-0.21932 0.02026,-0.403076 0.06055,-0.550781 0.04028,-0.152181 0.115235,-0.29069 0.222657,-0.416016 0.107421,-0.129801 0.255371,-0.23112 0.443359,-0.302734 0.187988,-0.07609 0.427816,-0.135498 0.71875,-0.175781 0.290934,-0.04028 0.64095,-0.05859 1.052734,-0.05859 z m 24.560547,1.986328 c -0.264079,0 -0.468099,0.073 -0.611328,0.220703 -0.143229,0.147705 -0.214844,0.325358 -0.214844,0.53125 0,0.201416 0.07162,0.379069 0.214844,0.53125 0.143229,0.147705 0.347249,0.220703 0.611328,0.220703 0.264079,0 0.464762,-0.073 0.603516,-0.220703 0.143229,-0.152181 0.214844,-0.329834 0.214844,-0.53125 0,-0.205892 -0.07161,-0.383545 -0.214844,-0.53125 -0.138754,-0.147702 -0.339437,-0.2207 -0.603516,-0.2207 z m -21.142578,2.376953 0,0.798828 6.015625,0 0,-0.798828 -6.015625,0 z M 20,137.99993 l 0,1 216,0 0,-1 -216,0 z m 42.699219,13.20703 c -0.555013,0.81014 -0.981364,1.70671 -1.28125,2.69141 -0.299886,0.98022 -0.451172,2.00643 -0.451172,3.07617 0,1.18164 0.152669,2.31193 0.457031,3.39062 0.308838,1.07422 0.738526,1.99244 1.289063,2.75782 l 1.033203,0 c -1.12793,-1.77246 -1.691406,-3.83041 -1.691406,-6.17578 -10e-7,-2.09026 0.566813,-4.00359 1.699218,-5.74024 l -1.054687,0 z m 22.216797,0 c 0.613199,0.97575 1.048991,1.91618 1.308593,2.82031 0.259603,0.90414 0.390625,1.8676 0.390625,2.89258 0,1.12793 -0.141845,2.23185 -0.423828,3.31055 -0.281982,1.07422 -0.705566,2.03768 -1.269531,2.89258 l 1.041016,0 c 0.537109,-0.73853 0.960693,-1.65674 1.269531,-2.75782 0.313314,-1.10555 0.46875,-2.25 0.46875,-3.43164 0,-2.12158 -0.575684,-4.03019 -1.730469,-5.72656 l -1.054687,0 z m -36.34961,0.44336 c -0.716146,0 -1.32487,0.21151 -1.826172,0.63672 -0.501302,0.42074 -0.874918,1.00781 -1.121093,1.75977 -0.2417,0.74747 -0.361329,1.63655 -0.361329,2.66601 10e-7,0.743 0.06356,1.41862 0.19336,2.02734 0.134277,0.60425 0.332194,1.13664 0.591797,1.59766 0.264079,0.45654 0.607991,0.81128 1.033203,1.06641 0.429687,0.25065 0.926269,0.37695 1.490234,0.37695 0.559489,0 1.049968,-0.1263 1.470703,-0.37695 0.425212,-0.25513 0.763021,-0.6132 1.013672,-1.07422 0.255127,-0.46102 0.444987,-0.99341 0.570313,-1.59766 0.125325,-0.60425 0.189453,-1.27653 0.189453,-2.01953 0,-0.77433 -0.06885,-1.46883 -0.203125,-2.08203 -0.134277,-0.61768 -0.333578,-1.14868 -0.597656,-1.5918 -0.259603,-0.44759 -0.597412,-0.79012 -1.013672,-1.02734 -0.411784,-0.2417 -0.888102,-0.36133 -1.429688,-0.36133 z m 31.582032,0 c -0.716146,0 -1.32487,0.21151 -1.826172,0.63672 -0.501302,0.42074 -0.874919,1.00781 -1.121094,1.75977 -0.241699,0.74747 -0.361328,1.63655 -0.361328,2.66601 0,0.743 0.06356,1.41862 0.193359,2.02734 0.134277,0.60425 0.332194,1.13664 0.591797,1.59766 0.264079,0.45654 0.607992,0.81128 1.033203,1.06641 0.429688,0.25065 0.92627,0.37695 1.490235,0.37695 0.559488,0 1.049967,-0.1263 1.470703,-0.37695 0.425211,-0.25513 0.76302,-0.6132 1.013671,-1.07422 0.255127,-0.46102 0.444987,-0.99341 0.570313,-1.59766 0.125326,-0.60425 0.189453,-1.27653 0.189453,-2.01953 0,-0.77433 -0.06885,-1.46883 -0.203125,-2.08203 -0.134277,-0.61768 -0.333577,-1.14868 -0.597656,-1.5918 -0.259603,-0.44759 -0.597412,-0.79012 -1.013672,-1.02734 -0.411784,-0.2417 -0.888102,-0.36133 -1.429687,-0.36133 z m 82.322262,0 c -0.71614,0 -1.32487,0.21151 -1.82617,0.63672 -0.5013,0.42074 -0.87687,1.00781 -1.12305,1.75977 -0.24169,0.74747 -0.36132,1.63655 -0.36132,2.66601 0,0.743 0.0655,1.41862 0.19531,2.02734 0.13428,0.60425 0.33024,1.13664 0.58984,1.59766 0.26408,0.45654 0.60799,0.81128 1.03321,1.06641 0.42968,0.25065 0.92822,0.37695 1.49218,0.37695 0.55949,0 1.04802,-0.1263 1.46875,-0.37695 0.42521,-0.25513 0.76302,-0.6132 1.01367,-1.07422 0.25513,-0.46102 0.44695,-0.99341 0.57227,-1.59766 0.12533,-0.60425 0.1875,-1.27653 0.1875,-2.01953 0,-0.77433 -0.0669,-1.46883 -0.20117,-2.08203 -0.13428,-0.61768 -0.33358,-1.14868 -0.59766,-1.5918 -0.2596,-0.44759 -0.59741,-0.79012 -1.01367,-1.02734 -0.41178,-0.2417 -0.8881,-0.36133 -1.42969,-0.36133 z m 45.38477,0 c -0.71615,0 -1.32487,0.21151 -1.82617,0.63672 -0.50131,0.42074 -0.87492,1.00781 -1.1211,1.75977 -0.2417,0.74747 -0.36328,1.63655 -0.36328,2.66601 0,0.743 0.0655,1.41862 0.19531,2.02734 0.13428,0.60425 0.3322,1.13664 0.5918,1.59766 0.26408,0.45654 0.60799,0.81128 1.0332,1.06641 0.42969,0.25065 0.92627,0.37695 1.49024,0.37695 0.55949,0 1.04997,-0.1263 1.4707,-0.37695 0.42521,-0.25513 0.76302,-0.6132 1.01367,-1.07422 0.25513,-0.46102 0.44499,-0.99341 0.57032,-1.59766 0.12532,-0.60425 0.1875,-1.27653 0.1875,-2.01953 0,-0.77433 -0.0669,-1.46883 -0.20118,-2.08203 -0.13427,-0.61768 -0.33357,-1.14868 -0.59765,-1.5918 -0.2596,-0.44759 -0.59741,-0.79012 -1.01367,-1.02734 -0.41179,-0.2417 -0.88811,-0.36133 -1.42969,-0.36133 z m -139.421876,0.13281 c -0.232748,0.16114 -0.58138,0.32463 -1.046875,0.49024 -0.461019,0.16113 -0.859619,0.27661 -1.195313,0.34375 l 0,0.88476 c 0.299886,-0.0403 0.662679,-0.12744 1.087891,-0.26172 0.429687,-0.13427 0.784424,-0.27889 1.066406,-0.43554 l 0,7.97656 -2.363281,0 0,0.80469 5.585937,0 0,-0.80469 -2.107421,0 0,-8.99805 -1.027344,0 z m 102.287106,0 0,9.80274 3.65235,0 c 1.1324,0 1.98567,-0.2426 2.55859,-0.73047 0.57739,-0.49235 0.86524,-1.17131 0.86524,-2.03516 -10e-6,-0.62215 -0.1696,-1.13427 -0.50977,-1.53711 -0.33569,-0.4073 -0.81535,-0.70182 -1.4375,-0.88086 0.56844,-0.21932 0.97038,-0.50716 1.20312,-0.86523 0.23723,-0.36255 0.35547,-0.8125 0.35547,-1.34961 0,-0.81909 -0.2959,-1.4231 -0.88672,-1.8125 -0.58634,-0.39388 -1.49373,-0.5918 -2.7246,-0.5918 l -3.07618,0 z m 12.62305,0 -4.08984,9.80274 0.96679,0 4.11524,-9.80274 -0.99219,0 z m 15.60156,0 -4.08789,9.80274 0.9668,0 4.11523,-9.80274 -0.99414,0 z m 17.16211,0 0,9.80274 3.65235,0 c 1.1324,0 1.98372,-0.2426 2.55664,-0.73047 0.57739,-0.49235 0.86718,-1.17131 0.86718,-2.03516 0,-0.62215 -0.16959,-1.13427 -0.50976,-1.53711 -0.3357,-0.4073 -0.81535,-0.70182 -1.4375,-0.88086 0.56844,-0.21932 0.96842,-0.50716 1.20117,-0.86523 0.23722,-0.36255 0.35547,-0.8125 0.35547,-1.34961 0,-0.81909 -0.29395,-1.4231 -0.88477,-1.8125 -0.58634,-0.39388 -1.49568,-0.5918 -2.72656,-0.5918 l -3.07422,0 z m 12.6211,0 -4.0879,9.80274 0.9668,0 4.11524,-9.80274 -0.99414,0 z m -180.162114,0.77344 c 1.42334,0 2.134766,1.3715 2.134766,4.11524 0,1.38305 -0.18514,2.4309 -0.556641,3.14257 -0.367024,0.7072 -0.89331,1.06055 -1.578125,1.06055 -0.693766,0 -1.235595,-0.35669 -1.625,-1.06836 -0.384928,-0.71615 -0.576172,-1.75928 -0.576172,-3.12891 -0.0045,-1.31144 0.190105,-2.32487 0.583985,-3.04101 0.39388,-0.72062 0.932373,-1.08008 1.617187,-1.08008 z m 31.582032,0 c 1.423339,0 2.134765,1.3715 2.134765,4.11524 0,1.38305 -0.18514,2.4309 -0.556641,3.14257 -0.367024,0.7072 -0.89331,1.06055 -1.578124,1.06055 -0.693767,0 -1.235596,-0.35669 -1.625,-1.06836 -0.384929,-0.71615 -0.576172,-1.75928 -0.576172,-3.12891 -0.0045,-1.31144 0.190104,-2.32487 0.583984,-3.04101 0.39388,-0.72062 0.932373,-1.08008 1.617188,-1.08008 z m 82.322262,0 c 1.42334,0 2.13477,1.3715 2.13477,4.11524 0,1.38305 -0.18709,2.4309 -0.55859,3.14257 -0.36703,0.7072 -0.89136,1.06055 -1.57618,1.06055 -0.69376,0 -1.23559,-0.35669 -1.625,-1.06836 -0.38493,-0.71615 -0.57812,-1.75928 -0.57812,-3.12891 -0.004,-1.31144 0.1901,-2.32487 0.58398,-3.04101 0.39388,-0.72062 0.93433,-1.08008 1.61914,-1.08008 z m 45.38477,0 c 1.42334,0 2.13476,1.3715 2.13476,4.11524 0,1.38305 -0.18514,2.4309 -0.55664,3.14257 -0.36702,0.7072 -0.89331,1.06055 -1.57812,1.06055 -0.69377,0 -1.2356,-0.35669 -1.625,-1.06836 -0.38493,-0.71615 -0.57617,-1.75928 -0.57617,-3.12891 -0.004,-1.31144 0.1901,-2.32487 0.58398,-3.04101 0.39388,-0.72062 0.93237,-1.08008 1.61719,-1.08008 z m -35.95313,0.11328 1.88672,0 c 0.88176,0 1.51685,0.11825 1.90625,0.35547 0.38941,0.23722 0.58399,0.67163 0.58399,1.30273 0,0.62663 -0.17904,1.06576 -0.53711,1.31641 -0.35808,0.24618 -0.88102,0.36914 -1.57031,0.36914 l -2.26954,0 0,-3.34375 z m 45.38672,0 1.88672,0 c 0.88176,0 1.51685,0.11825 1.90625,0.35547 0.38941,0.23722 0.58399,0.67163 0.58399,1.30273 0,0.62663 -0.17904,1.06576 -0.53711,1.31641 -0.35808,0.24618 -0.88103,0.36914 -1.57032,0.36914 l -2.26953,0 0,-3.34375 z m -187.810544,1.66602 c -0.948894,0 -1.803549,0.1757 -2.564454,0.52929 l 0.302735,0.82032 c 0.326741,-0.15666 0.698974,-0.27824 1.115234,-0.36328 0.41626,-0.0895 0.80542,-0.13477 1.167969,-0.13477 0.537109,0 0.927653,0.12769 1.173828,0.38281 0.250651,0.25513 0.376953,0.64291 0.376953,1.16211 l 0,0.69727 -1.134765,0 c -1.141358,0 -1.974366,0.18237 -2.498047,0.54492 -0.519206,0.35807 -0.779297,0.92155 -0.779297,1.69141 0,0.64453 0.197917,1.14917 0.591797,1.51171 0.398356,0.36255 0.924642,0.54297 1.578125,0.54297 0.975748,0 1.768229,-0.37361 2.376953,-1.12109 l 0.119141,0.98047 0.847656,0 0,-4.6875 c 0,-0.90414 -0.233724,-1.55477 -0.699219,-1.95313 -0.461019,-0.40283 -1.11971,-0.60351 -1.974609,-0.60351 z m 7.673828,0 c -0.90861,0 -1.636963,0.3986 -2.1875,1.19531 l -0.126953,-1.04883 -0.900391,0 0,7.10352 1.115234,0 0,-4.33008 c 0.09399,-0.62215 0.299398,-1.12207 0.617188,-1.49805 0.322266,-0.38045 0.756673,-0.57031 1.302734,-0.57031 0.496826,0 0.836019,0.18709 1.019532,0.55859 0.183512,0.36703 0.27539,0.98324 0.27539,1.85157 l 0,3.98828 1.115234,0 0,-3.64453 c 0.01343,-0.61768 0.03841,-0.98853 0.07422,-1.10938 0.12085,-0.53263 0.347901,-0.93872 0.683594,-1.2207 0.335693,-0.28198 0.71875,-0.42383 1.148437,-0.42383 0.192465,0 0.360678,0.0297 0.503907,0.0879 0.147705,0.0537 0.264567,0.13949 0.349609,0.25586 0.08952,0.11637 0.161133,0.23462 0.214844,0.35547 0.05371,0.11637 0.0909,0.27043 0.113281,0.46289 0.02238,0.19246 0.03654,0.35596 0.04102,0.49023 0.009,0.12981 0.01172,0.30274 0.01172,0.51758 l 0,4.22852 1.115234,0 0,-4.57813 c 0,-1.78141 -0.725586,-2.67187 -2.175781,-2.67187 -1.02946,0 -1.809164,0.48104 -2.341797,1.44336 -0.165609,-0.45207 -0.400716,-0.80542 -0.705078,-1.06055 -0.304362,-0.25513 -0.726563,-0.38281 -1.263672,-0.38281 z m 150.943356,0 c -0.743,0 -1.31868,0.17903 -1.73047,0.53711 -0.41178,0.35359 -0.61914,0.81909 -0.61914,1.39648 0,0.4655 0.1202,0.84522 0.35743,1.14063 0.23722,0.29093 0.67439,0.5402 1.31445,0.74609 l 0.7793,0.24805 c 0.51473,0.16561 0.87141,0.34131 1.06835,0.52929 0.19695,0.18799 0.29493,0.42172 0.29493,0.69922 0,0.40283 -0.11825,0.71094 -0.35547,0.92578 -0.23723,0.21037 -0.57227,0.31641 -1.00196,0.31641 -0.68481,0 -1.45231,-0.20402 -2.30273,-0.61133 l 0,0.9336 c 0.73405,0.34912 1.47518,0.52343 2.22266,0.52343 0.33569,0 0.64575,-0.0405 0.92773,-0.12109 0.28646,-0.0806 0.53988,-0.20215 0.76367,-0.36328 0.22827,-0.16113 0.40731,-0.37598 0.53711,-0.64453 0.1298,-0.27303 0.19532,-0.58586 0.19532,-0.93946 0,-0.28645 -0.0264,-0.52767 -0.0801,-0.72461 -0.0537,-0.20141 -0.1517,-0.38989 -0.29492,-0.56445 -0.14323,-0.17456 -0.34253,-0.32723 -0.59766,-0.45703 -0.25065,-0.13428 -0.57625,-0.26335 -0.97461,-0.38867 l -0.70508,-0.2207 c -0.46102,-0.14771 -0.76302,-0.28622 -0.90625,-0.41602 -0.14323,-0.1298 -0.21484,-0.34188 -0.21484,-0.63281 0,-0.34465 0.11076,-0.60612 0.33008,-0.78516 0.22379,-0.18351 0.59269,-0.27539 1.10742,-0.27539 0.57739,0 1.17529,0.15739 1.79297,0.4707 l 0.26171,-0.82617 c -0.67138,-0.33122 -1.39558,-0.49609 -2.16992,-0.49609 z m 45.38672,0 c -0.743,0 -1.32064,0.17903 -1.73242,0.53711 -0.41178,0.35359 -0.61719,0.81909 -0.61719,1.39648 0,0.4655 0.11825,0.84522 0.35547,1.14063 0.23722,0.29093 0.67635,0.5402 1.31641,0.74609 l 0.77929,0.24805 c 0.51473,0.16561 0.86947,0.34131 1.06641,0.52929 0.19694,0.18799 0.29492,0.42172 0.29492,0.69922 0,0.40283 -0.11824,0.71094 -0.35547,0.92578 -0.23722,0.21037 -0.57031,0.31641 -1,0.31641 -0.68481,0 -1.45231,-0.20402 -2.30273,-0.61133 l 0,0.9336 c 0.73405,0.34912 1.47518,0.52343 2.22266,0.52343 0.33569,0 0.64379,-0.0405 0.92578,-0.12109 0.28646,-0.0806 0.54183,-0.20215 0.76562,-0.36328 0.22827,-0.16113 0.40731,-0.37598 0.53711,-0.64453 0.1298,-0.27303 0.19531,-0.58586 0.19531,-0.93946 0,-0.28645 -0.0283,-0.52767 -0.082,-0.72461 -0.0537,-0.20141 -0.15169,-0.38989 -0.29492,-0.56445 -0.14323,-0.17456 -0.34253,-0.32723 -0.59766,-0.45703 -0.25065,-0.13428 -0.5743,-0.26335 -0.97265,-0.38867 l -0.70508,-0.2207 c -0.46102,-0.14771 -0.76302,-0.28622 -0.90625,-0.41602 -0.14323,-0.1298 -0.21484,-0.34188 -0.21484,-0.63281 0,-0.34465 0.1088,-0.60612 0.32812,-0.78516 0.2238,-0.18351 0.59269,-0.27539 1.10742,-0.27539 0.5774,0 1.1753,0.15739 1.79297,0.4707 l 0.26172,-0.82617 c -0.67139,-0.33122 -1.39364,-0.49609 -2.16797,-0.49609 z m -208.259764,0.0742 c -0.429687,0 -0.839111,0.11963 -1.228515,0.36132 -0.384929,0.23723 -0.711914,0.61084 -0.980469,1.1211 l -0.121094,-1.41016 -0.892578,0 0,7.10352 1.115234,0 0,-4.02149 c 0,-0.6311 0.195964,-1.16487 0.589844,-1.60351 0.398356,-0.43864 0.902995,-0.65821 1.511719,-0.65821 0.125325,0 0.276042,0.0169 0.455078,0.0527 l 0.04687,-0.91211 c -0.129801,-0.0224 -0.294678,-0.0332 -0.496094,-0.0332 z m 49.058594,0.0723 c -0.264079,0 -0.468099,0.0763 -0.611328,0.22852 -0.143229,0.1477 -0.214844,0.32202 -0.214844,0.52344 0,0.20589 0.07161,0.38492 0.214844,0.5371 0.143229,0.14771 0.347249,0.22266 0.611328,0.22266 0.264079,0 0.464762,-0.075 0.603516,-0.22266 0.143229,-0.15218 0.214843,-0.33121 0.214843,-0.5371 0,-0.20142 -0.07161,-0.37574 -0.214843,-0.52344 -0.138754,-0.15218 -0.339437,-0.22852 -0.603516,-0.22852 z m 97.62109,2.3711 1.91993,0 c 0.96679,0 1.67545,0.14794 2.12304,0.44336 0.44759,0.29541 0.66992,0.79337 0.66992,1.49609 0,0.66243 -0.19458,1.14347 -0.58398,1.44336 -0.38493,0.29988 -0.99976,0.45117 -1.8457,0.45117 l -2.28321,0 0,-3.83398 z m 45.38672,0 1.91992,0 c 0.9668,0 1.67351,0.14794 2.1211,0.44336 0.44759,0.29541 0.67187,0.79337 0.67187,1.49609 0,0.66243 -0.19458,1.14347 -0.58398,1.44336 -0.38493,0.29988 -1.00171,0.45117 -1.84766,0.45117 l -2.28125,0 0,-3.83398 z m -187.091794,1.3164 0.853515,0 0,1.5625 c -0.532633,0.78329 -1.258219,1.17578 -2.175781,1.17578 -0.335693,0 -0.616048,-0.10742 -0.839844,-0.32226 -0.223795,-0.21485 -0.335937,-0.51823 -0.335937,-0.91211 0,-0.21932 0.02026,-0.40308 0.06055,-0.55078 0.04028,-0.15218 0.115234,-0.29069 0.222656,-0.41602 0.107422,-0.1298 0.255371,-0.23112 0.443359,-0.30273 0.187989,-0.0761 0.427816,-0.1355 0.71875,-0.17578 0.290934,-0.0403 0.640951,-0.0586 1.052735,-0.0586 z m 44.083984,1.98633 c -0.264079,0 -0.468099,0.073 -0.611328,0.2207 -0.143229,0.14771 -0.214844,0.32536 -0.214844,0.53125 0,0.20142 0.07161,0.37907 0.214844,0.53125 0.143229,0.14771 0.347249,0.22071 0.611328,0.22071 0.264079,0 0.464762,-0.073 0.603516,-0.22071 0.143229,-0.15218 0.214843,-0.32983 0.214843,-0.53125 0,-0.20589 -0.07161,-0.38354 -0.214843,-0.53125 -0.138754,-0.1477 -0.339437,-0.2207 -0.603516,-0.2207 z m -21.142578,2.37695 0,0.79883 6.015625,0 0,-0.79883 -6.015625,0 z M 20,225.99993 l 0,1 216,0 0,-1 -216,0 z"
     id="rect7886" />
  <path
     style="fill:#3b85b5;fill-opacity:1;fill-rule:evenodd;stroke:none;stroke-width:1px;stroke-linecap:butt;stroke-linejoin:miter;stroke-opacity:1"
     d="M 20,138 20,85.999998 C 58.216563,77.977488 70.000006,131 105,131 c 20,0 20,-30 35,-30 15,0 30,20 50,20 20,0 30,17 46,17 l 0,0 z"
     id="path5466"
     inkscape:connector-curvature="0"
     sodipodi:nodetypes="ccczzccc" />
  <path
     style="fill:#3b85b5;fill-opacity:1;fill-rule:evenodd;stroke:none;stroke-width:1px;stroke-linecap:butt;stroke-linejoin:miter;stroke-opacity:1"
     d="m 20,226 0,-55 c 17.082017,0 29.999359,0.25971 40.100546,0.15478 C 75,171 89.658737,201 99.999997,201 120,201 125,226 140,226 c 4.39908,0 10,0 15.26031,-0.48975 C 164.20859,224.67714 162.3318,206 180,206 c 25,0 30,20 55,20 l 1,0 z"
     id="path5466-9"
     inkscape:connector-curvature="0"
     sodipodi:nodetypes="ccscsssccc" />
  <path
     style="opacity:0.8;fill:#3bb566;fill-opacity:1;fill-rule:evenodd;stroke:none;stroke-width:1px;stroke-linecap:butt;stroke-linejoin:miter;stroke-opacity:1"
     d="m 20,226 0,0 c 13,0 31,0 50.933593,-0.03 10.603804,-0.016 22.149714,-9.96998 34.066407,-9.96998 20,0 20,-25 35,-25 15,0 30,35 50,35 l 46,0 0,0 z"
     id="path5466-4"
     inkscape:connector-curvature="0"
     sodipodi:nodetypes="ccsczzccc" />
  <g
     transform="matrix(0.6956522,0,0,0.6956522,-244.22362,-247.46813)"
     id="layer1-1"
     inkscape:label="Capa 1">
    <rect
       ry="0"
       y="497.798"
       x="385.57144"
       height="51.999908"
       width="45.999985"
       id="rect4139"
       style="opacity:1;fill:url(#linearGradient4158);fill-opacity:1;stroke:none" />
    <path
       inkscape:connector-curvature="0"
       id="path4795"
       d="m 387.57143,543.79799 6,6 37,0 1,-2e-5 0,-46.99998 0,-1 -2,-2 0,44 z"
       style="opacity:0.2;fill:url(#linearGradient4881);fill-opacity:1;fill-rule:evenodd;stroke:none;stroke-width:1px;stroke-linecap:butt;stroke-linejoin:miter;stroke-opacity:1" />
    <rect
       y="548.79797"
       x="385.57144"
       height="1.0000228"
       width="45.999985"
       id="rect4492"
       style="opacity:1;fill:#737b81;fill-opacity:1;stroke:none;stroke-width:2.79999995;stroke-miterlimit:4;stroke-dasharray:none;stroke-opacity:0.55026455" />
    <rect
       y="545.7981"
       x="393.57144"
       height="3.999939"
       width="30"
       id="rect4671"
       style="opacity:1;fill:#292c2e;fill-opacity:1;stroke:none;stroke-width:0.1;stroke-miterlimit:4;stroke-dasharray:none;stroke-opacity:1" />
    <rect
       style="opacity:1;fill:#abb9be;fill-opacity:1;stroke:none;stroke-width:0.1;stroke-miterlimit:4;stroke-dasharray:none;stroke-opacity:1"
       id="rect4963"
       width="15.599988"
       height="15.599988"
       x="400.77151"
       y="506.89804"
       ry="7.7999926" />
    <path
       transform="translate(376.57144,491.79797)"
       id="path4648"
       d="m 11,8 0,44 21,0 21,0 L 53,8 32,8 11,8 Z"
       style="fill:url(#linearGradient4659);fill-opacity:1;fill-rule:evenodd;stroke:none;stroke-width:1px;stroke-linecap:butt;stroke-linejoin:miter;stroke-opacity:1"
       inkscape:connector-curvature="0" />
    <rect
       y="532.79822"
       x="390.57144"
       height="5.0000229"
       width="11.999987"
       id="rect4985"
       style="opacity:1;fill:#fdbc4a;fill-opacity:1;stroke:none;stroke-width:0.1;stroke-miterlimit:4;stroke-dasharray:none;stroke-opacity:1" />
    <rect
       y="533.79822"
       x="391.57144"
       height="1.0000228"
       width="9.9999866"
       id="rect5119"
       style="opacity:1;fill:#ffffff;fill-opacity:1;stroke:none;stroke-width:0.1;stroke-miterlimit:4;stroke-dasharray:none;stroke-opacity:1" />
    <rect
       y="535.79846"
       x="391.57144"
       height="1.0000228"
       width="7.9999866"
       id="rect5121"
       style="opacity:1;fill:#ffffff;fill-opacity:1;stroke:none;stroke-width:0.1;stroke-miterlimit:4;stroke-dasharray:none;stroke-opacity:1" />
    <rect
       y="548.79797"
       x="393.57144"
       height="1"
       width="29.999987"
       id="rect4194"
       style="opacity:1;fill:#202324;fill-opacity:1;stroke:none;stroke-opacity:1" />
    <rect
       ry="9.6193602e-05"
       y="546.79797"
       x="395.5715"
       height="1"
       width="1.9999866"
       id="rect4544"
       style="opacity:1;fill:#f9cf8d;fill-opacity:1;stroke:none;stroke-opacity:1" />
    <rect
       ry="9.6193602e-05"
       y="547.79797"
       x="395.5715"
       height="1"
       width="1.9999866"
       id="rect4546"
       style="opacity:1;fill:#f6b44d;fill-opacity:1;stroke:none;stroke-opacity:1" />
    <rect
       ry="9.6193602e-05"
       y="546.79797"
       x="419.5715"
       height="1"
       width="1.9999866"
       id="rect4544-0"
       style="opacity:1;fill:#f9cf8d;fill-opacity:1;stroke:none;stroke-opacity:1" />
    <rect
       ry="9.6193602e-05"
       y="547.79797"
       x="419.5715"
       height="1"
       width="1.9999866"
       id="rect4546-7"
       style="opacity:1;fill:#f6b44d;fill-opacity:1;stroke:none;stroke-opacity:1" />
    <rect
       ry="9.6193602e-05"
       y="546.79797"
       x="398.5715"
       height="1"
       width="1.9999866"
       id="rect4544-6"
       style="opacity:1;fill:#f9cf8d;fill-opacity:1;stroke:none;stroke-opacity:1" />
    <rect
       ry="9.6193602e-05"
       y="547.79797"
       x="398.5715"
       height="1"
       width="1.9999866"
       id="rect4546-5"
       style="opacity:1;fill:#f6b44d;fill-opacity:1;stroke:none;stroke-opacity:1" />
    <rect
       ry="9.6193602e-05"
       y="546.79797"
       x="401.5715"
       height="1"
       width="1.9999866"
       id="rect4544-1"
       style="opacity:1;fill:#f9cf8d;fill-opacity:1;stroke:none;stroke-opacity:1" />
    <rect
       ry="9.6193602e-05"
       y="547.79797"
       x="401.5715"
       height="1"
       width="1.9999866"
       id="rect4546-3"
       style="opacity:1;fill:#f6b44d;fill-opacity:1;stroke:none;stroke-opacity:1" />
    <rect
       ry="9.6193602e-05"
       y="546.79797"
       x="407.57144"
       height="1"
       width="1.9999866"
       id="rect4544-06"
       style="opacity:1;fill:#f9cf8d;fill-opacity:1;stroke:none;stroke-opacity:1" />
    <rect
       ry="9.6193602e-05"
       y="547.79797"
       x="407.57144"
       height="1"
       width="1.9999866"
       id="rect4546-6"
       style="opacity:1;fill:#f6b44d;fill-opacity:1;stroke:none;stroke-opacity:1" />
    <rect
       ry="9.6193602e-05"
       y="546.79797"
       x="416.5715"
       height="1"
       width="1.9999866"
       id="rect4544-9"
       style="opacity:1;fill:#f9cf8d;fill-opacity:1;stroke:none;stroke-opacity:1" />
    <rect
       ry="9.6193602e-05"
       y="547.79797"
       x="416.5715"
       height="1"
       width="1.9999866"
       id="rect4546-0"
       style="opacity:1;fill:#f6b44d;fill-opacity:1;stroke:none;stroke-opacity:1" />
    <rect
       ry="9.6193602e-05"
       y="546.79797"
       x="413.5715"
       height="1"
       width="1.9999866"
       id="rect4544-8"
       style="opacity:1;fill:#f9cf8d;fill-opacity:1;stroke:none;stroke-opacity:1" />
    <rect
       ry="9.6193602e-05"
       y="547.79797"
       x="413.5715"
       height="1"
       width="1.9999866"
       id="rect4546-55"
       style="opacity:1;fill:#f6b44d;fill-opacity:1;stroke:none;stroke-opacity:1" />
    <rect
       ry="9.6193602e-05"
       y="546.79797"
       x="410.5715"
       height="1"
       width="1.9999866"
       id="rect4544-8-8"
       style="opacity:1;fill:#f9cf8d;fill-opacity:1;stroke:none;stroke-opacity:1" />
    <rect
       ry="9.6193602e-05"
       y="547.79797"
       x="410.5715"
       height="1"
       width="1.9999866"
       id="rect4546-55-5"
       style="opacity:1;fill:#f6b44d;fill-opacity:1;stroke:none;stroke-opacity:1" />
    <rect
       ry="9.6193602e-05"
       y="546.79797"
       x="404.5715"
       height="1"
       width="1.9999866"
       id="rect4544-8-89"
       style="opacity:1;fill:#f9cf8d;fill-opacity:1;stroke:none;stroke-opacity:1" />
    <rect
       ry="9.6193602e-05"
       y="547.79797"
       x="404.5715"
       height="1"
       width="1.9999866"
       id="rect4546-55-7"
       style="opacity:1;fill:#f6b44d;fill-opacity:1;stroke:none;stroke-opacity:1" />
    <rect
       y="532.79797"
       x="414.57144"
       height="0.99999231"
       width="12.999987"
       id="rect4979"
       style="color:#f2f2f2;opacity:1;fill:currentColor;fill-opacity:1;stroke:none;stroke-width:0.1;stroke-miterlimit:4;stroke-dasharray:none;stroke-opacity:1"
       class="ColorScheme-Text" />
    <rect
       y="534.79803"
       x="414.57144"
       height="1"
       width="13.000044"
       id="rect4981"
       style="color:#f2f2f2;opacity:1;fill:currentColor;fill-opacity:1;stroke:none;stroke-width:0.1;stroke-miterlimit:4;stroke-dasharray:none;stroke-opacity:1"
       class="ColorScheme-Text" />
    <rect
       y="536.79822"
       x="414.57144"
       height="1"
       width="13.000013"
       id="rect4983"
       style="color:#f2f2f2;opacity:1;fill:currentColor;fill-opacity:1;stroke:none;stroke-width:0.1;stroke-miterlimit:4;stroke-dasharray:none;stroke-opacity:1"
       class="ColorScheme-Text" />
    <path
       transform="translate(376.57144,491.79797)"
       id="rect4200"
       d="m 18.707031,14.292969 -1.414062,1.414062 8,8 L 25,24 55,54 55,44 30,19 l -3.292969,3.292969 -8,-8 z m -2.146484,6.146484 -2.121094,2.121094 5.5,5.5 -1.353515,1.353515 L 47.169922,58 l 6.953125,0 -37.5625,-37.560547 z"
       style="opacity:0.2;fill:url(#linearGradient4231);fill-opacity:1;stroke:none;stroke-opacity:1"
       inkscape:connector-curvature="0" />
    <g
       style="fill:url(#linearGradient4793);fill-opacity:1"
       inkscape:label="Capa 1"
       id="layer1-7"
       transform="translate(387.57144,-527.56423)">
      <path
         inkscape:connector-curvature="0"
         style="opacity:1;fill:url(#linearGradient4403);fill-opacity:1;stroke:none"
         d="M 7,3 C 6.446,3 6,3.446 6,4 6,4.554 6.446,5 7,5 7.554,5 8,4.554 8,4 8,3.446 7.554,3 7,3 Z m 7,0 -2,2 3,3 -3,3 2,2 3,-3 2,-2 -5,-5 z M 4.5,9 C 3.669,9 3,9.669 3,10.5 3,11.331 3.669,12 4.5,12 5.331,12 6,11.331 6,10.5 6,9.669 5.331,9 4.5,9 Z M 9,15 c -1.108,0 -2,0.892 -2,2 0,1.108 0.892,2 2,2 1.108,0 2,-0.892 2,-2 0,-1.108 -0.892,-2 -2,-2 z"
         transform="translate(0,1030.3622)"
         id="rect4231" />
    </g>
  </g>
  <g
     transform="matrix(0.84210526,0,0,0.84210526,-298.16542,-238.40057)"
     id="layer1-5"
     inkscape:label="Capa 1">
    <path
       sodipodi:nodetypes="ccccc"
       inkscape:connector-curvature="0"
       id="rect4283-0"
       d="m 382.57144,504.79797 c 0,17.33333 0,-1.33333 0,16 l 52,0 0,-16 z"
       style="opacity:1;fill:url(#linearGradient4291-1);fill-opacity:1;stroke:none" />
    <path
       inkscape:connector-curvature="0"
       id="path4257"
       d="m 422.57144,507.79797 -6,8 5,5 13,0 0,-1 -12,-12 z"
       style="opacity:0.2;fill:url(#linearGradient4259);fill-opacity:1;fill-rule:evenodd;stroke:none;stroke-width:1px;stroke-linecap:butt;stroke-linejoin:miter;stroke-opacity:1" />
    <path
       inkscape:connector-curvature="0"
       id="path4261"
       d="m 430.57144,507.79797 -6,8 5,5 5,0 0,-9 -4,-4 z"
       style="opacity:0.2;fill:url(#linearGradient4263);fill-opacity:1;fill-rule:evenodd;stroke:none;stroke-width:1px;stroke-linecap:butt;stroke-linejoin:miter;stroke-opacity:1" />
    <path
       inkscape:connector-curvature="0"
       id="path4181"
       d="m 408.57144,515.79797 6,-8 13,13 -13,0 -2,0 1,0 z"
       style="opacity:0.2;fill:url(#linearGradient4184);fill-opacity:1;fill-rule:evenodd;stroke:none;stroke-width:1px;stroke-linecap:butt;stroke-linejoin:miter;stroke-opacity:1" />
    <rect
       y="519.79773"
       x="382.57144"
       height="0.99999976"
       width="52"
       id="rect4293-1"
       style="opacity:1;fill:#dce269;fill-opacity:1;stroke:none" />
    <rect
       y="507.79803"
       x="424.57144"
       height="7.9999986"
       width="6.0000005"
       id="rect4175"
       style="opacity:1;fill:url(#linearGradient4183);fill-opacity:1;stroke:none" />
    <path
       inkscape:connector-curvature="0"
       id="rect4193"
       d="m 431.57144,507.79797 0,1 1,0 0,-1 -1,0 z m 1,1 0,1 1,0 0,-1 -1,0 z m 0,1 -1,0 0,1 1,0 0,-1 z m 0,1 0,1 1,0 0,-1 -1,0 z m 0,1 -1,0 0,1 1,0 0,-1 z m 0,1 0,1 1,0 0,-1 -1,0 z m 0,1 -1,0 0,1 1,0 0,-1 z m 0,1 0,1 1,0 0,-1 -1,0 z m 0,1 -1,0 0,1 1,0 0,-1 z m 0,1 0,1 1,0 0,-1 -1,0 z m -1,0 -1,0 0,1 1,0 0,-1 z m -1,1 -1,0 0,1 1,0 0,-1 z m -1,0 0,-1 -1,0 0,1 1,0 z m -1,0 -1,0 0,1 1,0 0,-1 z m -1,0 0,-1 -1,0 0,1 1,0 z"
       style="opacity:0.6;fill:#dee372;fill-opacity:1;stroke:none" />
    <rect
       y="508.79797"
       x="385.57144"
       height="7"
       width="19"
       id="rect4277"
       style="opacity:1;fill:url(#linearGradient4455);fill-opacity:1;stroke:none" />
    <rect
       style="opacity:1;fill:url(#linearGradient4281);fill-opacity:1;stroke:none"
       id="rect4279"
       width="6.0000005"
       height="7.9999986"
       x="416.57144"
       y="507.79803" />
    <rect
       y="507.79803"
       x="408.57144"
       height="7.9999986"
       width="6.0000005"
       id="rect4322"
       style="opacity:1;fill:url(#linearGradient4324);fill-opacity:1;stroke:none" />
    <rect
       y="509.79797"
       x="386.57144"
       height="1"
       width="8"
       id="rect4457"
       style="opacity:1;fill:#ff5555;fill-opacity:1;stroke:none" />
    <rect
       style="opacity:1;fill:#35383b;fill-opacity:1;stroke:none"
       id="rect4459"
       width="2.9999983"
       height="0.99999636"
       x="386.57144"
       y="511.79797" />
    <rect
       y="511.79797"
       x="390.57144"
       height="0.99999636"
       width="3.9999983"
       id="rect4461"
       style="opacity:1;fill:#35383b;fill-opacity:1;stroke:none" />
    <path
       inkscape:connector-curvature="0"
       id="rect4463"
       d="m 390.57144,513.79797 0,1 -1,0 0,1 1,0 1,0 1,0 1,0 1,0 1,0 1,0 1,0 1,0 1,0 0,-1 -1,0 0,-1 -1,0 0,1 -1,0 -1,0 0,-1 -1,0 0,1 -1,0 0,-1 -1,0 0,1 -1,0 0,-1 -1,0 z"
       style="opacity:1;fill:#35383b;fill-opacity:1;stroke:none" />
    <path
       style="opacity:1;fill:url(#linearGradient4304);fill-opacity:1;stroke:none"
       d="m 382.57144,526.79797 c 0,17.33333 0,-1.33333 0,16 l 52,0 0,-16 z"
       id="path4275"
       inkscape:connector-curvature="0"
       sodipodi:nodetypes="ccccc" />
    <path
       style="opacity:0.2;fill:url(#linearGradient4306);fill-opacity:1;fill-rule:evenodd;stroke:none;stroke-width:1px;stroke-linecap:butt;stroke-linejoin:miter;stroke-opacity:1"
       d="m 422.57144,529.79797 -6,8 5,5 13,0 0,-1 -12,-12 z"
       id="path4277"
       inkscape:connector-curvature="0" />
    <path
       style="opacity:0.2;fill:url(#linearGradient4308);fill-opacity:1;fill-rule:evenodd;stroke:none;stroke-width:1px;stroke-linecap:butt;stroke-linejoin:miter;stroke-opacity:1"
       d="m 430.57144,529.79797 -6,8 5,5 5,0 0,-9 -4,-4 z"
       id="path4279"
       inkscape:connector-curvature="0" />
    <path
       style="opacity:0.2;fill:url(#linearGradient4310);fill-opacity:1;fill-rule:evenodd;stroke:none;stroke-width:1px;stroke-linecap:butt;stroke-linejoin:miter;stroke-opacity:1"
       d="m 408.57144,537.79797 6,-8 13,13 -13,0 -2,0 1,0 z"
       id="path4281"
       inkscape:connector-curvature="0" />
    <rect
       style="opacity:1;fill:#dce269;fill-opacity:1;stroke:none"
       id="rect4284"
       width="52"
       height="0.99999976"
       x="382.57144"
       y="541.79773" />
    <rect
       style="opacity:1;fill:url(#linearGradient4312);fill-opacity:1;stroke:none"
       id="rect4286"
       width="6.0000005"
       height="7.9999986"
       x="424.57144"
       y="529.79803" />
    <path
       style="opacity:0.6;fill:#dee372;fill-opacity:1;stroke:none"
       d="m 431.57144,529.79797 0,1 1,0 0,-1 -1,0 z m 1,1 0,1 1,0 0,-1 -1,0 z m 0,1 -1,0 0,1 1,0 0,-1 z m 0,1 0,1 1,0 0,-1 -1,0 z m 0,1 -1,0 0,1 1,0 0,-1 z m 0,1 0,1 1,0 0,-1 -1,0 z m 0,1 -1,0 0,1 1,0 0,-1 z m 0,1 0,1 1,0 0,-1 -1,0 z m 0,1 -1,0 0,1 1,0 0,-1 z m 0,1 0,1 1,0 0,-1 -1,0 z m -1,0 -1,0 0,1 1,0 0,-1 z m -1,1 -1,0 0,1 1,0 0,-1 z m -1,0 0,-1 -1,0 0,1 1,0 z m -1,0 -1,0 0,1 1,0 0,-1 z m -1,0 0,-1 -1,0 0,1 1,0 z"
       id="path4288"
       inkscape:connector-curvature="0" />
    <rect
       style="opacity:1;fill:url(#linearGradient4314);fill-opacity:1;stroke:none"
       id="rect4290"
       width="19"
       height="7"
       x="385.57144"
       y="530.79797" />
    <rect
       y="529.79803"
       x="416.57144"
       height="7.9999986"
       width="6.0000005"
       id="rect4292"
       style="opacity:1;fill:url(#linearGradient4316);fill-opacity:1;stroke:none" />
    <rect
       style="opacity:1;fill:url(#linearGradient4318);fill-opacity:1;stroke:none"
       id="rect4294"
       width="6.0000005"
       height="7.9999986"
       x="408.57144"
       y="529.79803" />
    <rect
       style="opacity:1;fill:#ff5555;fill-opacity:1;stroke:none"
       id="rect4296"
       width="8"
       height="1"
       x="386.57144"
       y="531.79797" />
    <rect
       y="533.79797"
       x="386.57144"
       height="0.99999636"
       width="2.9999983"
       id="rect4298"
       style="opacity:1;fill:#35383b;fill-opacity:1;stroke:none" />
    <rect
       style="opacity:1;fill:#35383b;fill-opacity:1;stroke:none"
       id="rect4300"
       width="3.9999983"
       height="0.99999636"
       x="390.57144"
       y="533.79797" />
    <path
       style="opacity:1;fill:#35383b;fill-opacity:1;stroke:none"
       d="m 390.57144,535.79797 0,1 -1,0 0,1 1,0 1,0 1,0 1,0 1,0 1,0 1,0 1,0 1,0 1,0 0,-1 -1,0 0,-1 -1,0 0,1 -1,0 -1,0 0,-1 -1,0 0,1 -1,0 0,-1 -1,0 0,1 -1,0 0,-1 -1,0 z"
       id="path4302"
       inkscape:connector-curvature="0" />
  </g>
  <path
     style="opacity:0.8;fill:#3bb566;fill-opacity:1;fill-rule:evenodd;stroke:none;stroke-width:1px;stroke-linecap:butt;stroke-linejoin:miter;stroke-opacity:1"
     d="m 20,138 0,-3 c 17.082017,0 31.009511,0.97704 41.110698,0.87211 C 76.010152,135.71733 89.658737,113 99.999997,113 120,113 125,138 140,138 c 4.39908,0 10,0 15.26031,-0.48975 8.94828,-0.83311 22.43299,-11.3043 40.10119,-11.3043 25,0 15.6385,6.79405 40.6385,6.79405 l 0,5 z"
     id="path5466-9-6"
     inkscape:connector-curvature="0"
     sodipodi:nodetypes="ccscsssccc" />
</svg>
