<?xml version="1.0" encoding="UTF-8" standalone="no"?>
<svg
   xmlns:dc="http://purl.org/dc/elements/1.1/"
   xmlns:cc="http://creativecommons.org/ns#"
   xmlns:rdf="http://www.w3.org/1999/02/22-rdf-syntax-ns#"
   xmlns:svg="http://www.w3.org/2000/svg"
   xmlns="http://www.w3.org/2000/svg"
   xmlns:xlink="http://www.w3.org/1999/xlink"
   xmlns:sodipodi="http://sodipodi.sourceforge.net/DTD/sodipodi-0.dtd"
   xmlns:inkscape="http://www.inkscape.org/namespaces/inkscape"
   viewBox="0 0 256 256"
   id="svg2"
   version="1.1"
   inkscape:version="0.91 r13725"
   sodipodi:docname="org.kde.plasma.systemmonitor.cpu.svg">
  <metadata
     id="metadata10">
    <rdf:RDF>
      <cc:Work
         rdf:about="">
        <dc:format>image/svg+xml</dc:format>
        <dc:type
           rdf:resource="http://purl.org/dc/dcmitype/StillImage" />
        <dc:title />
      </cc:Work>
    </rdf:RDF>
  </metadata>
  <sodipodi:namedview
     pagecolor="#ffffff"
     bordercolor="#666666"
     borderopacity="1"
     objecttolerance="10"
     gridtolerance="10"
     guidetolerance="10"
     inkscape:pageopacity="0"
     inkscape:pageshadow="2"
     inkscape:window-width="1920"
     inkscape:window-height="1046"
     id="namedview8"
     showgrid="false"
     inkscape:zoom="1.84375"
     inkscape:cx="74.474762"
     inkscape:cy="95.240714"
     inkscape:window-x="0"
     inkscape:window-y="34"
     inkscape:window-maximized="1"
     inkscape:current-layer="svg2" />
  <defs
     id="defs4">
    <style
       id="current-color-scheme"
       type="text/css">
      .ColorScheme-Text {
        color:#f2f2f2;
      }
      .ColorScheme-Background {
        color:#31363b;
      }
      .ColorScheme-Highlight {
        color:#3daee9;
      }
      .ColorScheme-ViewText {
        color:#31363b;
      }
      .ColorScheme-ViewBackground {
        color:#314045;
      }
      .ColorScheme-ViewHover {
        color:#93cee9;
      }
      .ColorScheme-ViewFocus{
        color:#3daee9;
      }
      .ColorScheme-ButtonText {
        color:#31363b;
      }
      .ColorScheme-ButtonBackground {
        color:#31363b;
      }
      .ColorScheme-ButtonHover {
        color:#93cee9;
      }
      .ColorScheme-ButtonFocus{
        color:#3daee9;
      }
      </style>
    <linearGradient
       gradientTransform="translate(-376.57144,-491.79797)"
       gradientUnits="userSpaceOnUse"
       y2="497.79797"
       x2="408.57144"
       y1="549.79797"
       x1="408.57144"
       id="linearGradient4291"
       xlink:href="#linearGradient4251-0"
       inkscape:collect="always" />
    <linearGradient
       inkscape:collect="always"
       id="linearGradient4251-0">
      <stop
         style="stop-color:#63984b;stop-opacity:1"
         offset="0"
         id="stop4253-4" />
      <stop
         style="stop-color:#8fc278;stop-opacity:1"
         offset="1"
         id="stop4255-2" />
    </linearGradient>
    <linearGradient
       gradientUnits="userSpaceOnUse"
       y2="57"
       x2="57"
       y1="15"
       x1="15"
       id="linearGradient4383"
       xlink:href="#linearGradient4227"
       inkscape:collect="always" />
    <linearGradient
       id="linearGradient4227"
       inkscape:collect="always">
      <stop
         id="stop4229"
         offset="0"
         style="stop-color:#292c2f;stop-opacity:1" />
      <stop
         id="stop4231"
         offset="1"
         style="stop-color:#000000;stop-opacity:0;" />
    </linearGradient>
    <linearGradient
       gradientTransform="matrix(0.65384614,0,0,0.65384614,141.42858,181.31471)"
       y2="497.79797"
       x2="408.57144"
       y1="549.79797"
       x1="408.57144"
       gradientUnits="userSpaceOnUse"
       id="linearGradient4337"
       xlink:href="#linearGradient4219"
       inkscape:collect="always" />
    <linearGradient
       inkscape:collect="always"
       id="linearGradient4219">
      <stop
         style="stop-color:#999a9c;stop-opacity:1"
         offset="0"
         id="stop4221" />
      <stop
         style="stop-color:#dcdfdf;stop-opacity:1"
         offset="1"
         id="stop4223" />
    </linearGradient>
    <linearGradient
       gradientUnits="userSpaceOnUse"
       y2="27"
       x2="24"
       y1="10"
       x1="7"
       id="linearGradient5093"
       xlink:href="#linearGradient4227"
       inkscape:collect="always"
       gradientTransform="translate(392.57144,507.79797)" />
    <linearGradient
       gradientUnits="userSpaceOnUse"
       y2="522.79797"
       x2="400.57144"
       y1="536.79797"
       x1="400.57144"
       id="linearGradient5010"
       xlink:href="#linearGradient4159"
       inkscape:collect="always"
       gradientTransform="translate(8.00001,-8.00003)" />
    <linearGradient
       inkscape:collect="always"
       id="linearGradient4159">
      <stop
         style="stop-color:#2a2c2f;stop-opacity:1"
         offset="0"
         id="stop4161" />
      <stop
         style="stop-color:#424649;stop-opacity:1"
         offset="1"
         id="stop4163" />
    </linearGradient>
    <linearGradient
       inkscape:collect="always"
       xlink:href="#linearGradient4303"
       id="linearGradient4158"
       x1="409.57144"
       y1="543.79797"
       x2="409.57144"
       y2="503.798"
       gradientUnits="userSpaceOnUse"
       gradientTransform="matrix(1.1250015,0,0,1,-59.071952,-8.0000193)" />
    <linearGradient
       id="linearGradient4303"
       inkscape:collect="always">
      <stop
         id="stop4305"
         offset="0"
         style="stop-color:#c6cdd1;stop-opacity:1" />
      <stop
         id="stop4307"
         offset="1"
         style="stop-color:#e0e5e7;stop-opacity:1" />
    </linearGradient>
    <linearGradient
       gradientUnits="userSpaceOnUse"
       y2="532.79797"
       x2="419.57144"
       y1="512.79797"
       x1="399.57144"
       id="linearGradient4881"
       xlink:href="#linearGradient4400"
       inkscape:collect="always" />
    <linearGradient
       id="linearGradient4400"
       inkscape:collect="always">
      <stop
         id="stop4402"
         offset="0"
         style="stop-color:#020303;stop-opacity:1" />
      <stop
         id="stop4404"
         offset="1"
         style="stop-color:#424649;stop-opacity:0" />
    </linearGradient>
    <linearGradient
       gradientUnits="userSpaceOnUse"
       y2="8.0000267"
       x2="31.999989"
       y1="52.000027"
       x1="31.999989"
       id="linearGradient4659"
       xlink:href="#linearGradient4903"
       inkscape:collect="always" />
    <linearGradient
       inkscape:collect="always"
       id="linearGradient4903">
      <stop
         style="stop-color:#eef1f2;stop-opacity:1"
         offset="0"
         id="stop4905" />
      <stop
         style="stop-color:#f9fafb;stop-opacity:1"
         offset="1"
         id="stop4907" />
    </linearGradient>
    <linearGradient
       gradientUnits="userSpaceOnUse"
       y2="41"
       x2="42.999985"
       y1="21"
       x1="22.999987"
       id="linearGradient4231"
       xlink:href="#linearGradient4400"
       inkscape:collect="always" />
    <linearGradient
       gradientUnits="userSpaceOnUse"
       y2="1033.3622"
       x2="10.999989"
       y1="1050.3622"
       x1="10.999989"
       id="linearGradient4793"
       xlink:href="#linearGradient4159"
       inkscape:collect="always" />
    <linearGradient
       inkscape:collect="always"
       xlink:href="#linearGradient4159"
       id="linearGradient4321"
       gradientUnits="userSpaceOnUse"
       x1="10.999989"
       y1="1050.3622"
       x2="10.999989"
       y2="1033.3622" />
  </defs>
  <path
     style="fill:currentColor;fill-opacity:0.5;stroke:none"
     d="m 16,10 224,0 c 3.324,0 6,2.676 6,6 l 0,224 c 0,3.324 -2.676,6 -6,6 l -224,0 c -3.324,0 -6,-2.676 -6,-6 L 10,16 c 0,-3.324 2.676,-6 6,-6 z"
     class="ColorScheme-ButtonText"
     id="rect4240" />
  <path
     style="fill:currentColor;fill-opacity:1;stroke:none"
     d="m 16,12 224,0 c 2.216,0 4,1.784 4,4 l 0,224 c 0,2.216 -1.784,4 -4,4 l -224,0 c -2.216,0 -4,-1.784 -4,-4 L 12,16 c 0,-2.216 1.784,-4 4,-4 z"
     class="ColorScheme-Background"
     id="rect4238" />
  <path
     style="fill:currentColor;fill-opacity:1;stroke:none"
     class="ColorScheme-Text"
     d="M 27.443359 28.369141 C 26.358968 28.369141 25.400799 28.620524 24.570312 29.123047 C 23.745117 29.62028 23.110352 30.315023 22.666016 31.208984 C 22.22168 32.102946 22 33.126139 22 34.279297 C 22 35.178548 22.134521 36.00472 22.404297 36.755859 C 22.679362 37.506999 23.060221 38.139242 23.546875 38.652344 C 24.033529 39.160156 24.615885 39.556152 25.292969 39.841797 C 25.975342 40.122152 26.714925 40.261719 27.513672 40.261719 C 28.65625 40.261719 29.676351 40.034993 30.570312 39.580078 L 30.244141 38.541016 C 29.376628 38.948324 28.51766 39.152344 27.666016 39.152344 C 26.354167 39.152344 25.313883 38.709554 24.546875 37.826172 C 23.785156 36.94279 23.404297 35.777507 23.404297 34.328125 C 23.404297 32.884033 23.775065 31.714274 24.515625 30.820312 C 25.261475 29.921062 26.2771 29.470703 27.5625 29.470703 C 28.562256 29.470703 29.433837 29.704427 30.179688 30.169922 L 30.640625 29.257812 C 29.81543 28.665365 28.749919 28.369141 27.443359 28.369141 z M 89.992188 28.431641 L 88.673828 28.527344 L 88.673828 31.136719 L 88.738281 33.050781 C 88.611328 32.818034 88.476807 32.619059 88.333984 32.455078 C 88.196452 32.285807 88.027181 32.12915 87.826172 31.986328 C 87.625163 31.838216 87.38387 31.728353 87.103516 31.654297 C 86.823161 31.580237 86.504801 31.542969 86.150391 31.542969 C 85.039551 31.542969 84.1604 31.938965 83.509766 32.732422 C 82.864421 33.525879 82.541016 34.566163 82.541016 35.851562 C 82.541016 37.205729 82.852377 38.281331 83.476562 39.080078 C 84.106038 39.873535 84.999756 40.269531 86.158203 40.269531 C 87.358968 40.269531 88.232503 39.721924 88.777344 38.626953 L 88.896484 40.111328 L 89.992188 40.111328 L 89.992188 28.431641 z M 32.601562 28.527344 L 32.601562 40.111328 L 33.998047 40.111328 L 33.998047 34.509766 L 36.503906 34.509766 C 37.810465 34.509766 38.76359 34.245768 39.361328 33.716797 C 39.959066 33.182536 40.257812 32.396159 40.257812 31.359375 C 40.257812 30.851562 40.165612 30.413249 39.980469 30.042969 C 39.800618 29.667399 39.537191 29.371175 39.193359 29.154297 C 38.849528 28.937419 38.458577 28.778239 38.019531 28.677734 C 37.580485 28.57723 37.082764 28.527344 36.527344 28.527344 L 32.601562 28.527344 z M 41.851562 28.527344 L 41.851562 35.914062 C 41.851563 37.24707 42.234945 38.305013 43.001953 39.087891 C 43.768962 39.870768 44.898926 40.261719 46.390625 40.261719 C 47.136475 40.261719 47.800945 40.156901 48.382812 39.945312 C 48.964681 39.728434 49.437744 39.427165 49.802734 39.041016 C 50.173014 38.649577 50.454102 38.19165 50.644531 37.667969 C 50.834961 37.144287 50.929688 36.566976 50.929688 35.9375 L 50.929688 28.527344 L 49.533203 28.527344 L 49.533203 35.890625 C 49.533203 36.959147 49.269206 37.770752 48.740234 38.326172 C 48.211263 38.876302 47.427409 39.152344 46.390625 39.152344 C 44.295898 39.152344 43.248047 38.064697 43.248047 35.890625 L 43.248047 28.527344 L 41.851562 28.527344 z M 57.007812 28.527344 L 57.007812 40.111328 L 63.720703 40.111328 L 63.751953 39.048828 L 58.404297 39.048828 L 58.404297 28.527344 L 57.007812 28.527344 z M 96.212891 28.527344 L 95.982422 40.111328 L 97.298828 40.111328 L 97.410156 32.962891 L 97.410156 30.224609 L 101.06055 38.818359 L 102.25781 38.818359 L 105.93164 30.320312 L 105.93164 32.931641 L 106.04297 40.111328 L 107.34375 40.111328 L 107.11328 28.527344 L 105.44727 28.527344 L 101.67969 37.326172 L 97.925781 28.527344 L 96.212891 28.527344 z M 128.75977 28.527344 C 128.50586 28.527344 128.29679 28.606934 128.13281 28.765625 C 127.97412 28.919027 127.89453 29.120524 127.89453 29.369141 C 127.89453 29.617757 127.97413 29.819824 128.13281 29.978516 C 128.29679 30.137207 128.50586 30.216797 128.75977 30.216797 C 129.00838 30.216797 129.21493 30.137207 129.37891 29.978516 C 129.54289 29.819824 129.625 29.617757 129.625 29.369141 C 129.625 29.120524 129.5429 28.919027 129.37891 28.765625 C 129.22021 28.606934 129.01367 28.527344 128.75977 28.527344 z M 133.60742 29.416016 L 132.55273 29.496094 L 132.33789 31.716797 L 131.04492 31.804688 L 131.01367 32.550781 L 132.30664 32.550781 L 132.30664 37.595703 C 132.30664 38.108805 132.35144 38.524414 132.44141 38.841797 C 132.53131 39.15918 132.69303 39.420654 132.92578 39.626953 C 133.16382 39.833252 133.47013 39.977295 133.8457 40.056641 C 134.22127 40.135991 134.71395 40.175781 135.32227 40.175781 L 135.86914 40.175781 L 135.93164 39.271484 L 135.26562 39.238281 C 134.56209 39.211831 134.11117 39.101969 133.91016 38.90625 C 133.70915 38.705241 133.60742 38.267497 133.60742 37.595703 L 133.60742 32.550781 L 135.83008 32.550781 L 135.83008 31.716797 L 133.60742 31.716797 L 133.60742 29.416016 z M 33.998047 29.574219 L 36.519531 29.574219 C 37.28125 29.574219 37.861084 29.711263 38.257812 29.986328 C 38.659832 30.256104 38.861328 30.719076 38.861328 31.375 C 38.861328 32.136719 38.679443 32.671712 38.314453 32.978516 C 37.954753 33.285319 37.340169 33.439453 36.472656 33.439453 L 33.998047 33.439453 L 33.998047 29.574219 z M 68.798828 31.542969 C 67.566325 31.542969 66.598063 31.94401 65.894531 32.748047 C 65.196289 33.546794 64.847656 34.604736 64.847656 35.921875 C 64.847656 37.207275 65.201335 38.255127 65.910156 39.064453 C 66.618978 39.86849 67.582194 40.269531 68.798828 40.269531 C 69.989014 40.269531 70.945231 39.865967 71.669922 39.056641 C 72.394613 38.242025 72.757813 37.196696 72.757812 35.921875 C 72.757812 34.604736 72.409179 33.546794 71.710938 32.748047 C 71.012694 31.94401 70.041911 31.542969 68.798828 31.542969 z M 77.542969 31.542969 C 76.421549 31.542969 75.41097 31.752035 74.511719 32.169922 L 74.867188 33.136719 C 75.253337 32.951579 75.693604 32.809489 76.185547 32.708984 C 76.67749 32.60319 77.137939 32.550781 77.566406 32.550781 C 78.201172 32.550781 78.664144 32.700439 78.955078 33.001953 C 79.251302 33.303467 79.398438 33.761393 79.398438 34.375 L 79.398438 35.199219 L 78.058594 35.199219 C 76.709717 35.199219 75.724365 35.415283 75.105469 35.84375 C 74.491862 36.266927 74.185547 36.931966 74.185547 37.841797 C 74.185547 38.603516 74.419271 39.198486 74.884766 39.626953 C 75.35555 40.05542 75.975749 40.269531 76.748047 40.269531 C 77.901204 40.269531 78.83724 39.828695 79.556641 38.945312 L 79.701172 40.103516 L 80.699219 40.103516 L 80.699219 34.564453 C 80.699219 33.495931 80.42513 32.726644 79.875 32.255859 C 79.33016 31.779785 78.553304 31.542969 77.542969 31.542969 z M 113.19922 31.542969 C 111.96672 31.542969 111.00041 31.94401 110.29688 32.748047 C 109.59862 33.546794 109.24805 34.604736 109.24805 35.921875 C 109.24805 37.207275 109.60368 38.255127 110.3125 39.064453 C 111.02132 39.86849 111.98258 40.269531 113.19922 40.269531 C 114.3894 40.269531 115.34757 39.865967 116.07227 39.056641 C 116.79696 38.242025 117.16016 37.196696 117.16016 35.921875 C 117.16016 34.604736 116.80957 33.546794 116.11133 32.748047 C 115.41309 31.94401 114.4423 31.542969 113.19922 31.542969 z M 123 31.542969 C 121.73576 31.542969 120.78516 31.986328 120.15039 32.875 L 120.00781 31.716797 L 118.86523 31.716797 L 118.86523 40.111328 L 120.18164 40.111328 L 120.18164 35.429688 C 120.18164 33.509521 121.04508 32.550781 122.76953 32.550781 C 123.40959 32.550781 123.85546 32.742757 124.10938 33.128906 C 124.36328 33.509766 124.49023 34.079508 124.49023 34.835938 L 124.49023 40.111328 L 125.80859 40.111328 L 125.80859 34.978516 C 125.80859 33.825358 125.57739 32.964436 125.11719 32.398438 C 124.66227 31.827147 123.95744 31.542969 123 31.542969 z M 141.09766 31.542969 C 139.86515 31.542969 138.89689 31.94401 138.19336 32.748047 C 137.49512 33.546794 137.14648 34.604736 137.14648 35.921875 C 137.14648 37.207275 137.50016 38.255127 138.20898 39.064453 C 138.91781 39.86849 139.88102 40.269531 141.09766 40.269531 C 142.28784 40.269531 143.24601 39.865967 143.9707 39.056641 C 144.69539 38.242025 145.05664 37.196696 145.05664 35.921875 C 145.05664 34.604736 144.70801 33.546794 144.00977 32.748047 C 143.31152 31.94401 142.34074 31.542969 141.09766 31.542969 z M 150.61914 31.628906 C 150.11133 31.628906 149.62817 31.772949 149.16797 32.058594 C 148.71305 32.338949 148.32715 32.779786 148.00977 33.382812 L 147.86523 31.716797 L 146.81055 31.716797 L 146.81055 40.111328 L 148.12891 40.111328 L 148.12891 35.359375 C 148.12891 34.613525 148.36068 33.981283 148.82617 33.462891 C 149.29696 32.944499 149.89193 32.685547 150.61133 32.685547 C 150.75944 32.685547 150.9388 32.705727 151.15039 32.748047 L 151.20703 31.669922 C 151.05363 31.643472 150.85718 31.628906 150.61914 31.628906 z M 128.10156 31.716797 L 128.10156 40.111328 L 129.40234 40.111328 L 129.40234 31.716797 L 128.10156 31.716797 z M 68.798828 32.550781 C 69.661051 32.550781 70.310954 32.859619 70.75 33.478516 C 71.189046 34.092122 71.408203 34.911296 71.408203 35.9375 C 71.408203 36.593424 71.318523 37.168213 71.138672 37.660156 C 70.958822 38.14681 70.667643 38.53776 70.265625 38.833984 C 69.868896 39.124919 69.380697 39.271484 68.798828 39.271484 C 67.952474 39.271484 67.305664 38.963216 66.861328 38.349609 C 66.416992 37.736003 66.195313 36.929443 66.195312 35.929688 C 66.195312 34.908772 66.416992 34.092122 66.861328 33.478516 C 67.305664 32.859619 67.952474 32.550781 68.798828 32.550781 z M 86.341797 32.550781 C 87.124674 32.550781 87.7146 32.840007 88.111328 33.421875 C 88.513346 34.003743 88.714844 34.864665 88.714844 36.001953 C 88.709544 37.044027 88.515625 37.848064 88.134766 38.414062 C 87.753906 38.980063 87.131755 39.261719 86.269531 39.261719 C 85.449626 39.261719 84.844564 38.960449 84.453125 38.357422 C 84.066976 37.754395 83.873047 36.927653 83.873047 35.875 C 83.873047 34.817057 84.07959 33.998454 84.492188 33.421875 C 84.904785 32.840007 85.521891 32.550781 86.341797 32.550781 z M 113.19922 32.550781 C 114.06144 32.550781 114.7133 32.859619 115.15234 33.478516 C 115.59139 34.092122 115.81055 34.911296 115.81055 35.9375 C 115.81055 36.593424 115.72085 37.168213 115.54102 37.660156 C 115.36117 38.14681 115.06999 38.53776 114.66797 38.833984 C 114.27124 39.124919 113.78109 39.271484 113.19922 39.271484 C 112.35286 39.271484 111.70801 38.963216 111.26367 38.349609 C 110.81934 37.736003 110.59766 36.929443 110.59766 35.929688 C 110.59766 34.908772 110.81934 34.092122 111.26367 33.478516 C 111.70801 32.859619 112.35286 32.550781 113.19922 32.550781 z M 141.09766 32.550781 C 141.95988 32.550781 142.61174 32.859619 143.05078 33.478516 C 143.48983 34.092122 143.70898 34.911296 143.70898 35.9375 C 143.70898 36.593424 143.61928 37.168213 143.43945 37.660156 C 143.2596 38.14681 142.96842 38.53776 142.56641 38.833984 C 142.16968 39.124919 141.67952 39.271484 141.09766 39.271484 C 140.2513 39.271484 139.60645 38.963216 139.16211 38.349609 C 138.71777 37.736003 138.49609 36.929443 138.49609 35.929688 C 138.49609 34.908772 138.71777 34.092122 139.16211 33.478516 C 139.60645 32.859619 140.2513 32.550781 141.09766 32.550781 z M 78.390625 36.072266 L 79.398438 36.072266 L 79.398438 37.921875 C 78.768962 38.847575 77.912516 39.310547 76.828125 39.310547 C 76.431396 39.310547 76.100423 39.183594 75.835938 38.929688 C 75.571451 38.675781 75.439453 38.315104 75.439453 37.849609 C 75.439453 37.590413 75.464109 37.373779 75.511719 37.199219 C 75.559329 37.019368 75.646483 36.855143 75.773438 36.707031 C 75.900391 36.55363 76.074707 36.436198 76.296875 36.351562 C 76.519043 36.261632 76.8007 36.192139 77.144531 36.144531 C 77.488363 36.096921 77.903971 36.072266 78.390625 36.072266 z M 20 50 L 20 51 L 236 51 L 236 50 L 20 50 z M 25.115234 63.650391 C 24.694499 63.650391 24.302002 63.698401 23.939453 63.796875 C 23.576904 63.895345 23.248535 64.046631 22.953125 64.248047 C 22.657715 64.444987 22.425944 64.711182 22.255859 65.046875 C 22.085775 65.382568 22 65.767008 22 66.201172 C 22 66.832275 22.163493 67.328857 22.490234 67.691406 C 22.816976 68.049479 23.312174 68.354818 23.974609 68.605469 L 25.572266 69.214844 C 26.198893 69.456543 26.619141 69.69637 26.833984 69.933594 C 27.053304 70.166341 27.162109 70.518311 27.162109 70.988281 C 27.162109 71.395589 27.064128 71.738118 26.867188 72.015625 C 26.674723 72.288656 26.424072 72.484619 26.115234 72.605469 C 25.806396 72.721842 25.448324 72.78125 25.041016 72.78125 C 24.539714 72.78125 24.018148 72.69075 23.476562 72.511719 C 22.939453 72.332682 22.457031 72.090088 22.027344 71.78125 L 22.027344 72.841797 C 22.30485 73.087972 22.723714 73.294759 23.283203 73.464844 C 23.842692 73.634928 24.421712 73.720703 25.021484 73.720703 C 25.357178 73.720703 25.674723 73.691003 25.974609 73.632812 C 26.278971 73.574623 26.571533 73.478027 26.853516 73.34375 C 27.135498 73.204997 27.378662 73.034017 27.580078 72.828125 C 27.781494 72.622233 27.94165 72.357422 28.0625 72.035156 C 28.18335 71.712891 28.244141 71.350098 28.244141 70.947266 C 28.244141 70.620524 28.203611 70.329346 28.123047 70.074219 C 28.042477 69.819092 27.941162 69.604247 27.820312 69.429688 C 27.699464 69.255127 27.528482 69.091634 27.304688 68.939453 C 27.085368 68.782796 26.871908 68.657064 26.666016 68.558594 C 26.4646 68.460124 26.203125 68.347982 25.880859 68.222656 L 24.335938 67.617188 C 23.865966 67.433674 23.538981 67.232992 23.355469 67.013672 C 23.176432 66.789876 23.087891 66.472331 23.087891 66.060547 C 23.087891 65.724854 23.185871 65.443115 23.382812 65.214844 C 23.579753 64.986572 23.82902 64.824463 24.128906 64.730469 C 24.428792 64.631999 24.771322 64.583984 25.15625 64.583984 C 25.57251 64.583984 25.988037 64.641445 26.404297 64.757812 C 26.825033 64.874186 27.181722 65.032959 27.472656 65.234375 L 27.902344 64.402344 C 27.517415 64.16512 27.078288 63.981364 26.585938 63.851562 C 26.098063 63.717286 25.607585 63.650391 25.115234 63.650391 z M 217.25586 63.650391 C 216.53971 63.650391 215.93099 63.861898 215.42969 64.287109 C 214.92839 64.707845 214.55282 65.294922 214.30664 66.046875 C 214.06494 66.794352 213.94531 67.683431 213.94531 68.712891 C 213.94531 69.455892 214.01082 70.13151 214.14062 70.740234 C 214.2749 71.344482 214.47087 71.876872 214.73047 72.337891 C 214.99455 72.794434 215.33846 73.14917 215.76367 73.404297 C 216.19336 73.654948 216.69189 73.78125 217.25586 73.78125 C 217.81535 73.78125 218.30387 73.654948 218.72461 73.404297 C 219.14982 73.14917 219.48763 72.791097 219.73828 72.330078 C 219.99341 71.869059 220.18522 71.33667 220.31055 70.732422 C 220.43587 70.128174 220.49805 69.455892 220.49805 68.712891 C 220.49805 67.938558 220.43115 67.244059 220.29688 66.630859 C 220.1626 66.013184 219.9633 65.482179 219.69922 65.039062 C 219.43962 64.591471 219.10181 64.248942 218.68555 64.011719 C 218.27376 63.77002 217.79744 63.650391 217.25586 63.650391 z M 208.82812 63.65625 C 207.93294 63.65625 207.08634 63.900798 206.28516 64.388672 L 206.64648 65.207031 C 207.37158 64.790771 208.08773 64.583984 208.79492 64.583984 C 209.31413 64.583984 209.73633 64.714437 210.05859 64.978516 C 210.38086 65.242594 210.54574 65.645915 210.55469 66.1875 L 210.55469 66.234375 C 210.55469 67.38916 209.76221 67.966797 208.17773 67.966797 L 207.88867 67.966797 L 207.88867 68.867188 L 208.17188 68.867188 C 208.49862 68.867188 208.78174 68.882732 209.02344 68.914062 C 209.26961 68.945392 209.50944 69.006182 209.74219 69.095703 C 209.97493 69.180743 210.16479 69.295654 210.3125 69.443359 C 210.46021 69.586589 210.57845 69.781169 210.66797 70.027344 C 210.75747 70.269043 210.80273 70.558838 210.80273 70.894531 C 210.80273 71.503255 210.64258 71.96875 210.32031 72.291016 C 209.99805 72.613281 209.54948 72.773437 208.97656 72.773438 C 208.26489 72.773438 207.44743 72.53833 206.52539 72.068359 L 206.52539 73.076172 C 207.35343 73.510335 208.18172 73.726562 209.00977 73.726562 C 209.86466 73.726562 210.5686 73.483968 211.11914 72.996094 C 211.67415 72.503743 211.95728 71.803141 211.9707 70.894531 L 211.9707 70.847656 C 211.9707 70.180745 211.78223 69.635579 211.40625 69.214844 C 211.03475 68.794108 210.5415 68.520426 209.92383 68.390625 C 211.11442 68.081787 211.70898 67.335938 211.70898 66.154297 L 211.70898 66.113281 C 211.70498 65.580648 211.566 65.125977 211.29297 64.75 C 211.02441 64.369548 210.67716 64.092529 210.25195 63.917969 C 209.83122 63.743408 209.35628 63.65625 208.82812 63.65625 z M 232.77734 63.783203 L 227.20508 73.585938 L 228.0918 73.585938 L 233.5957 63.783203 L 232.77734 63.783203 z M 227.09766 63.791016 C 226.37703 63.791016 225.81828 64.022786 225.41992 64.488281 C 225.02157 64.9493 224.82227 65.547201 224.82227 66.28125 C 224.82227 67.019775 225.01823 67.622396 225.41211 68.087891 C 225.80599 68.553385 226.36808 68.785156 227.09766 68.785156 C 227.82275 68.785156 228.38485 68.553385 228.7832 68.087891 C 229.18156 67.61792 229.38086 67.015299 229.38086 66.28125 C 229.38086 65.533773 229.18294 64.933105 228.78906 64.476562 C 228.39966 64.020021 227.83618 63.791016 227.09766 63.791016 z M 227.10352 64.416016 C 227.60482 64.416016 227.97843 64.582275 228.22461 64.917969 C 228.47526 65.249186 228.60156 65.702474 228.60156 66.275391 C 228.60156 66.83488 228.47526 67.289551 228.22461 67.638672 C 227.97843 67.983317 227.60482 68.154297 227.10352 68.154297 C 226.60221 68.154297 226.22721 67.984701 225.97656 67.644531 C 225.72591 67.304362 225.59961 66.848307 225.59961 66.275391 C 225.59961 65.715902 225.72591 65.265951 225.97656 64.925781 C 226.22721 64.585612 226.60221 64.416016 227.10352 64.416016 z M 44.558594 64.535156 L 43.666016 64.603516 L 43.484375 66.482422 L 42.390625 66.556641 L 42.363281 67.1875 L 43.457031 67.1875 L 43.457031 71.458984 C 43.457031 71.893148 43.496171 72.243164 43.572266 72.511719 C 43.648356 72.780273 43.783529 73.003174 43.980469 73.177734 C 44.181885 73.352295 44.441976 73.471924 44.759766 73.539062 C 45.077555 73.606202 45.495036 73.640625 46.009766 73.640625 L 46.472656 73.640625 L 46.525391 72.875 L 45.960938 72.847656 C 45.36564 72.825276 44.984538 72.732015 44.814453 72.566406 C 44.644368 72.396322 44.558594 72.027425 44.558594 71.458984 L 44.558594 67.1875 L 46.439453 67.1875 L 46.439453 66.482422 L 44.558594 66.482422 L 44.558594 64.535156 z M 217.25586 64.556641 C 218.6792 64.556641 219.39063 65.928141 219.39062 68.671875 C 219.39064 70.054932 219.20353 71.102783 218.83203 71.814453 C 218.46501 72.521647 217.94067 72.875 217.25586 72.875 C 216.56209 72.875 216.02026 72.518311 215.63086 71.806641 C 215.24593 71.090495 215.05273 70.047363 215.05273 68.677734 C 215.04873 67.366292 215.24284 66.352865 215.63672 65.636719 C 216.0306 64.916097 216.57104 64.556641 217.25586 64.556641 z M 39.201172 66.335938 C 38.458171 66.335938 37.880534 66.514974 37.46875 66.873047 C 37.056966 67.226644 36.851562 67.692139 36.851562 68.269531 C 36.851562 68.735026 36.969808 69.114746 37.207031 69.410156 C 37.444255 69.70109 37.883381 69.950358 38.523438 70.15625 L 39.300781 70.404297 C 39.815511 70.569906 40.172201 70.745605 40.369141 70.933594 C 40.566081 71.121582 40.664062 71.355306 40.664062 71.632812 C 40.664062 72.035646 40.545817 72.34375 40.308594 72.558594 C 40.07137 72.768962 39.738281 72.875 39.308594 72.875 C 38.623779 72.875 37.856283 72.67098 37.005859 72.263672 L 37.005859 73.197266 C 37.739909 73.546387 38.481038 73.720703 39.228516 73.720703 C 39.564209 73.720703 39.872314 73.680173 40.154297 73.599609 C 40.440755 73.519039 40.696126 73.397461 40.919922 73.236328 C 41.148193 73.075195 41.32723 72.860352 41.457031 72.591797 C 41.586833 72.318766 41.652344 72.005941 41.652344 71.652344 C 41.652344 71.365885 41.624023 71.124674 41.570312 70.927734 C 41.516602 70.726318 41.41862 70.537842 41.275391 70.363281 C 41.132161 70.188721 40.932861 70.036051 40.677734 69.90625 C 40.427083 69.771973 40.103434 69.642904 39.705078 69.517578 L 39 69.296875 C 38.538981 69.14917 38.236979 69.010661 38.09375 68.880859 C 37.950521 68.751058 37.878906 68.538981 37.878906 68.248047 C 37.878906 67.903402 37.987712 67.641927 38.207031 67.462891 C 38.430827 67.279378 38.799723 67.1875 39.314453 67.1875 C 39.891846 67.1875 40.489746 67.344889 41.107422 67.658203 L 41.369141 66.832031 C 40.697754 66.500814 39.975505 66.335938 39.201172 66.335938 z M 50.789062 66.335938 C 49.849122 66.335938 49.075521 66.673747 48.466797 67.349609 C 47.858073 68.025472 47.552734 68.931478 47.552734 70.068359 C 47.552734 71.191813 47.864176 72.082275 48.486328 72.740234 C 49.10848 73.393717 49.917887 73.720703 50.916016 73.720703 C 51.811198 73.720703 52.611735 73.511963 53.314453 73.095703 L 53.078125 72.310547 C 52.702148 72.498535 52.362956 72.640381 52.058594 72.734375 C 51.754232 72.828365 51.416423 72.875 51.044922 72.875 C 50.360107 72.875 49.804118 72.65682 49.378906 72.222656 C 48.953695 71.784017 48.723307 71.113118 48.6875 70.208984 L 53.488281 70.208984 L 53.529297 69.644531 C 53.529297 68.60612 53.294189 67.796712 52.824219 67.214844 C 52.358724 66.628499 51.679769 66.335938 50.789062 66.335938 z M 58.261719 66.335938 C 57.353109 66.335938 56.622803 66.734538 56.072266 67.53125 L 55.945312 66.482422 L 55.044922 66.482422 L 55.044922 73.585938 L 56.160156 73.585938 L 56.160156 69.255859 C 56.254146 68.633708 56.459554 68.13379 56.777344 67.757812 C 57.099609 67.37736 57.534017 67.1875 58.080078 67.1875 C 58.576904 67.1875 58.91805 67.374593 59.101562 67.746094 C 59.285075 68.113118 59.376953 68.729329 59.376953 69.597656 L 59.376953 73.585938 L 60.490234 73.585938 L 60.490234 69.941406 C 60.503664 69.32373 60.528643 68.952881 60.564453 68.832031 C 60.685303 68.299398 60.914307 67.893311 61.25 67.611328 C 61.585693 67.329346 61.966797 67.1875 62.396484 67.1875 C 62.588949 67.1875 62.757161 67.217201 62.900391 67.275391 C 63.048096 67.329101 63.164958 67.414876 63.25 67.53125 C 63.33952 67.647624 63.411133 67.765869 63.464844 67.886719 C 63.518554 68.003092 63.555744 68.157145 63.578125 68.349609 C 63.600505 68.542074 63.614661 68.705566 63.619141 68.839844 C 63.628141 68.969645 63.632812 69.142578 63.632812 69.357422 L 63.632812 73.585938 L 64.748047 73.585938 L 64.748047 69.007812 C 64.748047 67.2264 64.022461 66.335938 62.572266 66.335938 C 61.542806 66.335938 60.761149 66.816976 60.228516 67.779297 C 60.062907 67.32723 59.827798 66.973877 59.523438 66.71875 C 59.219076 66.463623 58.798828 66.335938 58.261719 66.335938 z M 29.359375 66.482422 L 32.171875 73.371094 L 31.125 76.042969 L 32.125 76.257812 L 35.863281 66.482422 L 34.736328 66.482422 L 32.708984 72.15625 L 30.492188 66.482422 L 29.359375 66.482422 z M 50.816406 67.1875 C 51.944336 67.1875 52.53418 67.953613 52.587891 69.484375 L 48.720703 69.484375 C 48.783363 68.777181 49.00293 68.218424 49.378906 67.806641 C 49.759359 67.394857 50.239014 67.1875 50.816406 67.1875 z M 233.7168 68.591797 C 232.99618 68.591797 232.43742 68.823569 232.03906 69.289062 C 231.64071 69.754558 231.44141 70.353841 231.44141 71.087891 C 231.44141 71.826416 231.63737 72.429036 232.03125 72.894531 C 232.42513 73.360026 232.98722 73.59375 233.7168 73.59375 C 234.44189 73.59375 235.00399 73.360026 235.40234 72.894531 C 235.8007 72.424561 236 71.82194 236 71.087891 C 236 70.340413 235.80404 69.739746 235.41016 69.283203 C 235.02075 68.822184 234.45532 68.591797 233.7168 68.591797 z M 233.72461 69.222656 C 234.22591 69.222656 234.59953 69.39087 234.8457 69.726562 C 235.09635 70.057781 235.2207 70.509115 235.2207 71.082031 C 235.2207 71.64152 235.09635 72.096192 234.8457 72.445312 C 234.59953 72.794434 234.22591 72.96875 233.72461 72.96875 C 233.22331 72.96875 232.84635 72.799154 232.5957 72.458984 C 232.34505 72.114339 232.2207 71.654948 232.2207 71.082031 C 232.2207 70.522542 232.34505 70.072591 232.5957 69.732422 C 232.84635 69.392253 233.22331 69.222656 233.72461 69.222656 z M 20 138 L 20 139 L 236 139 L 236 138 L 20 138 z M 26.484375 151.65039 C 25.566813 151.65039 24.757405 151.8619 24.054688 152.28711 C 23.356444 152.70785 22.819336 153.29631 22.443359 154.05273 C 22.067383 154.80916 21.878906 155.6766 21.878906 156.65234 C 21.878906 157.41325 21.992432 158.11051 22.220703 158.74609 C 22.453451 159.38167 22.775716 159.9174 23.1875 160.35156 C 23.599284 160.78125 24.093099 161.11572 24.666016 161.35742 C 25.243408 161.59465 25.869059 161.71484 26.544922 161.71484 C 27.511719 161.71484 28.37443 161.52165 29.130859 161.13672 L 28.855469 160.25781 C 28.121419 160.60246 27.39445 160.77344 26.673828 160.77344 C 25.563802 160.77344 24.684163 160.39982 24.035156 159.65234 C 23.390625 158.90487 23.068359 157.91781 23.068359 156.69141 C 23.068359 155.46948 23.381186 154.48104 24.007812 153.72461 C 24.638917 152.9637 25.49829 152.58398 26.585938 152.58398 C 27.431884 152.58398 28.169678 152.77995 28.800781 153.17383 L 29.191406 152.40234 C 28.493164 151.90104 27.589925 151.65039 26.484375 151.65039 z M 217.25586 151.65039 C 216.53971 151.65039 215.93099 151.8619 215.42969 152.28711 C 214.92839 152.70785 214.55282 153.29492 214.30664 154.04688 C 214.06494 154.79434 213.94531 155.68343 213.94531 156.71289 C 213.94531 157.45589 214.01081 158.13151 214.14062 158.74023 C 214.2749 159.34448 214.47087 159.87687 214.73047 160.33789 C 214.99455 160.79443 215.33846 161.14917 215.76367 161.4043 C 216.19336 161.65495 216.69189 161.78125 217.25586 161.78125 C 217.81535 161.78125 218.30387 161.65495 218.72461 161.4043 C 219.14982 161.14917 219.48763 160.7911 219.73828 160.33008 C 219.99341 159.86906 220.18522 159.33667 220.31055 158.73242 C 220.43587 158.12817 220.49805 157.45589 220.49805 156.71289 C 220.49805 155.93856 220.43114 155.24406 220.29688 154.63086 C 220.1626 154.01318 219.9633 153.48218 219.69922 153.03906 C 219.43962 152.59147 219.10181 152.24894 218.68555 152.01172 C 218.27376 151.77002 217.79744 151.65039 217.25586 151.65039 z M 30.849609 151.7832 L 30.849609 161.58594 L 32.03125 161.58594 L 32.03125 156.8457 L 34.152344 156.8457 C 35.257894 156.8457 36.062581 156.62337 36.568359 156.17578 C 37.074137 155.72371 37.328125 155.05892 37.328125 154.18164 C 37.328125 153.75195 37.250405 153.37972 37.09375 153.06641 C 36.941569 152.74862 36.718669 152.49797 36.427734 152.31445 C 36.1368 152.13094 35.805094 151.99715 35.433594 151.91211 C 35.062093 151.82711 34.641846 151.7832 34.171875 151.7832 L 30.849609 151.7832 z M 38.677734 151.7832 L 38.677734 158.03516 C 38.677734 159.16309 39.001383 160.05827 39.650391 160.7207 C 40.299398 161.38314 41.255371 161.71484 42.517578 161.71484 C 43.148682 161.71484 43.710775 161.62434 44.203125 161.44531 C 44.695475 161.2618 45.095459 161.00643 45.404297 160.67969 C 45.717611 160.34847 45.956054 159.96069 46.117188 159.51758 C 46.27832 159.07446 46.357422 158.58732 46.357422 158.05469 L 46.357422 151.7832 L 45.175781 151.7832 L 45.175781 158.01367 C 45.175781 158.91781 44.953451 159.6062 44.505859 160.07617 C 44.058268 160.54167 43.394857 160.77344 42.517578 160.77344 C 40.745117 160.77344 39.859375 159.85327 39.859375 158.01367 L 39.859375 151.7832 L 38.677734 151.7832 z M 209.13867 151.7832 C 208.90592 151.94434 208.55534 152.10783 208.08984 152.27344 C 207.62882 152.43457 207.23022 152.55005 206.89453 152.61719 L 206.89453 153.50195 C 207.19442 153.46165 207.55721 153.37451 207.98242 153.24023 C 208.41211 153.10596 208.7688 152.96134 209.05078 152.80469 L 209.05078 160.78125 L 206.6875 160.78125 L 206.6875 161.58594 L 212.27344 161.58594 L 212.27344 160.78125 L 210.16602 160.78125 L 210.16602 151.7832 L 209.13867 151.7832 z M 232.77734 151.7832 L 227.20508 161.58594 L 228.0918 161.58594 L 233.5957 151.7832 L 232.77734 151.7832 z M 227.09766 151.79102 C 226.37703 151.79102 225.81828 152.02279 225.41992 152.48828 C 225.02157 152.9493 224.82227 153.5472 224.82227 154.28125 C 224.82227 155.01978 225.01823 155.6224 225.41211 156.08789 C 225.80599 156.55339 226.36808 156.78516 227.09766 156.78516 C 227.82275 156.78516 228.38485 156.55339 228.7832 156.08789 C 229.18156 155.61792 229.38086 155.0153 229.38086 154.28125 C 229.38086 153.53377 229.18294 152.93311 228.78906 152.47656 C 228.39966 152.02002 227.83618 151.79102 227.09766 151.79102 z M 227.10352 152.41602 C 227.60482 152.41602 227.97843 152.58228 228.22461 152.91797 C 228.47526 153.24919 228.60156 153.70247 228.60156 154.27539 C 228.60156 154.83488 228.47526 155.28955 228.22461 155.63867 C 227.97843 155.98332 227.60482 156.1543 227.10352 156.1543 C 226.60221 156.1543 226.22721 155.9847 225.97656 155.64453 C 225.72591 155.30436 225.59961 154.84831 225.59961 154.27539 C 225.59961 153.7159 225.72591 153.26595 225.97656 152.92578 C 226.22721 152.58561 226.60221 152.41602 227.10352 152.41602 z M 217.25586 152.55664 C 218.6792 152.55664 219.39062 153.92814 219.39062 156.67188 C 219.39064 158.05492 219.20353 159.10278 218.83203 159.81445 C 218.46501 160.52165 217.94067 160.875 217.25586 160.875 C 216.56209 160.875 216.02026 160.51831 215.63086 159.80664 C 215.24593 159.09049 215.05273 158.04736 215.05273 156.67773 C 215.04873 155.36629 215.24284 154.35286 215.63672 153.63672 C 216.0306 152.9161 216.57104 152.55664 217.25586 152.55664 z M 32.03125 152.66992 L 34.166016 152.66992 C 34.810547 152.66992 35.301025 152.78678 35.636719 153.01953 C 35.976888 153.2478 36.146484 153.6403 36.146484 154.19531 C 36.146484 154.83984 35.992432 155.29118 35.683594 155.55078 C 35.379232 155.81038 34.859049 155.93945 34.125 155.93945 L 32.03125 155.93945 L 32.03125 152.66992 z M 233.7168 156.5918 C 232.99618 156.5918 232.43742 156.82357 232.03906 157.28906 C 231.64071 157.75456 231.44141 158.35384 231.44141 159.08789 C 231.44141 159.82642 231.63737 160.42904 232.03125 160.89453 C 232.42513 161.36003 232.98722 161.59375 233.7168 161.59375 C 234.44189 161.59375 235.00399 161.36003 235.40234 160.89453 C 235.8007 160.42456 236 159.82194 236 159.08789 C 236 158.34041 235.80404 157.73975 235.41016 157.2832 C 235.02075 156.82218 234.45532 156.5918 233.7168 156.5918 z M 233.72461 157.22266 C 234.22591 157.22266 234.59953 157.39087 234.8457 157.72656 C 235.09635 158.05778 235.2207 158.50911 235.2207 159.08203 C 235.2207 159.64152 235.09635 160.09619 234.8457 160.44531 C 234.59953 160.79443 234.22591 160.96875 233.72461 160.96875 C 233.22331 160.96875 232.84635 160.79915 232.5957 160.45898 C 232.34505 160.11434 232.2207 159.65495 232.2207 159.08203 C 232.2207 158.52254 232.34505 158.07259 232.5957 157.73242 C 232.84635 157.39225 233.22331 157.22266 233.72461 157.22266 z M 20 226 L 20 227 L 236 227 L 236 226 L 20 226 z "
     id="rect7886" />
  <path
     style="fill:#3daee9;fill-opacity:1;stroke:none"
     d="M 28.496094 85.009766 C 25.80942 85.058271 22.985669 85.373241 20 86 L 20 138 L 236 138 L 236 106 C 220 106 185 131 175 131 C 165 131 155 101 140 101 C 125 101 125 121 105 121 C 72.734378 121 60.198845 84.437403 28.496094 85.009766 z M 175 176 C 150 176 155 201 140 201 C 125 201 120 221 100 221 C 85 221 75 181 20 181 L 20 226 L 236 226 L 235 216 C 210 216 200 176 175 176 z "
     id="path5466" />
  <g
     transform="matrix(0.6153846,0,0,0.6153846,-211.42857,-115.33705)"
     id="layer1-2"
     inkscape:label="Capa 1">
    <path
       id="path4346"
       transform="translate(376.57144,491.79797)"
       d="M 6,15 6,16 9.1992188,18.400391 10,18 6,15 Z"
       style="fill:#dce269;fill-opacity:1;fill-rule:evenodd;stroke:none;stroke-width:1px;stroke-linecap:butt;stroke-linejoin:miter;stroke-opacity:1"
       inkscape:connector-curvature="0" />
    <path
       id="rect4283"
       transform="translate(376.57144,491.79797)"
       d="m 6,6 0,9 4,3 -4,2 0,38 52,0 L 58,6 6,6 Z"
       style="opacity:1;fill:url(#linearGradient4291);fill-opacity:1;stroke:none"
       inkscape:connector-curvature="0" />
    <path
       id="path4378"
       transform="translate(376.57144,491.79797)"
       d="m 49,15 -34,34 9,9 34,0 0,-34 -9,-9 z"
       style="opacity:0.2;fill:url(#linearGradient4383);fill-opacity:1;fill-rule:evenodd;stroke:none;stroke-width:1px;stroke-linecap:butt;stroke-linejoin:miter;stroke-opacity:1"
       inkscape:connector-curvature="0" />
    <rect
       y="548.79773"
       x="382.57144"
       height="0.99999976"
       width="52"
       id="rect4293"
       style="opacity:1;fill:#dce269;fill-opacity:1;stroke:none" />
    <path
       id="path4303-6"
       d="m 427.57143,543.79797 0,1 -1,0 0,-1 1,0 z m -1,1 0,1 -1,0 0,-1 1,0 z m -1,0 -1,0 0,-1 1,0 0,1 z m -1,0 0,1 -1,0 0,-1 1,0 z m -1,0 -1,0 0,-1 1,0 0,1 z m -1,0 0,1 -1,0 0,-1 1,0 z m -1,0 -1,0 0,-1 1,0 0,1 z m -1,0 0,1 -1,0 0,-1 1,0 z m -1,0 -1,0 0,-1 1,0 0,1 z m -1,0 0,1 -1,0 0,-1 1,0 z m -1,0 -1,0 0,-1 1,0 0,1 z m -1,0 0,1 -1,0 0,-1 1,0 z m -1,0 -1,0 0,-1 1,0 0,1 z m -1,0 0,1 -1,0 0,-1 1,0 z m -1,0 -1,0 0,-1 1,0 0,1 z m -1,0 0,1 -1,0 0,-1 1,0 z"
       style="color:#000000;font-style:normal;font-variant:normal;font-weight:normal;font-stretch:normal;font-size:medium;line-height:normal;font-family:Sans;-inkscape-font-specification:Sans;text-indent:0;text-align:start;text-decoration:none;text-decoration-line:none;letter-spacing:normal;word-spacing:normal;text-transform:none;direction:ltr;block-progression:tb;writing-mode:lr-tb;baseline-shift:baseline;text-anchor:start;display:inline;overflow:visible;visibility:visible;opacity:0.6;fill:#dee372;fill-opacity:1;stroke:none;stroke-width:1;marker:none;enable-background:accumulate"
       inkscape:connector-curvature="0" />
    <path
       id="path4317"
       d="m 431.57143,543.79797 -2,2 2,0 0,-2 z"
       style="fill:#e6ea97;fill-opacity:1;fill-rule:evenodd;stroke:none"
       inkscape:connector-curvature="0" />
    <path
       inkscape:connector-curvature="0"
       style="color:#000000;font-style:normal;font-variant:normal;font-weight:normal;font-stretch:normal;font-size:medium;line-height:normal;font-family:Sans;-inkscape-font-specification:Sans;text-indent:0;text-align:start;text-decoration:none;text-decoration-line:none;letter-spacing:normal;word-spacing:normal;text-transform:none;direction:ltr;block-progression:tb;writing-mode:lr-tb;baseline-shift:baseline;text-anchor:start;display:inline;overflow:visible;visibility:visible;opacity:0.6;fill:#dee372;fill-opacity:1;stroke:none;stroke-width:1;marker:none;enable-background:accumulate"
       d="m 387.57143,543.79797 0,1 1,0 0,-1 -1,0 z m 1,1 0,1 1,0 0,-1 -1,0 z m 1,0 1,0 0,-1 -1,0 0,1 z m 1,0 0,1 1,0 0,-1 -1,0 z m 1,0 1,0 0,-1 -1,0 0,1 z m 1,0 0,1 1,0 0,-1 -1,0 z m 1,0 1,0 0,-1 -1,0 0,1 z m 1,0 0,1 1,0 0,-1 -1,0 z m 1,0 1,0 0,-1 -1,0 0,1 z m 1,0 0,1 1,0 0,-1 -1,0 z m 1,0 1,0 0,-1 -1,0 0,1 z m 1,0 0,1 1,0 0,-1 -1,0 z m 1,0 1,0 0,-1 -1,0 0,1 z m 1,0 0,1 1,0 0,-1 -1,0 z m 1,0 1,0 0,-1 -1,0 0,1 z m 1,0 0,1 1,0 0,-1 -1,0 z"
       id="path4331" />
    <path
       inkscape:connector-curvature="0"
       style="color:#000000;font-style:normal;font-variant:normal;font-weight:normal;font-stretch:normal;font-size:medium;line-height:normal;font-family:Sans;-inkscape-font-specification:Sans;text-indent:0;text-align:start;text-decoration:none;text-decoration-line:none;letter-spacing:normal;word-spacing:normal;text-transform:none;direction:ltr;block-progression:tb;writing-mode:lr-tb;baseline-shift:baseline;text-anchor:start;display:inline;overflow:visible;visibility:visible;opacity:0.6;fill:#dee372;fill-opacity:1;stroke:none;stroke-width:1;marker:none;enable-background:accumulate"
       d="m 432.57143,521.79797 -1,0 0,-1 1,0 0,1 z m -1,-1 -1,0 0,-1 1,0 0,1 z m 0,-1 0,-1 1,0 0,1 -1,0 z m 0,-1 -1,0 0,-1 1,0 0,1 z m 0,-1 0,-1 1,0 0,1 -1,0 z m 0,-1 -1,0 0,-1 1,0 0,1 z m 0,-1 0,-1 1,0 0,1 -1,0 z m 0,-1 -1,0 0,-1 1,0 0,1 z m 0,-1 0,-1 1,0 0,1 -1,0 z m 0,-1 -1,0 0,-1 1,0 0,1 z m 0,-1 0,-1 1,0 0,1 -1,0 z m 0,-1 -1,0 0,-1 1,0 0,1 z m 0,-1 0,-1 1,0 0,1 -1,0 z m 0,-1 -1,0 0,-1 1,0 0,1 z m 0,-1 0,-1 1,0 0,1 -1,0 z m 0,-1 -1,0 0,-1 1,0 0,1 z"
       id="path4333" />
    <rect
       style="opacity:1;fill:url(#linearGradient4337);fill-opacity:1;stroke:none"
       id="rect4335"
       width="34"
       height="34"
       x="391.57144"
       y="506.79797" />
    <path
       sodipodi:nodetypes="ccccccccccccccccccccccccccccccccccccccccccccc"
       inkscape:connector-curvature="0"
       id="path4339"
       transform="translate(376.57144,491.79797)"
       d="m 54,40 0,1 1,0 0,-1 z m 1,1 0,1 1,0 0,-1 z m 0,1 -1,0 0,1 1,0 z m 0,1 0,1 1,0 0,-1 z m 0,1 -1,0 0,1 1,0 z m 0,1 0,1 1,0 0,-1 z m 0,1 -1,0 0,1 1,0 z m 0,1 0,1 1,0 0,-1 z m 0,1 -1,0 0,1 1,0 z"
       style="color:#000000;font-style:normal;font-variant:normal;font-weight:normal;font-stretch:normal;font-size:medium;line-height:normal;font-family:Sans;-inkscape-font-specification:Sans;text-indent:0;text-align:start;text-decoration:none;text-decoration-line:none;letter-spacing:normal;word-spacing:normal;text-transform:none;direction:ltr;block-progression:tb;writing-mode:lr-tb;baseline-shift:baseline;text-anchor:start;display:inline;overflow:visible;visibility:visible;opacity:0.6;fill:#dee372;fill-opacity:1;stroke:none;stroke-width:1;marker:none;enable-background:accumulate" />
    <path
       id="path5074"
       d="m 404.57144,516.89758 0,1.5 7.2168,7.18359 -1.2168,1.2168 7,7 0,-10 -2,-2 -2.5332,2.5332 -7.4668,-7.43359 -1,0 z m -2,5.40039 0,2.19922 4,3.97461 0,2.32617 7,7 4,0 0,-1.58008 -14,-13.91992 -1,0 z"
       style="opacity:0.2;fill:url(#linearGradient5093);fill-opacity:1;fill-rule:evenodd;stroke:none;stroke-width:1px;stroke-linecap:butt;stroke-linejoin:miter;stroke-opacity:1"
       inkscape:connector-curvature="0" />
    <path
       inkscape:connector-curvature="0"
       id="path4783"
       d="m 405.07144,516.79797 c -0.48475,0 -0.875,0.39025 -0.875,0.875 0,0.48475 0.39025,0.875 0.875,0.875 0.48475,0 0.875,-0.39025 0.875,-0.875 0,-0.48475 -0.39025,-0.875 -0.875,-0.875 z m 5.5,0 -2,2 3,3 -3,3 2,2 3,-3 2,-2 -2,-2 -3,-3 z m -7.6875,5.25 c -0.72712,0 -1.3125,0.58537 -1.3125,1.3125 0,0.72712 0.58538,1.3125 1.3125,1.3125 0.72713,0 1.3125,-0.58538 1.3125,-1.3125 0,-0.72713 -0.58537,-1.3125 -1.3125,-1.3125 z m 3.9375,5.25 c -0.9695,0 -1.75,0.7805 -1.75,1.75 0,0.9695 0.7805,1.75 1.75,1.75 0.9695,0 1.75,-0.7805 1.75,-1.75 0,-0.9695 -0.7805,-1.75 -1.75,-1.75 z"
       style="opacity:1;fill:url(#linearGradient5010);fill-opacity:1;stroke:none" />
    <rect
       y="539.79797"
       x="391.57144"
       height="0.99999636"
       width="34"
       id="rect4167"
       style="opacity:1;fill:#616365;fill-opacity:1;stroke:none" />
    <rect
       y="535.79797"
       x="393.57144"
       height="1"
       width="8"
       id="rect4172"
       style="opacity:1;fill:#484a4b;fill-opacity:1;stroke:none" />
    <rect
       y="537.79797"
       x="393.57144"
       height="1"
       width="4"
       id="rect4174"
       style="opacity:1;fill:#484a4b;fill-opacity:1;stroke:none" />
    <path
       id="rect4176"
       transform="translate(376.57144,491.79797)"
       d="m 42,16 0,1 1,0 1,0 0,-1 -1,0 -1,0 z m 2,1 0,1 -1,0 -1,0 0,1 0,1 0,1 1,0 0,-1 0,-1 1,0 0,1 0,1 1,0 1,0 1,0 0,-1 -1,0 0,-1 -1,0 0,-1 1,0 0,-1 -1,0 -1,0 z m 2,0 1,0 0,-1 -1,0 0,1 z m 0,1 0,1 1,0 0,-1 -1,0 z"
       style="opacity:1;fill:#484a4b;fill-opacity:1;stroke:none"
       inkscape:connector-curvature="0" />
  </g>
  <g
     transform="matrix(0.6956522,0,0,0.6956522,-244.22362,-247.46813)"
     id="layer1-1"
     inkscape:label="Capa 1">
    <rect
       ry="0"
       y="497.798"
       x="385.57144"
       height="51.999908"
       width="45.999985"
       id="rect4139"
       style="opacity:1;fill:url(#linearGradient4158);fill-opacity:1;stroke:none" />
    <path
       inkscape:connector-curvature="0"
       id="path4795"
       d="m 387.57143,543.79799 6,6 37,0 1,-2e-5 0,-46.99998 0,-1 -2,-2 0,44 z"
       style="opacity:0.2;fill:url(#linearGradient4881);fill-opacity:1;fill-rule:evenodd;stroke:none;stroke-width:1px;stroke-linecap:butt;stroke-linejoin:miter;stroke-opacity:1" />
    <rect
       y="548.79797"
       x="385.57144"
       height="1.0000228"
       width="45.999985"
       id="rect4492"
       style="opacity:1;fill:#737b81;fill-opacity:1;stroke:none;stroke-width:2.79999995;stroke-miterlimit:4;stroke-dasharray:none;stroke-opacity:0.55026455" />
    <rect
       y="545.7981"
       x="393.57144"
       height="3.999939"
       width="30"
       id="rect4671"
       style="opacity:1;fill:#292c2e;fill-opacity:1;stroke:none;stroke-width:0.1;stroke-miterlimit:4;stroke-dasharray:none;stroke-opacity:1" />
    <rect
       style="opacity:1;fill:#abb9be;fill-opacity:1;stroke:none;stroke-width:0.1;stroke-miterlimit:4;stroke-dasharray:none;stroke-opacity:1"
       id="rect4963"
       width="15.599988"
       height="15.599988"
       x="400.77151"
       y="506.89804"
       ry="7.7999926" />
    <path
       transform="translate(376.57144,491.79797)"
       id="path4648"
       d="m 11,8 0,44 21,0 21,0 L 53,8 32,8 11,8 Z"
       style="fill:url(#linearGradient4659);fill-opacity:1;fill-rule:evenodd;stroke:none;stroke-width:1px;stroke-linecap:butt;stroke-linejoin:miter;stroke-opacity:1"
       inkscape:connector-curvature="0" />
    <rect
       y="532.79822"
       x="390.57144"
       height="5.0000229"
       width="11.999987"
       id="rect4985"
       style="opacity:1;fill:#fdbc4a;fill-opacity:1;stroke:none;stroke-width:0.1;stroke-miterlimit:4;stroke-dasharray:none;stroke-opacity:1" />
    <rect
       y="533.79822"
       x="391.57144"
       height="1.0000228"
       width="9.9999866"
       id="rect5119"
       style="opacity:1;fill:#ffffff;fill-opacity:1;stroke:none;stroke-width:0.1;stroke-miterlimit:4;stroke-dasharray:none;stroke-opacity:1" />
    <rect
       y="535.79846"
       x="391.57144"
       height="1.0000228"
       width="7.9999866"
       id="rect5121"
       style="opacity:1;fill:#ffffff;fill-opacity:1;stroke:none;stroke-width:0.1;stroke-miterlimit:4;stroke-dasharray:none;stroke-opacity:1" />
    <rect
       y="548.79797"
       x="393.57144"
       height="1"
       width="29.999987"
       id="rect4194"
       style="opacity:1;fill:#202324;fill-opacity:1;stroke:none;stroke-opacity:1" />
    <rect
       ry="9.6193602e-05"
       y="546.79797"
       x="395.5715"
       height="1"
       width="1.9999866"
       id="rect4544"
       style="opacity:1;fill:#f9cf8d;fill-opacity:1;stroke:none;stroke-opacity:1" />
    <rect
       ry="9.6193602e-05"
       y="547.79797"
       x="395.5715"
       height="1"
       width="1.9999866"
       id="rect4546"
       style="opacity:1;fill:#f6b44d;fill-opacity:1;stroke:none;stroke-opacity:1" />
    <rect
       ry="9.6193602e-05"
       y="546.79797"
       x="419.5715"
       height="1"
       width="1.9999866"
       id="rect4544-0"
       style="opacity:1;fill:#f9cf8d;fill-opacity:1;stroke:none;stroke-opacity:1" />
    <rect
       ry="9.6193602e-05"
       y="547.79797"
       x="419.5715"
       height="1"
       width="1.9999866"
       id="rect4546-7"
       style="opacity:1;fill:#f6b44d;fill-opacity:1;stroke:none;stroke-opacity:1" />
    <rect
       ry="9.6193602e-05"
       y="546.79797"
       x="398.5715"
       height="1"
       width="1.9999866"
       id="rect4544-6"
       style="opacity:1;fill:#f9cf8d;fill-opacity:1;stroke:none;stroke-opacity:1" />
    <rect
       ry="9.6193602e-05"
       y="547.79797"
       x="398.5715"
       height="1"
       width="1.9999866"
       id="rect4546-5"
       style="opacity:1;fill:#f6b44d;fill-opacity:1;stroke:none;stroke-opacity:1" />
    <rect
       ry="9.6193602e-05"
       y="546.79797"
       x="401.5715"
       height="1"
       width="1.9999866"
       id="rect4544-1"
       style="opacity:1;fill:#f9cf8d;fill-opacity:1;stroke:none;stroke-opacity:1" />
    <rect
       ry="9.6193602e-05"
       y="547.79797"
       x="401.5715"
       height="1"
       width="1.9999866"
       id="rect4546-3"
       style="opacity:1;fill:#f6b44d;fill-opacity:1;stroke:none;stroke-opacity:1" />
    <rect
       ry="9.6193602e-05"
       y="546.79797"
       x="407.57144"
       height="1"
       width="1.9999866"
       id="rect4544-06"
       style="opacity:1;fill:#f9cf8d;fill-opacity:1;stroke:none;stroke-opacity:1" />
    <rect
       ry="9.6193602e-05"
       y="547.79797"
       x="407.57144"
       height="1"
       width="1.9999866"
       id="rect4546-6"
       style="opacity:1;fill:#f6b44d;fill-opacity:1;stroke:none;stroke-opacity:1" />
    <rect
       ry="9.6193602e-05"
       y="546.79797"
       x="416.5715"
       height="1"
       width="1.9999866"
       id="rect4544-9"
       style="opacity:1;fill:#f9cf8d;fill-opacity:1;stroke:none;stroke-opacity:1" />
    <rect
       ry="9.6193602e-05"
       y="547.79797"
       x="416.5715"
       height="1"
       width="1.9999866"
       id="rect4546-0"
       style="opacity:1;fill:#f6b44d;fill-opacity:1;stroke:none;stroke-opacity:1" />
    <rect
       ry="9.6193602e-05"
       y="546.79797"
       x="413.5715"
       height="1"
       width="1.9999866"
       id="rect4544-8"
       style="opacity:1;fill:#f9cf8d;fill-opacity:1;stroke:none;stroke-opacity:1" />
    <rect
       ry="9.6193602e-05"
       y="547.79797"
       x="413.5715"
       height="1"
       width="1.9999866"
       id="rect4546-55"
       style="opacity:1;fill:#f6b44d;fill-opacity:1;stroke:none;stroke-opacity:1" />
    <rect
       ry="9.6193602e-05"
       y="546.79797"
       x="410.5715"
       height="1"
       width="1.9999866"
       id="rect4544-8-8"
       style="opacity:1;fill:#f9cf8d;fill-opacity:1;stroke:none;stroke-opacity:1" />
    <rect
       ry="9.6193602e-05"
       y="547.79797"
       x="410.5715"
       height="1"
       width="1.9999866"
       id="rect4546-55-5"
       style="opacity:1;fill:#f6b44d;fill-opacity:1;stroke:none;stroke-opacity:1" />
    <rect
       ry="9.6193602e-05"
       y="546.79797"
       x="404.5715"
       height="1"
       width="1.9999866"
       id="rect4544-8-89"
       style="opacity:1;fill:#f9cf8d;fill-opacity:1;stroke:none;stroke-opacity:1" />
    <rect
       ry="9.6193602e-05"
       y="547.79797"
       x="404.5715"
       height="1"
       width="1.9999866"
       id="rect4546-55-7"
       style="opacity:1;fill:#f6b44d;fill-opacity:1;stroke:none;stroke-opacity:1" />
    <rect
       y="532.79797"
       x="414.57144"
       height="0.99999231"
       width="12.999987"
       id="rect4979"
       style="color:#f2f2f2;opacity:1;fill:currentColor;fill-opacity:1;stroke:none;stroke-width:0.1;stroke-miterlimit:4;stroke-dasharray:none;stroke-opacity:1"
       class="ColorScheme-Text" />
    <rect
       y="534.79803"
       x="414.57144"
       height="1"
       width="13.000044"
       id="rect4981"
       style="color:#f2f2f2;opacity:1;fill:currentColor;fill-opacity:1;stroke:none;stroke-width:0.1;stroke-miterlimit:4;stroke-dasharray:none;stroke-opacity:1"
       class="ColorScheme-Text" />
    <rect
       y="536.79822"
       x="414.57144"
       height="1"
       width="13.000013"
       id="rect4983"
       style="color:#f2f2f2;opacity:1;fill:currentColor;fill-opacity:1;stroke:none;stroke-width:0.1;stroke-miterlimit:4;stroke-dasharray:none;stroke-opacity:1"
       class="ColorScheme-Text" />
    <path
       transform="translate(376.57144,491.79797)"
       id="rect4200"
       d="m 18.707031,14.292969 -1.414062,1.414062 8,8 L 25,24 55,54 55,44 30,19 l -3.292969,3.292969 -8,-8 z m -2.146484,6.146484 -2.121094,2.121094 5.5,5.5 -1.353515,1.353515 L 47.169922,58 l 6.953125,0 -37.5625,-37.560547 z"
       style="opacity:0.2;fill:url(#linearGradient4231);fill-opacity:1;stroke:none;stroke-opacity:1"
       inkscape:connector-curvature="0" />
    <g
       style="fill:url(#linearGradient4793);fill-opacity:1"
       inkscape:label="Capa 1"
       id="layer1-7"
       transform="translate(387.57144,-527.56423)">
      <path
         inkscape:connector-curvature="0"
         style="opacity:1;fill:url(#linearGradient4321);fill-opacity:1;stroke:none"
         d="M 7,3 C 6.446,3 6,3.446 6,4 6,4.554 6.446,5 7,5 7.554,5 8,4.554 8,4 8,3.446 7.554,3 7,3 Z m 7,0 -2,2 3,3 -3,3 2,2 3,-3 2,-2 -5,-5 z M 4.5,9 C 3.669,9 3,9.669 3,10.5 3,11.331 3.669,12 4.5,12 5.331,12 6,11.331 6,10.5 6,9.669 5.331,9 4.5,9 Z M 9,15 c -1.108,0 -2,0.892 -2,2 0,1.108 0.892,2 2,2 1.108,0 2,-0.892 2,-2 0,-1.108 -0.892,-2 -2,-2 z"
         transform="translate(0,1030.3622)"
         id="rect4231" />
    </g>
  </g>
</svg>
