<?xml version="1.0" encoding="UTF-8" standalone="no"?>
<svg
   xmlns:dc="http://purl.org/dc/elements/1.1/"
   xmlns:cc="http://creativecommons.org/ns#"
   xmlns:rdf="http://www.w3.org/1999/02/22-rdf-syntax-ns#"
   xmlns:svg="http://www.w3.org/2000/svg"
   xmlns="http://www.w3.org/2000/svg"
   xmlns:xlink="http://www.w3.org/1999/xlink"
   xmlns:sodipodi="http://sodipodi.sourceforge.net/DTD/sodipodi-0.dtd"
   xmlns:inkscape="http://www.inkscape.org/namespaces/inkscape"
   viewBox="0 0 256 256"
   id="svg2"
   version="1.1"
   inkscape:version="0.91 r13725"
   sodipodi:docname="org.kde.ktpcontactlist.svg">
  <metadata
     id="metadata10">
    <rdf:RDF>
      <cc:Work
         rdf:about="">
        <dc:format>image/svg+xml</dc:format>
        <dc:type
           rdf:resource="http://purl.org/dc/dcmitype/StillImage" />
        <dc:title />
      </cc:Work>
    </rdf:RDF>
  </metadata>
  <sodipodi:namedview
     pagecolor="#ffffff"
     bordercolor="#666666"
     borderopacity="1"
     objecttolerance="10"
     gridtolerance="10"
     guidetolerance="10"
     inkscape:pageopacity="0"
     inkscape:pageshadow="2"
     inkscape:window-width="1920"
     inkscape:window-height="1050"
     id="namedview8"
     showgrid="false"
     inkscape:zoom="0.921875"
     inkscape:cx="-232.13559"
     inkscape:cy="93.288124"
     inkscape:window-x="0"
     inkscape:window-y="30"
     inkscape:window-maximized="1"
     inkscape:current-layer="svg2" />
  <defs
     id="defs4">
    <style
       id="current-color-scheme"
       type="text/css">
      .ColorScheme-Text {
        color:#f2f2f2;
      }
      .ColorScheme-Background {
        color:#31363b;
      }
      .ColorScheme-Highlight {
        color:#3daee9;
      }
      .ColorScheme-ViewText {
        color:#31363b;
      }
      .ColorScheme-ViewBackground {
        color:#314045;
      }
      .ColorScheme-ViewHover {
        color:#93cee9;
      }
      .ColorScheme-ViewFocus{
        color:#3daee9;
      }
      .ColorScheme-ButtonText {
        color:#31363b;
      }
      .ColorScheme-ButtonBackground {
        color:#31363b;
      }
      .ColorScheme-ButtonHover {
        color:#93cee9;
      }
      .ColorScheme-ButtonFocus{
        color:#3daee9;
      }
      </style>
    <linearGradient
       inkscape:collect="always"
       xlink:href="#linearGradient5215"
       id="linearGradient5460"
       gradientUnits="userSpaceOnUse"
       gradientTransform="matrix(0.18087831,0.03965557,-0.03622239,0.16983623,-233.51257,298.97286)"
       x1="1669.1105"
       y1="669.49823"
       x2="1753.5334"
       y2="641.88513" />
    <linearGradient
       id="linearGradient5215">
      <stop
         style="stop-color:#f28040;stop-opacity:1;"
         offset="0"
         id="stop5217" />
      <stop
         style="stop-color:#ff4739;stop-opacity:1;"
         offset="1"
         id="stop5219" />
    </linearGradient>
    <linearGradient
       inkscape:collect="always"
       xlink:href="#linearGradient5223"
       id="linearGradient5462"
       gradientUnits="userSpaceOnUse"
       gradientTransform="matrix(0.18087831,0.03965557,-0.03622239,0.16983623,-233.24889,298.75795)"
       x1="1746.5369"
       y1="643.42267"
       x2="1680.7168"
       y2="660.87262" />
    <linearGradient
       inkscape:collect="always"
       id="linearGradient5223">
      <stop
         style="stop-color:#febf00;stop-opacity:1;"
         offset="0"
         id="stop5225" />
      <stop
         style="stop-color:#febf00;stop-opacity:0;"
         offset="1"
         id="stop5227" />
    </linearGradient>
    <linearGradient
       inkscape:collect="always"
       xlink:href="#linearGradient4288-7"
       id="linearGradient5464"
       gradientUnits="userSpaceOnUse"
       gradientTransform="matrix(0.18514269,0.00342201,-0.00222043,0.1736418,-261.57882,361.68934)"
       x1="1759.3934"
       y1="604.61157"
       x2="1806.0804"
       y2="608.90002" />
    <linearGradient
       id="linearGradient4288-7">
      <stop
         id="stop4290-08"
         stop-color="#ffffff" />
      <stop
         offset="1"
         id="stop4292-3"
         stop-color="#bdc3c7"
         stop-opacity="0.588" />
    </linearGradient>
    <linearGradient
       inkscape:collect="always"
       xlink:href="#linearGradient4288-7"
       id="linearGradient14620"
       gradientUnits="userSpaceOnUse"
       gradientTransform="matrix(0.1641703,0,0,0.18320635,-290.6625,491.63406)"
       x1="2187.05"
       y1="-320.70001"
       x2="2199.3201"
       y2="-320.89001" />
    <linearGradient
       inkscape:collect="always"
       xlink:href="#linearGradient4288-7"
       id="linearGradient9965"
       gradientUnits="userSpaceOnUse"
       gradientTransform="matrix(-0.1641703,0,0,0.18320635,408.05638,492.00047)"
       x1="2187.05"
       y1="-320.70001"
       x2="2199.3201"
       y2="-320.89001" />
    <linearGradient
       inkscape:collect="always"
       xlink:href="#linearGradient4288-7"
       id="linearGradient4269-8"
       x1="781.5"
       x2="821.75"
       gradientUnits="userSpaceOnUse"
       gradientTransform="matrix(0.17973994,0,0,0.22017213,-77.189401,576.30176)" />
    <linearGradient
       inkscape:collect="always"
       xlink:href="#linearGradient4288-7"
       id="linearGradient4469-0"
       gradientUnits="userSpaceOnUse"
       x1="820.32001"
       y1="-820.45001"
       x2="777.78003"
       y2="-834.65997"
       gradientTransform="matrix(0.17998943,0,0,0.21991523,-150.2106,579.7465)" />
    <linearGradient
       inkscape:collect="always"
       xlink:href="#linearGradient4288-7"
       id="linearGradient4294-0"
       x1="1526.5699"
       y1="186.06"
       x2="1549.2"
       y2="161.69"
       gradientUnits="userSpaceOnUse"
       gradientTransform="matrix(0.25499889,0,0,0.2660648,-326.523,303.95726)" />
    <linearGradient
       inkscape:collect="always"
       xlink:href="#linearGradient4280-4"
       id="linearGradient4286-7"
       x1="1535.67"
       y1="203.22"
       x2="1524.1899"
       y2="194.53"
       gradientUnits="userSpaceOnUse"
       gradientTransform="matrix(0.25499889,0,0,0.2660648,-326.523,303.95726)" />
    <linearGradient
       id="linearGradient4280-4">
      <stop
         id="stop4282"
         stop-color="#ecf0f1" />
      <stop
         offset="1"
         id="stop4284"
         stop-color="#bdc3c7"
         stop-opacity="0" />
    </linearGradient>
  </defs>
  <path
     style="fill:currentColor;fill-opacity:0.5;stroke:none"
     d="m 16,10 224,0 c 3.324,0 6,2.676 6,6 l 0,224 c 0,3.324 -2.676,6 -6,6 l -224,0 c -3.324,0 -6,-2.676 -6,-6 L 10,16 c 0,-3.324 2.676,-6 6,-6 z"
     class="ColorScheme-ButtonText"
     id="rect4240" />
  <path
     style="fill:currentColor;fill-opacity:1;stroke:none"
     d="m 16,12 224,0 c 2.216,0 4,1.784 4,4 l 0,224 c 0,2.216 -1.784,4 -4,4 l -224,0 c -2.216,0 -4,-1.784 -4,-4 L 12,16 c 0,-2.216 1.784,-4 4,-4 z"
     class="ColorScheme-Background"
     id="rect4238" />
  <rect
     class="ColorScheme-Text"
     style="opacity:0.5;fill:currentColor;fill-opacity:1;stroke:none;stroke-width:0.92819148;stroke-miterlimit:4;stroke-dasharray:none;stroke-opacity:0.2"
     id="rect5114-3-4-2"
     width="216"
     height="35.999992"
     x="19.999996"
     y="20"
     rx="0"
     ry="0" />
  <rect
     class="ColorScheme-ViewBackground"
     style="fill:currentColor;fill-opacity:1;stroke:none;stroke-width:0.92819148;stroke-miterlimit:4;stroke-dasharray:none;stroke-opacity:0.2"
     id="rect5114-3-4"
     width="214"
     height="33.999943"
     x="20.999996"
     y="21"
     rx="0"
     ry="0" />
  <path
     style="fill:currentColor;fill-opacity:1;stroke:none"
     d="m 33.941406,32.292901 c -0.46916,0 -0.904316,0.05635 -1.308594,0.167969 -0.404277,0.111539 -0.772151,0.281452 -1.101562,0.509765 -0.329411,0.22324 -0.589636,0.52389 -0.779297,0.904297 -0.18966,0.380493 -0.283203,0.81852 -0.283203,1.310547 0,0.715273 0.182528,1.276587 0.546875,1.6875 0.364349,0.40584 0.915618,0.751076 1.654297,1.035156 l 1.78125,0.693359 c 0.69875,0.273941 1.168631,0.54558 1.408203,0.814454 0.244563,0.2638 0.365234,0.660772 0.365234,1.193359 0,0.461693 -0.108518,0.849563 -0.328125,1.164063 -0.214616,0.309433 -0.495459,0.532955 -0.839843,0.669921 -0.344385,0.1319 -0.743079,0.199219 -1.197266,0.199219 -0.559,0 -1.140221,-0.101727 -1.744141,-0.304687 -0.598929,-0.20288 -1.138044,-0.480005 -1.617187,-0.830079 l 0,1.203126 c 0.309447,0.279006 0.776506,0.514291 1.400391,0.707031 0.623884,0.19282 1.270649,0.289062 1.939453,0.289062 0.374331,0 0.728098,-0.03394 1.0625,-0.09961 0.339392,-0.06591 0.66603,-0.173992 0.980468,-0.326172 0.314438,-0.157247 0.583995,-0.352557 0.808594,-0.585938 0.224599,-0.23338 0.404305,-0.533237 0.539063,-0.898437 0.134759,-0.365287 0.203125,-0.775882 0.203125,-1.232422 0,-0.370267 -0.04493,-0.699134 -0.134766,-0.988281 C 37.207035,39.28695 37.093744,39.041574 36.958984,38.843681 36.824226,38.645874 36.632366,38.461454 36.382812,38.288993 36.13825,38.11138 35.901464,37.96694 35.671875,37.8554 35.447276,37.74378 35.154279,37.61658 34.794922,37.47454 l -1.720703,-0.683593 c -0.524063,-0.208034 -0.889116,-0.437041 -1.09375,-0.685547 -0.199644,-0.25366 -0.298828,-0.613398 -0.298828,-1.080078 0,-0.380494 0.108517,-0.700258 0.328125,-0.958985 0.219607,-0.258733 0.497629,-0.442361 0.832031,-0.548828 0.334402,-0.11162 0.715299,-0.166016 1.144531,-0.166016 0.46417,0 0.928408,0.06537 1.392578,0.197266 0.469162,0.1319 0.866987,0.312789 1.191406,0.541016 l 0.478516,-0.945313 C 36.619596,32.875596 36.131049,32.668529 35.582031,32.521415 35.038004,32.369235 34.490424,32.2929 33.941406,32.2929 Z m 34.84375,0.06055 -1.242187,0.0918 0,11.109376 1.234375,0 0,-4.404297 c 0,-0.299294 0.02062,-0.579164 0.06055,-0.837891 0.04492,-0.258733 0.120665,-0.515871 0.230468,-0.769531 0.109804,-0.25366 0.253046,-0.468951 0.427735,-0.646485 0.174685,-0.182593 0.402138,-0.32704 0.68164,-0.433593 0.284491,-0.11162 0.61113,-0.166016 0.980469,-0.166016 0.593939,0 1.016076,0.189819 1.265625,0.570313 0.254545,0.375419 0.38086,0.961425 0.38086,1.757812 l 0,4.929688 1.24414,0 0,-4.976563 c 0,-1.03484 -0.230269,-1.833398 -0.689453,-2.396484 -0.459176,-0.563094 -1.120918,-0.84375 -1.984375,-0.84375 -0.563993,0 -1.073156,0.110744 -1.527344,0.333984 -0.449192,0.218087 -0.817939,0.535185 -1.107422,0.951172 l 0.04492,-1.574219 0,-2.695312 z m -26.36914,2.982422 c -1.048125,0 -1.911057,0.384423 -2.589844,1.15039 -0.678785,0.766053 -1.017578,1.793531 -1.017578,3.082031 0,1.273207 0.347256,2.281571 1.041015,3.027344 0.69376,0.74062 1.595975,1.111328 2.708985,1.111328 0.998214,0 1.89023,-0.235204 2.673828,-0.707031 L 44.970703,42.10931 c -0.419251,0.2131 -0.799279,0.372049 -1.138672,0.478516 -0.339393,0.106553 -0.7166,0.160156 -1.130859,0.160156 -0.763634,0 -1.381318,-0.246255 -1.855469,-0.738281 -0.474148,-0.497187 -0.731551,-1.258503 -0.771484,-2.283204 l 5.351562,0 0.04492,-0.638671 c 0,-1.17688 -0.261093,-2.094487 -0.785156,-2.753907 -0.519072,-0.664566 -1.276308,-0.998046 -2.269531,-0.998046 z m 7.652343,0 c -1.058108,0 -2.010893,0.200795 -2.859375,0.601562 l 0.335938,0.929688 c 0.364349,-0.177527 0.778018,-0.315697 1.242187,-0.41211 0.46417,-0.10148 0.898458,-0.152344 1.302735,-0.152344 0.598928,0 1.036037,0.144447 1.310547,0.433594 0.279499,0.289153 0.419921,0.727886 0.419921,1.316406 l 0,0.791016 -1.265624,0 c -1.272724,0 -2.2012,0.206274 -2.785157,0.617188 -0.578964,0.405839 -0.867187,1.045448 -0.867187,1.917968 0,0.73048 0.218988,1.300024 0.658203,1.710938 0.444205,0.410906 1.031069,0.617187 1.759765,0.617187 1.088055,0 1.971605,-0.424317 2.650391,-1.271484 l 0.134766,1.111328 0.943359,0 0,-5.310547 c 0,-1.0247 -0.260225,-1.763377 -0.779297,-2.214844 -0.51408,-0.45654 -1.247877,-0.685546 -2.201172,-0.685546 z m 13.8125,0 c -1.103027,0 -1.998732,0.378938 -2.6875,1.134765 -0.688768,0.75076 -1.033203,1.783723 -1.033203,3.097656 0,1.258 0.335102,2.260959 1.003906,3.011719 0.673795,0.75084 1.576011,1.126953 2.708985,1.126953 0.484134,0 0.918422,-0.05909 1.302734,-0.175781 0.384314,-0.116693 0.662335,-0.24194 0.832031,-0.378906 l -0.232421,-0.861328 c -0.5041,0.29422 -1.061012,0.441406 -1.669922,0.441406 -0.873439,0 -1.538,-0.291633 -1.992188,-0.875 -0.454188,-0.583373 -0.679687,-1.345563 -0.679687,-2.289063 0,-0.99428 0.236785,-1.78656 0.710937,-2.375 0.474152,-0.588526 1.10312,-0.882812 1.886719,-0.882812 0.618893,0 1.170163,0.147099 1.654297,0.441406 l 0.351562,-0.867187 C 65.867412,35.768091 65.592212,35.649036 65.212891,35.527276 64.83856,35.400449 64.39494,35.33587 63.880859,35.33587 Z m -5.203125,0.08398 c -0.479143,0 -0.934916,0.138169 -1.36914,0.412109 -0.429232,0.268874 -0.794286,0.691231 -1.09375,1.269531 l -0.134766,-1.597656 -0.996094,0 0,8.050782 1.242188,0 0,-4.556641 c 0,-0.715267 0.220942,-1.323126 0.660156,-1.820313 0.444206,-0.497093 1.004808,-0.74414 1.683594,-0.74414 0.13975,0 0.310123,0.01981 0.509766,0.06055 l 0.05273,-1.035157 c -0.144741,-0.0258 -0.33009,-0.03906 -0.554688,-0.03906 z m -16.230468,0.882812 c 1.25775,0 1.916669,0.868616 1.976562,2.603516 l -4.3125,0 c 0.06987,-0.80146 0.315124,-1.435664 0.734375,-1.902344 0.42424,-0.46676 0.957713,-0.701172 1.601563,-0.701172 z m 8.421875,3.378907 0.951171,0 0,1.773437 c -0.593937,0.887733 -1.40261,1.332031 -2.425781,1.332031 -0.37433,0 -0.685993,-0.121794 -0.935547,-0.365234 -0.249554,-0.24352 -0.375,-0.588756 -0.375,-1.035156 0,-0.248594 0.02344,-0.457614 0.06836,-0.625 0.04492,-0.17246 0.126308,-0.328663 0.246094,-0.470703 0.119786,-0.14686 0.284515,-0.262297 0.49414,-0.34375 0.209625,-0.08617 0.476361,-0.151533 0.800781,-0.197266 0.32442,-0.04573 0.716602,-0.06836 1.175782,-0.06836 z M 80.433594,41.9804 c -0.26452,0 -0.465716,0.07987 -0.605469,0.242187 -0.139753,0.16232 -0.210937,0.357711 -0.210937,0.585938 0,0.22324 0.07118,0.418544 0.210937,0.585937 0.14474,0.16232 0.345935,0.244141 0.605469,0.244141 0.25954,0 0.457037,-0.08182 0.591797,-0.244141 0.139746,-0.16232 0.208984,-0.357624 0.208984,-0.585937 0,-0.228227 -0.06924,-0.423618 -0.208984,-0.585938 -0.13476,-0.16232 -0.332257,-0.242187 -0.591797,-0.242187 z m 3.654297,0 c -0.264527,0 -0.467669,0.07987 -0.607422,0.242187 -0.13974,0.16232 -0.208985,0.357711 -0.208985,0.585938 0,0.22324 0.06924,0.418544 0.208985,0.585937 0.144746,0.16232 0.347888,0.244141 0.607422,0.244141 0.259533,0 0.45703,-0.08182 0.591797,-0.244141 0.139746,-0.16232 0.208984,-0.357624 0.208984,-0.585937 0,-0.228227 -0.06924,-0.423618 -0.208984,-0.585938 C 84.544921,42.060267 84.347424,41.9804 84.087891,41.9804 Z m 3.652343,0 c -0.264526,0 -0.465715,0.07987 -0.605468,0.242187 -0.139747,0.16232 -0.208985,0.357711 -0.208985,0.585938 0,0.22324 0.06924,0.418544 0.208985,0.585937 0.14474,0.16232 0.345928,0.244141 0.605468,0.244141 0.259534,0 0.457037,-0.08182 0.591797,-0.244141 0.139747,-0.16232 0.208985,-0.357624 0.208985,-0.585937 0,-0.228227 -0.06924,-0.423618 -0.208985,-0.585938 -0.13476,-0.16232 -0.332263,-0.242187 -0.591797,-0.242187 z m -23.988281,40.648437 0,9.800782 1.181641,0 0,-4.033204 0.873047,-0.80664 3.71875,4.839844 1.382812,0 -4.216797,-5.44336 4.015625,-4.357422 -1.382812,0 -4.390625,4.69336 0,-4.69336 -1.181641,0 z m 39.900387,0 c -0.21484,0 -0.39249,0.0669 -0.53125,0.201172 -0.13428,0.129807 -0.20117,0.299399 -0.20117,0.509766 0,0.210366 0.0669,0.383305 0.20117,0.517578 0.13876,0.13428 0.31641,0.201172 0.53125,0.201172 0.21037,0 0.38469,-0.06689 0.52344,-0.201172 0.13875,-0.134273 0.20899,-0.307212 0.20899,-0.517578 0,-0.210367 -0.0702,-0.379959 -0.20899,-0.509766 -0.13427,-0.134273 -0.30859,-0.201172 -0.52344,-0.201172 z m -28.662106,2.550782 c -1.042887,0 -1.861734,0.339197 -2.457031,1.019531 -0.59082,0.675866 -0.886719,1.571047 -0.886719,2.685547 0,1.087646 0.300619,1.975343 0.900391,2.660156 0.599772,0.68034 1.413899,1.019531 2.443359,1.019531 1.00708,0 1.818442,-0.34253 2.431641,-1.027344 0.6132,-0.689293 0.917969,-1.57365 0.917969,-2.652343 0,-1.1145 -0.293946,-2.009681 -0.884766,-2.685547 -0.590821,-0.680334 -1.413005,-1.019531 -2.464844,-1.019531 z m 8.291016,0 c -1.06974,-10e-7 -1.873043,0.374999 -2.410156,1.126953 l -0.119141,-0.978516 -0.966797,0 0,7.101563 1.113282,0 0,-3.960938 c 0,-1.624753 0.730306,-2.435547 2.189453,-2.435547 0.541586,0 0.919925,0.161541 1.134765,0.488281 0.214847,0.322267 0.322266,0.80526 0.322266,1.445313 l 0,4.462891 1.113281,0 0,-4.34375 c 0,-0.975747 -0.194578,-1.702714 -0.583984,-2.181641 -0.384927,-0.483393 -0.982829,-0.724609 -1.792969,-0.724609 z m 6.949219,0 c -0.9847,0 -1.758299,0.343916 -2.322266,1.033203 -0.56396,0.689293 -0.845703,1.593917 -0.845703,2.71289 0,1.05632 0.292566,1.926515 0.878906,2.611328 0.59082,0.684814 1.348878,1.027344 2.275391,1.027344 1.05632,0 1.825767,-0.439126 2.304687,-1.316406 l -0.02734,1.660156 0,2.636719 1.101562,0 0,-10.216797 -1.007812,0 -0.121094,1.146484 c -0.47892,-0.863846 -1.224768,-1.294921 -2.236328,-1.294921 z m 5.0625,0.148437 0,4.335937 c 0,0.96232 0.210126,1.687908 0.630859,2.175782 0.425213,0.4834 1.04948,0.724609 1.873047,0.724609 0.581867,0 1.04126,-0.08716 1.376953,-0.261719 0.340173,-0.179033 0.625249,-0.446614 0.853512,-0.804687 l 0.11328,0.931641 0.9668,0 0,-7.101563 -1.115232,0 0,3.986328 c -10e-7,0.28198 -0.02028,0.540691 -0.06055,0.773438 -0.04028,0.232746 -0.108558,0.452309 -0.207032,0.658203 -0.09847,0.205893 -0.226152,0.376871 -0.382812,0.515625 -0.15218,0.138753 -0.350097,0.249511 -0.591797,0.330078 -0.237227,0.08057 -0.509526,0.121094 -0.818359,0.121094 -0.54606,0 -0.936602,-0.163495 -1.173829,-0.490235 -0.232746,-0.326746 -0.349609,-0.8064 -0.349609,-1.4375 l 0,-4.457031 -1.115234,0 z m 7.802731,0 0,7.101563 1.09961,0 0,-7.101563 -1.09961,0 z m -28.105466,0.705078 c 0.729574,0 1.280843,0.261476 1.652344,0.785156 0.371501,0.519207 0.556641,1.211752 0.556641,2.080079 0,0.555013 -0.07634,1.040771 -0.228516,1.457031 -0.152181,0.41178 -0.398112,0.743487 -0.738281,0.99414 -0.335693,0.246174 -0.749838,0.369141 -1.242188,0.369141 -0.716146,0 -1.262695,-0.26009 -1.638672,-0.779297 -0.375976,-0.5192 -0.5625,-1.200928 -0.5625,-2.046875 0,-0.863853 0.186524,-1.555012 0.5625,-2.074219 0.375977,-0.52368 0.922526,-0.785156 1.638672,-0.785156 z m 15.369141,0 c 0.707193,0 1.234864,0.241209 1.583984,0.724609 0.34912,0.478921 0.523438,1.140382 0.523438,1.986329 0,1.982826 -0.705321,2.974609 -2.115235,2.974609 -0.716146,0 -1.259359,-0.255372 -1.630859,-0.765625 -0.3715,-0.510253 -0.556641,-1.206137 -0.556641,-2.087891 10e-7,-0.868326 0.181802,-1.558106 0.548829,-2.068359 0.3715,-0.510253 0.921384,-0.763672 1.646484,-0.763672 z m -5.566406,36.513676 -1.101563,0.082 0,7.76757 c 0,0.42522 0.04997,0.77857 0.148438,1.06055 0.09847,0.27751 0.251144,0.49097 0.457031,0.63867 0.205893,0.1477 0.437659,0.2504 0.697266,0.3086 0.264073,0.0537 0.591062,0.0801 0.980468,0.0801 l 0.529297,0 0.06055,-0.76563 -0.300781,-0.0195 c -0.192467,-0.0135 -0.343752,-0.0243 -0.451172,-0.0332 -0.107427,-0.0134 -0.222336,-0.0323 -0.347656,-0.0547 -0.120847,-0.0269 -0.212724,-0.058 -0.275391,-0.0937 -0.05819,-0.0403 -0.118974,-0.0902 -0.181641,-0.14844 -0.06265,-0.0582 -0.107898,-0.13118 -0.134765,-0.2207 -0.02233,-0.0895 -0.04261,-0.19222 -0.06055,-0.3086 -0.0134,-0.11637 -0.01953,-0.25821 -0.01953,-0.42382 l 0,-7.86914 z m -21.041016,0.082 0,9.80078 1.181641,0 0,-4.73828 2.121094,0 c 1.105549,0 1.91219,-0.22429 2.417968,-0.67188 0.505778,-0.45207 0.757813,-1.11686 0.757813,-1.99414 0,-0.42969 -0.07772,-0.80192 -0.234375,-1.11523 -0.152181,-0.3178 -0.375082,-0.56844 -0.666016,-0.75196 -0.290935,-0.18351 -0.620687,-0.3173 -0.992187,-0.40234 -0.371501,-0.085 -0.793702,-0.12695 -1.263672,-0.12695 l -3.322266,0 z m 1.181641,0.88476 2.134765,0 c 0.644532,0 1.13501,0.11686 1.470703,0.34961 0.34017,0.22827 0.509766,0.62077 0.509766,1.17578 0,0.64453 -0.154053,1.09586 -0.46289,1.35547 -0.304362,0.2596 -0.824545,0.39063 -1.558594,0.39063 l -2.09375,0 0,-3.27149 z m 9.238281,1.66602 c -0.948893,0 -1.803548,0.17765 -2.564453,0.53125 l 0.300781,0.81836 c 0.326741,-0.15666 0.698975,-0.27824 1.115235,-0.36328 0.416259,-0.0895 0.80542,-0.13282 1.167968,-0.13282 0.53711,0 0.929606,0.12574 1.175782,0.38086 0.250651,0.25513 0.375,0.64291 0.375,1.16211 l 0,0.69922 -1.134766,0 c -1.141357,0 -1.974366,0.18042 -2.498047,0.54297 -0.519206,0.35807 -0.777344,0.92155 -0.777344,1.69141 0,0.64452 0.195964,1.14916 0.589844,1.51171 0.398356,0.36255 0.924642,0.54297 1.578125,0.54297 0.975749,0 1.768229,-0.37361 2.376953,-1.12109 l 0.121094,0.98047 0.845703,0 0,-4.68555 c 0,-0.90413 -0.233724,-1.55672 -0.699219,-1.95508 -0.461019,-0.40282 -1.117757,-0.60351 -1.972656,-0.60351 z m 16.556641,0 c -0.93994,0 -1.715492,0.33781 -2.324219,1.01367 -0.608727,0.67586 -0.912109,1.58186 -0.912109,2.71875 -10e-7,1.12345 0.31144,2.01391 0.933593,2.67187 0.622154,0.65348 1.431561,0.98047 2.429688,0.98047 0.895186,0 1.693771,-0.20678 2.396484,-0.62304 l -0.234375,-0.78711 c -0.37598,0.18798 -0.717124,0.32983 -1.021484,0.42382 -0.30436,0.094 -0.642172,0.14063 -1.013672,0.14063 -0.68482,0 -1.238856,-0.21623 -1.664063,-0.65039 -0.42522,-0.43864 -0.655606,-1.11149 -0.691406,-2.01563 l 4.800781,0 0.03906,-0.5625 c 0,-1.0384 -0.235105,-1.84976 -0.705078,-2.43164 -0.465494,-0.58634 -1.142497,-0.8789 -2.033203,-0.8789 z m -8.835938,0.0742 c -0.429687,0 -0.839109,0.11962 -1.228516,0.36132 -0.384926,0.23722 -0.711915,0.61084 -0.980468,1.1211 L 79.5625,125.328 l -0.892578,0 0,7.10157 1.115234,0 0,-4.02149 c 0,-0.6311 0.195957,-1.16487 0.589844,-1.60351 0.398353,-0.43864 0.901039,-0.65821 1.509766,-0.65821 0.12532,0 0.277991,0.0169 0.457031,0.0527 l 0.04687,-0.91211 c -0.129807,-0.0224 -0.294681,-0.0332 -0.496094,-0.0332 z m 12.648438,0.0742 2.8125,6.88672 -1.046875,2.67383 1,0.21485 3.740239,-9.7754 -1.126958,0 -2.029297,5.67188 -2.214844,-5.67188 -1.134765,0 z m -3.78711,0.70508 c 1.127907,0 1.719704,0.76417 1.773438,2.29492 l -3.867188,0 c 0.06266,-0.70719 0.282223,-1.26594 0.658203,-1.67773 0.380447,-0.41178 0.858154,-0.61719 1.435547,-0.61719 z m -15.863281,2.98047 0.851563,0 0,1.56445 c -0.532634,0.78329 -1.25822,1.17383 -2.175782,1.17383 -0.335693,0 -0.614094,-0.10742 -0.83789,-0.32226 -0.223796,-0.21485 -0.335938,-0.51823 -0.335938,-0.91211 0,-0.21932 0.02027,-0.40308 0.06055,-0.55078 0.04028,-0.15218 0.113282,-0.29069 0.220703,-0.41602 0.107422,-0.1298 0.255371,-0.23112 0.44336,-0.30273 0.187987,-0.0761 0.427816,-0.13356 0.71875,-0.17383 0.290934,-0.0403 0.642903,-0.0606 1.054687,-0.0606 z m -11.138672,33.61524 0,9.80078 1.181641,0 0,-4.03321 0.873047,-0.80664 3.71875,4.83985 1.382812,0 -4.216797,-5.44336 4.015625,-4.35742 -1.382812,0 -4.390625,4.69336 0,-4.69336 -1.181641,0 z m 20.994141,0 c -0.21484,0 -0.392497,0.0669 -0.53125,0.20117 -0.13428,0.1298 -0.201172,0.2994 -0.201172,0.50976 0,0.21037 0.06689,0.38331 0.201172,0.51758 0.138753,0.13428 0.31641,0.20117 0.53125,0.20117 0.210366,0 0.384684,-0.0669 0.523437,-0.20117 0.138754,-0.13427 0.208985,-0.30721 0.208985,-0.51758 0,-0.21036 -0.07023,-0.37996 -0.208985,-0.50976 -0.134273,-0.13428 -0.308591,-0.20117 -0.523437,-0.20117 z m -4.169922,0.75195 -0.892578,0.0664 -0.181641,1.88085 -1.09375,0.0723 -0.02734,0.63281 1.09375,0 0,4.26953 c 0,0.43416 0.03915,0.78419 0.115235,1.05274 0.07609,0.26856 0.213216,0.49145 0.410156,0.66601 0.201413,0.17456 0.45955,0.29419 0.777344,0.36133 0.317786,0.0671 0.735266,0.10157 1.25,0.10157 l 0.46289,0 0.05273,-0.76563 -0.5625,-0.0273 c -0.5953,-0.0224 -0.978358,-0.11565 -1.148438,-0.28125 -0.170086,-0.17009 -0.255859,-0.53899 -0.255859,-1.10743 l 0,-4.26953 1.880859,0 0,-0.70508 -1.880859,0 0,-1.94726 z m -6.001953,1.79883 c -0.948894,0 -1.803549,0.17765 -2.564453,0.53125 l 0.302734,0.81836 c 0.326741,-0.15666 0.697021,-0.27824 1.113281,-0.36328 0.41626,-0.0895 0.80542,-0.13282 1.167969,-0.13282 0.537109,0 0.929606,0.12574 1.175781,0.38086 0.250652,0.25513 0.375,0.64291 0.375,1.16211 l 0,0.69922 -1.134765,0 c -1.141358,0 -1.972413,0.18042 -2.496094,0.54297 -0.519206,0.35807 -0.779297,0.92155 -0.779297,1.69141 0,0.64452 0.195964,1.14916 0.589844,1.51171 0.398356,0.36255 0.924641,0.54297 1.578125,0.54297 0.975748,0 1.768229,-0.37361 2.376953,-1.12109 l 0.121094,0.98047 0.845703,0 0,-4.68555 c 0,-0.90413 -0.231771,-1.55672 -0.697266,-1.95508 -0.461019,-0.40282 -1.119711,-0.60351 -1.974609,-0.60351 z m 15.642578,0 c -0.93994,0 -1.713546,0.33781 -2.322266,1.01367 -0.608726,0.67586 -0.912109,1.58186 -0.912109,2.71875 0,1.12345 0.309487,2.01391 0.93164,2.67187 0.622154,0.65348 1.433514,0.98047 2.431641,0.98047 0.89518,0 1.693764,-0.20678 2.396485,-0.62304 l -0.234376,-0.78711 c -0.375973,0.18798 -0.717124,0.32983 -1.021484,0.42382 -0.304367,0.094 -0.642172,0.14063 -1.013672,0.14063 -0.684813,0 -1.238849,-0.21623 -1.664062,-0.65039 -0.42522,-0.43864 -0.65756,-1.11149 -0.69336,-2.01563 l 4.800782,0 0.04102,-0.5625 c 0,-1.0384 -0.235111,-1.84976 -0.705078,-2.43164 -0.4655,-0.58634 -1.144449,-0.8789 -2.035156,-0.8789 z m -6.027344,0.14843 0,7.10157 1.099609,0 0,-7.10157 -1.099609,0 z m 6.054688,0.70508 c 1.127906,0 1.719704,0.76416 1.773437,2.29492 l -3.867187,0 c 0.06267,-0.70719 0.282229,-1.26594 0.658203,-1.67773 0.380453,-0.41178 0.858153,-0.61719 1.435547,-0.61719 z m -14.951172,2.98047 0.851562,0 0,1.56445 c -0.532633,0.78329 -1.256266,1.17383 -2.173828,1.17383 -0.335693,0 -0.616048,-0.10742 -0.839844,-0.32226 -0.223795,-0.21485 -0.335937,-0.51823 -0.335937,-0.91211 0,-0.21932 0.02027,-0.40308 0.06055,-0.55078 0.04028,-0.15218 0.113282,-0.29069 0.220703,-0.41602 0.107422,-0.1298 0.255371,-0.23112 0.443359,-0.30273 0.187988,-0.0761 0.427816,-0.13356 0.71875,-0.17383 0.290935,-0.0403 0.642904,-0.0606 1.054688,-0.0606 z m 5.511719,29.17774 -1.101563,0.0801 0,9.80274 1.101563,0 0,-2.59766 0.765624,-0.72461 2.820313,3.32227 1.308594,0 -3.357422,-3.85938 3.101562,-3.24414 -1.349609,0 -3.330078,3.60547 0.04102,-1.46289 0,-4.92187 z m -17.052735,0.0801 0,9.80274 1.181641,0 0,-4.72656 2.966797,0 c 0.367024,0.82804 1.027099,2.40357 1.980468,4.72656 l 1.222657,0 c -0.138753,-0.32227 -0.359701,-0.82967 -0.664063,-1.52344 -0.299886,-0.69377 -0.564697,-1.30583 -0.792969,-1.83398 -0.228271,-0.53264 -0.446451,-1.04476 -0.652343,-1.53711 0.563964,-0.16114 0.990885,-0.43206 1.277343,-0.8125 0.290934,-0.38494 0.435547,-0.9187 0.435547,-1.60352 0,-0.8549 -0.245931,-1.48388 -0.738281,-1.88672 -0.49235,-0.40282 -1.250407,-0.60547 -2.275391,-0.60547 l -3.941406,0 z m 1.181641,0.88672 2.779297,0 c 0.680338,0 1.156656,0.13379 1.429687,0.40235 0.273031,0.26408 0.410156,0.67212 0.410156,1.22265 0,0.32674 -0.02636,0.59155 -0.08008,0.79297 -0.05371,0.20142 -0.158366,0.37573 -0.310547,0.52344 -0.147705,0.14321 -0.353108,0.24258 -0.617187,0.30078 -0.264079,0.0582 -0.607992,0.0879 -1.033203,0.0879 l -2.578125,0 0,-3.33008 z m 10.458984,1.66602 c -0.939942,0 -1.713542,0.33781 -2.322266,1.01367 -0.608724,0.67586 -0.912109,1.58186 -0.912109,2.71875 0,1.12345 0.309489,2.01392 0.931641,2.67188 0.622152,0.65348 1.433512,0.98046 2.43164,0.98046 0.895183,0 1.693767,-0.20874 2.396485,-0.625 l -0.234375,-0.78515 c -0.375977,0.18798 -0.717123,0.32983 -1.021485,0.42383 -0.304362,0.094 -0.642171,0.14062 -1.013671,0.14062 -0.684815,0 -1.238851,-0.21818 -1.664063,-0.65234 -0.425212,-0.43864 -0.657553,-1.10954 -0.693359,-2.01367 l 4.800781,0 0.04102,-0.56446 c 0,-1.03841 -0.235107,-1.84782 -0.705078,-2.42969 -0.465494,-0.58633 -1.14445,-0.8789 -2.035156,-0.8789 z m 14.046875,0 c -1.042893,0 -1.861738,0.3392 -2.457031,1.01953 -0.59082,0.67587 -0.886719,1.57105 -0.886719,2.68555 0,1.08764 0.298664,1.97339 0.898438,2.6582 0.599773,0.68034 1.415852,1.02148 2.445312,1.02148 1.00708,0 1.816488,-0.34253 2.429688,-1.02734 0.6132,-0.68929 0.919921,-1.57365 0.919921,-2.65234 10e-7,-1.1145 -0.295898,-2.00968 -0.886718,-2.68555 -0.590827,-0.68033 -1.411058,-1.01953 -2.462891,-1.01953 z m 8.291016,0 c -1.06974,0 -1.873043,0.375 -2.410157,1.12695 l -0.121093,-0.98047 -0.966797,0 0,7.10352 1.115234,0 0,-3.96094 c 0,-1.62475 0.728354,-2.4375 2.1875,-2.4375 0.541587,0 0.919926,0.1635 1.134766,0.49024 0.214847,0.32226 0.322266,0.8033 0.322266,1.44336 l 0,4.46484 1.115232,0 0,-4.34375 c 0,-0.97575 -0.194576,-1.70272 -0.583982,-2.18164 -0.384927,-0.4834 -0.982829,-0.72461 -1.792969,-0.72461 z m 6.949221,0 c -0.9847,0 -1.76026,0.34392 -2.32422,1.0332 -0.56397,0.6893 -0.8457,1.59392 -0.8457,2.71289 0,1.05632 0.29451,1.92652 0.88085,2.61133 0.59083,0.68481 1.34888,1.02734 2.2754,1.02734 1.05631,0 1.82381,-0.43912 2.30273,-1.3164 l -0.0273,1.6582 0,2.63867 1.10156,0 0,-10.21875 -1.00781,0 -0.1211,1.14844 c -0.47892,-0.86385 -1.22281,-1.29492 -2.23437,-1.29492 z m -29.259768,0.85156 c 1.127927,0 1.719724,0.76612 1.773437,2.29688 l -3.867187,0 c 0.06266,-0.7072 0.282227,-1.2679 0.658203,-1.67969 0.380453,-0.41178 0.858154,-0.61719 1.435547,-0.61719 z m 14.019531,0 c 0.729573,0 1.278891,0.26148 1.650391,0.78516 0.3715,0.5192 0.558594,1.2137 0.558594,2.08203 0,0.55501 -0.07634,1.04077 -0.228516,1.45703 -0.15218,0.41178 -0.398108,0.74349 -0.738281,0.99414 -0.335694,0.24617 -0.749841,0.36914 -1.242188,0.36914 -0.716147,0 -1.262692,-0.26009 -1.638672,-0.7793 -0.375973,-0.5192 -0.564453,-1.20092 -0.564453,-2.04687 0,-0.86385 0.18848,-1.55697 0.564453,-2.07617 0.37598,-0.52368 0.922525,-0.78516 1.638672,-0.78516 z m 15.367187,0 c 0.70719,0 1.23487,0.24122 1.58398,0.72461 0.34913,0.47893 0.52344,1.14234 0.52344,1.98828 0,1.98283 -0.70337,2.97461 -2.11328,2.97461 -0.71614,0 -1.2613,-0.25537 -1.63281,-0.76562 -0.3715,-0.51026 -0.55664,-1.20614 -0.55664,-2.08789 0,-0.86833 0.18375,-1.55811 0.55078,-2.06836 0.3715,-0.51026 0.91943,-0.76563 1.64453,-0.76563 z"
     class="ColorScheme-Text"
     id="path8198-1" />
  <path
     inkscape:connector-curvature="0"
     style="opacity:1;fill:#43be80;fill-opacity:1;stroke:none"
     d="m 219.90039,70.37493 a 5.4998521,5.4999063 0 0 0 -5.5,5.5 5.4998521,5.4999063 0 0 0 5.5,5.5 5.4998521,5.4999063 0 0 0 5.5,-5.5 5.4998521,5.4999063 0 0 0 -5.5,-5.5 z m 0,1.375 a 4.1248992,4.1249399 0 0 1 4.125,4.125 4.1248992,4.1249399 0 0 1 -4.125,4.125 4.1248992,4.1249399 0 0 1 -4.125,-4.125 4.1248992,4.1249399 0 0 1 4.125,-4.125 z m 0,11 A 10.999663,10.999772 0 0 0 209,92.37493 l 1.38477,0 a 9.6247104,9.6248055 0 0 1 9.51562,-8.25 9.6247104,9.6248055 0 0 1 1.375,0.109375 l 0,-1.386719 a 10.999663,10.999772 0 0 0 -1.375,-0.09766 z m 6.1875,0 a 4.8123822,4.8123822 0 0 0 -4.8125,4.8125 4.8123822,4.8123822 0 0 0 4.8125,4.8125 4.8123822,4.8123822 0 0 0 4.8125,-4.8125 4.8123822,4.8123822 0 0 0 -4.8125,-4.8125 z"
     id="path4149" />
  <path
     inkscape:connector-curvature="0"
     style="opacity:1;fill:#f47750;fill-opacity:1;stroke:none"
     d="m 219.90039,144.14251 a 5.4998525,5.4999067 0 0 0 -5.5,5.5 5.4998525,5.4999067 0 0 0 5.5,5.5 5.4998525,5.4999067 0 0 0 5.5,-5.5 5.4998525,5.4999067 0 0 0 -5.5,-5.5 z m 0,1.375 a 4.1248995,4.1249402 0 0 1 4.125,4.125 4.1248995,4.1249402 0 0 1 -4.125,4.125 4.1248995,4.1249402 0 0 1 -4.125,-4.125 4.1248995,4.1249402 0 0 1 4.125,-4.125 z m 0,11 A 10.999664,10.999773 0 0 0 209,166.14251 l 1.38477,0 a 9.6247111,9.6248062 0 0 1 9.51562,-8.25 9.6247111,9.6248062 0 0 1 1.375,0.11133 l 0,-1.38868 a 10.999664,10.999773 0 0 0 -1.375,-0.0976 z m 6.1875,0 a 4.8123827,4.8123827 0 0 0 -4.8125,4.8125 4.8123827,4.8123827 0 0 0 4.8125,4.8125 4.8123827,4.8123827 0 0 0 4.8125,-4.8125 4.8123827,4.8123827 0 0 0 -4.8125,-4.8125 z"
     id="path4149-7" />
  <path
     inkscape:connector-curvature="0"
     style="opacity:1;fill:#fdbc4b;fill-opacity:1;stroke:none"
     d="m 219.90039,105.5722 a 5.4998525,5.4999067 0 0 0 -5.5,5.5 5.4998525,5.4999067 0 0 0 5.5,5.5 5.4998525,5.4999067 0 0 0 5.5,-5.5 5.4998525,5.4999067 0 0 0 -5.5,-5.5 z m 0,1.375 a 4.1248995,4.1249402 0 0 1 4.125,4.125 4.1248995,4.1249402 0 0 1 -4.125,4.125 4.1248995,4.1249402 0 0 1 -4.125,-4.125 4.1248995,4.1249402 0 0 1 4.125,-4.125 z m 11,9.625 -11,5.5 2.75,1.375 1.375,4.125 1.375,-2.75 2.75,1.375 2.75,-9.625 z m -11,1.375 A 10.999664,10.999773 0 0 0 209,127.5722 l 1.38477,0 a 9.6247111,9.6248062 0 0 1 9.51562,-8.25 9.6247111,9.6248062 0 0 1 1.375,0.10937 l 0,-1.38867 a 10.999664,10.999773 0 0 0 -1.375,-0.0957 z"
     id="path4149-3" />
  <path
     inkscape:connector-curvature="0"
     style="opacity:1;fill:#9b59b6;fill-opacity:1;stroke:none"
     d="m 219.90039,193.28118 a 5.4998525,5.4999067 0 0 0 -5.5,5.5 5.4998525,5.4999067 0 0 0 5.5,5.5 5.4998525,5.4999067 0 0 0 5.5,-5.5 5.4998525,5.4999067 0 0 0 -5.5,-5.5 z m 0,1.375 a 4.1248995,4.1249402 0 0 1 4.125,4.125 4.1248995,4.1249402 0 0 1 -4.125,4.125 4.1248995,4.1249402 0 0 1 -4.125,-4.125 4.1248995,4.1249402 0 0 1 4.125,-4.125 z m 0,11 A 10.999664,10.999773 0 0 0 209,215.28118 l 1.38477,0 a 9.6247111,9.6248062 0 0 1 9.51562,-8.25 9.6247111,9.6248062 0 0 1 1.375,0.10937 l 0,-1.38671 a 10.999664,10.999773 0 0 0 -1.375,-0.0977 z m 6.1875,0 a 4.8123622,4.8123622 0 0 0 -4.8125,4.8125 4.8123622,4.8123622 0 0 0 4.8125,4.8125 4.8123622,4.8123622 0 0 0 4.8125,-4.8125 4.8123622,4.8123622 0 0 0 -4.8125,-4.8125 z"
     id="path4152" />
  <path
     inkscape:connector-curvature="0"
     style="fill:#ffffff;fill-rule:evenodd;stroke:none;stroke-width:1px;stroke-linecap:butt;stroke-linejoin:miter;stroke-opacity:1"
     d="m 228.15039,85.49993 -2.75,2.75 -1.375,-1.375 -1.375,1.375 2.75,2.75 4.125,-4.125 -1.375,-1.375 z m -2.75,72.39258 0,2.75 0,1.375 1.375,0 1.375,0 0,-1.375 -1.375,0 0,-2.75 -1.375,0 z m -2.0625,51.88867 a 0.68748325,0.68748325 0 0 0 -0.6875,0.6875 0.68748325,0.68748325 0 0 0 0.6875,0.6875 0.68748325,0.68748325 0 0 0 0.6875,-0.6875 0.68748325,0.68748325 0 0 0 -0.6875,-0.6875 z m 2.75,0 a 0.68748325,0.68748325 0 0 0 -0.6875,0.6875 0.68748325,0.68748325 0 0 0 0.6875,0.6875 0.68748325,0.68748325 0 0 0 0.6875,-0.6875 0.68748325,0.68748325 0 0 0 -0.6875,-0.6875 z m 2.75,0 a 0.68748325,0.68748325 0 0 0 -0.6875,0.6875 0.68748325,0.68748325 0 0 0 0.6875,0.6875 0.68748325,0.68748325 0 0 0 0.6875,-0.6875 0.68748325,0.68748325 0 0 0 -0.6875,-0.6875 z"
     id="path4166" />
  <g
     transform="translate(-20.571403,-267.21939)"
     id="g4630">
    <path
       sodipodi:nodetypes="cccccccccccc"
       inkscape:connector-curvature="0"
       id="path4316-5-7"
       d="m 52.610314,348.01619 -0.711549,-6.55722 -2.359275,-1.28772 0.528689,3.35229 -2.466068,-4.39233 -3.030739,-1.64425 3.321769,6.09519 -1.928837,1.5979 2.035528,0.8918 2.157342,-1.74882 0.418147,2.81174 z"
       style="fill:#ffc000" />
    <path
       sodipodi:nodetypes="cccccccccccc"
       inkscape:connector-curvature="0"
       id="path4316-8"
       d="m 64.53243,348.01246 0.711549,-6.55722 2.359275,-1.28772 -0.528689,3.35229 2.466069,-4.39234 3.030738,-1.64424 -3.321768,6.09519 1.928837,1.5979 -2.035529,0.8918 -2.157341,-1.74882 -0.418148,2.81174 z"
       style="fill:#ffc000" />
    <path
       sodipodi:nodetypes="cscsc"
       inkscape:connector-curvature="0"
       id="path4124-8"
       d="m 53.411699,362.83686 c -0.149582,0.23413 4.392254,2.10178 6.709659,1.57976 3.505469,-0.78964 5.164543,-4.30955 4.797166,-4.37344 0.103759,-0.37889 -3.694628,-1.79748 -6.088098,-1.26381 -2.157061,0.48097 -5.448179,3.62737 -5.418727,4.05749 z"
       style="fill:#ef5500" />
    <path
       style="fill:#e3311c"
       sodipodi:nodetypes="sscss"
       inkscape:connector-curvature="0"
       id="path4122-9-3-9"
       d="m 49.969209,358.2805 c -0.129921,3.72251 5.705856,6.06911 9.275585,6.11949 5.550714,0.0784 7.054672,-8.14365 6.470597,-8.28126 0,0 -8.970173,-1.29894 -11.857448,-0.93123 -2.599638,0.33108 -3.828783,1.37491 -3.888734,3.093 z" />
    <path
       style="fill:#ef5500"
       sodipodi:nodetypes="cscsc"
       inkscape:connector-curvature="0"
       id="path4124-2-4-3"
       d="m 53.411694,362.83686 c -0.149582,0.23413 4.392254,2.10178 6.709659,1.57976 3.50547,-0.78964 5.164543,-4.30955 4.797166,-4.37344 0.103759,-0.37889 -3.694628,-1.79748 -6.088098,-1.26381 -2.157061,0.48097 -5.448179,3.62737 -5.418727,4.05749 z" />
    <path
       style="fill:#ecf0f1;fill-opacity:0.98400005"
       inkscape:connector-curvature="0"
       id="path4126-5-3-3"
       d="m 62.057814,355.66479 1.103253,2.39637 c 0,0 2.028516,-2.02246 1.89329,-2.04598 -0.135251,-0.0235 -2.996543,-0.35039 -2.996543,-0.35039 z"
       sodipodi:nodetypes="ccsc" />
    <path
       inkscape:connector-curvature="0"
       id="path3139-9"
       d="m 58.001654,343.14807 c -6.636703,0 -12.016823,4.97332 -12.016823,11.10821 0,6.13489 5.38012,11.1082 12.016823,11.1082 6.636703,0 12.016822,-4.97331 12.016822,-11.1082 0,-6.13489 -5.380119,-11.10821 -12.016822,-11.10821 z m -2.804988,11.97292 c 3.651202,0.002 10.518704,0.99774 10.518704,0.99774 0.584075,0.13761 -0.919883,8.35961 -6.470597,8.28127 -3.569729,-0.0504 -9.405506,-2.39699 -9.275584,-6.11949 0.05995,-1.71809 1.289096,-2.76193 3.888733,-3.093 0.3609,-0.046 0.817144,-0.0668 1.338744,-0.0665 z"
       style="color:#000000;fill:#97df4e" />
    <path
       inkscape:connector-curvature="0"
       id="path3944-3-7"
       d="m 65.587871,346.83972 c -1.549144,0 -2.804988,2.17396 -2.804988,4.85568 0,0.34736 0.02372,0.68768 0.06375,1.01438 1.356568,0.67107 2.934782,1.47301 4.741398,2.38627 0.497197,-0.87616 0.804828,-2.07543 0.804828,-3.40065 0,-2.68172 -1.255819,-4.85568 -2.804988,-4.85568 z"
       style="color:#000000;fill:#ffffff;fill-opacity:0.78399999;stroke-width:0.1" />
    <path
       inkscape:connector-curvature="0"
       id="path3944-3-4-0"
       d="m 65.587871,346.83972 c -1.549144,0 -2.804988,2.17396 -2.804988,4.85568 0,0.34736 0.02372,0.68768 0.06375,1.01438 1.356543,0.67107 2.934782,1.47301 4.741398,2.38627 0.497197,-0.87616 0.804828,-2.07543 0.804828,-3.40065 0,-2.68172 -1.255819,-4.85568 -2.804988,-4.85568 z"
       style="color:#000000;fill:url(#linearGradient4294-0);stroke:#000000;stroke-width:0.26047307" />
    <path
       inkscape:connector-curvature="0"
       id="path3944-4"
       d="m 65.763182,348.00376 c -1.170648,0 -2.119678,1.75703 -2.119678,3.92445 0,0.4342 0.04126,0.84843 0.111562,1.23887 1.111081,0.5543 2.118888,1.05618 3.402654,1.70447 0.44171,-0.71921 0.725141,-1.76864 0.725141,-2.94334 0,-2.16742 -0.949004,-3.92445 -2.119679,-3.92445 z"
       style="color:#000000;fill-opacity:0.70400002;stroke-width:0.1" />
    <path
       inkscape:connector-curvature="0"
       id="path3944-32-6"
       d="m 65.865947,349.08554 c -0.952089,0 -1.72392,1.42898 -1.72392,3.19171 0,0.35313 0.03356,0.69003 0.09073,1.00756 0.903639,0.45081 1.723282,0.85898 2.76735,1.38623 0.359217,-0.58493 0.589736,-1.43842 0.589736,-2.39379 0,-1.76273 -0.771806,-3.19171 -1.723895,-3.19171 z"
       style="color:#000000;fill-opacity:0.70400002;stroke-width:0.1" />
    <ellipse
       ry="0.484505"
       rx="0.32013631"
       cy="316.68729"
       cx="148.0607"
       transform="matrix(0.95698519,0.29013678,-0.24140344,0.97042484,0,0)"
       id="path4022-1"
       style="color:#000000;fill:#ffffff;fill-opacity:0.83399999" />
    <ellipse
       ry="1.3036568"
       rx="0.64318275"
       cy="335.52948"
       cx="106.6711"
       transform="matrix(0.98417145,0.17721896,-0.16318503,0.98659548,0,0)"
       id="path4053-93"
       style="color:#000000;fill:#73d412" />
    <ellipse
       ry="1.5766476"
       rx="0.89665043"
       cy="306.76532"
       cx="191.06055"
       transform="matrix(0.93755813,0.34782864,-0.39376342,0.91921182,0,0)"
       id="path4053-0-4"
       style="color:#000000;fill:#73d412" />
    <path
       inkscape:connector-curvature="0"
       id="path4126-2"
       d="m 62.057819,355.66479 1.103253,2.39637 c 0,0 2.028516,-2.02246 1.89329,-2.04598 -0.135251,-0.0235 -2.996543,-0.35039 -2.996543,-0.35039 z"
       sodipodi:nodetypes="ccsc"
       style="fill:url(#linearGradient4286-7)" />
    <ellipse
       ry="0.92752606"
       rx="0.88499427"
       cy="251.0257"
       cx="278.64261"
       transform="matrix(0.82223302,0.569151,-0.666011,0.74594192,0,0)"
       id="path4022-0-7"
       style="color:#000000;fill:#ffffff;fill-opacity:0.50800003" />
    <ellipse
       ry="11.108207"
       rx="12.016824"
       cy="354.25626"
       cx="58.001686"
       id="path3139-2-9-6"
       style="color:#000000;fill:none;stroke:#51950d;stroke-width:0.2603057" />
  </g>
  <g
     transform="translate(-20.571403,-267.21939)"
     id="g4587">
    <path
       style="fill:#ff7fd6"
       sodipodi:nodetypes="cccccccccccc"
       inkscape:connector-curvature="0"
       id="path4316-5"
       d="m 52.09756,428.94336 -0.6573,-7.0667 -2.17945,-1.38777 0.48839,3.61275 -2.2781,-4.7336 -2.79973,-1.772 3.06859,6.56876 -1.78182,1.72205 1.88037,0.9611 1.99291,-1.8847 0.38626,3.0302 z" />
    <path
       style="fill:#ff7fd6"
       sodipodi:nodetypes="cccccccccccc"
       inkscape:connector-curvature="0"
       id="path4316"
       d="m 65.24517,428.84773 0.65731,-7.0667 2.17944,-1.38776 -0.48839,3.61274 2.27811,-4.7336 2.79973,-1.772 -3.06859,6.56877 1.78182,1.72205 -1.88037,0.96109 -1.99291,-1.8847 -0.38626,3.0302 z" />
    <path
       style="color:#000000;fill:#97df4e"
       inkscape:connector-curvature="0"
       id="path3139-2-9-4"
       d="m 58.71754,421.40878 c -4.95184,0 -9.14444,3.49588 -10.57359,8.32443 l 0.38478,0 c 0.16078,0 0.29243,0.14692 0.29243,0.32634 l 0,6.35497 c 0,0.17942 -0.13165,0.32634 -0.29243,0.32634 l -0.46174,0 c 1.34595,4.9756 5.60164,8.6107 10.65055,8.6107 5.17112,0 9.51946,-3.81602 10.75315,-8.97712 l -0.69772,0 c -0.16076,0 -0.40361,-0.45593 -0.29242,-0.32633 0.20467,0.23855 0.0441,-3.71525 0,-6.33207 -0.003,-0.17939 0.13166,-0.32634 0.29242,-0.32634 l 0.41556,0 c -1.52394,-4.64955 -5.63762,-7.98092 -10.47099,-7.98092 z" />
    <ellipse
       style="color:#000000;fill:#73d412"
       ry="1.8505983"
       rx="1.0231385"
       cy="435.48129"
       cx="-130.48274"
       transform="matrix(0.96320914,-0.26875296,0.41754689,0.90865538,0,0)"
       id="path4053" />
    <ellipse
       style="color:#000000;fill:#73d412"
       ry="1.7950082"
       rx="1.1233121"
       cy="448.57489"
       cx="111.95081"
       transform="matrix(0.9907158,-0.13594927,-0.11071485,0.99385221,0,0)"
       id="path4053-0" />
    <path
       style="fill:#73d412"
       inkscape:connector-curvature="0"
       id="path4073"
       d="m 68.59855,435.08628 c -2.83981,0.57832 -7.02092,3.50871 -10.16317,3.53244 -3.72695,0.0281 -9.38051,-3.57559 -10.45048,-3.43512 -0.73801,0.31216 2.10721,10.03859 9.95283,10.00765 4.56237,-0.018 6.77275,-1.14126 8.78311,-3.6126 1.28141,-1.57522 2.32728,-3.71736 2.78065,-5.12978 l -0.62078,0 c -0.16077,0 -0.28729,-0.14691 -0.28729,-0.32633 l 0,-1.00191 c 0,-0.0113 0.004,-0.0234 0.005,-0.0344 z" />
    <path
       sodipodi:nodetypes="csscsc"
       inkscape:connector-curvature="0"
       id="path4077-5"
       d="m 53.034174,441.77131 c -0.196052,-0.31523 2.751413,1.98334 5.311451,2.1093 1.665968,0.082 2.245981,-0.29383 2.842166,-0.47906 0.585316,-0.18186 3.65668,-2.53368 3.510388,-2.52395 0,0 -4.317466,1.63857 -6.182375,1.62624 -1.622199,-0.0107 -5.48163,-0.73253 -5.48163,-0.73253 z"
       style="fill:#e3311c" />
    <path
       sodipodi:nodetypes="cssssc"
       inkscape:connector-curvature="0"
       id="path4105"
       d="m 51.148325,438.90926 c 0.06731,0.58296 -0.04127,0.90683 0.23217,1.48979 0.526658,1.12285 4.994454,3.49402 6.99418,3.49775 1.999726,0.004 2.795081,-0.45665 4.033976,-1.1983 1.251043,-0.74893 2.588243,-1.77247 3.250408,-3.17389 0.240657,-0.50935 0.174135,-1.71649 0.174135,-1.71649"
       style="fill:none;stroke:#51950d;stroke-width:0.24800108" />
    <path
       style="color:#000000;fill:#51950d"
       inkscape:connector-curvature="0"
       id="path3139-2-9"
       d="m 58.71754,421.25992 c -4.97809,0 -9.20807,3.50927 -10.66593,8.38169 l 0.24625,0 c 1.45212,-4.68903 5.55769,-8.08398 10.41968,-8.08398 4.75107,0 8.78974,3.2404 10.32734,7.76337 l 0.24112,0 c -1.54581,-4.70445 -5.70071,-8.06108 -10.56846,-8.06108 z m 10.65568,15.02292 c -1.20217,5.11575 -5.50929,8.91414 -10.65568,8.91414 -4.99165,0 -9.18855,-3.57407 -10.53254,-8.45612 l -0.24114,0 c 1.34791,5.0678 5.66782,8.75955 10.77368,8.75955 5.25799,0 9.68718,-3.91632 10.89168,-9.21757 l -0.236,0 z" />
    <path
       sodipodi:nodetypes="csczcc"
       inkscape:connector-curvature="0"
       id="path4195"
       d="m 68.439522,429.5729 c 0,0 0.75566,-0.56284 1.046586,-1.00763 0.23808,-0.36399 0.554075,-1.35115 0.554075,-1.35115 0,0 0.359746,1.16446 0.328341,1.64886 -0.03141,0.4844 -0.389905,1.14504 -0.389905,1.14504 -0.370385,-0.36791 -0.645485,-0.88466 -1.539097,-0.43512 z" />
    <path
       sodipodi:nodetypes="ccssscc"
       inkscape:connector-curvature="0"
       id="path4163"
       d="m 68.535086,429.58632 c -0.08612,2.1634 -0.221843,4.29338 0.01297,6.61162 0,0 0.761045,0.42094 1.102141,-0.007 0.599649,-0.7518 0.710398,-2.77394 0.656682,-3.77864 -0.05904,-1.1043 -0.06332,-2.36743 -0.861895,-3.0229 -0.352703,-0.28951 -0.909979,0.19662 -0.909979,0.19662 z"
       style="fill:url(#linearGradient14620);stroke:#000000;stroke-width:0.17342734" />
    <path
       sodipodi:nodetypes="ccssac"
       inkscape:connector-curvature="0"
       id="path4175"
       d="m 68.45241,431.02121 0.08972,5.15858 c 0,0 0.757515,0.13609 0.92771,-0.21919 0.435462,-0.90902 0.477834,-2.08233 0.419668,-3.02928 -0.04393,-0.71504 -0.118268,-1.46253 -0.588813,-1.85645 -0.226555,-0.18966 -0.848284,-0.0537 -0.848284,-0.0537 z"
       style="fill-opacity:0.706" />
    <path
       sodipodi:nodetypes="ccsasc"
       inkscape:connector-curvature="0"
       id="path4173"
       d="m 68.524103,431.71101 c -0.152301,1.3095 -0.166863,2.42913 -0.0076,3.7016 0,0 0.463043,0.13215 0.651559,-0.0675 0.3453,-0.36579 0.397063,-1.37516 0.389905,-2.08513 -0.0053,-0.51311 0.07097,-1.09651 -0.312072,-1.49952 -0.18914,-0.199 -0.721758,-0.0494 -0.721758,-0.0494 z"
       style="fill-opacity:0.706" />
    <ellipse
       transform="matrix(0.97516477,0.22148061,-0.11409357,0.99347001,0,0)"
       id="path4022-04"
       cx="118.60755"
       cy="408.71826"
       rx="0.24474479"
       ry="0.38812158"
       style="color:#000000;fill:#ffffff;fill-opacity:0.83399999" />
    <path
       sodipodi:nodetypes="csczcc"
       inkscape:connector-curvature="0"
       id="path4195-8"
       d="m 48.954358,429.93931 c 0,0 -0.75566,-0.56284 -1.046586,-1.00763 -0.23808,-0.36399 -0.554075,-1.35115 -0.554075,-1.35115 0,0 -0.359746,1.16446 -0.328341,1.64886 0.03141,0.4844 0.389905,1.14504 0.389905,1.14504 0.370385,-0.36791 0.645485,-0.88466 1.539097,-0.43512 z" />
    <path
       sodipodi:nodetypes="ccssscc"
       inkscape:connector-curvature="0"
       id="path4163-6"
       d="m 48.858794,429.95273 c 0.08612,2.1634 0.221843,4.29338 -0.01297,6.61162 0,0 -0.761045,0.42094 -1.102141,-0.007 -0.599649,-0.7518 -0.710398,-2.77394 -0.656682,-3.77864 0.05904,-1.1043 0.06332,-2.36743 0.861895,-3.0229 0.352703,-0.28951 0.909979,0.19662 0.909979,0.19662 z"
       style="fill:url(#linearGradient9965);stroke:#000000;stroke-width:0.17342734" />
    <path
       sodipodi:nodetypes="ccssac"
       inkscape:connector-curvature="0"
       id="path4175-9"
       d="m 48.94147,431.38762 -0.08972,5.15858 c 0,0 -0.757515,0.13609 -0.92771,-0.21919 -0.435462,-0.90902 -0.477834,-2.08233 -0.419668,-3.02928 0.04393,-0.71504 0.118268,-1.46253 0.588813,-1.85645 0.226555,-0.18966 0.848284,-0.0537 0.848284,-0.0537 z"
       style="fill-opacity:0.706" />
    <path
       sodipodi:nodetypes="ccsasc"
       inkscape:connector-curvature="0"
       id="path4173-8"
       d="m 48.869777,432.07742 c 0.152301,1.3095 0.166863,2.42913 0.0076,3.7016 0,0 -0.463043,0.13215 -0.651559,-0.0675 -0.3453,-0.36579 -0.397063,-1.37516 -0.389905,-2.08513 0.0053,-0.51311 -0.07097,-1.09651 0.312072,-1.49952 0.18914,-0.199 0.721758,-0.0494 0.721758,-0.0494 z"
       style="fill-opacity:0.706" />
    <ellipse
       transform="matrix(-0.97516477,0.22148061,0.11409357,0.99347001,0,0)"
       id="path4022-04-6"
       cx="1.3261697"
       cy="435.23337"
       rx="0.24474479"
       ry="0.38812158"
       style="color:#000000;fill:#ffffff;fill-opacity:0.83399999" />
    <ellipse
       style="color:#000000;fill:#ffffff;fill-opacity:0.50800003"
       ry="0.92752606"
       rx="0.88499427"
       cy="316.88647"
       cx="331.58041"
       transform="matrix(0.82223302,0.569151,-0.666011,0.74594192,0,0)"
       id="path4022-0-7-1"
       inkscape:transform-center-x="-0.95454115"
       inkscape:transform-center-y="0.85586828" />
  </g>
  <g
     transform="translate(-20.571403,-267.21939)"
     id="g4609">
    <ellipse
       ry="12.538832"
       rx="13.849161"
       cy="392.80145"
       cx="58.677429"
       id="path4092"
       style="color:#000000;fill:#dd96e6;stroke:#7d0d95;stroke-width:0.0534566;stroke-linecap:round;stroke-linejoin:round" />
    <ellipse
       ry="12.552713"
       rx="13.850182"
       cy="392.7905"
       cx="58.677437"
       id="path4092-4"
       style="color:#000000;fill:none;stroke:#b251ba;stroke-width:0.31273317;stroke-linecap:round;stroke-linejoin:round" />
    <ellipse
       style="color:#000000;fill:url(#linearGradient4269-8);stroke:#000000;stroke-width:0.29839718;stroke-linecap:round;stroke-linejoin:round"
       id="path4261"
       cx="66.894638"
       cy="394.63223"
       rx="3.4824615"
       ry="5.4767823" />
    <ellipse
       style="color:#000000;fill-opacity:0.706;stroke-width:1.5"
       id="path4296"
       cx="67.59613"
       cy="393.52991"
       rx="1.7623773"
       ry="3.7303109" />
    <ellipse
       style="color:#000000;fill-opacity:0.706;stroke-width:1.5"
       id="path4296-2"
       cx="67.218506"
       cy="393.88708"
       rx="2.6435208"
       ry="4.8018885" />
    <ellipse
       style="color:#000000;fill:#ffffff;fill-opacity:0.83399999"
       transform="matrix(0.80064375,-0.59914071,0.62996576,0.7766229,0,0)"
       id="path4022-1-2"
       cx="-193.82228"
       cy="354.02634"
       rx="0.92024291"
       ry="0.85834414" />
    <path
       sodipodi:nodetypes="czszcccaaac"
       inkscape:connector-curvature="0"
       id="path4338"
       d="m 63.420409,393.17599 c 0,0 0.07711,-1.62874 0.654564,-2.63773 0.577454,-1.00899 1.718343,-2.1057 2.59308,-2.14315 0.720363,-0.0308 1.522924,0.55818 2.240622,0.49457 0.717694,-0.0636 1.837824,-0.71438 1.837824,-0.71438 -0.430904,0.70657 -1.238106,0.98153 -1.258776,1.95082 l 0.302106,1.20896 c 0,0 -1.073646,-1.68066 -1.888175,-2.08821 -0.451109,-0.22571 -1.004357,-0.24317 -1.485356,-0.1099 -0.683727,0.18943 -1.320805,0.65909 -1.787463,1.23643 -0.625822,0.77426 -1.208426,2.80259 -1.208426,2.80259 z" />
    <path
       style="color:#000000;fill:#ce64dc"
       sodipodi:nodetypes="sssss"
       inkscape:connector-curvature="0"
       id="path4053-93-8-3-9"
       d="m 55.236903,393.41703 c 0.468932,0.91816 0.553766,1.88223 0.189484,2.15331 -0.364281,0.27109 -0.472726,-0.89381 -0.803752,-1.85853 -0.401074,-1.16884 -0.746785,-1.97776 -0.315363,-1.54883 0.309599,0.30781 0.4607,0.3359 0.929631,1.25405 z" />
    <path
       style="fill:none;stroke:#b251ba;stroke-width:0.23249894"
       d="m 55.416127,395.67039 c 0,0 0.27401,-0.75964 0.01849,-1.77559 -0.255449,-1.01595 -1.466274,-2.13686 -1.466274,-2.11705"
       id="path4852-8"
       inkscape:connector-curvature="0"
       sodipodi:nodetypes="czc" />
    <path
       style="color:#000000;fill:#ce64dc"
       d="m 60.518497,394.78091 c -0.361081,0.8227 -0.438904,1.20894 -0.745688,0.98494 -0.306783,-0.224 -0.172494,-0.61623 0.188587,-1.43893 0.36108,-0.8227 0.877316,-1.52785 1.1841,-1.30385 0.306783,0.224 -0.265919,0.93514 -0.626999,1.75784 z"
       id="path4053-0-4-1-5-8"
       inkscape:connector-curvature="0"
       sodipodi:nodetypes="sssss" />
    <path
       style="fill:none;stroke:#b251ba;stroke-width:0.23255305"
       d="m 59.693733,396.01452 c 0,0 -0.05204,-0.45489 0.203498,-1.47082 0.255448,-1.01596 1.491303,-1.73401 1.214373,-1.5768"
       id="path4852-5-6"
       inkscape:connector-curvature="0"
       sodipodi:nodetypes="czc" />
    <ellipse
       ry="5.4703918"
       rx="3.4872952"
       cy="398.28894"
       cx="-5.9265575"
       transform="matrix(-0.99133027,0.13139366,0.11059198,0.99386589,0,0)"
       id="path4261-3"
       style="color:#000000;fill:url(#linearGradient4469-0);stroke:#000000;stroke-width:0.29842997;stroke-linecap:round;stroke-linejoin:round" />
    <ellipse
       ry="3.7259586"
       rx="1.7648234"
       cy="397.94263"
       cx="-6.7493443"
       transform="matrix(-0.99133028,0.13139362,0.11059196,0.9938659,0,0)"
       id="path4296-8"
       style="color:#000000;fill-opacity:0.706;stroke-width:1.5" />
    <ellipse
       ry="4.7962856"
       rx="2.6471903"
       cy="397.81635"
       cx="-6.4222851"
       transform="matrix(-0.99133027,0.13139364,0.11059195,0.9938659,0,0)"
       id="path4296-2-2"
       style="color:#000000;fill-opacity:0.706;stroke-width:1.5" />
    <ellipse
       ry="0.86697179"
       rx="0.91138226"
       cy="315.79651"
       cx="-252.07411"
       transform="matrix(-0.86935761,-0.49418351,-0.53421324,0.84534976,0,0)"
       id="path4022-1-2-6"
       style="color:#000000;fill:#ffffff;fill-opacity:0.83399999" />
    <path
       sodipodi:nodetypes="czszcccaaac"
       inkscape:connector-curvature="0"
       id="path4338-2"
       d="m 53.210775,393.16434 c 0,0 -0.256462,-1.60671 -0.941161,-2.53237 -0.684699,-0.92565 -1.938412,-1.86425 -2.810906,-1.78633 -0.718515,0.0642 -1.450157,0.75449 -2.169647,0.78578 -0.719486,0.0313 -1.903333,-0.46736 -1.903333,-0.46736 0.505811,0.64471 1.3375,0.81147 1.465089,1.77096 l -0.166358,1.23989 c 0,0 0.880165,-1.80966 1.643734,-2.32141 0.422887,-0.28342 0.97017,-0.37354 1.462383,-0.30454 0.699665,0.0981 1.383976,0.4805 1.911005,0.99223 0.706784,0.68627 1.509194,2.62315 1.509194,2.62315 z" />
    <path
       sodipodi:nodetypes="csc"
       inkscape:connector-curvature="0"
       id="path4495"
       d="m 54.432754,401.55627 c 0,0 1.559816,2.07411 3.373522,2.03325 1.618867,-0.0365 2.920361,-1.78596 2.920361,-1.78596"
       style="fill:none;stroke:#b251ba;stroke-width:0.21040629" />
    <path
       sodipodi:nodetypes="cccccccccccc"
       inkscape:connector-curvature="0"
       id="path4316-5-7-2"
       d="m 56.085347,387.50805 -0.711541,-6.23531 -2.35927,-1.2245 0.528686,3.18771 -2.466074,-4.1767 -3.030731,-1.56352 3.32176,5.79595 -1.928828,1.51946 2.035532,0.84802 2.157342,-1.66296 0.418135,2.6737 z"
       style="fill:#ffc000" />
    <path
       sodipodi:nodetypes="cccccccccccc"
       inkscape:connector-curvature="0"
       id="path4316-8-8"
       d="m 60.757472,387.74223 0.711542,-6.23531 2.359279,-1.2245 -0.528706,3.18771 2.466074,-4.1767 3.030752,-1.56353 -3.321781,5.79596 1.928849,1.51946 -2.035533,0.84802 -2.157341,-1.66297 -0.418156,2.67371 z"
       style="fill:#ffc000" />
  </g>
  <g
     transform="translate(-20.571403,-267.21939)"
     id="g4558">
    <path
       style="fill:#ffc000"
       d="m 64.41796,469.31219 -0.74126,-7.35596 -2.45775,-1.44457 0.55076,3.76062 -2.56902,-4.92736 -3.15725,-1.84454 3.46043,6.83766 -2.00935,1.79254 2.1205,1.00043 2.24739,-1.96185 0.43561,3.15425 z"
       id="path4316-8-6-4"
       inkscape:connector-curvature="0"
       sodipodi:nodetypes="cccccccccccc" />
    <path
       sodipodi:nodetypes="cccc"
       inkscape:connector-curvature="0"
       id="path5001-5-1-2"
       d="m 53.26912,481.75931 0.41782,-3.16263 2.04027,1.50795 z"
       style="fill:#999999;fill-opacity:1;stroke:none" />
    <path
       sodipodi:nodetypes="cccc"
       inkscape:connector-curvature="0"
       id="path5001-5-1"
       d="m 55.04524,480.29259 0.41782,-3.16263 2.04028,1.50795 z"
       style="fill:#999999;fill-opacity:1;stroke:none" />
    <path
       sodipodi:nodetypes="cccc"
       inkscape:connector-curvature="0"
       id="path5001-5-1-5"
       d="m 57.14533,478.27015 0.44206,-2.07257 1.69203,1.33518 z"
       style="fill:#999999;fill-opacity:1;stroke:none" />
    <path
       sodipodi:nodetypes="czzzzsssccc"
       inkscape:connector-curvature="0"
       id="path5097"
       d="m 61.50416,477.09245 c 0,0 -0.62466,0.36958 -1.27868,0.49346 -0.65401,0.12388 -1.29883,-0.002 -2.14083,0.16374 -0.84199,0.16573 -1.87145,0.47922 -2.649,1.07373 -0.77754,0.59452 -2.07291,1.87038 -2.28654,2.29494 -0.21364,0.42455 -0.71205,0.52463 -1.07554,0.95821 -0.18248,0.21767 -0.38239,0.71546 -0.39172,0.98602 -0.005,0.13392 0.26908,0.73027 0.51677,0.80732 0.78851,0.24532 2.34297,-0.25267 2.34297,-0.25267 l 7.63443,-5.82303 z"
       style="fill:#e3311c;fill-opacity:1;stroke:none" />
    <path
       sodipodi:nodetypes="cszsccc"
       inkscape:connector-curvature="0"
       id="path5097-6"
       d="m 57.98754,477.77949 c -0.36259,0.0555 -0.82551,0.15433 -1.25473,0.32499 -0.65047,0.25863 -1.23463,0.61718 -1.36274,0.72553 -0.12811,0.10834 -0.76341,0.61053 -1.23782,1.07078 -0.51199,0.49671 -1.97499,2.07247 -1.99594,2.16832 -0.44435,1.60305 3.75494,-1.77331 5.12934,-2.87442 1.12243,-1.121 1.35691,-1.45112 0.72189,-1.4152 z"
       style="fill:#ef5500;fill-opacity:1;stroke:none" />
    <path
       sodipodi:nodetypes="cccc"
       inkscape:connector-curvature="0"
       id="path5001-5"
       d="m 54.37488,483.25522 0.41782,-3.16263 2.14428,1.7012 z"
       style="fill:#d3d3d3;fill-opacity:1;stroke:none" />
    <path
       sodipodi:nodetypes="cssscsscc"
       inkscape:connector-curvature="0"
       id="path4848-2"
       d="m 72.39072,478.04969 c -1.37717,6.45715 -15.00346,8.64224 -18.99632,6.84641 -1.59952,-0.71939 0.20324,-1.7014 1.61992,-2.43364 4.85737,-2.51062 8.66865,-4.09417 7.06349,-5.2427 -7.07644,-5.06337 -7.86985,-5.50087 -9.65087,-6.68321 0.4594,-2.05382 -4.74943,-2.56202 -3.15399,-4.07153 0.70877,-0.67059 1.35662,-1.0087 2.15071,-1.47527 3.27854,-1.92633 7.09457,-2.15649 10.17635,-1.5442 6.69378,1.46754 11.45567,7.03158 11.04693,13.06023"
       style="color:#000000;display:inline;overflow:visible;visibility:visible;fill:#ff776d;fill-opacity:1;fill-rule:nonzero;stroke:none;stroke-width:2;marker:none;enable-background:accumulate" />
    <path
       sodipodi:nodetypes="cccc"
       inkscape:connector-curvature="0"
       id="path5001-89"
       d="m 52.17689,484.65356 c 0.0614,-1.14143 0.12735,-2.8962 0.48519,-4.21535 0.87791,0.94199 1.12342,2.21483 1.77663,2.75869 z"
       style="fill:#d3d3d3;fill-opacity:1;stroke:none" />
    <path
       sodipodi:nodetypes="cccc"
       inkscape:connector-curvature="0"
       id="path5001-8"
       d="m 58.69232,480.82701 0.55996,-2.74578 1.70186,1.28912 z"
       style="fill:#d3d3d3;fill-opacity:1;stroke:none" />
    <path
       sodipodi:nodetypes="ccccccccc"
       inkscape:connector-curvature="0"
       id="path5205"
       d="m 59.97483,477.53711 c -0.15994,-0.16292 -14.07368,3.02702 -14.1116,3.76577 l 1.73218,-2.41405 -2.92404,-1.0552 2.15201,-0.57367 -2.0953,-1.98935 2.10505,-0.11405 -0.73502,-2.62299 c 3.88296,3.74031 9.00561,4.02096 13.87672,5.00354 z"
       style="fill:url(#linearGradient5460);fill-opacity:1;stroke:none" />
    <path
       sodipodi:nodetypes="ccccccsczzc"
       inkscape:connector-curvature="0"
       id="path5207"
       d="m 59.7447,477.47006 c -2.6164,0.39543 -5.31455,0.82081 -8.28117,1.34454 -0.25323,-0.34074 1.44386,-0.56258 2.1682,-0.84373 l -2.93423,0.22353 -0.13349,-0.0953 c 0.1968,-0.42535 0.75446,-0.18998 1.22577,-0.3582 0,0 -0.99464,-0.34221 -0.86756,-0.35906 0.12712,-0.0168 1.14058,-0.1099 1.14058,-0.1099 0,0 -1.70012,-0.63253 -1.66528,-0.87163 0.0349,-0.23908 0.27643,-0.1398 0.54712,-0.0931 0.2707,0.0467 8.78923,1.18556 8.80006,1.16283 z"
       style="fill:url(#linearGradient5462);fill-opacity:1;stroke:none" />
    <path
       sodipodi:nodetypes="czccc"
       inkscape:connector-curvature="0"
       id="path4889-7"
       d="m 56.59112,473.24235 c 0,0 -0.27864,1.50411 -0.27484,2.17508 0.004,0.67096 0.32921,2.08108 0.32921,2.08108 0.80464,-0.5878 1.81726,-1.53709 3.11894,-2.19684 z"
       style="fill:#d3d3d3;fill-opacity:1;stroke:none" />
    <path
       sodipodi:nodetypes="czccc"
       inkscape:connector-curvature="0"
       id="path4889-5"
       d="m 59.35392,474.23083 c 0,0 -0.043,1.12186 -0.25026,1.93941 -0.20723,0.81755 -0.1319,2.0764 -0.1319,2.0764 0.80464,-0.58779 2.25378,-1.29675 3.55546,-1.95649 z"
       style="fill:#d3d3d3;fill-opacity:1;stroke:none" />
    <path
       sodipodi:nodetypes="czccc"
       inkscape:connector-curvature="0"
       id="path4889-4"
       d="m 53.33901,471.23935 c 0,0 -0.35711,1.39048 -0.3533,2.06145 0.004,0.67096 0.0152,2.47023 0.0152,2.47023 1.19041,-0.75838 2.62898,-1.57621 3.63888,-2.10695 z"
       style="fill:#d3d3d3;fill-opacity:1;stroke:none" />
    <path
       sodipodi:nodetypes="czccc"
       inkscape:connector-curvature="0"
       id="path4889"
       d="m 50.09631,469.29265 c 0,0 -0.25406,1.26844 -0.25026,1.93941 0.004,0.67096 0.30462,2.31674 0.30462,2.31674 0.80465,-0.58779 1.81726,-1.53708 3.11894,-2.19683 z"
       style="fill:#d3d3d3;fill-opacity:1;stroke:none" />
    <path
       sodipodi:nodetypes="czccc"
       inkscape:connector-curvature="0"
       id="path5001"
       d="m 56.78226,481.85715 c 0,0 -0.0441,-1.08183 -0.016,-1.79562 0.028,-0.71378 0.25392,-1.32466 0.25392,-1.32466 0.9134,0.45849 1.61504,0.92054 1.93728,1.38895 z"
       style="fill:#d3d3d3;fill-opacity:1;stroke:none" />
    <path
       sodipodi:nodetypes="cccssssssssssc"
       inkscape:connector-curvature="0"
       id="path4848"
       d="m 72.39071,478.04969 c -0.91141,4.11494 -11.75875,7.94814 -19.18364,6.87353 -1.06551,-0.0183 -3.91462,-1.28089 -1.08891,-2.72685 4.74626,-1.17584 6.41245,-1.58634 8.72847,-3.54027 0.13521,-0.11408 0.76256,-0.59343 0.5796,-0.77734 -4.3168,-4.33912 -9.81274,-7.29401 -11.9605,-9.04443 -0.73526,-0.59924 -0.58835,-0.51428 -0.60528,-1.3135 -0.0191,-0.90051 0.53655,-1.28418 1.06124,-1.68854 0.977,-0.75297 2.19044,-1.27622 3.387,-1.73195 0.31163,-0.1187 -0.19368,1.15853 -0.25362,1.53211 -0.52948,3.29997 8.87786,7.61125 11.40815,8.52791 3.298,1.19477 6.00691,-0.28825 5.86241,-3.0864 -0.016,-0.30909 0.006,-2.06846 0.28944,-1.64439 1.41597,2.11763 2.15577,4.58943 1.98327,7.13374"
       style="color:#000000;display:inline;overflow:visible;visibility:visible;fill:#ff4739;fill-opacity:1;fill-rule:nonzero;stroke:none;stroke-width:2;marker:none;enable-background:accumulate" />
    <path
       sodipodi:nodetypes="zzzzz"
       inkscape:connector-curvature="0"
       id="path4850"
       d="m 56.09145,464.50487 c 0.21397,0.14523 0.96819,0.14637 1.39093,0.0322 0.42275,-0.11414 1.44309,-0.46769 1.23505,-0.76898 -0.20805,-0.30129 -1.27215,-0.27928 -1.75859,-0.0958 -0.48645,0.18349 -1.08138,0.68731 -0.86739,0.83254 z"
       style="fill:#ff4739;fill-opacity:1;stroke:none" />
    <path
       sodipodi:nodetypes="zzzzz"
       inkscape:connector-curvature="0"
       id="path4850-7"
       d="m 59.27746,466.11912 c 0.10987,0.29286 1.23868,0.49544 1.89031,0.58488 0.65161,0.0894 1.93201,0.0486 1.77603,-0.32652 -0.15599,-0.3751 -1.11253,-0.517 -1.91455,-0.64133 -0.802,-0.12432 -1.86164,0.0901 -1.75179,0.38297 z"
       style="fill:#ff4739;fill-opacity:1;stroke:none" />
    <path
       sodipodi:nodetypes="czzzzccccc"
       inkscape:connector-curvature="0"
       id="path5231"
       d="m 63.03146,473.02361 c 0,0 2.21893,1.35816 3.16979,1.50104 0.95087,0.14287 1.65507,0.26182 2.23485,-0.006 0.5798,-0.26762 1.24445,-0.82807 1.54972,-1.40792 0.30527,-0.57985 0.17477,-1.14452 0.1705,-1.55117 -0.004,-0.40664 -0.11438,-0.87347 -0.11438,-0.87347 l -1.19224,0.94352 -2.39843,1.01543 -1.68771,0.41626 z"
       style="fill:url(#linearGradient5464);fill-opacity:1;stroke:#000000;stroke-width:0.17932124px;stroke-linecap:butt;stroke-linejoin:miter;stroke-opacity:1" />
    <path
       sodipodi:nodetypes="csssccssscc"
       inkscape:connector-curvature="0"
       id="path5233"
       d="m 70.45207,469.46375 c 0,0 -0.88729,1.3939 -1.53824,1.81956 -0.65567,0.42873 -1.88687,1.00996 -2.7053,1.29049 -0.80935,0.27741 -1.37994,0.37835 -2.00133,0.3755 -0.59097,-0.003 -1.62622,-0.19077 -1.62622,-0.19077 l 0.10606,0.17362 c 0,0 0.79831,0.43353 1.49494,0.43672 0.66621,0.003 1.62531,0.0129 2.46048,-0.27338 0.82609,-0.28315 1.9301,-0.81369 2.51729,-1.41155 0.61597,-0.62716 0.92623,-1.13997 0.92623,-1.13997 0.46941,-0.98041 0.39046,-0.98158 0.36609,-1.08022 z"
       style="color:#000000;font-style:normal;font-variant:normal;font-weight:normal;font-stretch:normal;font-size:medium;line-height:normal;font-family:Sans;-inkscape-font-specification:Sans;text-indent:0;text-align:start;text-decoration:none;text-decoration-line:none;letter-spacing:normal;word-spacing:normal;text-transform:none;direction:ltr;block-progression:tb;writing-mode:lr-tb;baseline-shift:baseline;text-anchor:start;display:inline;overflow:visible;visibility:visible;fill:#000000;fill-opacity:1;stroke:none;stroke-width:2;marker:none;enable-background:accumulate" />
    <path
       sodipodi:nodetypes="ccccc"
       inkscape:connector-curvature="0"
       id="path4175-8-3"
       d="m 69.40969,471.35442 -3.24723,1.48903 -2.41839,0.49118 c 1.67473,0.97601 2.40731,1.38823 4.05545,0.75158 0.65184,-0.37569 1.31773,-0.98607 1.61017,-2.73179 z"
       style="fill-opacity:0.706" />
    <path
       sodipodi:nodetypes="ccsccc"
       inkscape:connector-curvature="0"
       id="path4173-4-2"
       d="m 64.43589,473.36127 c 0.66869,0.90688 2.11264,0.50549 2.85745,0.15404 0.43759,-0.21336 0.58881,-0.54168 0.77603,-1.0131 0.0924,-0.23276 -0.0786,-0.13722 -0.0786,-0.13722 -1.35589,0.54555 -2.47078,0.92799 -3.55486,0.99628 z"
       style="fill-opacity:0.706" />
    <ellipse
       ry="0.51104945"
       rx="0.32092026"
       cy="183.10399"
       cx="423.27429"
       transform="matrix(0.51127118,0.85941944,-0.80418985,0.59437252,0,0)"
       id="path4022-04-68-7"
       style="color:#000000;fill:#ffffff;fill-opacity:0.83399999" />
    <path
       style="fill:#ffc000"
       d="m 64.29686,469.31219 0.74126,-7.35596 2.45775,-1.44457 -0.55076,3.76062 2.56902,-4.92736 3.15725,-1.84454 -3.46043,6.83766 2.00935,1.79254 -2.1205,1.00043 -2.24739,-1.96185 -0.43561,3.15425 z"
       id="path4316-8-6"
       inkscape:connector-curvature="0"
       sodipodi:nodetypes="cccccccccccc" />
    <ellipse
       ry="0.80968553"
       rx="0.86624688"
       cy="553.05151"
       cx="478.48703"
       style="color:#000000;fill:#ffffff;fill-opacity:0.50800003"
       transform="matrix(0.97733144,0.21171504,-0.75271834,0.6583427,0,0)"
       id="path4022-0-7-1-0-7"
       inkscape:transform-center-x="-1.8133858"
       inkscape:transform-center-y="0.57892587" />
  </g>
</svg>
