<svg xmlns="http://www.w3.org/2000/svg" viewBox="0 0 256 256">
 <path fill="#ffc169" color="#31363b" d="m12 12v232h232v-232z"/>
 <path fill="currentcolor" color="#f2f2f2" d="m22.24 26.736v11.584h6.711l.033-1.063h-5.348v-10.521zm103.61.881l-1.055.078-.215 2.223-1.293.088-.031.746h1.293v5.05c0 .513.045.929.135 1.246.09.318.252.579.484.785.238.206.545.35.92.43.376.079.869.119 1.477.119h.547l.064-.906-.666-.031c-.703-.026-1.156-.138-1.357-.334-.201-.199-.303-.635-.303-1.309v-5.05h2.223v-.834h-2.223zm-15.91 2.133c-1.265 0-2.215.443-2.85 1.332l-.143-1.156h-1.143v8.395h1.316v-4.682c0-1.92.863-2.879 2.588-2.879.64 0 1.088.192 1.342.578.254.381.381.95.381 1.707v5.275h1.316v-5.135c0-1.153-.229-2.01-.689-2.578-.455-.571-1.162-.857-2.119-.857m-67.924.002c-1.121 0-2.132.209-3.03.627l.357.967c.386-.185.824-.327 1.316-.428.492-.106.952-.158 1.381-.158.635 0 1.1.15 1.391.451.296.302.443.76.443 1.373v.824h-1.344c-1.349 0-2.333.214-2.951.643-.613.423-.92 1.09-.92 2 0 .761.232 1.356.697 1.785.471.429 1.093.643 1.865.643 1.153 0 2.089-.441 2.809-1.324l.145 1.158h1v-5.539c0-1.069-.276-1.838-.826-2.309-.545-.476-1.321-.713-2.332-.713m29.83 0c-1.074 0-1.937.469-2.588 1.41l-.15-1.236h-1.064v8.395l.002-.002h1.316v-5.119c.111-.735.355-1.323.73-1.768.381-.449.894-.674 1.539-.674.587 0 .988.219 1.205.658.217.434.326 1.163.326 2.189v4.713h1.316v-4.307c.016-.73.046-1.168.088-1.311.143-.629.412-1.11.809-1.443.397-.333.849-.5 1.357-.5.227 0 .424.035.594.104.175.064.313.163.414.301.106.138.191.279.254.422.063.137.108.32.135.547.027.227.043.421.049.58.011.153.016.355.016.609v5h1.316v-5.412c0-2.105-.856-3.156-2.57-3.156-1.217 0-2.14.568-2.77 1.705-.195-.535-.474-.953-.834-1.254-.36-.301-.856-.451-1.49-.451m24.979 0c-1.121 0-2.13.209-3.03.627l.357.967c.386-.185.824-.327 1.316-.428.492-.106.952-.158 1.381-.158.635 0 1.098.15 1.389.451.296.302.445.76.445 1.373v.824h-1.344c-1.349 0-2.333.214-2.951.643-.613.423-.92 1.09-.92 2 0 .761.232 1.356.697 1.785.471.429 1.093.643 1.865.643 1.153 0 2.089-.441 2.809-1.324l.143 1.158h1v-5.539c0-1.069-.274-1.838-.824-2.309-.545-.476-1.323-.713-2.334-.713m21.539 0c-1.233 0-2.201.401-2.904 1.205-.698.799-1.047 1.858-1.047 3.176 0 1.285.356 2.331 1.064 3.141.709.804 1.67 1.207 2.887 1.207 1.19 0 2.148-.406 2.873-1.215.725-.815 1.086-1.858 1.086-3.133 0-1.317-.349-2.377-1.047-3.176-.698-.804-1.669-1.205-2.912-1.205m-84.46.002c-1.111 0-2.025.399-2.744 1.197-.719.795-1.08 1.866-1.08 3.213 0 1.328.368 2.381 1.104 3.158.735.772 1.695 1.158 2.873 1.158 1.057 0 2-.247 2.832-.738l-.279-.928c-.444.222-.845.389-1.205.5-.359.111-.76.166-1.199.166-.809 0-1.464-.256-1.967-.77-.503-.518-.776-1.312-.818-2.381h5.674l.049-.666c0-1.227-.279-2.183-.834-2.871-.55-.693-1.352-1.039-2.404-1.039m25.391 0c-1.111 0-2.025.399-2.744 1.197-.719.795-1.08 1.866-1.08 3.213 0 1.328.368 2.381 1.104 3.158.735.772 1.692 1.158 2.871 1.158 1.058 0 2-.246 2.832-.738l-.277-.928c-.444.222-.847.389-1.207.5-.359.111-.758.166-1.197.166-.809 0-1.466-.256-1.969-.77-.503-.518-.774-1.312-.816-2.381h5.674l.047-.666c0-1.227-.277-2.183-.832-2.871-.55-.693-1.352-1.039-2.404-1.039m25.709 0c-1.111 0-2.025.399-2.744 1.197-.719.795-1.078 1.866-1.078 3.213 0 1.328.366 2.381 1.102 3.158.735.772 1.695 1.158 2.873 1.158 1.057 0 2-.247 2.832-.738l-.279-.928c-.444.222-.845.389-1.205.5-.359.111-.758.166-1.197.166-.809 0-1.466-.256-1.969-.77-.503-.518-.774-1.312-.816-2.381h5.672l.049-.666c0-1.227-.279-2.183-.834-2.871-.55-.693-1.352-1.039-2.404-1.039m48.21 0c-1.111 0-2.025.399-2.744 1.197-.719.795-1.08 1.866-1.08 3.213 0 1.328.368 2.381 1.104 3.158.735.772 1.692 1.158 2.871 1.158 1.058 0 2-.246 2.832-.738l-.277-.928c-.444.222-.847.389-1.207.5-.359.111-.758.166-1.197.166-.809 0-1.464-.256-1.967-.77-.502-.518-.776-1.312-.818-2.381h5.674l.047-.666c0-1.227-.277-2.183-.832-2.871-.55-.693-1.352-1.039-2.404-1.039m-80.15.168c-.275.772-.693 1.927-1.254 3.467-.555 1.539-.971 2.695-1.246 3.467-.344-.907-.842-2.243-1.492-4.01-.645-1.767-1-2.74-1.07-2.92h-1.35l3.246 8.395v-.004h1.326l3.182-8.395zm-19.13.834c1.333 0 2.032.906 2.096 2.715h-4.572c.074-.836.335-1.498.779-1.984.449-.487 1.015-.73 1.697-.73m25.391 0c1.333 0 2.03.906 2.094 2.715h-4.57c.074-.836.333-1.498.777-1.984.449-.487 1.017-.73 1.699-.73m25.709 0c1.333 0 2.032.906 2.096 2.715h-4.57c.074-.836.333-1.498.777-1.984.449-.487 1.015-.73 1.697-.73m48.21 0c1.333 0 2.032.906 2.096 2.715h-4.572c.074-.836.335-1.498.779-1.984.449-.487 1.015-.73 1.697-.73m-14.881.004c.862 0 1.514.309 1.953.928.439.614.658 1.435.658 2.461 0 .656-.09 1.229-.27 1.721-.18.487-.471.88-.873 1.176-.397.291-.887.436-1.469.436-.847 0-1.492-.307-1.936-.92-.445-.613-.666-1.42-.666-2.42 0-1.021.221-1.84.666-2.453.444-.619 1.089-.928 1.936-.928m-75.5 3.521h1.01v1.85c-.629.926-1.486 1.389-2.57 1.389h-.002c-.397 0-.728-.127-.992-.381-.265-.254-.398-.615-.398-1.08 0-.259.025-.476.072-.65.048-.18.135-.344.262-.492.127-.153.301-.273.523-.357.222-.09.506-.158.85-.205.344-.047.759-.072 1.246-.072m54.811 0h1.01v1.85c-.629.926-1.488 1.389-2.572 1.389h-.002c-.397 0-.728-.127-.992-.381-.265-.254-.396-.615-.396-1.08 0-.259.023-.476.07-.65.048-.18.137-.344.264-.492.127-.153.301-.273.523-.357.222-.09.506-.158.85-.205.344-.047.759-.072 1.246-.072m-77.67 15.719v1h216v-1zm3 168v14h-1v1h1v1h1v-1h12v1h1v-1h1v-1h-1v-14h-1v14h-12v-14zm203.5 0c-1.214 0-2.219.856-2.449 2h-6.05v1h6.05c.23 1.144 1.235 2 2.449 2 1.214 0 2.219-.856 2.449-2h5.05v-1h-5.05c-.23-1.144-1.235-2-2.449-2m-201.5 1v2h4v10h2v-10h4v-2zm195.5 10c-1.385 0-2.5 1.115-2.5 2.5 0 1.385 1.115 2.5 2.5 2.5 1.214 0 2.219-.856 2.449-2h11.05v-1h-11.05c-.23-1.144-1.235-2-2.449-2m0 1c.831 0 1.5.669 1.5 1.5 0 .831-.669 1.5-1.5 1.5-.831 0-1.5-.669-1.5-1.5 0-.831.669-1.5 1.5-1.5"/>
</svg>
