<svg xmlns="http://www.w3.org/2000/svg" viewBox="0 0 256 256">
  <defs
     id="defs4">
    <style
       id="current-color-scheme"
       type="text/css">
      .ColorScheme-Text {
        color:#f2f2f2;
      }
      .ColorScheme-Background {
        color:#31363b;
      }
      .ColorScheme-Highlight {
        color:#3daee9;
      }
      .ColorScheme-ViewText {
        color:#31363b;
      }
      .ColorScheme-ViewBackground {
        color:#314045;
      }
      .ColorScheme-ViewHover {
        color:#93cee9;
      }
      .ColorScheme-ViewFocus{
        color:#3daee9;
      }
      .ColorScheme-ButtonText {
        color:#31363b;
      }
      .ColorScheme-ButtonBackground {
        color:#31363b;
      }
      .ColorScheme-ButtonHover {
        color:#93cee9;
      }
      .ColorScheme-ButtonFocus{
        color:#3daee9;
      }
      </style>
  </defs>
  <path
     style="fill:currentColor;fill-opacity:0.5;stroke:none"
     d="m 16,10 224,0 c 3.324,0 6,2.676 6,6 l 0,224 c 0,3.324 -2.676,6 -6,6 l -224,0 c -3.324,0 -6,-2.676 -6,-6 L 10,16 c 0,-3.324 2.676,-6 6,-6 z"
     class="ColorScheme-ButtonText"
     id="rect4240" />
  <path
     style="fill:currentColor;fill-opacity:1;stroke:none"
     d="m 16,12 224,0 c 2.216,0 4,1.784 4,4 l 0,224 c 0,2.216 -1.784,4 -4,4 l -224,0 c -2.216,0 -4,-1.784 -4,-4 L 12,16 c 0,-2.216 1.784,-4 4,-4 z"
     class="ColorScheme-Background"
     id="rect4238" />
  <path
     style="fill:currentColor;fill-opacity:1;stroke:none" 
     class="ColorScheme-Text"
     d="m 47.306641,61 c -4.177273,0 -7.728253,1.259119 -10.652344,3.777344 -2.92409,2.491716 -5.103125,5.964688 -6.539063,10.417968 C 28.705404,79.622085 28,84.883716 28,90.980469 c 0,4.400264 0.377635,8.402778 1.134766,12.007811 0.783238,3.57853 1.933003,6.73261 3.447265,9.46289 1.54037,2.70378 3.550994,4.81133 6.03125,6.32227 2.506364,1.48442 5.403758,2.22656 8.69336,2.22656 3.263494,0 6.122023,-0.74214 8.576171,-2.22656 2.480256,-1.51094 4.452018,-3.63104 5.914063,-6.36133 1.488153,-2.73029 2.597102,-5.88436 3.328125,-9.46289 0.731023,-3.578529 1.097656,-7.568487 1.097656,-11.968751 0,-4.585819 -0.392542,-8.694628 -1.175781,-12.326172 C 64.263636,74.996246 63.102869,71.854723 61.5625,69.230469 60.048239,66.579706 58.076478,64.551388 55.648438,63.146484 53.246506,61.715073 50.465704,61 47.306641,61 Z m 162.287109,0 c -5.11717,0 -9.28091,1.298738 -12.49219,3.896484 -3.21127,2.597748 -4.8164,6.110338 -4.8164,10.53711 0,3.392976 0.9904,6.321901 2.97461,8.787109 2.0103,2.465209 4.60974,4.228758 7.79492,5.289063 -3.83787,1.351888 -6.80199,3.365698 -8.89063,6.042968 -2.06252,2.650762 -3.09375,5.923696 -3.09375,9.820316 0,3.23393 0.84791,6.03144 2.54492,8.39062 1.72313,2.35918 3.95593,4.09567 6.69727,5.20899 2.74133,1.11332 5.82203,1.66992 9.24219,1.66992 5.29991,0 9.6988,-1.33836 13.19726,-4.01563 3.49847,-2.67727 5.24805,-6.42951 5.24805,-11.2539 0,-3.68456 -1.07009,-6.970047 -3.21094,-9.859378 -2.14086,-2.889331 -5.01234,-4.917649 -8.61523,-6.083984 3.26349,-1.192844 5.83507,-2.968948 7.71484,-5.328126 1.90588,-2.385685 2.85742,-5.274992 2.85742,-8.667968 0,-4.45328 -1.59217,-7.96587 -4.77734,-10.53711 C 218.80968,62.298738 214.6848,61 209.59375,61 Z M 94.261719,61.794922 c -1.357614,0.954274 -3.394147,1.921561 -6.109375,2.902344 -2.68912,0.954274 -5.012607,1.631683 -6.970703,2.029296 l 0,5.248047 c 1.749233,-0.238568 3.863494,-0.755552 6.34375,-1.550781 2.506364,-0.795228 4.581761,-1.656217 6.226562,-2.583984 l 0,47.236326 -13.783203,0 0,4.77149 32.58203,0 0,-4.77149 -12.29687,0 0,-53.281248 -5.992191,0 z m 68.142581,0 c -1.35762,0.954274 -3.39414,1.921561 -6.10938,2.902344 -2.68911,0.954274 -5.01261,1.631683 -6.9707,2.029296 l 0,5.248047 c 1.74923,-0.238568 3.8635,-0.755552 6.34375,-1.550781 2.50637,-0.795228 4.58177,-1.656217 6.22656,-2.583984 l 0,47.236326 -13.78515,0 0,4.77149 32.58203,0 0,-4.77149 -12.29493,0 0,-53.281248 -5.99218,0 z m 47.15039,4.095703 c 3.3157,0 5.96501,0.860989 7.94922,2.583984 1.9842,1.696488 2.97656,3.962513 2.97656,6.798829 0,3.127898 -0.91268,5.727327 -2.74024,7.794921 -1.82756,2.067595 -4.55654,3.497741 -8.18554,4.292969 -3.60291,-0.821735 -6.34484,-2.251881 -8.22461,-4.292969 -1.85367,-2.067594 -2.7793,-4.667023 -2.7793,-7.794921 0,-2.809808 1.00531,-5.075833 3.01563,-6.798829 2.03642,-1.722995 4.69867,-2.583984 7.98828,-2.583984 z M 47.306641,66.367188 c 8.30233,0 12.453125,8.125828 12.453125,24.375 0,8.190851 -1.08304,14.392712 -3.25,18.607422 -2.140853,4.1882 -5.208608,6.2832 -9.203125,6.2832 -4.046733,0 -7.205171,-2.10756 -9.476563,-6.32226 -2.245285,-4.24122 -3.36914,-10.417969 -3.36914,-18.5293 -0.02611,-7.766732 1.110703,-13.770499 3.408203,-18.011719 2.2975,-4.267727 5.442983,-6.402343 9.4375,-6.402343 z m 81.064449,11.412109 c -1.54036,0 -2.72704,0.450302 -3.5625,1.351562 -0.83546,0.874752 -1.2539,1.90872 -1.2539,3.101563 0,1.219351 0.41844,2.280381 1.2539,3.18164 0.83546,0.874752 2.02214,1.3125 3.5625,1.3125 1.54038,0 2.71605,-0.437748 3.52539,-1.3125 0.83546,-0.901259 1.25391,-1.962289 1.25391,-3.18164 0,-1.192843 -0.41845,-2.226811 -1.25391,-3.101563 -0.80934,-0.90126 -1.98501,-1.351562 -3.52539,-1.351562 z m 81.1836,14.234375 c 3.68121,0.795228 6.64534,2.306562 8.89062,4.533203 2.2714,2.22664 3.40625,4.957475 3.40625,8.191405 0,7.21007 -4.09898,10.81445 -12.29687,10.81445 -4.02064,0 -7.10134,-0.94023 -9.24219,-2.82226 -2.11475,-1.88204 -3.17188,-4.53364 -3.17188,-7.95313 0,-3.33996 1.13486,-6.095902 3.40626,-8.269528 2.27139,-2.173624 5.27437,-3.672404 9.00781,-4.49414 z m -81.1836,19.363278 c -1.54036,0 -2.72704,0.43776 -3.5625,1.3125 -0.83546,0.87476 -1.2539,1.92127 -1.2539,3.14063 0,1.19284 0.41844,2.24132 1.2539,3.14258 0.83546,0.87475 2.02214,1.3125 3.5625,1.3125 1.54038,0 2.71605,-0.43775 3.52539,-1.3125 0.83546,-0.90126 1.25391,-1.94974 1.25391,-3.14258 0,-1.21936 -0.41845,-2.26587 -1.25391,-3.14063 -0.80934,-0.87474 -1.98501,-1.3125 -3.52539,-1.3125 z M 71.160156,156 c -2.586022,0 -4.783532,0.75469 -6.59375,2.26562 -1.810216,1.49503 -3.159882,3.57998 -4.048828,6.25196 -0.872783,2.65606 -1.310547,5.81265 -1.310547,9.4707 0,2.64016 0.234409,5.04206 0.703125,7.20508 0.48488,2.14712 1.197333,4.03957 2.134766,5.67773 0.953597,1.62228 2.19697,2.88642 3.732422,3.79297 1.551614,0.89066 3.346319,1.33594 5.382812,1.33594 2.020332,0 3.789305,-0.44528 5.308594,-1.33594 1.535451,-0.90655 2.757001,-2.17823 3.662109,-3.8164 0.921272,-1.63818 1.607993,-3.53062 2.060547,-5.67774 0.452554,-2.14712 0.677735,-4.54148 0.677735,-7.18164 0,-2.75149 -0.241684,-5.21756 -0.726563,-7.39648 -0.484879,-2.19483 -1.204607,-4.07975 -2.158203,-5.6543 -0.937433,-1.59046 -2.15703,-2.8055 -3.660156,-3.64844 C 74.837255,156.43022 73.115837,156 71.160156,156 Z m 41.021484,0 c -2.58602,0 -4.78548,0.75469 -6.5957,2.26562 -1.81022,1.49503 -3.15988,3.57998 -4.04883,6.25196 -0.87278,2.65606 -1.30859,5.81265 -1.30859,9.4707 0,2.64016 0.23441,5.04206 0.70312,7.20508 0.48488,2.14712 1.19538,4.03957 2.13281,5.67773 0.9536,1.62228 2.19893,2.88642 3.73438,3.79297 1.55162,0.89066 3.34632,1.33594 5.38281,1.33594 2.02033,0 3.78931,-0.44528 5.30859,-1.33594 1.53546,-0.90655 2.75505,-2.17823 3.66016,-3.8164 0.92127,-1.63818 1.60799,-3.53062 2.06055,-5.67774 0.45256,-2.14712 0.67968,-4.54148 0.67968,-7.18164 1e-5,-2.75149 -0.24168,-5.21756 -0.72656,-7.39648 -0.48488,-2.19483 -1.2046,-4.07975 -2.1582,-5.6543 -0.93743,-1.59046 -2.15704,-2.8055 -3.66016,-3.64844 C 115.85874,156.43022 114.13733,156 112.18164,156 Z m 29.50391,0 c -2.26278,0 -4.26616,0.49243 -6.01172,1.47852 -1.74557,0.97018 -3.07874,2.27589 -4,3.91406 -0.92128,1.63816 -1.38281,3.45891 -1.38281,5.46289 0,1.51093 0.29118,2.92601 0.87304,4.24609 0.58186,1.30418 1.35837,2.40231 2.32813,3.29297 0.96975,0.87475 2.09228,1.56527 3.36914,2.07422 1.293,0.50895 2.64267,0.76367 4.04883,0.76367 1.66475,0 3.24883,-0.39812 4.75195,-1.19336 -1.24452,1.57456 -2.06859,2.62554 -2.47266,3.15039 L 134,191.30859 l 4.75195,0 8.65625,-11.64257 c 1.00209,-1.35189 1.76015,-2.41041 2.27735,-3.17383 0.53336,-0.77932 1.09924,-1.72457 1.69726,-2.83789 0.59802,-1.12922 1.01927,-2.22737 1.26172,-3.29297 0.2586,-1.06561 0.38672,-2.2109 0.38672,-3.43555 0,-1.43141 -0.24895,-2.79933 -0.75,-4.10351 -0.50103,-1.30418 -1.22077,-2.46453 -2.1582,-3.48243 -0.93744,-1.01788 -2.13325,-1.82921 -3.58789,-2.43359 C 145.08052,156.30188 143.46344,156 141.68555,156 Z m -99.835941,0.47656 c -0.840458,0.57256 -2.102287,1.15372 -3.783203,1.74219 -1.664752,0.57257 -3.102255,0.97823 -4.314453,1.2168 l 0,3.14843 c 1.082897,-0.14313 2.392282,-0.45254 3.927735,-0.92968 1.551614,-0.47714 2.835268,-0.99412 3.853515,-1.55078 l 0,28.34179 -8.533203,0 0,2.86328 20.171875,0 0,-2.86328 -7.613281,0 0,-31.96875 -3.708985,0 z m 140.419921,0 c -0.84046,0.57256 -2.10034,1.15372 -3.78125,1.74219 -1.66476,0.57257 -3.10421,0.97823 -4.3164,1.2168 l 0,3.14843 c 1.0829,-0.14313 2.39228,-0.45254 3.92773,-0.92968 1.55162,-0.47714 2.83723,-0.99412 3.85547,-1.55078 l 0,28.34179 -8.5332,0 0,2.86328 20.16992,0 0,-2.86328 -7.61328,0 0,-31.96875 -3.70899,0 z m 20.60742,0 -0.67773,18.44141 3.24805,0.38281 c 0.74348,-0.77932 1.68112,-1.40009 2.8125,-1.86133 1.13139,-0.46123 2.2942,-0.6914 3.49023,-0.6914 1.63243,0 2.9986,0.35656 4.09766,1.07226 1.09906,0.69981 1.88285,1.60739 2.35156,2.72071 0.46872,1.0974 0.70312,2.35401 0.70312,3.76953 0,2.57654 -0.727,4.5803 -2.18164,6.01172 -1.43847,1.4155 -3.37052,2.12304 -5.79492,2.12304 -2.71533,0 -5.63257,-0.86601 -8.75195,-2.59961 l -1.38086,3.07618 c 3.50729,1.92445 6.9739,2.88671 10.40039,2.88671 1.66475,0 3.20854,-0.24523 4.63086,-0.73828 1.42231,-0.49304 2.66569,-1.21006 3.73242,-2.14843 1.0829,-0.95428 1.92347,-2.17128 2.52148,-3.6504 0.61419,-1.49503 0.92188,-3.17237 0.92188,-5.0332 0,-1.95626 -0.40476,-3.72231 -1.21289,-5.29687 -0.79197,-1.59046 -2.00429,-2.86967 -3.63672,-3.83985 -1.63243,-0.98608 -3.55525,-1.47851 -5.76953,-1.47851 -2.4244,0 -4.58163,0.6283 -6.47266,1.88476 l 0.38868,-11.88086 14.88476,0 0.31445,-3.15039 -18.61914,0 z m -61.07031,2.64844 c 2.34359,0 4.16207,0.72456 5.45508,2.17188 1.29301,1.44731 1.93945,3.23597 1.93945,5.36718 0,1.08152 -0.17035,2.06833 -0.50976,2.95899 -0.32326,0.87475 -0.74257,1.58983 -1.25977,2.14648 -0.51721,0.54076 -1.11608,1.00111 -1.79492,1.38281 -0.67883,0.36581 -1.35632,0.62807 -2.03516,0.78711 -0.66266,0.14314 -1.32561,0.21485 -1.98828,0.21485 -2.31125,0 -4.12246,-0.67546 -5.43164,-2.02735 -1.30917,-1.36779 -1.96289,-3.14138 -1.96289,-5.32031 0,-2.14712 0.67022,-3.96033 2.01172,-5.43945 1.35766,-1.49503 3.21642,-2.24219 5.57617,-2.24219 z m -70.646484,0.0957 c 5.139723,0 7.708985,4.8755 7.708985,14.625 0,4.91452 -0.670219,8.63524 -2.011719,11.16407 -1.325337,2.51292 -3.22438,3.76953 -5.697266,3.76953 -2.50521,0 -4.461037,-1.26415 -5.867187,-3.79297 -1.389988,-2.54473 -2.085938,-6.25039 -2.085938,-11.11719 -0.01616,-4.66004 0.687063,-8.26191 2.109375,-10.80664 1.422314,-2.56065 3.370866,-3.8418 5.84375,-3.8418 z m 41.021484,0 c 5.13973,0 7.70898,4.8755 7.70898,14.625 0,4.91452 -0.67021,8.63524 -2.01171,11.16407 -1.32534,2.51292 -3.22438,3.76953 -5.69727,3.76953 -2.50521,0 -4.46103,-1.26415 -5.86719,-3.79297 -1.38998,-2.54473 -2.08593,-6.25039 -2.08593,-11.11719 -0.0162,-4.66004 0.68706,-8.26191 2.10937,-10.80664 1.42231,-2.56065 3.37087,-3.8418 5.84375,-3.8418 z m -20.341796,27.14844 c -0.85662,0 -1.510336,0.25473 -1.962891,0.76367 -0.452553,0.50895 -0.679687,1.12219 -0.679687,1.83789 0,0.6998 0.227134,1.31109 0.679687,1.83594 0.468717,0.50895 1.122433,0.76367 1.962891,0.76367 0.840458,0 1.479624,-0.25472 1.916015,-0.76367 0.452554,-0.50895 0.677735,-1.12024 0.677735,-1.83594 0,-0.7157 -0.225181,-1.32894 -0.677735,-1.83789 -0.436391,-0.50894 -1.075557,-0.76367 -1.916015,-0.76367 z m 70.210936,0 c -0.85662,0 -1.51229,0.25473 -1.96484,0.76367 -0.45256,0.50895 -0.67774,1.12219 -0.67774,1.83789 0,0.6998 0.22518,1.31109 0.67774,1.83594 0.46871,0.50895 1.12438,0.76367 1.96484,0.76367 0.84046,0 1.47963,-0.25472 1.91602,-0.76367 0.45255,-0.50895 0.67773,-1.12024 0.67773,-1.83594 0,-0.7157 -0.22518,-1.32894 -0.67773,-1.83789 -0.43639,-0.50894 -1.07556,-0.76367 -1.91602,-0.76367 z"
     id="path8048" />
</svg>
