<?xml version="1.0" encoding="UTF-8" standalone="no"?>
<svg
   xmlns:dc="http://purl.org/dc/elements/1.1/"
   xmlns:cc="http://creativecommons.org/ns#"
   xmlns:rdf="http://www.w3.org/1999/02/22-rdf-syntax-ns#"
   xmlns:svg="http://www.w3.org/2000/svg"
   xmlns="http://www.w3.org/2000/svg"
   xmlns:sodipodi="http://sodipodi.sourceforge.net/DTD/sodipodi-0.dtd"
   xmlns:inkscape="http://www.inkscape.org/namespaces/inkscape"
   viewBox="0 0 256 256"
   id="svg2"
   version="1.1"
   inkscape:version="0.91 r13725"
   sodipodi:docname="org.kde.plasma.volume.svg">
  <metadata
     id="metadata10">
    <rdf:RDF>
      <cc:Work
         rdf:about="">
        <dc:format>image/svg+xml</dc:format>
        <dc:type
           rdf:resource="http://purl.org/dc/dcmitype/StillImage" />
        <dc:title />
      </cc:Work>
    </rdf:RDF>
  </metadata>
  <sodipodi:namedview
     pagecolor="#ffffff"
     bordercolor="#666666"
     borderopacity="1"
     objecttolerance="10"
     gridtolerance="10"
     guidetolerance="10"
     inkscape:pageopacity="0"
     inkscape:pageshadow="2"
     inkscape:window-width="1920"
     inkscape:window-height="1050"
     id="namedview8"
     showgrid="false"
     inkscape:zoom="2.6074563"
     inkscape:cx="13.531406"
     inkscape:cy="118.36035"
     inkscape:window-x="0"
     inkscape:window-y="30"
     inkscape:window-maximized="1"
     inkscape:current-layer="svg2" />
  <defs
     id="defs4">
    <style
       id="current-color-scheme"
       type="text/css">
      .ColorScheme-Text {
        color:#f2f2f2;
      }
      .ColorScheme-Background {
        color:#31363b;
      }
      .ColorScheme-Highlight {
        color:#3daee9;
      }
      .ColorScheme-ViewText {
        color:#31363b;
      }
      .ColorScheme-ViewBackground {
        color:#314045;
      }
      .ColorScheme-ViewHover {
        color:#93cee9;
      }
      .ColorScheme-ViewFocus{
        color:#3daee9;
      }
      .ColorScheme-ButtonText {
        color:#31363b;
      }
      .ColorScheme-ButtonBackground {
        color:#31363b;
      }
      .ColorScheme-ButtonHover {
        color:#93cee9;
      }
      .ColorScheme-ButtonFocus{
        color:#3daee9;
      }
      </style>
  </defs>
  <path
     style="fill:currentColor;fill-opacity:0.5;stroke:none"
     d="m 16,10 224,0 c 3.324,0 6,2.676 6,6 l 0,224 c 0,3.324 -2.676,6 -6,6 l -224,0 c -3.324,0 -6,-2.676 -6,-6 L 10,16 c 0,-3.324 2.676,-6 6,-6 z"
     class="ColorScheme-ButtonText"
     id="rect4240" />
  <path
     style="fill:currentColor;fill-opacity:1;stroke:none"
     d="m 16,12 224,0 c 2.216,0 4,1.784 4,4 l 0,224 c 0,2.216 -1.784,4 -4,4 l -224,0 c -2.216,0 -4,-1.784 -4,-4 L 12,16 c 0,-2.216 1.784,-4 4,-4 z"
     class="ColorScheme-Background"
     id="rect4238" />
  <path
     style="fill:currentColor;fill-opacity:1;stroke:none"
     class="ColorScheme-Text"
     d="m 32.949219,26.638673 -1.300781,0.0957 0,9.179687 c 0,0.502522 0.05745,0.920653 0.173828,1.253907 0.116374,0.32796 0.297689,0.579346 0.541015,0.753906 0.243327,0.17456 0.517416,0.296468 0.824219,0.365234 0.312093,0.06347 0.697998,0.0957 1.158203,0.0957 l 0.626953,0 0.07227,-0.90625 -0.357422,-0.02344 c -0.227458,-0.01587 -0.404297,-0.02846 -0.53125,-0.03906 -0.126953,-0.01587 -0.265951,-0.03799 -0.414062,-0.06445 -0.142823,-0.03172 -0.250163,-0.06704 -0.324219,-0.109375 -0.06877,-0.04761 -0.140788,-0.107014 -0.214844,-0.175781 -0.07405,-0.06877 -0.126463,-0.155925 -0.158203,-0.261719 -0.02645,-0.105793 -0.05111,-0.227701 -0.07227,-0.365234 -0.01587,-0.137533 -0.02344,-0.30428 -0.02344,-0.5 l 0,-9.298828 z m 21.820312,0 -1.332031,0.0957 0,11.583984 1.070312,0 0.119141,-1.476562 c 0.285645,0.470787 0.656413,0.863688 1.111328,1.175781 0.454916,0.3068 0.990479,0.458984 1.609375,0.458984 1.147868,0 2.028971,-0.390954 2.642578,-1.173828 0.618896,-0.78288 0.929688,-1.840821 0.929688,-3.173828 0,-1.354166 -0.296225,-2.422198 -0.888672,-3.205078 -0.592448,-0.78287 -1.465983,-1.173825 -2.619141,-1.173825 -0.565999,0 -1.076334,0.134524 -1.53125,0.404297 -0.449625,0.264487 -0.822916,0.620686 -1.11914,1.070312 l 0.0078,-1.458984 0,-3.126953 z m 25.009766,0 -1.300781,0.0957 0,11.583984 1.300781,0 0,-3.070312 0.904297,-0.857422 3.332031,3.927734 1.548828,0 -3.96875,-4.5625 3.666016,-3.832031 -1.59375,0 -3.935547,4.259766 0.04687,-1.728516 0,-5.816406 z m -57.541016,0.0957 0,11.583984 1.396485,0 0,-5.601562 2.507812,0 c 1.306559,0 2.257732,-0.263996 2.855469,-0.792969 0.597737,-0.53426 0.896484,-1.320635 0.896484,-2.357422 0,-0.507813 -0.0922,-0.946126 -0.277343,-1.316406 -0.17985,-0.375567 -0.441325,-0.671792 -0.785157,-0.888672 -0.343831,-0.21688 -0.734782,-0.376062 -1.173828,-0.476562 -0.439047,-0.100507 -0.936767,-0.150391 -1.492187,-0.150391 l -3.927735,0 z m 68.396485,0 0,11.583984 3.513672,0 c 1.856689,0 3.317626,-0.505291 4.380859,-1.515625 1.063233,-1.010333 1.593753,-2.446613 1.593753,-4.308593 0,-0.78288 -0.0973,-1.489668 -0.292972,-2.119141 -0.195719,-0.634767 -0.474284,-1.175373 -0.833984,-1.625 -0.3597,-0.449627 -0.795491,-0.82544 -1.308594,-1.126953 -0.513102,-0.3068 -1.083415,-0.532955 -1.712891,-0.675781 -0.629476,-0.14282 -1.31608,-0.212891 -2.05664,-0.212891 l -3.283203,0 z m 29.445314,0 c -0.25391,0 -0.46296,0.07959 -0.62696,0.238281 -0.15868,0.1534 -0.23828,0.352949 -0.23828,0.601563 0,0.24862 0.0796,0.452635 0.23828,0.611328 0.16399,0.158687 0.37305,0.238281 0.62696,0.238281 0.24862,0 0.45321,-0.07959 0.61719,-0.238281 0.16398,-0.158693 0.24609,-0.362708 0.24609,-0.611328 0,-0.248614 -0.0821,-0.448163 -0.24609,-0.601563 -0.1587,-0.158693 -0.36329,-0.238281 -0.61719,-0.238281 z m -96.445314,1.046875 2.523437,0 c 0.761719,0 1.3396,0.137043 1.736328,0.412109 0.402018,0.269774 0.603516,0.732746 0.603516,1.388672 0,0.76172 -0.181885,1.296716 -0.546875,1.603516 -0.359701,0.306807 -0.974284,0.458984 -1.841797,0.458984 l -2.474609,0 0,-3.863281 z m 68.396484,0 1.824219,0 c 1.592203,0 2.801758,0.383377 3.626953,1.150391 0.830485,0.761713 1.244143,1.961749 1.24414,3.601562 10e-7,1.544593 -0.39095,2.719398 -1.173828,3.523438 -0.777588,0.798746 -1.937823,1.199218 -3.482422,1.199218 l -2.039062,0 0,-9.474609 z m -52.431641,1.968753 c -1.121419,0 -2.131998,0.207113 -3.03125,0.625 l 0.357422,0.96875 c 0.386149,-0.18514 0.824463,-0.327234 1.316407,-0.427734 0.491942,-0.105794 0.952392,-0.160157 1.380859,-0.160157 0.634765,0 1.097738,0.151612 1.388672,0.453125 0.296224,0.301514 0.443359,0.759441 0.443359,1.373047 l 0,0.824219 -1.339844,0 c -1.348876,0 -2.334228,0.214111 -2.953125,0.642578 -0.613606,0.42318 -0.919921,1.090173 -0.919921,2 -10e-7,0.76172 0.233724,1.35669 0.699218,1.785156 0.470785,0.428467 1.090983,0.642578 1.863282,0.642578 1.153157,0 2.091145,-0.440838 2.810546,-1.324218 l 0.142578,1.158203 1,0 0,-5.539063 c 10e-7,-1.068526 -0.276041,-1.837813 -0.826171,-2.308593 -0.544841,-0.476074 -1.321696,-0.712891 -2.332032,-0.712891 z m 26.119141,0 c -1.121419,0 -2.130046,0.207113 -3.029297,0.625 l 0.355469,0.96875 c 0.386149,-0.18514 0.826416,-0.327234 1.318359,-0.427734 0.491944,-0.105794 0.952393,-0.160157 1.38086,-0.160157 0.634766,0 1.097738,0.151612 1.388671,0.453125 0.296225,0.301514 0.44336,0.759441 0.44336,1.373047 l 0,0.824219 -1.341797,0 c -1.348877,0 -2.332275,0.214111 -2.951172,0.642578 -0.613607,0.42318 -0.919922,1.090173 -0.919922,2 0,0.76172 0.231771,1.35669 0.697266,1.785156 0.470785,0.428467 1.092936,0.642578 1.865234,0.642578 1.153158,0 2.089193,-0.440838 2.808594,-1.324218 l 0.142578,1.158203 1,0 0,-5.539063 c 0,-1.068526 -0.274089,-1.837813 -0.824219,-2.308593 -0.54484,-0.476074 -1.323649,-0.712891 -2.333984,-0.712891 z m 8.832031,0 c -1.169026,0 -2.119628,0.393474 -2.849609,1.181641 -0.72998,0.782873 -1.09375,1.858475 -1.09375,3.228515 0,1.311847 0.353679,2.359698 1.0625,3.142578 0.714111,0.782874 1.672281,1.173828 2.873047,1.173828 0.513102,0 0.973551,-0.05998 1.380859,-0.18164 0.407308,-0.121667 0.701006,-0.253664 0.88086,-0.396484 l -0.246094,-0.896485 c -0.534261,0.306807 -1.124184,0.458985 -1.769532,0.458985 -0.9257,0 -1.629964,-0.30379 -2.111328,-0.91211 -0.481364,-0.608313 -0.720703,-1.404785 -0.720703,-2.388672 0,-1.036786 0.249431,-1.861002 0.751953,-2.474609 0.502523,-0.613607 1.169515,-0.919922 2,-0.919922 0.655924,0 1.240804,0.152178 1.753907,0.458984 l 0.373047,-0.904297 c -0.179851,-0.121666 -0.471029,-0.246093 -0.873047,-0.373046 -0.396729,-0.13224 -0.867269,-0.197266 -1.41211,-0.197266 z m 31.015629,0 c -1.11084,0 -2.02474,0.398519 -2.74414,1.197266 -0.7194,0.798746 -1.08008,1.869304 -1.08008,3.21289 0,1.327714 0.36824,2.38061 1.10351,3.158203 0.73527,0.772294 1.69149,1.158203 2.8711,1.158203 1.05794,0 2.0035,-0.246341 2.83398,-0.738281 l -0.27734,-0.927734 c -0.44434,0.222173 -0.84733,0.38892 -1.20703,0.5 -0.3597,0.111087 -0.75822,0.166015 -1.19727,0.166015 -0.80933,0 -1.46622,-0.256424 -1.96875,-0.769531 -0.50251,-0.518386 -0.77407,-1.310379 -0.81641,-2.378906 l 5.67188,0 0.0488,-0.667969 c 0,-1.227213 -0.27857,-2.183426 -0.83399,-2.871094 -0.5501,-0.692946 -1.35161,-1.039062 -2.40426,-1.039062 z m 21.09765,0 c -1.16902,0 -2.11767,0.393474 -2.84765,1.181641 -0.72998,0.782873 -1.09571,1.858475 -1.09571,3.228515 0,1.311847 0.35564,2.359698 1.06446,3.142578 0.7141,0.782874 1.67032,1.173828 2.87109,1.173828 0.51311,0 0.97355,-0.05998 1.38086,-0.18164 0.40731,-0.121667 0.70101,-0.253664 0.88086,-0.396484 l -0.24609,-0.896485 c -0.53427,0.306807 -1.12419,0.458985 -1.76954,0.458985 -0.9257,0 -1.62801,-0.30379 -2.10937,-0.91211 -0.48137,-0.608313 -0.72266,-1.404785 -0.72266,-2.388672 0,-1.036786 0.25138,-1.861002 0.75391,-2.474609 0.50252,-0.613607 1.16951,-0.919922 2,-0.919922 0.65593,0 1.2408,0.152178 1.7539,0.458984 l 0.3711,-0.904297 c -0.17985,-0.121666 -0.46905,-0.246093 -0.8711,-0.373046 -0.39672,-0.13224 -0.86922,-0.197266 -1.41406,-0.197266 z m 7.08594,0 c -1.11084,0 -2.02474,0.398519 -2.74414,1.197266 -0.7194,0.798746 -1.08008,1.869304 -1.08008,3.21289 0,1.327714 0.36825,2.38061 1.10352,3.158203 0.73527,0.772294 1.69148,1.158203 2.87109,1.158203 1.05794,0 2.00348,-0.246341 2.83399,-0.738281 l -0.27735,-0.927734 c -0.44434,0.222173 -0.84733,0.38892 -1.20703,0.5 -0.3597,0.111087 -0.75822,0.166015 -1.19727,0.166015 -0.80932,0 -1.46623,-0.256424 -1.96875,-0.769531 -0.5025,-0.518386 -0.77407,-1.310379 -0.8164,-2.378906 l 5.67187,0 0.0488,-0.667969 c 0,-1.227213 -0.27856,-2.183426 -0.83398,-2.871094 -0.5501,-0.692946 -1.35162,-1.039062 -2.40427,-1.039062 z m 7.60156,0 c -0.87809,0 -1.56022,0.211592 -2.04687,0.634766 -0.48666,0.417886 -0.73047,0.968017 -0.73047,1.65039 0,0.550134 0.14152,0.998537 0.42187,1.347656 0.28036,0.343835 0.79826,0.637533 1.55469,0.88086 l 0.91992,0.292969 c 0.60832,0.195713 1.02898,0.404779 1.26172,0.626953 0.23275,0.222166 0.34961,0.498212 0.34961,0.826172 0,0.476073 -0.14152,0.839843 -0.42187,1.09375 -0.28036,0.24862 -0.67383,0.373046 -1.18164,0.373046 -0.80933,0 -1.71566,-0.239336 -2.72071,-0.720703 l 0,1.101563 c 0.86752,0.412593 1.74162,0.61914 2.625,0.61914 0.39674,0 0.76245,-0.04736 1.09571,-0.142578 0.33854,-0.09521 0.63981,-0.237301 0.90429,-0.427734 0.26978,-0.190427 0.48137,-0.444339 0.63477,-0.761719 0.1534,-0.322673 0.23047,-0.693441 0.23047,-1.111328 0,-0.338547 -0.0322,-0.624675 -0.0957,-0.857422 -0.0635,-0.238033 -0.18033,-0.459715 -0.34961,-0.666015 -0.16927,-0.2063 -0.40356,-0.385663 -0.70507,-0.539063 -0.29622,-0.158693 -0.67961,-0.312824 -1.15039,-0.460937 l -0.83399,-0.261719 c -0.54484,-0.17456 -0.90104,-0.338788 -1.07031,-0.492188 -0.16927,-0.1534 -0.25391,-0.40226 -0.25391,-0.746093 0,-0.407307 0.12948,-0.716141 0.38867,-0.927735 0.26449,-0.216873 0.70028,-0.326172 1.3086,-0.326172 0.68237,0 1.38916,0.186361 2.11914,0.556641 l 0.30859,-0.976562 c -0.79346,-0.391435 -1.64739,-0.585938 -2.56251,-0.585938 z m -97.00781,0.173828 3.324219,8.140625 -1.238281,3.158203 1.183593,0.253906 4.419922,-11.552734 -1.333984,0 -2.396485,6.705078 -2.617187,-6.705078 -1.341797,0 z m 65.61914,0 3.24414,8.394531 1.32617,0 3.18164,-8.394531 -1.34179,0 c -0.27507,0.772293 -0.69125,1.92749 -1.25196,3.466797 -0.55542,1.539307 -0.97102,2.69645 -1.24609,3.46875 -0.34383,-0.909833 -0.84155,-2.248865 -1.49219,-4.015625 -0.64534,-1.766767 -1.0035,-2.740075 -1.07226,-2.919922 l -1.34766,0 z m 9.45703,0 0,8.394531 1.30274,0 0,-8.394531 -1.30274,0 z m -62.134764,0.824219 c 1.523438,0 2.285156,1.127439 2.285156,3.380859 0,2.226967 -0.783854,3.339844 -2.349609,3.339844 -0.793457,0 -1.406087,-0.293706 -1.839844,-0.880859 -0.428466,-0.58716 -0.642578,-1.45117 -0.642578,-2.59375 0,-1.020914 0.206543,-1.817386 0.619141,-2.388672 0.417887,-0.571294 1.060222,-0.857422 1.927734,-0.857422 z m 48.312504,0.0078 c 1.33302,0 2.03223,0.905764 2.0957,2.714844 l -4.57031,0 c 0.074,-0.835773 0.33301,-1.497722 0.77734,-1.984375 0.44963,-0.486653 1.01489,-0.730469 1.69727,-0.730469 z m 28.18554,0 c 1.33302,0 2.03029,0.905764 2.09375,2.714844 l -4.57031,0 c 0.074,-0.835773 0.333,-1.497722 0.77734,-1.984375 0.44963,-0.486653 1.01685,-0.730469 1.69922,-0.730469 z m -93.335934,3.523438 1.007812,0 0,1.849609 c -0.629475,0.9257 -1.485921,1.388672 -2.570312,1.388672 -0.396729,0 -0.727702,-0.126953 -0.992188,-0.380859 -0.264485,-0.253907 -0.396484,-0.614585 -0.396484,-1.080078 0,-0.259194 0.02466,-0.475824 0.07227,-0.650391 0.04761,-0.179847 0.134766,-0.344074 0.261719,-0.492188 0.126953,-0.153399 0.30127,-0.272788 0.523438,-0.357421 0.222168,-0.08993 0.503825,-0.157477 0.847656,-0.205079 0.343832,-0.0476 0.75944,-0.07227 1.246094,-0.07227 z m 26.121093,0 1.007813,0 0,1.849609 c -0.629476,0.9257 -1.485921,1.388672 -2.570313,1.388672 -0.396728,0 -0.727702,-0.126953 -0.992187,-0.380859 -0.264486,-0.253907 -0.396484,-0.614585 -0.396484,-1.080078 0,-0.259194 0.02271,-0.475824 0.07031,-0.650391 0.04761,-0.179847 0.134766,-0.344074 0.261719,-0.492188 0.126953,-0.153399 0.303222,-0.272788 0.52539,-0.357421 0.222168,-0.08993 0.503825,-0.157477 0.847657,-0.205079 0.343831,-0.0476 0.75944,-0.07227 1.246093,-0.07227 z M 20,50.000001 l 0,1 216,0 0,-1 -216,0 z m 14.994141,33 -4.988282,4.990234 0,0.0098 0,1 0,4 0,1 0,0.0098 4.988282,4.990166 1.011718,0 0,-0.402344 0,-15.195312 0,-0.402344 -1.011718,0 z m 3.335937,4.28125 -0.539062,0.861328 a 4,4 0 0 1 1.214843,2.857422 4,4 0 0 1 -1.210937,2.861328 l 0.539062,0.863281 a 5,5 0 0 0 1.671875,-3.724609 5,5 0 0 0 -1.675781,-3.71875 z m -11.324219,0.71875 0,1 0,4 0,1 2,0 0,-1 0,-4 0,-1 -2,0 z m 0.326172,58.576169 c -1.084391,0 -2.042562,0.24943 -2.873047,0.75195 -0.825195,0.49724 -1.459962,1.19394 -1.904296,2.0879 -0.444337,0.89396 -0.666016,1.91715 -0.666016,3.07031 0,0.89925 0.134521,1.72542 0.404297,2.47656 0.275065,0.75114 0.655925,1.38339 1.142578,1.89649 0.486654,0.50781 1.06901,0.9038 1.746094,1.18945 0.682372,0.28035 1.423909,0.41992 2.222656,0.41992 1.142579,0 2.160726,-0.22673 3.054687,-0.68164 l -0.326172,-1.03906 c -0.867513,0.4073 -1.726482,0.60937 -2.578124,0.60937 -1.311849,0 -2.352132,-0.44084 -3.119141,-1.32422 -0.761719,-0.88338 -1.142578,-2.05062 -1.142578,-3.5 0,-1.44409 0.370768,-2.6119 1.111328,-3.50586 0.745849,-0.89925 1.761474,-1.34961 3.046875,-1.34961 0.999756,0 1.873292,0.23372 2.61914,0.69922 l 0.458985,-0.91211 c -0.825195,-0.59244 -1.890706,-0.88867 -3.197266,-0.88867 z m 55.431641,0.15821 0,11.58398 3.513672,0 c 1.856689,0 3.317626,-0.50529 4.380859,-1.51563 1.063233,-1.01033 1.59375,-2.44661 1.59375,-4.30859 0,-0.78288 -0.09725,-1.48967 -0.292969,-2.11914 -0.195719,-0.63477 -0.472331,-1.17537 -0.832031,-1.625 -0.359701,-0.44963 -0.797444,-0.82544 -1.310547,-1.12695 -0.513102,-0.3068 -1.083414,-0.53296 -1.71289,-0.67578 -0.629476,-0.14282 -1.314129,-0.21289 -2.054688,-0.21289 l -3.285156,0 z m 29.445308,0 c -0.2539,0 -0.46297,0.0796 -0.62695,0.23828 -0.15869,0.1534 -0.23828,0.35295 -0.23828,0.60156 0,0.24862 0.0796,0.45263 0.23828,0.61133 0.16398,0.15868 0.37305,0.23828 0.62695,0.23828 0.24862,0 0.45321,-0.0796 0.61719,-0.23828 0.16398,-0.1587 0.2461,-0.36271 0.2461,-0.61133 0,-0.24861 -0.0821,-0.44816 -0.2461,-0.60156 -0.15869,-0.1587 -0.36328,-0.23831 -0.61719,-0.23828 z m -60.628902,0.88867 -1.054687,0.0781 -0.214844,2.22266 -1.292969,0.0879 -0.03125,0.74414 1.292969,0 0,5.04687 c 0,0.51311 0.04484,0.92872 0.134765,1.2461 0.08993,0.31738 0.251627,0.57885 0.484376,0.78515 0.238036,0.2063 0.544352,0.35035 0.919921,0.42969 0.37557,0.0794 0.866293,0.11914 1.47461,0.11914 l 0.548828,0 0.0625,-0.90625 -0.666016,-0.0312 c -0.703532,-0.0264 -1.156413,-0.13631 -1.357422,-0.33203 -0.201009,-0.20101 -0.300781,-0.63875 -0.300781,-1.31055 l 0,-5.04687 2.222656,0 0,-0.83203 -2.222656,0 0,-2.30078 z m 32.580078,0.1582 1.824219,0 c 1.592204,0 2.801758,0.38338 3.626953,1.15039 0.830485,0.76171 1.244141,1.96175 1.244141,3.60156 0,1.5446 -0.390951,2.7194 -1.173828,3.52344 -0.777588,0.79875 -1.937826,1.19922 -3.482422,1.19922 l -2.039063,0 0,-9.47461 z M 35.314453,149.75 c -1.121419,0 -2.131999,0.20711 -3.03125,0.625 l 0.357422,0.96875 c 0.386149,-0.18514 0.824463,-0.32723 1.316406,-0.42773 0.491944,-0.1058 0.952392,-0.16016 1.38086,-0.16016 0.634765,0 1.097737,0.15161 1.388671,0.45312 0.296225,0.30152 0.44336,0.75944 0.44336,1.37305 l 0,0.82422 -1.339844,0 c -1.348877,0 -2.332275,0.21411 -2.951172,0.64258 -0.613606,0.42318 -0.921875,1.09017 -0.921875,2 0,0.76172 0.233724,1.35669 0.699219,1.78515 0.470785,0.42847 1.092936,0.64258 1.865234,0.64258 1.153158,0 2.089193,-0.44084 2.808594,-1.32422 l 0.142578,1.15821 1,0 0,-5.53907 c 0,-1.06852 -0.276042,-1.83781 -0.826172,-2.30859 -0.54484,-0.47607 -1.321696,-0.71289 -2.332031,-0.71289 z m 9.244141,0 c -1.211344,0 -2.127197,0.54566 -2.746094,1.64062 l -0.134766,-1.46679 -1.095703,0 0,12.07617 1.31836,0 0,-3.1582 -0.05664,-1.94336 c 0.624187,1.05265 1.52238,1.57812 2.691406,1.57812 1.10026,0 1.956706,-0.396 2.570313,-1.18945 0.613607,-0.79346 0.919922,-1.84131 0.919922,-3.14258 0,-1.35417 -0.296224,-2.42472 -0.888672,-3.21289 C 46.54956,150.14347 45.690592,149.75 44.558594,149.75 Z m 29.207031,0 c -1.11084,0 -2.026692,0.39852 -2.746094,1.19727 -0.7194,0.79874 -1.078125,1.8693 -1.078125,3.21289 0,1.32771 0.366293,2.38061 1.101563,3.1582 0.73527,0.77229 1.69344,1.1582 2.873047,1.1582 1.057942,0 2.001546,-0.24634 2.832031,-0.73828 l -0.277344,-0.92773 c -0.444336,0.22217 -0.845378,0.38892 -1.205078,0.5 -0.359701,0.11108 -0.760172,0.16601 -1.199219,0.16601 -0.809326,0 -1.464274,-0.25642 -1.966797,-0.76953 -0.50252,-0.51839 -0.776039,-1.31038 -0.818359,-2.37891 l 5.673828,0 0.04687,-0.66796 c 0,-1.22722 -0.276612,-2.18343 -0.832031,-2.8711 C 75.619791,150.09612 74.818278,149.75 73.765625,149.75 Z m 23.929687,0 c -1.110838,0 -2.024739,0.39852 -2.74414,1.19727 -0.719401,0.79874 -1.080078,1.8693 -1.080078,3.21289 0,1.32771 0.368245,2.38061 1.103515,3.1582 0.73527,0.77229 1.691487,1.1582 2.871094,1.1582 1.057943,0 2.003491,-0.24634 2.833987,-0.73828 l -0.27735,-0.92773 c -0.444321,0.22217 -0.847324,0.38892 -1.207028,0.5 -0.3597,0.11108 -0.758218,0.16601 -1.197265,0.16601 -0.809326,0 -1.466227,-0.25642 -1.96875,-0.76953 -0.502521,-0.51839 -0.774086,-1.31038 -0.816406,-2.37891 l 5.671879,0 0.0488,-0.66796 c 0,-1.22722 -0.27856,-2.18343 -0.83398,-2.8711 C 99.549473,150.09612 98.747966,149.75 97.695312,149.75 Z m 21.097658,0 c -1.16903,0 -2.11768,0.39347 -2.84766,1.18164 -0.72998,0.78287 -1.0957,1.85848 -1.0957,3.22852 0,1.31184 0.35563,2.35969 1.06445,3.14257 0.71412,0.78288 1.67033,1.17383 2.8711,1.17383 0.5131,0 0.97355,-0.06 1.38086,-0.18164 0.40731,-0.12166 0.70101,-0.25366 0.88086,-0.39648 l -0.2461,-0.89649 c -0.53426,0.30681 -1.12418,0.45899 -1.76953,0.45899 -0.9257,0 -1.62804,-0.30379 -2.10937,-0.91211 -0.48136,-0.60832 -0.72266,-1.40479 -0.72266,-2.38867 0,-1.03679 0.25141,-1.86101 0.7539,-2.47461 0.50254,-0.61361 1.16954,-0.91993 2,-0.91993 0.65593,0 1.23886,0.15218 1.75196,0.45899 l 0.37304,-0.9043 c -0.17985,-0.12166 -0.46908,-0.24609 -0.87109,-0.37304 -0.39673,-0.13224 -0.86922,-0.19727 -1.41406,-0.19727 z m 7.08594,0 c -1.11084,0 -2.02474,0.39852 -2.74414,1.19727 -0.7194,0.79874 -1.08008,1.8693 -1.08008,3.21289 0,1.32771 0.36824,2.38061 1.10351,3.1582 0.73527,0.77229 1.69149,1.1582 2.8711,1.1582 1.05794,0 2.0035,-0.24634 2.83398,-0.73828 l -0.27734,-0.92773 c -0.44434,0.22217 -0.84733,0.38892 -1.20703,0.5 -0.3597,0.11108 -0.75822,0.16601 -1.19727,0.16601 -0.80933,0 -1.46622,-0.25642 -1.96875,-0.76953 -0.50251,-0.51839 -0.77407,-1.31038 -0.81641,-2.37891 l 5.67188,0 0.0488,-0.66796 c 0,-1.22722 -0.27857,-2.18343 -0.83399,-2.8711 -0.55013,-0.69294 -1.35164,-1.03906 -2.40429,-1.03906 z m 7.60156,0 c -0.87809,0 -1.56022,0.21159 -2.04688,0.63477 -0.48665,0.41788 -0.73044,0.96801 -0.73047,1.65039 10e-6,0.55013 0.14152,0.99853 0.42188,1.34765 0.28035,0.34384 0.79826,0.63754 1.55469,0.88086 l 0.91992,0.29297 c 0.60832,0.19571 1.02897,0.40478 1.26172,0.62695 0.23274,0.22217 0.34961,0.49822 0.34961,0.82618 0,0.47607 -0.14152,0.83984 -0.42188,1.09375 -0.28036,0.24862 -0.67383,0.37304 -1.18164,0.37304 -0.80932,0 -1.71565,-0.23933 -2.7207,-0.7207 l 0,1.10156 c 0.86751,0.4126 1.74162,0.61914 2.625,0.61914 0.39673,0 0.76245,-0.0474 1.0957,-0.14258 0.33854,-0.0952 0.63981,-0.2373 0.9043,-0.42773 0.26978,-0.19043 0.48136,-0.44434 0.63476,-0.76172 0.1534,-0.32267 0.23047,-0.69344 0.23047,-1.11133 0,-0.33854 -0.0322,-0.62467 -0.0957,-0.85742 -0.0635,-0.23803 -0.18034,-0.45971 -0.34961,-0.66601 -0.16927,-0.2063 -0.40356,-0.38567 -0.70508,-0.53907 -0.29622,-0.15869 -0.67961,-0.31282 -1.15039,-0.46093 l -0.83398,-0.26172 c -0.54484,-0.17456 -0.90104,-0.33879 -1.07031,-0.49219 -0.16928,-0.1534 -0.25391,-0.40226 -0.25391,-0.74609 0,-0.40731 0.12947,-0.71615 0.38867,-0.92774 0.26448,-0.21687 0.70027,-0.32617 1.30859,-0.32617 0.68238,0 1.38916,0.18636 2.11915,0.55664 l 0.30859,-0.97656 c -0.79346,-0.39144 -1.64738,-0.58594 -2.5625,-0.58594 z m -65.111329,0.0859 c -0.507813,0 -0.990968,0.14405 -1.451172,0.42968 -0.454916,0.28036 -0.840821,0.7212 -1.158203,1.32422 l -0.142578,-1.66601 -1.056641,0 0,8.39453 1.318359,0 0,-4.75195 c 0,-0.74585 0.231771,-1.37809 0.697266,-1.89649 0.470785,-0.51839 1.065755,-0.77734 1.785156,-0.77734 0.148112,0 0.327474,0.0202 0.539063,0.0625 l 0.05664,-1.07813 c -0.153401,-0.0265 -0.349853,-0.041 -0.58789,-0.041 z m -12.822266,0.0879 0,5.125 c 0,1.13728 0.24886,1.99568 0.746094,2.57226 0.502522,0.57129 1.241537,0.85547 2.214843,0.85547 0.687664,0 1.228272,-0.1023 1.625,-0.30859 0.402019,-0.21159 0.738038,-0.52995 1.007813,-0.95313 l 0.134766,1.10352 1.142578,0 0,-8.39453 -1.316407,0 0,4.71289 c 0,0.33325 -0.02466,0.63704 -0.07227,0.91211 -0.04761,0.27506 -0.127767,0.53402 -0.244141,0.77734 -0.116374,0.24334 -0.267985,0.44735 -0.453125,0.61133 -0.17985,0.16398 -0.413574,0.29346 -0.699219,0.38867 -0.280354,0.0952 -0.601806,0.14258 -0.966796,0.14258 -0.645345,0 -1.108318,-0.19198 -1.388672,-0.57813 -0.275066,-0.38614 -0.41211,-0.95336 -0.41211,-1.69921 l 0,-5.26758 -1.318359,0 z m 46.544925,0 3.24414,8.39453 1.32617,0 3.18164,-8.39453 -1.3418,0 c -0.27506,0.77229 -0.69319,1.92749 -1.2539,3.46679 -0.55542,1.53932 -0.96908,2.69645 -1.24414,3.46876 -0.34384,-0.90984 -0.84156,-2.24887 -1.49219,-4.01563 -0.64535,-1.76677 -1.00155,-2.74008 -1.07031,-2.91992 l -1.34961,0 z m 9.45703,0 0,8.39453 1.30273,0 0,-8.39453 -1.30273,0 z m -67.140627,0.83203 c 1.512858,0 2.267578,1.12492 2.267578,3.37305 0,2.22696 -0.781901,3.33984 -2.347656,3.33984 -0.793457,0 -1.408041,-0.3038 -1.841797,-0.91211 -0.428467,-0.60832 -0.642578,-1.46224 -0.642578,-2.5625 0.0053,-1.01563 0.216878,-1.80957 0.634766,-2.38086 0.417887,-0.57129 1.062174,-0.85742 1.929687,-0.85742 z m 29.388672,0 c 1.333005,0 2.032223,0.90576 2.095703,2.71484 l -4.572266,0 c 0.07406,-0.83577 0.334961,-1.49772 0.779297,-1.98437 0.449626,-0.48666 1.014893,-0.73047 1.697266,-0.73047 z m 23.929687,0 c 1.333012,0 2.03223,0.90576 2.095704,2.71484 l -4.570313,0 c 0.07406,-0.83577 0.333008,-1.49772 0.777344,-1.98437 0.449625,-0.48666 1.014893,-0.73047 1.697265,-0.73047 z m 28.183598,0 c 1.33302,0 2.03223,0.90576 2.0957,2.71484 l -4.57031,0 c 0.074,-0.83577 0.33301,-1.49772 0.77734,-1.98437 0.44963,-0.48666 1.01489,-0.73047 1.69727,-0.73047 z m -89.746098,3.52344 1.00586,0 0,1.84961 c -0.629475,0.9257 -1.485921,1.38867 -2.570313,1.38867 -0.396728,0 -0.727701,-0.12695 -0.992187,-0.38086 -0.264485,-0.25391 -0.396484,-0.61459 -0.396484,-1.08008 0,-0.25919 0.02466,-0.47582 0.07227,-0.65039 0.04761,-0.17985 0.134766,-0.34407 0.261719,-0.49219 0.126953,-0.1534 0.301269,-0.27279 0.523437,-0.35742 0.222168,-0.0899 0.505778,-0.15748 0.84961,-0.20508 0.343832,-0.0476 0.75944,-0.0723 1.246093,-0.0723 z M 20,170 l 0,1 216,0 0,-1 -216,0 z m 14.994141,33 -4.988282,4.99023 0,0.01 0,1 0,4 0,1 0,0.01 4.988282,4.99023 1.011718,0 0,-0.40234 0,-15.19532 0,-0.40234 -1.011718,0 z m 2.876953,0.53711 -0.244141,0.97656 A 7,7 0 0 1 42.005859,211 7,7 0 0 1 37.625,217.47852 l 0.244141,0.9746 A 8,8 0 0 0 43.005859,211 8,8 0 0 0 37.871094,203.53711 Z m 0.458984,3.74414 -0.539062,0.86133 A 4,4 0 0 1 39.005859,211 a 4,4 0 0 1 -1.210937,2.86133 l 0.539062,0.86328 A 5,5 0 0 0 40.005859,211 5,5 0 0 0 38.330078,207.28125 Z M 27.005859,208 l 0,1 0,4 0,1 2,0 0,-1 0,-4 0,-1 -2,0 z"
     id="path5385" />
  <path
     style="fill:currentColor;fill-opacity:0.5;stroke:none"
     class="ColorScheme-Text"
     d="m 169.64844,65.28711 c -0.42074,0 -0.81128,0.04801 -1.17383,0.146485 -0.36255,0.09847 -0.69287,0.249752 -0.98828,0.451172 -0.29541,0.19694 -0.52718,0.463134 -0.69727,0.798828 -0.17008,0.335693 -0.25586,0.720137 -0.25586,1.154297 0,0.631106 0.1635,1.127687 0.49024,1.490234 0.32674,0.358073 0.82194,0.663409 1.48437,0.914063 l 1.59766,0.609374 c 0.62663,0.241701 1.04687,0.48153 1.26172,0.71875 0.21932,0.232747 0.33008,0.584715 0.33008,1.054688 0,0.407307 -0.0999,0.749837 -0.29688,1.027344 -0.19247,0.273033 -0.44311,0.468997 -0.75195,0.589844 -0.30884,0.116373 -0.66691,0.175781 -1.07422,0.175781 -0.5013,0 -1.02287,-0.0905 -1.56445,-0.269531 -0.53711,-0.179041 -1.01954,-0.421636 -1.44922,-0.730469 l 0,1.060547 c 0.2775,0.246173 0.69637,0.45296 1.25586,0.623046 0.55948,0.170081 1.1385,0.25586 1.73828,0.25586 0.33569,0 0.65324,-0.02969 0.95312,-0.08789 0.30436,-0.05819 0.59888,-0.152836 0.88086,-0.287109 0.28198,-0.138753 0.52319,-0.311685 0.72461,-0.517578 0.20141,-0.205894 0.36158,-0.470702 0.48242,-0.792969 0.12086,-0.32226 0.18164,-0.685057 0.18164,-1.087891 0,-0.32674 -0.0405,-0.617913 -0.12109,-0.873046 -0.0806,-0.255127 -0.17993,-0.469972 -0.30078,-0.644532 -0.12085,-0.17456 -0.29379,-0.336101 -0.51758,-0.488281 -0.21932,-0.156653 -0.43278,-0.284339 -0.63867,-0.382813 -0.20141,-0.09847 -0.46289,-0.21061 -0.78516,-0.335937 l -1.54297,-0.605469 c -0.46997,-0.183513 -0.79695,-0.384195 -0.98047,-0.603515 -0.17903,-0.223794 -0.26953,-0.541339 -0.26953,-0.953125 0,-0.335694 0.098,-0.61743 0.29493,-0.845704 0.19694,-0.228266 0.4462,-0.390381 0.74609,-0.484374 0.29989,-0.09847 0.64242,-0.146485 1.02734,-0.146485 0.41626,0 0.83179,0.05746 1.24805,0.173828 0.42073,0.116374 0.77743,0.275143 1.06836,0.476563 l 0.42969,-0.832032 c -0.38493,-0.237226 -0.82406,-0.420981 -1.31641,-0.550781 -0.48787,-0.13428 -0.97836,-0.201172 -1.4707,-0.201172 z m -121.789065,0.05273 -1.101563,0.08008 0,7.769531 c 0,0.425207 0.04997,0.77856 0.148438,1.060547 0.09847,0.277507 0.251139,0.489019 0.457031,0.636719 0.205892,0.147693 0.437663,0.250393 0.697266,0.308593 0.264079,0.05373 0.591064,0.08203 0.980469,0.08203 l 0.53125,0 0.05859,-0.765625 -0.300781,-0.01953 c -0.192464,-0.01347 -0.34375,-0.02622 -0.451172,-0.03516 -0.107422,-0.0134 -0.222331,-0.03033 -0.347656,-0.05273 -0.120853,-0.02687 -0.212731,-0.05795 -0.275391,-0.09375 -0.05819,-0.04027 -0.11898,-0.09024 -0.18164,-0.148438 -0.06267,-0.05819 -0.107913,-0.131183 -0.134766,-0.220703 -0.02238,-0.08952 -0.04265,-0.19222 -0.06055,-0.308594 -0.01343,-0.116373 -0.01953,-0.258221 -0.01953,-0.423828 l 0,-7.86914 z m 9.097656,0 -1.115234,0.08203 0,2.207031 0.05469,1.619141 c -0.107422,-0.19694 -0.2229,-0.365153 -0.34375,-0.503906 -0.116374,-0.143234 -0.259602,-0.275638 -0.429687,-0.396485 -0.170085,-0.125326 -0.372152,-0.218583 -0.609375,-0.28125 -0.237223,-0.06267 -0.506755,-0.09375 -0.806641,-0.09375 -0.939941,0 -1.685791,0.334473 -2.236328,1.00586 -0.546061,0.671386 -0.818359,1.551025 -0.818359,2.638672 0,1.145833 0.264811,2.056561 0.792968,2.732421 0.532634,0.671387 1.289307,1.007813 2.269532,1.007813 1.016032,0 1.753825,-0.464112 2.214844,-1.390625 l 0.09961,1.255859 0.927734,0 0,-9.882812 z m 46.673829,0 -1.11328,0.08203 0,2.207031 0.0527,1.619141 c -0.10742,-0.19694 -0.22094,-0.365153 -0.34179,-0.503906 -0.11638,-0.143234 -0.25961,-0.275638 -0.42969,-0.396485 -0.17008,-0.125326 -0.3741,-0.218583 -0.61133,-0.28125 -0.23722,-0.06267 -0.5048,-0.09375 -0.80469,-0.09375 -0.93994,0 -1.685788,0.334473 -2.236326,1.00586 -0.546061,0.671386 -0.818359,1.551025 -0.818359,2.638672 0,1.145833 0.262858,2.056561 0.791016,2.732421 0.532633,0.671387 1.289308,1.007813 2.269529,1.007813 1.01604,0 1.75383,-0.464112 2.21485,-1.390625 l 0.10156,1.255859 0.92578,0 0,-9.882812 z m 41.0957,0 -1.09961,0.08008 0,7.769531 c 0,0.425207 0.048,0.77856 0.14649,1.060547 0.0985,0.277507 0.25114,0.489019 0.45703,0.636719 0.20589,0.147693 0.43766,0.250393 0.69726,0.308593 0.26408,0.05373 0.59107,0.08203 0.98047,0.08203 l 0.53125,0 0.0606,-0.765625 -0.30273,-0.01953 c -0.19247,-0.01347 -0.3418,-0.02622 -0.44922,-0.03516 -0.10742,-0.0134 -0.22429,-0.03033 -0.34961,-0.05273 -0.12085,-0.02687 -0.21273,-0.05795 -0.27539,-0.09375 -0.0582,-0.04027 -0.11898,-0.09024 -0.18164,-0.148438 -0.0626,-0.05819 -0.1079,-0.131183 -0.13477,-0.220703 -0.0223,-0.08952 -0.0407,-0.19222 -0.0586,-0.308594 -0.0134,-0.116373 -0.0215,-0.258221 -0.0215,-0.423828 l 0,-7.86914 z m -117.720701,0.08203 0,9.800781 3.652344,0 c 1.132406,0 1.985677,-0.242595 2.558594,-0.730468 0.577393,-0.492354 0.865234,-1.171303 0.865234,-2.035157 0,-0.622146 -0.169596,-1.134276 -0.509765,-1.537109 -0.335694,-0.407307 -0.815348,-0.699866 -1.4375,-0.878906 0.56844,-0.21932 0.970377,-0.509115 1.203125,-0.867188 0.237223,-0.362547 0.355468,-0.812503 0.355468,-1.349609 0,-0.819094 -0.295898,-1.423094 -0.886718,-1.8125 -0.586345,-0.39388 -1.493734,-0.589844 -2.72461,-0.589844 l -3.076172,0 z m 17.046875,0 c -0.214843,0 -0.392496,0.06689 -0.53125,0.201172 -0.134277,0.1298 -0.201172,0.299399 -0.201172,0.509765 10e-7,0.210367 0.06689,0.383299 0.201172,0.517579 0.138754,0.134273 0.316407,0.201171 0.53125,0.201171 0.210368,0 0.384685,-0.0669 0.523438,-0.201171 0.138753,-0.13428 0.208984,-0.307212 0.208984,-0.517579 0,-0.210366 -0.07023,-0.379965 -0.208984,-0.509765 -0.134277,-0.13428 -0.308594,-0.201172 -0.523438,-0.201172 z m 23.525391,0 c -0.214844,0 -0.392497,0.06689 -0.53125,0.201172 -0.134277,0.1298 -0.201172,0.299399 -0.201172,0.509765 0,0.210367 0.0669,0.383299 0.201172,0.517579 0.138753,0.134273 0.316406,0.201171 0.53125,0.201171 0.210368,0 0.384684,-0.0669 0.523437,-0.201171 0.138753,-0.13428 0.208985,-0.307212 0.208985,-0.517579 0,-0.210366 -0.07023,-0.379965 -0.208985,-0.509765 -0.134277,-0.13428 -0.308593,-0.201172 -0.523437,-0.201172 z m 16.355469,0 -3.591797,9.800781 1.207031,0 1.148438,-3.154297 3.753906,0 1.154297,3.154297 1.167969,0 -3.583985,-9.800781 -1.255859,0 z m 22.236326,0 c -0.21484,0 -0.39249,0.06689 -0.53125,0.201172 -0.13428,0.1298 -0.20117,0.299399 -0.20117,0.509765 0,0.210367 0.0669,0.383299 0.20117,0.517579 0.13876,0.134273 0.31641,0.201171 0.53125,0.201171 0.21037,0 0.38469,-0.0669 0.52344,-0.201171 0.13875,-0.13428 0.20703,-0.307212 0.20703,-0.517579 0,-0.210366 -0.0683,-0.379965 -0.20703,-0.509765 -0.13427,-0.13428 -0.30859,-0.201172 -0.52344,-0.201172 z m 16.56836,0 -3.5918,9.800781 1.20899,0 1.14844,-3.154297 3.7539,0 1.1543,3.154297 1.16797,0 -3.58594,-9.800781 -1.25586,0 z m 53.14063,0.751953 -0.89258,0.06641 -0.18164,1.878907 -1.09375,0.07422 -0.0273,0.63086 1.09375,0 0,4.271484 c 0,0.434167 0.0391,0.784181 0.11524,1.052735 0.0761,0.268553 0.21321,0.491455 0.41015,0.666015 0.20142,0.17456 0.45956,0.294188 0.77735,0.361328 0.31779,0.06714 0.73527,0.101563 1.25,0.101563 l 0.46289,0 0.0527,-0.765625 -0.5625,-0.02734 c -0.59529,-0.02238 -0.97835,-0.115643 -1.14843,-0.28125 -0.17009,-0.170087 -0.25586,-0.538982 -0.25586,-1.107422 l 0,-4.271484 1.88086,0 0,-0.705078 -1.88086,0 0,-1.945313 z m -147.69141,0.132813 1.886719,0 c 0.881754,0 1.516846,0.118242 1.90625,0.355468 0.389404,0.23722 0.583984,0.671628 0.583984,1.302735 0,0.626626 -0.179036,1.065759 -0.537109,1.316406 -0.358073,0.24618 -0.881022,0.369141 -1.570313,0.369141 l -2.269531,0 0,-3.34375 z m 56.382812,0.269531 1.611329,4.671875 -3.208985,0 1.597656,-4.671875 z m 38.806638,0 1.61133,4.671875 -3.20898,0 1.59765,-4.671875 z m -49.742184,1.396484 c -1.069743,0 -1.873047,0.375 -2.410157,1.126953 l -0.121093,-0.980468 -0.966797,0 0,7.103515 1.113281,0 0,-3.960937 c 0,-1.62476 0.730306,-2.4375 2.189453,-2.4375 0.541585,0 0.919922,0.163494 1.134766,0.490234 0.214843,0.322267 0.322265,0.803299 0.322265,1.443359 l 0,4.464844 1.113282,0 0,-4.34375 c 0,-0.975753 -0.194581,-1.70272 -0.583985,-2.18164 -0.384928,-0.4834 -0.980875,-0.72461 -1.791015,-0.72461 z m 38.113284,0 c -1.0429,0 -1.86174,0.339192 -2.45703,1.019532 -0.59082,0.67586 -0.88672,1.57104 -0.88672,2.685546 0,1.08764 0.30061,1.975337 0.90039,2.660157 0.59977,0.680333 1.4139,1.019531 2.44336,1.019531 1.00708,0 1.81844,-0.342531 2.43164,-1.027344 0.61319,-0.689287 0.91992,-1.57365 0.91992,-2.652344 0,-1.114506 -0.2959,-2.009687 -0.88672,-2.685546 -0.59082,-0.68034 -1.41301,-1.019532 -2.46484,-1.019532 z m 20.56445,0 c -1.06974,0 -1.87304,0.375 -2.41016,1.126953 l -0.12109,-0.980468 -0.9668,0 0,7.103515 1.11524,0 0,-3.960937 c 0,-1.62476 0.7303,-2.4375 2.18945,-2.4375 0.54159,0 0.91993,0.163494 1.13477,0.490234 0.21484,0.322267 0.32226,0.803299 0.32226,1.443359 l 0,4.464844 1.11328,0 0,-4.34375 c 0,-0.975753 -0.19457,-1.70272 -0.58398,-2.18164 -0.38493,-0.4834 -0.98283,-0.72461 -1.79297,-0.72461 z m 6.70703,0 c -0.94889,0 -1.80355,0.175697 -2.56445,0.529297 l 0.30273,0.820313 c 0.32674,-0.15666 0.69898,-0.278242 1.11524,-0.363282 0.41626,-0.08952 0.80541,-0.134765 1.16797,-0.134765 0.5371,0 0.92765,0.127686 1.17382,0.382812 0.25066,0.255127 0.37696,0.642903 0.37696,1.16211 l 0,0.697265 -1.13477,0 c -1.14136,0 -1.97437,0.182369 -2.49805,0.544922 -0.5192,0.358073 -0.77929,0.921553 -0.77929,1.691406 0,0.644534 0.19791,1.149172 0.59179,1.511719 0.39836,0.362547 0.92464,0.542969 1.57813,0.542969 0.97575,0 1.76823,-0.373621 2.37695,-1.121094 l 0.11914,0.980469 0.84571,0 0,-4.6875 c 0,-0.904133 -0.23178,-1.554772 -0.69727,-1.953125 -0.46102,-0.402833 -1.11971,-0.603516 -1.97461,-0.603516 z m 11.75,0 c -1.04289,0 -1.86174,0.339192 -2.45703,1.019532 -0.59082,0.67586 -0.88672,1.57104 -0.88672,2.685546 0,1.08764 0.30063,1.975337 0.90039,2.660157 0.59978,0.680333 1.4139,1.019531 2.44336,1.019531 1.00708,0 1.81649,-0.342531 2.42969,-1.027344 0.6132,-0.689287 0.91992,-1.57365 0.91992,-2.652344 0,-1.114506 -0.29395,-2.009687 -0.88476,-2.685546 -0.59083,-0.68034 -1.41301,-1.019532 -2.46485,-1.019532 z m 7.6543,0 c -0.52816,0 -0.99699,0.09798 -1.4043,0.294922 -0.40731,0.192467 -0.73429,0.462001 -0.98047,0.806641 -0.24618,0.344646 -0.43132,0.735188 -0.55664,1.173828 -0.12532,0.434167 -0.1875,0.905762 -0.1875,1.416015 0,0.447587 0.0608,0.874511 0.18164,1.277344 0.12533,0.402834 0.30574,0.76839 0.54297,1.09961 0.23722,0.331213 0.55477,0.596028 0.95313,0.792968 0.40283,0.19694 0.8575,0.294922 1.36328,0.294922 0.52368,0 0.97225,-0.104086 1.34375,-0.314453 0.37598,-0.210367 0.6652,-0.500161 0.87109,-0.867187 l 0.0215,0.832031 0,0.195312 c 0,0.890707 -0.18376,1.533855 -0.55079,1.927735 -0.36254,0.39388 -0.92464,0.589844 -1.68554,0.589844 -0.55949,0 -1.24927,-0.0966 -2.06836,-0.289063 l -0.0859,0.941406 c 0.80566,0.183514 1.52319,0.275391 2.1543,0.275391 1.15926,0 1.99226,-0.319498 2.49804,-0.955078 0.51026,-0.631107 0.76563,-1.564861 0.76563,-2.804688 l 0,-6.541015 -1.01367,0 -0.0684,1.021484 c -0.42522,-0.778807 -1.12248,-1.167969 -2.09375,-1.167969 z m 23.68555,0 c -0.93995,0 -1.71355,0.337812 -2.32227,1.013672 -0.60873,0.675867 -0.91406,1.58187 -0.91406,2.71875 0,1.123453 0.31144,2.013915 0.93359,2.671875 0.62215,0.65348 1.43351,0.980469 2.43164,0.980469 0.89518,0 1.69377,-0.20874 2.39649,-0.625 l -0.23633,-0.785156 c -0.37598,0.187986 -0.71517,0.329828 -1.01953,0.423828 -0.30436,0.09399 -0.64218,0.140625 -1.01368,0.140625 -0.68481,0 -1.2408,-0.218177 -1.66601,-0.652344 -0.42522,-0.43864 -0.65561,-1.109539 -0.69141,-2.013672 l 4.80078,0 0.041,-0.564453 c 0,-1.038413 -0.23511,-1.847821 -0.70508,-2.429688 -0.4655,-0.586346 -1.14445,-0.878906 -2.03515,-0.878906 z m 12.08593,0 c -0.93994,0 -1.7155,0.337812 -2.32422,1.013672 -0.60872,0.675867 -0.91211,1.58187 -0.91211,2.71875 0,1.123453 0.31144,2.013915 0.9336,2.671875 0.62215,0.65348 1.43156,0.980469 2.42969,0.980469 0.89518,0 1.69376,-0.20874 2.39648,-0.625 l -0.23437,-0.785156 c -0.37598,0.187986 -0.71713,0.329828 -1.02149,0.423828 -0.30437,0.09399 -0.64217,0.140625 -1.01367,0.140625 -0.68481,0 -1.23885,-0.218177 -1.66406,-0.652344 -0.42522,-0.43864 -0.65561,-1.109539 -0.69141,-2.013672 l 4.80078,0 0.0391,-0.564453 c 0,-1.038413 -0.23511,-1.847821 -0.70507,-2.429688 -0.4655,-0.586346 -1.1425,-0.878906 -2.03321,-0.878906 z m 7.27735,0 c -1.04289,0 -1.86173,0.339192 -2.45704,1.019532 -0.59081,0.67586 -0.88671,1.57104 -0.88671,2.685546 0,1.08764 0.30061,1.975337 0.90039,2.660157 0.59977,0.680333 1.4139,1.019531 2.44336,1.019531 1.00708,0 1.81648,-0.342531 2.42968,-1.027344 0.6132,-0.689287 0.91993,-1.57365 0.91993,-2.652344 0,-1.114506 -0.29395,-2.009687 -0.88477,-2.685546 -0.59082,-0.68034 -1.413,-1.019532 -2.46484,-1.019532 z m -11.84375,0.07422 c -0.42969,0 -0.83912,0.119628 -1.22852,0.361328 -0.38493,0.237227 -0.71191,0.610841 -0.98047,1.121094 l -0.12109,-1.410156 -0.89258,0 0,7.103515 1.11523,0 0,-4.021484 c 0,-0.6311 0.19597,-1.164876 0.58985,-1.603516 0.39835,-0.43864 0.90299,-0.658203 1.51172,-0.658203 0.12532,0 0.27799,0.01693 0.45703,0.05273 l 0.0469,-0.91211 c -0.1298,-0.0224 -0.29662,-0.0332 -0.49804,-0.0332 z m -153.935551,0.07227 0,4.33789 c 0,0.962327 0.210124,1.687908 0.63086,2.175781 0.425212,0.483394 1.049479,0.72461 1.873047,0.72461 0.581868,0 1.041259,-0.08716 1.376953,-0.261719 0.340169,-0.179033 0.625244,-0.448567 0.853515,-0.806641 l 0.113282,0.933594 0.966796,0 0,-7.103515 -1.113281,0 0,3.988281 c 0,0.281987 -0.02026,0.540691 -0.06055,0.773437 -0.04028,0.232747 -0.110514,0.450357 -0.208984,0.65625 -0.09847,0.205887 -0.226156,0.378825 -0.382812,0.517579 -0.152182,0.138753 -0.348145,0.249511 -0.589844,0.330078 -0.237224,0.08057 -0.511475,0.11914 -0.820313,0.11914 -0.54606,0 -0.936605,-0.161541 -1.173828,-0.488281 -0.232747,-0.32674 -0.349609,-0.806393 -0.349609,-1.4375 l 0,-4.458984 -1.115235,0 z m 7.802735,0 0,7.103515 1.099609,0 0,-7.103515 -1.099609,0 z m 23.52539,0 0,7.103515 1.09961,0 0,-7.103515 -1.09961,0 z m 22.947266,0 0,4.33789 c 0,0.962327 0.210123,1.687908 0.630859,2.175781 0.425212,0.483394 1.04948,0.72461 1.873047,0.72461 0.581869,0 1.04126,-0.08716 1.376953,-0.261719 0.34017,-0.179033 0.623292,-0.448567 0.851563,-0.806641 l 0.115234,0.933594 0.966797,0 0,-7.103515 -1.115234,0 0,3.988281 c 0,0.281987 -0.02026,0.540691 -0.06055,0.773437 -0.04028,0.232747 -0.108561,0.450357 -0.207031,0.65625 -0.09847,0.205887 -0.226156,0.378825 -0.382813,0.517579 -0.152181,0.138753 -0.350098,0.249511 -0.591797,0.330078 -0.237223,0.08057 -0.509521,0.11914 -0.818359,0.11914 -0.546061,0 -0.938558,-0.161541 -1.175781,-0.488281 -0.232748,-0.32674 -0.347657,-0.806393 -0.347657,-1.4375 l 0,-4.458984 -1.115234,0 z m 15.64258,0 0,7.103515 1.10156,0 0,-7.103515 -1.10156,0 z m -51.742189,0.705078 c 0.662434,0 1.160399,0.245928 1.496093,0.738281 0.340169,0.492347 0.509766,1.221274 0.509766,2.183594 -0.0045,0.88176 -0.167968,1.562095 -0.490234,2.041015 -0.322266,0.47892 -0.846598,0.716797 -1.576172,0.716797 -0.693766,0 -1.207845,-0.253418 -1.539063,-0.763672 -0.326742,-0.510253 -0.490234,-1.210855 -0.490234,-2.101562 0,-0.89518 0.176269,-1.588299 0.525391,-2.076172 0.349121,-0.492353 0.870687,-0.738281 1.564453,-0.738281 z m 46.673829,0 c 0.66243,0 1.16235,0.245928 1.49805,0.738281 0.34017,0.492347 0.50976,1.221274 0.50976,2.183594 -0.004,0.88176 -0.16797,1.562095 -0.49023,2.041015 -0.32226,0.47892 -0.84855,0.716797 -1.57813,0.716797 -0.693767,0 -1.20589,-0.253418 -1.537108,-0.763672 -0.326741,-0.510253 -0.490234,-1.210855 -0.490234,-2.101562 0,-0.89518 0.174316,-1.588299 0.523438,-2.076172 0.34912,-0.492353 0.870687,-0.738281 1.564454,-0.738281 z m 11.20508,0 c 0.72957,0 1.28084,0.263429 1.65234,0.787109 0.3715,0.519207 0.55664,1.211752 0.55664,2.080078 0,0.555014 -0.0763,1.040772 -0.22851,1.457032 -0.15219,0.411786 -0.39812,0.743493 -0.73829,0.99414 -0.33569,0.24618 -0.74984,0.369141 -1.24218,0.369141 -0.71615,0 -1.2627,-0.26009 -1.63867,-0.779297 -0.37598,-0.519207 -0.5625,-1.200928 -0.5625,-2.046875 -1e-5,-0.863853 0.18652,-1.555012 0.5625,-2.074219 0.37598,-0.52368 0.92252,-0.787109 1.63867,-0.787109 z m 39.02148,0 c 0.72957,0 1.28085,0.263429 1.65235,0.787109 0.3715,0.519207 0.55664,1.211752 0.55664,2.080078 0,0.555014 -0.0763,1.040771 -0.22852,1.457032 -0.15218,0.411786 -0.39811,0.743493 -0.73828,0.99414 -0.33569,0.24618 -0.74984,0.369141 -1.24219,0.369141 -0.71615,0 -1.2627,-0.26009 -1.63867,-0.779297 -0.37598,-0.519207 -0.56445,-1.200928 -0.56445,-2.046875 0,-0.863853 0.18847,-1.555012 0.56445,-2.074219 0.37597,-0.52368 0.92252,-0.787109 1.63867,-0.787109 z m 7.70703,0 c 1.3562,0 2.03516,0.837725 2.03516,2.511719 l 0,0.597656 c 0,0.322266 -0.0358,0.618165 -0.10742,0.886718 -0.0716,0.268554 -0.18709,0.515868 -0.34375,0.744141 -0.15218,0.2238 -0.3637,0.398118 -0.63672,0.523438 -0.27304,0.125326 -0.5953,0.189453 -0.9668,0.189453 -0.37598,0 -0.70296,-0.07634 -0.98047,-0.228516 -0.27302,-0.15218 -0.48315,-0.359534 -0.63086,-0.61914 -0.1477,-0.264074 -0.25513,-0.545817 -0.32226,-0.845704 -0.0671,-0.299886 -0.10156,-0.623536 -0.10156,-0.972656 -10e-6,-0.367027 0.0344,-0.708171 0.10156,-1.021484 0.0716,-0.317794 0.18042,-0.611739 0.32812,-0.884766 0.15219,-0.273033 0.36565,-0.487878 0.63867,-0.644531 0.27751,-0.15666 0.60588,-0.236328 0.98633,-0.236328 z m 23.66016,0 c 1.12791,0 1.7197,0.766115 1.77344,2.296875 l -3.86914,0 c 0.0627,-0.707194 0.28223,-1.265955 0.6582,-1.677735 0.38045,-0.411786 0.86011,-0.61914 1.4375,-0.61914 z m 12.08594,0 c 1.1279,0 1.71775,0.766115 1.77148,2.296875 l -3.86719,0 c 0.0627,-0.707194 0.28223,-1.265955 0.65821,-1.677735 0.38045,-0.411786 0.8601,-0.61914 1.4375,-0.61914 z m 7.25,0 c 0.72957,0 1.28084,0.263429 1.65234,0.787109 0.3715,0.519207 0.55664,1.211752 0.55664,2.080078 0,0.555014 -0.0763,1.040771 -0.22852,1.457032 -0.15217,0.411786 -0.3981,0.743493 -0.73828,0.99414 -0.33569,0.24618 -0.74984,0.369141 -1.24218,0.369141 -0.71615,0 -1.2627,-0.26009 -1.63868,-0.779297 -0.37597,-0.519207 -0.5625,-1.200928 -0.5625,-2.046875 0,-0.863853 0.18653,-1.555012 0.5625,-2.074219 0.37598,-0.52368 0.92253,-0.787109 1.63868,-0.787109 z m -141.837894,1.605469 0,0.90625 4.492187,0 0,-0.90625 -4.492187,0 z m -31.447266,0.06055 1.919922,0 c 0.966797,0 1.673502,0.147946 2.121094,0.44336 0.447591,0.295406 0.671875,0.793374 0.671875,1.496094 0,0.662433 -0.19458,1.143472 -0.583985,1.443359 -0.384928,0.299887 -0.999756,0.451172 -1.845703,0.451172 l -2.283203,0 0,-3.833985 z m 111.55078,1.316407 0.85352,0 0,1.564453 c -0.53264,0.783286 -1.25822,1.173828 -2.17578,1.173828 -0.3357,0 -0.61605,-0.107419 -0.83985,-0.322266 -0.22379,-0.21484 -0.33594,-0.518222 -0.33594,-0.912109 0,-0.219313 0.0203,-0.403075 0.0606,-0.550781 0.0403,-0.15218 0.11524,-0.290689 0.22266,-0.416016 0.10742,-0.1298 0.25536,-0.231114 0.44336,-0.302734 0.18798,-0.07611 0.42586,-0.135515 0.71679,-0.175782 0.29094,-0.04027 0.6429,-0.05859 1.05469,-0.05859 z M 37.871094,83.53711 37.626953,84.513673 a 7,7 0 0 1 4.378906,6.486328 7,7 0 0 1 -4.380859,6.478516 l 0.244141,0.974609 a 8,8 0 0 0 5.136718,-7.453125 8,8 0 0 0 -5.134765,-7.462891 z m 166.576176,2.423829 c -0.50131,0 -0.99651,0.07495 -1.48438,0.222656 -0.48787,0.143229 -0.88175,0.323649 -1.18164,0.542968 l 0.32813,0.853516 c 0.30883,-0.201416 0.6608,-0.364909 1.05468,-0.490234 0.39836,-0.125326 0.78614,-0.189453 1.16211,-0.189453 0.17009,0 0.33358,0.01554 0.49024,0.04687 0.15665,0.02685 0.32015,0.08293 0.49023,0.167968 0.17009,0.08057 0.3147,0.186605 0.43555,0.316407 0.12085,0.125325 0.22217,0.298258 0.30273,0.517578 0.0806,0.219319 0.1211,0.471354 0.1211,0.757812 0,0.264079 -0.0283,0.50529 -0.082,0.72461 -0.0492,0.214843 -0.14249,0.437744 -0.28125,0.666015 -0.13875,0.228272 -0.26171,0.412028 -0.36914,0.550782 -0.10742,0.138753 -0.28507,0.35026 -0.53125,0.636718 l -3.16211,3.732422 0.17579,0.88086 5.24218,0 0.0606,-0.806641 -4.22266,0 2.63282,-3.082031 c 0.31779,-0.371501 0.56372,-0.674886 0.73828,-0.91211 0.17903,-0.237223 0.34253,-0.492594 0.49023,-0.765625 0.15218,-0.277506 0.25488,-0.549804 0.3086,-0.818359 0.0582,-0.268555 0.0879,-0.573893 0.0879,-0.914063 0,-0.389404 -0.0594,-0.738037 -0.17579,-1.046875 -0.11637,-0.313313 -0.26904,-0.567301 -0.45703,-0.759765 -0.18798,-0.19694 -0.4056,-0.357097 -0.65625,-0.482422 -0.25065,-0.129802 -0.5013,-0.220296 -0.75195,-0.269531 -0.24617,-0.05371 -0.50155,-0.08008 -0.76562,-0.08008 z m 8.13671,0 c -0.87727,0 -1.59204,0.219563 -2.14257,0.658203 -0.55054,0.438639 -0.82422,1.031819 -0.82422,1.779297 0,0.572916 0.16959,1.068115 0.50976,1.484374 0.34465,0.41626 0.78988,0.713542 1.33594,0.892579 -0.65796,0.228271 -1.16536,0.567464 -1.52344,1.019531 -0.35359,0.447591 -0.53125,1.000244 -0.53125,1.658203 0,0.546061 0.14462,1.019613 0.43555,1.417969 0.29541,0.398356 0.67847,0.690918 1.14844,0.878906 0.46997,0.187988 0.99959,0.28125 1.58593,0.28125 0.90862,0 1.66195,-0.225667 2.26172,-0.677734 0.59978,-0.452067 0.90039,-1.085775 0.90039,-1.900391 0,-0.622152 -0.18375,-1.176188 -0.55078,-1.664063 -0.36702,-0.487874 -0.86084,-0.830403 -1.47851,-1.027343 0.55949,-0.201416 1.00195,-0.502035 1.32422,-0.900391 0.32674,-0.402832 0.49023,-0.889974 0.49023,-1.46289 0,-0.751954 -0.27425,-1.345134 -0.82031,-1.779297 -0.54159,-0.43864 -1.24829,-0.658203 -2.1211,-0.658203 z m 15.54883,0.134765 -5.57226,9.802735 0.88672,0 5.50585,-9.802735 -0.82031,0 z m -5.67969,0.0059 c -0.72062,1e-6 -1.27937,0.233724 -1.67773,0.699219 -0.39836,0.461019 -0.59766,1.05892 -0.59766,1.792969 0,0.738525 0.19597,1.339193 0.58985,1.804688 0.39388,0.465494 0.95597,0.699218 1.68554,0.699218 0.7251,0 1.2872,-0.233724 1.68555,-0.699218 0.39836,-0.469971 0.59766,-1.070639 0.59766,-1.804688 0,-0.747477 -0.19792,-1.350098 -0.5918,-1.806641 -0.3894,-0.456543 -0.95288,-0.685547 -1.69141,-0.685547 z m 0.008,0.625 c 0.5013,0 0.87492,0.168213 1.12109,0.503907 0.25065,0.331217 0.375,0.782552 0.375,1.355469 0,0.559488 -0.12435,1.01416 -0.375,1.363281 -0.24617,0.344645 -0.61979,0.517578 -1.12109,0.517578 -0.5013,0 -0.87826,-0.17155 -1.12891,-0.511719 -0.25065,-0.340169 -0.375,-0.796224 -0.375,-1.36914 0,-0.559489 0.12435,-1.009441 0.375,-1.34961 0.25065,-0.340169 0.62761,-0.509766 1.12891,-0.509766 z m -9.88282,0.06055 c 0.56845,0 1.02116,0.144613 1.36133,0.435547 0.34017,0.286459 0.51172,0.669515 0.51172,1.148438 0,0.528157 -0.15739,0.967285 -0.4707,1.316406 -0.31332,0.349121 -0.78019,0.590332 -1.40235,0.724609 -0.61767,-0.138753 -1.08789,-0.379964 -1.41015,-0.724609 -0.31779,-0.349121 -0.47656,-0.788249 -0.47656,-1.316406 0,-0.474447 0.17098,-0.857504 0.51562,-1.148438 0.34912,-0.290934 0.80713,-0.435547 1.37109,-0.435547 z m 16.49415,4.115235 c -0.72063,0 -1.27938,0.233724 -1.67774,0.699218 -0.39835,0.465495 -0.59765,1.064779 -0.59765,1.798829 0,0.738525 0.19791,1.341145 0.59179,1.80664 0.39388,0.465495 0.95402,0.697266 1.6836,0.697266 0.72509,0 1.28719,-0.231771 1.68554,-0.697266 0.39836,-0.46997 0.59766,-1.072591 0.59766,-1.80664 0,-0.747478 -0.19596,-1.350098 -0.58985,-1.806641 -0.3894,-0.461019 -0.95483,-0.691406 -1.69335,-0.691406 z m -16.49415,0.294922 c 0.63111,0.134277 1.13851,0.389648 1.52344,0.765625 0.38941,0.375976 0.58399,0.836751 0.58399,1.382812 0,1.217448 -0.70199,1.826172 -2.10743,1.826172 -0.68929,0 -1.21891,-0.158773 -1.58593,-0.476563 -0.36255,-0.317789 -0.54297,-0.764404 -0.54297,-1.341796 0,-0.563965 0.19458,-1.02946 0.58398,-1.396485 0.38941,-0.367024 0.90487,-0.621012 1.54492,-0.759765 z m 16.50196,0.335937 c 0.5013,0 0.87492,0.168213 1.12109,0.503906 0.25065,0.331218 0.375,0.782552 0.375,1.355469 0,0.559489 -0.12435,1.01416 -0.375,1.363281 -0.24617,0.349121 -0.61979,0.523438 -1.12109,0.523438 -0.5013,0 -0.87826,-0.169596 -1.12891,-0.509766 -0.25065,-0.344645 -0.375,-0.804036 -0.375,-1.376953 0,-0.559489 0.12435,-1.007487 0.375,-1.347656 0.25065,-0.340169 0.62761,-0.511719 1.12891,-0.511719 z m -59.43164,93.753902 c -0.42074,0 -0.81128,0.048 -1.17383,0.14648 -0.36255,0.0985 -0.69287,0.24976 -0.98828,0.45118 -0.29541,0.19694 -0.52718,0.46313 -0.69727,0.79882 -0.17008,0.3357 -0.25586,0.72014 -0.25586,1.1543 0,0.63111 0.1635,1.12769 0.49024,1.49023 0.32674,0.35808 0.82194,0.66341 1.48437,0.91407 l 1.59766,0.60937 c 0.62663,0.2417 1.04687,0.48153 1.26172,0.71875 0.21932,0.23275 0.33008,0.58472 0.33008,1.05469 0,0.40731 -0.0999,0.74984 -0.29688,1.02734 -0.19247,0.27304 -0.44311,0.469 -0.75195,0.58985 -0.30884,0.11637 -0.66691,0.17578 -1.07422,0.17578 -0.5013,0 -1.02287,-0.0905 -1.56445,-0.26953 -0.53711,-0.17904 -1.01954,-0.42164 -1.44922,-0.73047 l 0,1.06055 c 0.2775,0.24617 0.69637,0.45296 1.25586,0.62304 0.55948,0.17008 1.1385,0.25586 1.73828,0.25586 0.33569,0 0.65324,-0.0297 0.95312,-0.0879 0.30436,-0.0582 0.59888,-0.15283 0.88086,-0.28711 0.28198,-0.13875 0.52319,-0.31168 0.72461,-0.51758 0.20141,-0.20589 0.36158,-0.4707 0.48242,-0.79296 0.12086,-0.32227 0.18164,-0.68506 0.18164,-1.0879 0,-0.32674 -0.0405,-0.61791 -0.12109,-0.87304 -0.0806,-0.25513 -0.17993,-0.46997 -0.30078,-0.64453 -0.12085,-0.17456 -0.29379,-0.3361 -0.51758,-0.48829 -0.21932,-0.15665 -0.43278,-0.28433 -0.63867,-0.38281 -0.20141,-0.0985 -0.46289,-0.21061 -0.78516,-0.33593 l -1.54297,-0.60547 c -0.46997,-0.18352 -0.79695,-0.3842 -0.98047,-0.60352 -0.17903,-0.22379 -0.26953,-0.54134 -0.26953,-0.95312 0,-0.3357 0.098,-0.61743 0.29493,-0.84571 0.19694,-0.22826 0.4462,-0.39038 0.74609,-0.48437 0.29989,-0.0985 0.64242,-0.14649 1.02734,-0.14649 0.41626,0 0.83179,0.0575 1.24805,0.17383 0.42073,0.11637 0.77743,0.27514 1.06836,0.47656 l 0.42969,-0.83203 c -0.38493,-0.23722 -0.82406,-0.42098 -1.31641,-0.55078 -0.48787,-0.13428 -0.97836,-0.20117 -1.4707,-0.20117 z m -121.789065,0.0527 -1.101563,0.0801 0,7.76953 c 0,0.42521 0.04997,0.77856 0.148438,1.06055 0.09847,0.27751 0.251139,0.48902 0.457031,0.63672 0.205892,0.14769 0.437663,0.25039 0.697266,0.30859 0.264079,0.0537 0.591064,0.082 0.980469,0.082 l 0.53125,0 0.05859,-0.76562 -0.300781,-0.0195 c -0.192464,-0.0135 -0.34375,-0.0262 -0.451172,-0.0352 -0.107422,-0.0134 -0.222331,-0.0303 -0.347656,-0.0527 -0.120853,-0.0269 -0.212731,-0.058 -0.275391,-0.0937 -0.05819,-0.0403 -0.11898,-0.0902 -0.18164,-0.14844 -0.06267,-0.0582 -0.107913,-0.13118 -0.134766,-0.2207 -0.02238,-0.0895 -0.04265,-0.19222 -0.06055,-0.3086 -0.01343,-0.11637 -0.01953,-0.25822 -0.01953,-0.42383 l 0,-7.86914 z m 9.097656,0 -1.115234,0.082 0,2.20703 0.05469,1.61914 c -0.107422,-0.19694 -0.2229,-0.36516 -0.34375,-0.50391 -0.116374,-0.14323 -0.259602,-0.27564 -0.429687,-0.39648 -0.170085,-0.12533 -0.372152,-0.21859 -0.609375,-0.28125 -0.237223,-0.0627 -0.506755,-0.0937 -0.806641,-0.0937 -0.939941,0 -1.685791,0.33447 -2.236328,1.00586 -0.546061,0.67138 -0.818359,1.55102 -0.818359,2.63867 0,1.14583 0.264811,2.05656 0.792968,2.73242 0.532634,0.67139 1.289307,1.00781 2.269532,1.00781 1.016032,0 1.753825,-0.46411 2.214844,-1.39062 l 0.09961,1.25586 0.927734,0 0,-9.88282 z m 46.673829,0 -1.11328,0.082 0,2.20703 0.0527,1.61914 c -0.10742,-0.19694 -0.22094,-0.36516 -0.34179,-0.50391 -0.11638,-0.14323 -0.25961,-0.27564 -0.42969,-0.39648 -0.17008,-0.12533 -0.3741,-0.21859 -0.61133,-0.28125 -0.23722,-0.0627 -0.5048,-0.0937 -0.80469,-0.0937 -0.93994,0 -1.685788,0.33447 -2.236326,1.00586 -0.546061,0.67138 -0.818359,1.55102 -0.818359,2.63867 0,1.14583 0.262858,2.05656 0.791016,2.73242 0.532633,0.67139 1.289308,1.00781 2.269529,1.00781 1.01604,0 1.75383,-0.46411 2.21485,-1.39062 l 0.10156,1.25586 0.92578,0 0,-9.88282 z m 41.0957,0 -1.09961,0.0801 0,7.76953 c 0,0.42521 0.048,0.77856 0.14649,1.06055 0.0985,0.27751 0.25114,0.48902 0.45703,0.63672 0.20589,0.14769 0.43766,0.25039 0.69726,0.30859 0.26408,0.0537 0.59107,0.082 0.98047,0.082 l 0.53125,0 0.0606,-0.76562 -0.30273,-0.0195 c -0.19247,-0.0135 -0.3418,-0.0262 -0.44922,-0.0352 -0.10742,-0.0134 -0.22429,-0.0303 -0.34961,-0.0527 -0.12085,-0.0269 -0.21273,-0.058 -0.27539,-0.0937 -0.0582,-0.0403 -0.11898,-0.0902 -0.18164,-0.14844 -0.0626,-0.0582 -0.1079,-0.13118 -0.13477,-0.2207 -0.0223,-0.0895 -0.0407,-0.19222 -0.0586,-0.3086 -0.0134,-0.11637 -0.0215,-0.25822 -0.0215,-0.42383 l 0,-7.86914 z m -117.720701,0.082 0,9.80078 3.652344,0 c 1.132406,0 1.985677,-0.2426 2.558594,-0.73047 0.577393,-0.49236 0.865234,-1.17131 0.865234,-2.03516 0,-0.62215 -0.169596,-1.13427 -0.509765,-1.53711 -0.335694,-0.4073 -0.815348,-0.69986 -1.4375,-0.8789 0.56844,-0.21932 0.970377,-0.50912 1.203125,-0.86719 0.237223,-0.36255 0.355468,-0.8125 0.355468,-1.34961 0,-0.81909 -0.295898,-1.42309 -0.886718,-1.8125 -0.586345,-0.39388 -1.493734,-0.58984 -2.72461,-0.58984 l -3.076172,0 z m 17.046875,0 c -0.214843,0 -0.392496,0.0669 -0.53125,0.20117 -0.134277,0.1298 -0.201172,0.2994 -0.201172,0.50976 10e-7,0.21037 0.06689,0.3833 0.201172,0.51758 0.138754,0.13427 0.316407,0.20117 0.53125,0.20117 0.210368,0 0.384685,-0.0669 0.523438,-0.20117 0.138753,-0.13428 0.208984,-0.30721 0.208984,-0.51758 0,-0.21036 -0.07023,-0.37996 -0.208984,-0.50976 -0.134277,-0.13428 -0.308594,-0.20117 -0.523438,-0.20117 z m 23.525391,0 c -0.214844,0 -0.392497,0.0669 -0.53125,0.20117 -0.134277,0.1298 -0.201172,0.2994 -0.201172,0.50976 0,0.21037 0.0669,0.3833 0.201172,0.51758 0.138753,0.13427 0.316406,0.20117 0.53125,0.20117 0.210368,0 0.384684,-0.0669 0.523437,-0.20117 0.138753,-0.13428 0.208985,-0.30721 0.208985,-0.51758 0,-0.21036 -0.07023,-0.37996 -0.208985,-0.50976 -0.134277,-0.13428 -0.308593,-0.20117 -0.523437,-0.20117 z m 16.355469,0 -3.591797,9.80078 1.207031,0 1.148438,-3.1543 3.753906,0 1.154297,3.1543 1.167969,0 -3.583985,-9.80078 -1.255859,0 z m 22.236326,0 c -0.21484,0 -0.39249,0.0669 -0.53125,0.20117 -0.13428,0.1298 -0.20117,0.2994 -0.20117,0.50976 0,0.21037 0.0669,0.3833 0.20117,0.51758 0.13876,0.13427 0.31641,0.20117 0.53125,0.20117 0.21037,0 0.38469,-0.0669 0.52344,-0.20117 0.13875,-0.13428 0.20703,-0.30721 0.20703,-0.51758 0,-0.21036 -0.0683,-0.37996 -0.20703,-0.50976 -0.13427,-0.13428 -0.30859,-0.20117 -0.52344,-0.20117 z m 16.56836,0 -3.5918,9.80078 1.20899,0 1.14844,-3.1543 3.7539,0 1.1543,3.1543 1.16797,0 -3.58594,-9.80078 -1.25586,0 z m 53.14063,0.75195 -0.89258,0.0664 -0.18164,1.87891 -1.09375,0.0742 -0.0273,0.63086 1.09375,0 0,4.27148 c 0,0.43417 0.0391,0.78418 0.11524,1.05274 0.0761,0.26855 0.21321,0.49145 0.41015,0.66601 0.20142,0.17456 0.45956,0.29419 0.77735,0.36133 0.31779,0.0671 0.73527,0.10156 1.25,0.10156 l 0.46289,0 0.0527,-0.76562 -0.5625,-0.0273 c -0.59529,-0.0224 -0.97835,-0.11565 -1.14843,-0.28126 -0.17009,-0.17008 -0.25586,-0.53898 -0.25586,-1.10742 l 0,-4.27148 1.88086,0 0,-0.70508 -1.88086,0 0,-1.94531 z m -147.69141,0.13281 1.886719,0 c 0.881754,0 1.516846,0.11824 1.90625,0.35547 0.389404,0.23722 0.583984,0.67163 0.583984,1.30273 0,0.62663 -0.179036,1.06576 -0.537109,1.31641 -0.358073,0.24618 -0.881022,0.36914 -1.570313,0.36914 l -2.269531,0 0,-3.34375 z m 56.382812,0.26953 1.611329,4.67188 -3.208985,0 1.597656,-4.67188 z m 38.806638,0 1.61133,4.67188 -3.20898,0 1.59765,-4.67188 z m -49.742184,1.39649 c -1.069743,0 -1.873047,0.375 -2.410157,1.12695 l -0.121093,-0.98047 -0.966797,0 0,7.10352 1.113281,0 0,-3.96094 c 0,-1.62476 0.730306,-2.4375 2.189453,-2.4375 0.541585,0 0.919922,0.16349 1.134766,0.49023 0.214843,0.32227 0.322265,0.8033 0.322265,1.44336 l 0,4.46485 1.113282,0 0,-4.34375 c 0,-0.97576 -0.194581,-1.70272 -0.583985,-2.18164 -0.384928,-0.4834 -0.980875,-0.72461 -1.791015,-0.72461 z m 38.113284,0 c -1.0429,0 -1.86174,0.33919 -2.45703,1.01953 -0.59082,0.67586 -0.88672,1.57104 -0.88672,2.68554 0,1.08764 0.30061,1.97534 0.90039,2.66016 0.59977,0.68033 1.4139,1.01953 2.44336,1.01953 1.00708,0 1.81844,-0.34253 2.43164,-1.02734 0.61319,-0.68929 0.91992,-1.57365 0.91992,-2.65235 0,-1.1145 -0.2959,-2.00968 -0.88672,-2.68554 -0.59082,-0.68034 -1.41301,-1.01953 -2.46484,-1.01953 z m 20.56445,0 c -1.06974,0 -1.87304,0.375 -2.41016,1.12695 l -0.12109,-0.98047 -0.9668,0 0,7.10352 1.11524,0 0,-3.96094 c 0,-1.62476 0.7303,-2.4375 2.18945,-2.4375 0.54159,0 0.91993,0.16349 1.13477,0.49023 0.21484,0.32227 0.32226,0.8033 0.32226,1.44336 l 0,4.46485 1.11328,0 0,-4.34375 c 0,-0.97576 -0.19457,-1.70272 -0.58398,-2.18164 -0.38493,-0.4834 -0.98283,-0.72461 -1.79297,-0.72461 z m 6.70703,0 c -0.94889,0 -1.80355,0.17569 -2.56445,0.52929 l 0.30273,0.82032 c 0.32674,-0.15666 0.69898,-0.27825 1.11524,-0.36329 0.41626,-0.0895 0.80541,-0.13476 1.16797,-0.13476 0.5371,0 0.92765,0.12768 1.17382,0.38281 0.25066,0.25513 0.37696,0.6429 0.37696,1.16211 l 0,0.69727 -1.13477,0 c -1.14136,0 -1.97437,0.18236 -2.49805,0.54492 -0.5192,0.35807 -0.77929,0.92155 -0.77929,1.6914 0,0.64454 0.19791,1.14918 0.59179,1.51172 0.39836,0.36255 0.92464,0.54297 1.57813,0.54297 0.97575,0 1.76823,-0.37362 2.37695,-1.12109 l 0.11914,0.98047 0.84571,0 0,-4.6875 c 0,-0.90414 -0.23178,-1.55477 -0.69727,-1.95313 -0.46102,-0.40283 -1.11971,-0.60351 -1.97461,-0.60351 z m 11.75,0 c -1.04289,0 -1.86174,0.33919 -2.45703,1.01953 -0.59082,0.67586 -0.88672,1.57104 -0.88672,2.68554 0,1.08764 0.30063,1.97534 0.90039,2.66016 0.59978,0.68033 1.4139,1.01953 2.44336,1.01953 1.00708,0 1.81649,-0.34253 2.42969,-1.02734 0.6132,-0.68929 0.91992,-1.57365 0.91992,-2.65235 0,-1.1145 -0.29395,-2.00968 -0.88476,-2.68554 -0.59083,-0.68034 -1.41301,-1.01953 -2.46485,-1.01953 z m 7.6543,0 c -0.52816,0 -0.99699,0.098 -1.4043,0.29492 -0.40731,0.19246 -0.73429,0.462 -0.98047,0.80664 -0.24618,0.34465 -0.43132,0.73519 -0.55664,1.17383 -0.12532,0.43416 -0.1875,0.90576 -0.1875,1.41601 0,0.44759 0.0608,0.87451 0.18164,1.27735 0.12533,0.40283 0.30574,0.76839 0.54297,1.09961 0.23722,0.33121 0.55477,0.59602 0.95313,0.79296 0.40283,0.19694 0.8575,0.29493 1.36328,0.29493 0.52368,0 0.97225,-0.10409 1.34375,-0.31446 0.37598,-0.21036 0.6652,-0.50016 0.87109,-0.86718 l 0.0215,0.83203 0,0.19531 c 0,0.89071 -0.18376,1.53385 -0.55079,1.92773 -0.36254,0.39388 -0.92464,0.58985 -1.68554,0.58985 -0.55949,0 -1.24927,-0.0966 -2.06836,-0.28907 l -0.0859,0.94141 c 0.80566,0.18351 1.52319,0.27539 2.1543,0.27539 1.15926,0 1.99226,-0.3195 2.49804,-0.95508 0.51026,-0.6311 0.76563,-1.56486 0.76563,-2.80468 l 0,-6.54102 -1.01367,0 -0.0684,1.02148 c -0.42522,-0.7788 -1.12248,-1.16796 -2.09375,-1.16796 z m 23.68555,0 c -0.93995,0 -1.71355,0.33781 -2.32227,1.01367 -0.60873,0.67586 -0.91406,1.58187 -0.91406,2.71875 0,1.12345 0.31144,2.01391 0.93359,2.67187 0.62215,0.65348 1.43351,0.98047 2.43164,0.98047 0.89518,0 1.69377,-0.20874 2.39649,-0.625 l -0.23633,-0.78515 c -0.37598,0.18798 -0.71517,0.32982 -1.01953,0.42382 -0.30436,0.094 -0.64218,0.14063 -1.01368,0.14063 -0.68481,0 -1.2408,-0.21818 -1.66601,-0.65234 -0.42522,-0.43865 -0.65561,-1.10954 -0.69141,-2.01368 l 4.80078,0 0.041,-0.56445 c 0,-1.03841 -0.23511,-1.84782 -0.70508,-2.42969 -0.4655,-0.58634 -1.14445,-0.8789 -2.03515,-0.8789 z m 12.08593,0 c -0.93994,0 -1.7155,0.33781 -2.32422,1.01367 -0.60872,0.67586 -0.91211,1.58187 -0.91211,2.71875 0,1.12345 0.31144,2.01391 0.9336,2.67187 0.62215,0.65348 1.43156,0.98047 2.42969,0.98047 0.89518,0 1.69376,-0.20874 2.39648,-0.625 l -0.23437,-0.78515 c -0.37598,0.18798 -0.71713,0.32982 -1.02149,0.42382 -0.30437,0.094 -0.64217,0.14063 -1.01367,0.14063 -0.68481,0 -1.23885,-0.21818 -1.66406,-0.65234 -0.42522,-0.43865 -0.65561,-1.10954 -0.69141,-2.01368 l 4.80078,0 0.0391,-0.56445 c 0,-1.03841 -0.23511,-1.84782 -0.70507,-2.42969 -0.4655,-0.58634 -1.1425,-0.8789 -2.03321,-0.8789 z m 7.27735,0 c -1.04289,0 -1.86173,0.33919 -2.45704,1.01953 -0.59081,0.67586 -0.88671,1.57104 -0.88671,2.68554 0,1.08764 0.30061,1.97534 0.90039,2.66016 0.59977,0.68033 1.4139,1.01953 2.44336,1.01953 1.00708,0 1.81648,-0.34253 2.42968,-1.02734 0.6132,-0.68929 0.91993,-1.57365 0.91993,-2.65235 0,-1.1145 -0.29395,-2.00968 -0.88477,-2.68554 -0.59082,-0.68034 -1.413,-1.01953 -2.46484,-1.01953 z m -11.84375,0.0742 c -0.42969,0 -0.83912,0.11962 -1.22852,0.36132 -0.38493,0.23723 -0.71191,0.61084 -0.98047,1.1211 l -0.12109,-1.41016 -0.89258,0 0,7.10352 1.11523,0 0,-4.02149 c 0,-0.6311 0.19597,-1.16487 0.58985,-1.60351 0.39835,-0.43864 0.90299,-0.65821 1.51172,-0.65821 0.12532,0 0.27799,0.0169 0.45703,0.0527 l 0.0469,-0.91211 c -0.1298,-0.0224 -0.29662,-0.0332 -0.49804,-0.0332 z m -153.935551,0.0723 0,4.33789 c 0,0.96233 0.210124,1.68791 0.63086,2.17578 0.425212,0.4834 1.049479,0.72461 1.873047,0.72461 0.581868,0 1.041259,-0.0872 1.376953,-0.26172 0.340169,-0.17903 0.625244,-0.44856 0.853515,-0.80664 l 0.113282,0.9336 0.966796,0 0,-7.10352 -1.113281,0 0,3.98828 c 0,0.28199 -0.02026,0.54069 -0.06055,0.77344 -0.04028,0.23275 -0.110514,0.45036 -0.208984,0.65625 -0.09847,0.20589 -0.226156,0.37882 -0.382812,0.51758 -0.152182,0.13875 -0.348145,0.24951 -0.589844,0.33008 -0.237224,0.0806 -0.511475,0.11914 -0.820313,0.11914 -0.54606,0 -0.936605,-0.16155 -1.173828,-0.48829 -0.232747,-0.32674 -0.349609,-0.80639 -0.349609,-1.4375 l 0,-4.45898 -1.115235,0 z m 7.802735,0 0,7.10352 1.099609,0 0,-7.10352 -1.099609,0 z m 23.52539,0 0,7.10352 1.09961,0 0,-7.10352 -1.09961,0 z m 22.947266,0 0,4.33789 c 0,0.96233 0.210123,1.68791 0.630859,2.17578 0.425212,0.4834 1.04948,0.72461 1.873047,0.72461 0.581869,0 1.04126,-0.0872 1.376953,-0.26172 0.34017,-0.17903 0.623292,-0.44856 0.851563,-0.80664 l 0.115234,0.9336 0.966797,0 0,-7.10352 -1.115234,0 0,3.98828 c 0,0.28199 -0.02026,0.54069 -0.06055,0.77344 -0.04028,0.23275 -0.108561,0.45036 -0.207031,0.65625 -0.09847,0.20589 -0.226156,0.37882 -0.382813,0.51758 -0.152181,0.13875 -0.350098,0.24951 -0.591797,0.33008 -0.237223,0.0806 -0.509521,0.11914 -0.818359,0.11914 -0.546061,0 -0.938558,-0.16155 -1.175781,-0.48829 -0.232748,-0.32674 -0.347657,-0.80639 -0.347657,-1.4375 l 0,-4.45898 -1.115234,0 z m 15.64258,0 0,7.10352 1.10156,0 0,-7.10352 -1.10156,0 z m -51.742189,0.70508 c 0.662434,0 1.160399,0.24593 1.496093,0.73828 0.340169,0.49235 0.509766,1.22127 0.509766,2.18359 -0.0045,0.88176 -0.167968,1.5621 -0.490234,2.04102 -0.322266,0.47892 -0.846598,0.7168 -1.576172,0.7168 -0.693766,0 -1.207845,-0.25342 -1.539063,-0.76368 -0.326742,-0.51025 -0.490234,-1.21085 -0.490234,-2.10156 0,-0.89518 0.176269,-1.5883 0.525391,-2.07617 0.349121,-0.49235 0.870687,-0.73828 1.564453,-0.73828 z m 46.673829,0 c 0.66243,0 1.16235,0.24593 1.49805,0.73828 0.34017,0.49235 0.50976,1.22127 0.50976,2.18359 -0.004,0.88176 -0.16797,1.5621 -0.49023,2.04102 -0.32226,0.47892 -0.84855,0.7168 -1.57813,0.7168 -0.693767,0 -1.20589,-0.25342 -1.537108,-0.76368 -0.326741,-0.51025 -0.490234,-1.21085 -0.490234,-2.10156 0,-0.89518 0.174316,-1.5883 0.523438,-2.07617 0.34912,-0.49235 0.870687,-0.73828 1.564454,-0.73828 z m 11.20508,0 c 0.72957,0 1.28084,0.26343 1.65234,0.78711 0.3715,0.5192 0.55664,1.21175 0.55664,2.08008 0,0.55501 -0.0763,1.04077 -0.22851,1.45703 -0.15219,0.41178 -0.39812,0.74349 -0.73829,0.99414 -0.33569,0.24618 -0.74984,0.36914 -1.24218,0.36914 -0.71615,0 -1.2627,-0.26009 -1.63867,-0.7793 -0.37598,-0.5192 -0.5625,-1.20093 -0.5625,-2.04687 -1e-5,-0.86386 0.18652,-1.55502 0.5625,-2.07422 0.37598,-0.52368 0.92252,-0.78711 1.63867,-0.78711 z m 39.02148,0 c 0.72957,0 1.28085,0.26343 1.65235,0.78711 0.3715,0.5192 0.55664,1.21175 0.55664,2.08008 0,0.55501 -0.0763,1.04077 -0.22852,1.45703 -0.15218,0.41178 -0.39811,0.74349 -0.73828,0.99414 -0.33569,0.24618 -0.74984,0.36914 -1.24219,0.36914 -0.71615,0 -1.2627,-0.26009 -1.63867,-0.7793 -0.37598,-0.5192 -0.56445,-1.20093 -0.56445,-2.04687 0,-0.86386 0.18847,-1.55502 0.56445,-2.07422 0.37597,-0.52368 0.92252,-0.78711 1.63867,-0.78711 z m 7.70703,0 c 1.3562,0 2.03516,0.83772 2.03516,2.51172 l 0,0.59765 c 0,0.32227 -0.0358,0.61817 -0.10742,0.88672 -0.0716,0.26856 -0.18709,0.51587 -0.34375,0.74414 -0.15218,0.2238 -0.3637,0.39812 -0.63672,0.52344 -0.27304,0.12533 -0.5953,0.18945 -0.9668,0.18945 -0.37598,0 -0.70296,-0.0763 -0.98047,-0.22851 -0.27302,-0.15218 -0.48315,-0.35954 -0.63086,-0.61914 -0.1477,-0.26408 -0.25513,-0.54582 -0.32226,-0.84571 -0.0671,-0.29988 -0.10156,-0.62353 -0.10156,-0.97265 -10e-6,-0.36703 0.0344,-0.70817 0.10156,-1.02149 0.0716,-0.31779 0.18042,-0.61174 0.32812,-0.88476 0.15219,-0.27304 0.36565,-0.48788 0.63867,-0.64453 0.27751,-0.15666 0.60588,-0.23633 0.98633,-0.23633 z m 23.66016,0 c 1.12791,0 1.7197,0.76611 1.77344,2.29687 l -3.86914,0 c 0.0627,-0.70719 0.28223,-1.26595 0.6582,-1.67773 0.38045,-0.41179 0.86011,-0.61914 1.4375,-0.61914 z m 12.08594,0 c 1.1279,0 1.71775,0.76611 1.77148,2.29687 l -3.86719,0 c 0.0627,-0.70719 0.28223,-1.26595 0.65821,-1.67773 0.38045,-0.41179 0.8601,-0.61914 1.4375,-0.61914 z m 7.25,0 c 0.72957,0 1.28084,0.26343 1.65234,0.78711 0.3715,0.5192 0.55664,1.21175 0.55664,2.08008 0,0.55501 -0.0763,1.04077 -0.22852,1.45703 -0.15217,0.41178 -0.3981,0.74349 -0.73828,0.99414 -0.33569,0.24618 -0.74984,0.36914 -1.24218,0.36914 -0.71615,0 -1.2627,-0.26009 -1.63868,-0.7793 -0.37597,-0.5192 -0.5625,-1.20093 -0.5625,-2.04687 0,-0.86386 0.18653,-1.55502 0.5625,-2.07422 0.37598,-0.52368 0.92253,-0.78711 1.63868,-0.78711 z m -141.837894,1.60547 0,0.90625 4.492187,0 0,-0.90625 -4.492187,0 z m -31.447266,0.0605 1.919922,0 c 0.966797,0 1.673502,0.14795 2.121094,0.44336 0.447591,0.29541 0.671875,0.79338 0.671875,1.4961 0,0.66243 -0.19458,1.14347 -0.583985,1.44336 -0.384928,0.29988 -0.999756,0.45117 -1.845703,0.45117 l -2.283203,0 0,-3.83399 z m 111.55078,1.31641 0.85352,0 0,1.56445 c -0.53264,0.78329 -1.25822,1.17383 -2.17578,1.17383 -0.3357,0 -0.61605,-0.10742 -0.83985,-0.32226 -0.22379,-0.21484 -0.33594,-0.51823 -0.33594,-0.91211 0,-0.21932 0.0203,-0.40308 0.0606,-0.55078 0.0403,-0.15218 0.11524,-0.29069 0.22266,-0.41602 0.10742,-0.1298 0.25536,-0.23111 0.44336,-0.30273 0.18798,-0.0761 0.42586,-0.13552 0.71679,-0.17579 0.29094,-0.0403 0.6429,-0.0586 1.05469,-0.0586 z m 65.44727,14.28906 -2.20899,3.25 c -0.26408,0.38046 -0.4681,0.68718 -0.61133,0.91992 -0.14322,0.23275 -0.29117,0.50367 -0.44335,0.8125 -0.15219,0.30884 -0.25961,0.61361 -0.32227,0.91797 -0.0627,0.29989 -0.0937,0.62216 -0.0937,0.9668 0,0.40283 0.0702,0.78923 0.20898,1.15625 0.13876,0.36703 0.33806,0.69401 0.59766,0.98047 0.2596,0.28198 0.58936,0.50765 0.99219,0.67773 0.40283,0.17009 0.8514,0.25391 1.34375,0.25391 0.93994,0 1.698,-0.28923 2.27539,-0.87109 0.58187,-0.58635 0.87305,-1.31193 0.87305,-2.17578 -1e-5,-0.84595 -0.29118,-1.54517 -0.87305,-2.09571 -0.57739,-0.55054 -1.26717,-0.82617 -2.06836,-0.82617 -0.49683,0 -0.95899,0.1263 -1.38867,0.37695 0.27303,-0.36702 0.50813,-0.69539 0.70508,-0.98633 l 2.28124,-3.35742 -1.26757,0 z m 4.625,0 0.1289,0.90039 4.39649,0 -3.38282,8.90235 1.11329,0 3.4375,-9.00977 0,-0.79297 -5.69336,0 z m 18.32226,0 -5.57226,9.80274 0.88672,0 5.50585,-9.80274 -0.82031,0 z m -5.67969,0.006 c -0.72062,0 -1.27937,0.23373 -1.67773,0.69922 -0.39836,0.46102 -0.59766,1.05892 -0.59766,1.79297 0,0.73853 0.19597,1.33919 0.58985,1.80469 0.39388,0.46549 0.95597,0.69922 1.68554,0.69922 0.7251,0 1.2872,-0.23373 1.68555,-0.69922 0.39836,-0.46997 0.59766,-1.07064 0.59766,-1.80469 0,-0.74748 -0.19792,-1.3501 -0.5918,-1.80664 -0.3894,-0.45654 -0.95288,-0.68555 -1.69141,-0.68555 z m 0.008,0.625 c 0.5013,0 0.87492,0.16822 1.12109,0.50391 0.25065,0.33122 0.375,0.78255 0.375,1.35547 0,0.55949 -0.12435,1.01416 -0.375,1.36328 -0.24617,0.34464 -0.61979,0.51758 -1.12109,0.51758 -0.5013,0 -0.87826,-0.17155 -1.12891,-0.51172 -0.25065,-0.34017 -0.375,-0.79623 -0.375,-1.36914 0,-0.55949 0.12435,-1.00944 0.375,-1.34961 0.25065,-0.34017 0.62761,-0.50977 1.12891,-0.50977 z m 6.61133,4.17578 c -0.72063,0 -1.27938,0.23373 -1.67774,0.69922 -0.39835,0.4655 -0.59765,1.06478 -0.59765,1.79883 0,0.73853 0.19791,1.34115 0.59179,1.80664 0.39388,0.4655 0.95402,0.69727 1.6836,0.69727 0.72509,0 1.28719,-0.23177 1.68554,-0.69727 0.39836,-0.46997 0.59766,-1.07259 0.59766,-1.80664 0,-0.74748 -0.19596,-1.3501 -0.58985,-1.80664 -0.3894,-0.46102 -0.95483,-0.69141 -1.69335,-0.69141 z m -24.41016,0.0273 c 0.64005,0 1.14136,0.19319 1.50391,0.57812 0.36702,0.38045 0.55078,0.8737 0.55078,1.48242 0,0.60425 -0.1871,1.11638 -0.5586,1.53711 -0.3715,0.41626 -0.88362,0.625 -1.53711,0.625 -0.649,0 -1.15169,-0.20402 -1.50976,-0.61132 -0.35807,-0.40731 -0.53711,-0.91 -0.53711,-1.50977 0,-0.30436 0.0433,-0.58 0.13281,-0.82617 0.0895,-0.24618 0.20638,-0.44548 0.34961,-0.59766 0.14323,-0.15666 0.30672,-0.28572 0.49024,-0.38867 0.18798,-0.10742 0.37312,-0.18237 0.55664,-0.22266 0.18798,-0.0448 0.37508,-0.0664 0.55859,-0.0664 z m 24.41797,0.60351 c 0.5013,0 0.87492,0.16822 1.12109,0.50391 0.25065,0.33122 0.375,0.78255 0.375,1.35547 0,0.55949 -0.12435,1.01416 -0.375,1.36328 -0.24617,0.34912 -0.61979,0.52344 -1.12109,0.52344 -0.5013,0 -0.87826,-0.1696 -1.12891,-0.50977 -0.25065,-0.34464 -0.375,-0.80404 -0.375,-1.37695 0,-0.55949 0.12435,-1.00749 0.375,-1.34766 0.25065,-0.34017 0.62761,-0.51172 1.12891,-0.51172 z"
     id="text11719-4" />
  <rect
     style="color:#f2f2f2;opacity:0.3;fill:currentColor;fill-opacity:1;stroke:none"
     id="rect6597"
     width="6"
     height="145"
     x="-94.000023"
     y="50"
     ry="3"
     transform="matrix(0,-1,1,0,0,0)"
     rx="3"
     class="ColorScheme-Text" />
  <rect
     ry="3"
     y="50"
     x="-94.000023"
     height="35"
     width="6"
     id="rect6599"
     style="color:#3daee9;fill:currentColor;fill-opacity:1;stroke:none"
     transform="matrix(0,-1,1,0,0,0)"
     rx="3"
     class="ColorScheme-Highlight" />
  <rect
     style="color:#f2f2f2;opacity:0.3;fill:currentColor;fill-opacity:1;stroke:none"
     id="rect6597-4"
     width="6"
     height="145"
     x="-214.00002"
     y="50"
     ry="3"
     transform="matrix(0,-1,1,0,0,0)"
     rx="3"
     class="ColorScheme-Text" />
  <rect
     ry="3"
     y="50"
     x="-214.00002"
     height="115"
     width="6"
     id="rect6599-4"
     style="color:#3daee9;fill:currentColor;fill-opacity:1;stroke:none"
     transform="matrix(0,-1,1,0,0,0)"
     rx="3"
     class="ColorScheme-Highlight" />
</svg>
