<?xml version="1.0" encoding="UTF-8" standalone="no"?>
<svg
   xmlns:dc="http://purl.org/dc/elements/1.1/"
   xmlns:cc="http://creativecommons.org/ns#"
   xmlns:rdf="http://www.w3.org/1999/02/22-rdf-syntax-ns#"
   xmlns:svg="http://www.w3.org/2000/svg"
   xmlns="http://www.w3.org/2000/svg"
   xmlns:sodipodi="http://sodipodi.sourceforge.net/DTD/sodipodi-0.dtd"
   xmlns:inkscape="http://www.inkscape.org/namespaces/inkscape"
   viewBox="0 0 256 256"
   id="svg2"
   version="1.1"
   inkscape:version="0.91 r13725"
   sodipodi:docname="org.kde.plasma.battery.svg">
  <metadata
     id="metadata10">
    <rdf:RDF>
      <cc:Work
         rdf:about="">
        <dc:format>image/svg+xml</dc:format>
        <dc:type
           rdf:resource="http://purl.org/dc/dcmitype/StillImage" />
        <dc:title />
      </cc:Work>
    </rdf:RDF>
  </metadata>
  <sodipodi:namedview
     pagecolor="#ffffff"
     bordercolor="#666666"
     borderopacity="1"
     objecttolerance="10"
     gridtolerance="10"
     guidetolerance="10"
     inkscape:pageopacity="0"
     inkscape:pageshadow="2"
     inkscape:window-width="1920"
     inkscape:window-height="1046"
     id="namedview8"
     showgrid="false"
     inkscape:zoom="3.6875"
     inkscape:cx="123.67016"
     inkscape:cy="93.358639"
     inkscape:window-x="0"
     inkscape:window-y="34"
     inkscape:window-maximized="1"
     inkscape:current-layer="svg2" />
  <defs
     id="defs4">
    <style
       id="current-color-scheme"
       type="text/css">
      .ColorScheme-Text {
        color:#f2f2f2;
      }
      .ColorScheme-Background {
        color:#31363b;
      }
      .ColorScheme-Highlight {
        color:#3daee9;
      }
      .ColorScheme-ViewText {
        color:#31363b;
      }
      .ColorScheme-ViewBackground {
        color:#314045;
      }
      .ColorScheme-ViewHover {
        color:#93cee9;
      }
      .ColorScheme-ViewFocus{
        color:#3daee9;
      }
      .ColorScheme-ButtonText {
        color:#31363b;
      }
      .ColorScheme-ButtonBackground {
        color:#31363b;
      }
      .ColorScheme-ButtonHover {
        color:#93cee9;
      }
      .ColorScheme-ButtonFocus{
        color:#3daee9;
      }
      </style>
  </defs>
  <path
     style="fill:currentColor;fill-opacity:0.5;stroke:none"
     d="m 16,10 224,0 c 3.324,0 6,2.676 6,6 l 0,224 c 0,3.324 -2.676,6 -6,6 l -224,0 c -3.324,0 -6,-2.676 -6,-6 L 10,16 c 0,-3.324 2.676,-6 6,-6 z"
     class="ColorScheme-ButtonText"
     id="rect4240" />
  <path
     style="fill:currentColor;fill-opacity:1;stroke:none"
     d="m 16,12 224,0 c 2.216,0 4,1.784 4,4 l 0,224 c 0,2.216 -1.784,4 -4,4 l -224,0 c -2.216,0 -4,-1.784 -4,-4 L 12,16 c 0,-2.216 1.784,-4 4,-4 z"
     class="ColorScheme-Background"
     id="rect4238" />
  <path
     inkscape:connector-curvature="0"
     style="fill:currentColor;fill-opacity:1;stroke:none"
     class="ColorScheme-Text"
     d="m 103.52734,26.63867 -1.3164,0.0957 0,2.609375 0.0625,1.912109 c -0.12696,-0.232746 -0.26147,-0.42977 -0.4043,-0.59375 -0.13753,-0.169266 -0.3068,-0.325923 -0.50781,-0.46875 -0.20101,-0.148113 -0.4423,-0.259931 -0.72266,-0.333984 -0.28036,-0.07405 -0.59676,-0.109372 -0.95117,-0.109372 -1.11084,0 -1.991943,0.396 -2.642578,1.189453 -0.645345,0.79346 -0.96875,1.831788 -0.96875,3.117188 0,1.354166 0.313313,2.431722 0.9375,3.230468 0.629476,0.793454 1.523194,1.189453 2.68164,1.189453 1.200768,0 2.074298,-0.547611 2.619138,-1.642578 l 0.11914,1.484375 1.09375,0 0,-11.679687 z m 36.65039,0 -1.31835,0.0957 0,11.583984 1.31054,0 0,-4.59375 c 0,-0.312093 0.0202,-0.603266 0.0625,-0.873047 0.0476,-0.269773 0.12972,-0.536294 0.2461,-0.800781 0.11637,-0.264486 0.26798,-0.490641 0.45312,-0.675781 0.18514,-0.190427 0.42643,-0.340085 0.72266,-0.451172 0.30151,-0.116373 0.64762,-0.175781 1.03906,-0.175781 0.62947,0 1.07536,0.198976 1.33984,0.595703 0.26978,0.39144 0.4043,1.003498 0.4043,1.833984 l 0,5.140625 1.31836,0 0,-5.189453 c 0,-1.0791 -0.24382,-1.91284 -0.73047,-2.5 -0.48665,-0.58715 -1.18644,-0.878903 -2.10156,-0.878903 -0.59774,0 -1.13778,0.11491 -1.61914,0.347656 -0.47608,0.227454 -0.86702,0.558428 -1.17383,0.992188 l 0.0469,-1.642578 0,-2.808594 z m -117.939449,0.0957 0,11.583984 4.316407,0 c 1.338297,0 2.346354,-0.288654 3.023437,-0.865234 0.682373,-0.581867 1.023437,-1.383384 1.023437,-2.404297 0,-0.735273 -0.201497,-1.340333 -0.603515,-1.816406 -0.396729,-0.48136 -0.961996,-0.827469 -1.697266,-1.039063 0.671794,-0.259193 1.144857,-0.600257 1.419922,-1.023437 0.280355,-0.428467 0.419922,-0.960943 0.419922,-1.595703 0,-0.96802 -0.348633,-1.682372 -1.046875,-2.142578 -0.692953,-0.465494 -1.767985,-0.697266 -3.222656,-0.697266 l -3.632813,0 z m 87.343749,0 0,11.583984 4.31641,0 c 1.3383,0 2.34636,-0.288654 3.02344,-0.865234 0.68237,-0.581867 1.02343,-1.383384 1.02343,-2.404297 0,-0.735273 -0.2015,-1.340333 -0.60351,-1.816406 -0.39674,-0.48136 -0.962,-0.827469 -1.69727,-1.039063 0.67179,-0.259193 1.14486,-0.600257 1.41992,-1.023437 0.28036,-0.428467 0.41993,-0.960943 0.41993,-1.595703 0,-0.96802 -0.34864,-1.682372 -1.04688,-2.142578 -0.69295,-0.465494 -1.76798,-0.697266 -3.22266,-0.697266 l -3.63281,0 z m 17.03516,0 c -0.25391,0 -0.46298,0.07959 -0.62696,0.238281 -0.15869,0.1534 -0.23828,0.352949 -0.23828,0.601563 0,0.24862 0.0796,0.452635 0.23828,0.611328 0.16398,0.158687 0.37305,0.238281 0.62696,0.238281 0.24861,0 0.45515,-0.07959 0.61914,-0.238281 0.16398,-0.158693 0.24609,-0.362708 0.24609,-0.611328 0,-0.248614 -0.0821,-0.448163 -0.24609,-0.601563 -0.1587,-0.158693 -0.36524,-0.238281 -0.61914,-0.238281 z m -83.892581,0.888672 -1.054687,0.07813 -0.214844,2.222656 -1.292969,0.08789 -0.03125,0.74414 1.292969,0 0,5.046875 c 0,0.513107 0.04484,0.928714 0.134766,1.246094 0.08993,0.31738 0.251627,0.578856 0.484375,0.785156 0.238036,0.2063 0.544352,0.350341 0.919922,0.429688 0.375569,0.07935 0.868245,0.11914 1.476562,0.11914 l 0.546875,0 0.06445,-0.90625 -0.667969,-0.03125 C 43.679278,37.418861 43.22835,37.309 43.027341,37.11328 42.826332,36.912267 42.724606,36.474527 42.724606,35.802733 l 0,-5.046875 2.222657,0 0,-0.832031 -2.222657,0 0,-2.300781 z m 5.839844,0 -1.054687,0.07813 -0.214844,2.222656 -1.292969,0.08789 -0.03125,0.74414 1.292969,0 0,5.046875 c 0,0.513107 0.04484,0.928714 0.134766,1.246094 0.08992,0.31738 0.251627,0.578856 0.484374,0.785156 0.238038,0.2063 0.544352,0.350341 0.919922,0.429688 0.37557,0.07935 0.868246,0.11914 1.476563,0.11914 l 0.546875,0 0.06445,-0.90625 -0.667969,-0.03125 C 49.519121,37.418861 49.068194,37.309 48.867185,37.11328 48.666175,36.912267 48.56445,36.474527 48.56445,35.802733 l 0,-5.046875 2.222656,0 0,-0.832031 -2.222656,0 0,-2.300781 z m 101.085937,0 -1.05469,0.07813 -0.21484,2.222656 -1.29297,0.08789 -0.0312,0.74414 1.29297,0 0,5.046875 c 0,0.513107 0.0448,0.928714 0.13477,1.246094 0.0899,0.31738 0.25162,0.578856 0.48437,0.785156 0.23804,0.2063 0.54436,0.350341 0.91992,0.429688 0.37558,0.07935 0.86825,0.11914 1.47656,0.11914 l 0.54688,0 0.0644,-0.90625 -0.66601,-0.03125 c -0.70354,-0.02645 -1.15642,-0.136311 -1.35743,-0.332031 -0.201,-0.201013 -0.30273,-0.638753 -0.30273,-1.310547 l 0,-5.046875 2.22266,0 0,-0.832031 -2.22266,0 0,-2.300781 z m -126.015624,0.158203 2.228515,0 c 1.042074,0 1.793701,0.139569 2.253907,0.419922 0.460204,0.28036 0.691406,0.793216 0.691406,1.539062 0,0.74056 -0.211589,1.260414 -0.634766,1.556641 -0.423177,0.290933 -1.042806,0.435547 -1.857422,0.435547 l -2.68164,0 0,-3.951172 z m 87.343754,0 2.22851,0 c 1.04207,0 1.79371,0.139569 2.25391,0.419922 0.4602,0.28036 0.6914,0.793216 0.6914,1.539062 0,0.74056 -0.21159,1.260414 -0.63476,1.556641 -0.42318,0.290933 -1.04281,0.435547 -1.85742,0.435547 l -2.68164,0 0,-3.951172 z m -75.347661,1.968753 c -1.121419,0 -2.130045,0.207113 -3.029297,0.625 l 0.355469,0.96875 c 0.386149,-0.18514 0.826416,-0.327234 1.31836,-0.427734 0.491943,-0.105794 0.952392,-0.160157 1.380859,-0.160157 0.634765,0 1.095785,0.151612 1.386719,0.453125 0.296224,0.301514 0.445312,0.759441 0.445312,1.373047 l 0,0.824219 -1.341797,0 c -1.348877,0 -2.332275,0.214111 -2.951172,0.642578 -0.613606,0.42318 -0.919921,1.090173 -0.919921,2 0,0.76172 0.231771,1.35669 0.697265,1.785156 0.470784,0.428467 1.092936,0.642578 1.865235,0.642578 1.153157,0 2.089192,-0.440838 2.808593,-1.324218 l 0.142578,1.158203 1,0 0,-5.539063 c 0,-1.068526 -0.274088,-1.837813 -0.824218,-2.308593 -0.54484,-0.476074 -1.323649,-0.712891 -2.333985,-0.712891 z m 20.296875,0 c -1.11084,0 -2.024739,0.398519 -2.74414,1.197266 -0.719401,0.798746 -1.080078,1.869304 -1.080078,3.21289 0,1.327714 0.368245,2.38061 1.103515,3.158203 0.73527,0.772294 1.691488,1.158203 2.871094,1.158203 1.057943,0 2.0035,-0.246341 2.833984,-0.738281 l -0.277343,-0.927734 c -0.444336,0.222173 -0.847331,0.38892 -1.207032,0.5 -0.3597,0.111087 -0.758219,0.166015 -1.197265,0.166015 -0.809326,0 -1.466228,-0.256424 -1.96875,-0.769531 -0.502521,-0.518386 -0.774087,-1.310379 -0.816407,-2.378906 l 5.671876,0 0.04883,-0.667969 c 0,-1.227213 -0.278565,-2.183427 -0.833985,-2.871094 -0.550132,-0.692946 -1.351646,-1.039062 -2.404299,-1.039062 z m 26.167969,0 c -1.121419,0 -2.130045,0.207113 -3.029297,0.625 l 0.355469,0.96875 c 0.386149,-0.18514 0.826416,-0.327234 1.318359,-0.427734 0.491944,-0.105794 0.952393,-0.160157 1.38086,-0.160157 0.634766,0 1.095784,0.151612 1.386718,0.453125 0.296224,0.301514 0.445313,0.759441 0.445313,1.373047 l 0,0.824219 -1.341797,0 c -1.348877,0 -2.332275,0.214111 -2.951172,0.642578 -0.613606,0.42318 -0.919922,1.090173 -0.919922,2 0,0.76172 0.231771,1.35669 0.697266,1.785156 0.470785,0.428467 1.092936,0.642578 1.865234,0.642578 1.153158,0 2.089193,-0.440838 2.808594,-1.324218 l 0.142578,1.158203 1,0 0,-5.539063 c 0,-1.068526 -0.274088,-1.837813 -0.824218,-2.308593 -0.544841,-0.476074 -1.32365,-0.712891 -2.333985,-0.712891 z m 9.402344,0 c -1.264241,0 -2.212891,0.443365 -2.847656,1.332031 l -0.142579,-1.158203 -1.142578,0 0,8.394531 1.316407,0 0,-4.68164 c 0,-1.920167 0.863444,-2.88086 2.58789,-2.88086 0.640056,0 1.085938,0.193932 1.339844,0.580079 0.253907,0.38086 0.380859,0.948651 0.380859,1.705078 l 0,5.277343 1.31836,0 0,-5.132812 c 0,-1.153153 -0.231202,-2.014078 -0.691406,-2.580078 -0.454916,-0.571287 -1.161702,-0.855469 -2.119141,-0.855469 z m 41.523433,0 c -0.62418,0 -1.17879,0.11491 -1.66015,0.347656 -0.48136,0.227454 -0.86727,0.545812 -1.15821,0.953125 -0.29094,0.407307 -0.51009,0.870279 -0.6582,1.388672 -0.14811,0.5131 -0.22265,1.070802 -0.22265,1.673828 0,0.528974 0.072,1.031739 0.21484,1.507813 0.14811,0.476073 0.36222,0.909341 0.64258,1.300781 0.28035,0.39144 0.65616,0.7028 1.12695,0.935547 0.47607,0.232747 1.01359,0.349609 1.61133,0.349609 0.61889,0 1.14689,-0.124427 1.58594,-0.373047 0.44434,-0.248613 0.78792,-0.589677 1.03125,-1.023437 l 0.0234,0.984375 0,0.230469 c 0,1.052653 -0.21663,1.81185 -0.65039,2.277343 -0.42843,0.4655 -1.09095,0.697266 -1.9902,0.697266 -0.66121,0 -1.47729,-0.114337 -2.44531,-0.341797 l -0.10157,1.111328 c 0.95215,0.21688 1.80103,0.326172 2.54688,0.326172 1.37003,0 2.35343,-0.375813 2.95117,-1.126953 0.60303,-0.745853 0.9043,-1.85116 0.9043,-3.316406 l 0,-7.728516 -1.19727,0 -0.0801,1.205078 c -0.5025,-0.920406 -1.32672,-1.378906 -2.47459,-1.378906 z m 24.7793,0 c -1.26424,0 -2.21484,0.443365 -2.84961,1.332031 l -0.14258,-1.158203 -1.14257,0 0,8.394531 1.31836,0 0,-4.68164 c 0,-1.920167 0.86149,-2.88086 2.58593,-2.88086 0.64006,0 1.08594,0.193932 1.33985,0.580079 0.2539,0.38086 0.38086,0.948651 0.38086,1.705078 l 0,5.277343 1.31836,0 0,-5.132812 c 0,-1.153153 -0.2312,-2.014078 -0.69141,-2.580078 -0.45491,-0.571287 -1.15975,-0.855469 -2.11719,-0.855469 z m 8.29102,0 c -1.11084,0 -2.0267,0.398519 -2.7461,1.197266 -0.7194,0.798746 -1.07812,1.869304 -1.07812,3.21289 0,1.327714 0.36824,2.38061 1.10351,3.158203 0.73527,0.772294 1.69149,1.158203 2.8711,1.158203 1.05794,0 2.0035,-0.246341 2.83398,-0.738281 l -0.27929,-0.927734 c -0.44434,0.222173 -0.84538,0.38892 -1.20508,0.5 -0.3597,0.111087 -0.76018,0.166015 -1.19922,0.166015 -0.80933,0 -1.46428,-0.256424 -1.9668,-0.769531 -0.50251,-0.518386 -0.77602,-1.310379 -0.81836,-2.378906 l 5.67383,0 0.0469,-0.667969 c 1e-5,-1.227213 -0.27661,-2.183427 -0.83203,-2.871094 -0.55015,-0.692946 -1.35167,-1.039062 -2.40432,-1.039062 z m 7.60156,0 c -0.87809,0 -1.56022,0.211592 -2.04688,0.634766 -0.48665,0.417886 -0.73046,0.968017 -0.73046,1.65039 0,0.550134 0.13956,0.998536 0.41992,1.347656 0.28035,0.343834 0.80021,0.637533 1.55664,0.88086 l 0.91992,0.292969 c 0.60832,0.195713 1.02897,0.404779 1.26172,0.626953 0.23275,0.222166 0.34766,0.498212 0.34766,0.826172 0,0.476073 -0.13957,0.839843 -0.41993,1.09375 -0.28035,0.24862 -0.67382,0.373046 -1.18164,0.373046 -0.80932,0 -1.71761,-0.239336 -2.72265,-0.720703 l 0,1.101563 c 0.86751,0.412593 1.74357,0.61914 2.62695,0.61914 0.39673,0 0.76246,-0.04736 1.0957,-0.142578 0.33855,-0.09521 0.63981,-0.237301 0.9043,-0.427734 0.26977,-0.190427 0.48136,-0.444339 0.63477,-0.761719 0.1534,-0.322673 0.23046,-0.693441 0.23046,-1.111328 0,-0.338547 -0.0322,-0.624675 -0.0957,-0.857422 -0.0635,-0.238033 -0.18034,-0.459715 -0.34961,-0.666015 -0.16927,-0.2063 -0.40356,-0.385663 -0.70508,-0.539063 -0.29622,-0.158693 -0.67961,-0.312824 -1.15039,-0.460937 l -0.83398,-0.261719 c -0.54484,-0.17456 -0.90104,-0.338788 -1.07031,-0.492188 -0.16928,-0.1534 -0.25391,-0.40226 -0.25391,-0.746093 0,-0.407307 0.12947,-0.716141 0.38867,-0.927735 0.26449,-0.216873 0.70028,-0.326172 1.30859,-0.326172 0.68238,0 1.38917,0.186361 2.11915,0.556641 l 0.30859,-0.976562 c -0.79345,-0.391434 -1.64738,-0.585938 -2.5625,-0.585938 z m 7.07812,0 c -0.87809,0 -1.56217,0.211592 -2.04882,0.634766 -0.48666,0.417886 -0.72852,0.968017 -0.72852,1.65039 0,0.550134 0.13957,0.998536 0.41992,1.347656 0.28036,0.343834 0.79826,0.637533 1.55469,0.88086 l 0.92187,0.292969 c 0.60832,0.195713 1.02702,0.404779 1.25977,0.626953 0.23275,0.222166 0.34961,0.498212 0.34961,0.826172 0,0.476073 -0.13957,0.839843 -0.41992,1.09375 -0.28036,0.24862 -0.67384,0.373046 -1.18164,0.373046 -0.80933,0 -1.71761,-0.239336 -2.72266,-0.720703 l 0,1.101563 c 0.86751,0.412593 1.74357,0.61914 2.62695,0.61914 0.39673,0 0.7605,-0.04736 1.09375,-0.142578 0.33854,-0.09521 0.64177,-0.237301 0.90625,-0.427734 0.26978,-0.190427 0.48137,-0.444339 0.63477,-0.761719 0.1534,-0.322673 0.22852,-0.693441 0.22852,-1.111328 0,-0.338547 -0.0303,-0.624675 -0.0937,-0.857422 -0.0635,-0.238033 -0.18034,-0.459715 -0.34961,-0.666015 -0.16927,-0.2063 -0.40552,-0.385663 -0.70704,-0.539063 -0.29622,-0.158693 -0.6796,-0.312824 -1.15039,-0.460937 l -0.83203,-0.261719 c -0.54484,-0.17456 -0.903,-0.338788 -1.07226,-0.492188 -0.16928,-0.1534 -0.25391,-0.40226 -0.25391,-0.746093 0,-0.407307 0.12947,-0.716141 0.38867,-0.927735 0.26448,-0.216873 0.70223,-0.326172 1.31055,-0.326172 0.68237,0 1.38721,0.186361 2.11719,0.556641 l 0.31054,-0.976562 c -0.79351,-0.391434 -1.64743,-0.585938 -2.56255,-0.585938 z m -115.957027,0.08594 c -0.507812,0 -0.990966,0.144047 -1.451172,0.429687 -0.454915,0.28036 -0.84082,0.721192 -1.158203,1.324219 l -0.142578,-1.666016 -1.056641,0 0,8.394531 1.31836,0 0,-4.751953 c 0,-0.745846 0.23177,-1.378091 0.697265,-1.896484 0.470784,-0.518393 1.065755,-0.777344 1.785157,-0.777344 0.148112,0 0.327473,0.02017 0.539062,0.0625 l 0.05664,-1.078125 c -0.153402,-0.02647 -0.349854,-0.04102 -0.587891,-0.04102 z m 58.939457,0 c -0.50782,0 -0.99292,0.144047 -1.45313,0.429687 -0.45491,0.28036 -0.84082,0.721192 -1.1582,1.324219 L 121,29.923826 l -1.05469,0 0,8.394531 1.31641,0 0,-4.751953 c 0,-0.745846 0.23176,-1.378091 0.69726,-1.896484 0.47078,-0.518393 1.06575,-0.777344 1.78516,-0.777344 0.14811,0 0.32942,0.02017 0.54102,0.0625 l 0.0547,-1.078125 c -0.1534,-0.02647 -0.34789,-0.04102 -0.58593,-0.04102 z m -57.511722,0.08789 3.326171,8.140625 -1.238281,3.158203 1.181641,0.253906 4.419922,-11.552734 -1.332032,0 -2.396484,6.705078 -2.619141,-6.705078 -1.341796,0 z m 59.716792,0 0,8.394531 1.30079,0 0,-8.394531 -1.30079,0 z m -69.998042,0.832031 c 1.33301,0 2.030276,0.905764 2.09375,2.714844 l -4.570313,0 c 0.07406,-0.835773 0.333008,-1.497722 0.777344,-1.984375 0.449625,-0.486653 1.016845,-0.730469 1.699219,-0.730469 z m 43.916015,0 c 0.782877,0 1.372797,0.291181 1.769527,0.873047 0.40202,0.581867 0.60352,1.442792 0.60352,2.580078 -0.005,1.042074 -0.19727,1.84611 -0.57812,2.41211 -0.38086,0.566 -1.00302,0.847656 -1.865239,0.847656 -0.819906,0 -1.424968,-0.30127 -1.816407,-0.904297 -0.386149,-0.603027 -0.580078,-1.429768 -0.580078,-2.482422 0,-1.05794 0.206543,-1.876545 0.619141,-2.453125 0.412597,-0.581866 1.02775,-0.873047 1.847656,-0.873047 z m 33.207027,0 c 1.60279,0 2.4043,0.990397 2.4043,2.96875 l 0,0.705079 c 0,0.380859 -0.0423,0.731441 -0.12695,1.048828 -0.0846,0.31738 -0.21916,0.611086 -0.4043,0.880859 -0.17985,0.264487 -0.43123,0.469074 -0.75391,0.617187 -0.32267,0.148114 -0.70353,0.222657 -1.14257,0.222657 -0.44434,0 -0.83024,-0.08968 -1.15821,-0.269531 -0.32267,-0.179847 -0.57153,-0.423663 -0.74609,-0.730469 -0.17456,-0.312094 -0.30151,-0.645594 -0.38086,-1 -0.0793,-0.354414 -0.11914,-0.737791 -0.11914,-1.150391 0,-0.433753 0.0398,-0.834798 0.11914,-1.205078 0.0846,-0.375573 0.21411,-0.724208 0.38867,-1.046875 0.17985,-0.322673 0.43124,-0.576579 0.75391,-0.761719 0.32797,-0.18514 0.71639,-0.279297 1.16601,-0.279297 z m 33.03907,0 c 1.33301,0 2.03223,0.905764 2.0957,2.714844 l -4.57031,0 c 0.074,-0.835773 0.333,-1.497722 0.77734,-1.984375 0.44963,-0.486653 1.01489,-0.730469 1.69727,-0.730469 z m -142.488284,1.96875 2.269531,0 c 1.142578,0 1.978841,0.174318 2.507812,0.523438 0.528972,0.34912 0.792969,0.939044 0.792969,1.769531 0,0.78288 -0.231201,1.350672 -0.691406,1.705078 -0.454915,0.354414 -1.181885,0.533203 -2.181641,0.533203 l -2.697265,0 0,-4.53125 z m 87.343754,0 2.26953,0 c 1.14258,0 1.97689,0.174318 2.50586,0.523438 0.52897,0.34912 0.79492,0.939044 0.79492,1.769531 0,0.78288 -0.2312,1.350672 -0.69141,1.705078 -0.45491,0.354414 -1.18189,0.533203 -2.18164,0.533203 l -2.69726,0 0,-4.53125 z m -74.498051,1.554688 1.007812,0 0,1.849609 c -0.629476,0.9257 -1.485921,1.388672 -2.570312,1.388672 -0.396728,0 -0.727702,-0.126953 -0.992188,-0.380859 -0.264485,-0.253907 -0.396484,-0.614585 -0.396484,-1.080078 0,-0.259194 0.02271,-0.475824 0.07031,-0.650391 0.04761,-0.179847 0.134766,-0.344074 0.261719,-0.492188 0.126953,-0.153399 0.303223,-0.272788 0.525391,-0.357421 0.222168,-0.08993 0.503825,-0.157478 0.847656,-0.205079 0.343831,-0.0476 0.75944,-0.07227 1.246094,-0.07227 z m 46.464843,0 1.007813,0 0,1.849609 c -0.629476,0.9257 -1.485921,1.388672 -2.570313,1.388672 -0.396728,0 -0.727702,-0.126953 -0.992187,-0.380859 -0.264486,-0.253907 -0.396484,-0.614585 -0.396484,-1.080078 0,-0.259194 0.02271,-0.475824 0.07031,-0.650391 0.04761,-0.179847 0.134766,-0.344074 0.261719,-0.492188 0.126953,-0.1534 0.303222,-0.272788 0.52539,-0.357421 0.222169,-0.08993 0.503825,-0.157478 0.847657,-0.205079 0.343831,-0.0476 0.759439,-0.07227 1.246093,-0.07227 z m 122.234378,31.00781 c -0.87728,0 -1.59009,0.219563 -2.14063,0.658203 -0.55054,0.43864 -0.82617,1.031817 -0.82617,1.779297 0,0.572914 0.16959,1.066162 0.50977,1.482422 0.34464,0.41626 0.78987,0.713538 1.33593,0.892578 -0.65796,0.228267 -1.16536,0.569418 -1.52343,1.021485 -0.3536,0.447593 -0.53125,1.000243 -0.53125,1.658203 0,0.54606 0.14656,1.017656 0.4375,1.416015 0.29541,0.398354 0.67846,0.692873 1.14843,0.88086 0.46997,0.187987 0.99764,0.28125 1.58399,0.28125 0.9086,0 1.66194,-0.225668 2.26172,-0.677734 0.59977,-0.452067 0.90039,-1.085778 0.90039,-1.900391 0,-0.622153 -0.18376,-1.176189 -0.55078,-1.664063 -0.36702,-0.487873 -0.85889,-0.830403 -1.47657,-1.027343 0.5595,-0.20142 1.00001,-0.502038 1.32227,-0.900391 0.32675,-0.402833 0.49023,-0.889977 0.49023,-1.462891 0,-0.751953 -0.27229,-1.34513 -0.81836,-1.779297 -0.54158,-0.43864 -1.25024,-0.658203 -2.12304,-0.658203 z m 8.11133,0 c -0.71615,0 -1.32488,0.211506 -1.82618,0.636719 -0.5013,0.420733 -0.87492,1.007812 -1.12109,1.759766 -0.2417,0.74748 -0.36328,1.636555 -0.36328,2.666015 0,0.743 0.0655,1.418617 0.19531,2.027344 0.13428,0.604247 0.33024,1.136636 0.58984,1.597656 0.26409,0.45654 0.60995,0.81128 1.03516,1.066407 0.42969,0.250653 0.92628,0.376953 1.49024,0.376953 0.55949,0 1.04997,-0.1263 1.4707,-0.376953 0.42521,-0.255127 0.76302,-0.613199 1.01367,-1.074219 0.25513,-0.461013 0.44499,-0.993403 0.57031,-1.597656 0.12533,-0.604247 0.1875,-1.276532 0.1875,-2.019532 0,-0.774333 -0.0669,-1.468831 -0.20117,-2.082031 -0.13428,-0.617673 -0.33358,-1.148677 -0.59765,-1.591797 -0.25961,-0.447586 -0.59742,-0.790117 -1.01368,-1.027343 -0.41178,-0.241701 -0.8881,-0.361329 -1.42968,-0.361329 z m -118.396489,0.05273 -1.115234,0.08203 0,9.800781 0.002,0 1.107422,0 0,-3.886718 c 0,-0.264081 0.01693,-0.510008 0.05273,-0.738282 0.04028,-0.228266 0.110515,-0.453934 0.208985,-0.677734 0.09847,-0.223793 0.226155,-0.415606 0.382812,-0.572266 0.156657,-0.161133 0.360677,-0.288819 0.611328,-0.382812 0.255127,-0.09847 0.547689,-0.146485 0.878907,-0.146485 0.532633,0 0.910969,0.168213 1.134765,0.503907 C 98.386474,69.653477 98.5,70.170325 98.5,70.873045 l 0,4.349609 1.115234,0 0,-4.390625 c 0,-0.913086 -0.207356,-1.618407 -0.61914,-2.115234 -0.411784,-0.496827 -1.003011,-0.744141 -1.777344,-0.744141 -0.505778,0 -0.963786,0.09798 -1.371094,0.294922 -0.402832,0.192467 -0.732585,0.472824 -0.992187,0.839844 l 0.03906,-1.390625 0,-2.376953 z m -25.888672,0.08203 0,9.800781 3.652344,0 c 1.132406,0 1.985677,-0.242595 2.558594,-0.730468 0.577393,-0.492354 0.865234,-1.171303 0.865234,-2.035157 0,-0.622146 -0.169596,-1.134276 -0.509765,-1.537109 -0.335694,-0.407307 -0.815348,-0.699866 -1.4375,-0.878906 0.56844,-0.21932 0.970377,-0.509115 1.203125,-0.867188 0.237223,-0.362547 0.355468,-0.812503 0.355468,-1.349609 0,-0.819094 -0.295898,-1.423094 -0.886718,-1.8125 -0.586345,-0.39388 -1.493734,-0.589844 -2.72461,-0.589844 l -3.076172,0 z m 14.414063,0 c -0.214843,0 -0.390544,0.06689 -0.529297,0.201172 -0.134277,0.1298 -0.201172,0.299399 -0.201172,0.509765 0,0.210367 0.0669,0.383299 0.201172,0.517579 0.138753,0.134273 0.314454,0.201171 0.529297,0.201171 0.210368,0 0.386637,-0.0669 0.52539,-0.201171 0.138754,-0.13428 0.207032,-0.307212 0.207032,-0.517579 0,-0.210366 -0.06828,-0.379965 -0.207032,-0.509765 -0.134277,-0.13428 -0.310546,-0.201172 -0.52539,-0.201172 z m 145.392578,0 -5.57227,9.800781 0.88672,0 5.50586,-9.800781 -0.82031,0 z m -5.67969,0.0059 c -0.72062,0 -1.27938,0.231766 -1.67773,0.697266 -0.39836,0.46102 -0.59766,1.058922 -0.59766,1.792969 0,0.738526 0.19597,1.341147 0.58985,1.80664 0.39388,0.465494 0.95597,0.697266 1.68554,0.697266 0.7251,0 1.2872,-0.231772 1.68555,-0.697266 0.39836,-0.469973 0.59766,-1.072594 0.59766,-1.80664 0,-0.74748 -0.19792,-1.348148 -0.5918,-1.804688 -0.38941,-0.456546 -0.95288,-0.685547 -1.69141,-0.685547 z m 0.008,0.625 c 0.5013,0 0.87493,0.16626 1.1211,0.501954 0.25065,0.331219 0.375,0.784501 0.375,1.357421 0,0.559487 -0.12435,1.014162 -0.375,1.363282 -0.24617,0.344646 -0.6198,0.515625 -1.1211,0.515625 -0.5013,0 -0.87825,-0.169593 -1.1289,-0.509766 -0.25065,-0.340167 -0.375,-0.796227 -0.375,-1.369141 0,-0.559493 0.12435,-1.009442 0.375,-1.349609 0.25065,-0.340173 0.6276,-0.509766 1.1289,-0.509766 z m -17.96679,0.06055 c 0.56844,0 1.02311,0.144614 1.36328,0.435547 0.34017,0.28646 0.50977,0.669518 0.50977,1.148438 0,0.52816 -0.15739,0.967286 -0.47071,1.316406 -0.31331,0.34912 -0.78019,0.590329 -1.40234,0.724609 -0.61768,-0.138753 -1.0879,-0.379962 -1.41016,-0.724609 -0.31779,-0.34912 -0.47656,-0.788246 -0.47656,-1.316406 0,-0.474447 0.17293,-0.857505 0.51758,-1.148438 0.34912,-0.290933 0.80517,-0.435547 1.36914,-0.435547 z m -102.26367,0.06055 -0.89258,0.06641 -0.18164,1.878907 -1.09375,0.07422 -0.0273,0.63086 1.09571,0 0,4.271484 c 0,0.434167 0.0372,0.784181 0.11328,1.052735 0.0761,0.268553 0.21321,0.491455 0.41015,0.666015 0.20142,0.17456 0.46151,0.294188 0.7793,0.361328 0.31779,0.06714 0.73331,0.101563 1.24805,0.101563 l 0.46289,0 0.0547,-0.765625 -0.56446,-0.02734 c -0.59529,-0.02238 -0.97835,-0.115643 -1.14843,-0.28125 -0.17009,-0.170087 -0.25586,-0.538982 -0.25586,-1.107422 l 0,-4.271484 1.88086,0 0,-0.705078 -1.88086,0 0,-1.945313 z m 110.38086,0.01953 c 1.42334,0 2.13476,1.371501 2.13476,4.115235 0,1.383053 -0.18514,2.430905 -0.55664,3.142578 -0.36702,0.707193 -0.8933,1.060547 -1.57812,1.060547 -0.69377,0 -1.2356,-0.356686 -1.625,-1.06836 -0.38493,-0.716146 -0.57813,-1.759279 -0.57813,-3.128906 -0.004,-1.31144 0.1901,-2.324869 0.58399,-3.041015 0.39387,-0.72062 0.93432,-1.080079 1.61914,-1.080079 z m -143.10352,0.113282 1.886719,0 c 0.881754,0 1.516846,0.118242 1.90625,0.355468 0.389404,0.23722 0.583984,0.671628 0.583984,1.302735 0,0.626626 -0.179036,1.065759 -0.537109,1.316406 -0.358073,0.24618 -0.881022,0.369141 -1.570313,0.369141 l -2.269531,0 0,-3.34375 z m 18.652344,1.666015 c -0.528158,0 -0.996989,0.09798 -1.404297,0.294922 -0.407308,0.192467 -0.734294,0.462001 -0.980469,0.806641 -0.246175,0.344646 -0.431314,0.735188 -0.55664,1.173828 -0.125326,0.434167 -0.1875,0.905762 -0.1875,1.416015 0,0.447587 0.05884,0.874511 0.179687,1.277344 0.125326,0.402834 0.307699,0.76839 0.544922,1.09961 0.237223,0.331213 0.554769,0.596028 0.953125,0.792968 0.402832,0.19694 0.857503,0.294922 1.363281,0.294922 0.523681,0 0.970296,-0.104086 1.341797,-0.314453 0.375977,-0.210367 0.667155,-0.500161 0.873047,-0.867187 l 0.02148,0.832031 0,0.195312 c 0,0.890707 -0.183756,1.533855 -0.550781,1.927735 -0.362549,0.39388 -0.924642,0.589844 -1.685547,0.589844 -0.559489,0 -1.249267,-0.0966 -2.068359,-0.289063 l -0.08789,0.941406 c 0.805664,0.183514 1.525147,0.275391 2.15625,0.275391 1.159261,0 1.992269,-0.319498 2.498047,-0.955078 0.510253,-0.631107 0.763672,-1.564861 0.763672,-2.804688 l 0,-6.541015 -1.013672,0 -0.06641,1.021484 c -0.425212,-0.778807 -1.122478,-1.167969 -2.09375,-1.167969 z m 20.966796,0 c -1.06974,0 -1.87305,0.375 -2.41016,1.126953 l -0.12109,-0.980468 -0.9668,0 0,7.103515 1.11329,0 0,-3.960937 c 0,-1.62476 0.7303,-2.4375 2.18945,-2.4375 0.54158,0 0.91992,0.163494 1.13476,0.490234 0.21484,0.322267 0.32227,0.803299 0.32227,1.443359 l 0,4.464844 1.11523,0 0,-4.34375 c 0,-0.975753 -0.19458,-1.70272 -0.58398,-2.18164 -0.38493,-0.4834 -0.98283,-0.72461 -1.79297,-0.72461 z m 7.01563,0 c -0.93995,0 -1.71355,0.337812 -2.32227,1.013672 -0.60873,0.675867 -0.91406,1.58187 -0.91406,2.71875 0,1.123453 0.31144,2.013915 0.93359,2.671875 0.62215,0.65348 1.43156,0.980469 2.42969,0.980469 0.89518,0 1.69376,-0.20874 2.39648,-0.625 l -0.23437,-0.785156 c -0.37598,0.187986 -0.71517,0.329828 -1.01953,0.423828 -0.30437,0.09399 -0.64218,0.140625 -1.01368,0.140625 -0.68481,0 -1.2408,-0.218177 -1.66601,-0.652344 -0.42521,-0.43864 -0.65561,-1.109539 -0.69141,-2.013672 l 4.80078,0 0.0391,-0.564453 c 0,-1.038413 -0.23316,-1.847821 -0.70313,-2.429688 -0.46549,-0.586346 -1.14445,-0.878906 -2.03515,-0.878906 z m 6.43164,0 c -0.743,0 -1.32064,0.179036 -1.73243,0.53711 -0.41178,0.3536 -0.61718,0.819097 -0.61718,1.396484 0,0.4655 0.11825,0.845218 0.35547,1.140625 0.23722,0.290933 0.67635,0.5402 1.3164,0.746094 l 0.7793,0.248047 c 0.51473,0.165613 0.86947,0.34131 1.06641,0.529296 0.19693,0.187987 0.29687,0.421713 0.29687,0.699219 0,0.402834 -0.1202,0.710935 -0.35742,0.925781 -0.23723,0.210367 -0.57032,0.316407 -1,0.316407 -0.68482,0 -1.45232,-0.204022 -2.30274,-0.611328 l 0,0.933593 c 0.73405,0.34912 1.47518,0.523438 2.22266,0.523438 0.33569,0 0.6438,-0.04053 0.92578,-0.121094 0.28646,-0.08056 0.54183,-0.200195 0.76563,-0.361328 0.22827,-0.161133 0.40731,-0.375971 0.53711,-0.644531 0.1298,-0.273027 0.19531,-0.587806 0.19531,-0.941407 0,-0.286453 -0.0263,-0.527669 -0.0801,-0.724609 -0.0537,-0.20142 -0.15365,-0.389893 -0.29688,-0.564453 -0.14323,-0.17456 -0.34252,-0.325278 -0.59765,-0.455078 -0.25065,-0.13428 -0.5743,-0.265298 -0.97266,-0.390625 l -0.70508,-0.220703 c -0.46101,-0.147707 -0.76301,-0.286216 -0.90625,-0.416016 -0.14322,-0.129807 -0.21484,-0.341879 -0.21484,-0.632812 0,-0.344647 0.10881,-0.606123 0.32813,-0.785157 0.22379,-0.183513 0.59464,-0.27539 1.10937,-0.27539 0.57739,0 1.17334,0.15739 1.79102,0.470703 l 0.26172,-0.826172 c -0.67139,-0.33122 -1.39364,-0.496094 -2.16797,-0.496094 z m 5.98828,0 c -0.743,0 -1.31868,0.179036 -1.73047,0.53711 -0.41178,0.3536 -0.61914,0.819097 -0.61914,1.396484 0,0.4655 0.11825,0.845218 0.35547,1.140625 0.23722,0.290933 0.67635,0.5402 1.3164,0.746094 l 0.7793,0.248047 c 0.51473,0.165613 0.87142,0.34131 1.06836,0.529296 0.19694,0.187987 0.29492,0.421713 0.29492,0.699219 0,0.402834 -0.11825,0.710935 -0.35547,0.925781 -0.23722,0.210367 -0.57226,0.316407 -1.00195,0.316407 -0.68481,0 -1.45232,-0.204022 -2.30273,-0.611328 l 0,0.933593 c 0.73404,0.34912 1.47517,0.523438 2.22265,0.523438 0.33569,0 0.64576,-0.04053 0.92774,-0.121094 0.28646,-0.08056 0.53987,-0.200195 0.76367,-0.361328 0.22827,-0.161133 0.40731,-0.375971 0.53711,-0.644531 0.1298,-0.273027 0.19531,-0.587807 0.19531,-0.941407 0,-0.286453 -0.0264,-0.527669 -0.0801,-0.724609 -0.0537,-0.20142 -0.15169,-0.389893 -0.29492,-0.564453 -0.14323,-0.17456 -0.34253,-0.325278 -0.59766,-0.455078 -0.25065,-0.13428 -0.57625,-0.265298 -0.97461,-0.390625 l -0.70507,-0.220703 c -0.46102,-0.147707 -0.76302,-0.286216 -0.90625,-0.416016 -0.14323,-0.129807 -0.21485,-0.341879 -0.21485,-0.632812 0,-0.344647 0.11076,-0.606123 0.33008,-0.785157 0.22379,-0.183513 0.59269,-0.27539 1.10742,-0.27539 0.57739,0 1.17529,0.15739 1.79297,0.470703 l 0.26172,-0.826172 c -0.67139,-0.33122 -1.39559,-0.496094 -2.16992,-0.496094 z m -48.246096,0.07422 c -0.429688,0 -0.839112,0.119628 -1.228516,0.361328 -0.384929,0.237227 -0.709961,0.610841 -0.978516,1.121094 l -0.121093,-1.410156 -0.894531,0 0,7.103515 1.115234,0 0,-4.021484 c 0,-0.6311 0.197917,-1.164876 0.591797,-1.603516 0.398356,-0.43864 0.901042,-0.658203 1.509765,-0.658203 0.125326,0 0.277996,0.01693 0.457032,0.05273 l 0.04687,-0.91211 c -0.129802,-0.0224 -0.296631,-0.0332 -0.498047,-0.0332 z m 1.867187,0.07227 0,7.103515 1.101563,0 0,-7.103515 -1.101563,0 z m 6.029297,0.705078 c 1.356201,0 2.035156,0.837725 2.035156,2.511719 l 0,0.597656 c 0,0.322266 -0.03581,0.618165 -0.107422,0.886718 -0.07161,0.268554 -0.187093,0.515868 -0.34375,0.744141 -0.152181,0.2238 -0.363688,0.398118 -0.636718,0.523438 -0.273031,0.125326 -0.595297,0.189453 -0.966797,0.189453 -0.375977,0 -0.702962,-0.07634 -0.980469,-0.228516 -0.273031,-0.15218 -0.483154,-0.359534 -0.630859,-0.61914 -0.147705,-0.264074 -0.255127,-0.545817 -0.322266,-0.845704 -0.06714,-0.299886 -0.101562,-0.623536 -0.101562,-0.972656 0,-0.367027 0.03442,-0.708171 0.101562,-1.021484 0.07161,-0.317794 0.18042,-0.611739 0.328125,-0.884766 0.152181,-0.273033 0.365641,-0.487878 0.638672,-0.644531 0.277506,-0.15666 0.605875,-0.236328 0.986328,-0.236328 z m 27.957032,0 c 1.12791,0 1.71775,0.766115 1.77148,2.296875 l -3.86718,0 c 0.0627,-0.707194 0.28223,-1.265955 0.6582,-1.677735 0.38045,-0.411786 0.86011,-0.61914 1.4375,-0.61914 z m 112.9043,1.404297 c -0.72063,0 -1.28134,0.231772 -1.67969,0.697265 -0.39835,0.465494 -0.59766,1.066728 -0.59766,1.800781 0,0.738527 0.19792,1.339195 0.5918,1.804688 0.39388,0.465493 0.95597,0.699219 1.68555,0.699219 0.72509,0 1.28523,-0.233726 1.68359,-0.699219 0.39835,-0.469973 0.59766,-1.070641 0.59766,-1.804688 0,-0.747479 -0.19597,-1.3501 -0.58985,-1.80664 -0.3894,-0.46102 -0.95288,-0.691406 -1.6914,-0.691406 z m -159.56641,0.261718 1.919922,0 c 0.966797,0 1.673502,0.147946 2.121094,0.44336 0.447591,0.295406 0.671875,0.793374 0.671875,1.496094 0,0.662433 -0.19458,1.143472 -0.583985,1.443359 -0.384928,0.299887 -0.999756,0.451172 -1.845703,0.451172 l -2.283203,0 0,-3.833985 z m 134.98633,0.0332 c 0.6311,0.13428 1.1385,0.389651 1.52344,0.765624 0.3894,0.375981 0.58398,0.836753 0.58398,1.382813 0,1.217447 -0.70199,1.826172 -2.10742,1.826172 -0.6893,0 -1.21697,-0.158769 -1.58399,-0.476563 -0.36255,-0.317786 -0.54492,-0.766356 -0.54492,-1.34375 0,-0.563966 0.19458,-1.029464 0.58399,-1.396484 0.3894,-0.367027 0.90486,-0.619059 1.54492,-0.757812 z m 24.58594,0.335937 c 0.5013,0 0.87491,0.168213 1.12109,0.503906 0.25065,0.33122 0.37695,0.782556 0.37695,1.355469 0,0.559493 -0.1263,1.014161 -0.37695,1.363281 -0.24618,0.34912 -0.61979,0.523438 -1.12109,0.523438 -0.5013,0 -0.87826,-0.169599 -1.12891,-0.509766 -0.25065,-0.344647 -0.375,-0.804033 -0.375,-1.376953 0,-0.559487 0.12435,-1.009443 0.375,-1.349609 0.25065,-0.340174 0.62761,-0.509766 1.12891,-0.509766 z m -160.753911,85.562506 0,9.80078 3.652344,0 c 1.132406,0 1.985677,-0.2426 2.558594,-0.73047 0.577393,-0.49236 0.865234,-1.17131 0.865234,-2.03516 0,-0.62215 -0.169596,-1.13427 -0.509765,-1.53711 -0.335694,-0.4073 -0.815348,-0.69986 -1.4375,-0.8789 0.56844,-0.21932 0.970377,-0.50912 1.203125,-0.86719 0.237223,-0.36255 0.355468,-0.8125 0.355468,-1.34961 0,-0.81909 -0.295898,-1.42309 -0.886718,-1.8125 -0.586345,-0.39388 -1.493734,-0.58984 -2.72461,-0.58984 l -3.076172,0 z m 136.859371,0 -2.20898,3.24804 c -0.26407,0.38046 -0.46809,0.68718 -0.61133,0.91992 -0.14322,0.23275 -0.29118,0.50366 -0.44336,0.8125 -0.15218,0.30884 -0.2596,0.61557 -0.32226,0.91993 -0.0627,0.29988 -0.0937,0.62215 -0.0937,0.96679 0,0.40284 0.0702,0.78728 0.20898,1.1543 0.13875,0.36703 0.33806,0.69401 0.59766,0.98047 0.2596,0.28198 0.58936,0.50765 0.99219,0.67773 0.40283,0.17009 0.85139,0.25586 1.34374,0.25586 0.93994,0 1.698,-0.29117 2.2754,-0.87304 0.58186,-0.58634 0.87304,-1.31193 0.87304,-2.17579 0,-0.84594 -0.29118,-1.54321 -0.87304,-2.09375 -0.5774,-0.55053 -1.26522,-0.82617 -2.06641,-0.82617 -0.49683,0 -0.96094,0.12631 -1.39063,0.37695 0.27303,-0.36701 0.50814,-0.69734 0.70508,-0.98828 l 2.28321,-3.35546 -1.26954,0 z m 5.01563,0 -0.18945,5.18945 0.90039,0.10742 c 0.20588,-0.21932 0.46598,-0.39364 0.77929,-0.52344 0.31332,-0.1298 0.63558,-0.19531 0.9668,-0.19531 0.45207,0 0.83041,0.10132 1.13477,0.30273 0.30436,0.19694 0.52059,0.45036 0.65039,0.76368 0.1298,0.30884 0.19531,0.66414 0.19531,1.0625 0,0.72509 -0.20068,1.28857 -0.60352,1.6914 -0.39835,0.39836 -0.93408,0.59766 -1.60546,0.59766 -0.75196,0 -1.55998,-0.24455 -2.42383,-0.73242 l -0.38282,0.86718 c 0.97128,0.54159 1.93197,0.81055 2.88086,0.81055 0.46102,0 0.88737,-0.0683 1.28125,-0.20703 0.39388,-0.13875 0.73975,-0.33944 1.03516,-0.60352 0.29989,-0.26855 0.53166,-0.61108 0.69727,-1.02734 0.17008,-0.42073 0.25585,-0.89428 0.25585,-1.41797 0,-0.55053 -0.11213,-1.04712 -0.33593,-1.49023 -0.21932,-0.4476 -0.55575,-0.80705 -1.00781,-1.08008 -0.45207,-0.27751 -0.98446,-0.41602 -1.59766,-0.41602 -0.67139,0 -1.26929,0.1757 -1.79297,0.5293 l 0.10742,-3.34375 4.12305,0 0.0879,-0.88476 -5.15625,0 z m 17.93164,0 -5.57227,9.80078 0.88672,0 5.50586,-9.80078 -0.82031,0 z m -5.67969,0.006 c -0.72062,0 -1.27938,0.23178 -1.67773,0.69727 -0.39836,0.46102 -0.59766,1.05892 -0.59766,1.79297 0,0.73853 0.19597,1.34115 0.58985,1.80664 0.39388,0.46549 0.95597,0.69727 1.68554,0.69727 0.7251,0 1.2872,-0.23178 1.68555,-0.69727 0.39836,-0.46997 0.59766,-1.07259 0.59766,-1.80664 0,-0.74748 -0.19792,-1.34815 -0.5918,-1.80469 -0.38941,-0.45654 -0.95288,-0.68555 -1.69141,-0.68555 z m 0.008,0.625 c 0.5013,0 0.87493,0.16626 1.1211,0.50196 0.25065,0.33121 0.375,0.7845 0.375,1.35742 0,0.55949 -0.12435,1.01416 -0.375,1.36328 -0.24617,0.34465 -0.6198,0.51563 -1.1211,0.51563 -0.5013,0 -0.87825,-0.1696 -1.1289,-0.50977 -0.25065,-0.34017 -0.375,-0.79623 -0.375,-1.36914 0,-0.55949 0.12435,-1.00944 0.375,-1.34961 0.25065,-0.34017 0.6276,-0.50977 1.1289,-0.50977 z m -136.798823,0.1211 -0.892578,0.0664 -0.181641,1.87891 -1.095703,0.0742 -0.02539,0.63086 1.09375,0 0,4.27148 c 0,0.43417 0.03719,0.78418 0.113282,1.05274 0.07609,0.26855 0.213216,0.49145 0.410156,0.66601 0.201416,0.17456 0.461507,0.29419 0.779297,0.36133 0.317789,0.0671 0.733317,0.10156 1.248047,0.10156 l 0.46289,0 0.05469,-0.76562 -0.564453,-0.0273 c -0.595297,-0.0224 -0.978354,-0.11565 -1.148438,-0.28126 -0.170085,-0.17008 -0.253906,-0.53898 -0.253906,-1.10742 l 0,-4.27148 1.878906,0 0,-0.70508 -1.878906,0 0,-1.94531 z m 4.941406,0 -0.892578,0.0664 -0.181641,1.87891 -1.095703,0.0742 -0.02539,0.63086 1.09375,0 0,4.27148 c 0,0.43417 0.03719,0.78418 0.113281,1.05274 0.07609,0.26855 0.213216,0.49145 0.410156,0.66601 0.201416,0.17456 0.461507,0.29419 0.779297,0.36133 0.317789,0.0671 0.733317,0.10156 1.248047,0.10156 l 0.46289,0 0.05469,-0.76562 -0.564453,-0.0273 c -0.595296,-0.0224 -0.978353,-0.11565 -1.148438,-0.28126 -0.170084,-0.17008 -0.253906,-0.53898 -0.253906,-1.10742 l 0,-4.27148 1.878906,0 0,-0.70508 -1.878906,0 0,-1.94531 z m -21.095703,0.13281 1.886719,0 c 0.881754,0 1.516846,0.11824 1.90625,0.35547 0.389404,0.23722 0.583984,0.67163 0.583984,1.30273 0,0.62663 -0.179036,1.06576 -0.537109,1.31641 -0.358073,0.24617 -0.881022,0.36914 -1.570313,0.36914 l -2.269531,0 0,-3.34375 z m 10.152344,1.66602 c -0.948894,0 -1.805502,0.17569 -2.566406,0.52929 l 0.302734,0.82032 c 0.326741,-0.15666 0.698974,-0.27825 1.115234,-0.36329 0.41626,-0.0895 0.80542,-0.13476 1.167969,-0.13476 0.537109,0 0.929606,0.12768 1.175781,0.38281 0.250651,0.25513 0.375,0.6429 0.375,1.16211 l 0,0.69727 -1.134765,0 c -1.141358,0 -1.974365,0.18236 -2.498047,0.54492 -0.519206,0.35807 -0.777344,0.92155 -0.777344,1.6914 0,0.64454 0.195964,1.14918 0.589844,1.51172 0.398356,0.36256 0.924641,0.54297 1.578125,0.54297 0.975748,0 1.768229,-0.37361 2.376953,-1.12109 l 0.121094,0.98047 0.845703,0 0,-4.6875 c 0,-0.90414 -0.233724,-1.55477 -0.699219,-1.95313 -0.461019,-0.40283 -1.117757,-0.60351 -1.972656,-0.60351 z m 17.173828,0 c -0.939942,0 -1.715496,0.3378 -2.324219,1.01367 -0.608724,0.67586 -0.912109,1.58187 -0.912109,2.71875 0,1.12345 0.311442,2.01391 0.933594,2.67187 0.622152,0.65349 1.431559,0.98047 2.429687,0.98047 0.895183,0 1.693765,-0.20874 2.396485,-0.625 l -0.234376,-0.78515 c -0.375976,0.18799 -0.717122,0.32983 -1.021484,0.42382 -0.304361,0.094 -0.642171,0.14063 -1.013672,0.14063 -0.684815,0 -1.23885,-0.21818 -1.664062,-0.65234 -0.425212,-0.43864 -0.6556,-1.10954 -0.691407,-2.01368 l 4.800781,0 0.0391,-0.56445 c 0,-1.03841 -0.2351,-1.84782 -0.705075,-2.42969 -0.465495,-0.58634 -1.142497,-0.8789 -2.033203,-0.8789 z m 7.519528,0.0742 c -0.42968,0 -0.83911,0.11962 -1.22851,0.36132 -0.38494,0.23723 -0.71192,0.61084 -0.98047,1.1211 l -0.1211,-1.41016 -0.89257,0 0,7.10352 1.11328,0 0,-4.02149 c 0,-0.6311 0.19791,-1.16487 0.59179,-1.60351 0.39836,-0.43864 0.90105,-0.65821 1.50977,-0.65821 0.12533,0 0.278,0.0169 0.45703,0.0527 l 0.0469,-0.91211 c -0.1298,-0.0224 -0.29468,-0.0332 -0.4961,-0.0332 z m 1.20703,0.0723 2.81446,6.88867 -1.04688,2.67188 1,0.21484 3.73828,-9.77539 -1.12695,0 -2.02734,5.67383 -2.2168,-5.67383 -1.13477,0 z m -8.701168,0.70508 c 1.127928,0 1.719725,0.76611 1.773438,2.29687 l -3.867188,0 c 0.06266,-0.7072 0.282228,-1.26595 0.658204,-1.67773 0.380452,-0.41179 0.858154,-0.61914 1.435546,-0.61914 z m 132.214848,1.4043 c -0.72063,0 -1.28134,0.23177 -1.67969,0.69726 -0.39835,0.4655 -0.59766,1.06674 -0.59766,1.80078 0,0.73853 0.19792,1.3392 0.5918,1.80469 0.39388,0.46549 0.95597,0.69922 1.68555,0.69922 0.72509,0 1.28523,-0.23373 1.68359,-0.69922 0.39835,-0.46997 0.59766,-1.07064 0.59766,-1.80469 0,-0.74748 -0.19597,-1.3501 -0.58985,-1.80664 -0.3894,-0.46102 -0.95288,-0.6914 -1.6914,-0.6914 z m -24.41211,0.0273 c 0.64006,0 1.14136,0.19124 1.5039,0.57617 0.36703,0.38045 0.55078,0.87566 0.55078,1.48438 0,0.60425 -0.18709,1.11637 -0.55859,1.53711 -0.3715,0.41626 -0.88362,0.625 -1.53711,0.625 -0.64901,0 -1.15169,-0.20403 -1.50976,-0.61133 -0.35808,-0.40731 -0.53711,-0.91195 -0.53711,-1.51172 0,-0.30437 0.0433,-0.57805 0.13281,-0.82422 0.0895,-0.24617 0.20638,-0.44548 0.34961,-0.59766 0.14322,-0.15666 0.30672,-0.28767 0.49023,-0.39062 0.188,-0.10743 0.37314,-0.18044 0.55664,-0.2207 0.188,-0.0447 0.37509,-0.0664 0.5586,-0.0664 z m -135.1543,0.23437 1.919922,0 c 0.966797,0 1.673502,0.14795 2.121094,0.44336 0.447591,0.29541 0.671875,0.79338 0.671875,1.4961 0,0.66243 -0.19458,1.14347 -0.583985,1.44336 -0.384928,0.29988 -0.999756,0.45117 -1.845703,0.45117 l -2.283203,0 0,-3.83399 z m 159.57227,0.36915 c 0.5013,0 0.87491,0.16821 1.12109,0.5039 0.25065,0.33122 0.37695,0.78255 0.37695,1.35547 0,0.55949 -0.1263,1.01416 -0.37695,1.36328 -0.24618,0.34912 -0.61979,0.52344 -1.12109,0.52344 -0.5013,0 -0.87826,-0.1696 -1.12891,-0.50977 -0.25065,-0.34464 -0.375,-0.80404 -0.375,-1.37695 0,-0.55949 0.12435,-1.00944 0.375,-1.34961 0.25065,-0.34017 0.62761,-0.50976 1.12891,-0.50976 z m -148.703129,0.94726 0.853515,0 0,1.56445 c -0.532633,0.78329 -1.258219,1.17383 -2.175781,1.17383 -0.335693,0 -0.614095,-0.10742 -0.837891,-0.32226 -0.223795,-0.21484 -0.335937,-0.51823 -0.335937,-0.91211 0,-0.21932 0.02027,-0.40308 0.06055,-0.55078 0.04028,-0.15218 0.113281,-0.29069 0.220703,-0.41602 0.107422,-0.1298 0.255371,-0.23112 0.443359,-0.30273 0.187989,-0.0761 0.427816,-0.13357 0.71875,-0.17383 0.290934,-0.0403 0.640951,-0.0606 1.052735,-0.0606 z"
     id="path18039" />
  <path
     style="color:#f2f2f2;fill:currentColor;fill-opacity:0.5;stroke:none"
     class="ColorScheme-Text"
     d="m 20,50 0,1 216,0 0,-1 z m 48.132812,43.51758 0,9.80273 1.181641,0 0,-4.74023 2.121094,0 c 1.105551,0 1.912191,-0.22428 2.417969,-0.67188 0.505778,-0.45206 0.757812,-1.11686 0.757812,-1.99414 0,-0.42968 -0.07772,-0.80192 -0.234375,-1.11523 -0.152181,-0.31779 -0.373128,-0.56845 -0.664062,-0.75195 -0.290934,-0.18353 -0.62264,-0.31731 -0.994141,-0.40235 -0.371501,-0.0851 -0.791748,-0.12695 -1.261719,-0.12695 z m 41.445308,0 -0.19531,9.80273 1.11524,0 0.0937,-6.05078 0,-2.31641 3.08789,7.27149 1.01367,0 3.10937,-7.18945 0,2.20898 0.0937,6.07617 1.10157,0 -0.19532,-9.80273 -1.41015,0 -3.18946,7.44531 -3.17578,-7.44531 -1.44922,0 z m 75.79297,0.75195 -0.89257,0.0664 -0.18164,1.88086 -1.09376,0.0723 -0.0273,0.63282 1.09375,0 0,4.26953 c 0,0.43416 0.0392,0.78613 0.11524,1.05468 0.0761,0.26856 0.21126,0.48951 0.4082,0.66407 0.20141,0.17456 0.4615,0.29418 0.7793,0.36132 0.31778,0.0671 0.73332,0.10157 1.24804,0.10157 l 0.46485,0 0.0527,-0.76563 -0.56445,-0.0273 c -0.5953,-0.0224 -0.97836,-0.11565 -1.14844,-0.28125 -0.17009,-0.17009 -0.25391,-0.53898 -0.25391,-1.10742 l 0,-4.26953 1.87891,0 0,-0.70508 -1.87891,0 0,-1.94727 z m -116.056637,0.13477 2.134766,0 c 0.644531,0 1.13501,0.11491 1.470703,0.34765 0.340169,0.22828 0.509766,0.62077 0.509766,1.17578 0,0.64454 -0.154053,1.09587 -0.462891,1.35547 -0.304362,0.25961 -0.822591,0.39063 -1.556641,0.39063 l -2.095703,0 z m 9.654297,1.66406 c -1.042887,0 -1.861735,0.34114 -2.457031,1.02148 -0.59082,0.67586 -0.884766,1.57104 -0.884766,2.68555 0,1.08765 0.298666,1.97339 0.898438,2.6582 0.599772,0.68034 1.4139,1.01954 2.443359,1.01953 1.007081,2e-5 1.818441,-0.34252 2.431641,-1.02734 0.6132,-0.68929 0.919921,-1.5717 0.919921,-2.65039 0,-1.11451 -0.295898,-2.00969 -0.886718,-2.68555 -0.590821,-0.68034 -1.413005,-1.02148 -2.464844,-1.02148 z m 17.939453,0 c -0.939942,0 -1.713542,0.3378 -2.322265,1.01367 -0.608724,0.67586 -0.91211,1.58187 -0.91211,2.71875 0,1.12345 0.309489,2.01392 0.931641,2.67188 0.622152,0.65348 1.433512,0.98046 2.43164,0.98046 0.895182,0 1.693766,-0.20678 2.396485,-0.62304 l -0.234375,-0.78711 c -0.375977,0.18799 -0.717123,0.32983 -1.021485,0.42383 -0.304362,0.094 -0.64217,0.14062 -1.013672,0.14062 -0.684814,0 -1.23885,-0.21622 -1.664062,-0.65039 -0.425212,-0.43864 -0.657553,-1.11149 -0.693359,-2.01562 l 4.800781,0 0.04102,-0.5625 c -10e-7,-1.03842 -0.235108,-1.84978 -0.705079,-2.43164 -0.465494,-0.58635 -1.14445,-0.87891 -2.03516,-0.87891 z m 26.626957,0 c -0.9489,0 -1.80356,0.17765 -2.56446,0.53125 l 0.30274,0.81836 c 0.32674,-0.15666 0.69897,-0.27824 1.11523,-0.36328 0.41626,-0.0895 0.80542,-0.13282 1.16797,-0.13281 0.53711,0 0.92766,0.12768 1.17383,0.38281 0.25065,0.25512 0.37695,0.64095 0.37695,1.16015 l 0,0.69922 -1.13476,0 c -1.14136,0 -1.97437,0.18042 -2.49805,0.54297 -0.51921,0.35807 -0.7793,0.92155 -0.7793,1.69141 0,0.64453 0.19792,1.14917 0.5918,1.51172 0.39835,0.36255 0.92464,0.54296 1.57812,0.54296 0.97575,0 1.76823,-0.37361 2.37696,-1.12109 l 0.11914,0.98047 0.84765,0 0,-4.68555 c 0,-0.90414 -0.23372,-1.55673 -0.69921,-1.95507 -0.46102,-0.40284 -1.11971,-0.60352 -1.97461,-0.60352 z m 7.95703,0 c -1.06975,0 -1.87305,0.37695 -2.41016,1.12891 l -0.12109,-0.98047 -0.9668,0 0,7.10351 1.11524,0 0,-3.96289 c 0,-1.62476 0.72835,-2.43554 2.1875,-2.43554 0.54158,-2e-5 0.91991,0.16348 1.13476,0.49023 0.21484,0.32226 0.32227,0.8033 0.32227,1.44336 l 0,4.46484 1.11523,0 0,-4.3457 c 0,-0.97575 -0.19458,-1.70272 -0.58398,-2.18164 -0.38493,-0.4834 -0.98283,-0.72461 -1.79297,-0.72461 z m 6.70703,0 c -0.94889,0 -1.80355,0.17765 -2.56445,0.53125 l 0.30273,0.81836 c 0.32674,-0.15666 0.69702,-0.27824 1.11328,-0.36328 0.41626,-0.0895 0.80542,-0.13282 1.16797,-0.13281 0.53711,0 0.9296,0.12768 1.17578,0.38281 0.25065,0.25512 0.375,0.64095 0.375,1.16015 l 0,0.69922 -1.13476,0 c -1.14136,0 -1.97242,0.18042 -2.4961,0.54297 -0.5192,0.35807 -0.77929,0.92155 -0.77929,1.69141 0,0.64453 0.19596,1.14917 0.58984,1.51172 0.39836,0.36255 0.92464,0.54296 1.57812,0.54296 0.97576,0 1.76824,-0.37361 2.37696,-1.12109 l 0.12109,0.98047 0.8457,0 0,-4.68555 c 0,-0.90414 -0.23177,-1.55673 -0.69726,-1.95507 -0.46102,-0.40284 -1.11971,-0.60352 -1.97461,-0.60352 z m 7.31836,0 c -0.52816,0 -0.99699,0.098 -1.4043,0.29492 -0.40731,0.19247 -0.73234,0.462 -0.97851,0.80664 -0.24618,0.34464 -0.43327,0.73519 -0.5586,1.17383 -0.12532,0.43417 -0.1875,0.90772 -0.1875,1.41797 0,0.44759 0.0608,0.87256 0.18164,1.27539 0.12532,0.40283 0.30574,0.77034 0.54297,1.10156 0.23722,0.33122 0.55477,0.59408 0.95313,0.79102 0.40283,0.19694 0.8575,0.29492 1.36328,0.29492 0.52368,0 0.97225,-0.10409 1.34375,-0.31445 0.37597,-0.21037 0.66715,-0.50016 0.87304,-0.86719 l 0.0195,0.83398 0,0.19336 c 0,0.89071 -0.18376,1.53386 -0.55079,1.92774 -0.36254,0.39388 -0.92464,0.58984 -1.68554,0.58984 -0.55949,0 -1.24927,-0.0946 -2.06836,-0.28711 l -0.0859,0.93945 c 0.80567,0.18352 1.5232,0.27539 2.1543,0.27539 1.15926,2e-5 1.99227,-0.31754 2.49804,-0.95312 0.51026,-0.63111 0.76563,-1.56681 0.76563,-2.80664 l 0,-6.53906 -1.01367,0 -0.0684,1.01953 c -0.42522,-0.77881 -1.12248,-1.16797 -2.09375,-1.16797 z m 7.8418,0 c -0.93995,0 -1.7155,0.3378 -2.32422,1.01367 -0.60872,0.67586 -0.91211,1.58187 -0.91211,2.71875 0,1.12345 0.31144,2.01392 0.93359,2.67188 0.62215,0.65348 1.43156,0.98046 2.42969,0.98046 0.89518,0 1.69377,-0.20678 2.39648,-0.62304 l -0.23437,-0.78711 c -0.37598,0.18799 -0.71517,0.32983 -1.01953,0.42383 -0.30436,0.094 -0.64413,0.14062 -1.01563,0.14062 -0.68481,0 -1.23885,-0.21622 -1.66406,-0.65039 -0.42522,-0.43864 -0.65561,-1.11149 -0.69141,-2.01562 l 4.80078,0 0.0391,-0.5625 c 0,-1.03842 -0.23511,-1.84978 -0.70508,-2.43164 -0.4655,-0.58635 -1.1425,-0.87891 -2.0332,-0.87891 z m 7.47265,0 c -0.90861,0 -1.63891,0.3986 -2.18945,1.19531 l -0.12696,-1.04687 -0.90039,0 0,7.10351 1.11524,0 0,-4.33203 c 0.094,-0.62215 0.2994,-1.12011 0.61719,-1.49609 0.32226,-0.38046 0.75667,-0.57032 1.30273,-0.57031 0.49683,0 0.83602,0.18514 1.01953,0.55664 0.18352,0.36702 0.27539,0.98518 0.27539,1.85351 l 0,3.98828 1.11524,0 0,-3.64648 c 0.0135,-0.61768 0.0384,-0.98658 0.0742,-1.10742 0.12085,-0.53264 0.34985,-0.94068 0.68554,-1.22266 0.3357,-0.28199 0.7168,-0.42188 1.14649,-0.42187 0.19246,-2e-5 0.36067,0.0277 0.5039,0.0859 0.1477,0.0537 0.26457,0.13949 0.34961,0.25586 0.0895,0.11638 0.16111,0.23462 0.21485,0.35547 0.0537,0.11637 0.0909,0.27043 0.11328,0.46289 0.0222,0.19247 0.0363,0.35596 0.041,0.49024 0.009,0.1298 0.0137,0.30273 0.0137,0.51757 l 0,4.23047 1.11329,0 0,-4.58008 c 0,-1.78141 -0.72364,-2.67187 -2.17383,-2.67187 -1.02946,0 -1.81112,0.48104 -2.34375,1.44336 -0.16561,-0.45207 -0.40071,-0.80542 -0.70508,-1.06055 -0.30436,-0.25512 -0.72461,-0.38281 -1.26172,-0.38281 z m 11.13867,0 c -0.93994,0 -1.71549,0.3378 -2.32422,1.01367 -0.60872,0.67586 -0.9121,1.58187 -0.9121,2.71875 0,1.12345 0.31144,2.01392 0.93359,2.67188 0.62215,0.65348 1.43156,0.98046 2.42969,0.98046 0.89518,0 1.69377,-0.20678 2.39648,-0.62304 l -0.23437,-0.78711 c -0.37598,0.18799 -0.71713,0.32983 -1.02149,0.42383 -0.30436,0.094 -0.64217,0.14062 -1.01367,0.14062 -0.68481,0 -1.23885,-0.21622 -1.66406,-0.65039 -0.42522,-0.43864 -0.65561,-1.11149 -0.69141,-2.01562 l 4.79883,0 0.041,-0.5625 c 0,-1.03842 -0.2351,-1.84978 -0.70507,-2.43164 -0.4655,-0.58635 -1.1425,-0.87891 -2.03321,-0.87891 z m 7.75391,0 c -1.06975,0 -1.87305,0.37695 -2.41016,1.12891 l -0.12109,-0.98047 -0.9668,0 0,7.10351 1.11524,0 0,-3.96289 c 0,-1.62476 0.72834,-2.43554 2.1875,-2.43554 0.54158,-2e-5 0.91992,0.16348 1.13476,0.49023 0.21484,0.32226 0.32227,0.8033 0.32227,1.44336 l 0,4.46484 1.11523,0 0,-4.3457 c 0,-0.97575 -0.19458,-1.70272 -0.58398,-2.18164 -0.38493,-0.4834 -0.98283,-0.72461 -1.79297,-0.72461 z m -75.29688,0.0742 c -0.42968,0 -0.8391,0.11963 -1.22851,0.36133 -0.38493,0.23722 -0.71191,0.61279 -0.98047,1.12304 l -0.11914,-1.41015 -0.89453,0 0,7.10351 1.11523,0 0,-4.02343 c 0,-0.63111 0.19597,-1.16488 0.58985,-1.60352 0.39836,-0.43864 0.90299,-0.6582 1.51172,-0.6582 0.12532,0 0.27799,0.0189 0.45703,0.0547 l 0.0469,-0.91406 c -0.1298,-0.0224 -0.29663,-0.0332 -0.49805,-0.0332 z m -21.470699,0.0742 1.994141,7.10351 1.060547,0 1.867187,-6.12304 1.97461,6.12304 0.986328,0 1.914062,-7.10351 -1.021484,0 -1.416016,5.71875 -1.853515,-5.71875 -1.1875,0 -1.746094,5.74023 -1.517578,-5.74023 z m -3.988281,0.70508 c 0.729574,0 1.280843,0.26146 1.652344,0.78515 0.3715,0.5192 0.55664,1.21175 0.55664,2.08008 0,0.55501 -0.07633,1.04077 -0.228515,1.45703 -0.152181,0.41179 -0.398112,0.74349 -0.738281,0.99414 -0.335695,0.24617 -0.749837,0.36914 -1.242188,0.36914 -0.716145,0 -1.260742,-0.26008 -1.636719,-0.7793 -0.375976,-0.51919 -0.564453,-1.20092 -0.564453,-2.04687 0,-0.86385 0.188477,-1.55502 0.564453,-2.07422 0.375977,-0.52369 0.920574,-0.78516 1.636719,-0.78515 z m 17.966797,0 c 1.127927,0 1.719724,0.76415 1.773437,2.29492 l -3.867187,0 c 0.06266,-0.7072 0.280274,-1.26596 0.65625,-1.67774 0.380453,-0.41178 0.860107,-0.61719 1.4375,-0.61718 z m 48.634763,0 c 1.35621,0 2.03516,0.83577 2.03516,2.50976 l 0,0.59766 c 0,0.32226 -0.0358,0.61816 -0.10742,0.88672 -0.0716,0.26856 -0.18515,0.51587 -0.3418,0.74414 -0.15218,0.2238 -0.36564,0.40007 -0.63867,0.52539 -0.27304,0.12532 -0.5953,0.1875 -0.9668,0.1875 -0.37597,0 -0.70296,-0.0763 -0.98047,-0.22852 -0.27303,-0.15218 -0.48316,-0.35759 -0.63086,-0.61719 -0.1477,-0.26408 -0.25512,-0.54581 -0.32226,-0.8457 -0.0671,-0.29989 -0.10157,-0.62549 -0.10157,-0.97461 10e-6,-0.36703 0.0344,-0.70622 0.10157,-1.01953 0.0716,-0.31779 0.18237,-0.61369 0.33008,-0.88672 0.15218,-0.27303 0.36368,-0.48788 0.63671,-0.64453 0.27751,-0.15666 0.60589,-0.23437 0.98633,-0.23437 z m 7.81641,0 c 1.12791,0 1.71775,0.76415 1.77148,2.29492 l -3.86718,0 c 0.0627,-0.7072 0.28222,-1.26596 0.6582,-1.67774 0.38045,-0.41178 0.86011,-0.61719 1.4375,-0.61718 z m 18.60937,0 c 1.12791,0 1.71971,0.76415 1.77344,2.29492 l -3.86719,0 c 0.0627,-0.7072 0.28223,-1.26596 0.65821,-1.67774 0.38045,-0.41178 0.85815,-0.61719 1.43554,-0.61718 z m -47.74218,2.98046 0.85351,0 0,1.56446 c -0.53263,0.78328 -1.25821,1.17382 -2.17578,1.17382 -0.33569,0 -0.61605,-0.10741 -0.83984,-0.32226 -0.2238,-0.21484 -0.33399,-0.51823 -0.33399,-0.91211 0,-0.21932 0.0183,-0.40307 0.0586,-0.55078 0.0403,-0.15218 0.11523,-0.29069 0.22265,-0.41602 0.10742,-0.1298 0.25537,-0.23112 0.44336,-0.30273 0.18799,-0.0761 0.42782,-0.13356 0.71875,-0.17383 0.29094,-0.0403 0.64095,-0.0606 1.05274,-0.0606 z m 14.66406,0 0.85156,0 0,1.56446 c -0.53263,0.78328 -1.25627,1.17382 -2.17383,1.17382 -0.33569,0 -0.61605,-0.10741 -0.83984,-0.32226 -0.2238,-0.21484 -0.33594,-0.51823 -0.33594,-0.91211 0,-0.21932 0.0203,-0.40307 0.0606,-0.55078 0.0403,-0.15218 0.11328,-0.29069 0.2207,-0.41602 0.10742,-0.1298 0.25537,-0.23112 0.44336,-0.30273 0.18799,-0.0761 0.42781,-0.13356 0.71875,-0.17383 0.29093,-0.0403 0.64291,-0.0606 1.05469,-0.0606 z M 20,142 l 0,1 216,0 0,-1 z m 208.35742,48.28711 c -0.5013,0 -0.9965,0.073 -1.48437,0.2207 -0.48788,0.14324 -0.88176,0.3256 -1.18164,0.54492 l 0.32812,0.85157 c 0.30883,-0.20142 0.66081,-0.36491 1.05469,-0.49024 0.39836,-0.12532 0.78613,-0.1875 1.16211,-0.1875 0.17008,0 0.33358,0.0155 0.49023,0.0469 0.15666,0.0269 0.32015,0.0829 0.49024,0.16797 0.17008,0.0806 0.31469,0.1866 0.43554,0.3164 0.12085,0.12533 0.22217,0.29631 0.30274,0.51563 0.0806,0.21932 0.12109,0.4733 0.12109,0.75976 0,0.26408 -0.0283,0.50529 -0.082,0.72461 -0.0492,0.21485 -0.1425,0.43579 -0.28125,0.66407 -0.13875,0.22826 -0.26172,0.41202 -0.36914,0.55078 -0.10742,0.13875 -0.28507,0.35221 -0.53125,0.63867 l -3.16211,3.73242 0.17578,0.87891 5.24219,0 0.0605,-0.80469 -4.22266,0 2.63281,-3.08203 c 0.3178,-0.3715 0.56372,-0.67684 0.73828,-0.91406 0.17904,-0.23723 0.34253,-0.49064 0.49024,-0.76368 0.15216,-0.2775 0.25486,-0.55176 0.30859,-0.82031 0.0582,-0.26855 0.0859,-0.57194 0.0859,-0.91211 0,-0.3894 -0.0575,-0.73999 -0.17383,-1.04883 -0.11637,-0.31331 -0.26904,-0.56534 -0.45703,-0.75781 -0.18799,-0.19694 -0.40756,-0.3571 -0.6582,-0.48242 -0.25066,-0.12984 -0.5013,-0.22033 -0.75196,-0.26953 -0.24617,-0.0537 -0.49959,-0.0801 -0.76367,-0.0801 z m -97.35547,0.0527 -1.10156,0.082 0,7.76757 c 0,0.42521 0.05,0.77856 0.14844,1.06055 0.0985,0.27751 0.25114,0.48902 0.45703,0.63672 0.20589,0.14769 0.43766,0.25235 0.69726,0.31055 0.26409,0.0537 0.59107,0.0801 0.98047,0.0801 l 0.53125,0 0.0586,-0.76562 -0.30078,-0.0195 c -0.19247,-0.0135 -0.34376,-0.0262 -0.45118,-0.0352 -0.10742,-0.0134 -0.22233,-0.0303 -0.34765,-0.0527 -0.12085,-0.0269 -0.21273,-0.058 -0.27539,-0.0937 -0.0582,-0.0403 -0.11898,-0.0902 -0.18164,-0.14844 -0.0627,-0.0582 -0.1079,-0.13118 -0.13477,-0.2207 -0.0223,-0.0895 -0.0426,-0.19222 -0.0606,-0.3086 -0.0134,-0.11637 -0.0195,-0.25822 -0.0195,-0.42383 l 0,-7.86914 z m 4.26953,0 -1.0996,0.082 0,7.76757 c 0,0.42521 0.048,0.77856 0.14648,1.06055 0.0985,0.27751 0.25114,0.48902 0.45703,0.63672 0.20589,0.14769 0.43766,0.25235 0.69727,0.31055 0.26408,0.0537 0.59107,0.0801 0.98046,0.0801 l 0.53126,0 0.0605,-0.76562 -0.30273,-0.0195 c -0.19247,-0.0135 -0.3418,-0.0262 -0.44922,-0.0352 -0.10742,-0.0134 -0.22428,-0.0303 -0.34961,-0.0527 -0.12085,-0.0269 -0.21272,-0.058 -0.27539,-0.0937 -0.0582,-0.0403 -0.11898,-0.0902 -0.18164,-0.14844 -0.0627,-0.0582 -0.1079,-0.13118 -0.13477,-0.2207 -0.0223,-0.0895 -0.0407,-0.19222 -0.0586,-0.3086 -0.0134,-0.11637 -0.0215,-0.25822 -0.0215,-0.42383 l 0,-7.86914 z m -67.138668,0.082 0,0.89843 2.914063,0 0,8.90235 1.181641,0 0,-8.90235 2.933593,0 0,-0.89843 z m 8.923829,0 c -0.214844,0 -0.392497,0.0669 -0.53125,0.20117 -0.134278,0.1298 -0.201172,0.2994 -0.201172,0.50976 0,0.21037 0.06689,0.3833 0.201172,0.51758 0.138753,0.13428 0.316406,0.20117 0.53125,0.20117 0.210368,0 0.384684,-0.0669 0.523437,-0.20117 0.138753,-0.13428 0.207031,-0.30721 0.207031,-0.51758 0,-0.21036 -0.06828,-0.37996 -0.207031,-0.50976 -0.134277,-0.13428 -0.308593,-0.20117 -0.523437,-0.20117 z m 23.652339,0 0,0.89843 2.91407,0 0,8.90235 1.18164,0 0,-8.90235 2.93359,0 0,-0.89843 z m 18.78516,0 0,9.80078 1.20117,0 0,-4.49024 3.97461,0 0,-0.85937 -3.97461,0 0,-3.54493 4.27149,0 0.0664,-0.90624 z m 7.70117,0 c -0.21484,0 -0.39249,0.0669 -0.53125,0.20117 -0.13427,0.1298 -0.20117,0.2994 -0.20117,0.50976 0,0.21037 0.0669,0.3833 0.20117,0.51758 0.13876,0.13428 0.31641,0.20117 0.53125,0.20117 0.21037,0 0.38469,-0.0669 0.52344,-0.20117 0.13875,-0.13428 0.20898,-0.30721 0.20898,-0.51758 0,-0.21036 -0.0702,-0.37996 -0.20898,-0.50976 -0.13427,-0.13428 -0.30859,-0.20117 -0.52344,-0.20117 z m 81.44336,0 c -0.23274,0.16113 -0.58333,0.32267 -1.04883,0.48828 -0.46102,0.16113 -0.85962,0.27661 -1.19531,0.34375 l 0,0.88671 c 0.29989,-0.0403 0.66268,-0.12939 1.08789,-0.26367 0.42969,-0.13427 0.78638,-0.27888 1.06836,-0.43554 l 0,7.97656 -2.36328,0 0,0.80469 5.58594,0 0,-0.80469 -2.10742,0 0,-8.99609 z m 11.68164,0 c -0.23274,0.16113 -0.58138,0.32267 -1.04687,0.48828 -0.46102,0.16113 -0.85962,0.27661 -1.19532,0.34375 l 0,0.88671 c 0.29989,-0.0403 0.66268,-0.12939 1.0879,-0.26367 0.42968,-0.13427 0.78442,-0.27888 1.0664,-0.43554 l 0,7.97656 -2.36328,0 0,0.80469 5.58594,0 0,-0.80469 -2.10742,0 0,-8.99609 z m -137.490232,2.55078 c -0.90861,0 -1.638916,0.3986 -2.189453,1.19531 l -0.126953,-1.04883 -0.900391,0 0,7.10352 1.115235,0 0,-4.33008 c 0.09399,-0.62215 0.299398,-1.12012 0.617187,-1.4961 0.322266,-0.38045 0.756673,-0.57226 1.302735,-0.57226 0.496825,0 0.837972,0.18709 1.021484,0.55859 0.183513,0.36703 0.275391,0.98323 0.27539,1.85157 l 0,3.98828 1.113282,0 0,-3.64454 c 0.01343,-0.61767 0.03841,-0.98657 0.07422,-1.10742 0.120851,-0.53263 0.349854,-0.94067 0.685547,-1.22265 0.335694,-0.28199 0.716797,-0.42383 1.146485,-0.42383 0.192464,0 0.360677,0.0297 0.503906,0.0879 0.147705,0.0537 0.264567,0.13949 0.349609,0.25586 0.08952,0.11637 0.161131,0.23462 0.214844,0.35547 0.05371,0.11638 0.0909,0.27043 0.113281,0.46289 0.02239,0.19246 0.03655,0.35596 0.04102,0.49023 0.009,0.12981 0.01367,0.30274 0.01367,0.51758 l 0,4.22852 1.115234,0 0,-4.57813 c 0,-1.78141 -0.725586,-2.67187 -2.175781,-2.67187 -1.02946,0 -1.811117,0.48104 -2.34375,1.44336 -0.165609,-0.45207 -0.400716,-0.80542 -0.705078,-1.06055 -0.304362,-0.25513 -0.72461,-0.38281 -1.261719,-0.38281 z m 11.138672,0 c -0.939941,0 -1.715495,0.3378 -2.324219,1.01367 -0.608724,0.67586 -0.912109,1.58187 -0.912109,2.71875 0,1.12345 0.311442,2.01391 0.933594,2.67187 0.622152,0.65349 1.431559,0.98047 2.429687,0.98047 0.895183,0 1.693765,-0.20874 2.396485,-0.625 l -0.234376,-0.78515 c -0.375974,0.18799 -0.717122,0.32983 -1.021484,0.42382 -0.304362,0.094 -0.642171,0.14063 -1.013672,0.14063 -0.684814,0 -1.238851,-0.21818 -1.664062,-0.65234 -0.425213,-0.43864 -0.6556,-1.10954 -0.691406,-2.01368 l 4.800781,0 0.03906,-0.56445 c 0,-1.03841 -0.235107,-1.84782 -0.705078,-2.42969 -0.465495,-0.58634 -1.142497,-0.8789 -2.033201,-0.8789 z m 17.375,0 c -1.04289,0 -1.86173,0.33919 -2.45703,1.01953 -0.59082,0.67586 -0.88672,1.57104 -0.88672,2.68554 0,1.08765 0.30062,1.97535 0.90039,2.66016 0.59977,0.68034 1.4139,1.01953 2.44336,1.01953 1.00708,0 1.81649,-0.34252 2.42969,-1.02734 0.6132,-0.68929 0.91992,-1.57365 0.91992,-2.65235 0,-1.1145 -0.29395,-2.00968 -0.88477,-2.68554 -0.59082,-0.68034 -1.413,-1.01953 -2.46484,-1.01953 z m -34.845703,0.14648 0,7.10352 1.101562,0 0,-7.10352 z m 50.140623,0 0,7.10352 1.09961,0 0,-7.10352 z m 12.57422,0 c -0.26408,0 -0.4681,0.0763 -0.61133,0.22852 -0.14322,0.1477 -0.21484,0.32202 -0.21484,0.52343 0,0.2059 0.0716,0.38493 0.21484,0.53711 0.14323,0.14771 0.34725,0.22266 0.61133,0.22266 0.26408,0 0.46476,-0.075 0.60352,-0.22266 0.14322,-0.15218 0.21484,-0.33121 0.21484,-0.53711 0,-0.20141 -0.0716,-0.37573 -0.21484,-0.52343 -0.13876,-0.15218 -0.33944,-0.22852 -0.60352,-0.22852 z m 75.27344,0 c -0.26408,0 -0.4681,0.0763 -0.61133,0.22852 -0.14323,0.1477 -0.21484,0.32202 -0.21484,0.52343 0,0.2059 0.0716,0.38493 0.21484,0.53711 0.14323,0.14771 0.34725,0.22266 0.61133,0.22266 0.26408,0 0.46476,-0.075 0.60351,-0.22266 0.14323,-0.15218 0.21485,-0.33121 0.21485,-0.53711 0,-0.20141 -0.0716,-0.37573 -0.21485,-0.52343 -0.13875,-0.15218 -0.33943,-0.22852 -0.60351,-0.22852 z m -120.492189,0.70508 c 1.127927,0 1.719724,0.76611 1.773437,2.29687 l -3.867187,0 c 0.06266,-0.7072 0.282226,-1.26595 0.658203,-1.67773 0.380452,-0.41179 0.858154,-0.61914 1.435547,-0.61914 z m 17.349609,0 c 0.72957,0 1.28084,0.26342 1.65234,0.78711 0.3715,0.5192 0.55664,1.21175 0.55664,2.08008 0,0.55501 -0.0763,1.04077 -0.22851,1.45703 -0.15218,0.41178 -0.39812,0.74348 -0.73828,0.99414 -0.3357,0.24617 -0.74984,0.36914 -1.24219,0.36914 -0.71615,0 -1.2627,-0.26009 -1.63867,-0.7793 -0.37598,-0.5192 -0.56446,-1.20093 -0.56446,-2.04687 0,-0.86386 0.18848,-1.55502 0.56446,-2.07422 0.37597,-0.52369 0.92252,-0.78711 1.63867,-0.78711 z m 27.86914,4.96875 c -0.26408,0 -0.4681,0.075 -0.61133,0.22265 -0.14322,0.14771 -0.21484,0.32341 -0.21484,0.5293 0,0.20142 0.0716,0.37907 0.21484,0.53125 0.14323,0.14771 0.34725,0.2207 0.61133,0.22071 0.26408,0 0.46476,-0.073 0.60352,-0.22071 0.14322,-0.15218 0.21484,-0.32983 0.21484,-0.53125 0,-0.20589 -0.0716,-0.38159 -0.21484,-0.5293 -0.13876,-0.1477 -0.33944,-0.22265 -0.60352,-0.22265 z m 75.27344,0 c -0.26408,0 -0.4681,0.075 -0.61133,0.22265 -0.14323,0.14771 -0.21484,0.32341 -0.21484,0.5293 0,0.20142 0.0716,0.37907 0.21484,0.53125 0.14323,0.14771 0.34725,0.2207 0.61133,0.22071 0.26408,0 0.46476,-0.073 0.60351,-0.22071 0.14323,-0.15218 0.21485,-0.32983 0.21485,-0.53125 0,-0.20589 -0.0716,-0.38159 -0.21485,-0.5293 -0.13875,-0.1477 -0.33943,-0.22265 -0.60351,-0.22265 z M 73.316406,210.28711 c -0.917562,0 -1.726969,0.21152 -2.429687,0.63672 -0.698242,0.42073 -1.235352,1.00922 -1.611328,1.76562 -0.375977,0.75647 -0.564454,1.62388 -0.564453,2.59961 0,0.76094 0.113524,1.45822 0.341796,2.09375 0.232748,0.6356 0.555014,1.17134 0.966797,1.60547 0.411784,0.42973 0.903646,0.76419 1.476563,1.00586 0.577392,0.23727 1.204996,0.35742 1.880859,0.35742 0.966797,0 1.827554,-0.19319 2.583985,-0.57812 l -0.275391,-0.87891 c -0.734049,0.34467 -1.461019,0.51563 -2.181641,0.51563 -1.110026,0 -1.989665,-0.37363 -2.638672,-1.1211 -0.644531,-0.74746 -0.966796,-1.73453 -0.966796,-2.96094 0,-1.22193 0.314778,-2.21033 0.941406,-2.96679 0.631104,-0.76087 1.490479,-1.14063 2.578125,-1.14063 0.845947,0 1.583741,0.19598 2.214843,0.58985 l 0.388672,-0.77149 c -0.698242,-0.50126 -1.599528,-0.75195 -2.705078,-0.75195 z m 131.978514,0 c -0.62662,0 -1.18261,0.13856 -1.66601,0.41601 -0.4834,0.27307 -0.8523,0.64057 -1.10743,1.10157 -0.25512,0.461 -0.38281,0.97311 -0.38281,1.53711 0,0.4252 0.0811,0.82384 0.24219,1.19531 0.16113,0.36707 0.37598,0.67511 0.64453,0.92578 0.26855,0.24613 0.57999,0.44072 0.93359,0.58399 0.35808,0.14319 0.7317,0.21484 1.1211,0.21484 0.46102,0 0.89819,-0.11214 1.31445,-0.33594 -0.34465,0.44313 -0.5717,0.73905 -0.68359,0.88672 l -2.54492,3.41016 1.3164,0 2.39649,-3.27539 c 0.2775,-0.38047 0.48763,-0.67778 0.63086,-0.89258 0.1477,-0.21934 0.30509,-0.4855 0.4707,-0.79883 0.16561,-0.3178 0.28053,-0.62786 0.34765,-0.92774 0.0716,-0.29986 0.10743,-0.62213 0.10743,-0.96679 0,-0.4028 -0.0683,-0.78723 -0.20703,-1.1543 -0.13876,-0.367 -0.33805,-0.694 -0.59766,-0.98047 -0.2596,-0.28646 -0.59131,-0.51548 -0.99414,-0.68554 -0.40283,-0.17007 -0.84945,-0.25391 -1.3418,-0.25391 z m -98.88672,0.13477 c -0.21484,-10e-6 -0.39054,0.0668 -0.52929,0.20117 -0.13428,0.1298 -0.20118,0.29943 -0.20118,0.50976 0,0.2104 0.0669,0.38331 0.20118,0.51758 0.13875,0.13427 0.31445,0.20117 0.52929,0.20117 0.21037,0 0.38664,-0.0669 0.52539,-0.20117 0.13876,-0.13427 0.20703,-0.30718 0.20703,-0.51758 0,-0.21033 -0.0683,-0.37996 -0.20703,-0.50976 -0.13428,-0.13434 -0.31055,-0.20118 -0.52539,-0.20117 z m 104.47266,0 -0.18945,5.18945 0.90039,0.10742 c 0.20588,-0.21933 0.46598,-0.39364 0.77929,-0.52344 0.31332,-0.1298 0.63558,-0.19531 0.9668,-0.19531 0.45207,0 0.83041,0.10133 1.13477,0.30273 0.30436,0.19694 0.52059,0.45034 0.65039,0.76368 0.1298,0.30886 0.19531,0.66416 0.19531,1.0625 0,0.72506 -0.20068,1.28854 -0.60352,1.6914 -0.39835,0.39834 -0.93409,0.59766 -1.60546,0.59766 -0.75196,0 -1.55998,-0.24456 -2.42383,-0.73242 l -0.38282,0.86718 c 0.97128,0.5416 1.93197,0.81055 2.88086,0.81055 0.46102,0 0.88737,-0.0682 1.28125,-0.20703 0.39388,-0.13873 0.73975,-0.33945 1.03516,-0.60352 0.29989,-0.26853 0.53166,-0.61107 0.69727,-1.02734 0.17008,-0.42073 0.25585,-0.8943 0.25585,-1.41797 0,-0.5506 -0.11213,-1.04717 -0.33593,-1.49023 -0.21932,-0.4476 -0.55575,-0.80701 -1.00781,-1.08008 -0.45207,-0.27747 -0.98446,-0.41602 -1.59766,-0.41602 -0.67139,0 -1.26929,0.1757 -1.79297,0.5293 l 0.10742,-3.34375 4.12305,0 0.0879,-0.88476 -5.15625,0 z m 17.93164,0 -5.57227,9.80078 0.88672,0 5.50586,-9.80078 z m -5.67969,0.006 c -0.72062,0 -1.27938,0.2318 -1.67773,0.69727 -0.39836,0.461 -0.59766,1.0589 -0.59766,1.79297 0,0.73853 0.19597,1.34117 0.58985,1.80664 0.39388,0.46553 0.95597,0.69727 1.68554,0.69727 0.7251,0 1.2872,-0.23174 1.68555,-0.69727 0.39836,-0.46993 0.59766,-1.07257 0.59766,-1.80664 0,-0.74747 -0.19792,-1.34816 -0.5918,-1.80469 -0.38941,-0.45653 -0.95288,-0.68555 -1.69141,-0.68555 z m 0.008,0.625 c 0.5013,0 0.87493,0.16622 1.1211,0.50196 0.25065,0.3312 0.375,0.78449 0.375,1.35742 0,0.55947 -0.12435,1.01415 -0.375,1.36328 -0.24617,0.34467 -0.6198,0.51563 -1.1211,0.51563 -0.5013,0 -0.87825,-0.16957 -1.1289,-0.50977 -0.25065,-0.34013 -0.375,-0.79621 -0.375,-1.36914 0,-0.55947 0.12435,-1.00941 0.375,-1.34961 0.25065,-0.3402 0.62761,-0.50977 1.1289,-0.50977 z m -17.8125,0.11329 c 0.64901,0 1.1517,0.20406 1.50977,0.61132 0.35807,0.40734 0.53711,0.91192 0.53711,1.51172 0,0.30434 -0.0466,0.58137 -0.14062,0.83203 -0.0895,0.24614 -0.20638,0.44685 -0.34961,0.60352 -0.14323,0.1522 -0.30811,0.28322 -0.4961,0.39062 -0.18798,0.10307 -0.37646,0.17604 -0.56445,0.22071 -0.18351,0.04 -0.36728,0.0605 -0.55078,0.0605 -0.64006,0 -1.14136,-0.18984 -1.50391,-0.57031 -0.36255,-0.38493 -0.54297,-0.88484 -0.54297,-1.49805 0,-0.6042 0.18514,-1.11498 0.55664,-1.53124 0.37598,-0.42074 0.89144,-0.63086 1.54492,-0.63086 z m -94.8164,0.008 -0.89258,0.0664 -0.18164,1.87891 -1.0957,0.0742 -0.0254,0.63086 1.09375,0 0,4.27148 c 0,0.43414 0.0372,0.78414 0.11328,1.05274 0.0761,0.26853 0.21321,0.49148 0.41015,0.66601 0.20142,0.1746 0.46151,0.2942 0.7793,0.36133 0.31779,0.0671 0.73331,0.10156 1.24805,0.10156 l 0.46289,0 0.0547,-0.76562 -0.56446,-0.0273 c -0.5953,-0.0224 -0.97834,-0.11566 -1.14844,-0.28126 -0.17007,-0.17006 -0.2539,-0.53895 -0.2539,-1.10742 l 0,-4.27148 1.8789,0 0,-0.70508 -1.8789,0 0,-1.94531 z M 80.070502,212.973 c -0.948892,0 -1.803547,0.17569 -2.564453,0.52929 l 0.302735,0.82032 c 0.326742,-0.15667 0.697022,-0.27829 1.113281,-0.36329 0.41626,-0.0895 0.80542,-0.13476 1.167969,-0.13476 0.537109,0 0.929606,0.12768 1.175781,0.38281 0.250651,0.25513 0.376953,0.64291 0.376953,1.16211 l 0,0.69727 -1.134766,0 c -1.141356,0 -1.974364,0.18238 -2.498046,0.54492 -0.519206,0.35806 -0.779297,0.92154 -0.779297,1.6914 0,0.64454 0.197917,1.14919 0.591797,1.51172 0.398356,0.3626 0.922687,0.54297 1.576172,0.54297 0.975747,0 1.768229,-0.37356 2.376953,-1.12109 l 0.121093,0.98047 0.845704,0 0,-4.6875 c 0,-0.90414 -0.231771,-1.55479 -0.697266,-1.95313 -0.461019,-0.40286 -1.11971,-0.60351 -1.97461,-0.60351 z m 7.822266,0 c -1.024984,0 -1.800537,0.46213 -2.324219,1.38867 l -0.113281,-1.24219 -0.925781,0 0,10.21875 1.113281,0 0,-2.67187 -0.04687,-1.64454 c 0.528158,0.89074 1.286215,1.33594 2.275391,1.33594 0.93099,0 1.656576,-0.33641 2.175781,-1.00781 0.519206,-0.6714 0.779297,-1.55714 0.779297,-2.6582 0,-1.14587 -0.250651,-2.05189 -0.751953,-2.71875 -0.496827,-0.66694 -1.223796,-1 -2.181646,-1 z m 7.001953,0 c -0.948892,0 -1.803548,0.17569 -2.564453,0.52929 l 0.302734,0.82032 c 0.326742,-0.15667 0.697022,-0.27829 1.113282,-0.36329 0.41626,-0.0895 0.805421,-0.13476 1.167968,-0.13476 0.53711,0 0.929606,0.12768 1.175782,0.38281 0.25065,0.25513 0.375,0.64291 0.375,1.16211 l 0,0.69727 -1.132813,0 c -1.141357,0 -1.974365,0.18238 -2.498047,0.54492 -0.519205,0.35806 -0.779296,0.92154 -0.779296,1.6914 -10e-7,0.64454 0.197916,1.14919 0.591796,1.51172 0.398356,0.3626 0.922689,0.54297 1.576172,0.54297 0.975749,0 1.768229,-0.37356 2.376953,-1.12109 l 0.121094,0.98047 0.845703,0 0,-4.6875 c 0,-0.90414 -0.23177,-1.55479 -0.697265,-1.95313 -0.461019,-0.40286 -1.11971,-0.60351 -1.97461,-0.60351 z m 7.472659,0 c -0.98918,0 -1.79249,0.33306 -2.410159,1 -0.617675,0.6624 -0.925781,1.57315 -0.925781,2.73242 0,1.11006 0.298665,1.9958 0.898438,2.6582 0.604252,0.66247 1.415602,0.99414 2.431642,0.99414 0.43416,0 0.82332,-0.0513 1.16797,-0.1543 0.34464,-0.10293 0.59196,-0.21513 0.74414,-0.33593 l -0.20703,-0.75781 c -0.45207,0.2596 -0.95199,0.38867 -1.49805,0.38867 -0.78329,0 -1.37785,-0.25675 -1.78516,-0.77149 -0.4073,-0.51473 -0.61132,-1.18895 -0.61132,-2.02148 0,-0.87727 0.21346,-1.57455 0.63867,-2.09375 0.42521,-0.5192 0.98868,-0.7793 1.6914,-0.7793 0.55502,0 1.04826,0.12907 1.48243,0.38867 l 0.3164,-0.76562 c -0.15218,-0.10294 -0.39811,-0.20704 -0.73828,-0.31446 -0.33569,-0.11193 -0.73429,-0.16796 -1.19531,-0.16796 z m 3.48437,0.14648 0,7.10352 1.10156,0 0,-7.10352 z m 7.61328,0 2.81446,6.88867 -1.04883,2.67188 1.00195,0.21484 3.73828,-9.77539 -1.12695,0 -2.02734,5.67383 -2.2168,-5.67383 z m 8.58789,0 c -0.26408,0 -0.4681,0.0763 -0.61132,0.22852 -0.14324,0.14766 -0.21485,0.32197 -0.21485,0.52343 0,0.20587 0.0716,0.38491 0.21485,0.53711 0.14322,0.14767 0.34724,0.22266 0.61132,0.22266 0.26408,0 0.46477,-0.075 0.60352,-0.22266 0.14323,-0.1522 0.21484,-0.33124 0.21484,-0.53711 0,-0.20146 -0.0716,-0.37577 -0.21484,-0.52343 -0.13875,-0.1522 -0.33944,-0.22852 -0.60352,-0.22852 z m -34.289058,0.70508 c 1.280111,0 1.921875,0.95125 1.921875,2.85351 0,1.88434 -0.663412,2.82618 -1.988281,2.82618 -0.671387,0 -1.189616,-0.25675 -1.556641,-0.77149 -0.362549,-0.51473 -0.544922,-1.23697 -0.544922,-2.16797 0.0045,-0.85933 0.183512,-1.53027 0.537109,-2.01367 0.353597,-0.4834 0.896811,-0.72656 1.63086,-0.72656 z m 141.990238,1.4043 c -0.72063,0 -1.28134,0.23179 -1.67969,0.69726 -0.39835,0.46553 -0.59766,1.06678 -0.59766,1.80078 0,0.73854 0.19792,1.33916 0.5918,1.80469 0.39388,0.46547 0.95597,0.69922 1.68555,0.69922 0.72509,0 1.28523,-0.23375 1.68359,-0.69922 0.39835,-0.47 0.59766,-1.07062 0.59766,-1.80469 0,-0.74746 -0.19597,-1.3501 -0.58985,-1.80664 -0.3894,-0.461 -0.95288,-0.6914 -1.6914,-0.6914 z m 0.006,0.63086 c 0.5013,0 0.87491,0.16823 1.12109,0.5039 0.25065,0.3312 0.37695,0.78254 0.37695,1.35547 0,0.55947 -0.1263,1.01415 -0.37695,1.36328 -0.24618,0.34913 -0.61979,0.52344 -1.12109,0.52344 -0.5013,0 -0.87826,-0.16963 -1.12891,-0.50977 -0.25065,-0.34466 -0.375,-0.80402 -0.375,-1.37695 0,-0.55947 0.12435,-1.00941 0.375,-1.34961 0.25065,-0.34013 0.62761,-0.50977 1.12891,-0.50976 z m -148.970708,0.94726 0.853516,0 0,1.56445 c -0.532634,0.78327 -1.25822,1.17383 -2.175781,1.17383 -0.335693,0 -0.616048,-0.1074 -0.839844,-0.32226 -0.223795,-0.2148 -0.335937,-0.51818 -0.335937,-0.91211 0,-0.21927 0.02027,-0.40305 0.06055,-0.55078 0.04028,-0.1522 0.115235,-0.29069 0.222657,-0.41602 0.107422,-0.1298 0.253418,-0.23113 0.441406,-0.30273 0.187989,-0.0763 0.427816,-0.13383 0.71875,-0.17383 0.290935,-0.0407 0.642905,-0.0606 1.054687,-0.0606 z m 14.824219,0 0.851563,0 0,1.56445 c -0.532634,0.78327 -1.256266,1.17383 -2.173828,1.17383 -0.335694,0 -0.616049,-0.1074 -0.839844,-0.32226 -0.223795,-0.2148 -0.335938,-0.51818 -0.335938,-0.91211 0,-0.21927 0.02027,-0.40305 0.06055,-0.55078 0.04028,-0.1522 0.115233,-0.29069 0.222657,-0.41602 0.107421,-0.1298 0.253418,-0.23113 0.441406,-0.30273 0.187988,-0.0763 0.427816,-0.13383 0.71875,-0.17383 0.290934,-0.0407 0.642903,-0.0606 1.054687,-0.0606 z m 26.439449,1.98633 c -0.26408,0 -0.4681,0.0749 -0.61132,0.22265 -0.14324,0.14767 -0.21485,0.32337 -0.21485,0.5293 0,0.2014 0.0716,0.37905 0.21485,0.53125 0.14322,0.14767 0.34724,0.2207 0.61132,0.22071 0.26408,0 0.46477,-0.073 0.60352,-0.22071 0.14323,-0.1522 0.21484,-0.32985 0.21484,-0.53125 0,-0.20593 -0.0716,-0.38163 -0.21484,-0.5293 -0.13875,-0.14773 -0.33944,-0.22265 -0.60352,-0.22265 z"
     id="rect7886"
     inkscape:connector-curvature="0"
     sodipodi:nodetypes="cccccccccscscccsccccccccccccccccccccccccscccsccccscccccccscscsccscscccscsssscsccsscccccsscccccscscscscccscsscccccsccsccscsscccccscscscscccscsccccscccscccscsccccscccccssscsccsscccccssccccccccccsccccsccccccsccsscscccsscsccsscccccccscccccsccsccscscccccccscsccccccccccccccccccccsccscscccccccssscccscccccccscccccccccccccscscccccccccscsccccccccccccccccsccccscccccccccccccsccccccccscccscccccccccsccccscccscccccccccscccccccccccscscscscsccccccccccccccccccccscscscscsccccccccccccccccccccccccccccccccccccscscccccscccccsccsscsccssscscccscccccsscscscscsccccccccccscscscscsscscscscsscccsscsccscscsscscccscsscscccscssccscccsccscscsccssccscccsccccccccscscsccscscsccccccsccscsccscccsccscccccccccccscscscscsscscscsssccsccccscscccccccccscccsccccsccccccscccscscscscscccscsscccccccssscsscccscscscscscccscsscscscccssssscccsccccccccccccccscscscscssssccssscscscscsccscscscccccscscccccccccscsccccccscscccscs" />
  <g
     id="g10275"
     transform="translate(78.357128,-824.7964)">
    <path
       sodipodi:nodetypes="cccccccccccccccccccc"
       inkscape:connector-curvature="0"
       class="ColorScheme-Text"
       d="m -44.857128,916.29637 13.999997,0 0,1 -13.999997,0 z m 4.090912,-2.99998 5.818173,0 0,2.99996 -5.818173,0 z m -11.090911,-21.00003 0,21.00001 27.999995,0 0,-21.00001 z m 0.999994,1.00001 26.000007,10e-6 0,15.99998 -26.000007,0 z"
       style="fill:currentColor;fill-opacity:1;stroke:none"
       id="path3020" />
    <rect
       class="ColorScheme-Text"
       y="893.29639"
       x="-50.85714"
       height="15.999975"
       width="26.000008"
       id="rect3022"
       style="fill:currentColor;fill-opacity:0.5;stroke:none" />
    <path
       d="m -33.893997,900.07443 a 3.9636854,3.9636854 0 1 1 -7.539372,2.44971 3.9636854,3.9636854 0 1 1 7.539372,-2.44971 z"
       id="path4001-3"
       style="fill:currentColor;fill-opacity:1;stroke:none"
       class="ColorScheme-Background"
       inkscape:connector-curvature="0" />
    <path
       d="m -37.878283,898.29381 c 1.647351,0 2.976668,1.33545 2.976668,2.9828 0,1.64735 -1.329317,2.98279 -2.976668,2.98279 l 0,-2.98279 z m -1.919074,-2.99735 0.222449,2.05147 c -0.579436,0.25136 -1.080965,0.62701 -1.482995,1.0752 l -1.890839,-0.84037 1.384129,1.54477 c -0.313683,0.53487 -0.519167,1.12968 -0.58082,1.75488 l -2.014421,0.43256 2.02676,0.43252 c 0.03124,0.29205 0.09107,0.58722 0.185394,0.87745 0.09459,0.29115 0.211218,0.5728 0.35837,0.82799 l -1.384128,1.54481 1.890838,-0.84037 c 0.40899,0.45961 0.916293,0.81502 1.470617,1.06282 l -0.222449,2.07619 1.050474,-1.80431 c 0.589916,0.13145 1.209768,0.14604 1.829028,0.0123 l 1.038096,1.77959 -0.210111,-2.05147 c 0.567216,-0.25037 1.062537,-0.61041 1.458279,-1.05048 l 1.915555,0.84036 -1.396507,-1.55714 c 0.303638,-0.52142 0.490891,-1.11039 0.556143,-1.71778 l 2.039098,-0.43256 -2.02676,-0.4449 c -0.03006,-0.30028 -0.08839,-0.60364 -0.185354,-0.90214 -0.0976,-0.30035 -0.229686,-0.57833 -0.383127,-0.84036 l 1.384129,-1.54481 -1.903177,0.84037 c -0.411482,-0.45475 -0.915858,-0.80711 -1.470617,-1.05044 l 0.222449,-2.07619 -1.038096,1.80431 c -0.57995,-0.12604 -1.196441,-0.14181 -1.804311,-0.0123 z m 1.890798,2.37279 c 1.546705,-0.021 2.993673,0.95833 3.497417,2.50875 0.62001,1.90816 -0.427538,3.95256 -2.335737,4.57257 -1.90816,0.62001 -3.940179,-0.42754 -4.56019,-2.33574 -0.620011,-1.90816 0.415159,-3.94018 2.323359,-4.56019 0.357777,-0.11626 0.718244,-0.18057 1.075151,-0.18539 z"
       id="path6938-4-8-9-6-9"
       style="fill:currentColor;fill-opacity:1;stroke:none"
       inkscape:connector-curvature="0"
       sodipodi:nodetypes="csccccccccccccccccccccccccccccccccccccsssscs"
       class="ColorScheme-Text" />
  </g>
  <path
     style="fill:currentColor;fill-opacity:1;stroke:none"
     d="M 34.5 159 L 34.5 161 L 40.5 161 L 40.5 159 L 34.5 159 z M 40.5 161 L 40.5 163 L 44.5 163 L 44.5 181 L 30.5 181 L 30.5 163 L 34.5 163 L 34.5 161 L 28.5 161 L 28.5 183 L 46.5 183 L 46.5 161 L 40.5 161 z M 38.914062 164.43359 L 33.625 172.36914 L 36.269531 172.36914 L 36.269531 178.98047 L 41.558594 171.04688 L 38.914062 171.04688 L 38.914062 164.43359 z M 49.5 175 L 49.5 178 L 52.5 178 L 52.5 175 L 49.5 175 z M 49.5 180 L 49.5 183 L 52.5 183 L 52.5 180 L 49.5 180 z "
     class="ColorScheme-Text"
     id="path3476" />
  <rect
     style="fill:currentColor;fill-opacity:0.5;stroke:none"
     id="rect3484"
     width="2.9999795"
     height="2.9999702"
     x="49.500008"
     y="170.00014"
     class="ColorScheme-Text" />
</svg>
