<?xml version="1.0" encoding="UTF-8" standalone="no"?>
<svg
   xmlns:dc="http://purl.org/dc/elements/1.1/"
   xmlns:cc="http://creativecommons.org/ns#"
   xmlns:rdf="http://www.w3.org/1999/02/22-rdf-syntax-ns#"
   xmlns:svg="http://www.w3.org/2000/svg"
   xmlns="http://www.w3.org/2000/svg"
   xmlns:xlink="http://www.w3.org/1999/xlink"
   xmlns:sodipodi="http://sodipodi.sourceforge.net/DTD/sodipodi-0.dtd"
   xmlns:inkscape="http://www.inkscape.org/namespaces/inkscape"
   viewBox="0 0 256 256"
   id="svg2"
   version="1.1"
   inkscape:version="0.91 r13725"
   sodipodi:docname="org.kde.plasma.folder.svg">
  <metadata
     id="metadata10">
    <rdf:RDF>
      <cc:Work
         rdf:about="">
        <dc:format>image/svg+xml</dc:format>
        <dc:type
           rdf:resource="http://purl.org/dc/dcmitype/StillImage" />
        <dc:title />
      </cc:Work>
    </rdf:RDF>
  </metadata>
  <sodipodi:namedview
     pagecolor="#ffffff"
     bordercolor="#666666"
     borderopacity="1"
     objecttolerance="10"
     gridtolerance="10"
     guidetolerance="10"
     inkscape:pageopacity="0"
     inkscape:pageshadow="2"
     inkscape:window-width="1920"
     inkscape:window-height="1050"
     id="namedview8"
     showgrid="false"
     inkscape:zoom="2.6074563"
     inkscape:cx="152.45321"
     inkscape:cy="88.364359"
     inkscape:window-x="0"
     inkscape:window-y="30"
     inkscape:window-maximized="1"
     inkscape:current-layer="svg2" />
  <defs
     id="defs4">
    <style
       id="current-color-scheme"
       type="text/css">
      .ColorScheme-Text {
        color:#f2f2f2;
      }
      .ColorScheme-Background {
        color:#31363b;
      }
      .ColorScheme-Highlight {
        color:#3daee9;
      }
      .ColorScheme-ViewText {
        color:#31363b;
      }
      .ColorScheme-ViewBackground {
        color:#314045;
      }
      .ColorScheme-ViewHover {
        color:#93cee9;
      }
      .ColorScheme-ViewFocus{
        color:#3daee9;
      }
      .ColorScheme-ButtonText {
        color:#31363b;
      }
      .ColorScheme-ButtonBackground {
        color:#31363b;
      }
      .ColorScheme-ButtonHover {
        color:#93cee9;
      }
      .ColorScheme-ButtonFocus{
        color:#3daee9;
      }
      </style>
    <linearGradient
       gradientTransform="matrix(1,0,0,0.99967455,0,0.176455)"
       gradientUnits="userSpaceOnUse"
       y2="499.78421"
       x2="414.57144"
       y1="541.79797"
       x1="414.57144"
       id="linearGradient4178-2"
       xlink:href="#linearGradient4172-0"
       inkscape:collect="always" />
    <linearGradient
       id="linearGradient4172-0">
      <stop
         style="stop-color:#f89406;stop-opacity:1"
         offset="0"
         id="stop4174-4-7" />
      <stop
         style="stop-color:#faa938;stop-opacity:1"
         offset="1"
         id="stop4176-5" />
    </linearGradient>
    <linearGradient
       inkscape:collect="always"
       xlink:href="#linearGradient4172-5"
       id="linearGradient4765"
       gradientUnits="userSpaceOnUse"
       gradientTransform="matrix(1,0,0,0.99967455,0,0.17645)"
       x1="414.57144"
       y1="541.79797"
       x2="414.57144"
       y2="499.78421" />
    <linearGradient
       id="linearGradient4172-5"
       inkscape:collect="always">
      <stop
         id="stop4174-6"
         offset="0"
         style="stop-color:#3daee9;stop-opacity:1" />
      <stop
         id="stop4176-6"
         offset="1"
         style="stop-color:#6cc1ef;stop-opacity:1" />
    </linearGradient>
    <linearGradient
       inkscape:collect="always"
       xlink:href="#linearGradient4172-5"
       id="linearGradient4320"
       gradientUnits="userSpaceOnUse"
       gradientTransform="matrix(1,0,0,0.99967455,0,0.17645)"
       x1="414.57144"
       y1="541.79797"
       x2="414.57144"
       y2="499.78421" />
    <linearGradient
       inkscape:collect="always"
       xlink:href="#linearGradient4172-5"
       id="linearGradient4322"
       gradientUnits="userSpaceOnUse"
       gradientTransform="matrix(1,0,0,0.99967455,0,0.17645)"
       x1="414.57144"
       y1="541.79797"
       x2="414.57144"
       y2="499.78421" />
    <linearGradient
       inkscape:collect="always"
       xlink:href="#linearGradient4172-5"
       id="linearGradient4324"
       gradientUnits="userSpaceOnUse"
       gradientTransform="matrix(1,0,0,0.99967455,0,0.17645)"
       x1="414.57144"
       y1="541.79797"
       x2="414.57144"
       y2="499.78421" />
    <linearGradient
       inkscape:collect="always"
       xlink:href="#linearGradient4172-5"
       id="linearGradient4326"
       gradientUnits="userSpaceOnUse"
       gradientTransform="matrix(1,0,0,0.99967455,0,0.17645)"
       x1="414.57144"
       y1="541.79797"
       x2="414.57144"
       y2="499.78421" />
    <linearGradient
       inkscape:collect="always"
       xlink:href="#linearGradient4172-5"
       id="linearGradient4328"
       gradientUnits="userSpaceOnUse"
       gradientTransform="matrix(1,0,0,0.99967455,0,0.17645)"
       x1="414.57144"
       y1="541.79797"
       x2="414.57144"
       y2="499.78421" />
    <linearGradient
       inkscape:collect="always"
       xlink:href="#linearGradient4172-5"
       id="linearGradient4330"
       gradientUnits="userSpaceOnUse"
       gradientTransform="matrix(1,0,0,0.99967455,0,0.17645)"
       x1="414.57144"
       y1="541.79797"
       x2="414.57144"
       y2="499.78421" />
  </defs>
  <path
     style="fill:currentColor;fill-opacity:0.5;stroke:none"
     d="m 16,10 224,0 c 3.324,0 6,2.676 6,6 l 0,224 c 0,3.324 -2.676,6 -6,6 l -224,0 c -3.324,0 -6,-2.676 -6,-6 L 10,16 c 0,-3.324 2.676,-6 6,-6 z"
     class="ColorScheme-ButtonText"
     id="rect4240" />
  <path
     style="fill:currentColor;fill-opacity:1;stroke:none"
     d="m 16,12 224,0 c 2.216,0 4,1.784 4,4 l 0,224 c 0,2.216 -1.784,4 -4,4 l -224,0 c -2.216,0 -4,-1.784 -4,-4 L 12,16 c 0,-2.216 1.784,-4 4,-4 z"
     class="ColorScheme-Background"
     id="rect4238" />
  <path
     style="fill:currentColor;fill-opacity:1.0;stroke:none"
     class="ColorScheme-Text"
     d="m 147.75781,20.638673 -1.30273,0.0957 0,9.179687 c 0,0.50252 0.0594,0.920653 0.17578,1.253907 0.11637,0.32796 0.29574,0.579346 0.53906,0.753906 0.24333,0.17456 0.51937,0.296468 0.82617,0.365234 0.3121,0.06347 0.69801,0.0957 1.15821,0.0957 l 0.62695,0 0.0703,-0.90625 -0.35742,-0.02344 c -0.22746,-0.01587 -0.4043,-0.02846 -0.53125,-0.03906 -0.12695,-0.01587 -0.264,-0.03799 -0.41211,-0.06445 -0.14283,-0.03172 -0.25212,-0.06704 -0.32617,-0.109375 -0.0688,-0.04761 -0.13884,-0.107014 -0.21289,-0.175781 -0.0741,-0.06877 -0.12842,-0.155925 -0.16016,-0.261719 -0.0265,-0.105793 -0.0492,-0.227701 -0.0703,-0.365234 -0.0159,-0.137533 -0.0234,-0.30428 -0.0234,-0.5 l 0,-9.298828 z m 10.75,0 -1.3164,0.0957 0,2.609375 0.0625,1.912109 c -0.12696,-0.232746 -0.26148,-0.42977 -0.4043,-0.59375 -0.13753,-0.169266 -0.30681,-0.325923 -0.50781,-0.46875 -0.20102,-0.148113 -0.44035,-0.259931 -0.72071,-0.333984 -0.28035,-0.07405 -0.59871,-0.109375 -0.95312,-0.109375 -1.11084,0 -1.99195,0.396 -2.64258,1.189453 -0.64535,0.79346 -0.9668,1.831788 -0.9668,3.117188 0,1.354166 0.31136,2.431722 0.93555,3.230468 0.62947,0.793454 1.52319,1.189453 2.68164,1.189453 1.20076,0 2.0743,-0.547611 2.61914,-1.642578 l 0.11914,1.484375 1.09375,0 0,-11.679687 z m -76.019529,0.0957 0,11.583984 1.394531,0 0,-5.404297 6.03125,0 0,5.404297 1.396485,0 0,-11.583984 -1.396485,0 0,5.164063 -6.03125,0 0,-5.164063 -1.394531,0 z m 46.369139,0 0,11.583984 1.41992,0 0,-5.308593 4.69727,0 0,-1.015625 -4.69727,0 0,-4.189453 5.04688,0 0.0781,-1.070313 -6.54492,0 z m -31.626951,3.015628 c -1.232504,0 -2.200766,0.401045 -2.904297,1.205078 -0.698243,0.798747 -1.048828,1.856688 -1.048828,3.173828 0,1.2854 0.355631,2.333252 1.064453,3.142578 0.708821,0.804034 1.672038,1.205078 2.888672,1.205078 1.190186,0 2.146403,-0.403563 2.871091,-1.21289 0.7247,-0.814613 1.08789,-1.859946 1.08789,-3.134766 0,-1.31714 -0.34863,-2.375081 -1.04687,-3.173828 -0.698242,-0.804033 -1.669029,-1.205078 -2.912111,-1.205078 z m 9.464841,0 c -1.07381,0 -1.9353,0.470543 -2.58593,1.412109 l -0.1504,-1.238281 -1.06445,0 0,8.394531 1.31836,0 0,-5.117187 c 0.11108,-0.735267 0.35294,-1.325191 0.72852,-1.769531 0.38086,-0.44962 0.89371,-0.675782 1.53906,-0.675782 0.58715,0 0.99015,0.22111 1.20703,0.660157 0.21688,0.433753 0.32617,1.163246 0.32617,2.189453 l 0,4.71289 1.31641,0 0,-4.308593 c 0.0159,-0.72998 0.0456,-1.165774 0.0879,-1.308594 0.14282,-0.62948 0.41187,-1.112059 0.80859,-1.445313 0.39674,-0.333246 0.84962,-0.5 1.35742,-0.5 0.22746,0 0.42448,0.03475 0.59375,0.103516 0.17456,0.06347 0.31357,0.165201 0.41407,0.302734 0.1058,0.137534 0.19044,0.277102 0.2539,0.419922 0.0635,0.137534 0.1083,0.319415 0.13477,0.546875 0.0264,0.227454 0.0415,0.421385 0.0469,0.580078 0.0106,0.1534 0.0156,0.357422 0.0156,0.611328 l 0,4.998047 1.31836,0 0,-5.412109 c 0,-2.105307 -0.8584,-3.15625 -2.57227,-3.15625 -1.21663,0 -2.1381,0.567791 -2.76758,1.705078 -0.19572,-0.53426 -0.47428,-0.952393 -0.83398,-1.253906 -0.35971,-0.301513 -0.85743,-0.451172 -1.4922,-0.451172 z m 13.16407,0 c -1.11085,0 -2.0267,0.398519 -2.7461,1.197266 -0.7194,0.798746 -1.07812,1.869304 -1.07812,3.21289 0,1.327714 0.36629,2.38061 1.10156,3.158203 0.73527,0.772294 1.69344,1.158203 2.87305,1.158203 1.05794,0 2.00154,-0.246341 2.83203,-0.738281 l -0.27735,-0.927734 c -0.44433,0.222173 -0.84537,0.38892 -1.20507,0.5 -0.35971,0.111087 -0.76018,0.166015 -1.19922,0.166015 -0.80932,0 -1.46427,-0.256424 -1.9668,-0.769531 -0.50251,-0.518386 -0.77603,-1.310379 -0.81836,-2.378906 l 5.67383,0 0.0469,-0.667969 c 0,-1.227213 -0.27661,-2.183427 -0.83203,-2.871094 -0.55016,-0.692946 -1.35167,-1.039062 -2.40432,-1.039062 z m 20.75585,0 c -1.2325,0 -2.20076,0.401045 -2.90429,1.205078 -0.69824,0.798747 -1.04688,1.856688 -1.04688,3.173828 0,1.2854 0.35564,2.333252 1.06446,3.142578 0.70882,0.804034 1.67008,1.205078 2.88671,1.205078 1.19019,0 2.14836,-0.403563 2.87305,-1.21289 0.72469,-0.814613 1.08789,-1.859946 1.08789,-3.134766 0,-1.31714 -0.35058,-2.375081 -1.04883,-3.173828 -0.69824,-0.804033 -1.66903,-1.205078 -2.91211,-1.205078 z m 23.42383,0 c -1.11084,0 -2.02669,0.398519 -2.74609,1.197266 -0.7194,0.798746 -1.07813,1.869304 -1.07813,3.21289 0,1.327714 0.3663,2.38061 1.10157,3.158203 0.73527,0.772294 1.69344,1.158203 2.87304,1.158203 1.05794,0 2.00155,-0.246341 2.83203,-0.738281 l -0.27734,-0.927734 c -0.44434,0.222173 -0.84538,0.38892 -1.20508,0.5 -0.3597,0.111087 -0.76017,0.166015 -1.19922,0.166015 -0.80932,0 -1.46427,-0.256424 -1.96679,-0.769531 -0.50251,-0.518386 -0.77603,-1.310379 -0.81836,-2.378906 l 5.67383,0 0.0469,-0.667969 c 0,-1.227213 -0.27661,-2.183427 -0.83203,-2.871094 -0.55016,-0.692946 -1.35167,-1.039062 -2.40433,-1.039062 z m 8.88672,0.08594 c -0.50781,0 -0.99292,0.144047 -1.45312,0.429687 -0.45492,0.28036 -0.84082,0.721192 -1.15821,1.324219 l -0.14257,-1.666016 -1.05469,0 0,8.394531 1.3164,0 0,-4.751953 c 0,-0.745846 0.23373,-1.378091 0.69922,-1.896484 0.47079,-0.518393 1.06576,-0.777344 1.78516,-0.777344 0.14811,0 0.32747,0.02017 0.53906,0.0625 l 0.0566,-1.078125 c -0.1534,-0.02647 -0.34986,-0.04102 -0.58789,-0.04102 z m -75.695311,0.919921 c 0.862223,0 1.512125,0.310795 1.951172,0.929688 0.439046,0.613607 0.658203,1.432778 0.658203,2.458984 0,0.65592 -0.08968,1.23071 -0.269532,1.722657 -0.17985,0.486653 -0.471028,0.877601 -0.873046,1.173828 -0.396729,0.290933 -0.884929,0.435546 -1.466797,0.435546 -0.846354,10e-7 -1.493164,-0.306315 -1.9375,-0.919921 -0.444336,-0.613607 -0.666016,-1.420162 -0.666016,-2.419922 0,-1.020914 0.22168,-1.837565 0.666016,-2.451172 0.444336,-0.618893 1.091146,-0.929688 1.9375,-0.929688 z m 22.660151,0 c 1.33303,0 2.03224,0.905764 2.09571,2.714844 l -4.57031,0 c 0.0741,-0.835773 0.33301,-1.497722 0.77734,-1.984375 0.44963,-0.486653 1.01489,-0.730469 1.69726,-0.730469 z m 20.72461,0 c 0.86222,0 1.51408,0.310795 1.95313,0.929688 0.43905,0.613607 0.6582,1.432778 0.6582,2.458984 0,0.65592 -0.0897,1.23071 -0.26953,1.722657 -0.17985,0.486653 -0.47103,0.877601 -0.87305,1.173828 -0.39672,0.290933 -0.88688,0.435546 -1.46875,0.435546 -0.84635,10e-7 -1.4912,-0.306315 -1.93554,-0.919921 -0.44434,-0.613607 -0.66602,-1.420162 -0.66602,-2.419922 0,-1.020914 0.22168,-1.837565 0.66602,-2.451172 0.44434,-0.618893 1.08919,-0.929688 1.93554,-0.929688 z m 14.24415,0 c 0.78288,0 1.3728,0.291181 1.76953,0.873047 0.40202,0.581867 0.60156,1.442792 0.60156,2.580078 -0.005,1.042074 -0.19727,1.84611 -0.57813,2.41211 -0.38086,0.566 -1.00301,0.847656 -1.86523,0.847656 -0.81991,0 -1.42497,-0.30127 -1.81641,-0.904297 -0.38614,-0.603027 -0.58008,-1.429768 -0.58008,-2.482422 10e-6,-1.05794 0.20655,-1.876545 0.61915,-2.453125 0.41259,-0.581866 1.0297,-0.873047 1.84961,-0.873047 z m 9.21093,0 c 1.33302,0 2.03224,0.905764 2.09571,2.714844 l -4.57032,0 c 0.0741,-0.835773 0.33301,-1.497722 0.77735,-1.984375 0.44962,-0.486653 1.01489,-0.730469 1.69726,-0.730469 z"
     id="path4427" />
  <g
     transform="matrix(0.76922766,0,0,0.76922766,-273.93826,-322.76608)"
     id="layer1-5"
     inkscape:label="Capa 1">
    <path
       sodipodi:nodetypes="ccsssssccccccc"
       inkscape:connector-curvature="0"
       id="rect4180"
       d="m 388.57143,489.79812 0,5 0,22 c 0,0.55373 0.446,1 1,1 l 54,0 c 0.55399,0 1,-0.44627 1,-1 l 0,-21.99023 c 0,-0.003 -0.002,-0.006 -0.002,-0.01 l 0.002,0 0,-1 -28,0 -4,-4 -24,0 z"
       style="fill:#147eb8;fill-opacity:1;stroke:none" />
    <path
       sodipodi:nodetypes="cccccscccccccccc"
       inkscape:connector-curvature="0"
       id="rect4113-0"
       d="m 410.57143,499.79812 -4,4 -19,0 0,1 0.002,0 c -5e-5,0.004 -0.002,0.008 -0.002,0.0117 l 0,35.98828 0,1 1,0 56,0 1,0 0,-1 0,-35.98828 0,-0.0117 0,-5 z"
       style="fill:url(#linearGradient4320);fill-opacity:1;stroke:none" />
    <path
       sodipodi:nodetypes="cccccc"
       inkscape:connector-curvature="0"
       id="path4224"
       d="m 387.57144,503.79812 0,1 19.99999,0 3,-5 -4,4 z"
       style="fill:#ffffff;fill-opacity:0.23529412;fill-rule:evenodd;stroke:none;stroke-width:1px;stroke-linecap:butt;stroke-linejoin:miter;stroke-opacity:1" />
    <path
       sodipodi:nodetypes="cccccc"
       inkscape:connector-curvature="0"
       id="path4228-6"
       d="m 388.57143,502.79812 0,1 18,0 4,-4 -6,3 z"
       style="fill:#000000;fill-opacity:0.23529412;fill-rule:evenodd;stroke:none;stroke-width:1px;stroke-linecap:butt;stroke-linejoin:miter;stroke-opacity:1" />
    <path
       id="path4151-2-9"
       d="m 387.57143,540.7981 0,1 1,0 56,0 1,0 0,-1 -1,0 -56,0 -1,0 z"
       style="fill:#000000;fill-opacity:0.23529412;stroke:none"
       inkscape:connector-curvature="0" />
    <path
       sodipodi:nodetypes="cccccccc"
       inkscape:connector-curvature="0"
       id="path4196"
       transform="translate(384.57143,483.798)"
       d="m 28,6 3,5 2,0 27,0 0,-1 -27,0 -1,0 z"
       style="fill:#ffffff;fill-opacity:0.23529412;fill-rule:evenodd;stroke:none;stroke-width:1px;stroke-linecap:butt;stroke-linejoin:miter;stroke-opacity:1" />
  </g>
  <g
     transform="matrix(0.76922766,0,0,0.76922766,-192.43826,-322.76609)"
     id="layer1-7"
     inkscape:label="Capa 1">
    <g
       transform="translate(0,5.0000001e-6)"
       inkscape:label="Capa 1"
       id="layer1-31">
      <path
         style="fill:#147eb8;fill-opacity:1;stroke:none"
         d="m 388.57143,489.79812 0,5 0,22 c 0,0.55373 0.446,1 1,1 l 54,0 c 0.55399,0 1,-0.44627 1,-1 l 0,-21.99023 c 0,-0.003 -0.002,-0.006 -0.002,-0.01 l 0.002,0 0,-1 -28,0 -4,-4 -24,0 z"
         id="rect4180-54"
         inkscape:connector-curvature="0"
         sodipodi:nodetypes="ccsssssccccccc" />
      <path
         style="fill:url(#linearGradient4322);fill-opacity:1;stroke:none"
         d="m 410.57143,499.79812 -4,4 -19,0 0,1 0.002,0 c -5e-5,0.004 -0.002,0.008 -0.002,0.0117 l 0,35.98828 0,1 1,0 56,0 1,0 0,-1 0,-35.98828 0,-0.0117 0,-5 z"
         id="rect4113"
         inkscape:connector-curvature="0"
         sodipodi:nodetypes="cccccscccccccccc" />
      <path
         style="fill:#ffffff;fill-opacity:0.23529412;fill-rule:evenodd;stroke:none;stroke-width:1px;stroke-linecap:butt;stroke-linejoin:miter;stroke-opacity:1"
         d="m 387.57144,503.79812 0,1 19.99999,0 3,-5 -4,4 z"
         id="path4224-2"
         inkscape:connector-curvature="0"
         sodipodi:nodetypes="cccccc" />
      <path
         style="fill:#000000;fill-opacity:0.23529412;fill-rule:evenodd;stroke:none;stroke-width:1px;stroke-linecap:butt;stroke-linejoin:miter;stroke-opacity:1"
         d="m 388.57143,502.79812 0,1 18,0 4,-4 -6,3 z"
         id="path4228-3-9"
         inkscape:connector-curvature="0"
         sodipodi:nodetypes="cccccc" />
      <path
         inkscape:connector-curvature="0"
         style="fill:#000000;fill-opacity:0.23529412;stroke:none"
         d="m 387.57143,540.7981 0,1 1,0 56,0 1,0 0,-1 -1,0 -56,0 -1,0 z"
         id="path4151-2" />
      <path
         style="fill:#ffffff;fill-opacity:0.23529412;fill-rule:evenodd;stroke:none;stroke-width:1px;stroke-linecap:butt;stroke-linejoin:miter;stroke-opacity:1"
         d="m 28,6 3,5 2,0 27,0 0,-1 -27,0 -1,0 z"
         transform="translate(384.57143,483.798)"
         id="path4196-6"
         inkscape:connector-curvature="0"
         sodipodi:nodetypes="cccccccc" />
    </g>
    <path
       id="path4126-0"
       transform="translate(384.57143,483.798)"
       d="m 23,27 0,1 0,18 0,1 12,0 6,-6 0,-14 -18,0 z m 1,1 16,0 0,13 -5,0 0,5 -11,0 0,-18 z"
       style="fill:#1272a5;fill-opacity:1;stroke:none;stroke-width:1px;stroke-linecap:butt;stroke-linejoin:miter;stroke-opacity:1"
       inkscape:connector-curvature="0" />
  </g>
  <g
     transform="matrix(0.76922766,0,0,0.76922766,-110.93826,-322.76609)"
     id="layer1-96"
     inkscape:label="Capa 1">
    <g
       transform="translate(0,5.0000001e-6)"
       inkscape:label="Capa 1"
       id="layer1-82">
      <path
         style="fill:#147eb8;fill-opacity:1;stroke:none"
         d="m 388.57143,489.79812 0,5 0,22 c 0,0.55373 0.446,1 1,1 l 54,0 c 0.55399,0 1,-0.44627 1,-1 l 0,-21.99023 c 0,-0.003 -0.002,-0.006 -0.002,-0.01 l 0.002,0 0,-1 -28,0 -4,-4 -24,0 z"
         id="rect4180-2"
         inkscape:connector-curvature="0"
         sodipodi:nodetypes="ccsssssccccccc" />
      <path
         style="fill:url(#linearGradient4324);fill-opacity:1;stroke:none"
         d="m 410.57143,499.79812 -4,4 -19,0 0,1 0.002,0 c -5e-5,0.004 -0.002,0.008 -0.002,0.0117 l 0,35.98828 0,1 1,0 56,0 1,0 0,-1 0,-35.98828 0,-0.0117 0,-5 z"
         id="rect4113-1"
         inkscape:connector-curvature="0"
         sodipodi:nodetypes="cccccscccccccccc" />
      <path
         style="fill:#ffffff;fill-opacity:0.23529412;fill-rule:evenodd;stroke:none;stroke-width:1px;stroke-linecap:butt;stroke-linejoin:miter;stroke-opacity:1"
         d="m 387.57144,503.79812 0,1 19.99999,0 3,-5 -4,4 z"
         id="path4224-3"
         inkscape:connector-curvature="0"
         sodipodi:nodetypes="cccccc" />
      <path
         style="fill:#000000;fill-opacity:0.23529412;fill-rule:evenodd;stroke:none;stroke-width:1px;stroke-linecap:butt;stroke-linejoin:miter;stroke-opacity:1"
         d="m 388.57143,502.79812 0,1 18,0 4,-4 -6,3 z"
         id="path4228-2"
         inkscape:connector-curvature="0"
         sodipodi:nodetypes="cccccc" />
      <path
         inkscape:connector-curvature="0"
         style="fill:#000000;fill-opacity:0.23529412;stroke:none"
         d="m 387.57143,540.7981 0,1 1,0 56,0 1,0 0,-1 -1,0 -56,0 -1,0 z"
         id="path4151-2-4" />
      <path
         style="fill:#ffffff;fill-opacity:0.23529412;fill-rule:evenodd;stroke:none;stroke-width:1px;stroke-linecap:butt;stroke-linejoin:miter;stroke-opacity:1"
         d="m 28,6 3,5 2,0 27,0 0,-1 -27,0 -1,0 z"
         transform="translate(384.57143,483.798)"
         id="path4196-9"
         inkscape:connector-curvature="0"
         sodipodi:nodetypes="cccccccc" />
    </g>
    <path
       id="rect4282-7"
       transform="translate(384.57143,483.798)"
       d="m 29,27 0,1 0,6 1,0 0,-6 4,0 0,6 1,0 0,-7 -6,0 z M 25.707031,34.300781 25,35.007812 l 4.292969,4.292969 0.0078,-0.0078 L 32.007812,42 34.707031,39.300781 39,35.007812 38.292969,34.300781 34,38.59375 l -2,2 -2,-2 -4.292969,-4.292969 z M 22,44 l 0,2 0,1 1,0 19,0 0,-1 0,-2 -1,0 0,2 -18,0 0,-2 -1,0 z"
       style="fill:#1272a5;fill-opacity:1;stroke:none"
       inkscape:connector-curvature="0" />
  </g>
  <g
     transform="matrix(0.76922766,0,0,0.76922766,-273.93826,-257.76609)"
     id="layer1-0"
     inkscape:label="Capa 1">
    <g
       transform="translate(0,5.0000001e-6)"
       inkscape:label="Capa 1"
       id="layer1-7-5">
      <path
         style="fill:#147eb8;fill-opacity:1;stroke:none"
         d="m 388.57143,489.79812 0,5 0,22 c 0,0.55373 0.446,1 1,1 l 54,0 c 0.55399,0 1,-0.44627 1,-1 l 0,-21.99023 c 0,-0.003 -0.002,-0.006 -0.002,-0.01 l 0.002,0 0,-1 -28,0 -4,-4 -24,0 z"
         id="rect4180-4"
         inkscape:connector-curvature="0"
         sodipodi:nodetypes="ccsssssccccccc" />
      <path
         style="fill:url(#linearGradient4326);fill-opacity:1;stroke:none"
         d="m 410.57143,499.79812 -4,4 -19,0 0,1 0.002,0 c -5e-5,0.004 -0.002,0.008 -0.002,0.0117 l 0,35.98828 0,1 1,0 56,0 1,0 0,-1 0,-35.98828 0,-0.0117 0,-5 z"
         id="rect4113-6"
         inkscape:connector-curvature="0"
         sodipodi:nodetypes="cccccscccccccccc" />
      <path
         style="fill:#ffffff;fill-opacity:0.23529412;fill-rule:evenodd;stroke:none;stroke-width:1px;stroke-linecap:butt;stroke-linejoin:miter;stroke-opacity:1"
         d="m 387.57144,503.79812 0,1 19.99999,0 3,-5 -4,4 z"
         id="path4224-0"
         inkscape:connector-curvature="0"
         sodipodi:nodetypes="cccccc" />
      <path
         style="fill:#000000;fill-opacity:0.23529412;fill-rule:evenodd;stroke:none;stroke-width:1px;stroke-linecap:butt;stroke-linejoin:miter;stroke-opacity:1"
         d="m 388.57143,502.79812 0,1 18,0 4,-4 -6,3 z"
         id="path4228-0"
         inkscape:connector-curvature="0"
         sodipodi:nodetypes="cccccc" />
      <path
         inkscape:connector-curvature="0"
         style="fill:#000000;fill-opacity:0.23529412;stroke:none"
         d="m 387.57143,540.7981 0,1 1,0 56,0 1,0 0,-1 -1,0 -56,0 -1,0 z"
         id="path4151-2-3" />
      <path
         style="fill:#ffffff;fill-opacity:0.23529412;fill-rule:evenodd;stroke:none;stroke-width:1px;stroke-linecap:butt;stroke-linejoin:miter;stroke-opacity:1"
         d="m 28,6 3,5 2,0 27,0 0,-1 -27,0 -1,0 z"
         transform="translate(384.57143,483.798)"
         id="path4196-5"
         inkscape:connector-curvature="0"
         sodipodi:nodetypes="cccccccc" />
    </g>
    <path
       id="rect4385-8"
       transform="translate(384.57143,483.798)"
       d="m 22,27 0,20 20,0 0,-20 -20,0 z m 1,1 18,0 0,17 0,1 -18,0 0,-1 0,-17 z m 0,17 4,0 3,-3 -2,-2 -5,5 z m 18,0 -6,-6 -6,6 12,0 z M 26.5,29 C 25.115,29 24,30.115 24,31.5 24,32.885 25.115,34 26.5,34 27.885,34 29,32.885 29,31.5 29,30.115 27.885,29 26.5,29 Z"
       style="fill:#1272a5;fill-opacity:1;stroke:none"
       inkscape:connector-curvature="0" />
  </g>
  <g
     transform="matrix(0.76922766,0,0,0.76922766,-192.43826,-257.76609)"
     id="layer1-04"
     inkscape:label="Capa 1">
    <g
       transform="translate(0,5e-6)"
       inkscape:label="Capa 1"
       id="layer1-4">
      <path
         style="fill:#147eb8;fill-opacity:1;stroke:none"
         d="m 388.57143,489.79812 0,5 0,22 c 0,0.55373 0.446,1 1,1 l 54,0 c 0.55399,0 1,-0.44627 1,-1 l 0,-21.99023 c 0,-0.003 -0.002,-0.006 -0.002,-0.01 l 0.002,0 0,-1 -28,0 -4,-4 -24,0 z"
         id="rect4180-2-2"
         inkscape:connector-curvature="0"
         sodipodi:nodetypes="ccsssssccccccc" />
      <path
         style="fill:url(#linearGradient4328);fill-opacity:1;stroke:none"
         d="m 410.57143,499.79812 -4,4 -19,0 0,1 0.002,0 c -5e-5,0.004 -0.002,0.008 -0.002,0.0117 l 0,35.98828 0,1 1,0 56,0 1,0 0,-1 0,-35.98828 0,-0.0117 0,-5 z"
         id="rect4113-7"
         inkscape:connector-curvature="0"
         sodipodi:nodetypes="cccccscccccccccc" />
      <path
         style="fill:#ffffff;fill-opacity:0.23529412;fill-rule:evenodd;stroke:none;stroke-width:1px;stroke-linecap:butt;stroke-linejoin:miter;stroke-opacity:1"
         d="m 387.57144,503.79812 0,1 19.99999,0 3,-5 -4,4 z"
         id="path4224-9"
         inkscape:connector-curvature="0"
         sodipodi:nodetypes="cccccc" />
      <path
         style="fill:#000000;fill-opacity:0.23529412;fill-rule:evenodd;stroke:none;stroke-width:1px;stroke-linecap:butt;stroke-linejoin:miter;stroke-opacity:1"
         d="m 388.57143,502.79812 0,1 18,0 4,-4 -6,3 z"
         id="path4228-8"
         inkscape:connector-curvature="0"
         sodipodi:nodetypes="cccccc" />
      <path
         inkscape:connector-curvature="0"
         style="fill:#000000;fill-opacity:0.23529412;stroke:none"
         d="m 387.57143,540.7981 0,1 1,0 56,0 1,0 0,-1 -1,0 -56,0 -1,0 z"
         id="path4151-2-3-6" />
      <path
         style="fill:#ffffff;fill-opacity:0.23529412;fill-rule:evenodd;stroke:none;stroke-width:1px;stroke-linecap:butt;stroke-linejoin:miter;stroke-opacity:1"
         d="m 28,6 3,5 2,0 27,0 0,-1 -27,0 -1,0 z"
         transform="translate(384.57143,483.798)"
         id="path4196-0"
         inkscape:connector-curvature="0"
         sodipodi:nodetypes="cccccccc" />
    </g>
    <path
       transform="translate(384.57143,483.798)"
       id="rect4128-4"
       d="m 27,27 0,2 0,2 0,1 0,9.775391 C 26.469126,41.298212 25.773294,41 25,41 c -1.661993,0 -3,1.338007 -3,3 0,1.661993 1.338007,3 3,3 1.661993,0 3,-1.338007 3,-3 l 0,-12 13,0 0,6.775391 C 40.469126,38.298212 39.773294,38 39,38 c -1.661993,0 -3,1.338007 -3,3 0,1.661993 1.338007,3 3,3 1.661993,0 3,-1.338007 3,-3 l 0,-14 -15,0 z m 1,2 13,0 0,2 -13,0 0,-2 z"
       style="fill:#1272a5;fill-opacity:1;stroke:none"
       inkscape:connector-curvature="0" />
  </g>
  <g
     transform="matrix(0.76922766,0,0,0.76922766,-110.93826,-257.76609)"
     id="layer1-09"
     inkscape:label="Capa 1">
    <g
       transform="translate(0,5.0000001e-6)"
       inkscape:label="Capa 1"
       id="layer1-5-4">
      <path
         style="fill:#147eb8;fill-opacity:1;stroke:none"
         d="m 388.57143,489.79812 0,5 0,22 c 0,0.55373 0.446,1 1,1 l 54,0 c 0.55399,0 1,-0.44627 1,-1 l 0,-21.99023 c 0,-0.003 -0.002,-0.006 -0.002,-0.01 l 0.002,0 0,-1 -28,0 -4,-4 -24,0 z"
         id="rect4180-0"
         inkscape:connector-curvature="0"
         sodipodi:nodetypes="ccsssssccccccc" />
      <path
         style="fill:url(#linearGradient4330);fill-opacity:1;stroke:none"
         d="m 410.57143,499.79812 -4,4 -19,0 0,1 0.002,0 c -5e-5,0.004 -0.002,0.008 -0.002,0.0117 l 0,35.98828 0,1 1,0 56,0 1,0 0,-1 0,-35.98828 0,-0.0117 0,-5 z"
         id="rect4113-6-8"
         inkscape:connector-curvature="0"
         sodipodi:nodetypes="cccccscccccccccc" />
      <path
         style="fill:#ffffff;fill-opacity:0.23529412;fill-rule:evenodd;stroke:none;stroke-width:1px;stroke-linecap:butt;stroke-linejoin:miter;stroke-opacity:1"
         d="m 387.57144,503.79812 0,1 19.99999,0 3,-5 -4,4 z"
         id="path4224-7"
         inkscape:connector-curvature="0"
         sodipodi:nodetypes="cccccc" />
      <path
         style="fill:#000000;fill-opacity:0.23529412;fill-rule:evenodd;stroke:none;stroke-width:1px;stroke-linecap:butt;stroke-linejoin:miter;stroke-opacity:1"
         d="m 388.57143,502.79812 0,1 18,0 4,-4 -6,3 z"
         id="path4228"
         inkscape:connector-curvature="0"
         sodipodi:nodetypes="cccccc" />
      <path
         inkscape:connector-curvature="0"
         style="fill:#000000;fill-opacity:0.23529412;stroke:none"
         d="m 387.57143,540.7981 0,1 1,0 56,0 1,0 0,-1 -1,0 -56,0 -1,0 z"
         id="path4151-2-6" />
      <path
         style="fill:#ffffff;fill-opacity:0.23529412;fill-rule:evenodd;stroke:none;stroke-width:1px;stroke-linecap:butt;stroke-linejoin:miter;stroke-opacity:1"
         d="m 28,6 3,5 2,0 27,0 0,-1 -27,0 -1,0 z"
         transform="translate(384.57143,483.798)"
         id="path4196-9-3"
         inkscape:connector-curvature="0"
         sodipodi:nodetypes="cccccccc" />
    </g>
    <path
       id="rect4148-3"
       transform="translate(384.57143,483.798)"
       d="m 22,27 0,20 20,0 0,-20 -20,0 z m 1,1 2,0 0,2 -2,0 0,-2 z m 16,0 2,0 0,2 -2,0 0,-2 z m -13,1 12,0 0,7 -12,0 0,-7 z m -3,3 2,0 0,2 -2,0 0,-2 z m 16,0 2,0 0,2 -2,0 0,-2 z m -16,4 2,0 0,2 -2,0 0,-2 z m 16,0 2,0 0,2 -2,0 0,-2 z m -13,2 12,0 0,7 -12,0 0,-7 z m -3,2 2,0 0,2 -2,0 0,-2 z m 16,0 2,0 0,2 -2,0 0,-2 z m -16,4 2,0 0,2 -2,0 0,-2 z m 16,0 2,0 0,2 -2,0 0,-2 z"
       style="fill:#1272a5;fill-opacity:1;stroke:none"
       inkscape:connector-curvature="0" />
  </g>
  <g
     transform="matrix(0.76922766,0,0,0.76922766,-192.43826,-192.76609)"
     id="layer1-8"
     inkscape:label="Capa 1">
    <g
       transform="translate(0,5.0000001e-6)"
       inkscape:label="Capa 1"
       id="layer1-2">
      <path
         style="fill:#147eb8;fill-opacity:1;stroke:none"
         d="m 388.57143,489.79812 0,5 0,22 c 0,0.55373 0.446,1 1,1 l 54,0 c 0.55399,0 1,-0.44627 1,-1 l 0,-21.99023 c 0,-0.003 -0.002,-0.006 -0.002,-0.01 l 0.002,0 0,-1 -28,0 -4,-4 -24,0 z"
         id="rect4180-24"
         inkscape:connector-curvature="0"
         sodipodi:nodetypes="ccsssssccccccc" />
      <path
         style="fill:url(#linearGradient4765);fill-opacity:1;stroke:none"
         d="m 410.57143,499.79812 -4,4 -19,0 0,1 0.002,0 c -5e-5,0.004 -0.002,0.008 -0.002,0.0117 l 0,35.98828 0,1 1,0 56,0 1,0 0,-1 0,-35.98828 0,-0.0117 0,-5 z"
         id="rect4113-9"
         inkscape:connector-curvature="0"
         sodipodi:nodetypes="cccccscccccccccc" />
      <path
         style="fill:#ffffff;fill-opacity:0.23529412;fill-rule:evenodd;stroke:none;stroke-width:1px;stroke-linecap:butt;stroke-linejoin:miter;stroke-opacity:1"
         d="m 387.57144,503.79812 0,1 19.99999,0 3,-5 -4,4 z"
         id="path4224-5"
         inkscape:connector-curvature="0"
         sodipodi:nodetypes="cccccc" />
      <path
         style="fill:#000000;fill-opacity:0.23529412;fill-rule:evenodd;stroke:none;stroke-width:1px;stroke-linecap:butt;stroke-linejoin:miter;stroke-opacity:1"
         d="m 388.57143,502.79812 0,1 18,0 4,-4 -6,3 z"
         id="path4228-08"
         inkscape:connector-curvature="0"
         sodipodi:nodetypes="cccccc" />
      <path
         inkscape:connector-curvature="0"
         style="fill:#000000;fill-opacity:0.23529412;stroke:none"
         d="m 387.57143,540.7981 0,1 1,0 56,0 1,0 0,-1 -1,0 -56,0 -1,0 z"
         id="path4151-2-8" />
      <path
         style="fill:#ffffff;fill-opacity:0.23529412;fill-rule:evenodd;stroke:none;stroke-width:1px;stroke-linecap:butt;stroke-linejoin:miter;stroke-opacity:1"
         d="m 28,6 3,5 2,0 27,0 0,-1 -27,0 -1,0 z"
         transform="translate(384.57143,483.798)"
         id="path4196-7"
         inkscape:connector-curvature="0"
         sodipodi:nodetypes="cccccccc" />
    </g>
    <path
       sodipodi:nodetypes="ccccccccccccccccccccccccccccccccccc"
       id="path4153-7"
       d="m 413.57143,510.798 0,2 -6.99999,0 1e-5,1 1.99998,0 0,16.99997 1,0 15,0 0,-1.99997 0,-15 2.00002,0 0,-1 -7.00002,0 0,-1.99999 z m 1,1 4,0 0,2 1,0 4,0 0,16 -14,0 0,-16 5,0 z m -1,6 0,8 1,0 0,-8 z m 5,0 0,8 1,0 0,-8 z"
       style="fill:#1272a5;fill-opacity:1;stroke:none"
       inkscape:connector-curvature="0" />
  </g>
  <g
     transform="matrix(0.76922766,0,0,0.76922766,-273.93826,-192.76609)"
     id="layer1-276"
     inkscape:label="Capa 1">
    <g
       transform="translate(0,-5.0000001e-6)"
       inkscape:label="Capa 1"
       id="layer1-2-8">
      <path
         inkscape:connector-curvature="0"
         style="fill:#2e3132;fill-opacity:0.29411765;stroke:none"
         d="m 387.57143,540.798 0,1 1,0 56,0 1,0 0,-1 -1,0 -56,0 z"
         id="path4151" />
      <path
         style="fill:#a3660d;fill-opacity:1;stroke:none"
         d="m 388.57143,489.79813 0,5 0,22 c 0,0.55372 0.446,1 1,1 l 54,0 c 0.55399,0 1,-0.44628 1,-1 l 0,-21.99023 c 0,-0.003 -0.002,-0.006 -0.002,-0.01 l 0.002,0 0,-1 -28,0 -4,-4 -24,0 z"
         id="rect4180-7"
         inkscape:connector-curvature="0"
         sodipodi:nodetypes="ccsssssccccccc" />
      <path
         style="fill:url(#linearGradient4178-2);fill-opacity:1;stroke:none"
         d="m 410.57143,499.79813 -4,4 -19,0 0,1 0.002,0 c -5e-5,0.004 -0.002,0.008 -0.002,0.0117 l 0,35.98828 0,1 1,0 56,0 1,0 0,-1 0,-35.98828 0,-0.0117 0,-5 z"
         id="rect4113-70"
         inkscape:connector-curvature="0"
         sodipodi:nodetypes="cccccscccccccccc" />
      <path
         style="fill:#ffffff;fill-opacity:0.23529412;fill-rule:evenodd;stroke:none;stroke-width:1px;stroke-linecap:butt;stroke-linejoin:miter;stroke-opacity:1"
         d="m 387.57144,503.79813 0,1 19.99999,0 3,-5 -4,4 z"
         id="path4224-2-6"
         inkscape:connector-curvature="0"
         sodipodi:nodetypes="cccccc" />
      <path
         style="fill:#000000;fill-opacity:0.23529412;fill-rule:evenodd;stroke:none;stroke-width:1px;stroke-linecap:butt;stroke-linejoin:miter;stroke-opacity:1"
         d="m 388.57143,502.79813 0,1 18,0 4,-4 -6,3 z"
         id="path4228-9"
         inkscape:connector-curvature="0"
         sodipodi:nodetypes="cccccc" />
      <path
         inkscape:connector-curvature="0"
         style="fill:#000000;fill-opacity:0.23529412;stroke:none"
         d="m 387.57143,540.79811 0,1 1,0 56,0 1,0 0,-1 -1,0 -56,0 -1,0 z"
         id="path4151-2-1" />
      <path
         style="fill:#ffffff;fill-opacity:0.23529412;fill-rule:evenodd;stroke:none;stroke-width:1px;stroke-linecap:butt;stroke-linejoin:miter;stroke-opacity:1"
         d="m 412.57143,489.79801 3,5 2,0 27,0 0,-1 -27,0 -1,0 z"
         id="path4196-8"
         inkscape:connector-curvature="0"
         sodipodi:nodetypes="cccccccc" />
    </g>
  </g>
</svg>
