<svg xmlns="http://www.w3.org/2000/svg" xmlns:sodipodi="http://sodipodi.sourceforge.net/DTD/sodipodi-0.dtd" xmlns:xlink="http://www.w3.org/1999/xlink" xmlns:inkscape="http://www.inkscape.org/namespaces/inkscape" viewBox="0 0 256 256">
  <defs
     id="defs4">
    <style
       id="current-color-scheme"
       type="text/css">
      .ColorScheme-Text {
        color:#f2f2f2;
      }
      .ColorScheme-Background {
        color:#31363b;
      }
      .ColorScheme-Highlight {
        color:#3daee9;
      }
      .ColorScheme-ViewText {
        color:#31363b;
      }
      .ColorScheme-ViewBackground {
        color:#314045;
      }
      .ColorScheme-ViewHover {
        color:#93cee9;
      }
      .ColorScheme-ViewFocus{
        color:#3daee9;
      }
      .ColorScheme-ButtonText {
        color:#31363b;
      }
      .ColorScheme-ButtonBackground {
        color:#31363b;
      }
      .ColorScheme-ButtonHover {
        color:#93cee9;
      }
      .ColorScheme-ButtonFocus{
        color:#3daee9;
      }
      </style>
    <linearGradient
       gradientUnits="userSpaceOnUse"
       y2="1037.3622"
       x2="115"
       y1="982.36224"
       x1="60.000046"
       id="linearGradient4475-5"
       xlink:href="#linearGradient4459"
       inkscape:collect="always"
       gradientTransform="matrix(0.28,0,0,0.28,30.000031,-111.90685)" />
    <linearGradient
       id="linearGradient4459"
       inkscape:collect="always">
      <stop
         id="stop4461"
         offset="0"
         style="stop-color:#000000;stop-opacity:1;" />
      <stop
         id="stop4463"
         offset="1"
         style="stop-color:#000000;stop-opacity:0;" />
    </linearGradient>
    <linearGradient
       gradientTransform="matrix(0.28,0,0,0.28,29.720031,153.35457)"
       gradientUnits="userSpaceOnUse"
       y2="77.125"
       x2="60.125"
       y1="63"
       x1="46"
       id="linearGradient4465-2"
       xlink:href="#linearGradient4459"
       inkscape:collect="always" />
    <linearGradient
       gradientTransform="matrix(0.28,0,0,0.28,29.720015,59.160004)"
       gradientUnits="userSpaceOnUse"
       y2="77.125"
       x2="60.125"
       y1="63"
       x1="46"
       id="linearGradient4465-1"
       xlink:href="#linearGradient4459"
       inkscape:collect="always" />
    <linearGradient
       gradientTransform="matrix(0.28,0,0,0.28,30.00002,17.157874)"
       gradientUnits="userSpaceOnUse"
       y2="77.125"
       x2="60.125"
       y1="63"
       x1="46"
       id="linearGradient4465"
       xlink:href="#linearGradient4459"
       inkscape:collect="always" />
    <linearGradient
       inkscape:collect="always"
       xlink:href="#linearGradient4459"
       id="linearGradient4320"
       gradientUnits="userSpaceOnUse"
       x1="60.000046"
       y1="982.36224"
       x2="115"
       y2="1037.3622"
       gradientTransform="matrix(0.28,0,0,0.28,30.00002,-248.10355)" />
    <linearGradient
       inkscape:collect="always"
       xlink:href="#linearGradient4459"
       id="linearGradient4322"
       gradientUnits="userSpaceOnUse"
       x1="60.000046"
       y1="982.36224"
       x2="115"
       y2="1037.3622"
       gradientTransform="matrix(0.28,0,0,0.28,30.000015,-206.66142)" />
    <linearGradient
       inkscape:collect="always"
       xlink:href="#linearGradient4459"
       id="linearGradient4324"
       gradientUnits="userSpaceOnUse"
       x1="60.000046"
       y1="982.36224"
       x2="115"
       y2="1037.3622"
       gradientTransform="matrix(0.28,0,0,0.24979535,30.00002,-130.51837)" />
    <linearGradient
       inkscape:collect="always"
       xlink:href="#linearGradient4459"
       id="linearGradient4326"
       gradientUnits="userSpaceOnUse"
       gradientTransform="matrix(0.28,0,0,0.24979535,29.72002,106.12831)"
       x1="46"
       y1="63"
       x2="60.125"
       y2="77.125" />
  </defs>
  <path
     style="fill:currentColor;fill-opacity:0.5;stroke:none"
     d="m 16,10 224,0 c 3.324,0 6,2.676 6,6 l 0,224 c 0,3.324 -2.676,6 -6,6 l -224,0 c -3.324,0 -6,-2.676 -6,-6 L 10,16 c 0,-3.324 2.676,-6 6,-6 z"
     class="ColorScheme-ButtonText"
     id="rect4240" />
  <path
     style="fill:currentColor;fill-opacity:1;stroke:none" 
     d="m 16,12 224,0 c 2.216,0 4,1.784 4,4 l 0,224 c 0,2.216 -1.784,4 -4,4 l -224,0 c -2.216,0 -4,-1.784 -4,-4 L 12,16 c 0,-2.216 1.784,-4 4,-4 z"
     class="ColorScheme-Background"
     id="rect4238" />
  <path
     style="fill:currentColor;fill-opacity:1;stroke:none"
     class="ColorScheme-Text"
     d="M 86.300781,26.63867 85,26.734373 85,35.91406 c 0,0.502523 0.05745,0.920655 0.173828,1.253907 0.116374,0.327962 0.295736,0.579345 0.539063,0.753906 0.243326,0.174561 0.519368,0.296468 0.826171,0.365234 0.312094,0.06348 0.697999,0.0957 1.158204,0.0957 l 0.626953,0 0.07227,-0.90625 -0.357422,-0.02344 c -0.227457,-0.01587 -0.404296,-0.02848 -0.53125,-0.03906 -0.126953,-0.01587 -0.26595,-0.038 -0.414062,-0.06445 -0.142822,-0.03174 -0.250163,-0.06706 -0.324219,-0.109375 -0.06877,-0.04761 -0.140788,-0.107015 -0.214843,-0.175781 -0.07406,-0.06877 -0.126465,-0.155924 -0.158204,-0.261719 -0.02645,-0.105794 -0.05111,-0.227701 -0.07227,-0.365234 -0.01587,-0.137533 -0.02344,-0.304281 -0.02344,-0.5 l 0,-9.298828 z m -10.710937,0.0957 0,11.583984 1.396484,0 0,-5.601562 2.50586,0 c 1.306559,0 2.259684,-0.263998 2.857421,-0.792969 0.597738,-0.534261 0.896485,-1.320638 0.896485,-2.357422 0,-0.507812 -0.0922,-0.946126 -0.277344,-1.316406 -0.17985,-0.375567 -0.441325,-0.671791 -0.785156,-0.888669 -0.343832,-0.216878 -0.736735,-0.376058 -1.175782,-0.476562 -0.439046,-0.100505 -0.934814,-0.150391 -1.490234,-0.150391 l -3.927734,0 z m 55.302736,0 0,7.386719 c 0,1.333008 0.38338,2.39095 1.15039,3.173828 0.76701,0.782877 1.89697,1.173828 3.38867,1.173828 0.74585,0 1.41032,-0.104818 1.99219,-0.316406 0.58187,-0.216879 1.05493,-0.518148 1.41992,-0.904297 0.37028,-0.391439 0.65137,-0.849365 0.8418,-1.373047 0.19043,-0.523682 0.28515,-1.100993 0.28515,-1.730469 l 0,-7.410156 -1.39648,0 0,7.363281 c 0,1.068522 -0.264,1.880127 -0.79297,2.435547 -0.52897,0.55013 -1.31283,0.824219 -2.34961,0.824219 -2.09473,0 -3.14258,-1.085693 -3.14258,-3.259766 l 0,-7.363281 -1.39648,0 z m -53.906252,1.046875 2.523438,0 c 0.761718,0 1.339599,0.137044 1.736328,0.412109 0.402018,0.269776 0.603515,0.732748 0.603515,1.388672 0,0.761719 -0.181884,1.296712 -0.546875,1.603516 -0.3597,0.306803 -0.974283,0.458984 -1.841796,0.458984 l -2.47461,0 0,-3.863281 z m 15.962891,1.968753 c -1.12142,0 -2.130046,0.207113 -3.029297,0.625 l 0.355469,0.96875 c 0.386149,-0.18514 0.826416,-0.32723 1.318359,-0.427734 0.491943,-0.105795 0.952393,-0.160157 1.380859,-0.160157 0.634766,0 1.097738,0.151612 1.388672,0.453125 0.296224,0.301514 0.44336,0.75944 0.44336,1.373047 l 0,0.824219 -1.341797,0 c -1.348877,0 -2.332276,0.214111 -2.951172,0.642578 -0.613607,0.423177 -0.919922,1.090169 -0.919922,2 0,0.761719 0.231771,1.35669 0.697266,1.785156 0.470784,0.428467 1.092936,0.642578 1.865234,0.642578 1.153158,0 2.089193,-0.440836 2.808594,-1.324218 l 0.142578,1.158203 1,0 0,-5.539063 c 0,-1.068522 -0.274089,-1.837809 -0.824219,-2.308593 -0.54484,-0.476075 -1.323649,-0.712891 -2.333984,-0.712891 z m 7.839841,0 c -0.87809,0 -1.560219,0.211589 -2.046872,0.634766 -0.486654,0.417887 -0.730469,0.968017 -0.730469,1.65039 0,0.55013 0.14152,0.998535 0.421875,1.347656 0.280355,0.343832 0.798258,0.637533 1.554687,0.88086 l 0.919919,0.292969 c 0.60832,0.195719 1.02897,0.404785 1.26172,0.626953 0.23275,0.222168 0.34961,0.498209 0.34961,0.826172 0,0.476074 -0.14152,0.839843 -0.42187,1.09375 -0.28036,0.248616 -0.67383,0.373046 -1.18164,0.373046 -0.80933,0 -1.715662,-0.239339 -2.720708,-0.720703 l 0,1.101563 c 0.867514,0.412598 1.741618,0.61914 2.624998,0.61914 0.39673,0 0.76245,-0.04736 1.09571,-0.142578 0.33854,-0.09521 0.63981,-0.237304 0.90429,-0.427734 0.26978,-0.19043 0.48137,-0.444336 0.63477,-0.761719 0.1534,-0.322672 0.23047,-0.693441 0.23047,-1.111328 0,-0.338542 -0.0322,-0.624674 -0.0957,-0.857422 -0.0635,-0.238037 -0.18033,-0.459717 -0.34961,-0.666015 -0.16927,-0.206299 -0.40356,-0.385661 -0.70507,-0.539063 -0.29623,-0.158691 -0.67961,-0.312825 -1.15039,-0.460937 l -0.83399,-0.261719 c -0.54484,-0.174561 -0.90104,-0.338786 -1.070311,-0.492188 -0.169271,-0.153401 -0.253907,-0.402262 -0.253907,-0.746093 10e-7,-0.407308 0.129476,-0.716146 0.388672,-0.927735 0.264486,-0.216878 0.700276,-0.326172 1.308596,-0.326172 0.68237,0 1.38916,0.186361 2.11914,0.556641 l 0.30859,-0.976562 c -0.79346,-0.391439 -1.64739,-0.585938 -2.56251,-0.585938 z m 8.3086,0 c -1.07382,0 -1.93726,0.47054 -2.58789,1.412109 l -0.15039,-1.238281 -1.0625,0 0,8.394531 1.3164,0 0,-5.117187 c 0.11109,-0.73527 0.3549,-1.325195 0.73047,-1.769531 0.38086,-0.449626 0.89372,-0.675782 1.53906,-0.675782 0.58716,0 0.9882,0.22111 1.20508,0.660157 0.21688,0.433756 0.32617,1.163248 0.32617,2.189453 l 0,4.71289 1.31641,0 0,-4.308593 c 0.0159,-0.729981 0.0456,-1.165772 0.0879,-1.308594 0.14282,-0.629476 0.41186,-1.112061 0.80859,-1.445313 0.39673,-0.333252 0.84961,-0.5 1.35743,-0.5 0.22745,0 0.42643,0.03475 0.5957,0.103516 0.17456,0.06348 0.3116,0.165202 0.41211,0.302734 0.10579,0.137533 0.19043,0.2771 0.2539,0.419922 0.0635,0.137533 0.10832,0.319418 0.13477,0.546875 0.0264,0.227458 0.0416,0.421387 0.0469,0.580078 0.0106,0.153402 0.0176,0.357422 0.0176,0.611328 l 0,4.998047 1.31641,0 0,-5.412109 c 0,-2.105306 -0.85645,-3.15625 -2.57031,-3.15625 -1.21664,0 -2.14006,0.56779 -2.76953,1.705078 -0.19572,-0.534261 -0.47429,-0.952392 -0.83399,-1.253906 -0.35976,-0.301514 -0.85553,-0.451172 -1.49029,-0.451172 z m 12.79687,0 c -1.12142,0 -2.13004,0.207113 -3.0293,0.625 l 0.35547,0.96875 c 0.38615,-0.18514 0.82642,-0.32723 1.31836,-0.427734 0.49195,-0.105795 0.9524,-0.160157 1.38086,-0.160157 0.63477,0 1.09774,0.151612 1.38867,0.453125 0.29623,0.301514 0.44336,0.75944 0.44336,1.373047 l 0,0.824219 -1.34179,0 c -1.34888,0 -2.33228,0.214111 -2.95118,0.642578 -0.6136,0.423177 -0.91992,1.090169 -0.91992,2 0,0.761719 0.23177,1.35669 0.69727,1.785156 0.47078,0.428467 1.09293,0.642578 1.86523,0.642578 1.15316,0 2.0892,-0.440836 2.8086,-1.324218 l 0.14257,1.158203 1,0 0,-5.539063 c 0,-1.068522 -0.27408,-1.837809 -0.82421,-2.308593 -0.54484,-0.476075 -1.32365,-0.712891 -2.33399,-0.712891 z m 22.75781,0 c -0.87809,0 -1.56022,0.211589 -2.04687,0.634766 -0.48665,0.417887 -0.73047,0.968017 -0.73047,1.65039 0,0.55013 0.13957,0.998535 0.41992,1.347656 0.28036,0.343832 0.79826,0.637533 1.55469,0.88086 l 0.92187,0.292969 c 0.60832,0.195719 1.02898,0.404785 1.26172,0.626953 0.23275,0.222168 0.34766,0.498209 0.34766,0.826172 0,0.476074 -0.13957,0.839843 -0.41992,1.09375 -0.28036,0.248616 -0.67383,0.373046 -1.18164,0.373046 -0.80933,0 -1.71761,-0.239339 -2.72266,-0.720703 l 0,1.101563 c 0.86751,0.412598 1.74357,0.61914 2.62695,0.61914 0.39673,0 0.76245,-0.04736 1.09571,-0.142578 0.33854,-0.09521 0.63981,-0.237304 0.90429,-0.427734 0.26978,-0.19043 0.48137,-0.444336 0.63477,-0.761719 0.1534,-0.322672 0.22852,-0.693441 0.22852,-1.111328 0,-0.338542 -0.0303,-0.624674 -0.0938,-0.857422 -0.0635,-0.238037 -0.18033,-0.459717 -0.3496,-0.666015 -0.16928,-0.206299 -0.40552,-0.385661 -0.70704,-0.539063 -0.29622,-0.158691 -0.6796,-0.312825 -1.15039,-0.460937 l -0.83203,-0.261719 c -0.54484,-0.174561 -0.90299,-0.338786 -1.07226,-0.492188 -0.16927,-0.153401 -0.25391,-0.402262 -0.25391,-0.746093 0,-0.407308 0.12948,-0.716146 0.38867,-0.927735 0.26449,-0.216878 0.70223,-0.326172 1.31055,-0.326172 0.68237,0 1.38721,0.186361 2.11719,0.556641 l 0.31054,-0.976562 c -0.79341,-0.391439 -1.64734,-0.585938 -2.56246,-0.585938 z m 7.94922,0 c -1.11084,0 -2.02474,0.398519 -2.74414,1.197266 -0.7194,0.798746 -1.08008,1.869303 -1.08008,3.21289 0,1.327718 0.36825,2.380615 1.10352,3.158203 0.73527,0.772299 1.69149,1.158203 2.87109,1.158203 1.05795,0 2.0035,-0.246337 2.83399,-0.738281 l -0.27735,-0.927734 c -0.44433,0.222168 -0.84733,0.388916 -1.20703,0.5 -0.3597,0.111084 -0.75822,0.166015 -1.19726,0.166015 -0.80933,0 -1.46623,-0.256429 -1.96875,-0.769531 -0.50253,-0.518392 -0.77409,-1.310384 -0.81641,-2.378906 l 5.67188,0 0.0488,-0.667969 c 0,-1.227213 -0.27856,-2.183431 -0.83398,-2.871094 -0.55011,-0.692952 -1.35162,-1.039062 -2.40428,-1.039062 z m 8.88672,0.08594 c -0.50781,0 -0.99097,0.144042 -1.45117,0.429687 -0.45492,0.280355 -0.84082,0.721191 -1.1582,1.324219 l -0.14258,-1.666016 -1.05664,0 0,8.394531 1.31836,0 0,-4.751953 c 0,-0.745849 0.23177,-1.378092 0.69726,-1.896484 0.47079,-0.518392 1.06576,-0.777344 1.78516,-0.777344 0.14811,0 0.32747,0.02018 0.53906,0.0625 l 0.0566,-1.078125 c -0.1534,-0.02645 -0.34985,-0.04102 -0.58789,-0.04102 z m -8.85351,0.919921 c 1.333,0 2.03027,0.905762 2.09375,2.714844 l -4.57032,0 c 0.0741,-0.835775 0.33301,-1.497721 0.77735,-1.984375 0.44962,-0.486654 1.01684,-0.730469 1.69922,-0.730469 z m -58.835942,3.523438 1.007813,0 0,1.849609 c -0.629476,0.9257 -1.485922,1.388672 -2.570313,1.388672 -0.396728,0 -0.727702,-0.126953 -0.992187,-0.380859 -0.264486,-0.253907 -0.396485,-0.614584 -0.396485,-1.080078 0,-0.259196 0.02271,-0.47583 0.07031,-0.650391 0.04761,-0.17985 0.134765,-0.344076 0.261719,-0.492188 0.126953,-0.153401 0.303222,-0.272786 0.52539,-0.357421 0.222168,-0.08993 0.503825,-0.157471 0.847656,-0.205079 0.343832,-0.04761 0.75944,-0.07227 1.246094,-0.07227 z m 28.945312,0 1.00781,0 0,1.849609 c -0.62947,0.9257 -1.48592,1.388672 -2.57031,1.388672 -0.39673,0 -0.7277,-0.126953 -0.99219,-0.380859 -0.26448,-0.253907 -0.39648,-0.614584 -0.39648,-1.080078 0,-0.259196 0.0227,-0.47583 0.0703,-0.650391 0.0476,-0.17985 0.13477,-0.344076 0.26172,-0.492188 0.12695,-0.153401 0.30322,-0.272786 0.52539,-0.357421 0.22217,-0.08993 0.50383,-0.157471 0.84766,-0.205079 0.34383,-0.04761 0.75944,-0.07227 1.24609,-0.07227 z M 20,49.999998 l 0,1 216,0 0,-1 -216,0 z m 70.755859,10 -1.115234,0.08008 0,2.208984 0.05469,1.619141 c -0.107421,-0.19694 -0.220947,-0.365153 -0.341796,-0.503906 -0.116374,-0.143229 -0.259603,-0.275635 -0.429688,-0.396485 -0.170085,-0.125325 -0.374105,-0.218587 -0.611328,-0.28125 -0.237223,-0.06266 -0.506755,-0.09375 -0.806641,-0.09375 -0.939941,0 -1.683838,0.334473 -2.234375,1.00586 -0.546061,0.671387 -0.820312,1.551025 -0.820312,2.638672 0,1.145833 0.264811,2.056559 0.792969,2.732422 0.532633,0.671386 1.289306,1.007812 2.269531,1.007812 1.016032,0 1.753825,-0.464111 2.214844,-1.390625 l 0.101562,1.255859 0.925781,0 0,-9.882812 z m 42.626951,0 -1.10156,0.08008 0,7.767578 c 0,0.425212 0.05,0.780518 0.14844,1.0625 0.0985,0.277507 0.24918,0.489014 0.45508,0.636719 0.20589,0.147705 0.43961,0.250407 0.69921,0.308594 0.26408,0.05371 0.59107,0.08203 0.98047,0.08203 l 0.5293,0 0.0606,-0.765625 -0.30274,-0.02148 c -0.19246,-0.01343 -0.34179,-0.02425 -0.44922,-0.0332 -0.10742,-0.01343 -0.22428,-0.03036 -0.34961,-0.05273 -0.12085,-0.02685 -0.21272,-0.05794 -0.27539,-0.09375 -0.0582,-0.04028 -0.11702,-0.09025 -0.17968,-0.148437 -0.0627,-0.05819 -0.10791,-0.133138 -0.13477,-0.222657 -0.0224,-0.08952 -0.0426,-0.19222 -0.0605,-0.308593 -0.0134,-0.116374 -0.0195,-0.256267 -0.0195,-0.421875 l 0,-7.869141 z m -54.779294,0.08008 -3.591797,9.802734 1.208984,0 1.148438,-3.15625 3.751953,0 1.154297,3.15625 1.169921,0 -3.585937,-9.802734 -1.255859,0 z m 24.337894,0 0,9.802734 5.67968,0 0.0273,-0.90039 -4.52539,0 0,-8.902344 -1.18164,0 z m -23.699222,1.15625 1.611328,4.671875 -3.208985,0 1.597657,-4.671875 z m 15.884765,1.396484 c -0.948893,10e-7 -1.803548,0.1757 -2.564453,0.529297 l 0.300781,0.81836 c 0.326742,-0.156657 0.698975,-0.276286 1.115235,-0.361328 0.416259,-0.08952 0.80542,-0.134766 1.167968,-0.134766 0.53711,0 0.929606,0.127686 1.175782,0.382813 0.250651,0.255126 0.375,0.642903 0.375,1.162109 l 0,0.697265 -1.134766,0 c -1.141357,0 -1.974365,0.182374 -2.498047,0.544922 -0.519206,0.358073 -0.777344,0.92155 -0.777344,1.691407 0,0.644531 0.195964,1.147216 0.589844,1.509765 0.398356,0.362549 0.924642,0.544922 1.578125,0.544922 0.975749,0 1.768229,-0.373616 2.376953,-1.121094 l 0.121094,0.980469 0.845703,0 0,-4.6875 c 0,-0.904134 -0.233724,-1.554769 -0.699219,-1.953125 -0.461019,-0.402832 -1.117757,-0.603516 -1.972656,-0.603516 z m 17.791017,0 c -1.04289,0 -1.86174,0.339193 -2.45703,1.019532 -0.59082,0.675862 -0.88672,1.571045 -0.88672,2.685547 0,1.087646 0.30062,1.973388 0.90039,2.658203 0.59977,0.680338 1.4139,1.021484 2.44336,1.021484 1.00708,0 1.81844,-0.342529 2.43164,-1.027344 0.6132,-0.68929 0.91797,-1.573649 0.91797,-2.652343 0,-1.114502 -0.29395,-2.009685 -0.88477,-2.685547 -0.59082,-0.680339 -1.413,-1.019532 -2.46484,-1.019532 z m 14.95898,0 c -0.93994,10e-7 -1.71354,0.33781 -2.32226,1.013672 -0.60873,0.675863 -0.91407,1.581869 -0.91407,2.71875 0,1.123454 0.31145,2.013916 0.9336,2.671875 0.62215,0.653483 1.43156,0.980469 2.42969,0.980469 0.89518,0 1.69376,-0.20874 2.39648,-0.625 l -0.23437,-0.785156 c -0.37598,0.187988 -0.71517,0.327881 -1.01954,0.421875 -0.30436,0.09399 -0.64217,0.142578 -1.01367,0.142578 -0.68481,0 -1.2408,-0.21818 -1.66601,-0.652344 -0.42521,-0.438639 -0.6556,-1.109538 -0.69141,-2.013672 l 4.80078,0 0.0391,-0.564453 c 0,-1.038411 -0.2351,-1.847819 -0.70507,-2.429687 -0.4655,-0.586345 -1.1425,-0.878907 -2.03321,-0.878907 z m 11.13086,0 c -0.94889,10e-7 -1.80355,0.1757 -2.56445,0.529297 l 0.30273,0.81836 c 0.32675,-0.156657 0.69703,-0.276286 1.11329,-0.361328 0.41625,-0.08952 0.80737,-0.134766 1.16992,-0.134766 0.53711,0 0.92765,0.127686 1.17382,0.382813 0.25066,0.255126 0.37696,0.642903 0.37696,1.162109 l 0,0.697265 -1.13477,0 c -1.14135,0 -1.97436,0.182374 -2.49804,0.544922 -0.51921,0.358073 -0.7793,0.92155 -0.7793,1.691407 0,0.644531 0.19792,1.147216 0.5918,1.509765 0.39835,0.362549 0.92464,0.544922 1.57812,0.544922 0.97575,0 1.76628,-0.373616 2.375,-1.121094 l 0.12109,0.980469 0.84571,0 0,-4.6875 c 0,-0.904134 -0.23177,-1.554769 -0.69727,-1.953125 -0.46102,-0.402832 -1.11971,-0.603516 -1.97461,-0.603516 z m 7.47266,0 c -0.98918,0 -1.79248,0.33309 -2.41016,1 -0.61767,0.662435 -0.92578,1.573161 -0.92578,2.732422 0,1.110026 0.29867,1.995769 0.89844,2.658204 0.60425,0.662434 1.41561,0.99414 2.43164,0.99414 0.43416,0 0.82332,-0.05135 1.16797,-0.154297 0.34464,-0.102946 0.59196,-0.215088 0.74414,-0.335937 l -0.20703,-0.759766 c -0.45207,0.259603 -0.95199,0.390625 -1.49805,0.390625 -0.78328,0 -1.37785,-0.258708 -1.78516,-0.773437 -0.4073,-0.51473 -0.61132,-1.187012 -0.61132,-2.019532 0,-0.877278 0.21346,-1.576497 0.63867,-2.095703 0.42521,-0.519205 0.98869,-0.777343 1.6914,-0.777343 0.55502,0 1.05022,0.129069 1.48438,0.388671 l 0.31445,-0.765625 c -0.15218,-0.102946 -0.39811,-0.208984 -0.73828,-0.316406 -0.33569,-0.111898 -0.73429,-0.166016 -1.19531,-0.166016 z m 5.99609,0 c -0.93994,10e-7 -1.71354,0.33781 -2.32226,1.013672 -0.60873,0.675863 -0.91407,1.581869 -0.91407,2.71875 0,1.123454 0.31145,2.013916 0.9336,2.671875 0.62215,0.653483 1.43156,0.980469 2.42969,0.980469 0.89518,0 1.69376,-0.20874 2.39648,-0.625 l -0.23438,-0.785156 c -0.37597,0.187988 -0.71516,0.327881 -1.01953,0.421875 -0.30436,0.09399 -0.64217,0.142578 -1.01367,0.142578 -0.68481,0 -1.2408,-0.21818 -1.66601,-0.652344 -0.42522,-0.438639 -0.6556,-1.109538 -0.69141,-2.013672 l 4.80078,0 0.0391,-0.564453 c 0,-1.038411 -0.2351,-1.847819 -0.70507,-2.429687 -0.4655,-0.586345 -1.1425,-0.878907 -2.03321,-0.878907 z m -35.30078,0.146485 2.74414,7.103515 1.12305,0 2.69141,-7.103515 -1.13477,0 c -0.23722,0.653483 -0.59058,1.631103 -1.06055,2.933594 -0.46997,1.30249 -0.82194,2.282063 -1.05468,2.935547 -0.29094,-0.769857 -0.71119,-1.903484 -1.26172,-3.398438 -0.54606,-1.494954 -0.84807,-2.318522 -0.90625,-2.470703 l -1.14063,0 z m -29.507811,0.705078 c 0.662435,0 1.1604,0.245931 1.496093,0.738281 0.34017,0.492351 0.511719,1.21932 0.511719,2.181641 -0.0045,0.881754 -0.167969,1.562093 -0.490234,2.041015 -0.322266,0.478923 -0.848552,0.71875 -1.578125,0.71875 -0.693766,0 -1.205892,-0.255371 -1.53711,-0.765624 -0.326741,-0.510254 -0.490234,-1.210857 -0.490234,-2.101563 0,-0.895182 0.174317,-1.586344 0.523438,-2.074219 0.349121,-0.49235 0.870686,-0.738281 1.564453,-0.738281 z m 25.250001,0 c 0.72957,0 1.28084,0.261475 1.65234,0.785156 0.3715,0.519206 0.55664,1.213705 0.55664,2.082031 0,0.555014 -0.0763,1.040772 -0.22851,1.457032 -0.15218,0.411784 -0.39811,0.743489 -0.73828,0.99414 -0.3357,0.246176 -0.74984,0.369141 -1.24219,0.369141 -0.71615,0 -1.2627,-0.260091 -1.63867,-0.779297 -0.37598,-0.519206 -0.5625,-1.202881 -0.5625,-2.048828 0,-0.863851 0.18652,-1.555013 0.5625,-2.074219 0.37597,-0.523681 0.92252,-0.785156 1.63867,-0.785156 z m 14.98633,0 c 1.12793,0 1.71777,0.766113 1.77148,2.296875 l -3.86719,0 c 0.0627,-0.707194 0.28223,-1.267904 0.65821,-1.679688 0.38045,-0.411783 0.8601,-0.617187 1.4375,-0.617187 z m 24.59961,0 c 1.12793,0 1.71777,0.766113 1.77148,2.296875 l -3.86719,0 c 0.0627,-0.707194 0.28223,-1.267904 0.65821,-1.679688 0.38045,-0.411783 0.8601,-0.617187 1.4375,-0.617187 z m -56.658207,2.980469 0.851563,0 0,1.564453 c -0.532634,0.783284 -1.25822,1.175781 -2.175782,1.175781 -0.335693,0 -0.614095,-0.107422 -0.83789,-0.322266 -0.223796,-0.214843 -0.335938,-0.520182 -0.335938,-0.914062 0,-0.21932 0.02026,-0.403076 0.06055,-0.550781 0.04028,-0.152181 0.113281,-0.29069 0.220703,-0.416016 0.107422,-0.129801 0.255371,-0.229167 0.44336,-0.300781 0.187988,-0.07609 0.427815,-0.135498 0.71875,-0.175781 0.290934,-0.04028 0.642903,-0.06055 1.054687,-0.06055 z m 43.880857,0 0.85352,0 0,1.564453 c -0.53264,0.783284 -1.25822,1.175781 -2.17578,1.175781 -0.3357,0 -0.61605,-0.107422 -0.83985,-0.322266 -0.22379,-0.214843 -0.33593,-0.520182 -0.33593,-0.914062 0,-0.21932 0.0203,-0.403076 0.0605,-0.550781 0.0403,-0.152181 0.11524,-0.29069 0.22266,-0.416016 0.10742,-0.129801 0.25537,-0.229167 0.44336,-0.300781 0.18799,-0.07609 0.42586,-0.135498 0.7168,-0.175781 0.29093,-0.04028 0.6429,-0.06055 1.05468,-0.06055 z m -16.36914,40.210936 -1.11328,0.0801 0,2.20898 0.0527,1.61914 c -0.10743,-0.19694 -0.22095,-0.36515 -0.3418,-0.5039 -0.11638,-0.14323 -0.2596,-0.27564 -0.42969,-0.39649 -0.17008,-0.12532 -0.3741,-0.21858 -0.61133,-0.28125 -0.23722,-0.0627 -0.5048,-0.0957 -0.80468,-0.0957 -0.93995,0 -1.6858,0.33643 -2.23633,1.00781 -0.54606,0.67139 -0.81836,1.55103 -0.81836,2.63867 0,1.14584 0.26286,2.05656 0.79101,2.73243 0.53264,0.67138 1.28931,1.00781 2.26953,1.00781 1.01604,0 1.75578,-0.46411 2.2168,-1.39063 l 0.0996,1.25586 0.92578,0 0,-9.88281 z m 18.79883,0 -1.11328,0.0801 0,2.20898 0.0527,1.61914 c -0.10742,-0.19694 -0.22094,-0.36515 -0.34179,-0.5039 -0.11638,-0.14323 -0.25961,-0.27564 -0.42969,-0.39649 -0.17009,-0.12532 -0.37411,-0.21858 -0.61133,-0.28125 -0.23722,-0.0627 -0.5048,-0.0957 -0.80469,-0.0957 -0.93994,0 -1.68579,0.33643 -2.23632,1.00781 -0.54607,0.67139 -0.81836,1.55103 -0.81836,2.63867 0,1.14584 0.26285,2.05656 0.79101,2.73243 0.53263,0.67138 1.28931,1.00781 2.26953,1.00781 1.01603,0 1.75578,-0.46411 2.2168,-1.39063 l 0.0996,1.25586 0.92578,0 0,-9.88281 z m -66.392578,0.0801 0,9.80273 5.679687,0 0.02734,-0.90039 -4.525391,0 0,-8.90234 -1.18164,0 z m 77.880858,0 3.61914,9.80273 1.03321,0 3.61914,-9.80273 -1.21485,0 c -0.13875,0.39388 -0.56372,1.61605 -1.27539,3.66602 -0.70719,2.04549 -1.25374,3.61018 -1.63867,4.69335 -0.29541,-0.81909 -0.60685,-1.69262 -0.93359,-2.61914 -0.32227,-0.93099 -0.68034,-1.96468 -1.07422,-3.10156 -0.39388,-1.14136 -0.69727,-2.02099 -0.91211,-2.63867 l -1.22266,0 z m 10.33203,0 c -0.21484,0 -0.39054,0.0669 -0.52929,0.20117 -0.13428,0.1298 -0.20118,0.30135 -0.20118,0.51172 0,0.21037 0.0669,0.38135 0.20118,0.51563 0.13875,0.13427 0.31445,0.20117 0.52929,0.20117 0.21037,0 0.38469,-0.0669 0.52344,-0.20117 0.13875,-0.13428 0.20898,-0.30526 0.20898,-0.51563 0,-0.21037 -0.0702,-0.38192 -0.20898,-0.51172 -0.13428,-0.13428 -0.30859,-0.20117 -0.52344,-0.20117 z m 17.21485,0 c -0.21485,0 -0.39055,0.0669 -0.5293,0.20117 -0.13428,0.1298 -0.20313,0.30135 -0.20313,0.51172 0,0.21037 0.0688,0.38135 0.20313,0.51563 0.13875,0.13427 0.31445,0.20117 0.5293,0.20117 0.21036,0 0.38468,-0.0669 0.52343,-0.20117 0.13876,-0.13428 0.20899,-0.30526 0.20899,-0.51563 0,-0.21037 -0.0702,-0.38192 -0.20899,-0.51172 -0.13427,-0.13428 -0.30859,-0.20117 -0.52343,-0.20117 z m -95.558598,2.55078 c -0.939941,0 -1.713541,0.33781 -2.322265,1.01367 -0.608724,0.67587 -0.914063,1.58382 -0.914063,2.72071 0,1.12345 0.311442,2.01391 0.933594,2.67187 0.622152,0.65348 1.431559,0.98047 2.429688,0.98047 0.895182,0 1.695719,-0.20874 2.398437,-0.625 l -0.236328,-0.78516 c -0.375977,0.18799 -0.715169,0.32788 -1.019531,0.42188 -0.304362,0.094 -0.642171,0.14258 -1.013672,0.14258 -0.684815,0 -1.240804,-0.21818 -1.666016,-0.65235 -0.425211,-0.43864 -0.655599,-1.10954 -0.691406,-2.01367 l 4.800781,0 0.04102,-0.56445 c 0,-1.03841 -0.235108,-1.84782 -0.705078,-2.42969 -0.465495,-0.58634 -1.14445,-0.88086 -2.035157,-0.88086 z m 7.277344,0 c -1.042887,0 -1.861735,0.34115 -2.457031,1.02148 -0.59082,0.67587 -0.884766,1.57105 -0.884766,2.68555 0,1.08765 0.298666,1.97339 0.898438,2.65821 0.599772,0.68033 1.4139,1.02148 2.443359,1.02148 1.00708,0 1.818441,-0.34253 2.431641,-1.02734 0.6132,-0.68929 0.919922,-1.57365 0.919922,-2.65235 0,-1.1145 -0.295899,-2.00968 -0.886719,-2.68555 -0.59082,-0.68033 -1.413005,-1.02148 -2.464844,-1.02148 z m 8.292964,0 c -1.06974,0 -1.873042,0.37695 -2.410151,1.12891 l -0.121094,-0.98047 -0.966797,0 0,7.10351 1.113281,0 0,-3.96093 c 0,-1.62476 0.730306,-2.4375 2.189451,-2.4375 0.54159,0 0.91992,0.16349 1.13477,0.49023 0.21484,0.32227 0.32226,0.8033 0.32226,1.44336 l 0,4.46484 1.11524,0 0,-4.34375 c 0,-0.97574 -0.19458,-1.70271 -0.58399,-2.18164 -0.38492,-0.4834 -0.98283,-0.72656 -1.79297,-0.72656 z m 6.70704,0 c -0.9489,0 -1.80355,0.17765 -2.56446,0.53125 l 0.30078,0.81836 c 0.32675,-0.15666 0.69898,-0.27629 1.11524,-0.36133 0.41626,-0.0895 0.80542,-0.13476 1.16797,-0.13476 0.53711,0 0.9296,0.12768 1.17578,0.38281 0.25065,0.25513 0.375,0.6429 0.375,1.16211 l 0,0.69726 -1.13477,0 c -1.14135,0 -1.97436,0.18238 -2.49804,0.54493 -0.51921,0.35807 -0.77735,0.92155 -0.77735,1.6914 0,0.64453 0.19597,1.14722 0.58985,1.50977 0.39835,0.36255 0.92464,0.54492 1.57812,0.54492 0.97575,0 1.76823,-0.37362 2.37695,-1.12109 l 0.1211,0.97851 0.8457,0 0,-4.68555 c 0,-0.90413 -0.23372,-1.55476 -0.69922,-1.95312 -0.46102,-0.40283 -1.11775,-0.60547 -1.97265,-0.60547 z m 20.23437,0 c -1.04289,0 -1.86173,0.34115 -2.45703,1.02148 -0.59082,0.67587 -0.88477,1.57105 -0.88477,2.68555 0,1.08765 0.29867,1.97339 0.89844,2.65821 0.59977,0.68033 1.4139,1.02148 2.44336,1.02148 1.00708,0 1.81844,-0.34253 2.43164,-1.02734 0.6132,-0.68929 0.91992,-1.57365 0.91992,-2.65235 0,-1.1145 -0.29589,-2.00968 -0.88671,-2.68555 -0.59083,-0.68033 -1.41301,-1.02148 -2.46485,-1.02148 z m 18.38281,0 c -0.94889,0 -1.80354,0.17765 -2.56445,0.53125 l 0.30273,0.81836 c 0.32675,-0.15666 0.69703,-0.27629 1.11329,-0.36133 0.41626,-0.0895 0.80737,-0.13476 1.16992,-0.13476 0.53711,0 0.92765,0.12768 1.17383,0.38281 0.25065,0.25513 0.37695,0.6429 0.37695,1.16211 l 0,0.69726 -1.13477,0 c -1.14135,0 -1.97436,0.18238 -2.49804,0.54493 -0.51921,0.35807 -0.7793,0.92155 -0.7793,1.6914 0,0.64453 0.19792,1.14722 0.5918,1.50977 0.39835,0.36255 0.92464,0.54492 1.57812,0.54492 0.97575,0 1.76628,-0.37362 2.375,-1.12109 l 0.1211,0.97851 0.8457,0 0,-4.68555 c 0,-0.90413 -0.23177,-1.55476 -0.69727,-1.95312 -0.46102,-0.40283 -1.11971,-0.60547 -1.97461,-0.60547 z m 23.50586,0 c -1.06974,0 -1.87304,0.37695 -2.41015,1.12891 l -0.1211,-0.98047 -0.96679,0 0,7.10351 1.11523,0 0,-3.96093 c 0,-1.62476 0.72835,-2.4375 2.1875,-2.4375 0.54159,0 0.91992,0.16349 1.13477,0.49023 0.21484,0.32227 0.32226,0.8033 0.32226,1.44336 l 0,4.46484 1.11524,0 0,-4.34375 c 0,-0.97574 -0.19458,-1.70271 -0.58399,-2.18164 -0.38493,-0.4834 -0.98283,-0.72656 -1.79297,-0.72656 z m 7.11719,0 c -0.98918,0 -1.79248,0.33504 -2.41016,1.00195 -0.61767,0.66244 -0.92773,1.57316 -0.92773,2.73243 0,1.11002 0.30062,1.99576 0.90039,2.6582 0.60425,0.66243 1.41366,0.99414 2.42969,0.99414 0.43416,0 0.82332,-0.0513 1.16797,-0.1543 0.34464,-0.10294 0.59391,-0.21509 0.74609,-0.33594 l -0.20898,-0.75976 c -0.45207,0.2596 -0.95004,0.39062 -1.4961,0.39062 -0.78328,0 -1.3798,-0.2587 -1.78711,-0.77343 -0.4073,-0.51473 -0.60937,-1.18701 -0.60937,-2.01953 0,-0.87728 0.21151,-1.5765 0.63672,-2.09571 0.42521,-0.5192 0.98869,-0.77929 1.6914,-0.77929 0.55502,0 1.05021,0.13102 1.48438,0.39062 l 0.3164,-0.76562 c -0.15218,-0.10295 -0.39811,-0.20899 -0.73828,-0.31641 -0.33569,-0.1119 -0.73429,-0.16797 -1.19531,-0.16797 z m -61.51953,0.0742 c -0.42969,0 -0.83911,0.12158 -1.22852,0.36328 -0.38492,0.23722 -0.71191,0.61084 -0.98046,1.12109 l -0.1211,-1.41015 -0.89258,0 0,7.10351 1.11524,0 0,-4.02148 c 0,-0.6311 0.19596,-1.16683 0.58984,-1.60547 0.39836,-0.43864 0.90104,-0.6582 1.50977,-0.6582 0.12532,0 0.27799,0.0189 0.45703,0.0547 l 0.0469,-0.91406 c -0.1298,-0.0224 -0.29467,-0.0332 -0.49609,-0.0332 z m 47.78906,0.0742 0,7.10351 1.10156,0 0,-7.10351 -1.10156,0 z m 17.21485,0 0,7.10351 1.10156,0 0,-7.10351 -1.10156,0 z m -94.974614,0.70508 c 1.12793,0 1.717774,0.76611 1.771485,2.29687 l -3.867188,0 c 0.06266,-0.70719 0.282227,-1.2679 0.658203,-1.67969 0.380453,-0.41178 0.860108,-0.61718 1.4375,-0.61718 z m 7.25,0 c 0.729574,0 1.280843,0.26147 1.652344,0.78515 0.371501,0.51921 0.556641,1.21371 0.556641,2.08203 0,0.55502 -0.07634,1.04078 -0.228516,1.45704 -0.152181,0.41178 -0.398112,0.74153 -0.738281,0.99218 -0.335694,0.24618 -0.749837,0.3711 -1.242188,0.3711 -0.716146,0 -1.260742,-0.26009 -1.636718,-0.7793 -0.375977,-0.51921 -0.564454,-1.20288 -0.564454,-2.04883 0,-0.86385 0.188477,-1.55501 0.564454,-2.07422 0.375976,-0.52368 0.920572,-0.78515 1.636718,-0.78515 z m 27.359374,0 c 0.66244,0 1.16235,0.24593 1.49805,0.73828 0.34017,0.49235 0.50976,1.21932 0.50976,2.18164 -0.004,0.88175 -0.16796,1.56209 -0.49023,2.04101 -0.32227,0.47893 -0.84855,0.71875 -1.57813,0.71875 -0.69376,0 -1.20589,-0.25537 -1.5371,-0.76562 -0.32675,-0.51026 -0.49024,-1.21086 -0.49024,-2.10156 0,-0.89519 0.17432,-1.58635 0.52344,-2.07422 0.34912,-0.49235 0.87068,-0.73828 1.56445,-0.73828 z m 7.875,0 c 0.72957,0 1.28084,0.26147 1.65235,0.78515 0.3715,0.51921 0.55664,1.21371 0.55664,2.08203 0,0.55502 -0.0763,1.04078 -0.22852,1.45704 -0.15218,0.41178 -0.39811,0.74153 -0.73828,0.99218 -0.33569,0.24618 -0.74984,0.3711 -1.24219,0.3711 -0.71614,0 -1.26074,-0.26009 -1.63672,-0.7793 -0.37597,-0.51921 -0.56445,-1.20288 -0.56445,-2.04883 0,-0.86385 0.18848,-1.55501 0.56445,-2.07422 0.37598,-0.52368 0.92058,-0.78515 1.63672,-0.78515 z m 10.92383,0 c 0.66243,0 1.16235,0.24593 1.49805,0.73828 0.34017,0.49235 0.50976,1.21932 0.50976,2.18164 -0.004,0.88175 -0.16797,1.56209 -0.49023,2.04101 -0.32227,0.47893 -0.84855,0.71875 -1.57813,0.71875 -0.69376,0 -1.20589,-0.25537 -1.53711,-0.76562 -0.32674,-0.51026 -0.49023,-1.21086 -0.49023,-2.10156 0,-0.89519 0.17432,-1.58635 0.52344,-2.07422 0.34912,-0.49235 0.87068,-0.73828 1.56445,-0.73828 z m -30.43945,2.98046 0.85156,0 0,1.56446 c -0.53263,0.78328 -1.25822,1.17578 -2.17578,1.17578 -0.3357,0 -0.6141,-0.10742 -0.83789,-0.32227 -0.2238,-0.21484 -0.33594,-0.52018 -0.33594,-0.91406 0,-0.21932 0.0203,-0.40307 0.0606,-0.55078 0.0403,-0.15218 0.11328,-0.29069 0.2207,-0.41602 0.10742,-0.1298 0.25537,-0.22916 0.44336,-0.30078 0.18799,-0.0761 0.42781,-0.13549 0.71875,-0.17578 0.29093,-0.0403 0.6429,-0.0606 1.05469,-0.0606 z m 38.61718,0 0.85352,0 0,1.56446 c -0.53263,0.78328 -1.25822,1.17578 -2.17578,1.17578 -0.3357,0 -0.61605,-0.10742 -0.83985,-0.32227 -0.22379,-0.21484 -0.33593,-0.52018 -0.33593,-0.91406 0,-0.21932 0.0203,-0.40307 0.0605,-0.55078 0.0403,-0.15218 0.11524,-0.29069 0.22266,-0.41602 0.10742,-0.1298 0.25537,-0.22916 0.44336,-0.30078 0.18799,-0.0761 0.42586,-0.13549 0.7168,-0.17578 0.29093,-0.0403 0.6429,-0.0606 1.05468,-0.0606 z M 80.269531,154 c -0.720621,0 -1.384033,0.12907 -1.988281,0.38867 -0.604248,0.25513 -1.111654,0.6071 -1.523438,1.05469 -0.407307,0.44759 -0.724853,0.98136 -0.953124,1.60352 -0.223796,0.61767 -0.335938,1.2858 -0.335938,2.00195 0,0.71614 0.09798,1.3776 0.294922,1.98633 0.201416,0.60424 0.492594,1.13191 0.873047,1.58398 0.380452,0.45207 0.862874,0.80737 1.449219,1.0625 0.586344,0.25513 1.249755,0.38086 1.988281,0.38086 1.190592,0 2.305338,-0.20068 3.34375,-0.60352 l 0,-4.52539 -3.230469,0 -0.04687,0.93946 2.181641,0 0,2.96093 c -0.622152,0.19247 -1.302491,0.28907 -2.041016,0.28907 -0.631104,0 -1.18042,-0.098 -1.650391,-0.29493 -0.46997,-0.19694 -0.848307,-0.47729 -1.134765,-0.83984 -0.281983,-0.36702 -0.492106,-0.79337 -0.63086,-1.28125 -0.138753,-0.49235 -0.208984,-1.04834 -0.208984,-1.66601 0,-0.77881 0.141846,-1.47608 0.423828,-2.09375 0.281983,-0.61768 0.700846,-1.10816 1.25586,-1.47071 0.555013,-0.36702 1.205647,-0.55078 1.953124,-0.55078 0.152181,0 0.296794,0.005 0.435547,0.0137 0.14323,0.009 0.280355,0.0245 0.410157,0.0469 0.129801,0.0224 0.243326,0.0426 0.341796,0.0605 0.09847,0.0179 0.201172,0.0476 0.308594,0.0879 0.111898,0.0403 0.201009,0.0714 0.263672,0.0937 0.06714,0.0224 0.149577,0.0596 0.248047,0.11328 0.102946,0.0492 0.16984,0.0837 0.201172,0.10156 0.03581,0.0179 0.102702,0.0537 0.201172,0.10742 0.09847,0.0537 0.154541,0.0848 0.167969,0.0937 l 0.289062,-0.88672 C 82.426676,154.25203 81.4646,154 80.269531,154 Z m 33.601559,0.13281 0,9.80274 1.18164,0 0,-4.57227 5.10352,0 0,4.57227 1.18164,0 0,-9.80274 -1.18164,0 0,4.3711 -5.10352,0 0,-4.3711 -1.18164,0 z m -21.080074,2.55274 c -0.948894,0 -1.805502,0.1757 -2.566407,0.52929 l 0.302735,0.82032 c 0.326741,-0.15666 0.698974,-0.27824 1.115234,-0.36328 0.41626,-0.0895 0.80542,-0.13477 1.167969,-0.13477 0.537109,0 0.927653,0.12768 1.173828,0.38281 0.250651,0.25513 0.376953,0.64291 0.376953,1.16211 l 0,0.69727 -1.134766,0 c -1.141357,0 -1.974365,0.18237 -2.498046,0.54492 -0.519206,0.35807 -0.779297,0.92155 -0.779297,1.6914 0,0.64454 0.197916,1.14722 0.591797,1.50977 0.398356,0.36255 0.924642,0.54492 1.578125,0.54492 0.975748,0 1.768229,-0.37361 2.376953,-1.12109 l 0.121094,0.98047 0.845703,0 0,-4.6875 c 0,-0.90414 -0.233724,-1.55477 -0.699219,-1.95313 -0.461019,-0.40283 -1.117757,-0.60351 -1.972656,-0.60351 z m 7.470704,0 c -0.989178,0 -1.792482,0.33309 -2.410158,1 -0.617675,0.66243 -0.925781,1.57316 -0.925781,2.73242 0,1.11002 0.300619,1.99577 0.900391,2.6582 0.604248,0.66244 1.413655,0.99414 2.429688,0.99414 0.43416,0 0.82332,-0.0514 1.16797,-0.15429 0.34464,-0.10295 0.59391,-0.21509 0.74609,-0.33594 l -0.20898,-0.75781 c -0.45207,0.2596 -0.95004,0.38867 -1.4961,0.38867 -0.783281,0 -1.379798,-0.25676 -1.787106,-0.77149 -0.407308,-0.51473 -0.611328,-1.18896 -0.611328,-2.02148 0,-0.87728 0.213461,-1.5765 0.638672,-2.0957 0.425212,-0.51921 0.988688,-0.77735 1.691402,-0.77735 0.55502,0 1.05022,0.12907 1.48438,0.38867 l 0.31445,-0.76562 c -0.15218,-0.10295 -0.39811,-0.20703 -0.73828,-0.31445 -0.33569,-0.1119 -0.73429,-0.16797 -1.19531,-0.16797 z m 5.99609,0 c -0.93994,0 -1.71354,0.33781 -2.32226,1.01367 -0.60873,0.67586 -0.91407,1.58187 -0.91407,2.71875 0,1.12345 0.31145,2.01391 0.9336,2.67187 0.62215,0.65349 1.43156,0.98047 2.42969,0.98047 0.89518,0 1.69572,-0.20874 2.39843,-0.625 l -0.23632,-0.78515 c -0.37598,0.18798 -0.71517,0.32983 -1.01954,0.42382 -0.30436,0.094 -0.64217,0.14063 -1.01367,0.14063 -0.68481,0 -1.2408,-0.21818 -1.66601,-0.65234 -0.42522,-0.43864 -0.6556,-1.10954 -0.69141,-2.01368 l 4.80078,0 0.041,-0.56445 c 0,-1.03841 -0.23511,-1.84782 -0.70508,-2.42969 -0.4655,-0.58634 -1.14445,-0.8789 -2.03516,-0.8789 z m 20.08789,0 c -1.04288,0 -1.86173,0.33919 -2.45703,1.01953 -0.59082,0.67586 -0.88672,1.57104 -0.88672,2.68554 0,1.08765 0.30062,1.97339 0.90039,2.65821 0.59978,0.68034 1.4139,1.02148 2.44336,1.02148 1.00708,0 1.81844,-0.34253 2.43164,-1.02734 0.6132,-0.68929 0.91797,-1.57365 0.91797,-2.65235 0,-1.1145 -0.29394,-2.00968 -0.88476,-2.68554 -0.59082,-0.68034 -1.41301,-1.01953 -2.46485,-1.01953 z m 8.15821,0 c -1.02499,0 -1.80054,0.46216 -2.32422,1.38867 l -0.11328,-1.24219 -0.92579,0 0,10.21875 1.11329,0 0,-2.67187 -0.0469,-1.64453 c 0.52816,0.8907 1.28622,1.33593 2.27539,1.33593 0.93099,0 1.65658,-0.33642 2.17578,-1.00781 0.51921,-0.67139 0.7793,-1.55713 0.7793,-2.6582 0,-1.14584 -0.25065,-2.05184 -0.75195,-2.71875 -0.49683,-0.66691 -1.2238,-1 -2.18164,-1 z m 7.75976,0 c -1.02498,0 -1.79858,0.46216 -2.32226,1.38867 l -0.11329,-1.24219 -0.92773,0 0,10.21875 1.11523,0 0,-2.67187 -0.0469,-1.64453 c 0.52816,0.8907 1.28621,1.33593 2.27539,1.33593 0.93099,0 1.65658,-0.33642 2.17578,-1.00781 0.51921,-0.67139 0.7793,-1.55713 0.7793,-2.6582 0,-1.14584 -0.25065,-2.05184 -0.75195,-2.71875 -0.49683,-0.66691 -1.22575,-1 -2.1836,-1 z m 7.3125,0 c -0.93994,0 -1.71354,0.33781 -2.32226,1.01367 -0.60873,0.67586 -0.91407,1.58187 -0.91407,2.71875 0,1.12345 0.31145,2.01391 0.9336,2.67187 0.62215,0.65349 1.43156,0.98047 2.42968,0.98047 0.89519,0 1.69377,-0.20874 2.39649,-0.625 l -0.23438,-0.78515 c -0.37597,0.18798 -0.71516,0.32983 -1.01953,0.42382 -0.30436,0.094 -0.64217,0.14063 -1.01367,0.14063 -0.68481,0 -1.2408,-0.21818 -1.66601,-0.65234 -0.42522,-0.43864 -0.6556,-1.10954 -0.69141,-2.01368 l 4.80078,0 0.0391,-0.56445 c 0,-1.03841 -0.2351,-1.84782 -0.70507,-2.42969 -0.4655,-0.58634 -1.1425,-0.8789 -2.03321,-0.8789 z m -61.042967,0.0723 c -0.429687,0 -0.839111,0.12158 -1.228515,0.36328 -0.384929,0.23723 -0.711915,0.61084 -0.980469,1.1211 l -0.121094,-1.41016 -0.892578,0 0,7.10352 1.115234,0 0,-4.02149 c 0,-0.6311 0.195964,-1.16487 0.589844,-1.60351 0.398356,-0.43864 0.902995,-0.65821 1.511719,-0.65821 0.125325,0 0.276041,0.0169 0.455078,0.0527 l 0.04883,-0.91211 c -0.129801,-0.0224 -0.296631,-0.0352 -0.498047,-0.0352 z m 68.562497,0 c -0.42968,0 -0.83911,0.12158 -1.22851,0.36328 -0.38493,0.23723 -0.71192,0.61084 -0.98047,1.1211 l -0.1211,-1.41016 -0.89257,0 0,7.10352 1.11523,0 0,-4.02149 c 0,-0.6311 0.19596,-1.16487 0.58984,-1.60351 0.39836,-0.43864 0.90105,-0.65821 1.50977,-0.65821 0.12533,0 0.278,0.0169 0.45703,0.0527 l 0.0469,-0.91211 c -0.1298,-0.0224 -0.29468,-0.0352 -0.4961,-0.0352 z m -50.81054,0.7793 c 1.12793,0 1.71777,0.76611 1.77148,2.29687 l -3.86719,0 c 0.0627,-0.70719 0.28223,-1.2679 0.65821,-1.67968 0.38045,-0.41179 0.8601,-0.61719 1.4375,-0.61719 z m 20.06054,0 c 0.72958,0 1.28085,0.26147 1.65235,0.78516 0.3715,0.5192 0.55664,1.2137 0.55664,2.08203 0,0.55501 -0.0763,1.04077 -0.22852,1.45703 -0.15218,0.41178 -0.39811,0.74349 -0.73828,0.99414 -0.33569,0.24617 -0.74984,0.36914 -1.24219,0.36914 -0.71614,0 -1.26269,-0.26009 -1.63867,-0.7793 -0.37598,-0.5192 -0.5625,-1.20093 -0.5625,-2.04687 0,-0.86385 0.18652,-1.55697 0.5625,-2.07617 0.37598,-0.52369 0.92253,-0.78516 1.63867,-0.78516 z m 8.0293,0 c 1.28011,0 1.92188,0.95125 1.92188,2.85351 0,1.88436 -0.66342,2.82618 -1.98829,2.82618 -0.67138,0 -1.18961,-0.25676 -1.55664,-0.77149 -0.36255,-0.51473 -0.54492,-1.23698 -0.54492,-2.16797 0.004,-0.85937 0.18351,-1.53222 0.53711,-2.01562 0.3536,-0.4834 0.89681,-0.72461 1.63086,-0.72461 z m 7.76172,0 c 1.28011,0 1.91992,0.95125 1.91992,2.85351 0,1.88436 -0.66146,2.82618 -1.98633,2.82618 -0.67138,0 -1.19157,-0.25676 -1.55859,-0.77149 -0.36255,-0.51473 -0.54297,-1.23698 -0.54297,-2.16797 0.004,-0.85937 0.18351,-1.53222 0.53711,-2.01562 0.3536,-0.4834 0.89681,-0.72461 1.63086,-0.72461 z m 7.4668,0 c 1.12793,0 1.71777,0.76611 1.77148,2.29687 l -3.86719,0 c 0.0627,-0.70719 0.28223,-1.2679 0.65821,-1.67968 0.38045,-0.41179 0.8601,-0.61719 1.4375,-0.61719 z m -56.095708,2.98047 0.853516,0 0,1.56445 c -0.532633,0.78329 -1.258219,1.17578 -2.175781,1.17578 -0.335693,0 -0.616048,-0.10742 -0.839844,-0.32226 -0.223795,-0.21485 -0.333984,-0.52019 -0.333984,-0.91407 0,-0.21932 0.02026,-0.40112 0.06055,-0.54882 0.04028,-0.15218 0.113281,-0.29265 0.220703,-0.41797 0.107422,-0.1298 0.255371,-0.22917 0.443359,-0.30078 0.187988,-0.0761 0.427816,-0.1355 0.71875,-0.17579 0.290934,-0.0403 0.640951,-0.0605 1.052734,-0.0605 z M 90,202 c -7.756,0 -14,6.244 -14,14 0,7.756 6.244,14 14,14 7.756,0 14,-6.244 14,-14 0,-7.756 -6.244,-14 -14,-14 z m 58,0 c -7.756,0 -14,6.244 -14,14 0,7.756 6.244,14 14,14 7.756,0 14,-6.244 14,-14 0,-7.756 -6.244,-14 -14,-14 z m 58.25,0 0,12.25 3.5,0 0,-12.25 -3.5,0 z m -1.75,0.46484 C 198.45279,204.01284 194,209.4567 194,216 c 0,7.756 6.244,14 14,14 7.756,0 14,-6.244 14,-14 0,-6.5433 -4.45279,-11.98716 -10.5,-13.53516 l 0,1.81446 c 5.06632,1.5001 8.75,6.155 8.75,11.7207 0,6.7865 -5.4635,12.25 -12.25,12.25 -6.7865,0 -12.25,-5.4635 -12.25,-12.25 0,-5.5657 3.68368,-10.2206 8.75,-11.7207 l 0,-1.81446 z M 90,203.75 c 6.7865,0 12.25,5.4635 12.25,12.25 0,6.7865 -5.4635,12.25 -12.25,12.25 -6.7865,0 -12.25,-5.4635 -12.25,-12.25 0,-6.7865 5.4635,-12.25 12.25,-12.25 z m 58,0 c 6.7865,0 12.25,5.4635 12.25,12.25 0,6.7865 -5.4635,12.25 -12.25,12.25 -6.7865,0 -12.25,-5.4635 -12.25,-12.25 0,-6.7865 5.4635,-12.25 12.25,-12.25 z m 0,3.5 a 3.5000037,3.5000025 0 0 0 -3.5,3.5 l 0,3.5 -3.5,0 0,8.75 14,0 0,-8.75 -3.5,0 0,-3.5 a 3.5000037,3.5000025 0 0 0 -3.5,-3.5 z M 92.261719,209 86.5,214.76367 85.261719,216 86.5,217.23828 92.261719,223 93.5,221.76367 87.736328,216 93.5,210.23828 92.261719,209 Z M 148,209 a 1.75,1.75 0 0 1 1.75,1.75 l 0,3.5 -3.5,0 0,-3.5 A 1.75,1.75 0 0 1 148,209 Z m -5.25,7 1.75,0 1.75,0 3.5,0 1.75,0 1.75,0 0,5.25 -10.5,0 0,-5.25 z"
     id="rect7886" />
  <path
     style="fill:currentColor;fill-opacity:0.5;stroke:none"
     class="ColorScheme-Text"
     d="m 107.48047,77.486326 c -0.55501,0.81014 -0.98332,1.706706 -1.2832,2.691406 -0.29989,0.980225 -0.44922,2.006429 -0.44922,3.076172 0,1.181641 0.15267,2.311931 0.45703,3.390625 0.30884,1.074219 0.73852,1.992432 1.28906,2.757813 l 1.0332,0 c -1.12793,-1.772461 -1.6914,-3.830404 -1.6914,-6.175782 0,-2.09025 0.56486,-4.00358 1.69726,-5.740234 l -1.05273,0 z m 14.13281,0 c 0.6132,0.975749 1.04899,1.916179 1.3086,2.820313 0.2596,0.904134 0.38867,1.867594 0.38867,2.892578 0,1.127929 -0.1399,2.231852 -0.42188,3.310547 -0.28198,1.074218 -0.70556,2.037679 -1.26953,2.892578 l 1.04102,0 c 0.53711,-0.738526 0.96069,-1.656739 1.26953,-2.757813 0.31331,-1.10555 0.46875,-2.25 0.46875,-3.43164 0,-2.121582 -0.57764,-4.030192 -1.73242,-5.726563 l -1.05274,0 z m -24.345702,0.44336 c -0.877279,0 -1.590088,0.219563 -2.140625,0.658203 -0.550537,0.438639 -0.826172,1.031819 -0.826172,1.779297 0,0.572916 0.169597,1.066162 0.509766,1.482421 0.344645,0.41626 0.789876,0.713542 1.335937,0.892579 -0.657959,0.228271 -1.165364,0.569417 -1.523437,1.021484 -0.353597,0.447591 -0.53125,1.000244 -0.53125,1.658203 0,0.546061 0.146566,1.01766 0.4375,1.416016 0.29541,0.398356 0.678467,0.692871 1.148437,0.880859 0.469971,0.187988 0.99764,0.28125 1.583985,0.28125 0.90861,0 1.661946,-0.225667 2.261719,-0.677734 0.599772,-0.452067 0.900392,-1.085775 0.900392,-1.900391 0,-0.622152 -0.18376,-1.176188 -0.550783,-1.664063 -0.367025,-0.487874 -0.858887,-0.830403 -1.476563,-1.027343 0.559489,-0.201416 1,-0.502035 1.322266,-0.900391 0.32674,-0.402832 0.49023,-0.889974 0.49023,-1.46289 0,-0.751954 -0.272294,-1.345134 -0.818355,-1.779297 -0.541585,-0.43864 -1.250244,-0.658203 -2.123047,-0.658203 z m 19.544922,0.134765 c -0.23275,0.161133 -0.58138,0.322673 -1.04688,0.488281 -0.46101,0.161133 -0.85961,0.276612 -1.19531,0.34375 l 0,0.886719 c 0.29989,-0.04028 0.66268,-0.129394 1.08789,-0.263672 0.42969,-0.134277 0.78443,-0.27889 1.06641,-0.435547 l 0,7.976563 -2.36328,0 0,0.804687 5.58594,0 0,-0.804687 -2.10743,0 0,-8.996094 -1.02734,0 z m -19.550781,0.691406 c 0.568441,0 1.023112,0.144613 1.363281,0.435547 0.340169,0.286459 0.509766,0.669515 0.509766,1.148438 0,0.528157 -0.15739,0.967285 -0.470704,1.316406 -0.313313,0.349121 -0.780192,0.590332 -1.402343,0.724609 C 96.644043,82.242104 96.173828,82.000893 95.851562,81.656248 95.533773,81.307127 95.375,80.867999 95.375,80.339842 c 0,-0.474447 0.172933,-0.857504 0.517578,-1.148438 0.349121,-0.290934 0.805176,-0.435547 1.369141,-0.435547 z m -18.691407,1.859375 c -1.042887,0 -1.861735,0.339193 -2.457031,1.019532 -0.59082,0.675862 -0.886719,1.571045 -0.886719,2.685546 0,1.087647 0.300619,1.975342 0.900391,2.660157 0.599772,0.680338 1.4139,1.019531 2.443359,1.019531 1.007081,0 1.816488,-0.342529 2.429688,-1.027344 0.6132,-0.68929 0.919922,-1.573649 0.919922,-2.652344 0,-1.114501 -0.295899,-2.009684 -0.886719,-2.685546 -0.59082,-0.680339 -1.411051,-1.019532 -2.462891,-1.019532 z m 8.291016,0 c -1.069743,0 -1.873047,0.375 -2.410156,1.126954 l -0.121094,-0.980469 -0.966797,0 0,7.103515 1.115235,0 0,-3.960937 c 0,-1.624756 0.730306,-2.4375 2.189453,-2.4375 0.541585,0 0.917969,0.163493 1.132812,0.490234 0.214844,0.322266 0.322266,0.803304 0.322266,1.44336 l 0,4.464843 1.115234,0 0,-4.34375 c 0,-0.975748 -0.19458,-1.702718 -0.583984,-2.18164 -0.384929,-0.483399 -0.982829,-0.72461 -1.792969,-0.72461 z m 24.117192,0.146485 c -0.26408,0 -0.4681,0.07633 -0.61133,0.228515 -0.14323,0.147705 -0.21485,0.322022 -0.21485,0.523438 0,0.205892 0.0716,0.384928 0.21485,0.537109 0.14323,0.147705 0.34725,0.222657 0.61133,0.222657 0.26407,0 0.46476,-0.07495 0.60351,-0.222657 0.14323,-0.152181 0.21485,-0.331217 0.21485,-0.537109 -1e-5,-0.201416 -0.0716,-0.375733 -0.21485,-0.523438 -0.13875,-0.152181 -0.33944,-0.228515 -0.60351,-0.228515 z m -32.408208,0.705078 c 0.729574,0 1.280844,0.263428 1.652344,0.787109 0.371501,0.519206 0.556641,1.211752 0.556641,2.080078 0,0.555013 -0.07634,1.040772 -0.228516,1.457032 -0.152181,0.411783 -0.398112,0.743489 -0.738281,0.99414 -0.335693,0.246175 -0.749837,0.369141 -1.242188,0.369141 -0.716145,0 -1.262695,-0.260091 -1.638671,-0.779297 -0.375977,-0.519206 -0.564453,-1.200928 -0.564453,-2.046875 0,-0.863851 0.188476,-1.555013 0.564453,-2.074219 0.375976,-0.523681 0.922526,-0.787109 1.638671,-0.787109 z m 18.691407,1.699219 c 0.631103,0.134277 1.138509,0.389648 1.523437,0.765625 0.389405,0.375976 0.583985,0.836751 0.583985,1.382812 0,1.217448 -0.701986,1.826172 -2.107422,1.826172 -0.689291,0 -1.21696,-0.158773 -1.583985,-0.476563 -0.362548,-0.317789 -0.544922,-0.766357 -0.544922,-1.34375 0,-0.563964 0.194581,-1.029459 0.583985,-1.396484 0.389404,-0.367025 0.904866,-0.619059 1.544922,-0.757812 z m 13.716801,3.269531 c -0.26408,0 -0.4681,0.07495 -0.61133,0.222656 -0.14323,0.147705 -0.21485,0.323405 -0.21485,0.529297 0,0.201416 0.0716,0.379069 0.21485,0.53125 0.14323,0.147705 0.34725,0.220703 0.61133,0.220703 0.26407,0 0.46476,-0.073 0.60351,-0.220703 0.14323,-0.152181 0.21485,-0.329834 0.21485,-0.53125 -1e-5,-0.205892 -0.0716,-0.381592 -0.21485,-0.529297 -0.13875,-0.147705 -0.33944,-0.222656 -0.60351,-0.222656 z m -3.49805,37.726565 c -0.55501,0.81014 -0.98332,1.70671 -1.2832,2.69141 -0.29989,0.98022 -0.44922,2.00642 -0.44922,3.07617 0,1.18164 0.15267,2.31193 0.45703,3.39062 0.30884,1.07422 0.73852,1.99243 1.28906,2.75781 l 1.0332,0 c -1.12793,-1.77246 -1.6914,-3.8304 -1.6914,-6.17578 0,-2.09025 0.56486,-4.00358 1.69726,-5.74023 l -1.05273,0 z m 14.13281,0 c 0.6132,0.97575 1.04899,1.91618 1.3086,2.82031 0.2596,0.90414 0.38867,1.8676 0.38867,2.89258 0,1.12793 -0.1399,2.23185 -0.42188,3.31055 -0.28198,1.07422 -0.70556,2.03768 -1.26953,2.89257 l 1.04102,0 c 0.53711,-0.73852 0.96069,-1.65673 1.26953,-2.75781 0.31331,-1.10555 0.46875,-2.25 0.46875,-3.43164 0,-2.12158 -0.57764,-4.03019 -1.73242,-5.72656 l -1.05274,0 z m -24.345702,0.44336 c -0.877279,0 -1.590088,0.21956 -2.140625,0.6582 -0.550537,0.43864 -0.826172,1.02987 -0.826172,1.77735 0,0.57291 0.169597,1.06811 0.509766,1.48437 0.344645,0.41626 0.789876,0.71354 1.335937,0.89258 -0.657959,0.22827 -1.165364,0.56942 -1.523437,1.02148 -0.353597,0.44759 -0.53125,1.00025 -0.53125,1.65821 0,0.54606 0.146566,1.01766 0.4375,1.41601 0.29541,0.39836 0.678467,0.69287 1.148437,0.88086 0.469971,0.18799 0.99764,0.28125 1.583985,0.28125 0.90861,0 1.661946,-0.22567 2.261719,-0.67773 0.599772,-0.45207 0.900392,-1.08578 0.900392,-1.90039 0,-0.62216 -0.18376,-1.17815 -0.550783,-1.66602 -0.367025,-0.48787 -0.858887,-0.8304 -1.476563,-1.02734 0.559489,-0.20142 1,-0.50008 1.322266,-0.89844 0.32674,-0.40283 0.49023,-0.89193 0.49023,-1.46484 0,-0.75196 -0.272294,-1.34318 -0.818355,-1.77735 -0.541585,-0.43864 -1.250244,-0.6582 -2.123047,-0.6582 z m 19.544922,0.13281 c -0.23275,0.16113 -0.58138,0.32463 -1.04688,0.49024 -0.46101,0.16113 -0.85961,0.27661 -1.19531,0.34375 l 0,0.88476 c 0.29989,-0.0403 0.66268,-0.12744 1.08789,-0.26172 0.42969,-0.13427 0.78443,-0.27889 1.06641,-0.43554 l 0,7.97656 -2.36328,0 0,0.80469 5.58594,0 0,-0.80469 -2.10743,0 0,-8.99805 -1.02734,0 z m -19.550781,0.69141 c 0.568441,0 1.023112,0.14656 1.363281,0.4375 0.340169,0.28646 0.509766,0.66951 0.509766,1.14843 0,0.52816 -0.15739,0.96534 -0.470704,1.31446 -0.313313,0.34912 -0.780192,0.59228 -1.402343,0.72656 -0.617676,-0.13875 -1.087891,-0.38192 -1.410157,-0.72656 -0.317789,-0.34912 -0.476562,-0.7863 -0.476562,-1.31446 0,-0.47444 0.172933,-0.8575 0.517578,-1.14843 0.349121,-0.29094 0.805176,-0.4375 1.369141,-0.4375 z m -18.691407,1.86133 c -1.042887,0 -1.861735,0.33919 -2.457031,1.01953 -0.59082,0.67586 -0.886719,1.57104 -0.886719,2.68554 0,1.08765 0.300619,1.97339 0.900391,2.65821 0.599772,0.68034 1.4139,1.02148 2.443359,1.02148 1.007081,0 1.816488,-0.34253 2.429688,-1.02734 0.6132,-0.68929 0.919922,-1.57365 0.919922,-2.65235 0,-1.1145 -0.295899,-2.00968 -0.886719,-2.68554 -0.59082,-0.68034 -1.411051,-1.01953 -2.462891,-1.01953 z m 8.291016,0 c -1.069743,0 -1.873047,0.375 -2.410156,1.12695 l -0.121094,-0.98047 -0.966797,0 0,7.10352 1.115235,0 0,-3.96094 c 0,-1.62476 0.730306,-2.4375 2.189453,-2.4375 0.541585,0 0.917969,0.16349 1.132812,0.49023 0.214844,0.32227 0.322266,0.80331 0.322266,1.44336 l 0,4.46485 1.115234,0 0,-4.34375 c 0,-0.97575 -0.19458,-1.70272 -0.583984,-2.18165 -0.384929,-0.48339 -0.982829,-0.7246 -1.792969,-0.7246 z m 24.117192,0.14648 c -0.26408,0 -0.4681,0.0763 -0.61133,0.22852 -0.14323,0.1477 -0.21485,0.32202 -0.21485,0.52343 0,0.2059 0.0716,0.38493 0.21485,0.53711 0.14323,0.14771 0.34725,0.22266 0.61133,0.22266 0.26407,0 0.46476,-0.075 0.60351,-0.22266 0.14323,-0.15218 0.21485,-0.33121 0.21485,-0.53711 -1e-5,-0.20141 -0.0716,-0.37573 -0.21485,-0.52343 -0.13875,-0.15219 -0.33944,-0.22852 -0.60351,-0.22852 z m -32.408208,0.70508 c 0.729574,0 1.280844,0.26147 1.652344,0.78515 0.371501,0.51921 0.556641,1.21371 0.556641,2.08204 0,0.55501 -0.07634,1.04077 -0.228516,1.45703 -0.152181,0.41178 -0.398112,0.74349 -0.738281,0.99414 -0.335693,0.24617 -0.749837,0.36914 -1.242188,0.36914 -0.716145,0 -1.262695,-0.26009 -1.638671,-0.7793 -0.375977,-0.5192 -0.564453,-1.20093 -0.564453,-2.04687 0,-0.86385 0.188476,-1.55697 0.564453,-2.07618 0.375976,-0.52368 0.922526,-0.78515 1.638671,-0.78515 z m 18.691407,1.69922 c 0.631103,0.13427 1.138509,0.38965 1.523437,0.76562 0.389405,0.37598 0.583985,0.83675 0.583985,1.38281 0,1.21745 -0.701986,1.82618 -2.107422,1.82618 -0.689291,0 -1.21696,-0.15878 -1.583985,-0.47657 -0.362548,-0.31779 -0.544922,-0.76635 -0.544922,-1.34375 0,-0.56396 0.194581,-1.02946 0.583985,-1.39648 0.389404,-0.36703 0.904866,-0.61906 1.544922,-0.75781 z m 13.716801,3.26953 c -0.26408,0 -0.4681,0.073 -0.61133,0.2207 -0.14323,0.14771 -0.21485,0.32536 -0.21485,0.53125 0,0.20142 0.0716,0.37907 0.21485,0.53125 0.14323,0.14771 0.34725,0.2207 0.61133,0.2207 0.26407,0 0.46476,-0.073 0.60351,-0.2207 0.14323,-0.15218 0.21485,-0.32983 0.21485,-0.53125 -1e-5,-0.20589 -0.0716,-0.38354 -0.21485,-0.53125 -0.13875,-0.1477 -0.33944,-0.2207 -0.60351,-0.2207 z m -36.087895,39.00586 0,0.89843 2.914063,0 0,8.90235 1.18164,0 0,-8.90235 2.933594,0 0,-0.89843 -7.029297,0 z m 7.492187,0 0,0.89843 2.914063,0 0,8.90235 1.181641,0 0,-8.90235 2.933593,0 0,-0.89843 -7.029297,0 z m 7.601563,0 3.322266,5.7539 0,4.04688 1.142578,0 0,-4.06055 3.148437,-5.74023 -1.167968,0 -2.558594,4.76562 -2.71875,-4.76562 -1.167969,0 z m 15.146485,0 c -0.23275,0.16113 -0.58333,0.32462 -1.04883,0.49023 -0.46102,0.16113 -0.85766,0.27466 -1.19336,0.3418 l 0,0.88672 c 0.29989,-0.0403 0.66073,-0.12744 1.08594,-0.26172 0.42969,-0.13428 0.78638,-0.28084 1.06836,-0.4375 l 0,7.97656 -2.36328,0 0,0.80469 5.58593,0 0,-0.80469 -2.10742,0 0,-8.99609 -1.02734,0 z"
     id="text11719-4-8-8" />
  <path
     style="opacity:1;fill:#1d99f3;fill-opacity:1;stroke:none;stroke-width:0.5;stroke-linecap:butt;stroke-linejoin:round;stroke-miterlimit:4;stroke-dasharray:none;stroke-opacity:1"
     d="M 30 18.558594 L 30 46.558594 L 58 46.558594 L 58 18.558594 L 30 18.558594 z M 30 60 L 30 88 L 58 88 L 58 60 L 30 60 z M 30 107.37695 L 30 135.37695 L 58 135.37695 L 58 107.37695 L 30 107.37695 z M 30 154.75391 L 30 182.75391 L 58 182.75391 L 58 154.75391 L 30 154.75391 z "
     id="rect4151" />
  <path
     style="opacity:0.2;fill:url(#linearGradient4320);fill-opacity:1;fill-rule:evenodd;stroke:none;stroke-width:1px;stroke-linecap:butt;stroke-linejoin:miter;stroke-opacity:1"
     d="m 49.60002,23.45788 8.4,8.399989 0,14.699997 -11.2,0 z"
     id="path4467"
     inkscape:connector-curvature="0"
     sodipodi:nodetypes="ccccc" />
  <path
     style="opacity:0.2;fill:url(#linearGradient4322);fill-opacity:1;fill-rule:evenodd;stroke:none;stroke-width:1px;stroke-linecap:butt;stroke-linejoin:miter;stroke-opacity:1"
     d="m 49.600015,63.64001 8.4,8.399989 0,15.959997 -11.2,0 z"
     id="path4467-3"
     inkscape:connector-curvature="0"
     sodipodi:nodetypes="ccccc" />
  <path
     style="fill:#1d99f3;fill-rule:evenodd;stroke:none;stroke-width:1px;stroke-linecap:butt;stroke-linejoin:miter;stroke-opacity:1"
     d="m 44.000031,156.15457 c -7,0 -11.2,5.6 -9.8,12.6 1.372813,6.86406 3.08,5.6 1.68,7 -1.4,1.4 0,2.8 1.4,4.2 1.4,1.4 3.92,1.4 3.92,1.4 l 2.8,0 2.8,0 c 0,0 2.52,0 3.92,-1.4 1.4,-1.4 2.8,-2.8 1.4,-4.2 -1.4,-1.4 0.307187,-0.13594 1.68,-7 1.4,-7 -2.8,-12.6 -9.8,-12.6 z"
     id="path4232"
     inkscape:connector-curvature="0"
     sodipodi:nodetypes="sssscccssss" />
  <path
     style="opacity:0.2;fill:url(#linearGradient4324);fill-opacity:1;fill-rule:evenodd;stroke:none;stroke-width:1px;stroke-linecap:butt;stroke-linejoin:miter;stroke-opacity:1"
     d="m 49.60002,111.62381 8.4,7.49385 0,13.23915 -5.88,0 z"
     id="path4467-37"
     inkscape:connector-curvature="0"
     sodipodi:nodetypes="ccccc" />
  <path
     style="opacity:0.2;fill:url(#linearGradient4475-5);fill-opacity:1;fill-rule:evenodd;stroke:none;stroke-width:1px;stroke-linecap:butt;stroke-linejoin:miter;stroke-opacity:1"
     d="m 51.560031,159.23458 6.44,6.43999 0,17.08 -11.2,0 z"
     id="path4467-9"
     inkscape:connector-curvature="0"
     sodipodi:nodetypes="ccccc" />
  <path
     style="color:#eff0f2;fill:#f5f6f7;fill-opacity:1;fill-rule:evenodd;stroke:none;stroke-width:1px;stroke-linecap:butt;stroke-linejoin:miter;stroke-opacity:1"
     d="M 44 21.357422 C 41.077176 21.357422 37.152327 22.493664 35.947266 28.658203 C 35.859492 28.650802 35.76704 28.637459 35.685547 28.638672 C 34.825441 28.652347 34.294681 29.112811 34.212891 30.121094 C 34.082022 31.734317 35.024617 32.071829 34.919922 32.585938 C 34.829794 33.028508 35.081824 33.471969 35.634766 33.646484 C 36.046879 39.856021 39.684924 43.025879 40.359375 46.558594 L 47.640625 46.558594 C 48.315076 43.025879 51.953121 39.856021 52.365234 33.646484 C 52.918176 33.471969 53.170206 33.028508 53.080078 32.585938 C 52.975383 32.071829 53.917978 31.734325 53.787109 30.121094 C 53.705319 29.112811 53.174559 28.652347 52.314453 28.638672 C 52.23296 28.637459 52.140508 28.650802 52.052734 28.658203 C 50.847673 22.493664 46.922824 21.357422 44 21.357422 z M 44 62.800781 C 40.64 62.800781 35.599609 64.287908 35.599609 73.212891 C 35.599609 77.356955 37.530481 80.35635 39.308594 82.0625 C 39.395477 83.337931 39.423527 85.953727 38.400391 88 L 49.599609 88 C 48.576473 85.953727 48.604523 83.337931 48.691406 82.0625 C 50.271739 80.546126 51.96498 78.007697 52.324219 74.548828 C 52.90013 74.387481 52.961676 73.988722 53.080078 73.466797 C 53.19615 72.955125 53.638681 72.617137 53.507812 71.003906 C 53.426023 69.995623 53.174559 69.533206 52.314453 69.519531 C 52.228726 69.518255 52.131699 69.530861 52.039062 69.539062 C 50.84044 63.874286 46.829838 62.800781 44 62.800781 z M 35.40625 69.800781 C 34.546144 69.814456 34.294681 70.27492 34.212891 71.283203 C 34.082022 72.896426 34.5226 73.236375 34.638672 73.748047 C 34.759468 74.280523 34.814559 74.685116 35.423828 74.839844 C 35.38403 74.196432 35.382651 73.510201 35.425781 72.773438 C 35.488908 71.695158 35.64694 70.721639 35.880859 69.835938 C 35.714307 69.812378 35.554026 69.798581 35.40625 69.800781 z M 44 109.875 C 42.424426 109.875 40.482826 110.17768 38.861328 111.30859 C 38.801569 111.32944 38.753724 111.34002 38.679688 111.37305 C 36.439688 112.37223 35.320312 115.37109 35.320312 115.37109 C 35.320312 115.37109 35.707862 115.20724 36.158203 115.14844 C 36.128978 115.24072 36.097441 115.32841 36.070312 115.42383 C 35.749001 115.46824 34.579207 115.8652 34.503906 116.69336 C 34.406285 117.76692 34.608691 118.40894 34.775391 118.89453 L 34.759766 118.86719 C 34.472551 119.71257 34.843625 122.31845 33.359375 123.86328 C 31.875128 125.40812 33.780794 127.10915 32.519531 128.35938 C 31.258268 129.6096 32.519688 130.94562 31.679688 132.10742 C 31.496567 132.36071 31.134069 132.55878 30.703125 132.7168 L 30.560547 134.37891 C 30.560547 134.37891 30.84419 134.27059 31.138672 134.1582 L 31.263672 132.7168 C 31.694616 132.55878 32.057113 132.36071 32.240234 132.10742 C 33.080234 130.94562 31.818815 129.60959 33.080078 128.35938 C 34.341341 127.10914 32.435675 125.40812 33.919922 123.86328 C 34.993558 122.74583 35.24285 121.13193 35.224609 120.0918 C 35.306216 120.18427 35.424019 120.25938 35.582031 120.31445 C 35.525925 121.39366 35.278272 122.99018 34.199219 124.11328 C 32.714972 125.65811 34.620638 127.35916 33.359375 128.60938 C 32.098112 129.8596 33.359531 131.19563 32.519531 132.35742 C 32.33641 132.61072 31.973913 132.80878 31.542969 132.9668 L 31.400391 135.37695 C 31.400391 135.37695 36.028018 133.67942 36.720703 132.85547 C 37.560703 131.85632 37.125978 129.74623 37.839844 129.10938 C 38.679844 128.35999 37.367819 127.00502 38.119141 126.11133 C 38.923955 125.154 38.718991 125.09338 39.191406 124.21289 C 39.259052 124.27464 39.329642 124.33372 39.382812 124.38281 C 39.271413 124.86168 39.139054 125.33728 38.679688 125.97266 C 37.928365 127.01183 38.959141 128.58565 38.119141 129.45703 C 37.405275 130.19755 38.119297 131.78156 37.279297 132.94336 C 37.096176 133.19664 36.735631 133.39667 36.304688 133.55469 L 36.160156 134.10547 C 36.160156 134.10547 39.108096 133.67942 39.800781 132.85547 C 40.640781 131.85631 39.645509 130.74623 40.359375 130.10938 C 41.199375 129.35998 40.1686 128.00503 40.919922 127.11133 C 41.759922 126.11215 41.199766 125.86247 41.759766 124.86328 L 41.681641 124.81836 C 41.74971 124.8201 41.869977 124.82257 41.943359 124.82422 C 41.566472 125.68529 41.976682 126.18654 41.199219 127.11133 C 40.447897 128.00503 41.759922 129.35999 40.919922 130.10938 C 40.206056 130.74623 40.920078 132.10631 40.080078 133.10547 C 39.387393 133.92942 44 134.35547 44 134.35547 C 44 134.35547 49.173154 134.92942 48.480469 134.10547 C 47.640469 133.10632 47.514647 131.99428 46.800781 131.35742 C 45.960781 130.60804 47.552103 128.00503 46.800781 127.11133 C 46.039117 126.20533 46.420266 125.70634 46.082031 124.87695 C 46.128244 124.87692 46.20398 124.87908 46.248047 124.87891 C 46.792046 125.86378 46.244926 126.11791 47.080078 127.11133 C 47.8314 128.00503 46.519375 130.10804 47.359375 130.85742 C 48.073241 131.49428 47.919766 133.10632 48.759766 134.10547 C 49.452451 134.92942 51.560547 134.35547 51.560547 134.35547 L 51.976562 133.80469 C 51.545619 133.64667 51.183121 133.44663 51 133.19336 C 50.16 132.03156 50.297851 130.44169 49.583984 129.70117 C 48.743984 128.82978 49.600929 127.56261 48.849609 126.52344 C 48.386407 125.88277 48.461132 125.18559 48.488281 124.53906 C 48.580722 124.45655 48.687757 124.35206 48.8125 124.23047 C 49.247262 125.133 48.605799 125.45728 49.410156 126.41406 C 50.161479 127.30775 49.025234 128.60217 49.865234 129.35156 C 50.579101 129.98841 50.720547 132.10631 51.560547 133.10547 C 52.253232 133.92942 57.160156 135.12695 57.160156 135.12695 L 57.015625 132.7168 C 56.584681 132.55878 56.222184 132.36071 56.039062 132.10742 C 55.199062 130.94562 56.460482 130.6096 55.199219 129.35938 C 53.937956 128.10915 55.003778 126.15811 53.519531 124.61328 C 52.421079 123.46999 52.337689 121.55926 52.367188 120.33789 C 52.540876 120.28785 52.663562 120.2143 52.753906 120.125 C 52.681795 121.25919 52.725354 123.24397 53.800781 124.36328 C 55.285028 125.90812 54.219206 127.85914 55.480469 129.10938 C 56.741732 130.3596 55.480312 130.69563 56.320312 131.85742 C 56.503433 132.11072 56.865931 132.30878 57.296875 132.4668 L 57.419922 133.9082 C 57.714404 134.02058 58 134.12891 58 134.12891 L 57.855469 132.4668 C 57.424525 132.30878 57.06398 132.11072 56.880859 131.85742 C 56.040859 130.69563 57.300326 130.35959 56.039062 129.10938 C 54.7778 127.85914 55.843622 125.90812 54.359375 124.36328 C 52.878659 122.82213 53.524282 119.72906 53.242188 118.875 C 53.408026 118.38971 53.604135 117.75264 53.507812 116.69336 C 53.431744 115.85677 52.235799 115.45714 51.929688 115.41992 C 51.902866 115.32571 51.870664 115.23959 51.841797 115.14844 C 52.292138 115.20724 52.679688 115.37109 52.679688 115.37109 C 52.679688 115.37109 51.560312 112.37223 49.320312 111.37305 C 49.246276 111.34002 49.198431 111.32944 49.138672 111.30859 C 47.517174 110.17768 45.575574 109.875 44 109.875 z M 45.027344 157.55273 C 44.696231 157.54007 44.354012 157.5408 44 157.55469 C 38.335803 157.77692 36.159453 160.63359 36.439453 163.43359 C 36.491418 163.95324 36.441703 164.29181 36.357422 164.57227 C 35.249396 164.66129 34.900157 165.29962 34.785156 166.61523 C 34.589298 168.85583 35.600795 169.59373 35.423828 170.31641 C 35.29158 170.85645 35.599331 171.56236 36.162109 171.79688 C 36.91987 174.83753 37.851514 176.32417 38.960938 177.43359 C 39.068421 177.54108 39.191974 177.62437 39.310547 177.71484 C 39.397851 178.66577 39.425561 180.70357 38.400391 182.75391 L 49.599609 182.75391 C 48.574439 180.70357 48.602149 178.66577 48.689453 177.71484 C 48.808026 177.62437 48.931579 177.54108 49.039062 177.43359 C 50.142925 176.32973 51.070455 174.85344 51.826172 171.84375 C 52.494931 171.69276 52.879254 170.90803 52.734375 170.31641 C 52.557409 169.59373 53.568907 168.85583 53.373047 166.61523 C 53.270777 165.44524 52.982656 164.81289 52.142578 164.62305 C 52.089468 164.33581 52.064242 163.98259 52.119141 163.43359 C 52.381641 160.80859 49.994037 157.74268 45.027344 157.55273 z "
     id="path4245" />
  <path
     style="fill:#1d99f3;fill-opacity:1;fill-rule:evenodd;stroke:none;stroke-width:1px;stroke-linecap:butt;stroke-linejoin:miter;stroke-opacity:1"
     d="M 40.150391 28.929688 C 39.848613 28.987874 39.63457 29.245182 39.548828 29.597656 C 39.434506 30.067622 39.592447 30.706952 40.066406 30.820312 C 40.540355 30.933666 40.762624 30.676994 40.876953 30.207031 C 40.991264 29.737068 40.954404 29.054764 40.480469 28.941406 C 40.361979 28.913066 40.250983 28.910292 40.150391 28.929688 z M 47.849609 28.929688 C 47.749017 28.910292 47.638021 28.913066 47.519531 28.941406 C 47.045596 29.054764 47.008736 29.737068 47.123047 30.207031 C 47.237376 30.676994 47.459645 30.933666 47.933594 30.820312 C 48.407553 30.706952 48.565494 30.067622 48.451172 29.597656 C 48.36543 29.245182 48.151387 28.987874 47.849609 28.929688 z M 41.181641 37.240234 C 41.061311 37.243034 40.972422 37.265919 40.919922 37.318359 C 40.639922 37.598359 42.04 39.277344 44 39.277344 C 45.96 39.277344 47.360078 37.598359 47.080078 37.318359 C 46.800078 37.038359 45.47 37.597656 44 37.597656 C 42.805625 37.597656 41.703069 37.228698 41.181641 37.240234 z M 47.203125 61.679688 L 43.439453 62.800781 C 44.172084 65.731306 48.526146 72.249912 51.113281 71.294922 C 50.94747 71.790899 51.00624 72.30971 51.113281 72.462891 C 50.795025 72.725727 50.273184 74.491474 50.509766 74.830078 C 50.1915 75.09283 50.027086 76.296134 50.263672 76.634766 C 49.945416 76.897602 49.763413 78.223896 50 78.5625 C 49.681728 78.825308 49.256558 79.670292 50.128906 79.763672 C 51.552513 79.916412 52.156546 79.343689 52.197266 79.042969 C 52.515537 78.780105 53.552989 77.389357 53.316406 77.050781 C 53.634671 76.787973 54.670181 75.397198 54.433594 75.058594 C 54.751869 74.795758 55.513742 73.36831 55.275391 73.029297 C 55.593661 72.766461 55.395508 70.571164 53.103516 70.285156 C 52.713561 70.236517 52.397118 70.259782 52.132812 70.330078 C 54.321062 66.455367 47.203125 61.679687 47.203125 61.679688 z M 40.080078 62.240234 L 33.640625 65.320312 L 35.658203 70.365234 C 35.444046 70.335548 35.198898 70.332147 34.917969 70.367188 C 32.625975 70.653214 32.429777 72.848495 32.748047 73.111328 C 32.509693 73.450344 33.271576 74.879742 33.589844 75.142578 C 33.353261 75.481154 34.388763 76.87193 34.707031 77.134766 C 34.470448 77.473342 35.507907 78.862164 35.826172 79.125 C 35.866902 79.425748 36.470924 79.998443 37.894531 79.845703 C 38.76688 79.752323 38.341713 78.907367 38.023438 78.644531 C 38.260025 78.305927 38.078019 76.979605 37.759766 76.716797 C 37.996353 76.378165 37.831941 75.176843 37.513672 74.914062 C 37.750253 74.575458 37.228413 72.807755 36.910156 72.544922 C 37.050442 72.344167 37.117903 71.521552 36.681641 70.939453 C 36.583612 70.315398 36.269551 67.973932 37 67 C 37.84 65.88 43.440859 65.320781 42.880859 62.800781 L 40.080078 62.240234 z M 40.289062 71.201172 C 39.918226 71.218881 39.548959 71.390854 39.466797 71.734375 C 39.357253 72.192396 39.606375 72.407092 40.060547 72.517578 C 40.514716 72.628052 41.173653 72.592785 41.283203 72.134766 C 41.392754 71.676733 41.104564 71.344858 40.650391 71.234375 C 40.536847 71.206755 40.412675 71.195269 40.289062 71.201172 z M 47.710938 71.201172 C 47.587325 71.195269 47.463153 71.206755 47.349609 71.234375 C 46.895436 71.344858 46.607246 71.676733 46.716797 72.134766 C 46.826347 72.592785 47.485284 72.628052 47.939453 72.517578 C 48.393625 72.407092 48.642747 72.192396 48.533203 71.734375 C 48.451041 71.390854 48.081774 71.218881 47.710938 71.201172 z M 43.042969 79.019531 C 42.788159 79.030821 42.5125 79.127568 42.25 79.378906 C 41.9 79.714038 41.199219 79.519531 41.199219 79.519531 C 41.549219 80.189767 42.6 81.279297 44 81.279297 C 45.4 81.279297 46.450781 80.189767 46.800781 79.519531 C 46.800781 79.519531 46.1 79.714038 45.75 79.378906 C 45.05 78.70867 44.2625 79.127578 44 79.378906 C 43.835938 79.221826 43.467651 79.000716 43.042969 79.019531 z M 39.894531 116.55859 C 39.798055 116.54363 39.686717 116.54883 39.558594 116.57617 C 39.046089 116.68552 38.874428 117.30249 38.998047 117.75586 C 39.121667 118.20922 39.493356 118.49802 40.005859 118.38867 C 40.518345 118.27931 40.557201 117.62133 40.433594 117.16797 C 40.340875 116.82795 40.183959 116.60348 39.894531 116.55859 z M 48.107422 116.55859 C 47.817994 116.60348 47.659125 116.82795 47.566406 117.16797 C 47.442799 117.62133 47.481665 118.27931 47.994141 118.38867 C 48.506644 118.49802 48.878333 118.20922 49.001953 117.75586 C 49.125572 117.30249 48.953911 116.68552 48.441406 116.57617 C 48.313284 116.54883 48.203898 116.54363 48.107422 116.55859 z M 41.59375 124.73047 C 41.51965 124.94184 41.49091 125.38351 41.472656 125.56641 C 41.965041 125.85053 42.973723 126.36133 44 126.36133 C 45.026277 126.36133 46.034959 125.85053 46.527344 125.56641 C 46.509094 125.38351 46.480353 124.94184 46.40625 124.73047 C 45.802042 124.79547 44.72935 124.86328 44 124.86328 C 43.27065 124.86328 42.197958 124.79548 41.59375 124.73047 z M 42.021484 156.3125 L 37.279297 158.43945 L 36.755859 161.00391 C 37.037768 160.60974 37.413907 160.14163 37.996094 159.52344 C 41.709535 155.58035 43.708984 159.79297 43.708984 159.79297 C 43.708984 159.79297 49.424307 156.39908 52.353516 162.08984 L 53.162109 161.69336 L 51.560547 159.23438 L 48.734375 157.16406 L 42.021484 156.3125 z M 36.755859 161.00391 C 35.670333 162.52169 36.431641 162.58984 36.431641 162.58984 L 36.755859 161.00391 z M 40.289062 166.23633 C 39.918226 166.25404 39.548959 166.42603 39.466797 166.76953 C 39.357253 167.22755 39.606375 167.44029 40.060547 167.55078 C 40.514716 167.66125 41.173653 167.6279 41.283203 167.16992 C 41.392754 166.71189 41.104564 166.38001 40.650391 166.26953 C 40.536847 166.24191 40.412675 166.23042 40.289062 166.23633 z M 47.710938 166.23633 C 47.587325 166.23042 47.463153 166.24191 47.349609 166.26953 C 46.895436 166.38001 46.607246 166.71189 46.716797 167.16992 C 46.826347 167.6279 47.485284 167.66125 47.939453 167.55078 C 48.393625 167.44029 48.642747 167.22755 48.533203 166.76953 C 48.451041 166.42603 48.081774 166.25404 47.710938 166.23633 z M 42.572266 173.7207 C 42.446484 173.73104 42.3375 173.76974 42.25 173.85352 C 41.899993 174.18866 40.919922 174.13477 40.919922 174.13477 C 41.094922 174.46988 41.515156 174.73469 42.066406 174.91602 C 42.617656 175.09737 43.3 175.47461 44 175.47461 C 44.7 175.47461 45.382344 175.09737 45.933594 174.91602 C 46.484844 174.73469 46.905078 174.46991 47.080078 174.13477 C 47.080078 174.13477 46.100007 174.18862 45.75 173.85352 C 45.4 173.51842 44.7 173.91211 44 173.91211 C 43.475 173.91211 42.949609 173.68969 42.572266 173.7207 z "
     id="path4302" />
  <path
     style="opacity:0.1;fill:url(#linearGradient4465);fill-opacity:1;fill-rule:evenodd;stroke:none;stroke-width:1px;stroke-linecap:butt;stroke-linejoin:miter;stroke-opacity:1"
     d="m 44.292051,30.47811 c 0.859181,0.85918 1.958706,4.879756 -0.292031,4.879756 -0.394051,0 -0.685664,-0.12348 -0.893594,-0.331408 l 5.0925,5.0925 2.866719,-2.866696 z"
     id="path4407"
     inkscape:connector-curvature="0"
     sodipodi:nodetypes="cscccc" />
  <path
     style="opacity:0.1;fill:url(#linearGradient4465-1);fill-opacity:1;fill-rule:evenodd;stroke:none;stroke-width:1px;stroke-linecap:butt;stroke-linejoin:miter;stroke-opacity:1"
     d="m 44.000015,72.320004 -1.17425,4.759992 5.0925,5.0925 2.855344,-3.078348 z"
     id="path4407-4"
     inkscape:connector-curvature="0"
     sodipodi:nodetypes="ccccc" />
  <path
     style="opacity:0.1;fill:url(#linearGradient4326);fill-opacity:1;fill-rule:evenodd;stroke:none;stroke-width:1px;stroke-linecap:butt;stroke-linejoin:miter;stroke-opacity:1"
     d="m 44.00002,117.6189 -1.73425,4.4963 5.0925,4.54316 3.415344,-2.99607 z"
     id="path4407-0"
     inkscape:connector-curvature="0"
     sodipodi:nodetypes="ccccc" />
  <path
     style="opacity:0.1;fill:url(#linearGradient4465-2);fill-opacity:1;fill-rule:evenodd;stroke:none;stroke-width:1px;stroke-linecap:butt;stroke-linejoin:miter;stroke-opacity:1"
     d="m 44.000031,166.51457 -1.17425,4.76 5.0925,5.0925 2.855344,-3.07835 z"
     id="path4407-1"
     inkscape:connector-curvature="0"
     sodipodi:nodetypes="ccccc" />
  <path
     style="opacity:1;fill:#2ecc71;fill-opacity:1;stroke:none;stroke-width:2;stroke-linecap:round;stroke-linejoin:round;stroke-miterlimit:4;stroke-dasharray:none;stroke-opacity:1"
     d="m 52.120031,170.99457 a 0.28,0.28 0 0 0 -0.28,0.28 0.28,0.28 0 0 0 0.191406,0.26524 l -0.191406,0.57476 0.28,0.28 0.28,-0.28 -0.191406,-0.57476 a 0.28,0.28 0 0 0 0.191406,-0.26524 0.28,0.28 0 0 0 -0.28,-0.28 z"
     id="path4282"
     inkscape:connector-curvature="0" />
  <path
     inkscape:connector-curvature="0"
     style="opacity:1;fill:#2ecc71;fill-opacity:1;stroke:none;stroke-width:2;stroke-linecap:round;stroke-linejoin:round;stroke-miterlimit:4;stroke-dasharray:none;stroke-opacity:1"
     d="m 35.880031,170.99457 a 0.28,0.28 0 0 0 -0.28,0.28 0.28,0.28 0 0 0 0.191406,0.26524 l -0.191406,0.57476 0.28,0.28 0.28,-0.28 -0.191406,-0.57476 a 0.28,0.28 0 0 0 0.191406,-0.26524 0.28,0.28 0 0 0 -0.28,-0.28 z"
     id="path4282-7" />
  <path
     style="fill:#2ecc71;fill-rule:evenodd;stroke:none;stroke-width:1px;stroke-linecap:butt;stroke-linejoin:miter;stroke-opacity:1"
     d="M 44 30.318359 C 43.16 30.318359 41.48 35.357422 44 35.357422 C 46.52 35.357422 44.84 30.318359 44 30.318359 z M 43.945312 62.505859 C 43.681524 62.498612 43.412242 62.503377 43.140625 62.521484 C 38.836785 62.808409 36.242188 65.402344 36.242188 65.402344 A 0.2801632 0.2801632 0 0 0 36.638672 65.798828 C 36.638672 65.798828 39.081574 63.353154 43.177734 63.080078 C 47.231863 62.809803 50.53125 65.806641 50.53125 65.806641 A 0.28004209 0.28004209 0 0 0 50.910156 65.394531 C 50.910156 65.394531 47.902146 62.614572 43.945312 62.505859 z M 43.662109 63.488281 C 43.402227 63.479007 43.138539 63.48217 42.871094 63.5 C 38.618762 63.783489 36.335938 66.347656 36.335938 66.347656 A 0.14001579 0.14001579 0 0 0 36.544922 66.533203 C 36.544922 66.533203 38.741004 64.055809 42.888672 63.779297 C 47.009555 63.504573 50.341797 66.818359 50.341797 66.818359 A 0.140014 0.140014 0 1 0 50.539062 66.621094 C 50.539062 66.621094 47.560338 63.627388 43.662109 63.488281 z M 52.679688 64.759766 A 0.69999999 0.83999997 0 0 0 51.980469 65.599609 A 0.69999999 0.83999997 0 0 0 52.679688 66.439453 A 0.69999999 0.83999997 0 0 0 53.380859 65.599609 A 0.69999999 0.83999997 0 0 0 52.679688 64.759766 z M 51.279297 66.160156 A 0.69999999 0.83999997 0 0 0 50.580078 67 A 0.69999999 0.83999997 0 0 0 51.279297 67.839844 A 0.69999999 0.83999997 0 0 0 51.980469 67 A 0.69999999 0.83999997 0 0 0 51.279297 66.160156 z M 52.820312 66.720703 A 0.69999999 0.83999997 0 0 0 52.119141 67.560547 A 0.69999999 0.83999997 0 0 0 52.820312 68.400391 A 0.69999999 0.83999997 0 0 0 53.519531 67.560547 A 0.69999999 0.83999997 0 0 0 52.820312 66.720703 z M 44 72.320312 C 43.58 72.320313 43.680103 74.100519 43.160156 75.400391 C 42.600156 76.800391 42.32 77.359375 44 77.359375 C 45.68 77.359375 45.399844 76.800391 44.839844 75.400391 C 44.319897 74.100519 44.42 72.320312 44 72.320312 z M 44 117.61914 C 43.58 117.61914 43.151096 119.46921 42.599609 120.61719 C 41.759609 122.36576 42.04 122.36523 44 122.36523 C 45.96 122.36523 46.240391 122.36576 45.400391 120.61719 C 44.848904 119.46921 44.42 117.61914 44 117.61914 z M 40.359375 164.83398 C 38.959375 164.83398 37.56 165.11453 37 165.39453 C 36.44 165.67453 35.880859 165.95437 35.880859 166.23438 C 35.880859 166.51438 36.999297 166.23492 37.279297 166.79492 C 37.559297 167.35492 37.840234 168.75445 39.240234 169.31445 C 40.640234 169.87445 42.320859 169.87406 42.880859 167.91406 C 43.440859 165.95406 43.72 165.95508 44 165.95508 C 44.28 165.95508 44.559141 165.95406 45.119141 167.91406 C 45.679141 169.87406 47.359766 169.87445 48.759766 169.31445 C 50.159766 168.75445 50.440703 167.35492 50.720703 166.79492 C 51.000703 166.23492 52.119141 166.51438 52.119141 166.23438 C 52.119141 165.95437 51.56 165.67453 51 165.39453 C 50.44 165.11453 49.040625 164.83398 47.640625 164.83398 C 46.240625 164.83398 45.12 165.39453 44 165.39453 C 42.88 165.39453 41.759375 164.83398 40.359375 164.83398 z M 40.447266 165.28906 C 40.779766 165.28906 41.130469 165.32453 41.480469 165.39453 C 42.880469 165.67453 42.880312 167.07531 42.320312 168.19531 C 41.760312 169.31531 40.359687 169.59461 38.679688 168.47461 C 38.119687 167.91461 38.120391 167.07437 38.400391 166.23438 C 38.610391 165.60438 39.449766 165.28906 40.447266 165.28906 z M 47.552734 165.28906 C 48.550234 165.28906 49.389609 165.60438 49.599609 166.23438 C 49.879609 167.07438 49.880313 167.91463 49.320312 168.47461 C 47.640313 169.59461 46.239688 169.31531 45.679688 168.19531 C 45.119687 167.07532 45.119531 165.67453 46.519531 165.39453 C 46.869531 165.32453 47.220234 165.28906 47.552734 165.28906 z M 44 166.79492 C 43.58 166.79492 43.400808 168.57512 42.880859 169.875 C 42.600859 170.575 42.180312 171.06391 42.320312 171.37891 C 42.460313 171.69391 43.16 172.11523 44 172.11523 C 44.84 172.11523 45.539687 171.69391 45.679688 171.37891 C 45.819687 171.06391 45.399141 170.575 45.119141 169.875 C 44.599192 168.57512 44.42 166.79492 44 166.79492 z "
     id="path4188" />
</svg>
