<svg xmlns="http://www.w3.org/2000/svg" viewBox="0 0 256 256">
  <defs
     id="defs4">
    <style
       id="current-color-scheme"
       type="text/css">
      .ColorScheme-Text {
        color:#f2f2f2;
      }
      .ColorScheme-Background {
        color:#31363b;
      }
      .ColorScheme-Highlight {
        color:#3daee9;
      }
      .ColorScheme-ViewText {
        color:#31363b;
      }
      .ColorScheme-ViewBackground {
        color:#314045;
      }
      .ColorScheme-ViewHover {
        color:#93cee9;
      }
      .ColorScheme-ViewFocus{
        color:#3daee9;
      }
      .ColorScheme-ButtonText {
        color:#31363b;
      }
      .ColorScheme-ButtonBackground {
        color:#31363b;
      }
      .ColorScheme-ButtonHover {
        color:#93cee9;
      }
      .ColorScheme-ButtonFocus{
        color:#3daee9;
      }
      </style>
  </defs>
  <path
     style="fill:currentColor;fill-opacity:0.5;stroke:none"
     d="m 16,10 224,0 c 3.324,0 6,2.676 6,6 l 0,224 c 0,3.324 -2.676,6 -6,6 l -224,0 c -3.324,0 -6,-2.676 -6,-6 L 10,16 c 0,-3.324 2.676,-6 6,-6 z"
     class="ColorScheme-ButtonText"
     id="rect4240" />
  <path
     style="fill:currentColor;fill-opacity:1;stroke:none"
     d="m 16,12 224,0 c 2.216,0 4,1.784 4,4 l 0,224 c 0,2.216 -1.784,4 -4,4 l -224,0 c -2.216,0 -4,-1.784 -4,-4 L 12,16 c 0,-2.216 1.784,-4 4,-4 z"
     class="ColorScheme-Background"
     id="rect4238" />
  <path
     style="fill:currentColor;fill-opacity:1;stroke:none"
     class="ColorScheme-Text" 
     d="m 128.01562,43.89453 c -1.41213,0 -2.56107,0.352521 -3.44726,1.058594 -0.88619,0.706067 -1.32813,1.662028 -1.32813,2.865234 0,0.922214 0.27275,1.716672 0.82032,2.386719 0.55477,0.670047 1.2714,1.149307 2.15039,1.4375 -1.05911,0.36744 -1.87674,0.914892 -2.45313,1.642578 -0.56918,0.72048 -0.85351,1.610815 -0.85351,2.669922 0,0.878987 0.23481,1.640023 0.70312,2.28125 0.47552,0.641227 1.09115,1.113409 1.84766,1.416016 0.7565,0.3026 1.60695,0.453125 2.55078,0.453125 1.46257,0 2.67518,-0.36411 3.64062,-1.091797 0.96545,-0.727687 1.44922,-1.747321 1.44922,-3.058594 0,-1.001467 -0.29592,-1.894367 -0.88672,-2.679687 -0.59079,-0.785327 -1.38269,-1.337284 -2.37695,-1.654297 0.9006,-0.324214 1.61016,-0.806039 2.12891,-1.447266 0.52594,-0.648433 0.78906,-1.433255 0.78906,-2.355469 0,-1.210406 -0.43938,-2.166367 -1.31836,-2.865234 -0.87179,-0.706073 -2.01108,-1.058594 -3.41602,-1.058594 z m -80.597651,0.216797 0.205078,1.447266 7.078125,0 -5.445313,14.330078 1.792969,0 5.533203,-14.501953 0,-1.275391 -9.164062,0 z m 156.031251,0 c -0.37465,0.259367 -0.93625,0.522483 -1.68555,0.789063 -0.74209,0.259373 -1.38347,0.442708 -1.92383,0.550781 l 0,1.425781 c 0.48272,-0.06484 1.06555,-0.205728 1.75,-0.421875 0.69166,-0.216147 1.26485,-0.449005 1.71875,-0.701172 l 0,12.837891 -3.80468,0 0,1.296875 8.99218,0 0,-1.296875 -3.39453,0 0,-14.480469 -1.65234,0 z m -75.44336,1.113281 c 0.91501,0 1.6458,0.232859 2.19336,0.701172 0.54757,0.461107 0.82226,1.078696 0.82226,1.84961 0,0.850166 -0.25347,1.555214 -0.75781,2.117187 -0.50434,0.561973 -1.25634,0.951822 -2.25781,1.167969 -0.99426,-0.223347 -1.75079,-0.613196 -2.26953,-1.167969 -0.51154,-0.561973 -0.76758,-1.267021 -0.76758,-2.117187 0,-0.763714 0.27726,-1.381303 0.83203,-1.84961 0.56197,-0.468313 1.29727,-0.701172 2.20508,-0.701172 z m 0,7.09961 c 1.01588,0.216146 1.83351,0.627222 2.45312,1.232422 0.62682,0.605206 0.93946,1.347575 0.93946,2.226562 0,1.959707 -1.13027,2.939453 -3.39258,2.939453 -1.10954,0 -1.95999,-0.256038 -2.55078,-0.767578 -0.58359,-0.511547 -0.875,-1.232689 -0.875,-2.162109 0,-0.9078 0.31264,-1.657254 0.93945,-2.248047 0.62682,-0.5908 1.45604,-0.997357 2.48633,-1.220703 z m -4.02539,67.673832 -0.30274,8.35351 1.44727,0.17188 c 0.33142,-0.35304 0.74957,-0.63286 1.25391,-0.8418 0.50434,-0.20893 1.02348,-0.31445 1.55664,-0.31445 0.72768,0 1.33624,0.16211 1.82617,0.48633 0.48993,0.31701 0.83989,0.72808 1.04883,1.23242 0.20894,0.49713 0.3125,1.0658 0.3125,1.70703 0,1.16718 -0.32423,2.07618 -0.97266,2.72461 -0.64123,0.64123 -1.5013,0.96094 -2.58203,0.96094 -1.21041,0 -2.51182,-0.39241 -3.90234,-1.17774 l -0.61524,1.39453 c 1.56345,0.87178 3.10931,1.30664 4.63672,1.30664 0.7421,0 1.42848,-0.11063 2.0625,-0.33398 0.63402,-0.22335 1.1905,-0.54757 1.66602,-0.97266 0.48272,-0.43228 0.85646,-0.98425 1.12304,-1.65429 0.27378,-0.67726 0.41016,-1.43634 0.41016,-2.2793 0,-0.88619 -0.17882,-1.68712 -0.53906,-2.40039 -0.35304,-0.72048 -0.89341,-1.29879 -1.6211,-1.73828 -0.72768,-0.4467 -1.58521,-0.67188 -2.57226,-0.67188 -1.08072,0 -2.04376,0.28629 -2.88672,0.85547 l 0.17383,-5.38281 6.63476,0 0.14063,-1.42578 -8.29883,0 z m -71.121095,0.004 -3.556641,5.23047 c -0.425084,0.61241 -0.751868,1.10777 -0.982422,1.48242 -0.230554,0.37465 -0.467927,0.80951 -0.71289,1.30664 -0.244963,0.49714 -0.418665,0.99055 -0.519531,1.48047 -0.100868,0.48272 -0.150391,1.00188 -0.150391,1.55664 0,0.64844 0.110636,1.26859 0.333984,1.85938 0.223349,0.59079 0.545012,1.11702 0.962891,1.57812 0.417879,0.45391 0.951177,0.81607 1.599609,1.08985 0.648432,0.27378 1.367628,0.41211 2.160157,0.41211 1.513008,0 2.734643,-0.46963 3.664062,-1.40625 0.936625,-0.94383 1.404297,-2.10947 1.404297,-3.5 0,-1.36171 -0.467672,-2.48686 -1.404297,-3.37305 -0.929419,-0.88619 -2.038465,-1.32813 -3.328125,-1.32813 -0.799733,0 -1.54662,0.20005 -2.238281,0.60352 0.439493,-0.59079 0.817754,-1.11958 1.134765,-1.58789 l 3.675782,-5.4043 -2.042969,0 z m 152.789065,0.10938 -7.05664,10.24414 0,1.55664 7.17578,0 0,3.97656 1.70703,0 0,-3.97656 1.80469,0 0.1289,-1.38281 -1.93359,0 0,-10.41797 -1.82617,0 z m 0.11914,2.22656 0,8.19141 -5.39258,0 5.39258,-8.19141 z M 52.015625,127.7832 c 1.030287,0 1.838286,0.31008 2.421875,0.92969 0.590794,0.61241 0.884766,1.40882 0.884766,2.38867 0,0.97265 -0.298486,1.79736 -0.896485,2.47461 -0.597998,0.67005 -1.422708,1.00586 -2.474609,1.00586 -1.044697,0 -1.855257,-0.32874 -2.431641,-0.98437 -0.576384,-0.65564 -0.865234,-1.4662 -0.865234,-2.43164 0,-0.48993 0.0727,-0.93186 0.216797,-1.32813 0.144096,-0.39627 0.331946,-0.71793 0.5625,-0.96289 0.230554,-0.25217 0.493666,-0.46124 0.789062,-0.62695 0.302602,-0.1729 0.601088,-0.29061 0.896485,-0.35547 0.302602,-0.072 0.601087,-0.10938 0.896484,-0.10938 z m 75.503905,68.11133 c -1.44096,0 -2.80604,0.39242 -4.0957,1.17774 l 0.58203,1.31835 c 1.16718,-0.67004 2.32062,-1.0039 3.45898,-1.0039 0.83576,0 1.51251,0.21163 2.03125,0.63672 0.51876,0.42508 0.78639,1.07353 0.80079,1.94531 l 0,0.0762 c 0,1.85884 -1.27567,2.78711 -3.82618,2.78711 l -0.46484,0 0,1.44922 0.45508,0 c 0.52594,0 0.98203,0.0255 1.37109,0.0762 0.39627,0.0505 0.7816,0.14695 1.15625,0.29102 0.37465,0.13686 0.68216,0.3247 0.91992,0.5625 0.23776,0.23053 0.42817,0.54318 0.57227,0.93945 0.14409,0.38907 0.2168,0.8542 0.2168,1.39453 0,0.97987 -0.26055,1.72932 -0.7793,2.24805 -0.51875,0.5188 -1.2399,0.77734 -2.16211,0.77734 -1.14556,0 -2.45917,-0.37823 -3.94336,-1.13476 l 0,1.62109 c 1.33289,0.69887 2.66516,1.04883 3.99805,1.04883 1.37611,0 2.50833,-0.3924 3.39453,-1.17774 0.89341,-0.79253 1.34949,-1.92021 1.37109,-3.38281 l 0,-0.0762 c 0,-1.07353 -0.30104,-1.94969 -0.90625,-2.62695 -0.598,-0.6772 -1.39441,-1.11916 -2.38867,-1.32813 1.91647,-0.49713 2.875,-1.69754 2.875,-3.59961 l 0,-0.0644 c -0.007,-0.85737 -0.23238,-1.58815 -0.67187,-2.19336 -0.43229,-0.61241 -0.98937,-1.05886 -1.67383,-1.33984 -0.67726,-0.28099 -1.44085,-0.42188 -2.29102,-0.42188 z m -75.601561,0.10742 c -0.806938,0 -1.601396,0.11967 -2.386719,0.35743 -0.785324,0.23055 -1.419622,0.52196 -1.902344,0.875 l 0.529297,1.37304 c 0.497131,-0.32421 1.063243,-0.58732 1.697266,-0.78906 0.641227,-0.20173 1.263937,-0.30274 1.86914,-0.30274 0.273783,10e-6 0.536895,0.0258 0.789063,0.0762 0.252169,0.0432 0.51528,0.13264 0.789062,0.26953 0.273783,0.12968 0.506642,0.29887 0.701172,0.50781 0.19453,0.20173 0.356642,0.47899 0.486328,0.83203 0.129687,0.35304 0.195313,0.7596 0.195313,1.22071 0,0.42508 -0.04245,0.81493 -0.128906,1.16796 -0.07925,0.34583 -0.23173,0.70287 -0.455079,1.07032 -0.223349,0.36744 -0.420834,0.66337 -0.59375,0.88672 -0.172915,0.22336 -0.457251,0.56432 -0.853515,1.02539 l -5.089844,6.00976 0.279297,1.41602 8.441406,0 0.09766,-1.29688 -6.798828,0 4.236328,-4.96094 c 0.511542,-0.598 0.908466,-1.08883 1.189454,-1.4707 0.288192,-0.3818 0.551303,-0.79098 0.789062,-1.23047 0.244963,-0.44669 0.409637,-0.88607 0.496094,-1.31836 0.09366,-0.43229 0.140625,-0.92314 0.140625,-1.4707 0,-0.62682 -0.09197,-1.18841 -0.279297,-1.68555 -0.187325,-0.50433 -0.433727,-0.91089 -0.736328,-1.2207 -0.302602,-0.31701 -0.655125,-0.57756 -1.058594,-0.7793 -0.403469,-0.20894 -0.807469,-0.35238 -1.210937,-0.43164 -0.396265,-0.0865 -0.807339,-0.13086 -1.232422,-0.13086 z"
     id="path4432" />
  <path
     style="fill:currentColor;fill-opacity:0.5;stroke:none" 
     class="ColorScheme-Text"
     d="m 20,20 0,64 64,0 0,-64 -64,0 z m 76,0 0,64 64,0 0,-64 -64,0 z m 76,0 0,64 64,0 0,-64 -64,0 z m -151,1 62,0 0,62 -62,0 0,-62 z m 76,0 62,0 0,62 -62,0 0,-62 z m 76,0 62,0 0,62 -62,0 0,-62 z m -153,75 0,64 64,0 0,-64 -64,0 z m 76,0 0,64 64,0 0,-64 -64,0 z m 76,0 0,64 64,0 0,-64 -64,0 z m -151,1 62,0 0,62 -62,0 0,-62 z m 76,0 62,0 0,62 -62,0 0,-62 z m 76,0 62,0 0,62 -62,0 0,-62 z m -153,75 0,64 64,0 0,-64 -64,0 z m 76,0 0,64 64,0 0,-64 -64,0 z m -75,1 62,0 0,62 -62,0 0,-62 z m 76,0 62,0 0,62 -62,0 0,-62 z"
     id="rect4877" />
</svg>
