<?xml version="1.0" encoding="UTF-8" standalone="no"?>
<svg
   xmlns:dc="http://purl.org/dc/elements/1.1/"
   xmlns:cc="http://creativecommons.org/ns#"
   xmlns:rdf="http://www.w3.org/1999/02/22-rdf-syntax-ns#"
   xmlns:svg="http://www.w3.org/2000/svg"
   xmlns="http://www.w3.org/2000/svg"
   xmlns:sodipodi="http://sodipodi.sourceforge.net/DTD/sodipodi-0.dtd"
   xmlns:inkscape="http://www.inkscape.org/namespaces/inkscape"
   viewBox="0 0 256 256"
   id="svg2"
   version="1.1"
   inkscape:version="0.91 r13725"
   sodipodi:docname="org.kde.plasma.activitybar.svg">
  <metadata
     id="metadata10">
    <rdf:RDF>
      <cc:Work
         rdf:about="">
        <dc:format>image/svg+xml</dc:format>
        <dc:type
           rdf:resource="http://purl.org/dc/dcmitype/StillImage" />
        <dc:title></dc:title>
      </cc:Work>
    </rdf:RDF>
  </metadata>
  <sodipodi:namedview
     pagecolor="#ffffff"
     bordercolor="#666666"
     borderopacity="1"
     objecttolerance="10"
     gridtolerance="10"
     guidetolerance="10"
     inkscape:pageopacity="0"
     inkscape:pageshadow="2"
     inkscape:window-width="1920"
     inkscape:window-height="1050"
     id="namedview8"
     showgrid="false"
     inkscape:zoom="1.84375"
     inkscape:cx="58.780619"
     inkscape:cy="37.419855"
     inkscape:window-x="0"
     inkscape:window-y="30"
     inkscape:window-maximized="1"
     inkscape:current-layer="svg2" />
  <defs
     id="defs4">
    <style
       id="current-color-scheme"
       type="text/css">
      .ColorScheme-Text {
        color:#f2f2f2;
      }
      .ColorScheme-Background {
        color:#31363b;
      }
      .ColorScheme-Highlight {
        color:#3daee9;
      }
      .ColorScheme-ViewText {
        color:#31363b;
      }
      .ColorScheme-ViewBackground {
        color:#314045;
      }
      .ColorScheme-ViewHover {
        color:#93cee9;
      }
      .ColorScheme-ViewFocus{
        color:#3daee9;
      }
      .ColorScheme-ButtonText {
        color:#31363b;
      }
      .ColorScheme-ButtonBackground {
        color:#31363b;
      }
      .ColorScheme-ButtonHover {
        color:#93cee9;
      }
      .ColorScheme-ButtonFocus{
        color:#3daee9;
      }
      </style>
  </defs>
  <path
     style="fill:currentColor;fill-opacity:0.5;stroke:none"
     d="m 16,10 224,0 c 3.324,0 6,2.676 6,6 l 0,224 c 0,3.324 -2.676,6 -6,6 l -224,0 c -3.324,0 -6,-2.676 -6,-6 L 10,16 c 0,-3.324 2.676,-6 6,-6 z"
     class="ColorScheme-ButtonText"
     id="rect4240" />
  <path
     style="fill:currentColor;fill-opacity:1;stroke:none"
     d="m 16,12 224,0 c 2.216,0 4,1.784 4,4 l 0,224 c 0,2.216 -1.784,4 -4,4 l -224,0 c -2.216,0 -4,-1.784 -4,-4 L 12,16 c 0,-2.216 1.784,-4 4,-4 z"
     class="ColorScheme-Background"
     id="rect4238" />
  <path
     inkscape:connector-curvature="0"
     id="rect6956"
     style="fill:currentColor;fill-opacity:1;stroke:none" 
     d="m 24,47.000019 208,0 0,1 -208,0 z"
     class="ColorScheme-Highlight" />
  <path
     inkscape:connector-curvature="0"
     id="path4491"
     style="fill:currentColor;fill-opacity:1;stroke:none" 
     d="m 59.193359,24.429687 c -0.767008,0 -1.341797,0.214104 -1.722656,0.642578 -0.380859,0.428466 -0.570312,1.15544 -0.570312,2.18164 l 0,0.53125 -1.484375,0.134766 -0.03906,0.691406 1.523438,0 0,7.560547 1.316406,0 0,-7.560547 1.992187,0 0,-0.833984 -1.992187,0 0,-0.603516 c 0,-0.39144 0.02466,-0.705319 0.07227,-0.943359 0.04761,-0.243327 0.125245,-0.422689 0.236329,-0.539063 0.116373,-0.121626 0.240803,-0.201214 0.373047,-0.238281 0.132242,-0.037 0.311035,-0.05469 0.533203,-0.05469 0.275065,0 0.544108,0.02526 0.808593,0.07812 l 0.0957,-0.912109 C 59.865157,24.474515 59.484297,24.42968 59.193363,24.42968 Z m 21.279297,0.0625 -1.300781,0.0957 0,9.179687 c 0,0.502527 0.05746,0.920653 0.173828,1.253906 0.116374,0.32796 0.297689,0.579347 0.541016,0.753907 0.243326,0.17456 0.517415,0.296467 0.824219,0.365234 0.312093,0.06347 0.697997,0.0957 1.158203,0.0957 l 0.626953,0 0.07227,-0.904297 -0.357421,-0.02344 c -0.227458,-0.01587 -0.404297,-0.03042 -0.53125,-0.04102 -0.126954,-0.01587 -0.263998,-0.03603 -0.41211,-0.0625 -0.142822,-0.03172 -0.252116,-0.069 -0.326172,-0.111328 -0.06877,-0.04761 -0.140788,-0.105061 -0.214844,-0.173828 -0.07405,-0.06877 -0.126463,-0.157879 -0.158203,-0.263672 -0.02645,-0.1058 -0.04915,-0.225755 -0.07031,-0.363281 -0.01587,-0.137534 -0.02539,-0.30428 -0.02539,-0.5 l 0,-9.300781 z m -44.257812,0.0957 0,11.583984 3.513672,0 c 1.856689,0 3.317626,-0.505292 4.380859,-1.515625 1.063232,-1.01034 1.59375,-2.446614 1.59375,-4.308594 0,-0.782873 -0.09725,-1.487707 -0.292969,-2.117187 -0.195719,-0.63476 -0.47233,-1.177327 -0.832031,-1.626953 C 44.218424,26.153885 43.78068,25.778072 43.267578,25.476558 42.754476,25.169752 42.184163,24.94555 41.554688,24.80273 40.925211,24.659913 40.24056,24.58789 39.5,24.58789 l -3.285156,0 z m 49.654297,0.888671 -1.054688,0.08008 -0.214844,2.220703 -1.292968,0.08789 -0.0332,0.746094 1.294921,0 0,5.046875 c 0,0.5131 0.04484,0.926754 0.134766,1.244141 0.08992,0.31738 0.249675,0.580809 0.482422,0.787109 0.238037,0.2063 0.546306,0.348388 0.921875,0.427735 0.37557,0.07935 0.866293,0.11914 1.474609,0.11914 l 0.548828,0 0.0625,-0.904297 -0.666015,-0.0332 c -0.703532,-0.02645 -1.156413,-0.136311 -1.357422,-0.332031 -0.201009,-0.201007 -0.300781,-0.636801 -0.300781,-1.308594 l 0,-5.046875 2.220703,0 0,-0.833984 -2.220703,0 0,-2.300782 z m -48.257813,0.158204 1.824219,0 c 1.592203,0 2.801758,0.383384 3.626953,1.15039 0.830485,0.76172 1.244141,1.963703 1.244141,3.603516 0,1.544593 -0.39095,2.719397 -1.173829,3.523437 -0.777587,0.798747 -1.937825,1.197266 -3.482421,1.197266 l -2.039063,0 0,-9.474609 z m 13.535156,1.96875 c -1.110839,0 -2.024739,0.398519 -2.74414,1.197265 -0.719401,0.798747 -1.080078,1.871257 -1.080078,3.214844 0,1.32772 0.368245,2.378663 1.103515,3.15625 0.73527,0.7723 1.693441,1.160156 2.873047,1.160156 1.057943,0 2.001546,-0.246341 2.832031,-0.738281 l -0.277343,-0.929688 c -0.444336,0.222167 -0.847331,0.388914 -1.207032,0.5 -0.3597,0.11108 -0.758219,0.167969 -1.197265,0.167969 -0.809326,0 -1.466228,-0.256431 -1.96875,-0.769531 -0.502521,-0.518393 -0.774087,-1.312339 -0.816407,-2.380859 l 5.671876,0 0.04883,-0.666016 c 0,-1.227213 -0.278565,-2.18538 -0.833985,-2.873047 -0.55013,-0.692953 -1.351643,-1.039062 -2.404297,-1.039062 z m 13.664063,0 c -1.121419,0 -2.131999,0.209066 -3.03125,0.626953 l 0.357422,0.966797 c 0.386149,-0.18514 0.824463,-0.327228 1.316406,-0.427735 0.491943,-0.105793 0.952393,-0.158203 1.380859,-0.158203 0.634766,0 1.097738,0.149659 1.388672,0.451172 0.296224,0.301513 0.445313,0.75944 0.445313,1.373047 l 0,0.826172 -1.341797,0 c -1.348877,0 -2.332275,0.214111 -2.951172,0.642578 -0.613607,0.42318 -0.919922,1.08822 -0.919922,1.998047 0,0.76172 0.231771,1.358642 0.697266,1.787109 0.470784,0.428467 1.092935,0.642578 1.865234,0.642578 1.153157,0 2.089193,-0.442792 2.808594,-1.326172 l 0.142578,1.158203 1,0 0,-5.537109 c 0,-1.06852 -0.276041,-1.83976 -0.826172,-2.310547 -0.544841,-0.476073 -1.321696,-0.71289 -2.332031,-0.71289 z m 5.220703,0.173828 0,5.126953 c 0,1.137287 0.248861,1.993732 0.746094,2.570312 0.502523,0.571287 1.239583,0.857422 2.21289,0.857422 0.687663,0 1.230226,-0.104247 1.626954,-0.310547 0.402018,-0.211586 0.738037,-0.527992 1.007812,-0.951172 l 0.134766,1.101563 1.142578,0 0,-8.394531 -1.316406,0 0,4.71289 c -10e-7,0.333254 -0.02466,0.639003 -0.07227,0.914063 -0.04761,0.275067 -0.12972,0.534017 -0.246094,0.777344 -0.116373,0.243326 -0.266032,0.445395 -0.451172,0.609375 -0.17985,0.163986 -0.413575,0.295411 -0.699218,0.390625 -0.280356,0.09521 -0.601807,0.142578 -0.966797,0.142578 -0.645346,0 -1.108318,-0.193932 -1.388672,-0.580078 -0.275066,-0.386154 -0.414063,-0.951419 -0.414063,-1.697266 l 0,-5.269531 -1.316406,0 z m -18.851562,0.833984 c 1.33301,0 2.030276,0.903804 2.09375,2.712891 l -4.570313,0 c 0.07406,-0.83578 0.333008,-1.495769 0.777344,-1.982422 0.449625,-0.486653 1.016845,-0.730469 1.699219,-0.730469 z m 14.480468,3.523438 1.007813,0 0,1.847656 c -0.629476,0.9257 -1.487875,1.388672 -2.572266,1.388672 -0.396729,0 -0.725749,-0.126953 -0.990234,-0.38086 -0.264486,-0.253906 -0.398438,-0.612631 -0.398438,-1.078125 0,-0.2592 0.02466,-0.477783 0.07227,-0.652343 0.04761,-0.179847 0.134766,-0.342121 0.261719,-0.490235 0.126953,-0.1534 0.301269,-0.272782 0.523437,-0.357422 0.222168,-0.08993 0.505778,-0.159431 0.849609,-0.207031 0.343832,-0.0476 0.75944,-0.07031 1.246094,-0.07031 z m -5.404297,30.853515 -1.300781,0.09375 0,9.181641 c 0,0.502527 0.05745,0.920653 0.173828,1.253906 0.116374,0.32796 0.295736,0.579346 0.539063,0.753906 0.243326,0.17456 0.519368,0.294515 0.826172,0.363282 0.312093,0.06347 0.697997,0.0957 1.158203,0.0957 l 0.626953,0 0.07227,-0.904297 -0.357421,-0.02344 c -0.227458,-0.01587 -0.404297,-0.02846 -0.53125,-0.03906 -0.126954,-0.01587 -0.265951,-0.03799 -0.414063,-0.06445 -0.142822,-0.03172 -0.250163,-0.069 -0.324219,-0.111328 -0.06877,-0.04761 -0.140787,-0.105062 -0.214843,-0.173829 -0.07405,-0.06877 -0.126463,-0.155925 -0.158204,-0.261718 -0.02645,-0.1058 -0.0511,-0.227708 -0.07227,-0.365235 -0.01587,-0.137533 -0.02344,-0.30428 -0.02344,-0.5 l 0,-9.298828 z m 42.521481,0 -1.3164,0.09375 0,2.611328 0.0625,1.91211 c -0.12696,-0.232747 -0.26148,-0.431723 -0.4043,-0.595703 -0.13753,-0.169274 -0.3068,-0.323977 -0.50781,-0.466797 -0.20101,-0.148114 -0.4423,-0.259931 -0.722658,-0.333985 -0.280355,-0.07406 -0.596761,-0.111328 -0.951172,-0.111328 -1.110839,0 -1.991943,0.397946 -2.642578,1.191406 -0.645345,0.793454 -0.96875,1.831788 -0.96875,3.117188 0,1.354167 0.313314,2.431722 0.9375,3.230469 0.629476,0.79346 1.523193,1.189453 2.68164,1.189453 1.200768,0 2.072348,-0.547605 2.617188,-1.642578 l 0.11914,1.484375 1.0957,0 0,-11.679688 z m -66.332028,0.09375 -0.230468,11.585938 1.316406,0 0.111328,-7.150391 0,-2.736328 3.650391,8.591797 1.197265,0 3.673828,-8.496094 0,2.609375 0.111329,7.181641 1.300781,0 -0.230469,-11.585938 -1.666015,0 -3.767579,8.800781 -3.753906,-8.800781 -1.712891,0 z m 34.132813,0 c -0.253906,0 -0.462972,0.07959 -0.626953,0.238281 -0.158691,0.153407 -0.236328,0.354903 -0.236328,0.603516 0,0.24862 0.07764,0.452642 0.236328,0.611328 0.163981,0.158694 0.373047,0.238282 0.626953,0.238282 0.248617,0 0.455159,-0.07959 0.619141,-0.238282 0.16398,-0.158686 0.246093,-0.362708 0.246093,-0.611328 0,-0.248613 -0.08211,-0.450109 -0.246093,-0.603516 -0.158692,-0.158686 -0.365234,-0.238281 -0.619141,-0.238281 z m 35.199215,0 c -0.2539,0 -0.46297,0.07959 -0.62695,0.238281 -0.15869,0.153407 -0.23828,0.354903 -0.23828,0.603516 0,0.24862 0.0796,0.452642 0.23828,0.611328 0.16398,0.158694 0.37305,0.238282 0.62695,0.238282 0.24862,0 0.45516,-0.07959 0.61914,-0.238282 0.16398,-0.158686 0.24414,-0.362708 0.24414,-0.611328 1e-5,-0.248613 -0.0802,-0.450109 -0.24414,-0.603516 -0.15869,-0.158686 -0.36523,-0.238281 -0.61914,-0.238281 z m -40.124996,0.888672 -1.056641,0.08008 -0.212891,2.220703 -1.294921,0.08789 -0.03125,0.746094 1.292968,0 0,5.046875 c 0,0.5131 0.04484,0.928707 0.134766,1.246094 0.08992,0.31738 0.251628,0.578856 0.484375,0.785156 0.238037,0.2063 0.544353,0.348387 0.919922,0.427734 0.37557,0.07935 0.868246,0.119141 1.476562,0.119141 l 0.546875,0 0.06445,-0.904297 -0.666015,-0.03125 c -0.703532,-0.02645 -1.156413,-0.138264 -1.357422,-0.333984 -0.201009,-0.201007 -0.300781,-0.636801 -0.300781,-1.308594 l 0,-5.046875 2.220703,0 0,-0.832031 -2.220703,0 0,-2.302735 z m 11.75,2.126953 c -1.073812,0 -1.935303,0.470536 -2.585938,1.41211 l -0.15039,-1.236328 -1.064454,0 0,8.394531 1.31836,0 0,-5.119141 c 0.111084,-0.735267 0.352945,-1.325191 0.728516,-1.769531 0.380859,-0.449627 0.893717,-0.673828 1.539062,-0.673828 0.587159,0 0.990153,0.219156 1.207031,0.658203 0.216878,0.43376 0.326172,1.165206 0.326172,2.191406 l 0,4.712891 1.316406,0 0,-4.308594 c 0.01587,-0.72998 0.04557,-1.16772 0.08789,-1.310547 0.142823,-0.629473 0.411866,-1.110106 0.808594,-1.443359 0.396728,-0.333254 0.849609,-0.5 1.357422,-0.5 0.227457,0 0.424478,0.03475 0.59375,0.103515 0.17456,0.06348 0.313558,0.163248 0.414062,0.300782 0.105798,0.137533 0.190433,0.279055 0.253906,0.421875 0.06348,0.137533 0.108319,0.319421 0.134766,0.546875 0.02647,0.22746 0.04161,0.419431 0.04687,0.578125 0.01058,0.1534 0.01563,0.357421 0.01563,0.611328 l 0,5 1.318359,0 0,-5.41211 c 0,-2.105306 -0.858398,-3.158203 -2.572265,-3.158203 -1.216634,0 -2.140056,0.569738 -2.769532,1.707032 -0.195719,-0.534267 -0.47233,-0.952393 -0.832031,-1.253907 -0.3597,-0.301513 -0.857422,-0.453125 -1.492187,-0.453125 z m 13.164062,0 c -1.11084,0 -2.026692,0.400472 -2.746094,1.199219 -0.7194,0.798747 -1.078124,1.869304 -1.078124,3.212891 0,1.32772 0.366292,2.380616 1.101562,3.158203 0.73527,0.7723 1.69344,1.158203 2.873047,1.158203 1.057943,0 2.001546,-0.246341 2.832031,-0.738281 l -0.277344,-0.927735 c -0.444336,0.222167 -0.845378,0.388914 -1.205078,0.5 -0.3597,0.11108 -0.760172,0.166016 -1.199218,0.166016 -0.809327,0 -1.464275,-0.256431 -1.966797,-0.769531 -0.502521,-0.518394 -0.77604,-1.31234 -0.81836,-2.38086 l 5.673828,0 0.04687,-0.666015 c 0,-1.227214 -0.276612,-2.185381 -0.832031,-2.873047 -0.550131,-0.692954 -1.351644,-1.039063 -2.404297,-1.039063 z m 21.312504,0 c -1.12142,0 -2.13201,0.209067 -3.03125,0.626953 l 0.35742,0.96875 c 0.38615,-0.18514 0.82446,-0.32918 1.3164,-0.429687 0.49195,-0.105793 0.9524,-0.158203 1.38086,-0.158203 0.63477,0 1.09774,0.151611 1.38868,0.453125 0.29622,0.301513 0.44336,0.757487 0.44336,1.371094 l 0,0.826171 -1.33985,0 c -1.34887,0 -2.33227,0.214112 -2.95117,0.642579 -0.61361,0.42318 -0.92188,1.090173 -0.92188,2 0,0.761719 0.23373,1.356689 0.69922,1.785156 0.47079,0.428466 1.09098,0.642578 1.86328,0.642578 1.15316,0 2.09115,-0.442792 2.81055,-1.326172 l 0.14258,1.160156 1,0 0,-5.539062 c 0,-1.06852 -0.27605,-1.837807 -0.82617,-2.308594 -0.54484,-0.476073 -1.32169,-0.714844 -2.33203,-0.714844 z m -62.064457,0.175782 0,5.125 c 0,1.137286 0.248861,1.993732 0.746094,2.570312 0.502523,0.571287 1.239583,0.857422 2.212891,0.857422 0.687663,0 1.230225,-0.104247 1.626953,-0.310547 0.402018,-0.211587 0.738037,-0.527992 1.007812,-0.951172 l 0.134766,1.103516 1.142578,0 0,-8.394531 -1.316406,0 0,4.71289 c 0,0.333253 -0.02466,0.63705 -0.07227,0.91211 -0.04761,0.275066 -0.12972,0.534017 -0.246094,0.777343 -0.116373,0.243327 -0.266032,0.447348 -0.451172,0.611328 -0.17985,0.163987 -0.413574,0.293459 -0.699218,0.388672 -0.280355,0.09521 -0.60376,0.142578 -0.96875,0.142578 -0.645346,0 -1.108318,-0.193931 -1.388672,-0.580078 -0.275066,-0.386153 -0.41211,-0.951419 -0.41211,-1.697265 l 0,-5.267578 -1.316406,0 z m 20.105469,0 0,8.394531 1.300781,0 0,-8.394531 -1.300781,0 z m 35.197268,0 0,8.394531 1.30273,0 0,-8.394531 -1.30273,0 z m -14.519534,0.832031 c 1.333012,0 2.03223,0.903804 2.095703,2.71289 l -4.570312,0 c 0.07406,-0.83578 0.333008,-1.495768 0.777344,-1.982421 0.449625,-0.486654 1.014892,-0.730469 1.697265,-0.730469 z m 8.529297,0 c 0.782881,0 1.372807,0.291173 1.769527,0.873047 0.40202,0.581866 0.60352,1.440838 0.60352,2.578125 -0.005,1.042073 -0.19922,1.846109 -0.58008,2.412109 -0.38086,0.566 -1.001058,0.849609 -1.863279,0.849609 -0.819906,0 -1.42692,-0.30127 -1.81836,-0.904297 -0.386148,-0.603026 -0.578125,-1.431721 -0.578125,-2.484374 0,-1.057947 0.206544,-1.874599 0.619141,-2.451172 0.412598,-0.581874 1.027751,-0.873047 1.847656,-0.873047 z m 13.599607,3.523437 1.00782,0 0,1.847656 c -0.62948,0.925701 -1.48592,1.388672 -2.57032,1.388672 -0.39672,0 -0.7277,-0.126952 -0.99218,-0.380859 -0.26449,-0.253907 -0.39649,-0.612632 -0.39649,-1.078125 0,-0.2592 0.0247,-0.475831 0.0723,-0.650391 0.0476,-0.179846 0.13476,-0.344074 0.26172,-0.492187 0.12695,-0.1534 0.30126,-0.272782 0.52343,-0.357422 0.22217,-0.08993 0.50578,-0.159431 0.84961,-0.207031 0.34383,-0.0476 0.75749,-0.07031 1.24414,-0.07031 z m -76.511716,30.853518 0,11.58399 1.396484,0 0,-5.60157 2.50586,0 c 1.306559,0 2.259684,-0.26399 2.857421,-0.79296 0.597738,-0.53427 0.896485,-1.32064 0.896485,-2.35743 0,-0.50781 -0.0922,-0.94612 -0.277344,-1.3164 -0.179851,-0.37557 -0.441325,-0.67179 -0.785156,-0.88867 -0.343832,-0.21689 -0.736735,-0.37607 -1.175782,-0.47657 -0.439046,-0.1005 -0.934814,-0.15039 -1.490234,-0.15039 l -3.927734,0 z m 15.955078,0 c -0.253906,0 -0.462972,0.0796 -0.626953,0.23828 -0.158692,0.1534 -0.236328,0.35491 -0.236328,0.60352 0,0.24862 0.07764,0.45068 0.236328,0.60937 0.163981,0.15869 0.373047,0.23829 0.626953,0.23829 0.248617,0 0.455159,-0.0796 0.61914,-0.23829 0.163981,-0.15869 0.246094,-0.36075 0.246094,-0.60937 0,-0.24861 -0.08211,-0.45012 -0.246094,-0.60352 -0.158692,-0.15869 -0.365234,-0.23828 -0.61914,-0.23828 z m 21.765625,0.88867 -1.054688,0.0801 -0.214843,2.22071 -1.292969,0.0879 -0.0332,0.74609 1.294922,0 0,5.04492 c 0,0.51311 0.04484,0.92871 0.134765,1.2461 0.08992,0.31738 0.249675,0.57886 0.482422,0.78515 0.238037,0.2063 0.546305,0.35034 0.921875,0.42969 0.375569,0.0794 0.866292,0.11914 1.47461,0.11914 l 0.548828,0 0.0625,-0.9043 -0.666016,-0.0332 c -0.703532,-0.0264 -1.156413,-0.13631 -1.357422,-0.33203 -0.201009,-0.20102 -0.300781,-0.63876 -0.300781,-1.31055 l 0,-5.04492 2.220703,0 0,-0.83398 -2.220703,0 0,-2.30079 z m -36.324219,0.15821 2.523438,0 c 0.761718,0 1.339599,0.13704 1.736328,0.41211 0.402018,0.26977 0.603515,0.73274 0.603515,1.38867 0,0.76172 -0.181885,1.29671 -0.546875,1.60351 -0.3597,0.30681 -0.974283,0.46094 -1.841796,0.46094 l -2.47461,0 0,-3.86523 z m 29.230469,1.96875 c -1.121419,0 -2.131999,0.20906 -3.03125,0.62695 l 0.357422,0.9668 c 0.386149,-0.18514 0.824463,-0.32723 1.316406,-0.42774 0.491943,-0.10579 0.952393,-0.1582 1.380859,-0.1582 0.634766,0 1.097738,0.14966 1.388672,0.45117 0.296224,0.30151 0.445313,0.75944 0.445313,1.37305 l 0,0.82422 -1.341797,0 c -1.348877,0 -2.332275,0.21606 -2.951172,0.64453 -0.613607,0.42318 -0.919922,1.08821 -0.919922,1.99805 0,0.76171 0.231771,1.35668 0.697266,1.78515 0.470784,0.42847 1.092935,0.64258 1.865234,0.64258 1.153157,0 2.089193,-0.44084 2.808594,-1.32422 L 69,113.05859 l 1,0 0,-5.53906 c 0,-1.06852 -0.276041,-1.83781 -0.826172,-2.30859 -0.544841,-0.47608 -1.321696,-0.71289 -2.332031,-0.71289 z m 14.457031,0 c -1.11084,0 -2.026692,0.39852 -2.746094,1.19726 -0.7194,0.79875 -1.078125,1.86931 -1.078125,3.21289 0,1.32772 0.366293,2.38062 1.101563,3.15821 0.73527,0.77229 1.693441,1.1582 2.873047,1.1582 1.057943,0 2.001546,-0.24439 2.832031,-0.73633 l -0.277344,-0.92969 c -0.444336,0.22218 -0.845377,0.38892 -1.205078,0.5 -0.3597,0.11109 -0.760172,0.16797 -1.199219,0.16797 -0.809326,0 -1.464274,-0.25838 -1.966797,-0.77148 -0.50252,-0.5184 -0.776039,-1.31038 -0.818359,-2.37891 l 5.673828,0 0.04687,-0.66797 c 0,-1.22721 -0.276611,-2.18343 -0.832031,-2.87109 -0.55013,-0.69295 -1.351644,-1.03906 -2.404297,-1.03906 z m -31.992187,0.0859 c -0.507813,0 -0.992921,0.14405 -1.453125,0.42969 -0.454916,0.28036 -0.840821,0.72119 -1.158204,1.32422 l -0.142578,-1.66601 -1.054687,0 0,8.39453 1.316406,0 0,-4.75196 c 0,-0.74585 0.233724,-1.37809 0.699219,-1.89648 0.470785,-0.51839 1.065755,-0.77735 1.785156,-0.77735 0.148112,0 0.327475,0.0202 0.539063,0.0625 l 0.05469,-1.07812 c -0.153401,-0.0265 -0.3479,-0.041 -0.585937,-0.041 z m 2.205078,0.0879 0,8.39453 1.300781,0 0,-8.39453 -1.300781,0 z m 3.046875,0 3.246094,8.39453 1.324218,0 3.181641,-8.39453 -1.339844,0 c -0.275065,0.77229 -0.693196,1.92749 -1.253906,3.46679 -0.555419,1.53931 -0.971029,2.69645 -1.246094,3.46875 -0.343831,-0.90982 -0.841553,-2.24886 -1.492187,-4.01562 -0.645346,-1.76677 -1.001547,-2.74008 -1.070313,-2.91992 l -1.349609,0 z m 26.771484,0.83398 c 1.333011,0 2.03223,0.90381 2.095703,2.71289 l -4.570312,0 c 0.07406,-0.83577 0.333008,-1.49772 0.777343,-1.98437 0.449626,-0.48666 1.014893,-0.72852 1.697266,-0.72852 z m -13.638672,3.52148 1.007813,0 0,1.84961 c -0.629476,0.9257 -1.487875,1.38867 -2.572266,1.38867 -0.396729,1e-5 -0.725749,-0.12695 -0.990234,-0.38085 -0.264486,-0.25391 -0.398438,-0.61459 -0.398438,-1.08008 0,-0.2592 0.02466,-0.47583 0.07227,-0.65039 0.04761,-0.17986 0.134766,-0.34408 0.261719,-0.49219 0.126953,-0.1534 0.301269,-0.27084 0.523437,-0.35547 0.222168,-0.0899 0.505778,-0.15943 0.849609,-0.20703 0.343832,-0.0476 0.75944,-0.0723 1.246094,-0.0723 z m -25.986328,30.85352 c -1.137289,0 -2.12321,0.25391 -2.958984,0.76172 -0.830485,0.50252 -1.460205,1.20679 -1.888672,2.11133 -0.428467,0.89925 -0.642578,1.9471 -0.642578,3.14257 0,1.17432 0.206542,2.20004 0.61914,3.07813 0.417888,0.87809 1.040609,1.56527 1.871094,2.0625 0.835775,0.49723 1.83374,0.74609 2.992188,0.74609 0.862223,0 1.636556,-0.14208 2.324218,-0.42773 0.687663,-0.29093 1.257406,-0.69645 1.707032,-1.21485 0.454915,-0.52367 0.801025,-1.14136 1.039062,-1.85546 0.243327,-0.71941 0.365234,-1.51083 0.365234,-2.37305 10e-7,-1.19019 -0.214111,-2.23804 -0.642578,-3.14258 -0.423177,-0.90983 -1.047851,-1.61914 -1.873046,-2.12695 -0.825196,-0.50781 -1.795981,-0.76172 -2.91211,-0.76172 z m 10.441406,0 c -0.767008,0 -1.339843,0.21411 -1.720703,0.64258 -0.380859,0.42846 -0.572265,1.15739 -0.572265,2.18359 l 0,0.53125 -1.484375,0.13477 -0.03906,0.68945 1.523438,0 0,7.5625 1.318359,0 0,-7.5625 1.990234,0 0,-0.83203 -1.990234,0 0,-0.60352 c 0,-0.39144 0.02271,-0.70532 0.07031,-0.94336 0.04761,-0.24332 0.127197,-0.42464 0.238281,-0.54101 0.116374,-0.12169 0.240804,-0.20128 0.373047,-0.23828 0.132242,-0.037 0.309082,-0.0547 0.53125,-0.0547 0.275065,0 0.544107,0.0272 0.808593,0.0801 l 0.0957,-0.91407 c -0.470783,-0.0899 -0.851643,-0.13476 -1.142578,-0.13476 z m 5.554688,0 c -0.767009,0 -1.341797,0.21411 -1.722656,0.64258 -0.38086,0.42846 -0.570313,1.15739 -0.570313,2.18359 l 0,0.53125 -1.484375,0.13477 -0.03906,0.68945 1.523437,0 0,7.5625 1.316406,0 0,-7.5625 1.992188,0 0,-0.83203 -1.992188,0 0,-0.60352 c 0,-0.39144 0.02466,-0.70532 0.07227,-0.94336 0.04761,-0.24332 0.127197,-0.42464 0.238281,-0.54101 0.116374,-0.12169 0.240804,-0.20128 0.373047,-0.23828 0.132243,-0.037 0.309082,-0.0547 0.53125,-0.0547 0.275065,0 0.544108,0.0272 0.808594,0.0801 l 0.0957,-0.91407 c -0.470785,-0.0899 -0.851644,-0.13476 -1.142578,-0.13476 z m 3.451172,0.16016 c -0.253907,0 -0.462973,0.0796 -0.626953,0.23828 -0.158692,0.1534 -0.238282,0.35295 -0.238282,0.60156 0,0.24862 0.07959,0.45264 0.238282,0.61133 0.16398,0.15869 0.373046,0.23828 0.626953,0.23828 0.248616,0 0.455159,-0.0796 0.61914,-0.23828 0.163982,-0.15869 0.246094,-0.36271 0.246094,-0.61133 0,-0.24861 -0.08211,-0.44816 -0.246094,-0.60156 -0.158691,-0.15869 -0.365234,-0.23828 -0.61914,-0.23828 z m -19.455078,0.94336 c 0.878092,0 1.624674,0.21411 2.238281,0.64257 0.618897,0.42847 1.072347,1.0083 1.363281,1.73828 0.290935,0.7247 0.4375,1.57105 0.4375,2.53907 0,0.69824 -0.08211,1.33553 -0.246094,1.91211 -0.163981,0.57128 -0.410319,1.07153 -0.738281,1.5 -0.322673,0.42846 -0.74585,0.76196 -1.269531,1 -0.523682,0.23803 -1.123698,0.35547 -1.800781,0.35547 -0.899252,0 -1.658447,-0.20907 -2.277344,-0.62696 -0.618896,-0.41788 -1.071777,-0.97811 -1.357422,-1.68164 -0.285645,-0.70353 -0.427734,-1.5227 -0.427734,-2.45898 0,-0.96802 0.147135,-1.8169 0.443359,-2.54688 0.301514,-0.73527 0.761963,-1.31511 1.380859,-1.73828 0.624187,-0.42318 1.375815,-0.63476 2.253907,-0.63476 z m 26.041015,2.07031 c -1.169026,0 -2.117675,0.39542 -2.847656,1.18359 -0.72998,0.78288 -1.095703,1.85848 -1.095703,3.22852 0,1.31185 0.353679,2.3597 1.0625,3.14258 0.714111,0.78287 1.672282,1.17382 2.873047,1.17382 0.513102,0 0.973551,-0.06 1.380859,-0.18164 0.407308,-0.12166 0.70101,-0.25366 0.88086,-0.39648 l -0.246094,-0.89649 c -0.534261,0.30681 -1.124186,0.45899 -1.769532,0.45899 -0.9257,0 -1.629964,-0.30379 -2.111328,-0.91211 -0.481364,-0.60832 -0.720703,-1.40479 -0.720703,-2.38867 0,-1.03678 0.251383,-1.86101 0.753907,-2.47461 0.502522,-0.61361 1.167562,-0.92188 1.998046,-0.92188 0.655925,0 1.240805,0.15414 1.753907,0.46094 l 0.373047,-0.9043 c -0.179851,-0.12166 -0.471029,-0.24609 -0.873047,-0.37304 -0.396729,-0.13225 -0.867269,-0.19922 -1.41211,-0.19922 z m 7.085938,0 c -1.11084,0 -2.026693,0.40047 -2.746094,1.19922 C 71.358724,145.05265 71,146.12321 71,147.4668 c 0,1.32772 0.366292,2.38061 1.101562,3.1582 0.73527,0.7723 1.693441,1.1582 2.873047,1.1582 1.057943,0 2.001546,-0.24634 2.832032,-0.73828 l -0.277344,-0.92773 c -0.444336,0.22216 -0.845378,0.38891 -1.205078,0.5 -0.359701,0.11108 -0.760173,0.16601 -1.199219,0.16601 -0.809326,0 -1.464274,-0.25642 -1.966797,-0.76953 -0.502521,-0.51839 -0.776039,-1.31234 -0.818359,-2.38086 l 5.673828,0 0.04687,-0.66601 c 0,-1.22722 -0.276611,-2.18343 -0.832031,-2.8711 -0.55013,-0.69295 -1.351644,-1.04101 -2.404297,-1.04101 z m -14.330078,0.17578 0,8.39453 1.300781,0 0,-8.39453 -1.300781,0 z m 14.361328,0.83203 c 1.333004,0 2.032223,0.90576 2.095703,2.71484 l -4.570313,0 c 0.07406,-0.83578 0.333008,-1.49772 0.777344,-1.98437 0.449625,-0.48665 1.014892,-0.73047 1.697266,-0.73047 z m 21.439453,34.37695 c -0.767009,0 -1.341797,0.21411 -1.722656,0.64258 -0.38086,0.42847 -0.570313,1.15544 -0.570313,2.18164 l 0,0.53321 -1.484375,0.13476 -0.03906,0.68945 1.523437,0 0,7.5625 1.316406,0 0,-7.5625 1.992188,0 0,-0.83203 -1.992188,0 0,-0.60351 c 0,-0.39144 0.02466,-0.70728 0.07227,-0.94532 0.04761,-0.24332 0.127197,-0.42268 0.238281,-0.53906 0.116374,-0.12169 0.240804,-0.20128 0.373047,-0.23828 0.132243,-0.037 0.309082,-0.0547 0.53125,-0.0547 0.275065,0 0.544108,0.0253 0.808594,0.0781 l 0.0957,-0.91211 c -0.470785,-0.0899 -0.851644,-0.13477 -1.142578,-0.13477 z m 5.554688,0 c -0.76701,0 -1.3418,0.21411 -1.72266,0.64258 -0.380862,0.42847 -0.570309,1.15544 -0.570309,2.18164 l 0,0.53321 -1.484375,0.13476 -0.03906,0.68945 1.523438,0 0,7.5625 1.316406,0 0,-7.5625 1.99218,0 0,-0.83203 -1.99218,0 0,-0.60351 c 0,-0.39144 0.0247,-0.70728 0.0723,-0.94532 0.0476,-0.24332 0.12525,-0.42268 0.23633,-0.53906 0.11637,-0.12169 0.2408,-0.20128 0.37305,-0.23828 0.13224,-0.037 0.31103,-0.0547 0.5332,-0.0547 0.27507,0 0.54411,0.0253 0.80859,0.0781 l 0.0957,-0.91211 c -0.47078,-0.0899 -0.85165,-0.13477 -1.14258,-0.13477 z m -64.333985,0.0645 -1.300781,0.0937 0,11.58593 1.300781,0 0,-3.07226 0.904297,-0.85547 3.332031,3.92773 1.548828,0 -3.96875,-4.5625 3.666016,-3.83203 -1.59375,0 -3.935547,4.25977 0.04687,-1.73047 0,-5.81445 z m 13.814453,0 -1.318359,0.0937 0,2.61132 0.06445,1.91211 c -0.126953,-0.23274 -0.261474,-0.43171 -0.404297,-0.5957 -0.137532,-0.16927 -0.306803,-0.32397 -0.507813,-0.4668 -0.201009,-0.1481 -0.442301,-0.25992 -0.722656,-0.33398 -0.280354,-0.074 -0.596761,-0.11133 -0.951172,-0.11133 -1.11084,0 -1.991943,0.39795 -2.642578,1.19141 -0.645345,0.79346 -0.96875,1.83179 -0.96875,3.11719 0,1.35416 0.311361,2.43172 0.935547,3.23046 0.629476,0.79346 1.525147,1.18946 2.683594,1.18946 1.200765,0 2.072347,-0.54761 2.617187,-1.64258 l 0.119141,1.48437 1.095703,0 0,-11.67968 z m 29.015625,0.98242 -1.054687,0.0801 -0.214844,2.22265 -1.292969,0.0859 -0.03125,0.74609 1.292969,0 0,5.04688 c 0,0.5131 0.04484,0.92871 0.134766,1.24609 0.08993,0.31739 0.251627,0.57886 0.484374,0.78516 0.238038,0.20629 0.544353,0.34839 0.919922,0.42773 0.37557,0.0794 0.868246,0.11914 1.476563,0.11914 l 0.546875,0 0.06445,-0.90429 -0.667969,-0.0312 c -0.703531,-0.0265 -1.154459,-0.13827 -1.355468,-0.33399 -0.20101,-0.201 -0.302735,-0.6368 -0.302735,-1.30859 l 0,-5.04688 2.222656,0 0,-0.83203 -2.222656,0 0,-2.30273 z m -23.486328,2.12695 c -1.11084,0 -2.02474,0.40047 -2.744141,1.19922 -0.719401,0.79875 -1.080078,1.8693 -1.080078,3.21289 0,1.32772 0.368246,2.38062 1.103516,3.1582 0.735271,0.7723 1.693441,1.15821 2.873047,1.15821 1.057942,0 2.001546,-0.24634 2.832031,-0.73828 l -0.277344,-0.92774 c -0.444336,0.22217 -0.84733,0.38892 -1.207031,0.5 -0.359701,0.11109 -0.75822,0.16602 -1.197266,0.16602 -0.809326,0 -1.466226,-0.25643 -1.96875,-0.76953 -0.50252,-0.5184 -0.774086,-1.31234 -0.816406,-2.38086 l 5.671875,0 0.04883,-0.66602 c 0,-1.22721 -0.278564,-2.18539 -0.833984,-2.87305 -0.55013,-0.69295 -1.351644,-1.03906 -2.404297,-1.03906 z m 17.154297,0 c -0.878093,0 -1.560222,0.21159 -2.046875,0.63477 -0.486654,0.41789 -0.728516,0.96801 -0.728516,1.65039 0,0.55012 0.139567,1.00049 0.419922,1.34961 0.280355,0.34383 0.798258,0.63753 1.554688,0.88086 l 0.919921,0.29297 c 0.608317,0.19572 1.028972,0.40478 1.261719,0.62695 0.232748,0.22216 0.34961,0.49625 0.34961,0.82422 0,0.47607 -0.139568,0.84179 -0.419922,1.0957 -0.280355,0.24861 -0.675781,0.37305 -1.183594,0.37305 -0.809326,0 -1.715658,-0.24129 -2.720703,-0.72266 l 0,1.10352 c 0.867513,0.4126 1.743571,0.61914 2.626953,0.61914 0.396729,0 0.760498,-0.0474 1.09375,-0.14258 0.338542,-0.0952 0.639812,-0.23926 0.904297,-0.42969 0.269775,-0.19043 0.481364,-0.44434 0.634766,-0.76172 0.153401,-0.32267 0.230468,-0.69149 0.230468,-1.10937 0,-0.33854 -0.03028,-0.62468 -0.09375,-0.85742 -0.06348,-0.23804 -0.180338,-0.45972 -0.349609,-0.66602 -0.169271,-0.2063 -0.405518,-0.38762 -0.707031,-0.54102 -0.296224,-0.15869 -0.679606,-0.31087 -1.150391,-0.45898 l -0.832031,-0.26172 c -0.544841,-0.17456 -0.902995,-0.33879 -1.072266,-0.49219 -0.169271,-0.1534 -0.253906,-0.40226 -0.253906,-0.74609 0,-0.40731 0.129476,-0.71615 0.388672,-0.92773 0.264485,-0.21688 0.702229,-0.32618 1.310547,-0.32618 0.682372,0 1.387206,0.18441 2.117187,0.55469 l 0.310547,-0.97461 c -0.793457,-0.39144 -1.649332,-0.58789 -2.564453,-0.58789 z m 10.300781,0.17578 0,5.125 c 0,1.13729 0.246907,1.99374 0.744141,2.57032 0.502522,0.57129 1.241536,0.85742 2.214844,0.85742 0.687662,0 1.230224,-0.10425 1.626953,-0.31055 0.402018,-0.21159 0.738037,-0.52799 1.007812,-0.95117 l 0.134766,1.10351 1.142578,0 0,-8.39453 -1.318359,0 0,4.71289 c 0,0.33326 -0.02271,0.63705 -0.07031,0.91211 -0.04761,0.27507 -0.12972,0.53402 -0.246094,0.77735 -0.116374,0.24332 -0.267985,0.44734 -0.453125,0.61132 -0.17985,0.16398 -0.411621,0.29346 -0.697265,0.38868 -0.280355,0.0952 -0.60376,0.14257 -0.96875,0.14257 -0.645346,0 -1.108318,-0.19392 -1.388672,-0.58007 -0.275066,-0.38615 -0.41211,-0.95142 -0.41211,-1.69727 l 0,-5.26758 -1.316406,0 z m -36.634765,0.83203 c 0.782877,0 1.372803,0.29118 1.769531,0.87305 0.402018,0.58187 0.603515,1.44083 0.603515,2.57813 -0.0053,1.04207 -0.199218,1.8461 -0.580078,2.41211 -0.380859,0.566 -1.003011,0.8496 -1.865234,0.8496 -0.819905,0 -1.424968,-0.30126 -1.816406,-0.90429 -0.38615,-0.60303 -0.578125,-1.43172 -0.578125,-2.48438 0,-1.05794 0.20459,-1.87459 0.617187,-2.45117 0.412598,-0.58187 1.029704,-0.87305 1.84961,-0.87305 z m 9.21289,0 c 1.333005,0 2.03027,0.90381 2.09375,2.71289 l -4.570312,0 c 0.07406,-0.83577 0.333007,-1.49576 0.777343,-1.98242 0.449626,-0.48665 1.016846,-0.73047 1.699219,-0.73047 z m 6.076172,1.89649 0,1.07031 5.308594,0 0,-1.07031 -5.308594,0 z m 11.728516,32.48047 -1.300782,0.0957 0,9.17969 c 0,0.50253 0.05746,0.92064 0.173828,1.2539 0.116374,0.32794 0.295736,0.57931 0.539063,0.75391 0.243327,0.17453 0.519369,0.29643 0.826172,0.36523 0.312093,0.0633 0.697998,0.0937 1.158203,0.0937 l 0,0.002 0.626953,0 0.07031,-0.9043 -0.355469,-0.0254 c -0.227457,-0.016 -0.40625,-0.0284 -0.533203,-0.0391 -0.126954,-0.0153 -0.263998,-0.0358 -0.41211,-0.0625 -0.142822,-0.0314 -0.250162,-0.0687 -0.324218,-0.11133 -0.06877,-0.0476 -0.140788,-0.10698 -0.214844,-0.17578 -0.07405,-0.0687 -0.126463,-0.15592 -0.158203,-0.26172 -0.02645,-0.1058 -0.05111,-0.2277 -0.07227,-0.36523 -0.01587,-0.13754 -0.02344,-0.30427 -0.02344,-0.5 l 0,-9.29883 z m -38.482422,0.0957 0,11.58398 3.513672,0 c 1.856689,0 3.317626,-0.50529 4.380859,-1.51562 1.063232,-1.01033 1.59375,-2.44659 1.59375,-4.30859 0,-0.78287 -0.09725,-1.48968 -0.292969,-2.11914 -0.195719,-0.63481 -0.47233,-1.17541 -0.832031,-1.625 -0.359701,-0.4496 -0.797445,-0.82542 -1.310547,-1.12696 -0.513102,-0.3068 -1.083415,-0.53298 -1.71289,-0.67578 -0.629477,-0.14288 -1.314128,-0.2129 -2.054688,-0.2129 l -3.285156,0 z m 93.261716,0.88867 -1.05468,0.0781 -0.21485,2.22265 -1.29297,0.0879 -0.0312,0.74414 1.29297,0 0,5.04688 c 0,0.51313 0.0448,0.92869 0.13477,1.24609 0.0899,0.31734 0.25163,0.57883 0.48437,0.78516 0.23804,0.20627 0.54435,0.35029 0.91992,0.42969 0.37557,0.0793 0.86825,0.11718 1.47657,0.11718 l 0,0.002 0.54687,0 0.0644,-0.9043 -0.66796,-0.0332 c -0.70354,-0.0265 -1.15446,-0.1363 -1.35547,-0.33203 -0.20101,-0.201 -0.30274,-0.63875 -0.30274,-1.31055 l 0,-5.04492 2.22266,0 0,-0.83399 -2.22266,0 0,-2.30078 z m -91.865232,0.1582 1.824219,0 c 1.592203,0 2.801758,0.3834 3.626953,1.1504 0.830485,0.76173 1.244141,1.96176 1.244141,3.60156 0,1.5446 -0.39095,2.71944 -1.173829,3.52344 -0.777587,0.7988 -1.937825,1.19921 -3.482421,1.19921 l -2.039063,0 0,-9.47461 z m 13.535156,1.9668 c -1.110839,0 -2.024739,0.40049 -2.74414,1.19922 -0.719401,0.79873 -1.080078,1.86929 -1.080078,3.21289 0,1.32773 0.368245,2.38067 1.103515,3.1582 0.73527,0.77234 1.693441,1.15821 2.873047,1.15821 1.057943,0 2.001546,-0.24635 2.832031,-0.73828 l -0.277343,-0.92774 c -0.444336,0.2222 -0.847331,0.38894 -1.207032,0.5 -0.3597,0.11107 -0.758219,0.16602 -1.197265,0.16602 -0.809326,0 -1.466228,-0.25647 -1.96875,-0.76953 -0.502521,-0.5184 -0.774087,-1.31038 -0.816407,-2.37891 l 5.671876,0 0.04883,-0.66797 c 0,-1.2272 -0.278565,-2.18343 -0.833985,-2.87109 -0.55013,-0.69294 -1.351643,-1.04102 -2.404297,-1.04102 z m 17.044922,0 c -1.110839,0 -2.026692,0.40049 -2.746094,1.19922 -0.7194,0.79873 -1.080078,1.86929 -1.080078,3.21289 0,1.32773 0.368246,2.38067 1.103516,3.1582 0.73527,0.77234 1.693441,1.15821 2.873047,1.15821 1.057943,0 2.001546,-0.24635 2.832031,-0.73828 l -0.277344,-0.92774 c -0.444336,0.2222 -0.84733,0.38894 -1.207031,0.5 -0.3597,0.11107 -0.758219,0.16602 -1.197265,0.16602 -0.809326,0 -1.466228,-0.25647 -1.96875,-0.76953 -0.502521,-0.5184 -0.774087,-1.31038 -0.816407,-2.37891 l 5.673828,0 0.04687,-0.66797 c 0,-1.2272 -0.276611,-2.18343 -0.832031,-2.87109 -0.55013,-0.69294 -1.351643,-1.04102 -2.404297,-1.04102 z m 13.646485,0 c -1.232503,0 -2.200765,0.40303 -2.904297,1.20703 -0.698243,0.79874 -1.046875,1.8567 -1.046875,3.17383 0,1.2854 0.353678,2.33325 1.0625,3.14258 0.708821,0.80407 1.672038,1.20508 2.888672,1.20508 1.190186,0 2.148356,-0.40356 2.873047,-1.21289 0.72469,-0.8146 1.085937,-1.8599 1.085937,-3.13477 0,-1.31713 -0.348633,-2.37509 -1.046875,-3.17383 -0.698243,-0.804 -1.669027,-1.20703 -2.912109,-1.20703 z m 9.640625,0 c -1.211344,0 -2.127197,0.54765 -2.746094,1.64258 l -0.134766,-1.4668 -1.09375,0 0,12.07618 1.316406,0 0,-3.15821 -0.05469,-1.94336 c 0.624187,1.05267 1.520426,1.57813 2.689453,1.57813 1.10026,0 1.956706,-0.39599 2.570313,-1.18946 0.613607,-0.79346 0.919921,-1.84131 0.919921,-3.14257 0,-1.35414 -0.296223,-2.42469 -0.888671,-3.21289 -0.587159,-0.78814 -1.446127,-1.1836 -2.578125,-1.1836 z m 8.998044,0 c -1.073812,0 -1.9353,0.47253 -2.585935,1.41406 l -0.152344,-1.23828 -1.0625,0 0,8.39453 1.316407,0 0,-5.11718 c 0.111083,-0.73527 0.354899,-1.3252 0.730468,-1.76953 0.38086,-0.44967 0.893719,-0.67579 1.539064,-0.67579 0.58716,0 0.99015,0.22109 1.20703,0.66016 0.21687,0.4338 0.32422,1.16325 0.32422,2.18945 l 0,4.71289 1.31836,0 0,-4.30859 c 0.0159,-0.72993 0.0436,-1.16573 0.0859,-1.30859 0.14282,-0.62947 0.41382,-1.11205 0.81054,-1.44532 0.39673,-0.33326 0.84766,-0.5 1.35547,-0.5 0.22746,0 0.42644,0.0347 0.5957,0.10352 0.17457,0.0635 0.31161,0.1652 0.41211,0.30273 0.10581,0.13754 0.19044,0.27713 0.25391,0.41993 0.0635,0.13753 0.1083,0.3194 0.13477,0.54687 0.0264,0.22747 0.0435,0.42135 0.0488,0.58008 0.0106,0.1534 0.0156,0.35746 0.0156,0.61133 l 0,4.99804 1.3164,0 0,-5.41211 c 1e-5,-2.10526 -0.85644,-3.1582 -2.57031,-3.1582 -1.21663,0 -2.14006,0.56977 -2.76953,1.70703 -0.19572,-0.53426 -0.47233,-0.95237 -0.83203,-1.2539 -0.35971,-0.30147 -0.85743,-0.45313 -1.49219,-0.45313 z m 13.16406,0 c -1.11084,0 -2.02669,0.40049 -2.74609,1.19922 -0.7194,0.79873 -1.08008,1.86929 -1.08008,3.21289 0,1.32773 0.36825,2.38067 1.10352,3.1582 0.73527,0.77234 1.69344,1.15821 2.87305,1.15821 1.05794,0 2.00154,-0.24635 2.83203,-0.73828 l -0.27735,-0.92774 c -0.44434,0.2222 -0.84733,0.38894 -1.20703,0.5 -0.3597,0.11107 -0.75822,0.16602 -1.19726,0.16602 -0.80933,0 -1.46623,-0.25647 -1.96875,-0.76953 -0.50251,-0.5184 -0.77408,-1.31038 -0.81641,-2.37891 l 5.67383,0 0.0469,-0.66797 c 0,-1.2272 -0.27661,-2.18343 -0.83203,-2.87109 -0.55012,-0.69294 -1.35164,-1.04102 -2.4043,-1.04102 z m 9.16407,0 c -1.26425,0 -2.21485,0.44532 -2.84961,1.33399 l -0.14258,-1.15821 -1.14258,0 0,8.39453 1.31836,0 0,-4.68164 c 0,-1.9202 0.86149,-2.88086 2.58594,-2.88086 0.64006,0 1.08789,0.19388 1.3418,0.58008 0.2539,0.38087 0.38086,0.94868 0.38086,1.70508 l 0,5.27734 1.3164,0 0,-5.13476 c 0,-1.15313 -0.23121,-2.01213 -0.6914,-2.57813 -0.45493,-0.57126 -1.15976,-0.85742 -2.11719,-0.85742 z m -67.261721,0.17578 3.246093,8.39453 1.324219,0 3.181641,-8.39453 -1.341797,0 c -0.275065,0.77234 -0.691243,1.92753 -1.251953,3.4668 -0.55542,1.53933 -0.971029,2.69453 -1.246094,3.4668 -0.343831,-0.9098 -0.841552,-2.24687 -1.492187,-4.01368 -0.645345,-1.76673 -1.001546,-2.74005 -1.070313,-2.91992 l -1.349609,0 z m -4.363281,0.83203 c 1.33301,0 2.030276,0.90571 2.09375,2.71485 l -4.570313,0 c 0.07406,-0.8358 0.333008,-1.49771 0.777344,-1.98438 0.449625,-0.48666 1.016845,-0.73047 1.699219,-0.73047 z m 17.042968,0 c 1.333011,0 2.030277,0.90571 2.09375,2.71485 l -4.570312,0 c 0.07406,-0.8358 0.333008,-1.49771 0.777344,-1.98438 0.449625,-0.48666 1.016845,-0.73047 1.699218,-0.73047 z m 13.615235,0 c 0.862223,0 1.512125,0.31076 1.951171,0.92969 0.439047,0.6136 0.660157,1.43279 0.660157,2.45899 0,0.65593 -0.08968,1.23072 -0.269531,1.72265 -0.179851,0.48667 -0.471029,0.87763 -0.873047,1.17383 -0.396729,0.29093 -0.886882,0.43555 -1.46875,0.43555 -0.846354,0 -1.491211,-0.30632 -1.935547,-0.91992 -0.444336,-0.6136 -0.666016,-1.42019 -0.666016,-2.41993 0,-1.02093 0.22168,-1.83757 0.666016,-2.45117 0.444336,-0.61893 1.089193,-0.92969 1.935547,-0.92969 z m 9.490234,0 c 1.512858,0 2.269531,1.12492 2.269531,3.37305 0,2.227 -0.783854,3.33984 -2.349609,3.33984 -0.793457,0 -1.406088,-0.30377 -1.839844,-0.9121 -0.428467,-0.60834 -0.642578,-1.4623 -0.642578,-2.5625 0.0053,-1.01567 0.216878,-1.8096 0.634766,-2.38086 0.417887,-0.57134 1.060221,-0.85743 1.927734,-0.85743 z m 22.343755,0 c 1.33301,0 2.03028,0.90571 2.09374,2.71485 l -4.57031,0 c 0.0741,-0.8358 0.33301,-1.49771 0.77735,-1.98438 0.44962,-0.48666 1.01684,-0.73047 1.69922,-0.73047 z"
     class="ColorScheme-Text" />
</svg>
