<?xml version="1.0" encoding="UTF-8" standalone="no"?>
<svg
   xmlns:dc="http://purl.org/dc/elements/1.1/"
   xmlns:cc="http://creativecommons.org/ns#"
   xmlns:rdf="http://www.w3.org/1999/02/22-rdf-syntax-ns#"
   xmlns:svg="http://www.w3.org/2000/svg"
   xmlns="http://www.w3.org/2000/svg"
   xmlns:xlink="http://www.w3.org/1999/xlink"
   xmlns:sodipodi="http://sodipodi.sourceforge.net/DTD/sodipodi-0.dtd"
   xmlns:inkscape="http://www.inkscape.org/namespaces/inkscape"
   viewBox="0 0 256 256"
   id="svg2"
   version="1.1"
   inkscape:version="0.91 r13725"
   sodipodi:docname="org.kde.plasma.devicenotifier.svg">
  <metadata
     id="metadata10">
    <rdf:RDF>
      <cc:Work
         rdf:about="">
        <dc:format>image/svg+xml</dc:format>
        <dc:type
           rdf:resource="http://purl.org/dc/dcmitype/StillImage" />
        <dc:title />
      </cc:Work>
    </rdf:RDF>
  </metadata>
  <sodipodi:namedview
     pagecolor="#ffffff"
     bordercolor="#666666"
     borderopacity="1"
     objecttolerance="10"
     gridtolerance="10"
     guidetolerance="10"
     inkscape:pageopacity="0"
     inkscape:pageshadow="2"
     inkscape:window-width="1920"
     inkscape:window-height="1046"
     id="namedview8"
     showgrid="false"
     inkscape:zoom="2.6074563"
     inkscape:cx="91.195402"
     inkscape:cy="84.819665"
     inkscape:window-x="0"
     inkscape:window-y="34"
     inkscape:window-maximized="1"
     inkscape:current-layer="svg2" />
  <defs
     id="defs4">
    <style
       id="current-color-scheme"
       type="text/css">
      .ColorScheme-Text {
        color:#f2f2f2;
      }
      .ColorScheme-Background {
        color:#31363b;
      }
      .ColorScheme-Highlight {
        color:#3daee9;
      }
      .ColorScheme-ViewText {
        color:#31363b;
      }
      .ColorScheme-ViewBackground {
        color:#314045;
      }
      .ColorScheme-ViewHover {
        color:#93cee9;
      }
      .ColorScheme-ViewFocus{
        color:#3daee9;
      }
      .ColorScheme-ButtonText {
        color:#31363b;
      }
      .ColorScheme-ButtonBackground {
        color:#31363b;
      }
      .ColorScheme-ButtonHover {
        color:#93cee9;
      }
      .ColorScheme-ButtonFocus{
        color:#3daee9;
      }
      </style>
    <linearGradient
       inkscape:collect="always"
       xlink:href="#linearGradient4159"
       id="linearGradient4158-8"
       x1="409.57144"
       y1="543.79797"
       x2="409.57144"
       y2="503.798"
       gradientUnits="userSpaceOnUse"
       gradientTransform="matrix(1.0271756,0,0,1,-394.97889,-499.79799)" />
    <linearGradient
       inkscape:collect="always"
       id="linearGradient4159">
      <stop
         style="stop-color:#2a2c2f;stop-opacity:1"
         offset="0"
         id="stop4161" />
      <stop
         style="stop-color:#424649;stop-opacity:1"
         offset="1"
         id="stop4163" />
    </linearGradient>
    <linearGradient
       gradientUnits="userSpaceOnUse"
       y2="511.798"
       x2="409.57144"
       y1="543.79797"
       x1="409.57144"
       id="linearGradient4415"
       xlink:href="#linearGradient4187"
       inkscape:collect="always" />
    <linearGradient
       id="linearGradient4187"
       inkscape:collect="always">
      <stop
         id="stop4189"
         offset="0"
         style="stop-color:#1f2021;stop-opacity:1" />
      <stop
         id="stop4191"
         offset="1"
         style="stop-color:#272b2d;stop-opacity:1" />
    </linearGradient>
    <linearGradient
       gradientUnits="userSpaceOnUse"
       y2="56.000023"
       x2="47.999985"
       y1="32.000023"
       x1="23.999987"
       id="linearGradient4521"
       xlink:href="#linearGradient4227-6-3"
       inkscape:collect="always" />
    <linearGradient
       inkscape:collect="always"
       id="linearGradient4227-6-3">
      <stop
         style="stop-color:#292c2f;stop-opacity:1"
         offset="0"
         id="stop4229-7-5" />
      <stop
         style="stop-color:#000000;stop-opacity:0;"
         offset="1"
         id="stop4231-53-6" />
    </linearGradient>
    <linearGradient
       gradientUnits="userSpaceOnUse"
       y2="503.798"
       x2="408.57144"
       y1="520.34692"
       x1="408.57144"
       id="linearGradient4183"
       xlink:href="#linearGradient4435"
       inkscape:collect="always" />
    <linearGradient
       inkscape:collect="always"
       id="linearGradient4435">
      <stop
         style="stop-color:#c61423;stop-opacity:1"
         offset="0"
         id="stop4437" />
      <stop
         style="stop-color:#dc2b41;stop-opacity:1"
         offset="1"
         id="stop4439" />
    </linearGradient>
    <linearGradient
       inkscape:collect="always"
       xlink:href="#linearGradient4300-7"
       id="linearGradient3834"
       gradientUnits="userSpaceOnUse"
       gradientTransform="matrix(1.5292812,0,0,1.529412,-592.82053,-769.10295)"
       x1="409.57144"
       y1="540.79797"
       x2="409.57144"
       y2="506.798" />
    <linearGradient
       inkscape:collect="always"
       id="linearGradient4300-7">
      <stop
         style="stop-color:#6c7a89;stop-opacity:1"
         offset="0"
         id="stop4302-2" />
      <stop
         style="stop-color:#768492;stop-opacity:1"
         offset="1"
         id="stop4304-4" />
    </linearGradient>
    <linearGradient
       inkscape:collect="always"
       xlink:href="#linearGradient4227-6-3"
       id="linearGradient4372"
       x1="408.5715"
       y1="523.79797"
       x2="422.57147"
       y2="537.79797"
       gradientUnits="userSpaceOnUse"
       gradientTransform="matrix(1.2998888,0,0,1.3,-499.09733,-648.93736)" />
    <linearGradient
       inkscape:collect="always"
       xlink:href="#linearGradient4351-8"
       id="linearGradient3862"
       gradientUnits="userSpaceOnUse"
       gradientTransform="matrix(0.52941243,0,0,0.52941244,-184.30279,-245.30519)"
       x1="409.57144"
       y1="540.79797"
       x2="409.57144"
       y2="506.798" />
    <linearGradient
       inkscape:collect="always"
       id="linearGradient4351-8">
      <stop
         style="stop-color:#dedede;stop-opacity:1"
         offset="0"
         id="stop4353-5" />
      <stop
         style="stop-color:#ececec;stop-opacity:1"
         offset="1"
         id="stop4355-8" />
    </linearGradient>
    <linearGradient
       y2="528.79791"
       x2="416.96021"
       y1="551.79791"
       x1="416.96021"
       gradientTransform="matrix(0.63587062,0,0,1,144.25118,-30.99993)"
       gradientUnits="userSpaceOnUse"
       id="linearGradient4319"
       xlink:href="#linearGradient4303-7-6"
       inkscape:collect="always" />
    <linearGradient
       inkscape:collect="always"
       id="linearGradient4303-7-6">
      <stop
         style="stop-color:#c6cdd1;stop-opacity:1"
         offset="0"
         id="stop4305-0-1" />
      <stop
         style="stop-color:#e0e5e7;stop-opacity:1"
         offset="1"
         id="stop4307-6-6" />
    </linearGradient>
    <linearGradient
       inkscape:collect="always"
       xlink:href="#linearGradient4143"
       id="linearGradient4158"
       x1="416.96021"
       y1="557.79803"
       x2="416.96021"
       y2="505.798"
       gradientUnits="userSpaceOnUse"
       gradientTransform="matrix(0.78261,0,0,1,83.254192,-8.0000193)" />
    <linearGradient
       id="linearGradient4143"
       inkscape:collect="always">
      <stop
         id="stop4145"
         offset="0"
         style="stop-color:#197cf1;stop-opacity:1" />
      <stop
         id="stop4147"
         offset="1"
         style="stop-color:#20bcfa;stop-opacity:1" />
    </linearGradient>
    <linearGradient
       gradientTransform="translate(10,22)"
       gradientUnits="userSpaceOnUse"
       y2="34.000023"
       x2="33.999985"
       y1="14.000023"
       x1="13.999987"
       id="linearGradient4231"
       xlink:href="#linearGradient4400"
       inkscape:collect="always" />
    <linearGradient
       id="linearGradient4400"
       inkscape:collect="always">
      <stop
         id="stop4402"
         offset="0"
         style="stop-color:#020303;stop-opacity:1" />
      <stop
         id="stop4404"
         offset="1"
         style="stop-color:#424649;stop-opacity:0" />
    </linearGradient>
    <linearGradient
       gradientUnits="userSpaceOnUse"
       y2="36.000023"
       x2="31.999987"
       y1="52.000023"
       x1="31.999987"
       id="linearGradient4301"
       xlink:href="#linearGradient4290"
       inkscape:collect="always" />
    <linearGradient
       inkscape:collect="always"
       id="linearGradient4290">
      <stop
         style="stop-color:#7cbaf8;stop-opacity:1"
         offset="0"
         id="stop4292" />
      <stop
         style="stop-color:#f4fcff;stop-opacity:1"
         offset="1"
         id="stop4294" />
    </linearGradient>
    <linearGradient
       gradientTransform="matrix(2,0,0,2,-396.57143,-537.79802)"
       gradientUnits="userSpaceOnUse"
       y2="521.79797"
       x2="400.57144"
       y1="521.79797"
       x1="398.57144"
       id="linearGradient4371"
       xlink:href="#linearGradient4143-8"
       inkscape:collect="always" />
    <linearGradient
       inkscape:collect="always"
       id="linearGradient4143-8">
      <stop
         style="stop-color:#faae2a;stop-opacity:1"
         offset="0"
         id="stop4145-7" />
      <stop
         style="stop-color:#ffc35a;stop-opacity:1"
         offset="1"
         id="stop4147-4" />
    </linearGradient>
    <linearGradient
       gradientTransform="matrix(2,0,0,2,-384.5714,-537.79802)"
       y2="521.79797"
       x2="400.57144"
       y1="521.79797"
       x1="398.57144"
       gradientUnits="userSpaceOnUse"
       id="linearGradient4375"
       xlink:href="#linearGradient4143-8"
       inkscape:collect="always" />
  </defs>
  <path
     style="fill:currentColor;fill-opacity:0.5;stroke:none"
     d="m 16,10 224,0 c 3.324,0 6,2.676 6,6 l 0,224 c 0,3.324 -2.676,6 -6,6 l -224,0 c -3.324,0 -6,-2.676 -6,-6 L 10,16 c 0,-3.324 2.676,-6 6,-6 z"
     class="ColorScheme-ButtonText"
     id="rect4240" />
  <path
     style="fill:currentColor;fill-opacity:1;stroke:none"
     d="m 16,12 224,0 c 2.216,0 4,1.784 4,4 l 0,224 c 0,2.216 -1.784,4 -4,4 l -224,0 c -2.216,0 -4,-1.784 -4,-4 L 12,16 c 0,-2.216 1.784,-4 4,-4 z"
     class="ColorScheme-Background"
     id="rect4238" />
  <path
     style="fill:currentColor;fill-opacity:1;stroke:none"
     class="ColorScheme-Text"
     d="m 25.712891,26.57617 c -0.497234,0 -0.960206,0.05746 -1.388672,0.173828 -0.428467,0.116373 -0.816895,0.293217 -1.166016,0.53125 -0.349121,0.232753 -0.623209,0.548586 -0.824219,0.945312 -0.201009,0.396727 -0.302734,0.850182 -0.302734,1.363282 0,0.745853 0.193929,1.333252 0.580078,1.761718 0.386149,0.423174 0.971029,0.783852 1.753906,1.080079 l 1.888672,0.720703 c 0.74056,0.28564 1.236329,0.569249 1.490235,0.849609 0.259196,0.27506 0.388671,0.690674 0.388671,1.246094 0,0.481367 -0.114908,0.88493 -0.347656,1.212891 -0.227458,0.322673 -0.523682,0.556398 -0.888672,0.699218 -0.36499,0.137534 -0.788167,0.207032 -1.269531,0.207032 -0.592448,0 -1.209554,-0.106773 -1.849609,-0.31836 -0.634766,-0.211587 -1.205079,-0.500241 -1.712891,-0.865234 l 0,1.253906 c 0.327962,0.29094 0.821208,0.537275 1.482422,0.738281 0.661214,0.201007 1.345865,0.300781 2.054687,0.300781 0.396729,0 0.772543,-0.03475 1.126954,-0.103515 0.3597,-0.06877 0.70581,-0.181157 1.039062,-0.339844 0.333252,-0.16398 0.619385,-0.368001 0.857422,-0.611328 0.238037,-0.243327 0.429444,-0.554687 0.572266,-0.935547 0.142822,-0.38086 0.21289,-0.811036 0.21289,-1.287109 0,-0.386154 -0.04736,-0.729737 -0.142578,-1.03125 -0.09521,-0.301514 -0.2146,-0.555419 -0.357422,-0.761719 -0.142822,-0.2063 -0.344889,-0.398278 -0.609375,-0.578125 -0.259196,-0.18514 -0.510579,-0.336752 -0.753906,-0.453125 -0.238037,-0.116373 -0.548828,-0.248371 -0.929687,-0.396484 L 24.792969,31.26367 c -0.55542,-0.21688 -0.941325,-0.453697 -1.158203,-0.712891 -0.211588,-0.264486 -0.31836,-0.6403 -0.31836,-1.126953 0,-0.396727 0.116862,-0.73022 0.34961,-1 0.232747,-0.269773 0.526448,-0.459226 0.880859,-0.570312 0.354411,-0.116374 0.759928,-0.175782 1.214844,-0.175782 0.491943,0 0.982666,0.0695 1.474609,0.207032 0.497233,0.137533 0.917888,0.32446 1.261719,0.5625 l 0.507812,-0.982422 C 28.550944,27.184488 28.033041,26.965898 27.451172,26.812498 26.874593,26.653805 26.294759,26.57617 25.712891,26.57617 Z m 76.871089,0.0625 -1.30078,0.0957 0,9.179687 c 0,0.502521 0.0575,0.920653 0.17383,1.253907 0.11637,0.32796 0.29574,0.579346 0.53906,0.753906 0.24333,0.17456 0.51938,0.296468 0.82618,0.365234 0.31209,0.06347 0.69799,0.0957 1.1582,0.0957 l 0.62695,0 0.0703,-0.90625 -0.35742,-0.02344 c -0.22746,-0.01587 -0.40429,-0.02846 -0.53125,-0.03906 -0.12695,-0.01587 -0.26399,-0.03799 -0.41211,-0.06445 -0.14282,-0.03172 -0.25212,-0.06704 -0.32617,-0.109375 -0.0688,-0.04761 -0.13883,-0.107014 -0.21289,-0.175781 -0.0741,-0.06877 -0.12842,-0.155925 -0.16016,-0.261719 -0.0265,-0.105793 -0.0492,-0.227701 -0.0703,-0.365234 -0.0159,-0.137533 -0.0234,-0.30428 -0.0234,-0.5 l 0,-9.298828 z m -21.376949,0.0957 4.277344,11.583984 1.222656,0 4.275391,-11.583984 -1.435547,0 c -0.163981,0.465493 -0.666748,1.909345 -1.507813,4.332031 -0.835774,2.4174 -1.480631,4.266762 -1.935546,5.546875 C 85.754394,35.645259 85.386149,34.612543 85,33.517576 84.619141,32.417316 84.195963,31.195147 83.730469,29.85156 83.264974,28.502681 82.90625,27.464353 82.652344,26.734373 l -1.445313,0 z m -48.130859,0.888672 -1.054688,0.07813 -0.214843,2.222656 -1.292969,0.08789 -0.03125,0.74414 1.292969,0 0,5.046875 c 0,0.513107 0.04484,0.928714 0.134765,1.246094 0.08993,0.31738 0.251628,0.578856 0.484375,0.785156 0.238038,0.2063 0.544353,0.350341 0.919922,0.429688 0.37557,0.07935 0.868246,0.11914 1.476563,0.11914 l 0.546875,0 0.06445,-0.90625 -0.667969,-0.03125 C 34.03084,37.418861 33.579912,37.309 33.378903,37.11328 33.177894,36.912267 33.076169,36.474527 33.076169,35.802733 l 0,-5.046875 2.222656,0 0,-0.832031 -2.222656,0 0,-2.300781 z m 7.490234,2.126956 c -1.232503,0 -2.200765,0.401045 -2.904297,1.205078 -0.698242,0.798747 -1.046875,1.856688 -1.046875,3.173828 0,1.2854 0.355632,2.333252 1.064454,3.142578 0.708821,0.804034 1.670084,1.205078 2.886718,1.205078 1.190186,0 2.148356,-0.403563 2.873047,-1.21289 0.724691,-0.814613 1.085938,-1.859946 1.085938,-3.134766 0,-1.31714 -0.348633,-2.375081 -1.046875,-3.173828 -0.698242,-0.804033 -1.669027,-1.205078 -2.91211,-1.205078 z m 14.552735,0 c -1.121419,0 -2.131999,0.207113 -3.03125,0.625 l 0.357421,0.96875 c 0.38615,-0.18514 0.824463,-0.327234 1.316407,-0.427734 0.491943,-0.105794 0.952392,-0.160157 1.380859,-0.160157 0.634766,0 1.097738,0.151612 1.388672,0.453125 0.296224,0.301514 0.445312,0.759441 0.445312,1.373047 l 0,0.824219 -1.341796,0 c -1.348878,0 -2.332276,0.214111 -2.951172,0.642578 -0.613607,0.42318 -0.921875,1.090173 -0.921875,2 0,0.76172 0.233724,1.35669 0.699219,1.785156 0.470784,0.428467 1.092936,0.642578 1.865234,0.642578 1.153158,0 2.089193,-0.440838 2.808594,-1.324218 l 0.142578,1.158203 1,0 0,-5.539063 c 0,-1.068526 -0.276042,-1.837813 -0.826172,-2.308593 -0.544841,-0.476074 -1.321696,-0.712891 -2.332031,-0.712891 z m 8.648437,0 c -0.624186,0 -1.176839,0.11491 -1.658203,0.347656 -0.481364,0.227454 -0.867269,0.545812 -1.158203,0.953125 -0.290935,0.407307 -0.510091,0.870279 -0.658203,1.388672 -0.148112,0.5131 -0.222657,1.070802 -0.222657,1.673828 10e-7,0.528974 0.07202,1.031739 0.214844,1.507813 0.148112,0.476073 0.362224,0.909341 0.642578,1.300781 0.280355,0.39144 0.656169,0.7028 1.126954,0.935547 0.476073,0.232747 1.011636,0.349609 1.609374,0.349609 0.618896,0 1.148844,-0.124427 1.587891,-0.373047 0.444336,-0.248613 0.787923,-0.589677 1.03125,-1.023437 l 0.02344,0.984375 0,0.230469 c 0,1.052653 -0.216634,1.81185 -0.650391,2.277343 -0.428469,0.4655 -1.092938,0.697266 -1.99219,0.697266 -0.661214,0 -1.475342,-0.114337 -2.443359,-0.341797 l -0.103515,1.111328 c 0.952147,0.21688 1.801024,0.326172 2.546874,0.326172 1.370036,0 2.353434,-0.375813 2.951172,-1.126953 0.603028,-0.745853 0.90625,-1.85116 0.90625,-3.316406 l 0,-7.728516 -1.199218,0 -0.07813,1.205078 c -0.502518,-0.920406 -1.32869,-1.378906 -2.476558,-1.378906 z m 9.267578,0 c -1.11084,0 -2.026693,0.398519 -2.746094,1.197266 -0.719401,0.798746 -1.078124,1.869304 -1.078124,3.21289 -10e-7,1.327714 0.368244,2.38061 1.103515,3.158203 0.73527,0.772294 1.691488,1.158203 2.871094,1.158203 1.057943,0 2.001546,-0.246341 2.832031,-0.738281 l -0.277344,-0.927734 c -0.444336,0.222173 -0.845377,0.38892 -1.205078,0.5 -0.3597,0.111087 -0.760173,0.166015 -1.199218,0.166015 -0.809327,0 -1.464274,-0.256424 -1.966797,-0.769531 -0.50252,-0.518386 -0.77604,-1.310379 -0.81836,-2.378906 l 5.673828,0 0.04883,-0.667969 c 0,-1.227213 -0.278565,-2.183427 -0.833985,-2.871094 -0.550131,-0.692946 -1.351644,-1.039062 -2.404298,-1.039062 z m 22.408203,0 c -1.232503,0 -2.200765,0.401045 -2.904297,1.205078 -0.698241,0.798747 -1.048828,1.856688 -1.048828,3.173828 0,1.2854 0.355632,2.333252 1.064454,3.142578 0.708822,0.804034 1.672037,1.205078 2.888671,1.205078 1.190186,0 2.146403,-0.403563 2.871094,-1.21289 0.724691,-0.814613 1.087891,-1.859946 1.087891,-3.134766 0,-1.31714 -0.350586,-2.375081 -1.048828,-3.173828 -0.698242,-0.804033 -1.667074,-1.205078 -2.910157,-1.205078 z m 23.429691,0 c -1.07382,0 -1.93531,0.470543 -2.58594,1.412109 l -0.15234,-1.238281 -1.0625,0 0,8.394531 1.3164,0 0,-5.117187 c 0.11108,-0.735267 0.3549,-1.325191 0.73047,-1.769531 0.38086,-0.44962 0.89372,-0.675782 1.53906,-0.675782 0.58716,0 0.99015,0.22111 1.20703,0.660157 0.21688,0.433753 0.32422,1.163246 0.32422,2.189453 l 0,4.71289 1.31836,0 0,-4.308593 c 0.0159,-0.72998 0.0436,-1.165774 0.0859,-1.308594 0.14282,-0.62948 0.41382,-1.112059 0.81055,-1.445313 0.39673,-0.333246 0.84961,-0.5 1.35742,-0.5 0.22746,0 0.42448,0.03475 0.59375,0.103516 0.17456,0.06347 0.31161,0.165201 0.41211,0.302734 0.1058,0.137534 0.19044,0.277102 0.2539,0.419922 0.0635,0.137534 0.11026,0.319415 0.13672,0.546875 0.0264,0.227454 0.0415,0.421385 0.0469,0.580078 0.0106,0.1534 0.0156,0.357422 0.0156,0.611328 l 0,4.998047 1.31641,0 0,-5.412109 c 0,-2.105307 -0.85645,-3.15625 -2.57031,-3.15625 -1.21664,0 -2.14006,0.567791 -2.76953,1.705078 -0.19572,-0.53426 -0.47234,-0.952393 -0.83204,-1.253906 -0.35966,-0.301513 -0.85738,-0.451172 -1.49214,-0.451172 z m 13.16406,0 c -1.11084,0 -2.02669,0.398519 -2.74609,1.197266 -0.7194,0.798746 -1.07813,1.869304 -1.07813,3.21289 0,1.327714 0.3663,2.38061 1.10156,3.158203 0.73528,0.772294 1.69344,1.158203 2.87305,1.158203 1.05794,0 2.00154,-0.246341 2.83203,-0.738281 l -0.27734,-0.927734 c -0.44434,0.222173 -0.84537,0.38892 -1.20508,0.5 -0.3597,0.111087 -0.76017,0.166015 -1.19922,0.166015 -0.80932,0 -1.46427,-0.256424 -1.9668,-0.769531 -0.5025,-0.518386 -0.77602,-1.310379 -0.81836,-2.378906 l 5.67383,0 0.0469,-0.667969 c 0,-1.227213 -0.27661,-2.183427 -0.83203,-2.871094 -0.55016,-0.692946 -1.35167,-1.039062 -2.40432,-1.039062 z m -81.949219,0.08594 c -0.507813,0 -0.990968,0.144047 -1.451172,0.429687 -0.454916,0.28036 -0.840821,0.721192 -1.158203,1.324219 l -0.142578,-1.666016 -1.056641,0 0,8.394531 1.318359,0 0,-4.751953 c 0,-0.745846 0.231771,-1.378091 0.697266,-1.896484 0.470785,-0.518393 1.065755,-0.777344 1.785156,-0.777344 0.148112,0 0.327474,0.02017 0.539063,0.0625 l 0.05664,-1.078125 c -0.153401,-0.02647 -0.349853,-0.04102 -0.58789,-0.04102 z m 56.019529,0.08789 0,5.125 c 0,1.137287 0.24692,1.995686 0.74414,2.572266 0.50253,0.571286 1.24154,0.855468 2.21485,0.855468 0.68766,0 1.23022,-0.1023 1.62695,-0.308593 0.40201,-0.211594 0.73803,-0.529952 1.00781,-0.953125 l 0.13477,1.103515 1.14258,0 0,-8.394531 -1.31836,0 0,4.712891 c 0,0.333253 -0.0227,0.637042 -0.0703,0.912109 -0.0476,0.27506 -0.12972,0.534017 -0.24609,0.777344 -0.11637,0.243333 -0.26798,0.447348 -0.45313,0.611328 -0.17984,0.16398 -0.41161,0.293459 -0.69726,0.388672 -0.28035,0.09521 -0.60376,0.142578 -0.96875,0.142578 -0.64535,0 -1.10832,-0.191978 -1.38867,-0.578125 -0.27507,-0.386147 -0.41211,-0.953365 -0.41211,-1.699219 l 0,-5.267578 -1.31641,0 z m -65.541014,0.832031 c 0.862223,0 1.514079,0.310795 1.953125,0.929688 0.439046,0.613607 0.658203,1.432778 0.658203,2.458984 0,0.65592 -0.08968,1.23071 -0.269531,1.722657 -0.179851,0.486653 -0.471029,0.877601 -0.873047,1.173828 -0.396728,0.290933 -0.886882,0.435546 -1.46875,0.435546 -0.846354,0 -1.491211,-0.306315 -1.935547,-0.919921 -0.444336,-0.613607 -0.666015,-1.420162 -0.666015,-2.419922 0,-1.020914 0.221679,-1.837565 0.666015,-2.451172 0.444336,-0.618893 1.089193,-0.929688 1.935547,-0.929688 z m 23.265625,0 c 1.602783,0 2.402344,0.990397 2.402344,2.96875 l 0,0.705079 c 0,0.380859 -0.04232,0.731441 -0.126953,1.048828 -0.08464,0.31738 -0.219157,0.611086 -0.404297,0.880859 -0.17985,0.264487 -0.431234,0.469074 -0.753906,0.617187 -0.322673,0.148114 -0.703532,0.222657 -1.142578,0.222657 -0.444336,0 -0.830242,-0.08968 -1.158203,-0.269531 -0.322673,-0.179847 -0.571534,-0.423663 -0.746094,-0.730469 -0.174561,-0.312094 -0.301514,-0.645594 -0.38086,-1 -0.07935,-0.354414 -0.11914,-0.737791 -0.11914,-1.150391 0,-0.433753 0.03979,-0.834798 0.11914,-1.205078 0.08464,-0.375573 0.214112,-0.724208 0.388672,-1.046875 0.17985,-0.322673 0.431234,-0.576579 0.753906,-0.761719 0.327963,-0.18514 0.718343,-0.279297 1.167969,-0.279297 z m 9.234375,0 c 1.333011,0 2.03223,0.905764 2.095703,2.714844 l -4.570312,0 c 0.07406,-0.835773 0.333008,-1.497722 0.777344,-1.984375 0.449626,-0.486653 1.014892,-0.730469 1.697265,-0.730469 z m 22.376953,0 c 0.862224,0 1.512126,0.310795 1.951172,0.929688 0.439046,0.613607 0.658203,1.432778 0.658203,2.458984 0,0.65592 -0.08968,1.23071 -0.269531,1.722657 -0.17985,0.486653 -0.471028,0.877601 -0.873047,1.173828 -0.396728,0.290933 -0.884928,0.435546 -1.466797,0.435546 -0.846354,0 -1.493164,-0.306315 -1.9375,-0.919921 -0.444336,-0.613607 -0.666015,-1.420162 -0.666015,-2.419922 0,-1.020914 0.221679,-1.837565 0.666015,-2.451172 0.444336,-0.618893 1.091146,-0.929688 1.9375,-0.929688 z m 36.625001,0 c 1.33302,0 2.03224,0.905764 2.0957,2.714844 l -4.57226,0 c 0.0741,-0.835773 0.33496,-1.497722 0.77929,-1.984375 0.44963,-0.486653 1.0149,-0.730469 1.69727,-0.730469 z m -76.09961,3.523438 1.007812,0 0,1.849609 c -0.629476,0.9257 -1.487874,1.388672 -2.572265,1.388672 -0.396729,0 -0.727702,-0.126953 -0.992188,-0.380859 -0.264486,-0.253907 -0.396484,-0.614585 -0.396484,-1.080078 0,-0.259194 0.02466,-0.475824 0.07227,-0.650391 0.04761,-0.179847 0.134766,-0.344074 0.261718,-0.492188 0.126954,-0.153399 0.30127,-0.272788 0.523438,-0.357421 0.222168,-0.08993 0.505778,-0.157478 0.849609,-0.205079 0.343832,-0.0476 0.75944,-0.07227 1.246094,-0.07227 z M 20,49.999998 l 0,1 216,0 0,-1 -216,0 z m 104.27148,13.542969 -1.33203,0.0957 0,11.583984 1.07032,0 0.11914,-1.474609 c 0.28564,0.47078 0.65641,0.861735 1.11132,1.173828 0.45492,0.306807 0.99244,0.460937 1.61133,0.460937 1.14787,0 2.02702,-0.392901 2.64063,-1.175781 0.6189,-0.782873 0.92969,-1.840815 0.92969,-3.173828 0,-1.354167 -0.29623,-2.422205 -0.88868,-3.205078 -0.59244,-0.78288 -1.46598,-1.173828 -2.61914,-1.173828 -0.566,0 -1.07633,0.134523 -1.53125,0.404297 -0.44962,0.264486 -0.82291,0.620686 -1.11914,1.070312 l 0.008,-1.458984 0,-3.126953 z m 9.34766,0 -1.30078,0.0957 0,9.179687 c 0,0.502527 0.0574,0.92066 0.17383,1.253907 0.11637,0.327966 0.29573,0.579346 0.53906,0.753906 0.24333,0.17456 0.51937,0.296468 0.82617,0.365234 0.3121,0.06347 0.698,0.0957 1.1582,0.0957 l 0.62696,0 0.0703,-0.904297 -0.35547,-0.02539 c -0.22746,-0.01587 -0.40625,-0.02846 -0.5332,-0.03906 -0.12695,-0.01587 -0.264,-0.03603 -0.41211,-0.0625 -0.14283,-0.03172 -0.25017,-0.06899 -0.32422,-0.111328 -0.0688,-0.04761 -0.14079,-0.107021 -0.21484,-0.175781 -0.0741,-0.06877 -0.12647,-0.155919 -0.15821,-0.261719 -0.0265,-0.105793 -0.0511,-0.227701 -0.0723,-0.365234 -0.0159,-0.137527 -0.0234,-0.302327 -0.0234,-0.498047 l 0,-9.300781 z m 44.93359,0 -1.3164,0.0957 0,2.611328 0.0625,1.912109 c -0.12696,-0.232746 -0.26148,-0.431723 -0.4043,-0.595703 -0.13753,-0.169273 -0.3068,-0.32593 -0.50781,-0.46875 -0.20101,-0.148113 -0.4423,-0.257978 -0.72266,-0.332031 -0.28035,-0.07406 -0.59676,-0.111328 -0.95117,-0.111328 -1.11084,0 -1.99194,0.395993 -2.64258,1.189453 -0.64534,0.793453 -0.96875,1.833741 -0.96875,3.119141 0,1.354166 0.31332,2.429769 0.9375,3.228515 0.62948,0.79346 1.5232,1.191406 2.68164,1.191406 1.20077,0 2.07235,-0.547604 2.61719,-1.642578 l 0.11914,1.482422 1.0957,0 0,-11.679687 z m 3,0.0957 c -0.2539,0 -0.46297,0.07959 -0.62695,0.238281 -0.15869,0.1534 -0.23828,0.354896 -0.23828,0.603516 0,0.248613 0.0796,0.450681 0.23828,0.609375 0.16398,0.158693 0.37305,0.238281 0.62695,0.238281 0.24862,0 0.45321,-0.07959 0.61719,-0.238281 0.16398,-0.158694 0.2461,-0.360762 0.2461,-0.609375 0,-0.24862 -0.0821,-0.450116 -0.2461,-0.603516 -0.15869,-0.158693 -0.36328,-0.238281 -0.61719,-0.238281 z M 78.205078,66.654295 c -1.11084,0 -2.026692,0.398519 -2.746094,1.197265 -0.7194,0.798747 -1.080078,1.871258 -1.080078,3.214844 0,1.32772 0.368246,2.378664 1.103516,3.15625 0.73527,0.7723 1.693441,1.160156 2.873047,1.160156 1.057942,0 2.001546,-0.246334 2.832031,-0.738281 l -0.277344,-0.929687 c -0.444336,0.222166 -0.84733,0.388913 -1.207031,0.5 -0.3597,0.11108 -0.758219,0.167968 -1.197266,0.167968 -0.809326,0 -1.466227,-0.256431 -1.96875,-0.769531 -0.50252,-0.518393 -0.774086,-1.312339 -0.816406,-2.380859 l 5.673828,0 0.04687,-0.666016 c 0,-1.227213 -0.278564,-2.185387 -0.833984,-2.873047 -0.55013,-0.692953 -1.349691,-1.039062 -2.402344,-1.039062 z m 8.830078,0 c -1.073811,0 -1.935302,0.470543 -2.585937,1.412109 l -0.150391,-1.238281 -1.064453,0 0,8.394531 1.316406,0 0,-5.117187 c 0.111084,-0.735274 0.3549,-1.325198 0.730469,-1.769531 0.380859,-0.449627 0.893717,-0.673829 1.539062,-0.673829 0.587159,0 0.990153,0.219157 1.207032,0.658203 0.216878,0.43376 0.324218,1.163254 0.324218,2.189454 l 0,4.71289 1.31836,0 0,-4.308594 c 0.01587,-0.729986 0.04362,-1.165773 0.08594,-1.308593 0.142822,-0.629474 0.413819,-1.110106 0.810547,-1.44336 0.396729,-0.333253 0.849609,-0.5 1.357422,-0.5 0.227457,0 0.424479,0.03475 0.59375,0.103516 0.174561,0.06348 0.311605,0.163255 0.41211,0.300781 0.105797,0.137534 0.190432,0.277095 0.253906,0.419922 0.06348,0.137533 0.110272,0.321375 0.136718,0.548828 0.02647,0.22746 0.04161,0.419432 0.04688,0.578125 0.01058,0.1534 0.01562,0.357422 0.01562,0.611328 l 0,4.998047 1.316407,0 0,-5.410156 c 0,-2.105307 -0.856445,-3.158203 -2.570313,-3.158203 -1.216634,0 -2.140055,0.567791 -2.769531,1.705078 -0.195719,-0.53426 -0.472331,-0.952393 -0.832031,-1.253906 -0.359701,-0.301514 -0.857422,-0.451172 -1.492188,-0.451172 z m 13.291014,0 c -1.232499,0 -2.200763,0.401038 -2.904295,1.205078 -0.698242,0.798747 -1.046875,1.856695 -1.046875,3.173828 0,1.2854 0.353679,2.333252 1.0625,3.142578 0.708821,0.80404 1.67204,1.207031 2.88867,1.207031 1.19019,0 2.1464,-0.405517 2.8711,-1.214843 0.72468,-0.814614 1.08789,-1.859939 1.08789,-3.134766 0,-1.317133 -0.34864,-2.375081 -1.04688,-3.173828 -0.69824,-0.80404 -1.66902,-1.205078 -2.91211,-1.205078 z m 17.3125,0 c -1.12142,0 -2.13199,0.209066 -3.03125,0.626953 l 0.35742,0.966797 c 0.38615,-0.18514 0.82447,-0.327228 1.31641,-0.427735 0.49195,-0.105793 0.95239,-0.158203 1.38086,-0.158203 0.63477,0 1.09774,0.149659 1.38867,0.451172 0.29623,0.301514 0.44531,0.75944 0.44531,1.373047 l 0,0.826172 -1.34179,0 c -1.34888,0 -2.33228,0.214111 -2.95118,0.642578 -0.6136,0.423173 -0.91992,1.088214 -0.91992,1.998047 0,0.76172 0.23178,1.35669 0.69727,1.785156 0.47079,0.428467 1.09293,0.644531 1.86523,0.644531 1.15316,0 2.0892,-0.442791 2.8086,-1.326171 l 0.14258,1.158203 1,0 0,-5.53711 c -1e-5,-1.06852 -0.27409,-1.83976 -0.82422,-2.310546 -0.54484,-0.476074 -1.32365,-0.712891 -2.33399,-0.712891 z m 22.99414,0 c -1.11084,0 -2.02474,0.398519 -2.74414,1.197265 -0.7194,0.798747 -1.08008,1.871258 -1.08008,3.214844 0,1.32772 0.36825,2.378664 1.10352,3.15625 0.73527,0.7723 1.69149,1.160156 2.87109,1.160156 1.05794,0 2.0035,-0.246334 2.83399,-0.738281 l -0.27735,-0.929687 c -0.44433,0.222166 -0.84732,0.388913 -1.20703,0.5 -0.3597,0.11108 -0.75822,0.167968 -1.19726,0.167968 -0.80932,0 -1.46623,-0.256431 -1.96875,-0.769531 -0.50251,-0.518393 -0.77408,-1.312339 -0.81641,-2.380859 l 5.67188,0 0.0488,-0.666016 c 0,-1.227213 -0.27856,-2.185387 -0.83398,-2.873047 -0.55013,-0.692953 -1.35164,-1.039062 -2.4043,-1.039062 z m 12.54492,0 c -1.07381,0 -1.9353,0.470543 -2.58593,1.412109 l -0.15039,-1.238281 -1.06446,0 0,8.394531 1.31641,0 0,-5.117187 c 0.11108,-0.735274 0.35489,-1.325198 0.73047,-1.769531 0.38086,-0.449627 0.89372,-0.673829 1.53906,-0.673829 0.58716,0 0.99015,0.219157 1.20703,0.658203 0.21688,0.43376 0.32422,1.163254 0.32422,2.189454 l 0,4.71289 1.31836,0 0,-4.308594 c 0.0159,-0.729986 0.0436,-1.165773 0.0859,-1.308593 0.14282,-0.629474 0.41382,-1.110106 0.81054,-1.44336 0.39673,-0.333253 0.84961,-0.5 1.35743,-0.5 0.22746,0 0.42448,0.03475 0.59375,0.103516 0.17456,0.06348 0.31161,0.163255 0.41211,0.300781 0.1058,0.137534 0.19044,0.277095 0.2539,0.419922 0.0635,0.137533 0.11025,0.321375 0.13672,0.548828 0.0264,0.22746 0.0415,0.419432 0.0469,0.578125 0.0106,0.1534 0.0156,0.357422 0.0156,0.611328 l 0,4.998047 1.31641,0 0,-5.410156 c 0,-2.105307 -0.85645,-3.158203 -2.57032,-3.158203 -1.21663,0 -2.14005,0.567791 -2.76953,1.705078 -0.19572,-0.53426 -0.47233,-0.952393 -0.83203,-1.253906 -0.3597,-0.301514 -0.85743,-0.451172 -1.49219,-0.451172 z m 13.16407,0 c -1.11084,0 -2.0267,0.398519 -2.7461,1.197265 -0.7194,0.798747 -1.07812,1.871258 -1.07812,3.214844 0,1.32772 0.36629,2.378664 1.10156,3.15625 0.73527,0.7723 1.69344,1.160156 2.87305,1.160156 1.05794,0 2.00154,-0.246334 2.83203,-0.738281 l -0.27734,-0.929687 c -0.44434,0.222166 -0.84538,0.388913 -1.20508,0.5 -0.3597,0.11108 -0.76018,0.167968 -1.19922,0.167968 -0.80933,0 -1.46428,-0.256431 -1.9668,-0.769531 -0.50251,-0.518393 -0.77602,-1.312339 -0.81836,-2.380859 l 5.67383,0 0.0469,-0.666016 c 0,-1.227213 -0.27661,-2.185387 -0.83203,-2.873047 -0.55012,-0.692953 -1.35164,-1.039062 -2.40429,-1.039062 z m 21.3125,0 c -1.12142,0 -2.132,0.209066 -3.03125,0.626953 l 0.35742,0.966797 c 0.38615,-0.18514 0.82447,-0.327228 1.31641,-0.427735 0.49194,-0.105793 0.95239,-0.158203 1.38085,-0.158203 0.63477,0 1.09774,0.149659 1.38868,0.451172 0.29622,0.301514 0.44336,0.75944 0.44336,1.373047 l 0,0.826172 -1.33985,0 c -1.34887,0 -2.33422,0.214111 -2.95312,0.642578 -0.61361,0.423173 -0.91992,1.088214 -0.91992,1.998047 -10e-6,0.76172 0.23372,1.35669 0.69921,1.785156 0.47079,0.428467 1.09099,0.644531 1.86329,0.644531 1.15315,0 2.09114,-0.442791 2.81054,-1.326171 l 0.14258,1.158203 0.99805,0 0,-5.53711 c 0,-1.06852 -0.2741,-1.83976 -0.82422,-2.310546 -0.54484,-0.476074 -1.32169,-0.712891 -2.33203,-0.712891 z m -114.845706,0.08594 c -0.507813,0 -0.990967,0.144041 -1.451172,0.429688 -0.454915,0.280353 -0.842774,0.721192 -1.160156,1.324219 l -0.142578,-1.666016 -1.054688,0 0,8.394531 1.316406,0 0,-4.751953 c 0,-0.745847 0.233724,-1.378091 0.699219,-1.896484 0.470785,-0.518394 1.065756,-0.777344 1.785156,-0.777344 0.148112,0 0.327474,0.02017 0.539063,0.0625 l 0.05664,-1.078125 c -0.153402,-0.02647 -0.349854,-0.04102 -0.58789,-0.04102 z m 32.546876,0.08789 3.24609,8.394531 1.32422,0 3.18164,-8.394531 -1.33984,0 c -0.27506,0.7723 -0.69319,1.92749 -1.25391,3.466797 -0.55542,1.539307 -0.97103,2.69645 -1.24609,3.46875 -0.34383,-0.909833 -0.84156,-2.248858 -1.49219,-4.015625 -0.64535,-1.76676 -1.00155,-2.740069 -1.07031,-2.919922 l -1.34961,0 z m 75.53711,0 0,8.394531 1.30273,0 0,-8.394531 -1.30273,0 z m -54.10547,0.826172 c 1.52343,0 2.28516,1.125493 2.28516,3.378906 0,2.226973 -0.78191,3.341797 -2.34766,3.341797 -0.79346,0 -1.40804,-0.293699 -1.8418,-0.880859 -0.42846,-0.58716 -0.64258,-1.45313 -0.64258,-2.595703 0,-1.020921 0.20655,-1.817386 0.61915,-2.388672 0.41788,-0.571287 1.06022,-0.855469 1.92773,-0.855469 z m -48.550782,0.0078 c 1.333011,0 2.030277,0.903811 2.09375,2.712891 l -4.570312,0 c 0.07406,-0.835773 0.333007,-1.497722 0.777343,-1.984375 0.449626,-0.486653 1.016846,-0.728516 1.699219,-0.728516 z m 22.089842,0 c 0.86223,0 1.51213,0.308835 1.95117,0.927735 0.43905,0.613606 0.65821,1.432784 0.65821,2.458984 0,0.655927 -0.0897,1.230716 -0.26953,1.722656 -0.17985,0.48666 -0.47103,0.877608 -0.87305,1.173828 -0.39673,0.290934 -0.88492,0.4375 -1.4668,0.4375 -0.84635,0 -1.493162,-0.308268 -1.937498,-0.921874 -0.444335,-0.613607 -0.666016,-1.420169 -0.666016,-2.419922 0,-1.020914 0.221681,-1.837566 0.666016,-2.451172 0.444336,-0.6189 1.091148,-0.927735 1.937498,-0.927735 z m 40.33985,0 c 1.33302,0 2.03028,0.903811 2.09375,2.712891 l -4.57032,0 c 0.0741,-0.835773 0.33301,-1.497722 0.77735,-1.984375 0.44962,-0.486653 1.01684,-0.728516 1.69922,-0.728516 z m 25.70703,0 c 1.33301,0 2.03028,0.903811 2.09375,2.712891 l -4.57032,0 c 0.0741,-0.835773 0.33496,-1.497722 0.7793,-1.984375 0.44963,-0.486653 1.01489,-0.728516 1.69727,-0.728516 z m 8.52929,0 c 0.78288,0 1.37281,0.291181 1.76954,0.873047 0.40201,0.581874 0.60351,1.440839 0.60351,2.578125 -0.005,1.042074 -0.19922,1.84611 -0.58008,2.41211 -0.38086,0.566 -1.00106,0.849609 -1.86328,0.849609 -0.81991,0 -1.42692,-0.303223 -1.81836,-0.90625 -0.38614,-0.603027 -0.57812,-1.429769 -0.57812,-2.482422 0,-1.057947 0.20654,-1.874592 0.61914,-2.451172 0.41259,-0.581866 1.02775,-0.873047 1.84765,-0.873047 z m -56.41406,3.521485 1.00781,0 0,1.849609 c -0.62908,0.925121 -1.48688,1.388094 -2.57031,1.388672 0,0 -0.002,0 -0.002,0 -0.39583,-4.31e-4 -0.7262,-0.127385 -0.99024,-0.380859 -0.26448,-0.253907 -0.39648,-0.614578 -0.39648,-1.080078 0,-0.259194 0.0227,-0.475831 0.0703,-0.650391 0.0476,-0.179853 0.13477,-0.344081 0.26172,-0.492188 0.12695,-0.153406 0.30127,-0.270835 0.52344,-0.355468 0.22216,-0.08993 0.50577,-0.159432 0.84961,-0.207032 0.34382,-0.0476 0.75943,-0.07227 1.24609,-0.07227 z m 70.01367,0 1.00782,0 0,1.849609 c -0.62948,0.9257 -1.48592,1.388672 -2.57032,1.388672 -0.39672,0 -0.7277,-0.126953 -0.99218,-0.380859 -0.26449,-0.253907 -0.39649,-0.614579 -0.39649,-1.080078 0,-0.259194 0.0247,-0.475831 0.0723,-0.650391 0.0476,-0.179853 0.13476,-0.344081 0.26172,-0.492188 0.12694,-0.153406 0.30126,-0.270835 0.52343,-0.355468 0.22217,-0.08993 0.50578,-0.159432 0.84961,-0.207032 0.34383,-0.0476 0.75749,-0.07227 1.24414,-0.07227 z M 227,71.999998 l -7,9 14,0 -7,-9 z m -7,13.900391 0,2.099609 14,0 0,-2.099609 -14,0 z m -105.61523,40.642581 -1.30079,0.0957 0,9.17969 c 0,0.50253 0.0594,0.92066 0.17579,1.25391 0.11637,0.32796 0.29573,0.57934 0.53906,0.7539 0.24332,0.17456 0.51741,0.29647 0.82422,0.36524 0.31161,0.0634 0.69893,0.0956 1.1582,0.0957 l 0.002,0 0.625,0 0.0723,-0.9043 -0.35742,-0.0254 c -0.22746,-0.0159 -0.4043,-0.0285 -0.53125,-0.0391 -0.12696,-0.0159 -0.264,-0.036 -0.41211,-0.0625 -0.14282,-0.0317 -0.25211,-0.069 -0.32617,-0.11133 -0.0688,-0.0476 -0.14079,-0.10702 -0.21485,-0.17578 -0.0741,-0.0688 -0.12647,-0.15592 -0.1582,-0.26172 -0.0265,-0.10579 -0.0492,-0.2277 -0.0703,-0.36523 -0.0159,-0.13753 -0.0254,-0.30233 -0.0254,-0.49805 l 0,-9.30079 z m 36.46093,0 -1.31836,0.0957 0,2.61133 0.0645,1.91211 c -0.12696,-0.23275 -0.26148,-0.43172 -0.4043,-0.5957 -0.13753,-0.16928 -0.30681,-0.32593 -0.50781,-0.46875 -0.20102,-0.14812 -0.44231,-0.25798 -0.72266,-0.33204 -0.28035,-0.0741 -0.59871,-0.11132 -0.95312,-0.11132 -1.11084,0 -1.99,0.39599 -2.64063,1.18945 -0.64535,0.79345 -0.96875,1.83374 -0.96875,3.11914 0,1.35417 0.31136,2.42977 0.93555,3.22852 0.62947,0.79346 1.52319,1.1914 2.68164,1.1914 1.20076,0 2.0743,-0.5476 2.61914,-1.64258 l 0.11914,1.48243 1.0957,0 0,-11.6797 z m -56.732419,0.0957 c -0.253906,0 -0.462972,0.0796 -0.626953,0.23828 -0.158691,0.1534 -0.238281,0.3549 -0.238281,0.60352 0,0.24861 0.07959,0.45068 0.238281,0.60937 0.163981,0.1587 0.373047,0.23828 0.626953,0.23828 0.248617,0 0.45516,-0.0796 0.619141,-0.23828 0.163981,-0.15869 0.246094,-0.36076 0.246094,-0.60937 0,-0.24862 -0.08211,-0.45012 -0.246094,-0.60352 -0.158692,-0.15869 -0.365235,-0.23828 -0.619141,-0.23828 z m 59.730469,0 c -0.25391,0 -0.46297,0.0796 -0.62695,0.23828 -0.1587,0.1534 -0.23828,0.3549 -0.23828,0.60352 0,0.24861 0.0796,0.45068 0.23828,0.60937 0.16398,0.1587 0.37304,0.23828 0.62695,0.23828 0.24862,0 0.45516,-0.0796 0.61914,-0.23828 0.16398,-0.15869 0.24609,-0.36076 0.24609,-0.60937 0,-0.24862 -0.0821,-0.45012 -0.24609,-0.60352 -0.15869,-0.15869 -0.36523,-0.23828 -0.61914,-0.23828 z m -64.658203,0.88867 -1.054688,0.0801 -0.214843,2.2207 -1.292969,0.0879 -0.03125,0.74609 1.292969,0 0,5.04492 c 0,0.5131 0.04484,0.92871 0.134765,1.24609 0.08993,0.31739 0.251628,0.57886 0.484375,0.78516 0.238037,0.2063 0.544352,0.35034 0.919922,0.42969 0.375569,0.0793 0.866292,0.11914 1.47461,0.11914 l 0.548828,0 0.0625,-0.9043 -0.666016,-0.0332 c -0.703532,-0.0265 -1.156413,-0.13631 -1.357422,-0.33203 -0.201009,-0.20101 -0.300781,-0.63876 -0.300781,-1.31055 l 0,-5.04492 2.222656,0 0,-0.83399 -2.222656,0 0,-2.30078 z m -16.662109,2.12696 c -1.232504,0 -2.200765,0.40104 -2.904297,1.20508 -0.698242,0.79874 -1.046875,1.85669 -1.046875,3.17382 0,1.2854 0.353678,2.33325 1.0625,3.14258 0.708821,0.80404 1.672038,1.20703 2.888672,1.20703 1.190186,0 2.146403,-0.40551 2.871093,-1.21484 0.724691,-0.81461 1.087891,-1.85994 1.087891,-3.13477 0,-1.31713 -0.348633,-2.37508 -1.046875,-3.17382 -0.698243,-0.80404 -1.669027,-1.20508 -2.912109,-1.20508 z m 9.640624,0 c -1.211344,0 -2.127197,0.5476 -2.746093,1.64258 l -0.134766,-1.46876 -1.095703,0 0,12.07618 1.318359,0 0,-3.15821 -0.05664,-1.94336 c 0.624186,1.05266 1.520426,1.58008 2.689453,1.58008 1.100261,0 1.958659,-0.39794 2.572266,-1.1914 0.613606,-0.79346 0.919921,-1.84131 0.919921,-3.14258 0,-1.35417 -0.296223,-2.42473 -0.888671,-3.21289 -0.587159,-0.78817 -1.446127,-1.18164 -2.578126,-1.18164 z m 18.535158,0 c -1.169029,0 -2.119631,0.39347 -2.849611,1.18164 -0.72998,0.78288 -1.09375,1.86043 -1.09375,3.23047 0,1.31185 0.353679,2.35775 1.0625,3.14062 0.714112,0.78288 1.672285,1.17578 2.873051,1.17578 0.5131,0 0.97355,-0.0619 1.38086,-0.18359 0.4073,-0.12166 0.69905,-0.25366 0.8789,-0.39649 l -0.24609,-0.89648 c -0.53426,0.3068 -1.12224,0.46094 -1.76758,0.46094 -0.9257,0 -1.629964,-0.30575 -2.111328,-0.91407 -0.481364,-0.60832 -0.722656,-1.40283 -0.722656,-2.38671 0,-1.03678 0.251383,-1.86296 0.753906,-2.47657 0.502523,-0.6136 1.169518,-0.91992 1.999998,-0.91992 0.65593,0 1.24081,0.15219 1.75391,0.45899 l 0.37305,-0.9043 c -0.17985,-0.12166 -0.47103,-0.24609 -0.87305,-0.37305 -0.39673,-0.13224 -0.86727,-0.19726 -1.41211,-0.19726 z m 6.9414,0 c -1.12142,0 -2.13199,0.20906 -3.03124,0.62695 l 0.35742,0.9668 c 0.38614,-0.18514 0.82641,-0.32723 1.31836,-0.42774 0.49194,-0.10579 0.95239,-0.1582 1.38086,-0.1582 0.63476,0 1.09578,0.14966 1.38671,0.45117 0.29623,0.30151 0.44532,0.75944 0.44532,1.37305 l 0,0.82617 -1.3418,0 c -1.34887,0 -2.33227,0.21411 -2.95117,0.64258 -0.61361,0.42317 -0.91992,1.08821 -0.91992,1.99804 0,0.76172 0.23176,1.35669 0.69726,1.78516 0.47078,0.42847 1.09294,0.64453 1.86524,0.64453 1.15316,0 2.08919,-0.44279 2.80859,-1.32617 l 0.14258,1.1582 1,0 0,-5.53711 c 0,-1.06852 -0.27409,-1.83976 -0.82422,-2.31054 -0.54484,-0.47608 -1.32365,-0.71289 -2.33399,-0.71289 z m 17.83008,0 c -1.07381,0 -1.93725,0.47054 -2.58789,1.41211 l -0.15039,-1.23829 -1.0625,0 0,8.39454 1.31641,0 0,-5.11719 c 0.11108,-0.73527 0.35489,-1.3252 0.73047,-1.76953 0.38086,-0.44963 0.89372,-0.67383 1.53906,-0.67383 0.58716,0 0.99015,0.21916 1.20703,0.6582 0.21688,0.43376 0.32422,1.16326 0.32422,2.18946 l 0,4.71289 1.31836,0 0,-4.3086 c 0.0159,-0.72998 0.0436,-1.16577 0.0859,-1.30859 0.14282,-0.62947 0.41382,-1.11011 0.81054,-1.44336 0.39673,-0.33325 0.84766,-0.5 1.35547,-0.5 0.22746,0 0.42644,0.0347 0.5957,0.10351 0.17457,0.0635 0.31161,0.16326 0.41211,0.30079 0.10581,0.13753 0.19044,0.27709 0.25391,0.41992 0.0635,0.13753 0.1083,0.32137 0.13477,0.54883 0.0264,0.22746 0.0435,0.41943 0.0488,0.57812 0.0106,0.1534 0.0156,0.35742 0.0156,0.61133 l 0,4.99805 1.31641,0 0,-5.41016 c 0,-2.10531 -0.85645,-3.1582 -2.57032,-3.1582 -1.21663,0 -2.14005,0.56779 -2.76953,1.70508 -0.19572,-0.53426 -0.47233,-0.9524 -0.83203,-1.25391 -0.3597,-0.30151 -0.85742,-0.45117 -1.49219,-0.45117 z m 13.16407,0 c -1.11084,0 -2.0267,0.39852 -2.7461,1.19726 -0.7194,0.79875 -1.08008,1.87126 -1.08008,3.21485 0,1.32772 0.36825,2.37866 1.10352,3.15625 0.73527,0.7723 1.69344,1.16015 2.87305,1.16015 1.05794,0 2.00154,-0.24633 2.83203,-0.73828 l -0.27735,-0.92969 c -0.44434,0.22217 -0.84733,0.38892 -1.20703,0.5 -0.3597,0.11108 -0.75822,0.16797 -1.19726,0.16797 -0.80933,0 -1.46623,-0.25643 -1.96875,-0.76953 -0.50251,-0.51839 -0.77408,-1.31234 -0.81641,-2.38086 l 5.67383,0 0.0469,-0.66601 c 0,-1.22722 -0.27856,-2.18539 -0.83398,-2.87305 -0.55013,-0.69295 -1.34969,-1.03906 -2.40234,-1.03906 z m 21.31054,0 c -1.12141,0 -2.13004,0.20906 -3.02929,0.62695 l 0.35546,0.9668 c 0.38616,-0.18514 0.82642,-0.32723 1.31836,-0.42774 0.49195,-0.10579 0.9524,-0.1582 1.38086,-0.1582 0.63477,0 1.09774,0.14966 1.38868,0.45117 0.29621,0.30151 0.44335,0.75944 0.44335,1.37305 l 0,0.82617 -1.34179,0 c -1.34888,0 -2.33227,0.21411 -2.95117,0.64258 -0.61361,0.42317 -0.91993,1.08821 -0.91993,1.99804 0,0.76172 0.23178,1.35669 0.69727,1.78516 0.47079,0.42847 1.09293,0.64453 1.86523,0.64453 1.15316,0 2.08919,-0.44279 2.8086,-1.32617 l 0.14258,1.1582 1,0 0,-5.53711 c 0,-1.06852 -0.2741,-1.83976 -0.82422,-2.31054 -0.54484,-0.47608 -1.32365,-0.71289 -2.33399,-0.71289 z m -66.490232,0.17382 0,8.39454 1.300781,0 0,-8.39454 -1.300781,0 z m 59.730472,0 0,8.39454 1.30078,0 0,-8.39454 -1.30078,0 z m -80.662112,0.83399 c 0.862223,0 1.512125,0.30883 1.951171,0.92773 0.439046,0.61361 0.658203,1.43279 0.658203,2.45899 10e-7,0.65592 -0.08968,1.23071 -0.269531,1.72265 -0.17985,0.48666 -0.471029,0.87761 -0.873047,1.17383 -0.396728,0.29094 -0.884928,0.4375 -1.466796,0.4375 -0.846355,0 -1.493164,-0.30827 -1.9375,-0.92187 -0.444336,-0.61361 -0.666016,-1.42017 -0.666016,-2.41992 0,-1.02092 0.22168,-1.83757 0.666016,-2.45118 0.444336,-0.6189 1.091145,-0.92773 1.9375,-0.92773 z m 9.488281,0 c 1.512858,0 2.269531,1.12297 2.269531,3.37109 0,2.22698 -0.781902,3.3418 -2.347656,3.3418 -0.793458,0 -1.40804,-0.30574 -1.841797,-0.91406 -0.428467,-0.60832 -0.642578,-1.46224 -0.642578,-2.5625 0.0053,-1.01563 0.216878,-1.80958 0.634765,-2.38086 0.417888,-0.5713 1.060222,-0.85547 1.927735,-0.85547 z m 56.654301,0 c 1.33301,0 2.03028,0.90381 2.09375,2.71289 l -4.57032,0 c 0.0741,-0.83577 0.33301,-1.49772 0.77735,-1.98438 0.44962,-0.48665 1.01684,-0.72851 1.69922,-0.72851 z m 8.52929,0 c 0.78288,0 1.37281,0.29118 1.76953,0.87305 0.40202,0.58187 0.60352,1.44083 0.60352,2.57812 -0.005,1.04207 -0.19922,1.84611 -0.58008,2.41211 -0.38086,0.566 -1.00301,0.84961 -1.86523,0.84961 -0.81991,0 -1.42497,-0.30322 -1.81641,-0.90625 -0.38615,-0.60303 -0.57812,-1.42977 -0.57812,-2.48242 0,-1.05795 0.20458,-1.87459 0.61718,-2.45117 0.4126,-0.58187 1.02971,-0.87305 1.84961,-0.87305 z m -38.70508,3.52148 1.00782,0 0,1.84961 c -0.62948,0.9257 -1.48593,1.38868 -2.57032,1.38868 -0.39673,0 -0.7277,-0.12696 -0.99218,-0.38086 -0.26448,-0.25391 -0.39649,-0.61458 -0.39649,-1.08008 0,-0.2592 0.0227,-0.47583 0.0703,-0.65039 0.0476,-0.17986 0.13476,-0.34408 0.26171,-0.49219 0.12696,-0.15341 0.30323,-0.27084 0.52539,-0.35547 0.22217,-0.0899 0.50383,-0.15943 0.84766,-0.20703 0.34383,-0.0476 0.75944,-0.0723 1.24609,-0.0723 z m 52.30469,0 1.00781,0 0,1.84961 c -0.62947,0.9257 -1.48591,1.38868 -2.57031,1.38868 -0.39672,0 -0.7277,-0.12696 -0.99219,-0.38086 -0.26448,-0.25391 -0.39648,-0.61458 -0.39648,-1.08008 0,-0.2592 0.0227,-0.47583 0.0703,-0.65039 0.0476,-0.17986 0.13477,-0.34408 0.26172,-0.49219 0.12695,-0.15341 0.30323,-0.27084 0.52539,-0.35547 0.22217,-0.0899 0.50382,-0.15943 0.84766,-0.20703 0.34382,-0.0476 0.75944,-0.0723 1.24609,-0.0723 z M 227,135 l -7,9 14,0 -7,-9 z m -7,13.90039 0,2.09961 14,0 0,-2.09961 -14,0 z M 71.966797,187.48047 c -0.767008,0 -1.339844,0.21411 -1.720703,0.64258 -0.38086,0.42846 -0.572266,1.15543 -0.572266,2.18164 l 0,0.53125 -1.482422,0.13476 -0.04102,0.69141 1.523437,0 0,7.56055 1.31836,0 0,-7.56055 1.990234,0 0,-0.83399 -1.990234,0 0,-0.60351 c -10e-7,-0.39143 0.02271,-0.70532 0.07031,-0.94336 0.04761,-0.24333 0.127197,-0.42269 0.238281,-0.53906 0.116374,-0.1217 0.240804,-0.20128 0.373047,-0.23828 0.132243,-0.037 0.309082,-0.0566 0.53125,-0.0566 0.275065,0 0.546061,0.0271 0.810547,0.0801 l 0.09375,-0.91211 c -0.470784,-0.0899 -0.851643,-0.13476 -1.142578,-0.13476 z m 4.015625,0.0625 -1.300781,0.0957 0,9.17969 c 0,0.50253 0.05745,0.92066 0.173828,1.25391 0.116373,0.32796 0.295735,0.57934 0.539062,0.7539 0.243327,0.17456 0.519369,0.29647 0.826172,0.36524 0.312093,0.0635 0.697999,0.0957 1.158203,0.0957 l 0.626953,0 0.07031,-0.9043 -0.355469,-0.0254 c -0.227458,-0.0159 -0.40625,-0.0285 -0.533203,-0.0391 -0.126953,-0.0159 -0.263997,-0.036 -0.412109,-0.0625 -0.142822,-0.0317 -0.250163,-0.069 -0.324219,-0.11133 -0.06877,-0.0476 -0.140788,-0.10702 -0.214844,-0.17578 -0.07405,-0.0688 -0.126463,-0.15592 -0.158203,-0.26172 -0.02645,-0.10579 -0.05111,-0.2277 -0.07227,-0.36523 -0.01587,-0.13753 -0.02344,-0.30233 -0.02344,-0.49805 l 0,-9.30078 z m 20.328125,0 -1.316406,0.0957 0,11.58399 1.308593,0 0,-4.59375 c 0,-0.3121 0.02213,-0.60328 0.06445,-0.87305 0.04761,-0.26977 0.127766,-0.5363 0.24414,-0.80078 0.116373,-0.26449 0.267985,-0.48869 0.453125,-0.67383 0.18514,-0.19043 0.426432,-0.34205 0.722656,-0.45313 0.301514,-0.11637 0.647624,-0.17382 1.039063,-0.17382 0.629476,0 1.075358,0.19702 1.339852,0.59375 0.26978,0.39144 0.40625,1.00349 0.40625,1.83398 l 0,5.14063 1.3164,0 0,-5.18946 c 0,-1.0791 -0.24381,-1.91088 -0.73047,-2.49804 -0.48665,-0.58716 -1.186443,-0.88086 -2.101563,-0.88086 -0.597738,0 -1.137777,0.11686 -1.619141,0.34961 -0.476074,0.22746 -0.867025,0.55648 -1.173828,0.99023 l 0.04687,-1.64258 0,-2.80859 z m 40.125003,0 -1.31641,0.0957 0,2.61133 0.0625,1.91211 c -0.12695,-0.23275 -0.26148,-0.43172 -0.4043,-0.5957 -0.13753,-0.16928 -0.3068,-0.32593 -0.50781,-0.46875 -0.20101,-0.14812 -0.4423,-0.25798 -0.72265,-0.33204 -0.28036,-0.0741 -0.59676,-0.11132 -0.95118,-0.11132 -1.11084,0 -1.99194,0.39599 -2.64258,1.18945 -0.64534,0.79345 -0.96874,1.83374 -0.96874,3.11914 0,1.35417 0.31331,2.42977 0.9375,3.22852 0.62947,0.79346 1.52318,1.1914 2.68164,1.1914 1.20076,0 2.0743,-0.5476 2.61914,-1.64258 l 0.11914,1.48243 1.09375,0 0,-11.67969 z m -53.804691,3.11133 c -1.121419,0 -2.130045,0.20906 -3.029297,0.62695 l 0.355469,0.9668 c 0.386149,-0.18514 0.826416,-0.32723 1.31836,-0.42774 0.491943,-0.10579 0.952392,-0.1582 1.380859,-0.1582 0.634765,0 1.095785,0.14966 1.386719,0.45117 0.296224,0.30151 0.445312,0.75944 0.445312,1.37305 l 0,0.82617 -1.341797,0 c -1.348877,0 -2.332276,0.21411 -2.951172,0.64258 -0.613606,0.42317 -0.919921,1.08821 -0.919921,1.99804 0,0.76172 0.231771,1.35669 0.697265,1.78516 0.470784,0.42847 1.092936,0.64453 1.865235,0.64453 1.153157,0 2.089192,-0.44279 2.808593,-1.32617 l 0.142578,1.1582 1,0 0,-5.53711 c 0,-1.06852 -0.274088,-1.83976 -0.824218,-2.31054 -0.54484,-0.47608 -1.323649,-0.71289 -2.333985,-0.71289 z m 7.839844,0 c -0.878092,0 -1.560221,0.21158 -2.046875,0.63476 -0.486653,0.41789 -0.730469,0.96802 -0.730469,1.65039 0,0.55013 0.141521,0.99854 0.421875,1.34766 0.280355,0.34383 0.798259,0.63753 1.554688,0.88086 l 0.919922,0.29492 c 0.608316,0.19572 1.028971,0.40479 1.261718,0.62695 0.232748,0.22217 0.34961,0.49626 0.34961,0.82422 0,0.47608 -0.14152,0.8418 -0.421875,1.09571 -0.280355,0.24861 -0.673828,0.37304 -1.181641,0.37304 -0.809326,0 -1.715658,-0.24129 -2.720703,-0.72265 l 0,1.10351 c 0.867513,0.4126 1.741617,0.61914 2.625,0.61914 0.396728,0 0.762451,-0.0493 1.095703,-0.14453 0.338542,-0.0952 0.639812,-0.23731 0.904297,-0.42773 0.269775,-0.19044 0.481364,-0.44434 0.634766,-0.76172 0.153401,-0.32268 0.230469,-0.69344 0.230469,-1.11133 0,-0.33854 -0.03223,-0.62272 -0.0957,-0.85547 -0.06348,-0.23804 -0.180338,-0.46167 -0.349609,-0.66797 -0.169271,-0.20629 -0.403565,-0.38565 -0.705078,-0.53906 -0.296224,-0.15869 -0.679606,-0.31282 -1.150391,-0.46094 l -0.833984,-0.26172 c -0.544841,-0.17456 -0.901042,-0.33878 -1.070313,-0.49218 -0.16927,-0.1534 -0.253906,-0.40031 -0.253906,-0.74414 0,-0.40731 0.129476,-0.71811 0.388672,-0.92969 0.264485,-0.21688 0.700276,-0.32422 1.308594,-0.32422 0.682373,0 1.38916,0.18441 2.11914,0.55469 l 0.308594,-0.97657 c -0.793457,-0.39144 -1.647379,-0.58593 -2.5625,-0.58593 z m 20.765627,0 c -1.16903,0 -2.11963,0.39347 -2.84961,1.18164 -0.72998,0.78288 -1.09375,1.86043 -1.09375,3.23047 0,1.31185 0.35368,2.35775 1.0625,3.14062 0.71411,0.78288 1.67229,1.17578 2.87305,1.17578 0.5131,0 0.97355,-0.0619 1.38086,-0.18359 0.4073,-0.12166 0.69905,-0.25366 0.8789,-0.39649 l -0.24609,-0.89648 c -0.53426,0.3068 -1.12223,0.46094 -1.76758,0.46094 -0.92569,0 -1.62996,-0.30575 -2.11133,-0.91407 -0.48137,-0.60831 -0.72266,-1.40283 -0.72266,-2.38671 1e-5,-1.03678 0.25138,-1.86296 0.75391,-2.47657 0.50252,-0.6136 1.16951,-0.91992 2,-0.91992 0.65593,0 1.24081,0.15219 1.75391,0.45899 l 0.37304,-0.9043 c -0.17984,-0.12166 -0.47102,-0.24609 -0.87304,-0.37305 -0.39673,-0.13224 -0.86727,-0.19726 -1.41211,-0.19726 z m 6.9414,0 c -1.12142,0 -2.13199,0.20906 -3.03125,0.62695 l 0.35743,0.9668 c 0.38614,-0.18514 0.82641,-0.32723 1.31836,-0.42774 0.49194,-0.10579 0.95239,-0.1582 1.38085,-0.1582 0.63477,0 1.09579,0.14966 1.38672,0.45117 0.29623,0.30151 0.44532,0.75944 0.44532,1.37305 l 0,0.82617 -1.3418,0 c -1.34887,0 -2.33227,0.21411 -2.95117,0.64258 -0.61361,0.42317 -0.91992,1.08821 -0.91992,1.99804 0,0.76172 0.23176,1.35669 0.69726,1.78516 0.47078,0.42847 1.09294,0.64453 1.86524,0.64453 1.15316,0 2.08919,-0.44279 2.80859,-1.32617 l 0.14258,1.1582 1,0 0,-5.53711 c 0,-1.06852 -0.27409,-1.83976 -0.82422,-2.31054 -0.54484,-0.47608 -1.32365,-0.71289 -2.33399,-0.71289 z m 9.125,0.0859 c -0.50781,0 -0.99097,0.14405 -1.45117,0.42969 -0.45492,0.28036 -0.84082,0.72119 -1.1582,1.32422 l -0.14258,-1.66602 -1.05664,0 0,8.39454 1.31836,0 0,-4.75196 c 0,-0.74584 0.23177,-1.37809 0.69727,-1.89648 0.47078,-0.51839 1.06575,-0.77734 1.78515,-0.77734 0.14812,0 0.32748,0.0202 0.53906,0.0625 l 0.0566,-1.07813 c -0.15339,-0.0265 -0.34985,-0.041 -0.58789,-0.041 z m 5.48243,0.92188 c 0.78288,0 1.3728,0.29118 1.76953,0.87305 0.40202,0.58187 0.60351,1.44083 0.60351,2.57812 -0.005,1.04207 -0.19726,1.84611 -0.57812,2.41211 -0.38086,0.566 -1.00302,0.84961 -1.86524,0.84961 -0.8199,0 -1.42496,-0.30322 -1.8164,-0.90625 -0.38615,-0.60303 -0.58008,-1.42977 -0.58008,-2.48242 0,-1.05795 0.20654,-1.87459 0.61914,-2.45117 0.41259,-0.58187 1.02775,-0.87305 1.84766,-0.87305 z m -49.304691,3.52148 1.007812,0 0,1.84961 c -0.629476,0.9257 -1.485921,1.38868 -2.570312,1.38868 -0.396728,-1e-5 -0.727702,-0.12696 -0.992188,-0.38086 -0.264485,-0.25391 -0.396484,-0.61458 -0.396484,-1.08008 0,-0.2592 0.02271,-0.47583 0.07031,-0.65039 0.04761,-0.17986 0.134766,-0.34408 0.261719,-0.49219 0.126953,-0.15341 0.303223,-0.27084 0.525391,-0.35547 0.222168,-0.0899 0.503825,-0.15943 0.847656,-0.20703 0.343831,-0.0476 0.75944,-0.0723 1.246094,-0.0723 z m 35.546871,0 1.00782,0 0,1.84961 c -0.62948,0.9257 -1.48593,1.38868 -2.57032,1.38868 -0.39673,-1e-5 -0.7277,-0.12696 -0.99218,-0.38086 -0.26448,-0.25391 -0.39649,-0.61458 -0.39649,-1.08008 0,-0.2592 0.0227,-0.47583 0.0703,-0.65039 0.0476,-0.17986 0.13477,-0.34408 0.26172,-0.49219 0.12696,-0.15341 0.30323,-0.27084 0.52539,-0.35547 0.22217,-0.0899 0.50383,-0.15943 0.84766,-0.20703 0.34383,-0.0476 0.75944,-0.0723 1.24609,-0.0723 z M 227,196 l -7,9 14,0 -7,-9 z m -7,13.90039 0,2.09961 14,0 0,-2.09961 -14,0 z"
     id="path5350" />
  <g
     transform="matrix(0.78125,0,0,0.76923269,-278.69644,-322.92259)"
     id="layer1-0"
     inkscape:label="Capa 1">
    <rect
       style="opacity:1;fill:url(#linearGradient4319);fill-opacity:1;stroke:none"
       id="rect4317"
       width="26"
       height="23.999866"
       x="395.57144"
       y="497.79813"
       ry="0" />
    <rect
       ry="0"
       y="520.79797"
       x="392.57144"
       height="28.999859"
       width="32"
       id="rect4139-3"
       style="opacity:1;fill:url(#linearGradient4158);fill-opacity:1;stroke:none" />
    <path
       id="rect4200"
       transform="translate(376.57144,491.79797)"
       d="m 28.707031,36.292969 -1.414062,1.414062 8,8 L 35,46 l 12,12 1,0 0,-9 -8,-8 -3.292969,3.292969 -8,-8 z m -2.146484,6.146484 -2.121094,2.121094 5.5,5.5 -1.353515,1.353515 L 35.171875,58 l 6.951172,0 -15.5625,-15.560547 z"
       style="opacity:0.2;fill:url(#linearGradient4231);fill-opacity:1;stroke:none;stroke-opacity:1"
       inkscape:connector-curvature="0" />
    <path
       id="path4292"
       transform="translate(376.57144,491.79797)"
       d="m 28,36 c -0.554,0 -1,0.446 -1,1 0,0.554 0.446,1 1,1 0.554,0 1,-0.446 1,-1 0,-0.554 -0.446,-1 -1,-1 z m 7,0 -2,2 3,3 -3,3 2,2 3,-3 2,-2 -5,-5 z m -9.5,6 C 24.669,42 24,42.669 24,43.5 24,44.331 24.669,45 25.5,45 26.331,45 27,44.331 27,43.5 27,42.669 26.331,42 25.5,42 Z m 4.5,6 c -1.108,0 -2,0.892 -2,2 0,1.108 0.892,2 2,2 1.108,0 2,-0.892 2,-2 0,-1.108 -0.892,-2 -2,-2 z"
       style="opacity:1;fill:url(#linearGradient4301);fill-opacity:1;stroke:none"
       inkscape:connector-curvature="0" />
    <rect
       y="548.79797"
       x="392.57144"
       height="1.0000228"
       width="32"
       id="rect4492"
       style="opacity:1;fill:#0c69cf;fill-opacity:1;stroke:none;stroke-width:2.79999995;stroke-miterlimit:4;stroke-dasharray:none;stroke-opacity:0.55026455" />
    <rect
       y="501.79794"
       x="398.57144"
       height="8.0000525"
       width="8.0000525"
       id="rect4359"
       style="opacity:1;fill:#23262c;fill-opacity:1;stroke:none" />
    <rect
       style="opacity:1;fill:#23262c;fill-opacity:1;stroke:none"
       id="rect4361"
       width="8.0000525"
       height="8.0000525"
       x="410.57153"
       y="501.79794" />
    <rect
       y="501.79794"
       x="400.57144"
       height="8"
       width="4.0000238"
       id="rect4363"
       style="opacity:1;fill:url(#linearGradient4371);fill-opacity:1;stroke:none" />
    <rect
       style="opacity:1;fill:url(#linearGradient4375);fill-opacity:1;stroke:none"
       id="rect4373"
       width="4.0000238"
       height="8"
       x="412.57153"
       y="501.79794" />
  </g>
  <g
     transform="matrix(0.76923077,0,0,0.76923077,-274.28552,-260.92152)"
     id="layer1-6"
     inkscape:label="Capa 1">
    <path
       id="rect4146"
       transform="translate(376.57144,491.79797)"
       d="M 32,6 C 17.59725,6 6.0019531,17.59602 6.0019531,32 6.0019531,46.40398 17.59725,58 32,58 46.40275,58 57.998047,46.40398 57.998047,32 57.998047,17.59602 46.40275,6 32,6 Z m 0,23 c 1.662,0 3,1.338 3,3 0,1.662 -1.338,3 -3,3 -1.662,0 -3,-1.338 -3,-3 0,-1.662 1.338,-3 3,-3 z"
       style="fill:url(#linearGradient3834);fill-opacity:1;stroke:none"
       inkscape:connector-curvature="0" />
    <path
       id="path4364"
       transform="translate(376.57144,491.79797)"
       d="m 38.125,25.375 -0.554688,0.882812 A 8,8 0 0 1 40,32 8,8 0 0 1 32,40 8,8 0 0 1 25.669922,36.876953 L 24.71875,37.375 42.683594,55.683594 c 5.77014,-2.59767 10.400537,-7.22931 12.998047,-13 L 38.125,25.375 Z m -1.099609,1.751953 -2.289063,3.650391 C 34.90297,31.151175 35,31.562905 35,32 c 0,1.662 -1.338,3 -3,3 -0.641789,0 -1.231975,-0.204276 -1.71875,-0.544922 L 26.564453,36.40625 A 7,7 0 0 0 32,39 7,7 0 0 0 39,32 7,7 0 0 0 37.025391,27.126953 Z"
       style="opacity:0.2;fill:url(#linearGradient4372);fill-opacity:1;fill-rule:evenodd;stroke:none"
       inkscape:connector-curvature="0" />
    <path
       id="rect4270"
       transform="translate(376.57144,491.79797)"
       d="m 32,23 c -4.986,0 -9,4.014 -9,9 0,4.986 4.014,9 9,9 4.986,0 9,-4.014 9,-9 0,-4.986 -4.014,-9 -9,-9 z m 0,1 a 8,8 0 0 1 8,8 8,8 0 0 1 -8,8 8,8 0 0 1 -8,-8 8,8 0 0 1 8,-8 z m 0,1 a 7,7 0 0 0 -7,7 7,7 0 0 0 7,7 7,7 0 0 0 7,-7 7,7 0 0 0 -7,-7 z m 0,4 c 1.662,0 3,1.338 3,3 0,1.662 -1.338,3 -3,3 -1.662,0 -3,-1.338 -3,-3 0,-1.662 1.338,-3 3,-3 z"
       style="fill:url(#linearGradient3862);fill-opacity:1;stroke:none"
       inkscape:connector-curvature="0" />
    <path
       sodipodi:nodetypes="cssscsc"
       inkscape:connector-curvature="0"
       id="rect4284"
       transform="translate(376.57144,491.79797)"
       d="m 6.0019531,31.191406 c -0.005,0.21774 0,0.435127 0,0.654297 C 6.0019531,46.334943 17.59723,58 32,58 46.40277,58 57.998047,46.334943 57.998047,31.845703 c 0,-0.21917 0.005,-0.436557 0,-0.654297 C 57.654007,45.374776 46.18454,57 32,57 17.81546,57 6.3459931,45.374776 6.0019531,31.191406 Z"
       style="fill:#2e3132;fill-opacity:0.29411765;stroke:none" />
    <path
       id="path4558"
       transform="translate(376.57144,491.79797)"
       d="m 32,24 a 8,8 0 0 0 -8,8 8,8 0 0 0 8,8 8,8 0 0 0 8,-8 8,8 0 0 0 -8,-8 z m 0,1 a 7,7 0 0 1 7,7 7,7 0 0 1 -7,7 7,7 0 0 1 -7,-7 7,7 0 0 1 7,-7 z"
       style="opacity:1;fill:#2e3132;fill-opacity:0.29411765;stroke-linecap:round"
       inkscape:connector-curvature="0" />
  </g>
  <g
     transform="matrix(0.76190473,0,0,0.76923038,-271.29252,-198.9213)"
     id="layer1-91"
     inkscape:label="Capa 1">
    <path
       inkscape:connector-curvature="0"
       id="rect4202"
       d="m 388.57144,510.79797 c -0.554,0 -1,0.446 -1,1 l 0,7 c 0,0.554 0.446,1 1,1 l 2,0 0,-9 -2,0 z"
       style="opacity:1;fill:#afc0c6;fill-opacity:1;stroke:none" />
    <path
       id="rect4139-30"
       transform="translate(376.57144,491.79797)"
       d="m 11,6 0,14 2,0 0,13 -2,0 0,25 42,0 0,-30 -1,0 0,-5 1,0 0,-10 -7,-7 -35,0 z"
       style="opacity:1;fill:url(#linearGradient4158-8);fill-opacity:1;stroke:none"
       inkscape:connector-curvature="0" />
    <rect
       y="548.79797"
       x="387.57144"
       height="1.0000228"
       width="42"
       id="rect4492-0"
       style="opacity:1;fill:#1c1e20;fill-opacity:1;stroke:none;stroke-width:2.79999995;stroke-miterlimit:4;stroke-dasharray:none;stroke-opacity:0.55026455" />
    <rect
       style="opacity:1;fill:#abb9be;fill-opacity:1;stroke:none;stroke-width:0.1;stroke-miterlimit:4;stroke-dasharray:none;stroke-opacity:1"
       id="rect4963"
       width="15.599988"
       height="15.599988"
       x="400.77151"
       y="506.89804"
       ry="7.7999926" />
    <rect
       y="511.798"
       x="390.57144"
       height="31.999989"
       width="35.999985"
       id="rect4407"
       style="opacity:1;fill:url(#linearGradient4415);fill-opacity:1;stroke:none" />
    <path
       id="rect4500"
       transform="translate(376.57144,491.79797)"
       d="M 28.707031,31.292969 27.292969,32.707031 35.34375,40.757812 35.119141,41 l 17,17 L 53,58 53,49.119141 39.804688,35.923828 l -3.103516,3.363281 -7.994141,-7.99414 z m -2.146484,6.146484 -2.121094,2.121094 5.5,5.5 -1.353515,1.353515 L 40.171875,58 47.121094,58 26.560547,37.439453 Z"
       style="opacity:0.2;fill:url(#linearGradient4521);fill-opacity:1;stroke:none"
       inkscape:connector-curvature="0" />
    <rect
       y="505.798"
       x="390.57144"
       height="10.999989"
       width="35.999985"
       id="rect4175"
       style="opacity:1;fill:url(#linearGradient4183);fill-opacity:1;stroke:none" />
    <rect
       ry="1"
       y="545.79785"
       x="393.07144"
       height="2"
       width="30.999985"
       id="rect4185"
       style="opacity:1;fill:#1c1e20;fill-opacity:1;stroke:none" />
    <rect
       y="511.798"
       x="387.57144"
       height="1"
       width="2"
       id="rect4332"
       style="opacity:1;fill:#96aab5;fill-opacity:1;stroke:none" />
    <path
       id="path4496"
       d="m 404.57144,522.79797 c -0.554,0 -1,0.446 -1,1 0,0.554 0.446,1 1,1 0.554,0 1,-0.446 1,-1 0,-0.554 -0.446,-1 -1,-1 z"
       style="opacity:1;fill:#afc0c6;fill-opacity:1;stroke:none"
       inkscape:connector-curvature="0" />
    <path
       id="path4494"
       d="m 411.57144,522.79797 -2,2 3,3 -3,3 2,2 3,-3 2,-2 -5,-5 z"
       style="opacity:1;fill:#afc0c6;fill-opacity:1;stroke:none"
       inkscape:connector-curvature="0" />
    <path
       id="path4492"
       d="m 402.07144,528.79797 c -0.831,0 -1.5,0.669 -1.5,1.5 0,0.831 0.669,1.5 1.5,1.5 0.831,0 1.5,-0.669 1.5,-1.5 0,-0.831 -0.669,-1.5 -1.5,-1.5 z"
       style="opacity:1;fill:#afc0c6;fill-opacity:1;stroke:none"
       inkscape:connector-curvature="0" />
    <path
       id="rect4231"
       d="m 406.57144,534.79797 c -1.108,0 -2,0.892 -2,2 0,1.108 0.892,2 2,2 1.108,0 2,-0.892 2,-2 0,-1.108 -0.892,-2 -2,-2 z"
       style="opacity:1;fill:#afc0c6;fill-opacity:1;stroke:none"
       inkscape:connector-curvature="0" />
    <path
       id="rect4604"
       transform="translate(376.57144,491.79797)"
       d="m 16,16 0,1 12,0 0,-1 -12,0 z m 0,2 0,1 18,0 0,-1 -18,0 z m 0,2 0,1 8,0 0,-1 -8,0 z m 0,2 0,1 5,0 0,-1 -5,0 z"
       style="opacity:1;fill:#dfe6e8;fill-opacity:1;stroke:none"
       inkscape:connector-curvature="0" />
    <path
       sodipodi:nodetypes="cccc"
       inkscape:connector-curvature="0"
       id="path4616"
       d="m 394.57144,519.79799 -1.00001,0.99998 -0.99999,-0.99998 z"
       style="fill:#dfe6e8;fill-opacity:1;fill-rule:evenodd;stroke:none;stroke-width:1px;stroke-linecap:butt;stroke-linejoin:miter;stroke-opacity:1" />
    <path
       id="rect4618"
       transform="translate(376.57144,491.79797)"
       d="m 43,47 0,1 5,0 0,-1 -5,0 z m 0,2 0,1 2,0 0,-1 -2,0 z"
       style="opacity:1;fill:#afc0c6;fill-opacity:1;stroke:none"
       inkscape:connector-curvature="0" />
  </g>
  <g
     transform="matrix(2,0,0,2,5.9999996,-1928.7244)"
     id="layer1-5"
     inkscape:label="Capa 1">
    <rect
       ry="1.0000348"
       y="1037.3622"
       x="7"
       height="8"
       width="8"
       id="rect4153"
       style="opacity:1;fill:#da4453;fill-opacity:1;stroke:none" />
    <path
       transform="translate(7,1037.3622)"
       id="path4141"
       d="M 2,1 1,2 3,4 1,6 2,7 4,5 6,7 7,6 5,4 7,2 6,1 4,3 2,1 Z"
       style="fill:#ffffff;fill-rule:evenodd;stroke:none;stroke-width:1px;stroke-linecap:butt;stroke-linejoin:miter;stroke-opacity:1"
       inkscape:connector-curvature="0" />
  </g>
  <g
     transform="matrix(2,0,0,2,5.9999996,-1990.7244)"
     id="layer1-1"
     inkscape:label="Capa 1">
    <rect
       ry="4"
       y="1037.3622"
       x="7"
       height="8"
       width="8"
       id="rect4153-3"
       style="opacity:1;fill:#27ae60;fill-opacity:1;stroke:none" />
    <path
       inkscape:connector-curvature="0"
       id="path4142"
       d="m 13,1039.3622 -3,3 -1,-1 -1,1 1,1 1,1 4,-4 -1,-1 z"
       style="fill:#ffffff;fill-opacity:1;fill-rule:evenodd;stroke:none;stroke-width:1px;stroke-linecap:butt;stroke-linejoin:miter;stroke-opacity:1" />
  </g>
  <g
     transform="matrix(2,0,0,2,5.9999996,-1866.7244)"
     id="layer1-5-9"
     inkscape:label="Capa 1">
    <rect
       ry="1.0000348"
       y="1037.3622"
       x="7"
       height="8"
       width="8"
       id="rect4153-2"
       style="opacity:1;fill:#da4453;fill-opacity:1;stroke:none" />
    <path
       transform="translate(7,1037.3622)"
       id="path4141-6"
       d="M 2,1 1,2 3,4 1,6 2,7 4,5 6,7 7,6 5,4 7,2 6,1 4,3 2,1 Z"
       style="fill:#ffffff;fill-rule:evenodd;stroke:none;stroke-width:1px;stroke-linecap:butt;stroke-linejoin:miter;stroke-opacity:1"
       inkscape:connector-curvature="0" />
  </g>
  <path
     inkscape:connector-curvature="0"
     style="opacity:0.3;fill:currentColor;fill-opacity:1;stroke:none"
     d="m 72.000004,83.999996 c -1.662,0 -3,1.338 -3,3 0,1.662 1.338,3 3,3 l 136.999996,0 c 1.662,0 3,-1.338 3,-3 0,-1.662 -1.338,-3 -3,-3 l -136.999996,0 z m 0,63.000004 c -1.662,0 -3,1.338 -3,3 0,1.662 1.338,3 3,3 L 209,153 c 1.662,0 3,-1.338 3,-3 0,-1.662 -1.338,-3 -3,-3 l -136.999996,0 z m 0,61 c -1.662,0 -3,1.338 -3,3 0,1.662 1.338,3 3,3 L 209,214 c 1.662,0 3,-1.338 3,-3 0,-1.662 -1.338,-3 -3,-3 l -136.999996,0 z"
     id="rect6597" />
  <rect
     ry="3"
     y="69"
     x="-90.000023"
     height="133.07344"
     width="6"
     id="rect6599"
     style="color:#3daee9;fill:currentColor;fill-opacity:1;stroke:none"
     transform="matrix(0,-1,1,0,0,0)"
     class="ColorScheme-Highlight" />
  <path
     inkscape:connector-curvature="0"
     style="opacity:1;fill:#474747;fill-opacity:1;stroke:none"
     d="m 72.000004,147 c -1.662,0 -3,1.338 -3,3 0,1.662 1.338,3 3,3 L 127,153 c 1.662,0 3,-1.338 3,-3 0,-1.662 -1.338,-3 -3,-3 l -54.999996,0 z m 0,61 c -1.662,0 -3,1.338 -3,3 0,1.662 1.338,3 3,3 l 104.597656,0 c 1.662,0 3,-1.338 3,-3 0,-1.662 -1.338,-3 -3,-3 l -104.597656,0 z"
     id="rect6599-6" />
</svg>
