<svg xmlns="http://www.w3.org/2000/svg" xmlns:inkscape="http://www.inkscape.org/namespaces/inkscape" viewBox="0 0 256 256">
  <defs
     id="defs4">
    <style
       id="current-color-scheme"
       type="text/css">
      .ColorScheme-Text {
        color:#f2f2f2;
      }
      .ColorScheme-Background {
        color:#31363b;
      }
      .ColorScheme-Highlight {
        color:#3daee9;
      }
      .ColorScheme-ViewText {
        color:#31363b;
      }
      .ColorScheme-ViewBackground {
        color:#314045;
      }
      .ColorScheme-ViewHover {
        color:#93cee9;
      }
      .ColorScheme-ViewFocus{
        color:#3daee9;
      }
      .ColorScheme-ButtonText {
        color:#31363b;
      }
      .ColorScheme-ButtonBackground {
        color:#31363b;
      }
      .ColorScheme-ButtonHover {
        color:#93cee9;
      }
      .ColorScheme-ButtonFocus{
        color:#3daee9;
      }
      </style>
  </defs>
  <path
     style="fill:currentColor;fill-opacity:0.5;stroke:none"
     d="m 16,10 224,0 c 3.324,0 6,2.676 6,6 l 0,224 c 0,3.324 -2.676,6 -6,6 l -224,0 c -3.324,0 -6,-2.676 -6,-6 L 10,16 c 0,-3.324 2.676,-6 6,-6 z"
     class="ColorScheme-ButtonText"
     id="rect4240" />
  <path
     style="fill:currentColor;fill-opacity:1;stroke:none"
     d="m 16,12 224,0 c 2.216,0 4,1.784 4,4 l 0,224 c 0,2.216 -1.784,4 -4,4 l -224,0 c -2.216,0 -4,-1.784 -4,-4 L 12,16 c 0,-2.216 1.784,-4 4,-4 z"
     class="ColorScheme-Background"
     id="rect4238" />
  <path
     style="fill:currentColor;fill-opacity:1;stroke:none" 
     class="ColorScheme-Text"
     d="m 87.363281,75.457034 c -8.863999,0 -16,7.136001 -16,16 0,8.863996 7.136001,15.999996 16,15.999996 8.863999,0 15.999999,-7.136 15.999999,-15.999996 0,-8.863999 -7.136,-16 -15.999999,-16 z m 35.462889,0 0.0625,9.914063 -4.01562,0 0,22.085933 28.10937,0 0,-22.085933 -4.01562,0 0.0625,-9.914063 -20.20313,0 z m 87.17383,0 0,31.999996 20,0 0,-31.999996 -20,0 z m -85.10352,1.882813 16.0625,0.0625 0,7.96875 -16.0625,-0.0625 0,-7.96875 z m -37.845699,0.117187 0.625,0 c 7.586345,0 13.687499,6.101183 13.687499,13.6875 l 0,0.625 c 0,7.586317 -6.101154,13.687496 -13.687499,13.687496 l -0.625,0 c -7.586345,0 -13.6875,-6.101178 -13.6875,-13.687496 l 0,-0.625 c 0,-7.586316 6.101155,-13.6875 13.6875,-13.6875 z m 128.949219,0 8,0 0,2 -8,0 0,-2 z m -89.1582,1.890625 0.0625,4.015625 4.01562,0 0,-3.953125 -4.07812,-0.0625 z m 12.17187,0 -4.20312,0.0625 0,3.953125 4.14062,0 0.0625,-4.015625 z M 212,81.457034 l 16,0 0,11 -2.21484,-0.554687 c -0.1344,-0.504401 -0.33399,-0.988805 -0.59375,-1.441406 l 1.17187,-1.953126 -1.41406,-1.414062 -1.95313,1.171875 c -0.45344,-0.2628 -0.93933,-0.464962 -1.44531,-0.601563 L 221,85.457034 l -2,0 -0.55469,2.214844 c -0.50426,0.134 -0.9888,0.33395 -1.4414,0.59375 l -1.95313,-1.171875 -1.41406,1.414062 1.17187,1.953126 c -0.26278,0.4534 -0.46502,0.939312 -0.60156,1.445312 L 212,92.457034 l 0,-11 z m -126.261719,2 0,11.1875 3.25,0 0,-11.1875 -3.25,0 z m 47.064449,5.929688 8.15625,8.03125 -16.0625,0 7.90625,-8.03125 z M 220,89.457032 c 0.133,-2e-4 0.26604,-4.68e-4 0.39844,0.01953 0.1324,0.02 0.26409,0.03259 0.39453,0.05859 0.1318,0.028 0.2622,0.06156 0.39062,0.101563 0.1272,0.04 0.25234,0.08672 0.375,0.136719 0.1226,0.052 0.24252,0.107875 0.35938,0.171874 0.1168,0.064 0.23014,0.136138 0.33984,0.210938 0.1108,0.076 0.21767,0.155989 0.32031,0.242188 0.10221,0.086 0.19999,0.177837 0.29297,0.273437 0.092,0.094 0.1794,0.194075 0.26172,0.296875 0.0836,0.105999 0.16182,0.214725 0.23438,0.328125 0.0722,0.112 0.13862,0.228456 0.19922,0.347656 0.0594,0.118 0.11275,0.23968 0.16015,0.363281 0.0492,0.123999 0.0923,0.250507 0.12891,0.378907 0.0352,0.128 0.0637,0.259025 0.0859,0.390625 0.0222,0.132 0.0381,0.265037 0.0469,0.398437 0.008,0.094 0.0117,0.18805 0.0117,0.28125 1.2e-4,0.134 -0.006,0.266038 -0.0195,0.398438 -0.014,0.132 -0.0326,0.264131 -0.0586,0.394531 -0.0272,0.132 -0.0612,0.262225 -0.10157,0.390625 -0.0394,0.128 -0.0849,0.2524 -0.13672,0.375 -0.0512,0.122 -0.10867,0.242575 -0.17187,0.359375 -0.0646,0.116 -0.13502,0.230244 -0.21094,0.339844 -0.0754,0.11 -0.15619,0.217712 -0.24219,0.320312 -0.0862,0.102 -0.17739,0.199969 -0.27343,0.292969 -0.0946,0.092 -0.19362,0.180119 -0.29688,0.261719 -0.1054,0.084 -0.21486,0.161975 -0.32812,0.234375 -0.1124,0.072 -0.22854,0.137218 -0.34766,0.199219 -0.1184,0.06 -0.2396,0.112156 -0.36328,0.160156 -0.124,0.05 -0.25053,0.09291 -0.37891,0.128906 -0.1286,0.034 -0.25906,0.06394 -0.39062,0.08594 -0.132,0.022 -0.26492,0.03692 -0.39844,0.04492 -0.056,0 -0.11177,-4.68e-4 -0.16797,0.01953 l -0.27344,0 c -0.0796,-0.0016 -0.159,4.68e-4 -0.23828,-0.01953 -0.1324,-0.02 -0.26407,-0.03259 -0.39453,-0.05859 -0.1318,-0.028 -0.2622,-0.06156 -0.39062,-0.101563 -0.1272,-0.04 -0.25234,-0.08477 -0.375,-0.134765 -0.1226,-0.052 -0.2425,-0.107875 -0.35938,-0.171876 -0.1168,-0.064 -0.23014,-0.13789 -0.33984,-0.21289 -0.1108,-0.076 -0.21767,-0.155988 -0.32031,-0.242188 -0.0602,-0.052 -0.11879,-0.106109 -0.17579,-0.162109 l -0.17578,-0.177734 c -0.0706,-0.074 -0.13838,-0.150069 -0.20312,-0.230469 -0.0836,-0.106 -0.16182,-0.214925 -0.23438,-0.328125 -0.0722,-0.112 -0.13862,-0.228456 -0.19922,-0.347656 -0.0594,-0.118 -0.11275,-0.239682 -0.16015,-0.363282 -0.0492,-0.124 -0.0921,-0.250506 -0.12891,-0.378906 -0.0352,-0.128 -0.0637,-0.259025 -0.0859,-0.390625 -0.0222,-0.132 -0.0381,-0.265037 -0.0469,-0.398437 -0.008,-0.094 -0.0117,-0.18785 -0.0117,-0.28125 -1.2e-4,-0.132 0.006,-0.266038 0.0195,-0.398438 0.012,-0.132 0.0326,-0.264131 0.0586,-0.394531 0.0272,-0.132 0.0612,-0.262025 0.10157,-0.390625 0.0394,-0.128 0.0849,-0.2522 0.13672,-0.375 0.0512,-0.122 0.10867,-0.242575 0.17187,-0.359375 0.0646,-0.116 0.13502,-0.230044 0.21094,-0.339844 0.0754,-0.11 0.15619,-0.217713 0.24219,-0.320312 0.0862,-0.102001 0.17739,-0.199968 0.27343,-0.292969 0.0946,-0.092 0.19362,-0.17992 0.29688,-0.261719 0.1054,-0.084 0.21486,-0.162176 0.32812,-0.234375 0.1124,-0.072 0.22852,-0.137219 0.34766,-0.199219 0.1184,-0.06 0.2396,-0.112156 0.36328,-0.160156 0.124,-0.05 0.25053,-0.09095 0.37891,-0.126953 0.1288,-0.036 0.25906,-0.06394 0.39062,-0.08594 0.132,-0.022 0.26492,-0.03888 0.39844,-0.04688 0.0934,0 0.18721,-0.01953 0.28125,-0.01953 z m -8,5 2.21484,0.554688 c 0.1344,0.5044 0.33399,0.988806 0.59375,1.441406 l -1.17187,1.953125 1.41406,1.414062 1.95313,-1.171874 c 0.45344,0.262799 0.93933,0.464962 1.44531,0.601562 L 219,101.45703 l 2,0 0.55469,-2.214841 c 0.50426,-0.134001 0.9888,-0.333951 1.4414,-0.59375 l 1.95313,1.171874 1.41406,-1.414062 -1.17187,-1.953125 c 0.26278,-0.4534 0.46502,-0.939313 0.60156,-1.445313 L 228,94.457032 l 0,6.999998 0,2 -4,0 -8,0 -4,0 0,-2 0,-6.999998 z m -124.636719,1.8125 c -0.736372,0 -1.625,0.82612 -1.625,1.5625 0,0.736379 0.888628,1.625 1.625,1.625 0.736372,0 1.625,-0.888621 1.625,-1.625 0,-0.73638 -0.888628,-1.5625 -1.625,-1.5625 z m 37.533199,3.15625 16.0625,0 0,2.007808 -16.0625,0 0,-2.007808 z m -84.955074,49.117188 -9.976562,9.98047 0,0.0195 0,2 0,8 0,2 0,0.0195 9.976562,9.98047 2.023438,0 0,-0.80469 0,-30.39062 0,-0.80469 -2.023438,0 z m 84.041014,0 0,2 0,10 2,0 0,-10 8,0 0,10 2,0 0,-12 -12,0 z m 39.19531,0 c -1.75818,0 -3.1875,1.42932 -3.1875,3.1875 l 0,25.625 c 0,1.75818 1.42932,3.1875 3.1875,3.1875 l 19.625,0 c 1.75818,0 3.1875,-1.42932 3.1875,-3.1875 l 0,-25.625 c 0,-1.75818 -1.42932,-3.1875 -3.1875,-3.1875 l -19.625,0 z m 50.82227,0 c 0,0 -4,5.31504 -16,6.64844 0,0 0,18.66776 16,25.35156 16,-6.6838 16,-25.35156 16,-25.35156 -12,-1.3334 -16,-6.64844 -16,-6.64844 z m -130.027344,1 a 12,12 0 0 0 -8.90625,4 l -5.09375,0 c -1.108,0 -2,0.892 -2,2 l 0,12 c 0,1.108 0.892,2 2,2 l 5.074219,0 a 12,12 0 0 0 8.925781,4 12,12 0 0 0 8.90625,-4 l 5.09375,0 c 1.108,0 2,-0.892 2,-2 l 0,-12 c 0,-1.108 -0.892,-2 -2,-2 l -5.074218,0 a 12,12 0 0 0 -8.925782,-4 z m 0,24 c -1.108,0 -2,0.892 -2,2 0,0.056 0.02665,0.10415 0.03125,0.16015 -3.243035,0.46241 -6.03125,1.83985 -6.03125,1.83985 l 0,2 16,0 0,-2 c 0,0 -2.788226,-1.37765 -6.03125,-1.83985 0.0046,-0.056 0.03125,-0.10415 0.03125,-0.16015 0,-1.108 -0.892,-2 -2,-2 z m -38.277344,-23.92578 -0.488281,1.95312 A 14,14 0 0 1 53.964844,164.54297 14,14 0 0 1 45.203125,177.5 l 0.488281,1.94922 A 16,16 0 0 0 55.964844,164.54297 16,16 0 0 0 45.695312,149.61719 Z m 117.482418,1.05078 19.625,0 c 0.60424,0 1.0625,0.45826 1.0625,1.0625 l 0,25.625 c 0,0.60424 -0.45826,1.0625 -1.0625,1.0625 l -19.625,0 c -0.60424,0 -1.0625,-0.45826 -1.0625,-1.0625 l 0,-25.625 c 0,-0.60424 0.45826,-1.0625 1.0625,-1.0625 z M 214,151.29688 c 3.17399,2.6894 7.75432,4.48351 13.69141,5.38671 -0.32252,2.8904 -0.63175,5.06557 -1.37891,7.16797 -1.57018,4.4182 -3.40095,7.10607 -5.04297,9.03906 -2.54445,2.9954 -4.85515,4.20767 -7.26953,5.41407 -2.41438,-1.2064 -4.72508,-2.41867 -7.26953,-5.41407 -1.64202,-1.93299 -3.47279,-4.62086 -5.04297,-9.03906 -0.74716,-2.1024 -1.05639,-4.27757 -1.37891,-7.16797 5.93709,-0.9032 10.51742,-2.69732 13.69141,-5.38671 z m -130.027344,0.24609 a 10,10 0 0 1 6.183594,2.16797 10,10 0 0 1 0.398438,0.32812 10,10 0 0 1 0.367187,0.34375 10,10 0 0 1 0.367187,0.375 10,10 0 0 1 0.355469,0.40235 10,10 0 0 1 0.3125,0.38281 l 2.394531,0 3.621094,0 0,2 -2,0 0,8 2,0 0,2 -3.625,0 -2.390625,0 a 10,10 0 0 1 -2.003906,2 10,10 0 0 1 -5.980469,2 10,10 0 0 1 -6.183594,-2.16797 10,10 0 0 1 -0.398437,-0.32812 10,10 0 0 1 -0.367187,-0.34376 10,10 0 0 1 -0.367188,-0.375 10,10 0 0 1 -0.355469,-0.40234 10,10 0 0 1 -0.3125,-0.38281 l -2.394531,0 -3.621094,0 0,-2 2,0 0,-8 -2,0 0,-2 3.625,0 2.390625,0 a 10,10 0 0 1 0.640625,-0.76953 10,10 0 0 1 1.363282,-1.23047 10,10 0 0 1 5.980468,-2 z m 89.017574,1 c -4.79058,0 -9,4.20164 -9,9 0,4.79836 4.20942,9 9,9 0.0818,0 0.1686,0.002 0.25,0 0.73214,1.14098 1.45518,2.2979 2.1875,3.4375 0.004,0.016 -0.004,0.0459 0,0.0625 0.1234,0.48568 0.33712,0.96954 0.6875,1.375 1.20332,1.39262 3.3122,1.54832 4.6875,0.3125 1.3753,-1.23582 1.51658,-3.48162 0.3125,-4.875 -0.38834,-0.4494 -0.92578,-0.69346 -1.4375,-0.875 -0.51384,-0.38132 -0.963,-0.79462 -1.4375,-1.1875 2.2543,-1.66134 3.75,-4.35924 3.75,-7.25 0,-4.79836 -4.20942,-9 -9,-9 z m 0,1.9375 c 3.66102,0 7.125,3.44664 7.125,7.0625 0,2.32368 -1.45054,4.5565 -3.4375,5.875 -0.78126,-0.72326 -1.5276,-1.42438 -2.3125,-2.25 -0.35008,-0.40512 -0.87546,-0.60124 -1.375,-0.625 -0.49954,-0.0238 -0.96546,0.132 -1.375,0.5 -0.8191,0.73594 -0.95014,2.00226 -0.25,2.8125 0.1674,0.2133 0.34176,0.41048 0.5,0.625 -3.20126,-0.63012 -6,-3.71034 -6,-6.9375 0,-3.61586 3.46398,-7.0625 7.125,-7.0625 z m -126.376949,2.625 -1.078125,1.72265 a 8,8 0 0 1 2.429688,5.71485 8,8 0 0 1 -2.421875,5.72265 l 1.078125,1.72657 a 10,10 0 0 0 3.34375,-7.44922 10,10 0 0 0 -3.351563,-7.4375 z m -22.648437,1.4375 0,2 0,8 0,2 4,0 0,-2 0,-8 0,-2 -4,0 z m 93.431636,0.60156 -1.41406,1.41406 8.58594,8.58594 0.0156,-0.0156 5.41407,5.41406 5.39843,-5.39844 8.58594,-8.58594 -1.41406,-1.41406 -8.58594,8.58594 -4,4 -4,-4 -8.58594,-8.58594 z m 55.59375,0.39844 c -1.10592,0 -2.00098,0.84986 -2,2 9.8e-4,1.14876 0.8954,2 2,2 1.10458,0 1.99902,-0.85124 2,-2 9.8e-4,-1.15014 -0.89408,-2 -2,-2 z m -7,13 c -1.04666,0 -2.00078,0.93898 -2,2 7.8e-4,1.06 0.95434,2 2,2 1.04566,0 1.99922,-0.94 2,-2 7.8e-4,-1.06102 -0.95334,-2 -2,-2 z m -54.00781,2 0,4 0,2 2,0 34,0 0,-2 0,-4 -2,0 0,4 -32,0 0,-4 -2,0 z"
     id="rect4403" />
  <circle
     r="3.9999652"
     cy="161.54266"
     cx="83.972939"
     id="path4147"
     style="color:#000000;display:inline;overflow:visible;visibility:visible;opacity:1;fill:#f67400;fill-opacity:1;fill-rule:nonzero;stroke:none;stroke-width:3;stroke-linecap:round;stroke-linejoin:round;stroke-miterlimit:4;stroke-dasharray:none;stroke-opacity:1;marker:none;enable-background:accumulate" />
  <path
     style="fill:currentColor;fill-opacity:1;stroke:none" 
     d="m 178.49115,75.45685 c -8.83656,0 -16,7.163444 -16,16 0,8.83655 7.16344,16 16,16 8.83656,0 16,-7.16345 16,-16 0,-8.836556 -7.16344,-16 -16,-16 z m 0,2 c 7.73198,0 14,6.268014 14,14 0,7.731986 -6.26802,14 -14,14 -7.73198,0 -14,-6.268014 -14,-14 0,-7.731986 6.26802,-14 14,-14 z m 4,14 c -3.3137,0 -6,2.686292 -6,6 0,3.31371 2.6863,6 6,6 3.3137,0 6,-2.68629 6,-6 0,-3.313708 -2.6863,-6 -6,-6 z"
     id="path3787"
     class="ColorScheme-Highlight"/>
  <path
     inkscape:connector-curvature="0"
     style="opacity:1;fill:#43be80;fill-opacity:1;stroke:none"
     d="m 39.855469,75.457034 a 7.9997852,7.999864 0 0 0 -8,8 7.9997852,7.999864 0 0 0 8,8 7.9997852,7.999864 0 0 0 8,-8 7.9997852,7.999864 0 0 0 -8,-8 z m 0,2 a 5.9998536,5.9999128 0 0 1 6,6 5.9998536,5.9999128 0 0 1 -6,6 5.9998536,5.9999128 0 0 1 -6,-6 5.9998536,5.9999128 0 0 1 6,-6 z m 0,16 A 15.99951,15.999669 0 0 0 24,107.45703 l 2.015625,0 a 13.999579,13.999718 0 0 1 13.839844,-11.999996 13.999579,13.999718 0 0 1 2,0.160157 l 0,-2.019532 a 15.99951,15.999669 0 0 0 -2,-0.140625 z m 9,0 a 6.9998293,6.9998293 0 0 0 -7,6.999996 6.9998293,6.9998293 0 0 0 7,7 6.9998293,6.9998293 0 0 0 7,-7 6.9998293,6.9998293 0 0 0 -7,-6.999996 z M 222,164.54297 c -4.432,0 -8,3.568 -8,8 0,4.432 3.568,8 8,8 4.432,0 8,-3.568 8,-8 0,-4.432 -3.568,-8 -8,-8 z"
     id="path4149" />
  <path
     inkscape:connector-curvature="0"
     style="fill:#ffffff;fill-rule:evenodd;stroke:none;stroke-width:1px;stroke-linecap:butt;stroke-linejoin:miter;stroke-opacity:1"
     d="m 51.855469,97.457034 -4,3.999996 -2,-1.999996 -2,1.999996 4,4 6,-5.999996 -2,-2 z M 226,168.54297 l -6,6 -2,-2 -2,2 2,2 2,2 8,-8 -2,-2 z"
     id="path4166" />
</svg>
