<svg xmlns="http://www.w3.org/2000/svg" viewBox="0 0 64 64">
  <defs
     id="defs3051">
    <style
       type="text/css"
       id="current-color-scheme">
      .ColorScheme-Text {
        color:#f2f2f2;
      }
      .ColorScheme-Highlight {
        color:#3daee9;
      }
      .ColorScheme-NegativeText {
        color:#da4453;
      }
      </style>
  </defs>
  <path
     style="fill:currentColor;fill-opacity:1;stroke:none" 
     d="M 21 9 L 21 15 L 24 15 L 24 24 L 8.5722656 24 L 6 24 L 6 50 L 4 50 L 4 52 C 4 53.18714 4.8128598 54 6 54 L 41 54 C 42.18714 54 43 53.18714 43 52 L 43 50 L 41 50 L 41 37 C 46.089274 37 52.642869 36.999957 58 37 L 58 15 L 60 15 L 60 9 L 57.857422 9 L 23.572266 9 L 21 9 z M 23 11 L 58 11 L 58 13 L 56 13 L 26 13 L 23 13 L 23 11 z M 26 15 L 56 15 L 56 35 L 41 35 L 41 24 L 39 24 L 26 24 L 26 15 z M 8 26 L 24 26 L 26 26 L 39 26 L 39 48 L 8 48 L 8 26 z "
     class="ColorScheme-Text"
     />
  <path
     style="fill:currentColor;fill-opacity:1;stroke:none" 
     d="M 12 30 L 12 45 L 34 45 L 34 30 L 12 30 z M 14 34 L 32 34 L 32 43 L 14 43 L 14 34 z "
     class="ColorScheme-Highlight"
     />
  <path
     style="fill:currentColor;fill-opacity:1;stroke:none" 
     d="M 43.939453 15.939453 L 42.423828 17.455078 L 46.970703 22 L 42.423828 26.544922 L 43.939453 28.060547 L 48.484375 23.515625 L 53.029297 28.060547 L 54.544922 26.544922 L 50 22 L 54.544922 17.455078 L 53.029297 15.939453 L 48.484375 20.484375 L 43.939453 15.939453 z "
     class="ColorScheme-NegativeText"
     />
</svg>
