<svg xmlns="http://www.w3.org/2000/svg" viewBox="0 0 64 64">
  <defs
     id="defs3051">
    <style
       type="text/css"
       id="current-color-scheme">
      .ColorScheme-Text {
        color:#f2f2f2;
      }
      .ColorScheme-Highlight {
        color:#3daee9;
      }
      </style>
  </defs>
  <path
     style="fill:currentColor;fill-opacity:1;stroke:none" 
     d="M 4 19 L 4 24 L 6 24 L 6 45 L 26 45 L 26 42 L 8 42 L 8 24 L 28 24 L 28 23 L 8 23 L 6 23 L 6 21 L 28 21 L 28 19 L 6 19 L 4 19 z M 29 19 L 29 41 L 27 41 L 27 43 C 27 44.000593 27.999407 45 29 45 L 58 45 C 59.000593 45 60 44.000593 60 43 L 60 41 L 58 41 L 58 19 L 56 19 L 31 19 L 29 19 z M 31 21 L 56 21 L 56 39 L 31 39 L 31 21 z "
     class="ColorScheme-Text"
     />
  <path
     style="fill:currentColor;fill-opacity:1;stroke:none" 
     d="M 18 27 L 18 38 L 27 38 L 27 37 L 20 37 L 20 30 L 27 30 L 27 27 L 18 27 z M 31 27 L 31 30 L 40 30 L 40 37 L 31 37 L 31 38 L 42 38 L 42 27 L 31 27 z "
     class="ColorScheme-Highlight"
     />
</svg>
