<svg xmlns="http://www.w3.org/2000/svg" viewBox="0 0 64 64">
  <defs
     id="defs3051">
    <style
       type="text/css"
       id="current-color-scheme">
      .ColorScheme-Text {
        color:#f2f2f2;
      }
      .ColorScheme-Highlight {
        color:#3daee9;
      }
      </style>
  </defs>
  <path
     style="fill:currentColor;fill-opacity:1;stroke:none" 
     d="M 22 9 L 22 16 L 24 16 L 24 24 L 6 24 L 6 50 L 4 50 L 4 52 C 4 53 5 54 6 54 L 40 54 C 41 54 42 53 42 52 L 42 50 L 40 50 L 40 37 C 45 37 53 37 58 37 L 58 16 L 60 16 L 60 9 L 58 9 L 24 9 L 22 9 z M 24 12 L 58 12 L 58 14 L 56 14 L 26 14 L 24 14 L 24 12 z M 26 16 L 56 16 L 56 35 L 40 35 L 40 24 L 26 24 L 26 16 z M 8 26 L 24 26 L 26 26 L 38 26 L 38 48 L 8 48 L 8 26 z "
     class="ColorScheme-Text"
     />
  <path
     style="fill:currentColor;fill-opacity:1;stroke:none" 
     d="M 30 18 L 30 24 L 32 24 L 32 22 L 50 22 L 50 31 L 40 31 L 40 33 L 52 33 L 52 18 L 30 18 z M 12 31 L 12 46 L 34 46 L 34 31 L 12 31 z M 14 35 L 32 35 L 32 44 L 14 44 L 14 35 z "
     class="ColorScheme-Highlight"
     />
</svg>
