<?xml version="1.0" encoding="UTF-8" standalone="no"?>
<!-- Created with Inkscape (http://www.inkscape.org/) -->

<svg
   xmlns:dc="http://purl.org/dc/elements/1.1/"
   xmlns:cc="http://creativecommons.org/ns#"
   xmlns:rdf="http://www.w3.org/1999/02/22-rdf-syntax-ns#"
   xmlns:svg="http://www.w3.org/2000/svg"
   xmlns="http://www.w3.org/2000/svg"
   xmlns:xlink="http://www.w3.org/1999/xlink"
   xmlns:sodipodi="http://sodipodi.sourceforge.net/DTD/sodipodi-0.dtd"
   xmlns:inkscape="http://www.inkscape.org/namespaces/inkscape"
   width="64"
   height="64"
   viewBox="0 0 64.000001 64.000001"
   id="svg7266"
   version="1.1"
   inkscape:version="0.91 r13725"
   sodipodi:docname="screenshot.svg">
  <defs
     id="defs7268">
    <linearGradient
       id="linearGradient4227">
      <stop
         id="stop6538"
         stop-color="#2e3436" />
      <stop
         id="stop6540-9"
         stop-color="#555753"
         offset="1" />
    </linearGradient>
    <filter
       style="color-interpolation-filters:sRGB"
       inkscape:label="Blur"
       id="filter8065">
      <feGaussianBlur
         stdDeviation="1.5 1.5"
         result="blur"
         id="feGaussianBlur8067" />
    </filter>
    <linearGradient
       inkscape:collect="always"
       xlink:href="#linearGradient4697"
       id="linearGradient15399"
       gradientUnits="userSpaceOnUse"
       gradientTransform="matrix(0.66666639,0,0,0.85555439,480.47633,-243.09305)"
       x1="418.16971"
       y1="503.07938"
       x2="384.57144"
       y2="531.45813" />
    <linearGradient
       id="linearGradient4697"
       inkscape:collect="always">
      <stop
         id="stop6546"
         stop-color="#1abc9c" />
      <stop
         id="stop6548"
         stop-color="#2980b9"
         offset="1" />
    </linearGradient>
    <linearGradient
       inkscape:collect="always"
       xlink:href="#linearGradient4526"
       id="linearGradient15401"
       gradientUnits="userSpaceOnUse"
       gradientTransform="matrix(0.66666639,0,0,0.85555439,480.47633,-243.09305)"
       x1="404.0452"
       y1="521.63281"
       x2="430.73611"
       y2="528.35034" />
    <linearGradient
       id="linearGradient4526"
       inkscape:collect="always">
      <stop
         id="stop6552"
         stop-color="#cc4a5e" />
      <stop
         id="stop6554"
         stop-color="#aa478a"
         offset="1" />
    </linearGradient>
    <linearGradient
       inkscape:collect="always"
       xlink:href="#linearGradient4468"
       id="linearGradient15403"
       gradientUnits="userSpaceOnUse"
       gradientTransform="matrix(0.66666639,0,0,0.85555439,480.47633,-243.09305)"
       x1="398.09201"
       y1="542.22382"
       x2="394.00299"
       y2="524.89966" />
    <linearGradient
       id="linearGradient4468"
       inkscape:collect="always">
      <stop
         id="stop6558"
         stop-color="#334545" />
      <stop
         id="stop6560"
         stop-color="#536161"
         offset="1" />
    </linearGradient>
    <linearGradient
       inkscape:collect="always"
       xlink:href="#linearGradient4468"
       id="linearGradient15405"
       gradientUnits="userSpaceOnUse"
       gradientTransform="matrix(-0.66666636,0,0,0.85555436,1039.9046,-277.31522)"
       x1="431.57141"
       y1="568.79803"
       x2="439.57141"
       y2="562.79803" />
    <linearGradient
       inkscape:collect="always"
       xlink:href="#linearGradient4468"
       id="linearGradient15407"
       gradientUnits="userSpaceOnUse"
       gradientTransform="matrix(-0.66666639,0,0,0.85555439,1039.9047,-277.31523)"
       x1="406.53735"
       y1="581.87024"
       x2="423.31955"
       y2="572.67786" />
    <linearGradient
       inkscape:collect="always"
       xlink:href="#linearGradient4468"
       id="linearGradient15409"
       gradientUnits="userSpaceOnUse"
       gradientTransform="matrix(-0.66666639,0,0,0.85555439,1039.9047,-277.31523)"
       x1="423.05438"
       y1="572.33411"
       x2="431.22452"
       y2="566.76562" />
    <linearGradient
       inkscape:collect="always"
       xlink:href="#linearGradient4468"
       id="linearGradient15411"
       gradientUnits="userSpaceOnUse"
       gradientTransform="matrix(-0.66666639,0,0,0.85555439,1039.9047,-277.31523)"
       x1="431.3129"
       y1="577.10217"
       x2="440.63208"
       y2="571.44531" />
    <linearGradient
       inkscape:collect="always"
       xlink:href="#linearGradient4468"
       id="linearGradient15413"
       gradientUnits="userSpaceOnUse"
       gradientTransform="matrix(-0.66666639,0,0,0.85555439,1039.9047,-277.31523)"
       x1="430.56738"
       y1="577.36243"
       x2="423.74994"
       y2="591.32782" />
  </defs>
  <sodipodi:namedview
     id="base"
     pagecolor="#ffffff"
     bordercolor="#666666"
     borderopacity="1.0"
     inkscape:pageopacity="0.0"
     inkscape:pageshadow="2"
     inkscape:zoom="3.959798"
     inkscape:cx="31.367158"
     inkscape:cy="4.0866976"
     inkscape:document-units="px"
     inkscape:current-layer="layer1"
     showgrid="true"
     units="px"
     inkscape:window-width="956"
     inkscape:window-height="1013"
     inkscape:window-x="0"
     inkscape:window-y="0"
     inkscape:window-maximized="0">
    <inkscape:grid
       type="xygrid"
       id="grid7814" />
  </sodipodi:namedview>
  <metadata
     id="metadata7271">
    <rdf:RDF>
      <cc:Work
         rdf:about="">
        <dc:format>image/svg+xml</dc:format>
        <dc:type
           rdf:resource="http://purl.org/dc/dcmitype/StillImage" />
        <dc:title></dc:title>
      </cc:Work>
    </rdf:RDF>
  </metadata>
  <g
     inkscape:label="Ebene 1"
     inkscape:groupmode="layer"
     id="layer1"
     transform="translate(0,-988.36216)">
    <g
       id="g15439"
       transform="translate(-736.85718,830.42855)">
      <g
         transform="matrix(2.0000012,0,0,1.8571442,-736.85806,-185.08607)"
         id="g6996-6-6">
        <path
           id="path6573-0-3"
           inkscape:connector-curvature="0"
           d="m 736.85717,187.93354 0,27.99998 32,0 0,-27.99998 -32,0 z"
           style="fill:url(#linearGradient15399)" />
        <path
           id="path6575-1-1"
           inkscape:connector-curvature="0"
           d="m 768.85717,187.93354 -22.02272,16.31692 15.76846,11.68306 6.25426,0 0,-27.99998 z"
           style="fill:url(#linearGradient15401);stroke-width:2;stroke-linecap:round" />
        <path
           id="path6577-7-8"
           inkscape:connector-curvature="0"
           d="m 746.85717,204.18848 -10,7.41015 0,4.33489 25.89489,0 -15.89489,-11.74504 z"
           style="fill:url(#linearGradient15403);stroke-width:2;stroke-linecap:round" />
        <path
           id="path6579-9-8"
           inkscape:transform-center-x="-5.5056915"
           d="m 752.36284,208.2684 -5.50568,-4.07933 0,8.15866 z"
           inkscape:connector-curvature="0"
           style="fill:url(#linearGradient15405);stroke-width:2;stroke-linecap:round" />
        <path
           id="path6581-4-3"
           inkscape:connector-curvature="0"
           d="m 757.86854,212.34602 0,3.5875 4.84091,0 -4.84091,-3.5875 z"
           style="fill:url(#linearGradient15407);stroke-width:2;stroke-linecap:round" />
        <path
           id="path6583-36-7"
           inkscape:connector-curvature="0"
           d="m 752.36285,208.26816 0,7.66536 0.66619,0 4.83949,-3.58568 -5.50568,-4.07968 z"
           style="fill:url(#linearGradient15409);stroke-width:2;stroke-linecap:round" />
        <path
           id="path6585-18-3"
           inkscape:connector-curvature="0"
           d="m 746.85717,212.34784 0,3.58568 4.83949,0 -4.83949,-3.58568 z"
           style="fill:url(#linearGradient15411);stroke-width:2;stroke-linecap:round" />
        <path
           id="path6587-4-5"
           inkscape:connector-curvature="0"
           d="m 757.86854,212.34602 -4.84091,3.5875 4.84091,0 0,-3.5875 z"
           style="fill:url(#linearGradient15413);stroke-width:2;stroke-linecap:round" />
        <path
           id="path6589-6-4"
           inkscape:connector-curvature="0"
           d="m 746.83445,204.25087 22.02271,-16.31733 -10e-6,7.97131 z"
           inkscape:transform-center-x="5.5056789"
           style="fill:#aa478a;stroke-width:2;stroke-linecap:round" />
      </g>
      <path
         id="path15057"
         d="m 747.85718,175.93361 0,1 0,4 1,0 0,-4 4,0 0,-1 -5,0 z m 37,0 0,1 4,0 0,4 1,0 0,-4 0,-1 -5,0 z m -18,7 0,3 -2,0 0,11 13,0 0,-11 -2,0 0,-3 -9,0 z m 1,1 7,0 0,2 -7,0 0,-2 z m -8,2 0,11 4,0 0,-11 -4,0 z m 11.5,1 c 2.493,0 4.5,2.007 4.5,4.5 0,2.493 -2.007,4.5 -4.5,4.5 -2.493,0 -4.5,-2.007 -4.5,-4.5 0,-2.493 2.007,-4.5 4.5,-4.5 z m 0,1 c -1.939,0 -3.5,1.561 -3.5,3.5 0,1.939 1.561,3.5 3.5,3.5 1.939,0 3.5,-1.561 3.5,-3.5 0,-1.939 -1.561,-3.5 -3.5,-3.5 z m -23.5,11 0,4 0,1 5,0 0,-1 -4,0 0,-4 -1,0 z m 41,0 0,4 -4,0 0,1 5,0 0,-1 0,-4 -1,0 z"
         inkscape:connector-curvature="0"
         style="fill:#ffffff;stroke-width:0.1" />
      <g
         id="g6597-0-1"
         transform="translate(352.28574,-329.86449)">
        <rect
           id="rect6599-8-4"
           width="64"
           height="4.0000043"
           x="384.57144"
           y="541.7981"
           style="fill:#ffffff;fill-opacity:0.78431396" />
        <circle
           id="circle6601-2-6"
           cx="445.57144"
           cy="543.79797"
           r="1"
           style="fill:#4d4d4d" />
        <path
           id="path6603-5-5"
           inkscape:connector-curvature="0"
           d="m 386.57143,542.798 0,1 1,0 0,-1 -1,0 z m 1,1 0,1 1,0 0,-1 -1,0 z"
           style="fill:#4d4d4d" />
      </g>
    </g>
  </g>
</svg>
