<?xml version="1.0" encoding="UTF-8" standalone="no"?>
<!-- Created with Inkscape (http://www.inkscape.org/) -->

<svg
   xmlns:dc="http://purl.org/dc/elements/1.1/"
   xmlns:cc="http://creativecommons.org/ns#"
   xmlns:rdf="http://www.w3.org/1999/02/22-rdf-syntax-ns#"
   xmlns:svg="http://www.w3.org/2000/svg"
   xmlns="http://www.w3.org/2000/svg"
   xmlns:xlink="http://www.w3.org/1999/xlink"
   xmlns:sodipodi="http://sodipodi.sourceforge.net/DTD/sodipodi-0.dtd"
   xmlns:inkscape="http://www.inkscape.org/namespaces/inkscape"
   width="64"
   height="64"
   viewBox="0 0 64.000001 64.000001"
   id="svg7266"
   version="1.1"
   inkscape:version="0.91 r13725"
   sodipodi:docname="zoom.svg">
  <defs
     id="defs7268">
    <linearGradient
       inkscape:collect="always"
       xlink:href="#linearGradient4303-6"
       id="linearGradient4643-8-5"
       gradientUnits="userSpaceOnUse"
       gradientTransform="matrix(0.66666726,0,0,0.63518419,410.73577,-143.16546)"
       y1="543.79797"
       x2="0"
       y2="502.65509" />
    <linearGradient
       inkscape:collect="always"
       id="linearGradient4303-6">
      <stop
         stop-color="#c6cdd1"
         id="stop12" />
      <stop
         offset="1"
         stop-color="#e0e5e7"
         id="stop14" />
    </linearGradient>
    <linearGradient
       gradientTransform="translate(282.54562,-341.68417)"
       inkscape:collect="always"
       xlink:href="#linearGradient4293"
       id="linearGradient4183-4"
       x1="391.57144"
       y1="525.79797"
       x2="406.57147"
       y2="540.79797"
       gradientUnits="userSpaceOnUse" />
    <linearGradient
       inkscape:collect="always"
       id="linearGradient4293">
      <stop
         id="stop7" />
      <stop
         offset="1"
         stop-opacity="0"
         id="stop9" />
    </linearGradient>
    <linearGradient
       y2="502.65509"
       x2="0"
       y1="543.79797"
       gradientTransform="matrix(0.500001,0,0,0.46417292,542.87897,303.45488)"
       gradientUnits="userSpaceOnUse"
       id="linearGradient4643-8-2"
       xlink:href="#linearGradient4303-6"
       inkscape:collect="always" />
    <linearGradient
       gradientUnits="userSpaceOnUse"
       y2="543.92926"
       x2="465.16071"
       y1="511.38873"
       x1="431.16071"
       id="linearGradient4183-2"
       xlink:href="#linearGradient4293"
       inkscape:collect="always"
       gradientTransform="matrix(1,0,0,0.86046512,328.69647,93.90144)" />
    <linearGradient
       gradientUnits="userSpaceOnUse"
       y2="25"
       x2="23.00001"
       y1="11"
       x1="9.0000095"
       id="linearGradient4226"
       xlink:href="#linearGradient4293"
       inkscape:collect="always"
       gradientTransform="translate(760.85718,528.93361)" />
    <linearGradient
       inkscape:collect="always"
       xlink:href="#linearGradient4303"
       id="linearGradient5910-3-2-8"
       x1="759.85718"
       y1="179.93361"
       x2="779.85718"
       y2="199.93361"
       gradientUnits="userSpaceOnUse"
       gradientTransform="translate(-1.00004,358)" />
    <linearGradient
       inkscape:collect="always"
       id="linearGradient4303">
      <stop
         id="stop3582"
         stop-color="#197cf1" />
      <stop
         id="stop3584"
         stop-color="#21c9fb"
         offset="1" />
    </linearGradient>
    <linearGradient
       inkscape:collect="always"
       xlink:href="#linearGradient9932"
       id="linearGradient9922"
       x1="63.999996"
       y1="305.99997"
       x2="4.2968759e-07"
       y2="358"
       gradientUnits="userSpaceOnUse"
       gradientTransform="translate(736.85718,217.93361)" />
    <linearGradient
       inkscape:collect="always"
       id="linearGradient9932">
      <stop
         style="stop-color:#ffa92d;stop-opacity:1;"
         offset="0"
         id="stop9934" />
      <stop
         style="stop-color:#ffa92d;stop-opacity:0;"
         offset="1"
         id="stop9936" />
    </linearGradient>
  </defs>
  <sodipodi:namedview
     id="base"
     pagecolor="#ffffff"
     bordercolor="#666666"
     borderopacity="1.0"
     inkscape:pageopacity="0.0"
     inkscape:pageshadow="2"
     inkscape:zoom="3.959798"
     inkscape:cx="31.367158"
     inkscape:cy="4.0866976"
     inkscape:document-units="px"
     inkscape:current-layer="layer1"
     showgrid="true"
     units="px"
     inkscape:window-width="956"
     inkscape:window-height="1013"
     inkscape:window-x="0"
     inkscape:window-y="0"
     inkscape:window-maximized="0">
    <inkscape:grid
       type="xygrid"
       id="grid7814" />
  </sodipodi:namedview>
  <metadata
     id="metadata7271">
    <rdf:RDF>
      <cc:Work
         rdf:about="">
        <dc:format>image/svg+xml</dc:format>
        <dc:type
           rdf:resource="http://purl.org/dc/dcmitype/StillImage" />
        <dc:title></dc:title>
      </cc:Work>
    </rdf:RDF>
  </metadata>
  <g
     inkscape:label="Ebene 1"
     inkscape:groupmode="layer"
     id="layer1"
     transform="translate(0,-988.36216)">
    <g
       id="g5195"
       transform="translate(-736.85717,470.42852)">
      <g
         transform="translate(69.740115,371.81984)"
         id="g6086">
        <rect
           style="fill:url(#linearGradient4643-8-5)"
           y="176.11377"
           x="667.11707"
           height="28"
           width="32"
           rx="0"
           id="rect30" />
        <path
           style="opacity:0.2;fill:url(#linearGradient4183-4);fill-rule:evenodd"
           d="m 668.11705,202.11384 30,-20 1.00001,1 -1e-5,20.99997 -29,3e-5 z"
           inkscape:connector-curvature="0"
           id="path32" />
        <rect
           style="fill:#566069"
           width="32.000011"
           height="4"
           x="667.117"
           y="176.11377"
           id="rect34" />
        <rect
           style="fill:#3daee9"
           width="31.999968"
           height="1"
           x="667.117"
           y="180.11377"
           id="rect36" />
        <rect
           style="fill:#ffffff"
           width="30"
           height="20.000031"
           x="668.117"
           y="182.11377"
           id="rect38" />
        <rect
           style="fill:#eff0f1"
           width="2"
           height="2"
           x="696.117"
           y="177.11377"
           rx="1"
           id="rect40" />
      </g>
      <rect
         style="fill:url(#linearGradient4643-8-2)"
         id="rect29-9"
         rx="0"
         width="48.00005"
         height="37.999992"
         x="752.85718"
         y="523.93359" />
      <rect
         style="fill:#99a1a7"
         id="rect31-4"
         y="560.93359"
         x="752.85718"
         height="0.99999797"
         width="47.999992" />
      <path
         sodipodi:nodetypes="cccccc"
         inkscape:connector-curvature="0"
         style="opacity:0.2;fill:url(#linearGradient4183-2);fill-rule:evenodd"
         id="path33-6"
         d="m 798.85718,532.93361 -44,27 2,2 44,0 0,-27.27907 z" />
      <rect
         style="fill:#566069"
         id="rect35-3"
         y="523.93359"
         x="752.85718"
         height="5.9999542"
         width="48" />
      <rect
         style="fill:#3daee9"
         id="rect37-7"
         y="529.93359"
         x="752.85718"
         height="1.0000499"
         width="47.999931" />
      <rect
         style="fill:#eff0f1"
         id="rect43-4"
         rx="2"
         y="524.93359"
         x="794.85718"
         height="4"
         width="4" />
      <rect
         style="fill:#ffffff"
         id="rect39-4"
         y="532.93359"
         x="754.85718"
         height="27.000004"
         width="43.999969" />
      <path
         sodipodi:nodetypes="cccccccccccc"
         id="path6142"
         d="m 776.85718,541.93361 0,0 1,3 1,3 -1,1 c -0.0984,2.64206 -1.9289,4.85111 -4,7 -3.51825,2.26811 -7.65311,1.20652 -12,-1 l 7,7 29.00006,-2e-5 -6e-5,2e-5 -14,-13 z"
         inkscape:connector-curvature="0"
         style="opacity:0.2;fill:url(#linearGradient4226);fill-rule:evenodd" />
      <path
         sodipodi:nodetypes="sccccccsssssssccccccccccccc"
         inkscape:connector-curvature="0"
         id="path5346-7-4-5-9-2"
         d="m 768.85718,537.93361 c -5.52285,0 -10,4.47715 -10,10 0.004,2.47767 0.92753,4.86566 2.5918,6.70117 l -9.5918,9.5918 0.70703,0.70703 9.5918,-9.5918 c 1.83551,1.66427 4.2235,2.58787 6.70117,2.5918 5.52285,0 10,-4.47715 10,-10 0,-5.52285 -4.47715,-10 -10,-10 z m 0,1 c 4.97056,0 9,4.02944 9,9 0,4.97056 -4.02944,9 -9,9 -4.97056,0 -9,-4.02944 -9,-9 0,-4.97056 4.02944,-9 9,-9 z m -0.5,3 0,5.5 -5.5,0 0,1 5.5,0 0,5.5 1,0 0,-5.5 5.5,0 0,-1 -5.5,0 0,-5.5 z"
         style="fill:url(#linearGradient5910-3-2-8);fill-opacity:1;stroke:none;stroke-width:2;stroke-miterlimit:4;stroke-dasharray:none;stroke-opacity:1" />
      <path
         inkscape:connector-curvature="0"
         id="path9911"
         d="m 752.85718,523.93361 -16,24 16,0 0,-24 z m 16,38 0,14 32,-14 -32,0 z"
         style="fill:url(#linearGradient9922);fill-opacity:1;fill-rule:evenodd;stroke:none;stroke-width:1px;stroke-linecap:butt;stroke-linejoin:miter;stroke-opacity:1" />
    </g>
  </g>
</svg>
