<?xml version="1.0" encoding="UTF-8" standalone="no"?>
<!-- Created with Inkscape (http://www.inkscape.org/) -->

<svg
   xmlns:dc="http://purl.org/dc/elements/1.1/"
   xmlns:cc="http://creativecommons.org/ns#"
   xmlns:rdf="http://www.w3.org/1999/02/22-rdf-syntax-ns#"
   xmlns:svg="http://www.w3.org/2000/svg"
   xmlns="http://www.w3.org/2000/svg"
   xmlns:xlink="http://www.w3.org/1999/xlink"
   xmlns:sodipodi="http://sodipodi.sourceforge.net/DTD/sodipodi-0.dtd"
   xmlns:inkscape="http://www.inkscape.org/namespaces/inkscape"
   width="64"
   height="64"
   viewBox="0 0 64.000001 64.000001"
   id="svg7266"
   version="1.1"
   inkscape:version="0.91 r13725"
   sodipodi:docname="wobblywindows.svg">
  <defs
     id="defs7268">
    <linearGradient
       id="linearGradient4227">
      <stop
         id="stop6538"
         stop-color="#2e3436" />
      <stop
         id="stop6540-9"
         stop-color="#555753"
         offset="1" />
    </linearGradient>
    <filter
       style="color-interpolation-filters:sRGB"
       inkscape:label="Blur"
       id="filter8065">
      <feGaussianBlur
         stdDeviation="1.5 1.5"
         result="blur"
         id="feGaussianBlur8067" />
    </filter>
    <linearGradient
       y2="502.65509"
       x2="0"
       y1="543.79797"
       gradientTransform="matrix(0.66666726,0,0,0.6351842,456.88661,-137.77421)"
       gradientUnits="userSpaceOnUse"
       id="linearGradient4643-8-7"
       xlink:href="#linearGradient4303-6"
       inkscape:collect="always" />
    <linearGradient
       inkscape:collect="always"
       id="linearGradient4303-6">
      <stop
         stop-color="#c6cdd1"
         id="stop12" />
      <stop
         offset="1"
         stop-color="#e0e5e7"
         id="stop14" />
    </linearGradient>
    <linearGradient
       inkscape:collect="always"
       xlink:href="#linearGradient4293"
       id="linearGradient14415"
       gradientUnits="userSpaceOnUse"
       gradientTransform="translate(328.69647,-337.29297)"
       x1="419.16071"
       y1="532.2265"
       x2="441.16071"
       y2="554.2265" />
    <linearGradient
       inkscape:collect="always"
       id="linearGradient4293">
      <stop
         id="stop7" />
      <stop
         offset="1"
         stop-opacity="0"
         id="stop9" />
    </linearGradient>
    <linearGradient
       inkscape:collect="always"
       xlink:href="#linearGradient4303-6"
       id="linearGradient4643-8-5-9-9-4-3-0-8-7"
       gradientUnits="userSpaceOnUse"
       gradientTransform="matrix(0.66666726,0,0,0.63518419,495.43175,-139.34562)"
       y1="543.79797"
       x2="0"
       y2="502.65509" />
    <linearGradient
       inkscape:collect="always"
       xlink:href="#linearGradient4293"
       id="linearGradient14650"
       gradientUnits="userSpaceOnUse"
       gradientTransform="translate(367.24161,-339.8644)"
       x1="391.57144"
       y1="525.79797"
       x2="406.57147"
       y2="540.79797" />
  </defs>
  <sodipodi:namedview
     id="base"
     pagecolor="#ffffff"
     bordercolor="#666666"
     borderopacity="1.0"
     inkscape:pageopacity="0.0"
     inkscape:pageshadow="2"
     inkscape:zoom="3.959798"
     inkscape:cx="31.367158"
     inkscape:cy="4.0866976"
     inkscape:document-units="px"
     inkscape:current-layer="layer1"
     showgrid="true"
     units="px"
     inkscape:window-width="956"
     inkscape:window-height="1013"
     inkscape:window-x="0"
     inkscape:window-y="0"
     inkscape:window-maximized="0">
    <inkscape:grid
       type="xygrid"
       id="grid7814" />
  </sodipodi:namedview>
  <metadata
     id="metadata7271">
    <rdf:RDF>
      <cc:Work
         rdf:about="">
        <dc:format>image/svg+xml</dc:format>
        <dc:type
           rdf:resource="http://purl.org/dc/dcmitype/StillImage" />
        <dc:title></dc:title>
      </cc:Work>
    </rdf:RDF>
  </metadata>
  <g
     inkscape:label="Ebene 1"
     inkscape:groupmode="layer"
     id="layer1"
     transform="translate(0,-988.36216)">
    <g
       id="g14715"
       transform="translate(-736.85721,830.42855)">
      <path
         sodipodi:nodetypes="ccccc"
         inkscape:connector-curvature="0"
         id="rect29-13"
         d="m 746.85718,163.93361 c 18.03652,1.24104 36.04661,1.5835 54.00006,0 l -10.00006,52 c -17.94592,-1.78397 -35.97262,-0.90213 -53.99994,1e-5 z"
         style="fill:url(#linearGradient4643-8-7)" />
      <path
         sodipodi:nodetypes="ccccc"
         inkscape:connector-curvature="0"
         id="rect31-11"
         transform="translate(736.85718,157.93361)"
         d="M 0.19140625,57 0,58 c 17.8932,-0.854398 35.781895,-1.744838 54,0 l 0.191406,-1 C 36.608578,55.331314 18.430292,56.044455 0.19140625,57 Z"
         style="fill:#99a1a7" />
      <path
         sodipodi:nodetypes="cccccc"
         inkscape:connector-curvature="0"
         style="opacity:0.2;fill:url(#linearGradient14415);fill-rule:evenodd"
         id="path33-7"
         d="m 796.85718,172.93361 -58,40 3,3 c 16.29475,-1.31193 32.62201,-1.51826 49,0 l 8,-41 z" />
      <path
         sodipodi:nodetypes="ccccc"
         inkscape:connector-curvature="0"
         id="rect35-7"
         transform="translate(736.85718,157.93361)"
         d="M 10,6 8.8457031,12 C 26.812629,13.025283 44.796153,13.53606 62.845703,12 L 64,6 C 46.511259,7.3420544 28.430083,7.1289669 10,6 Z"
         style="fill:#566069" />
      <path
         sodipodi:nodetypes="ccccc"
         inkscape:connector-curvature="0"
         id="rect37-5"
         transform="translate(736.85718,157.93361)"
         d="m 8.8457031,12 -0.1914062,1 c 18.0302441,0.937552 36.0518471,1.607247 54.0000001,0 l 0.191406,-1 C 44.69118,13.545233 26.753685,12.920177 8.8457031,12 Z"
         style="fill:#3daee9" />
      <path
         sodipodi:nodetypes="ccccc"
         inkscape:connector-curvature="0"
         id="rect39-3"
         d="m 746.85718,172.93355 c 16.60025,1.09593 33.23446,1.63145 50,6e-5 l -8,39.99999 c -16.51259,-1.61026 -33.24105,-1.02707 -50,0 z"
         style="fill:#ffffff" />
      <rect
         style="fill:#eff0f1"
         id="rect43-9"
         rx="2"
         y="164.93362"
         x="793.85718"
         height="4"
         width="4" />
      <path
         sodipodi:nodetypes="ccccc"
         inkscape:connector-curvature="0"
         id="rect30-5-3-8-4-2-7-9"
         d="m 752.81305,183.93361 31,-4 c -1.04898,7.88029 -1.31659,15.11392 0.0441,21 -8.0887,0.41547 -17.64715,1.42804 -31.04413,4 2.13841,-6.406 0.70071,-13.80536 3e-5,-21 z"
         style="fill:url(#linearGradient4643-8-5-9-9-4-3-0-8-7)" />
      <path
         id="path32-1-3-8-7-2-5-9"
         inkscape:connector-curvature="0"
         d="m 753.81304,203.93361 28.375,-17.9375 0.84375,0.6875 0.82535,14.25 -29.23945,3.77344 z"
         style="opacity:0.2;fill:url(#linearGradient14650);fill-rule:evenodd"
         sodipodi:nodetypes="cccccc" />
      <path
         sodipodi:nodetypes="ccccc"
         inkscape:connector-curvature="0"
         id="rect34-0-53-3-0-0-9-7"
         transform="translate(736.85718,157.93361)"
         d="m 46.955078,22 c -10.860534,0.344832 -21.461124,1.177059 -31,4 0.127729,1.311527 0.284963,2.631343 0.435547,3.949219 9.680905,-2.44331 19.754484,-3.610427 30.101563,-3.888672 0.131087,-1.334188 0.279532,-2.6831 0.46289,-4.060547 z"
         style="fill:#566069" />
      <path
         sodipodi:nodetypes="ccccc"
         inkscape:connector-curvature="0"
         id="rect36-3-1-6-6-1-1-7"
         transform="translate(736.85718,157.93361)"
         d="m 46.492188,26.060547 c -10.181797,0.186655 -20.252249,1.208395 -30.101563,3.888672 0.03761,0.329164 0.07238,0.657333 0.109375,0.986328 10.043017,-2.218033 20.019969,-3.643275 29.896484,-3.863281 0.02951,-0.335157 0.06247,-0.673481 0.0957,-1.011719 z"
         style="fill:#3daee9" />
      <path
         sodipodi:nodetypes="cccccc"
         inkscape:connector-curvature="0"
         id="rect38-8-5-0-0-5-3-83"
         d="m 754.32593,189.93361 c 9.49386,-2.15843 18.76307,-3.30597 27.92456,-3.96875 -0.61575,4.83005 -0.84571,9.38502 0.38795,13.96875 -9.70038,0.32221 -19.29128,1.84875 -28.82538,4 1.07417,-4.15299 1.50354,-9.02769 0.5441,-14 z"
         style="fill:#ffffff" />
      <path
         inkscape:connector-curvature="0"
         id="rect40-3-1-2-1-8-0-4"
         d="m 780.85718,181.43361 c 0.554,0 1,0.446 1,1 0,0.554 -0.446,1 -1,1 -0.554,0 -1,-0.446 -1,-1 0,-0.554 0.446,-1 1,-1 z"
         style="fill:#eff0f1" />
    </g>
  </g>
</svg>
