<?xml version="1.0" encoding="UTF-8" standalone="no"?>
<!-- Created with Inkscape (http://www.inkscape.org/) -->

<svg
   xmlns:dc="http://purl.org/dc/elements/1.1/"
   xmlns:cc="http://creativecommons.org/ns#"
   xmlns:rdf="http://www.w3.org/1999/02/22-rdf-syntax-ns#"
   xmlns:svg="http://www.w3.org/2000/svg"
   xmlns="http://www.w3.org/2000/svg"
   xmlns:xlink="http://www.w3.org/1999/xlink"
   xmlns:sodipodi="http://sodipodi.sourceforge.net/DTD/sodipodi-0.dtd"
   xmlns:inkscape="http://www.inkscape.org/namespaces/inkscape"
   width="64"
   height="64"
   viewBox="0 0 64.000001 64.000001"
   id="svg7266"
   version="1.1"
   inkscape:version="0.91 r13725"
   sodipodi:docname="trackmouse.svg">
  <defs
     id="defs7268">
    <linearGradient
       y2="502.65509"
       x2="0"
       y1="543.79797"
       gradientTransform="matrix(0.66666726,0,0,0.6351842,456.88661,582.22579)"
       gradientUnits="userSpaceOnUse"
       id="linearGradient4643-8-40"
       xlink:href="#linearGradient4303-6"
       inkscape:collect="always" />
    <linearGradient
       inkscape:collect="always"
       id="linearGradient4303-6">
      <stop
         stop-color="#c6cdd1"
         id="stop12" />
      <stop
         offset="1"
         stop-color="#e0e5e7"
         id="stop14" />
    </linearGradient>
    <linearGradient
       gradientUnits="userSpaceOnUse"
       y2="554.2265"
       x2="441.16071"
       y1="532.2265"
       x1="419.16071"
       id="linearGradient4183-0"
       xlink:href="#linearGradient4293"
       inkscape:collect="always"
       gradientTransform="translate(328.69647,382.70703)" />
    <linearGradient
       inkscape:collect="always"
       id="linearGradient4293">
      <stop
         id="stop7" />
      <stop
         offset="1"
         stop-opacity="0"
         id="stop9" />
    </linearGradient>
    <linearGradient
       inkscape:collect="always"
       xlink:href="#linearGradient4526"
       id="linearGradient10730"
       x1="20"
       y1="32.972656"
       x2="42"
       y2="32.972656"
       gradientUnits="userSpaceOnUse"
       gradientTransform="translate(736.85718,877.9336)" />
    <linearGradient
       id="linearGradient4526"
       inkscape:collect="always">
      <stop
         id="stop6552"
         stop-color="#ffc169" />
      <stop
         id="stop6554"
         stop-color="#ffa92d"
         offset="1" />
    </linearGradient>
    <linearGradient
       gradientUnits="userSpaceOnUse"
       y2="4"
       x2="0"
       y1="37"
       id="linearGradient4503"
       xlink:href="#linearGradient4816"
       inkscape:collect="always" />
    <linearGradient
       inkscape:collect="always"
       id="linearGradient4816">
      <stop
         id="stop10565"
         stop-color="#da4453" />
      <stop
         id="stop10567"
         stop-color="#ff7336"
         offset="1" />
    </linearGradient>
    <linearGradient
       gradientUnits="userSpaceOnUse"
       y2="25.40625"
       x2="23.53125"
       y1="22.3125"
       x1="20.4375"
       id="linearGradient4503-6"
       xlink:href="#linearGradient4293"
       inkscape:collect="always" />
  </defs>
  <sodipodi:namedview
     id="base"
     pagecolor="#ffffff"
     bordercolor="#666666"
     borderopacity="1.0"
     inkscape:pageopacity="0.0"
     inkscape:pageshadow="2"
     inkscape:zoom="3.959798"
     inkscape:cx="31.367158"
     inkscape:cy="4.0866976"
     inkscape:document-units="px"
     inkscape:current-layer="layer1"
     showgrid="true"
     units="px"
     inkscape:window-width="956"
     inkscape:window-height="1013"
     inkscape:window-x="0"
     inkscape:window-y="0"
     inkscape:window-maximized="0">
    <inkscape:grid
       type="xygrid"
       id="grid7814" />
  </sodipodi:namedview>
  <metadata
     id="metadata7271">
    <rdf:RDF>
      <cc:Work
         rdf:about="">
        <dc:format>image/svg+xml</dc:format>
        <dc:type
           rdf:resource="http://purl.org/dc/dcmitype/StillImage" />
        <dc:title></dc:title>
      </cc:Work>
    </rdf:RDF>
  </metadata>
  <g
     inkscape:label="Ebene 1"
     inkscape:groupmode="layer"
     id="layer1"
     transform="translate(0,-988.36216)">
    <g
       id="g10732"
       transform="translate(-736.85721,111.57971)">
      <rect
         style="fill:url(#linearGradient4643-8-40)"
         id="rect29-6"
         rx="0"
         width="64"
         height="52.000011"
         x="736.85724"
         y="883.93359" />
      <rect
         style="fill:#99a1a7"
         id="rect31-3"
         y="934.93359"
         x="736.85724"
         height="0.99999797"
         width="63.999939" />
      <path
         inkscape:connector-curvature="0"
         style="opacity:0.2;fill:url(#linearGradient4183-0);fill-rule:evenodd"
         id="path33-9"
         d="m 798.85718,892.9336 -60,40 3,3 59,0 0,-41 -2,-2 z" />
      <rect
         style="fill:#566069"
         id="rect35-5"
         y="883.93359"
         x="736.85718"
         height="5.9999542"
         width="64" />
      <rect
         style="fill:#3daee9"
         id="rect37-0"
         y="889.93359"
         x="736.85718"
         height="1.0000499"
         width="63.999939" />
      <rect
         style="fill:#ffffff"
         id="rect39-49"
         y="892.93359"
         x="738.85718"
         height="40.00005"
         width="60" />
      <rect
         style="fill:#eff0f1"
         id="rect43-1"
         rx="2"
         y="884.93359"
         x="794.85718"
         height="4"
         width="4" />
      <path
         sodipodi:nodetypes="sccccscccsssscccccccsccsssscss"
         inkscape:connector-curvature="0"
         id="path10677"
         d="m 767.85718,899.9336 c -6.07513,0 -11,4.9249 -11,11 0.005,5.6842 4.33939,10.4286 10,10.9453 l 0,-0.9961 c -5.10961,-0.5135 -8.99966,-4.8138 -9,-9.9492 0,-5.5228 4.47715,-10 10,-10 5.52285,0 10,4.4772 10,10 l -0.0156,0 c 0.0156,4 -4.2463,6.9965 -8.35937,7 -4.11528,-7e-4 -8.625,-3 -8.625,-7 0,-3.866 3.13401,-7 7,-7 3.86599,0 7,3.134 7,7 0,2.2092 -2.46243,4 -5.5,4 -3.03757,0 -5.5,-1.7908 -5.5,-4 0.002,-2.0671 2,-4 5,-3.9805 1,-0.019 1.97284,1.3635 2,2.4805 0,1.3807 -0.89543,2.5 -2,2.5 -0.94942,-10e-4 -2,-0.8216 -1.95703,-2 l -1.00781,0 c -0.0352,2 1.47521,2.9975 2.96484,3 1.65685,0 3,-1.567 3,-3.5 0,-1.933 -1.34315,-3.5 -3,-3.5 -4,0 -5.9214,2.424 -6,5 0,2.7614 2.91015,5 6.5,5 3.58985,0 6.5,-2.2386 6.5,-5 0,-4.4183 -3.58172,-8 -8,-8 -4.41828,0 -8,3.5817 -8,8 0,5 4.96177,7.9943 9.625,8 4.66545,0 9.375,-3 9.375,-8 0,-6.0751 -4.92487,-11 -11,-11 z"
         style="fill:url(#linearGradient10730);fill-opacity:1;stroke:none;stroke-width:2;stroke-miterlimit:4;stroke-dasharray:none;stroke-opacity:1" />
      <g
         id="g10598"
         transform="translate(758.85561,877.6313)">
        <path
           id="path10600"
           d="m 33.998141,4.0000036 -2.32998,1.1433323 C 29.336498,6.28749 26.873667,8.8935726 26.873667,8.8935726 l 0.366385,2.9440044 c -0.138214,0.200594 -0.283271,0.414892 -0.429358,0.629254 l -1.036182,-1.856859 -1.685944,2.098446 1.190751,2.042263 c -0.007,0.01055 -0.016,0.02316 -0.02289,0.03371 l -1.491303,-1.693928 c 0,0 -0.970744,1.143227 -3.95009,5.402027 -2.979343,4.258798 -5.441392,9.216873 -5.441392,9.216873 l 0.114513,3.368191 c -0.160296,0.237251 -0.329898,0.494296 -0.486607,0.724761 l -0.469433,-2.758602 -1.036183,1.716401 -0.260474,1.654599 -0.581066,0.699482 c 0,0 -0.962143,3.59886 -0.777767,4.249373 0.184376,0.650512 2.624004,-0.628356 2.624004,-0.628356 l 0.128818,-0.856798 1.975044,-0.634871 -2.198311,-0.438229 c 0.05297,-0.08873 0.117951,-0.196685 0.171733,-0.286536 0.263028,0.08114 0.572702,0.172055 1.153543,0.278107 1.392519,0.254258 2.329979,-0.252823 2.329979,-0.252823 l 1.004697,-1.272554 c 0,0 -0.777223,0.540572 -1.651596,0.699483 -0.861376,0.156545 -2.32595,-0.205336 -2.370053,-0.216305 0.07688,-0.127419 0.15934,-0.264068 0.237578,-0.393284 0.369821,-0.09422 3.70254,-0.963621 5.661795,-2.345653 2.072589,-1.461976 6.185613,-5.975096 6.185613,-5.975096 2e-6,0 -0.992112,-0.0089 -3.129469,-0.04066 -2.01397,-0.02995 -3.794105,-0.01618 -4,0 0.09296,-0.1486 0,-1.000001 0,-1.000001 l 8.586422,-1.344329 c 0,0 0.551994,-1.048869 1.393983,-2.733319 C 29.822393,18.237898 32,14 32,14 c 0,0 -1.462458,-0.04151 -2.767704,-0.221298 -1.245817,-0.1716 -2.425205,-0.471709 -2.536074,-0.500031 0.01508,-0.02315 0.03087,-0.04715 0.0458,-0.07024 0.181331,-0.08387 1.345798,-0.619878 2.215486,-0.890506 0.938861,-0.292152 3.801246,-0.696672 3.801246,-0.696672 0,0 0.02289,-0.404522 0.228991,-1.236034 0.206093,-0.8315125 0.618277,-2.7417463 0.618277,-2.7417463 l -4.98055,2.8063573 c 0.20965,-0.288471 0.407755,-0.5450382 0.612549,-0.8174671 L 33.789214,6.969277 c 0,0 0.0458,-0.584307 0.137386,-1.3483995 C 34.018178,4.856796 33.998143,4 33.998141,4.0000036 Z"
           inkscape:connector-curvature="0"
           style="fill:url(#linearGradient4503);fill-rule:evenodd" />
        <path
           id="path10602"
           d="m 34,4 c 0,0 -4.620614,4.9406035 -9.222089,11.274539 -4.601474,6.333936 -9.267705,13.499315 -13.933784,21.679993 -4.0519049,7.103892 -2.5856438,7.045452 -2.5856438,7.045452 0,0 0.4595098,-1.18371 3.6773598,-6.761361 C 15.011638,31.907204 18.902715,25.022719 25.409918,15.534086 28.511393,11.011597 34,4 34,4 Z"
           inkscape:connector-curvature="0"
           style="fill:#31363b;fill-rule:evenodd" />
        <path
           id="path10604"
           d="m 33.998047,4 -0.707031,0.8828125 -2.57667,3.297716 -3.972158,5.0284555 c 0.181331,-0.08387 1.345155,-0.619997 2.214843,-0.890625 0.938861,-0.292152 3.800782,-0.697265 3.800781,-0.697265 0,0 0.02437,-0.404816 0.230469,-1.236328 0.206093,-0.8315125 0.617188,-2.7421879 0.617188,-2.7421879 L 29.30516,10.051392 C 29.51481,9.7629215 29.713647,9.5074149 29.918441,9.234986 L 33.789062,6.96875 c 0,0 0.04513,-0.5835637 0.136719,-1.3476562 C 34.017361,4.8570123 33.998047,3.9999964 33.998047,4 Z M 26.742188,13.208984 19,24 27.585938,22.65625 c 0,0 0.552542,-1.049925 1.394531,-2.734375 C 29.822455,18.237429 32,14 32,14 c 0,0 -1.462332,-0.04092 -2.767578,-0.220703 -1.245817,-0.1716 -2.42624,-0.471678 -2.53711,-0.5 0.01508,-0.02315 0.03195,-0.04722 0.04688,-0.07031 z M 19,24 11.035156,37.519531 C 11.615562,37.723447 13.5,36.734375 13.5,36.734375 l 0.128906,-0.855469 1.976563,-0.634765 -2.199219,-0.439453 c 0.05297,-0.08873 0.118093,-0.195306 0.171875,-0.285157 0.263028,0.08114 0.573456,0.171292 1.154297,0.277344 1.392519,0.254258 2.328125,-0.251953 2.328125,-0.251953 l 1.005859,-1.273438 c 0,0 -0.77797,0.540308 -1.652344,0.699219 -0.861375,0.156545 -2.325037,-0.205828 -2.36914,-0.216797 0.07688,-0.127419 0.15809,-0.263362 0.236328,-0.392578 0.369821,-0.09422 3.702854,-0.963671 5.662109,-2.345703 2.072589,-1.461976 6.185547,-5.974609 6.185547,-5.974609 2e-6,0 -0.991549,-0.0093 -3.128906,-0.04102 -2.01397,-0.02995 -3.794105,-0.01618 -4,0 0.09296,-0.1486 0,-1 0,-1 z"
           inkscape:connector-curvature="0"
           style="opacity:0.2;fill:url(#linearGradient4503-6);fill-rule:evenodd" />
      </g>
    </g>
  </g>
</svg>
