<?xml version="1.0" encoding="UTF-8" standalone="no"?>
<!-- Created with Inkscape (http://www.inkscape.org/) -->

<svg
   xmlns:dc="http://purl.org/dc/elements/1.1/"
   xmlns:cc="http://creativecommons.org/ns#"
   xmlns:rdf="http://www.w3.org/1999/02/22-rdf-syntax-ns#"
   xmlns:svg="http://www.w3.org/2000/svg"
   xmlns="http://www.w3.org/2000/svg"
   xmlns:xlink="http://www.w3.org/1999/xlink"
   xmlns:sodipodi="http://sodipodi.sourceforge.net/DTD/sodipodi-0.dtd"
   xmlns:inkscape="http://www.inkscape.org/namespaces/inkscape"
   width="64"
   height="64"
   viewBox="0 0 64.000001 64.000001"
   id="svg7266"
   version="1.1"
   inkscape:version="0.91 r13725"
   sodipodi:docname="magiclamp.svg">
  <defs
     id="defs7268">
    <linearGradient
       id="linearGradient4227">
      <stop
         id="stop6538"
         stop-color="#2e3436" />
      <stop
         id="stop6540-9"
         stop-color="#555753"
         offset="1" />
    </linearGradient>
    <filter
       style="color-interpolation-filters:sRGB"
       inkscape:label="Blur"
       id="filter8065">
      <feGaussianBlur
         stdDeviation="1.5 1.5"
         result="blur"
         id="feGaussianBlur8067" />
    </filter>
    <linearGradient
       y2="502.65509"
       x2="0"
       y1="543.79797"
       gradientTransform="matrix(0.66666726,0,0,0.6351842,456.88661,-137.77421)"
       gradientUnits="userSpaceOnUse"
       id="linearGradient4643-8-7-5-3"
       xlink:href="#linearGradient4303-6"
       inkscape:collect="always" />
    <linearGradient
       inkscape:collect="always"
       id="linearGradient4303-6">
      <stop
         stop-color="#c6cdd1"
         id="stop12" />
      <stop
         offset="1"
         stop-color="#e0e5e7"
         id="stop14" />
    </linearGradient>
    <linearGradient
       inkscape:collect="always"
       xlink:href="#linearGradient4293"
       id="linearGradient14415-3-2"
       gradientUnits="userSpaceOnUse"
       gradientTransform="translate(-408.16071,-495.22658)"
       x1="419.16071"
       y1="532.2265"
       x2="441.16071"
       y2="554.2265" />
    <linearGradient
       inkscape:collect="always"
       id="linearGradient4293">
      <stop
         id="stop7" />
      <stop
         offset="1"
         stop-opacity="0"
         id="stop9" />
    </linearGradient>
  </defs>
  <sodipodi:namedview
     id="base"
     pagecolor="#ffffff"
     bordercolor="#666666"
     borderopacity="1.0"
     inkscape:pageopacity="0.0"
     inkscape:pageshadow="2"
     inkscape:zoom="3.959798"
     inkscape:cx="31.367158"
     inkscape:cy="4.0866976"
     inkscape:document-units="px"
     inkscape:current-layer="layer1"
     showgrid="true"
     units="px"
     inkscape:window-width="956"
     inkscape:window-height="1013"
     inkscape:window-x="0"
     inkscape:window-y="0"
     inkscape:window-maximized="0">
    <inkscape:grid
       type="xygrid"
       id="grid7814" />
  </sodipodi:namedview>
  <metadata
     id="metadata7271">
    <rdf:RDF>
      <cc:Work
         rdf:about="">
        <dc:format>image/svg+xml</dc:format>
        <dc:type
           rdf:resource="http://purl.org/dc/dcmitype/StillImage" />
        <dc:title></dc:title>
      </cc:Work>
    </rdf:RDF>
  </metadata>
  <g
     inkscape:label="Ebene 1"
     inkscape:groupmode="layer"
     id="layer1"
     transform="translate(0,-988.36216)">
    <g
       id="g14979"
       transform="translate(-736.36246,830.42855)">
      <path
         sodipodi:nodetypes="ccsccscc"
         inkscape:connector-curvature="0"
         id="rect29-13-2-0"
         d="m 736.85724,163.93361 62.99994,0 c -0.12114,2.31137 0.12805,4.78875 -1.09231,7.36806 -7.61878,16.10288 -33.5362,36.17846 -38.75864,44.63194 1.14905,-0.0884 -17.08655,-0.0624 -17.08655,-0.0624 1.96291,-13.84468 -0.26097,-29.52142 -4.14391,-44.83906 -0.60269,-2.37753 -0.91859,-4.09854 -0.91859,-7.09854 z"
         style="fill:url(#linearGradient4643-8-7-5-3)" />
      <path
         id="rect31-11-3-8"
         transform="translate(736.85718,157.93361)"
         d="m 6.1738281,57 c -0.039728,0.311338 -0.067443,0.627969 -0.1113281,0.9375 0,0 18.234987,-0.0259 17.085938,0.0625 0.19573,-0.316826 0.423964,-0.651345 0.675781,-1 L 6.1738281,57 Z"
         style="fill:#99a1a7"
         inkscape:connector-curvature="0" />
      <path
         id="path33-7-8-5"
         transform="translate(736.85718,157.93361)"
         d="M 58,15 8.625,55 10.949219,57.935547 C 16.145997,57.932817 23.984656,57.935667 23.148438,58 27.989805,50.163357 50.605203,32.339535 59.951172,16.951172 L 58,15 Z"
         style="opacity:0.2;fill:url(#linearGradient14415-3-2);fill-rule:evenodd"
         inkscape:connector-curvature="0" />
      <path
         sodipodi:nodetypes="ccccc"
         inkscape:connector-curvature="0"
         id="rect35-7-6-5"
         transform="translate(736.85718,157.93361)"
         d="m 1,6 c 0,2 0.1090604,3.9921438 0.6289062,6 L 62.498047,12 C 63.126968,9.858766 63,8.3525389 63,6 Z"
         style="fill:#566069" />
      <path
         id="rect37-5-9-7"
         transform="translate(736.85718,157.93361)"
         d="m 1.6289062,12 c 0.086416,0.333773 0.1768508,0.665858 0.2617188,1 l 60.177734,0 c 0.153521,-0.335721 0.292817,-0.668008 0.429688,-1 L 1.6289062,12 Z"
         style="fill:#3daee9"
         inkscape:connector-curvature="0" />
      <path
         sodipodi:nodetypes="cccccc"
         inkscape:connector-curvature="0"
         id="rect39-3-6-9"
         d="m 742.85718,172.93355 52,0 c -3.00171,11.60897 -28.28023,27.64388 -35,40.00006 l -14.375,0 c 0.6039,-9.31085 0.74937,-24.72708 -2.625,-40.00007 z"
         style="fill:#ffffff" />
      <path
         id="rect43-9-7-7"
         d="m 796.85718,164.93362 c 1.108,0 2,0.892 2,2 0,1.108 -0.892,2 -2,2 -1.108,0 -2,-0.892 -2,-2 0,-1.108 0.892,-2 2,-2 z"
         style="fill:#eff0f1"
         inkscape:connector-curvature="0" />
    </g>
  </g>
</svg>
