<?xml version="1.0" encoding="UTF-8" standalone="no"?>
<svg
   id="mdi-remote-desktop"
   viewBox="0 0 24 24"
   version="1.1"
   sodipodi:docname="remote-desktop.svg"
   inkscape:version="1.3.2 (091e20ef0f, 2023-11-25, custom)"
   xmlns:inkscape="http://www.inkscape.org/namespaces/inkscape"
   xmlns:sodipodi="http://sodipodi.sourceforge.net/DTD/sodipodi-0.dtd"
   xmlns="http://www.w3.org/2000/svg"
   xmlns:svg="http://www.w3.org/2000/svg">
  <defs
     id="defs1" />
  <sodipodi:namedview
     id="namedview1"
     pagecolor="#ffffff"
     bordercolor="#666666"
     borderopacity="1.0"
     inkscape:showpageshadow="2"
     inkscape:pageopacity="0.0"
     inkscape:pagecheckerboard="0"
     inkscape:deskcolor="#d1d1d1"
     inkscape:zoom="33.666667"
     inkscape:cx="11.985149"
     inkscape:cy="12"
     inkscape:window-width="2560"
     inkscape:window-height="1023"
     inkscape:window-x="0"
     inkscape:window-y="0"
     inkscape:window-maximized="1"
     inkscape:current-layer="mdi-remote-desktop" />
  <path
     d="M3,2A2,2 0 0,0 1,4V16C1,17.11 1.9,18 3,18H10V20H8V22H16V20H14V18H21A2,2 0 0,0 23,16V4A2,2 0 0,0 21,2M3,4H21V16H3M15,5L11.5,8.5L15,12L16.4,10.6L14.3,8.5L16.4,6.4M9,8L7.6,9.4L9.7,11.5L7.6,13.6L9,15L12.5,11.5"
     id="path1"
     style="fill:#f2f2f2" />
</svg>
