<svg height="64" width="64" xmlns="http://www.w3.org/2000/svg" xmlns:xlink="http://www.w3.org/1999/xlink">
    <linearGradient id="a" gradientTransform="matrix(1 0 0 .99967 0 .176)" gradientUnits="userSpaceOnUse" x2="0" y1="541.798" y2="499.784">
        <stop offset="0" stop-color="#3daee9"/>
        <stop offset="1" stop-color="#6cc1ef"/>
    </linearGradient>
    <path d="m4 6v27c0 .554.446 1 1 1h54c.554 0 1-.446 1-1v-21.99l-.002-.01h.002v-1h-28l-4-4z" fill="#147eb8"/>
    <path d="m410.571 499.798-4 4h-19v1h.002l-.002.012v36.988h58v-42z" fill="url(#a)" transform="translate(-384.571 -483.798)"/>
    <g fill-opacity=".235">
        <path d="m3 20v1h20l3-5-4 4z" fill="#fff" fill-rule="evenodd"/>
        <path d="m4 19v1h18l4-4-6 3z" fill-rule="evenodd"/>
        <path d="m3 57v1h58v-1h-57z"/>
        <path d="m28 6 3 5h29v-1h-28z" fill="#fff" fill-rule="evenodd"/>
    </g>
    <g fill="#1272a5">
        <path d="m25 30c-2.21 0-4 2.685-4 5.999v6.998c0 1.78 2.154 2.673 3.414 1.413l2.414-2.413h.676a2.5 2.5 0 0 0 1.996 1 2.5 2.5 0 0 0 1.992-1h.906a2.5 2.5 0 0 0 1.997 1 2.5 2.5 0 0 0 1.992-1h.785l2.414 2.413c1.26 1.26 3.414.367 3.414-1.413v-6.998c0-3.314-1.79-5.999-4-5.999zm0 1h14c1.657 0 3 2.238 3 4.999v6.998c0 .89-1.077 1.336-1.707.707l-2.707-2.707h-1.779a1.5 1.5 0 0 1 -1.412 1 1.5 1.5 0 0 1 -1.395-.955v-.045h-2.088a1.5 1.5 0 0 1 -1.412 1 1.5 1.5 0 0 1 -1.412-1h-1.674l-2.707 2.707c-.63.63-1.707.184-1.707-.707v-6.998c0-2.76 1.343-5 3-5z"/>
        <path d="m25 31.996v2h-2v2h2v2h2v-2h2v-2h-2v-2zm11 7.5a1.5 1.5 0 0 1 -1.5 1.5 1.5 1.5 0 0 1 -1.5-1.5 1.5 1.5 0 0 1 1.5-1.5 1.5 1.5 0 0 1 1.5 1.5zm-5 0a1.5 1.5 0 0 1 -1.5 1.5 1.5 1.5 0 0 1 -1.5-1.5 1.5 1.5 0 0 1 1.5-1.5 1.5 1.5 0 0 1 1.5 1.5zm8-2.5a1 1 0 0 1 -1 1 1 1 0 0 1 -1-1 1 1 0 0 1 1-1 1 1 0 0 1 1 1zm2-2a1 1 0 0 1 -1 1 1 1 0 0 1 -1-1 1 1 0 0 1 1-1 1 1 0 0 1 1 1zm-2-2a1 1 0 0 1 -1 1 1 1 0 0 1 -1-1 1 1 0 0 1 1-1 1 1 0 0 1 1 1zm-2 2a1 1 0 0 1 -1 1 1 1 0 0 1 -1-1 1 1 0 0 1 1-1 1 1 0 0 1 1 1z"/>
    </g>
</svg>
