<?xml version="1.0" encoding="UTF-8" standalone="no"?>

<!-- Created with Inkscape (http://www.inkscape.org/) -->
<svg width="64" version="1.1" xmlns="http://www.w3.org/2000/svg" height="64" xmlns:xlink="http://www.w3.org/1999/xlink" xmlns:inkscape="http://www.inkscape.org/namespaces/inkscape">
 <defs id="defs5455">
  <linearGradient inkscape:collect="always" id="linearGradient4172-8">
   <stop style="stop-color:#3daee9" id="stop4174-0"/>
   <stop offset="1" style="stop-color:#6cc1ef" id="stop4176-2"/>
  </linearGradient>
  <linearGradient inkscape:collect="always" id="linearGradient4178-8" xlink:href="#linearGradient4172-8" y1="541.79797" y2="499.78421" gradientUnits="userSpaceOnUse" x2="0" gradientTransform="matrix(1 0 0 0.99967455 0 0.17645)"/>
 </defs>
 <metadata id="metadata5458"/>
 <g inkscape:label="Capa 1" inkscape:groupmode="layer" id="layer1" transform="matrix(1 0 0 1 -384.57143 -483.798)">
  <g inkscape:label="Capa 1" id="layer1-91" transform="matrix(1 0 0 1 0 0.000005)">
   <path inkscape:connector-curvature="0" style="fill:#147eb8" id="rect4180-5" d="m 388.57143,489.79812 0,5 0,22 c 0,0.55373 0.446,1 1,1 l 54,0 c 0.55399,0 1,-0.44627 1,-1 l 0,-21.99023 c 0,-0.003 -0.002,-0.006 -0.002,-0.01 l 0.002,0 0,-1 -28,0 -4,-4 -24,0 z"/>
   <path inkscape:connector-curvature="0" style="fill:url(#linearGradient4178-8)" id="rect4113-6" d="m 410.57143,499.79812 -4,4 -19,0 0,1 0.002,0 c -5e-5,0.004 -0.002,0.008 -0.002,0.0117 l 0,35.98828 0,1 1,0 56,0 1,0 0,-1 0,-35.98828 0,-0.0117 0,-5 z"/>
   <path inkscape:connector-curvature="0" style="fill:#ffffff;fill-opacity:0.235294;fill-rule:evenodd" id="path4224-4" d="m 387.57144,503.79812 0,1 19.99999,0 3,-5 -4,4 z"/>
   <path inkscape:connector-curvature="0" style="fill-opacity:0.235294;fill-rule:evenodd" id="path4228-9" d="m 388.57143,502.79812 0,1 18,0 4,-4 -6,3 z"/>
   <path inkscape:connector-curvature="0" style="fill-opacity:0.235294" id="path4151-2-7" d="m 387.57143,540.7981 0,1 1,0 56,0 1,0 0,-1 -1,0 -56,0 -1,0 z"/>
   <path inkscape:connector-curvature="0" style="fill:#ffffff;fill-opacity:0.235294;fill-rule:evenodd" id="path4196-4" d="m 28,6 3,5 2,0 27,0 0,-1 -27,0 -1,0 z" transform="matrix(1 0 0 1 384.57143 483.798)"/>
  </g>
  <path style="fill:#1272a5" id="rect4129" d="M 29 27 C 26.78401 27 25 28.78401 25 31 C 25 33.21599 26.78401 35 29 35 C 31.21599 35 33 33.21599 33 31 C 33 28.78401 31.21599 27 29 27 z M 29 28 C 30.66199 28 32 29.33801 32 31 C 32 32.66199 30.66199 34 29 34 C 27.33801 34 26 32.66199 26 31 C 26 29.33801 27.33801 28 29 28 z M 38 28 C 36.338 28 35 29.338 35 31 C 35 32.662 36.338 34 38 34 C 39.662 34 41 32.662 41 31 C 41 29.338 39.662 28 38 28 z M 38 29 C 39.108 29 40 29.892 40 31 C 40 32.108 39.108 33 38 33 C 36.892 33 36 32.108 36 31 C 36 29.892 36.892 29 38 29 z M 38 35 C 36.892 35 35.892922 35.446922 35.169922 36.169922 L 35.876953 36.876953 C 36.419203 36.334703 37.169 36 38 36 C 39.662 36 41 37.338 41 39 L 41 42 L 38 42 L 38 43 L 42 43 L 42 39 C 42 36.784 40.216 35 38 35 z M 29 36 C 25.122 36 22 39.122 22 43 L 22 47 L 36 47 L 36 43 C 36 39.122 32.878 36 29 36 z M 29 37 C 32.324 37 35 39.676 35 43 L 35 46 L 23 46 L 23 43 C 23 39.676 25.676 37 29 37 z " transform="matrix(1 0 0 1 384.57143 483.798)"/>
 </g>
</svg>
