<svg height="64" width="64" xmlns="http://www.w3.org/2000/svg">
    <linearGradient id="a" gradientUnits="userSpaceOnUse" x1="3" x2="3" y1="58" y2="16">
        <stop offset="0" stop-color="#3daee9"/>
        <stop offset="1" stop-color="#6cc1ef"/>
    </linearGradient>
    <path d="M4 6v27c0 .554.446 1 1 1h54c.554 0 1-.446 1-1V11.01l-.002-.01H60v-1H32l-4-4z" fill="#147eb8"/>
    <path d="M3 20v38h58V16H26l-4 4z" fill="url(#a)"/>
    <g fill-opacity=".235">
        <path d="M3 20v1h20l3-5-4 4zM28 6l3 5h29v-1H32z" fill="#fff"/>
        <path d="M4 19v1h18l4-4-6 3zM3 57v1h58v-1z" fill="#000"/>
    </g>
    <path d="M34 27h-2L22 47h2zm-2 19h10v1H32z" fill="#1272a5"/>
</svg>
