<?xml version="1.0" encoding="UTF-8" standalone="no"?>

<!-- Created with Inkscape (http://www.inkscape.org/) -->
<svg width="64" version="1.1" xmlns="http://www.w3.org/2000/svg" height="64" xmlns:xlink="http://www.w3.org/1999/xlink" xmlns:inkscape="http://www.inkscape.org/namespaces/inkscape">
 <defs id="defs5455">
  <linearGradient inkscape:collect="always" id="linearGradient4178" xlink:href="#linearGradient4172-5" y1="541.79797" y2="499.78421" gradientUnits="userSpaceOnUse" x2="0" gradientTransform="matrix(1 0 0 0.99967455 0 0.17645)"/>
  <linearGradient inkscape:collect="always" id="linearGradient4172-5">
   <stop style="stop-color:#3daee9" id="stop4174-6"/>
   <stop offset="1" style="stop-color:#6cc1ef" id="stop4176-6"/>
  </linearGradient>
 </defs>
 <metadata id="metadata5458"/>
 <g inkscape:label="Capa 1" inkscape:groupmode="layer" id="layer1" transform="matrix(1 0 0 1 -384.57143 -483.798)">
  <g inkscape:label="Capa 1" id="layer1-9" transform="matrix(1 0 0 1 0 0.000005)">
   <path inkscape:connector-curvature="0" style="fill:#147eb8" id="rect4180" d="m 388.57143,489.79812 0,5 0,22 c 0,0.55373 0.446,1 1,1 l 54,0 c 0.55399,0 1,-0.44627 1,-1 l 0,-21.99023 c 0,-0.003 -0.002,-0.006 -0.002,-0.01 l 0.002,0 0,-1 -28,0 -4,-4 -24,0 z"/>
   <path inkscape:connector-curvature="0" style="fill:url(#linearGradient4178)" id="rect4113" d="m 410.57143,499.79812 -4,4 -19,0 0,1 0.002,0 c -5e-5,0.004 -0.002,0.008 -0.002,0.0117 l 0,35.98828 0,1 1,0 56,0 1,0 0,-1 0,-35.98828 0,-0.0117 0,-5 z"/>
   <path inkscape:connector-curvature="0" style="fill:#ffffff;fill-opacity:0.235294;fill-rule:evenodd" id="path4224" d="m 387.57144,503.79812 0,1 19.99999,0 3,-5 -4,4 z"/>
   <path inkscape:connector-curvature="0" style="fill-opacity:0.235294;fill-rule:evenodd" id="path4228" d="m 388.57143,502.79812 0,1 18,0 4,-4 -6,3 z"/>
   <path inkscape:connector-curvature="0" style="fill-opacity:0.235294" id="path4151-2" d="m 387.57143,540.7981 0,1 1,0 56,0 1,0 0,-1 -1,0 -56,0 -1,0 z"/>
   <path inkscape:connector-curvature="0" style="fill:#ffffff;fill-opacity:0.235294;fill-rule:evenodd" id="path4196" d="m 28,6 3,5 2,0 27,0 0,-1 -27,0 -1,0 z" transform="matrix(1 0 0 1 384.57143 483.798)"/>
  </g>
  <path style="fill:#1272a5;color:#000000" id="path26" d="M 32 27 C 31.65375 27 31.305737 27.028481 30.96875 27.0625 C 30.294775 27.130537 29.658271 27.243291 29.03125 27.4375 C 25.896143 28.408545 23.408545 30.896143 22.4375 34.03125 C 22.243291 34.658271 22.130537 35.294775 22.0625 35.96875 C 22.028481 36.305737 22 36.65375 22 37 C 22 37.34625 22.028481 37.694263 22.0625 38.03125 C 22.130537 38.705225 22.243291 39.341729 22.4375 39.96875 C 23.408545 43.103857 25.896143 45.591455 29.03125 46.5625 C 29.658271 46.756709 30.294775 46.869463 30.96875 46.9375 C 31.305737 46.971519 31.65375 47 32 47 C 32.34625 47 32.694263 46.971519 33.03125 46.9375 C 33.705225 46.869463 34.341729 46.756709 34.96875 46.5625 C 35.595009 46.367713 36.214477 46.08914 36.78125 45.78125 C 39.048711 44.552539 40.785664 42.476836 41.5625 39.96875 C 41.756709 39.341729 41.869463 38.705225 41.9375 38.03125 C 41.971519 37.694263 42 37.34625 42 37 C 42 36.654822 41.97164 36.304921 41.9375 35.96875 C 41.869463 35.294775 41.756709 34.658271 41.5625 34.03125 C 41.174082 32.777207 40.532637 31.612012 39.71875 30.625 C 39.514956 30.378059 39.288706 30.163706 39.0625 29.9375 C 38.15875 29.03375 37.103437 28.285938 35.90625 27.78125 C 35.607154 27.654743 35.28188 27.534893 34.96875 27.4375 C 34.341729 27.243291 33.705225 27.130537 33.03125 27.0625 C 32.694263 27.028481 32.34625 27 32 27 z M 32 28 C 33.513307 28 34.935817 28.371409 36.1875 29.03125 C 36.22058 29.048688 36.248415 29.075913 36.28125 29.09375 C 36.306591 29.12728 36.299235 29.16296 36.34375 29.1875 C 36.37645 29.2057 36.4067 29.2337 36.4375 29.25 C 36.4902 29.2791 36.54215 29.32405 36.53125 29.375 C 36.51675 29.4495 36.39465 29.44544 36.34375 29.5 C 36.35075 29.60542 36.30845 29.58537 36.28125 29.65625 C 36.29765 29.70175 36.33655 29.6955 36.34375 29.75 C 36.33475 29.8082 36.2594 29.81503 36.28125 29.875 C 36.37945 29.9514 36.46978 29.8877 36.5625 29.875 C 36.76612 29.8495 36.93705 29.87935 37.0625 29.78125 C 37.049254 29.703469 37.123557 29.681254 37.15625 29.625 C 37.222621 29.671529 37.278709 29.732991 37.34375 29.78125 C 37.30555 29.79765 37.22205 29.82195 37.1875 29.84375 C 37.1366 29.87825 37.12073 29.93059 37.0625 29.96875 C 37.0207 29.99785 36.91864 30.09375 36.875 30.09375 C 36.8223 30.09375 36.72568 30.0498 36.6875 30.0625 C 36.6329 30.0789 36.65545 30.16569 36.59375 30.1875 C 36.47376 30.2311 36.26056 30.0701 36.21875 30.25 C 36.26965 30.3536 36.44035 30.31867 36.53125 30.375 C 36.58765 30.4114 36.67296 30.59445 36.6875 30.65625 C 36.702 30.70715 36.7093 30.88298 36.6875 30.9375 C 36.6311 31.0829 36.47975 31.06614 36.3125 31.0625 C 36.267 31.0625 36.22935 31.0665 36.1875 31.0625 C 35.90571 31.0443 35.62727 30.95452 35.5 31.15625 C 35.509 31.31074 35.5346 31.39675 35.5 31.53125 C 35.4746 31.62935 35.36954 31.69582 35.375 31.78125 C 35.377 31.82485 35.45785 31.90876 35.46875 31.96875 C 35.47575 32.00145 35.45415 32.06472 35.46875 32.09375 C 35.51605 32.18285 35.63512 32.07925 35.71875 32.09375 C 35.79875 32.10645 35.875 32.22344 35.875 32.3125 C 35.875 32.3761 35.8525 32.5007 35.8125 32.5625 C 35.7325 32.68245 35.58329 32.65331 35.46875 32.71875 C 35.37425 32.77325 35.33761 32.90548 35.28125 33 C 35.22125 33.10178 35.16383 33.13585 35.1875 33.28125 C 35.1057 33.44301 35.01282 33.54684 34.84375 33.625 C 34.79465 33.6468 34.73295 33.68605 34.6875 33.71875 C 34.6511 33.74415 34.61345 33.78551 34.5625 33.84375 C 34.4989 33.91465 34.40954 33.94547 34.375 34 C 34.3495 34.0418 34.37095 34.13116 34.34375 34.1875 C 34.30375 34.2639 34.2384 34.32991 34.1875 34.40625 C 34.1639 34.44265 34.11915 34.48391 34.09375 34.53125 C 34.03555 34.63667 33.95784 34.71981 33.96875 34.8125 C 33.97775 34.9016 34.0883 34.92184 34.09375 35 C 34.09875 35.0436 34.0607 35.07773 34.0625 35.125 C 34.0645 35.1941 34.08835 35.22672 34.09375 35.28125 C 34.10645 35.41575 34.0254 35.4698 34 35.5625 C 33.9873 35.6061 34.0109 35.65297 34 35.6875 C 33.9782 35.7548 33.87682 35.79503 33.875 35.875 C 33.873 35.9314 33.96335 35.98257 33.96875 36.0625 C 33.97275 36.117 33.9266 36.16786 33.9375 36.21875 C 33.9575 36.31695 34.1424 36.45491 34.21875 36.53125 C 34.32238 36.63486 34.42331 36.70344 34.46875 36.8125 C 34.50695 36.9052 34.5229 37.05593 34.59375 37.125 C 34.64645 37.1759 34.74524 37.19733 34.8125 37.25 C 34.8761 37.2991 34.96398 37.32226 35.03125 37.375 C 35.14215 37.4623 35.29239 37.63773 35.46875 37.625 C 35.56145 37.618 35.64637 37.5806 35.75 37.5625 C 35.85726 37.5443 35.98467 37.4891 36.09375 37.5 C 36.17735 37.509 36.25649 37.568 36.34375 37.5625 C 36.43465 37.5575 36.55263 37.51415 36.65625 37.46875 C 36.83624 37.39055 37.11321 37.24308 37.375 37.28125 C 37.57498 37.31035 37.57876 37.53594 37.71875 37.625 C 37.87873 37.6395 37.99774 37.5941 38.125 37.625 C 38.2214 37.6486 38.33466 37.82992 38.34375 37.90625 C 38.35275 37.98445 38.29215 38.04468 38.28125 38.09375 C 38.25585 38.19917 38.23685 38.339 38.21875 38.40625 C 38.20425 38.45895 38.1857 38.50979 38.1875 38.5625 C 38.1875 38.6098 38.26336 38.71945 38.3125 38.78125 C 38.3725 38.85765 38.45853 38.91639 38.53125 39 C 38.66397 39.15267 38.71978 39.36074 38.8125 39.5625 C 38.8361 39.6134 38.7907 39.62387 38.8125 39.6875 C 38.7725 39.99286 38.66873 40.19318 38.46875 40.53125 C 38.37425 40.6403 38.27943 40.76994 38.28125 40.90625 C 38.27425 41.23341 38.45205 41.40249 38.4375 41.71875 C 38.4048 42.14406 38.43905 42.21031 38.40625 42.4375 C 38.54988 42.5102 38.4793 42.72414 38.4375 42.875 C 38.3757 43.05493 38.31579 43.09879 38.28125 43.21875 C 38.355809 43.250997 38.418288 43.259077 38.5 43.25 C 36.862545 44.95242 34.548632 46 32 46 C 30.807001 46 29.66687 45.765291 28.625 45.34375 C 28.621504 45.342335 28.628494 45.313919 28.625 45.3125 C 28.7195 45.2725 28.89967 45.3827 28.96875 45.25 C 29.00335 45.1864 28.92325 45.06362 28.96875 45 C 29.00145 44.9564 29.21399 44.91715 29.28125 44.90625 C 29.37765 44.88985 29.47671 44.9096 29.53125 44.875 C 29.59125 44.8368 29.66716 44.73769 29.65625 44.625 C 29.65125 44.5723 29.6042 44.54724 29.5625 44.5 C 29.528 44.46 29.55485 44.41137 29.53125 44.375 C 29.48765 44.3114 29.42443 44.28026 29.40625 44.1875 C 29.53715 44.1621 29.71718 44.33399 29.90625 44.28125 C 29.99535 44.25575 30.14568 44.0836 30.1875 44 C 30.2002 43.9745 30.173 43.8747 30.1875 43.84375 C 30.2039 43.80925 30.2445 43.79935 30.25 43.78125 C 30.2627 43.73215 30.2391 43.7183 30.25 43.6875 C 30.2827 43.5948 30.38295 43.536 30.4375 43.46875 C 30.4793 43.41785 30.52427 43.36521 30.5625 43.3125 C 30.6061 43.2561 30.62725 43.23665 30.65625 43.1875 C 30.68355 43.0221 30.55375 42.8954 30.59375 42.75 C 30.63735 42.58642 30.87309 42.48077 31.03125 42.40625 C 31.08575 42.38075 31.14205 42.3288 31.1875 42.3125 C 31.29658 42.2743 31.42944 42.2863 31.53125 42.25 C 31.70215 42.1882 31.76011 42.00005 31.84375 41.84375 C 31.88375 41.77105 31.9302 41.70896 31.9375 41.65625 C 31.9445 41.60895 31.9285 41.55456 31.9375 41.5 C 31.9465 41.4455 31.95425 41.40373 31.96875 41.34375 C 31.98875 41.26555 32 41.11849 32 41.03125 C 32 40.95855 31.97055 40.94043 31.96875 40.875 C 31.95605 40.63872 32.03775 40.62904 32.125 40.5 C 32.1686 40.4364 32.18795 40.32668 32.21875 40.28125 C 32.36601 40.06314 32.61193 39.95579 32.59375 39.625 C 32.58675 39.51594 32.54871 39.28454 32.46875 39.25 C 32.42325 39.23 32.31727 39.24415 32.25 39.21875 C 32.03547 39.13875 31.87986 38.89317 31.65625 38.875 C 31.60895 38.873 31.58399 38.877 31.53125 38.875 C 31.44395 38.873 31.34817 38.79215 31.25 38.78125 C 31.1882 38.77425 31.06761 38.79945 31.03125 38.78125 C 30.97485 38.75395 30.9829 38.6559 30.9375 38.625 C 30.9011 38.5995 30.8376 38.5825 30.78125 38.5625 C 30.69215 38.528 30.63488 38.5073 30.53125 38.5 C 30.49855 38.498 30.41133 38.505 30.375 38.5 C 30.3186 38.491 30.27147 38.43895 30.21875 38.40625 C 30.15335 38.36625 30.12102 38.33761 30.09375 38.28125 C 30.15375 38.08495 29.94625 38.052 29.90625 37.9375 C 29.88805 37.8848 29.92445 37.79726 29.90625 37.75 C 29.88265 37.6827 29.82455 37.65008 29.75 37.59375 C 29.6191 37.49196 29.49976 37.39862 29.3125 37.375 C 29.2289 37.366 29.13124 37.382 29.03125 37.375 C 28.92581 37.368 28.79874 37.30961 28.71875 37.21875 C 28.64235 37.12965 28.62976 37.0418 28.5625 37 C 28.4989 36.96 28.38738 36.94795 28.34375 36.90625 C 28.32375 36.88805 28.3307 36.8542 28.3125 36.8125 C 28.2798 36.747 28.21 36.73618 28.25 36.65625 C 28.1773 36.61985 28.20317 36.7021 28.125 36.6875 C 28.0541 36.5875 28.00373 36.5316 27.84375 36.5625 C 27.77105 36.577 27.71045 36.68569 27.625 36.6875 C 27.5541 36.6895 27.49897 36.57522 27.40625 36.5625 C 27.33535 36.5535 27.23659 36.6359 27.1875 36.625 C 27.1093 36.6105 27.10211 36.51609 27.03125 36.46875 C 26.97855 36.43415 26.87284 36.34194 26.84375 36.34375 C 26.75285 36.34575 26.68794 36.536 26.5625 36.46875 C 26.5007 36.39055 26.66651 36.38516 26.59375 36.3125 C 26.53925 36.258 26.51241 36.31475 26.46875 36.34375 C 26.41785 36.37825 26.36885 36.4176 26.3125 36.4375 C 26.18705 36.4848 26.09817 36.48045 26 36.53125 C 25.9091 36.57855 25.89647 36.6573 25.84375 36.75 C 25.80195 36.8264 25.71988 36.93386 25.65625 36.9375 C 25.57985 36.9425 25.50659 36.84157 25.4375 36.8125 C 25.22843 36.7216 25.11021 36.8732 24.9375 36.875 C 24.77751 36.877 24.55523 36.61962 24.5625 36.46875 C 24.5675 36.37605 24.6141 36.2395 24.625 36.125 C 24.634 36.0341 24.71705 35.95861 24.71875 35.875 C 24.72075 35.76413 24.54147 35.66898 24.46875 35.65625 C 24.29785 35.62535 24.06953 35.73265 23.875 35.65625 C 23.8386 35.59445 23.94695 35.55999 23.96875 35.5 C 23.98145 35.4655 23.95605 35.44445 23.96875 35.40625 C 23.99055 35.34805 24.06649 35.3118 24.09375 35.25 C 24.11375 35.2027 24.105 35.12067 24.125 35.0625 C 24.1486 34.997 24.21325 34.95351 24.21875 34.90625 C 24.22575 34.84445 24.174 34.75874 24.125 34.71875 C 23.9741 34.72775 23.86852 34.74165 23.78125 34.78125 C 23.58491 34.87035 23.63567 35.12571 23.4375 35.1875 C 23.3702 35.2093 23.26386 35.2373 23.1875 35.25 C 23.316813 34.595726 23.518453 33.969954 23.78125 33.375 C 23.85035 33.3877 23.90876 33.432 23.96875 33.4375 C 24.13601 33.4502 24.14307 33.3227 24.28125 33.25 C 24.42306 33.27 24.49592 33.2355 24.625 33.25 C 24.7123 33.259 24.83717 33.36955 24.90625 33.375 C 24.96445 33.377 24.9767 33.3034 25.03125 33.3125 C 25.08575 33.3215 25.17841 33.43456 25.1875 33.5 C 25.1965 33.5818 25.13255 33.65912 25.15625 33.75 C 25.24175 33.8373 25.40944 33.88661 25.53125 33.9375 C 25.61125 33.872 25.54395 33.71952 25.53125 33.625 C 25.52925 33.5832 25.53625 33.53824 25.53125 33.5 C 25.52225 33.4346 25.5 33.36884 25.5 33.3125 C 25.5 33.05259 25.70047 32.94554 25.875 32.84375 C 25.9495 32.80015 26.0283 32.72022 26.09375 32.6875 C 26.18645 32.642 26.23614 32.63735 26.3125 32.59375 C 26.45066 32.51555 26.58023 32.43282 26.6875 32.34375 C 26.7366 32.22562 26.6825 32.08507 26.6875 31.96875 C 26.7366 31.93785 26.75983 31.97375 26.8125 31.96875 C 26.8961 31.95055 26.92147 31.8285 26.96875 31.78125 C 26.99605 31.75395 27.09224 31.74595 27.125 31.71875 C 27.2086 31.65325 27.2085 31.56034 27.28125 31.53125 C 27.30675 31.52225 27.3662 31.5109 27.40625 31.5 C 27.46085 31.4855 27.53774 31.43705 27.625 31.40625 C 27.6814 31.38625 27.82193 31.3968 27.84375 31.375 C 27.87105 31.3477 27.83675 31.22931 27.84375 31.1875 C 27.88735 30.98212 28.19138 30.97533 28.375 30.90625 C 28.50226 30.85715 28.63944 30.75398 28.78125 30.78125 C 28.75395 30.87935 28.63261 30.85059 28.65625 30.96875 C 28.68715 31.13415 28.87932 30.92985 28.9375 30.90625 C 29.0484 30.85895 29.2608 30.83399 29.40625 30.78125 C 29.53351 30.73585 29.74498 30.64722 29.625 30.5 C 29.525 30.493 29.49351 30.58864 29.40625 30.625 C 29.34625 30.634 29.33212 30.59735 29.28125 30.59375 C 29.23215 30.59175 29.20539 30.6341 29.15625 30.625 C 29.10715 30.616 29.03852 30.52691 29.03125 30.46875 C 29.01125 30.31608 29.1882 30.26894 29.25 30.15625 C 29.2082 30.01811 29.0226 30.14825 28.90625 30.09375 C 28.91895 30.01195 28.96615 29.92262 29.0625 29.90625 C 29.1407 29.89355 29.32773 29.93095 29.375 29.96875 C 29.4023 29.99235 29.36454 30.0555 29.40625 30.09375 C 29.45355 30.13555 29.53194 30.10275 29.59375 30.09375 C 29.61555 29.99015 29.45057 30.036 29.46875 29.96875 C 29.59237 29.88875 29.81785 29.92625 29.96875 29.90625 C 30.05605 29.89355 30.14057 29.82308 30.21875 29.78125 C 30.29145 29.73945 30.36114 29.68089 30.4375 29.75 C 30.4593 29.8245 30.38545 29.86808 30.34375 29.90625 C 30.20376 30.02984 30.07783 30.16892 29.96875 30.3125 C 30.03605 30.378 30.13728 30.33105 30.25 30.34375 C 30.2936 30.34875 30.36079 30.3678 30.40625 30.375 C 30.46085 30.384 30.51886 30.366 30.5625 30.375 C 30.6389 30.3932 30.6424 30.5 30.71875 30.5 C 30.84238 30.5 30.8522 30.39611 30.78125 30.3125 C 30.80305 30.227 30.8435 30.15374 30.8125 30.09375 C 30.7561 29.98106 30.54216 30.11229 30.53125 29.96875 C 30.52425 29.87785 30.62351 29.85033 30.65625 29.78125 C 30.64175 29.60677 30.79943 29.59563 30.78125 29.4375 C 30.77225 29.372 30.70172 29.37424 30.65625 29.3125 C 30.63265 29.2798 30.62095 29.21113 30.59375 29.1875 C 30.49925 29.1075 30.32341 29.12144 30.3125 28.96875 C 30.3075 28.87785 30.3252 28.81689 30.3125 28.71875 C 30.2998 28.62605 30.20496 28.36193 30.125 28.34375 C 30.02319 28.32195 29.96556 28.50616 29.84375 28.5625 C 29.77835 28.5934 29.66101 28.60655 29.59375 28.59375 C 29.55015 28.58475 29.47421 28.5523 29.46875 28.46875 C 29.46425 28.4206 29.479838 28.403505 29.5 28.375 C 29.504744 28.368293 29.495114 28.350807 29.5 28.34375 C 30.290994 28.116421 31.135895 28 32 28 z M 28.28125 28.8125 C 28.192533 29.096611 27.935719 29.258803 27.59375 29.25 C 27.51015 29.33 27.5454 29.48287 27.5 29.59375 C 27.4618 29.68645 27.34271 29.75728 27.25 29.75 C 27.1827 29.745 27.0625 29.65736 27.0625 29.59375 C 27.0625 29.541617 27.112911 29.482727 27.125 29.4375 C 27.493045 29.19953 27.878877 28.995578 28.28125 28.8125 z M 35.9375 29.125 C 35.904 29.131 35.87325 29.13895 35.84375 29.15625 C 35.77465 29.19805 35.77149 29.26126 35.71875 29.28125 C 35.64425 29.30855 35.54216 29.3078 35.53125 29.375 C 35.52225 29.4314 35.59565 29.44912 35.59375 29.5 C 35.56645 29.5673 35.5146 29.5744 35.5 29.65625 C 35.5927 29.80711 35.82297 29.6578 35.9375 29.625 C 35.9884 29.6105 36.03523 29.63335 36.0625 29.59375 C 36.0934 29.54465 36.07015 29.44407 36.09375 29.375 C 36.11925 29.2986 36.1966 29.31724 36.1875 29.25 C 36.1805 29.1827 36.05022 29.1141 35.9375 29.125 z M 26.03125 30.28125 C 26.097911 30.361706 26.153711 30.478596 26.03125 30.53125 C 26.01305 30.54025 25.79363 30.5716 25.75 30.5625 C 25.736462 30.560577 25.730896 30.539692 25.71875 30.53125 C 25.814324 30.438424 25.931643 30.369794 26.03125 30.28125 z M 26.28125 30.59375 C 26.32485 30.59575 26.35531 30.6839 26.40625 30.6875 C 26.45535 30.6915 26.53336 30.64715 26.5625 30.65625 C 26.6389 30.67625 26.66651 30.81865 26.59375 30.875 C 26.53375 30.882 26.51232 30.8034 26.46875 30.8125 C 26.34512 30.8343 26.31147 31.06977 26.21875 31.0625 C 26.13145 31.0535 26.06712 30.87612 26.15625 30.8125 C 26.15825 30.7579 26.1213 30.74205 26.125 30.6875 C 26.1523 30.653 26.20849 30.58835 26.28125 30.59375 z M 25.875 30.65625 C 25.9005 30.65625 25.89715 30.64535 25.90625 30.65625 C 25.89355 30.75255 25.85572 30.76706 25.78125 30.8125 C 25.65217 30.8907 25.57307 30.98903 25.53125 31.15625 C 25.51855 31.20535 25.37431 31.35646 25.3125 31.34375 C 25.16887 31.31285 25.37355 31.0418 25.40625 31 C 25.44265 30.9545 25.48948 30.92595 25.53125 30.875 C 25.57305 30.8241 25.5851 30.71658 25.625 30.6875 C 25.6686 30.6566 25.79865 30.65255 25.875 30.65625 z M 38.1875 30.90625 C 38.33112 30.89725 38.4033 31.069 38.46875 31.15625 C 38.52325 31.22715 38.69215 31.32592 38.78125 31.375 C 38.83215 31.4023 38.88114 31.44335 38.9375 31.46875 C 38.99658 31.4951 39.086475 31.52965 39.15625 31.59375 C 39.226025 31.65785 39.27852 31.75434 39.28125 31.8125 C 39.28325 31.8707 39.2409 31.91422 39.25 31.96875 C 39.312984 31.979 39.345647 31.914902 39.375 31.84375 C 39.610639 32.179878 39.811319 32.538592 40 32.90625 C 39.961721 32.929959 39.945246 32.953158 39.9375 33 C 39.9193 33.10178 39.99645 33.23183 39.84375 33.25 C 39.74745 33.2627 39.63271 33.15404 39.5 33.125 C 39.4455 33.1123 39.35613 33.1395 39.3125 33.125 C 39.2125 33.0905 39.24171 32.96623 39.15625 32.90625 C 39.10715 32.87165 38.98443 32.8215 38.90625 32.8125 C 38.85715 32.8075 38.83211 32.8195 38.78125 32.8125 C 38.71945 32.8055 38.6134 32.81215 38.5625 32.78125 C 38.5134 32.75035 38.38773 32.69809 38.375 32.65625 C 38.355 32.58895 38.52762 32.49385 38.53125 32.4375 C 38.53525 32.3939 38.47785 32.37793 38.46875 32.3125 C 38.46175 32.2725 38.47775 32.21296 38.46875 32.1875 C 38.45605 32.1402 38.38702 32.09555 38.3125 32.09375 C 38.247 32.09375 38.18136 32.125 38.125 32.125 C 38.045 32.127 37.88124 32.08465 37.78125 32.09375 C 37.72125 32.09875 37.68136 32.1214 37.625 32.125 C 37.46683 32.1377 37.37363 32.116 37.25 32.125 C 37.1609 32.13 36.98988 32.18065 36.90625 32.21875 C 36.86445 32.23875 36.8358 32.2853 36.78125 32.3125 C 36.75585 32.3252 36.7203 32.32925 36.6875 32.34375 C 36.6366 32.36735 36.54909 32.4248 36.5 32.4375 C 36.4291 32.4557 36.34783 32.4325 36.21875 32.4375 C 36.12605 32.4425 35.97057 32.42334 35.96875 32.3125 C 35.96675 32.14347 36.27752 32.21654 36.4375 32.1875 C 36.4975 32.1748 36.521 32.10427 36.59375 32.0625 C 36.62835 32.0425 36.6548 32.0218 36.6875 32 C 36.742 31.9618 36.83466 31.88738 36.84375 31.84375 C 36.85075 31.80375 36.807 31.74778 36.8125 31.71875 C 36.8195 31.68055 36.88842 31.64282 36.9375 31.59375 C 37.0139 31.51735 37.06171 31.42407 37.15625 31.375 C 37.21985 31.3405 37.34591 31.33205 37.375 31.28125 C 37.382 31.22305 37.373 31.20899 37.375 31.15625 C 37.415 31.11985 37.4048 31.10095 37.4375 31.09375 C 37.5357 31.07195 37.63547 31.1305 37.75 31.125 C 37.7991 31.123 37.85353 31.12855 37.90625 31.09375 C 37.94985 31.06465 37.98761 31.0218 38.03125 31 C 38.07855 30.9745 38.12926 30.90985 38.1875 30.90625 z M 26.71875 31 C 26.742805 30.996162 26.78338 31.0027 26.8125 31 C 26.8543 30.998 26.89205 31 26.9375 31 C 26.983 31 27.04432 30.9818 27.0625 31 C 27.0334 31.11996 26.75079 31.07495 26.65625 31.03125 C 26.65875 31.0085 26.694695 31.003838 26.71875 31 z M 26.375 31.21875 C 26.4059 31.21875 26.43605 31.20605 26.46875 31.21875 C 26.38515 31.28965 26.27045 31.32956 26.125 31.375 C 26.0559 31.3968 25.95023 31.42005 25.9375 31.34375 C 25.9229 31.24925 26.00066 31.259 26.0625 31.25 C 26.1425 31.241 26.28228 31.22055 26.375 31.21875 z M 38.21875 31.21875 C 38.15875 31.23875 38.12965 31.35865 38.21875 31.375 C 38.26055 31.3496 38.261 31.2951 38.25 31.21875 C 38.2264 31.19335 38.23685 31.21175 38.21875 31.21875 z M 38.1875 31.46875 C 38.1584 31.47775 38.12455 31.4672 38.09375 31.5 C 38.09575 31.60178 38.11375 31.66094 38.09375 31.75 C 38.15195 31.86269 38.28342 31.79505 38.3125 31.71875 C 38.3471 31.52972 38.27476 31.44512 38.1875 31.46875 z M 38.96875 31.96875 C 38.88875 31.96475 38.82852 31.99345 38.78125 32.03125 C 38.84855 32.14031 38.9741 32.16023 39.125 32.1875 C 39.1795 32.1475 39.1621 32.03782 39.1875 31.96875 C 39.122 31.96875 39.07999 31.97275 39 31.96875 L 38.96875 31.96875 z M 23.09375 35.8125 C 23.157613 35.893874 23.226645 35.988767 23.3125 36.03125 C 23.358 36.05485 23.41057 36.0498 23.46875 36.0625 C 23.51605 36.0715 23.54832 36.1105 23.59375 36.125 C 23.69015 36.1577 23.8299 36.153 23.90625 36.1875 C 24.02261 36.2384 24.0875 36.44183 24.1875 36.5 C 24.1925 36.5582 24.1693 36.61263 24.1875 36.65625 C 24.2348 36.71985 24.32988 36.73949 24.40625 36.78125 C 24.49895 36.83215 24.53774 36.96001 24.625 37 C 24.6559 37.0127 24.70266 36.9855 24.75 37 C 24.86999 37.0364 24.89637 37.21839 25 37.1875 C 25.0673 37.1675 25.08285 37.06543 25.09375 37 C 25.13925 36.9509 25.17904 36.875 25.25 36.875 C 25.36271 36.873 25.39568 37.01414 25.4375 37.125 C 25.4611 37.1868 25.51495 37.24707 25.53125 37.3125 C 25.55855 37.42519 25.55485 37.74525 25.53125 37.8125 C 25.50215 37.8961 25.38159 37.94037 25.3125 38.03125 C 25.2798 38.07485 25.24415 38.12721 25.21875 38.15625 C 25.17515 38.21075 25.12652 38.23221 25.09375 38.28125 C 25.07555 38.30855 25.0788 38.36809 25.0625 38.40625 C 25.0079 38.52257 24.92327 38.61004 24.96875 38.75 C 24.98695 38.8064 25.0625 38.87026 25.0625 38.9375 C 25.0625 39.0175 24.88773 39.03776 24.875 39.125 C 24.866 39.1886 24.94885 39.32082 24.96875 39.40625 C 24.98325 39.46985 25.08682 39.52069 25.125 39.5625 C 25.1886 39.6334 25.25432 39.72162 25.3125 39.8125 C 25.42703 39.9888 25.48105 40.20233 25.59375 40.375 C 25.65375 40.4641 25.7725 40.53049 25.8125 40.625 C 25.8325 40.6723 25.7943 40.76889 25.8125 40.8125 C 25.8779 40.95973 26.19649 41.1148 26.34375 41.1875 C 26.41285 41.2221 26.46763 41.24485 26.53125 41.28125 C 26.62765 41.33585 26.82592 41.44583 26.875 41.53125 C 26.9186 41.60765 26.94695 41.78448 26.96875 41.90625 C 26.99605 42.0662 26.96175 42.20232 26.96875 42.375 C 26.97375 42.4695 27 42.53048 27 42.625 C 27 42.6577 27.002 42.71727 27 42.75 C 26.998 42.86269 27.009 42.97925 27 43.09375 C 26.995 43.15555 26.996 43.22854 27 43.28125 C 27.005 43.33765 27.0589 43.35719 27.0625 43.40625 C 27.0665 43.45895 26.9945 43.5207 27 43.5625 C 27.0127 43.67701 27.13443 43.76958 27.15625 43.875 C 27.17445 43.9586 27.1984 44.15003 27.1875 44.25 C 27.1805 44.3027 27.16355 44.37934 27.15625 44.4375 C 27.15125 44.483 27.16325 44.52073 27.15625 44.5625 C 24.664537 42.961964 23 40.18145 23 37 C 23 36.592124 23.041191 36.205995 23.09375 35.8125 z M 26.53125 36.71875 C 26.61855 36.67875 26.60215 36.83284 26.53125 36.84375 C 26.46395 36.85275 26.46585 36.7497 26.53125 36.71875 z " transform="matrix(1 0 0 1 384.57143 483.798)"/>
 </g>
</svg>
