<?xml version="1.0" encoding="UTF-8" standalone="no"?>
<svg
   fill="none"
   height="24"
   viewBox="0 0 24 24"
   width="24"
   version="1.1"
   id="svg1"
   sodipodi:docname="rows-03.svg"
   inkscape:version="1.3.2 (091e20ef0f, 2023-11-25, custom)"
   xmlns:inkscape="http://www.inkscape.org/namespaces/inkscape"
   xmlns:sodipodi="http://sodipodi.sourceforge.net/DTD/sodipodi-0.dtd"
   xmlns="http://www.w3.org/2000/svg"
   xmlns:svg="http://www.w3.org/2000/svg">
  <defs
     id="defs1" />
  <sodipodi:namedview
     id="namedview1"
     pagecolor="#ffffff"
     bordercolor="#666666"
     borderopacity="1.0"
     inkscape:showpageshadow="2"
     inkscape:pageopacity="0.0"
     inkscape:pagecheckerboard="0"
     inkscape:deskcolor="#d1d1d1"
     inkscape:zoom="33.666667"
     inkscape:cx="11.985149"
     inkscape:cy="12"
     inkscape:window-width="2560"
     inkscape:window-height="1023"
     inkscape:window-x="0"
     inkscape:window-y="0"
     inkscape:window-maximized="1"
     inkscape:current-layer="svg1" />
  <path
     d="m3 9h18m-18 6h18m-13.2-12h8.4c1.6802 0 2.5202 0 3.162.32698.5645.28762 1.0234.74656 1.311 1.31105.327.64173.327 1.48181.327 3.16197v8.4c0 1.6802 0 2.5202-.327 3.162-.2876.5645-.7465 1.0234-1.311 1.311-.6418.327-1.4818.327-3.162.327h-8.4c-1.68016 0-2.52024 0-3.16197-.327-.56449-.2876-1.02343-.7465-1.31105-1.311-.32698-.6418-.32698-1.4818-.32698-3.162v-8.4c0-1.68016 0-2.52024.32698-3.16197.28762-.56449.74656-1.02343 1.31105-1.31105.64173-.32698 1.48181-.32698 3.16197-.32698z"
     stroke="#000"
     stroke-linecap="round"
     stroke-linejoin="round"
     stroke-width="2"
     id="path1"
     style="stroke:#f2f2f2" />
</svg>
