<?xml version="1.0" encoding="UTF-8" standalone="no"?>
<!-- Svg Vector Icons : http://www.onlinewebfonts.com/icon -->

<svg
   xmlns:dc="http://purl.org/dc/elements/1.1/"
   xmlns:cc="http://creativecommons.org/ns#"
   xmlns:rdf="http://www.w3.org/1999/02/22-rdf-syntax-ns#"
   xmlns:svg="http://www.w3.org/2000/svg"
   xmlns="http://www.w3.org/2000/svg"
   xmlns:sodipodi="http://sodipodi.sourceforge.net/DTD/sodipodi-0.dtd"
   xmlns:inkscape="http://www.inkscape.org/namespaces/inkscape"
   version="1.1"
   x="0px"
   y="0px"
   viewBox="0 0 16.00091 16.000004"
   enable-background="new 0 0 1000 1000"
   xml:space="preserve"
   id="svg10"
   sodipodi:docname="magnifier.svg"
   inkscape:version="0.92.2 5c3e80d, 2017-08-06"
   width="16.00091"
   height="16.000004"><defs
     id="defs14" /><sodipodi:namedview
     pagecolor="#ffffff"
     bordercolor="#666666"
     borderopacity="1"
     objecttolerance="10"
     gridtolerance="10"
     guidetolerance="10"
     inkscape:pageopacity="0"
     inkscape:pageshadow="2"
     inkscape:window-width="1920"
     inkscape:window-height="1024"
     id="namedview12"
     showgrid="false"
     inkscape:zoom="32"
     inkscape:cx="-4.6745911"
     inkscape:cy="6.2637304"
     inkscape:window-x="0"
     inkscape:window-y="0"
     inkscape:window-maximized="1"
     inkscape:current-layer="layer2"
     fit-margin-top="0"
     fit-margin-left="0"
     fit-margin-right="0"
     fit-margin-bottom="0" /><metadata
     id="metadata2"> Svg Vector Icons : http://www.onlinewebfonts.com/icon <rdf:RDF><cc:Work
     rdf:about=""><dc:format>image/svg+xml</dc:format><dc:type
       rdf:resource="http://purl.org/dc/dcmitype/StillImage" /><dc:title></dc:title></cc:Work></rdf:RDF></metadata><g
     inkscape:groupmode="layer"
     id="layer2"
     inkscape:label="bg"><path
       style="stroke-width:1.00000012"
       d="M 6 0 C 2.68562 0 0 2.68563 0 6 C 0 9.31439 2.68562 12 6 12 C 7.48575 12 8.8463413 11.459173 9.8945312 10.564453 C 9.8781312 10.902423 10.041871 11.322994 10.394531 11.714844 L 13.617188 15.503906 C 14.169037 16.117806 15.068921 16.169351 15.619141 15.619141 C 16.169361 15.068921 16.117806 14.169047 15.503906 13.617188 L 11.714844 10.392578 C 11.323004 10.039918 10.902423 9.8778881 10.564453 9.8925781 C 11.459173 8.8443881 12 7.4837969 12 5.9980469 C 12 2.6852969 9.31438 1.1842379e-15 6 0 z M 6 1.5625 A 4.4375 4.4375 0 0 1 10.4375 6 A 4.4375 4.4375 0 0 1 6 10.4375 A 4.4375 4.4375 0 0 1 1.5625 6 A 4.4375 4.4375 0 0 1 6 1.5625 z "
       id="path4" /></g></svg>