<svg viewBox="0 0 22 22" xmlns="http://www.w3.org/2000/svg"><style type="text/css" id="current-color-scheme">.ColorScheme-Text{color:#eff0f1;}.ColorScheme-NegativeText{color:#da4453;}</style><path d="m17 7a4 4 0 0 0 -4 4 4 4 0 0 0 .84375 2.449219l-.003906.003906.033203.033203a4 4 0 0 0 .662109.66211l.011719.011718.001953-.001953a4 4 0 0 0 2.451172.841797 4 4 0 0 0 4-4 4 4 0 0 0 -.84375-2.4492188l.003906-.0039062-.033203-.0332031a4 4 0 0 0 -.662109-.6621094l-.011719-.0117187-.001953.0019531a4 4 0 0 0 -2.451172-.8417969zm0 1a3 3 0 0 1 1.736328.5566406l-4.177734 4.1777344a3 3 0 0 1 -.558594-1.734375 3 3 0 0 1 3-3zm2.441406 1.265625a3 3 0 0 1 .558594 1.734375 3 3 0 0 1 -3 3 3 3 0 0 1 -1.736328-.556641z" style="fill:currentColor;fill-opacity:1;stroke:none" class="ColorScheme-NegativeText"/><path d="m10.988281 3-4.988281 4.9902344v.0097656 1 4 1 .009766l4.988281 4.990234h1.011719v-.402344-15.1953122-.4023438zm-7.988281 5v1 4 1h2v-1-4-1z" style="fill:currentColor;fill-opacity:1;stroke:none" class="ColorScheme-Text"/></svg>