<svg xmlns="http://www.w3.org/2000/svg" viewBox="0 0 22 22">
  <defs id="defs3051">
    <style type="text/css" id="current-color-scheme">
      .ColorScheme-Text {
        color:#eff0f1;
      }
      </style>
  </defs>
      <path
         style="opacity:1;fill:currentColor;fill-opacity:1;stroke:none"
         d="M 11.126953,18.999099 C 9.2851775,19.029062 7.4335432,18.425546 5.921875,17.184646 2.8985906,14.702746 2.1145626,10.388552 4.0703125,7.0010524 l -0.8652344,-0.5 2.2988281,-0.982422 0.2988282,2.482422 -0.8652344,-0.5 c -1.7144999,2.9695996 -1.0292996,6.7344566 1.6210938,8.9101566 2.6503936,2.175699 6.4760702,2.113715 9.0546872,-0.146485 l 0.658203,0.751953 c -1.470738,1.28915 -3.302755,1.95246 -5.144531,1.982422 z m 5.367188,-2.517578 -0.298829,-2.480469 0.867188,0.5 c 1.7145,-2.9696 1.027347,-6.7364096 -1.623047,-8.9121086 -2.650394,-2.1757 -6.47607,-2.113716 -9.0546874,0.146484 L 5.7265625,4.9834744 c 2.9414758,-2.5783 7.3262725,-2.649769 10.3496095,-0.167969 3.023285,2.4818 3.807312,6.7980466 1.851562,10.1855466 l 0.865235,0.5 -2.298828,0.980469 z M 11,16.001052 l -4,-4 2,0 0,-4.9999996 4,0 0,4.9999996 2,0 -4,4 z"
         class="ColorScheme-Text" />
</svg>
