<svg viewBox="0 0 22 22" xmlns="http://www.w3.org/2000/svg"><style type="text/css" id="current-color-scheme">.ColorScheme-Text{color:#eff0f1;}.ColorScheme-NegativeText{color:#da4453;}</style><path d="m7.5 3c-1.385 0-2.5 1.115-2.5 2.5v6c0 1.385 1.115 2.5 2.5 2.5s2.5-1.115 2.5-2.5v-6c0-1.385-1.115-2.5-2.5-2.5zm-5.5 7v1c.0009163 2.235554 1.6341118 4.198898 4 4.808594v2.191406h-2v1h7v-1h-2v-2.193359c1.574103-.405651 2.810226-1.417484 3.470703-2.703125a5 5 0 0 1 -.470703-2.103516c0 2.209139-2.0147186 4-4.5 4s-4.5-1.790861-4.5-4v-1z" style="fill:currentColor;fill-opacity:1;stroke:none" class="ColorScheme-Text"/><path d="m17 7a4 4 0 0 0 -4 4 4 4 0 0 0 .84375 2.449219l-.0039.0039.0332.0332a4 4 0 0 0 .662109.66211l.01172.01172.002-.002a4 4 0 0 0 2.451121.841851 4 4 0 0 0 4-4 4 4 0 0 0 -.84375-2.449219l.0039-.0039-.0332-.0332a4 4 0 0 0 -.662106-.662119l-.01172-.01172-.002.002a4 4 0 0 0 -2.451124-.841793zm0 1a3 3 0 0 1 1.736328.556641l-4.177734 4.177734a3 3 0 0 1 -.558594-1.734375 3 3 0 0 1 3-3zm2.441406 1.265625a3 3 0 0 1 .558594 1.734375 3 3 0 0 1 -3 3 3 3 0 0 1 -1.736328-.556641z" style="fill:currentColor;fill-opacity:1;stroke:none" class="ColorScheme-NegativeText"/></svg>