<svg xmlns="http://www.w3.org/2000/svg" viewBox="0 0 22 22">
  <defs id="defs3051">
    <style type="text/css" id="current-color-scheme">
      .ColorScheme-Text {
        color:#4d4d4d;
      }
      .ColorScheme-NegativeText {
        color:#da4453;
      }
      </style>
  </defs>
  <path
     style="fill:currentColor;fill-opacity:1;stroke:none" 
     d="m 3,3.0000003 0,5.9999999 2,0 L 5,16 c 0,1.662 1.338,3 3,3 l 1,0 1,0 2,0 3,0 0,-1 -1,0 -1,0 0,-2 1,0 4,0 1,0 0,-12.9999997 -1,0 -9,0 0,1 9,0 L 18,14 7,14 l 0,1 0,1 1,0 1,0 0,1 0,0.726562 L 9,18 8,18 C 6.892,18 6,17.108 6,16 l 0,-6.9999998 2,0 0,-5.9999999 z m 1,1 3,0 0,3.9999999 -3,0 z m 1,1 0,2 1,0 0,-2 z M 3,10 l 0,6 1,0 0,-6 z"
     class="ColorScheme-NegativeText"
     />
</svg>
