<svg xmlns="http://www.w3.org/2000/svg" viewBox="0 0 22 22">
  <defs id="defs3051">
    <style type="text/css" id="current-color-scheme">
      .ColorScheme-Text {
        color:#eff0f1;
      }
      </style>
  </defs>
    <path
       style="opacity:1;fill:currentColor;fill-opacity:1;stroke:none"
       d="M 11 7 C 7.953 7 5.2030937 8.2265938 3.2148438 10.214844 L 3.921875 10.921875 C 5.729375 9.114365 8.23 8 11 8 C 13.77 8 16.270615 9.114365 18.078125 10.921875 L 18.785156 10.214844 C 16.796906 8.2265937 14.047 7 11 7 z M 11 11 C 9.061 11 7.3101719 11.779672 6.0449219 13.044922 L 6.7539062 13.753906 C 7.8384062 12.669406 9.338 12 11 12 C 12.662 12 14.161594 12.669406 15.246094 13.753906 L 15.955078 13.044922 C 14.689828 11.779672 12.939 11 11 11 z M 11 15 C 9.892004 15 9 15.892004 9 17 C 9 18.107996 9.892004 19 11 19 C 12.107996 19 13 18.107996 13 17 C 13 15.892004 12.107996 15 11 15 z M 11 16 C 11.554 16 12 16.446 12 17 C 12 17.554 11.554 18 11 18 C 10.446 18 10 17.554 10 17 C 10 16.446 10.446 16 11 16 z "
          class="ColorScheme-Text"/>
    <path
       style="opacity:0.5;fill:currentColor;fill-opacity:1;stroke:none"
       d="M 11,3 C 6.845,3 3.09406,4.67156 0.38281,7.38281 L 1.0918,8.0918 C 3.6223,5.5613 7.122,4 11,4 c 3.878,0 7.3777,1.5613 9.9082,4.0918 L 21.61719,7.38281 C 18.90594,4.67156 15.155,3 11,3 Z"
          class="ColorScheme-Text"/>
</svg>
