<svg xmlns="http://www.w3.org/2000/svg" viewBox="0 0 22 22">
  <defs id="defs3051">
    <style type="text/css" id="current-color-scheme">
      .ColorScheme-Text {
        color:#eff0f1;
      }
      </style>
  </defs>
    <path
       style="fill:currentColor;fill-opacity:1;stroke:none" 
       d="M 11,3 C 6.8450005,3 3.0940635,4.671563 0.3828125,7.382812 l 0.708985,0.708985 C 3.6222975,5.561297 7.1220005,4 11,4 c 3.878,0 7.377703,1.561297 9.908203,4.091797 L 21.617187,7.382812 C 18.905937,4.671563 15.155001,3 11,3 Z m 0,4 C 7.9530005,7 5.2030945,8.226594 3.2148445,10.214844 l 0.707031,0.707031 C 5.7293755,9.114365 8.2300005,8 11,8 c 2.77,0 5.270615,1.114365 7.078125,2.921875 l 0.707031,-0.707031 C 16.796906,8.226594 14.047,7 11,7 Z m 0,4 c -1.9389995,0 -3.6898275,0.779672 -4.9550775,2.044922 l 0.708984,0.708984 C 7.8384065,12.669406 9.3380005,12 11,12 c 1.662,0 3.161595,0.669406 4.246094,1.753906 l 0.708984,-0.708984 C 14.689828,11.779672 12.939,11 11,11 Z m 0,4 c -1.1079955,0 -1.9999995,0.892004 -1.9999995,2 0,1.107996 0.892004,2 1.9999995,2 1.107996,0 2,-0.892004 2,-2 0,-1.107996 -0.892004,-2 -2,-2 z m 0,1 c 0.554,0 1,0.446 1,1 0,0.554 -0.446,1 -1,1 -0.554,0 -1,-0.446 -1,-1 0,-0.554 0.446,-1 1,-1 z"
          class="ColorScheme-Text"/>
</svg>
