<svg xmlns="http://www.w3.org/2000/svg" viewBox="0 0 22 22">
  <defs id="defs3051">
    <style type="text/css" id="current-color-scheme">
      .ColorScheme-Text {
        color:#eff0f1;
      }
      </style>
  </defs>
      <path
         style="opacity:1;fill:currentColor;fill-opacity:1;stroke:none"
          d="M 11.126953 3.0019531 C 9.2851775 2.9719906 7.4335432 3.5755063 5.921875 4.8164062 C 2.8985906 7.2983061 2.1145626 11.6125 4.0703125 15 L 3.2050781 15.5 L 5.5039062 16.482422 L 5.8027344 14 L 4.9375 14.5 C 3.2230001 11.5304 3.9082004 7.7655436 6.5585938 5.5898438 C 9.2089874 3.4141439 13.034664 3.4761283 15.613281 5.7363281 L 16.271484 4.984375 C 14.800746 3.6952251 12.968729 3.0319156 11.126953 3.0019531 z M 16.494141 5.5195312 L 16.195312 8 L 17.0625 7.5 C 18.777 10.4696 18.089847 14.23641 15.439453 16.412109 C 12.789059 18.587809 8.963383 18.525825 6.3847656 16.265625 L 5.7265625 17.017578 C 8.6680383 19.595878 13.052835 19.667347 16.076172 17.185547 C 19.099457 14.703747 19.883484 10.3875 17.927734 7 L 18.792969 6.5 L 16.494141 5.5195312 z M 11 6 L 7 10 L 9 10 L 9 15 L 13 15 L 13 10 L 15 10 L 11 6 z "
          class="ColorScheme-Text" />
</svg>
