<svg xmlns="http://www.w3.org/2000/svg" xmlns:xlink="http://www.w3.org/1999/xlink" xmlns:inkscape="http://www.inkscape.org/namespaces/inkscape" viewBox="0 0 128 128">
  <defs id="defs3051">
    <style type="text/css" id="current-color-scheme">
      .ColorScheme-Text {
        color:#4d4d4d;
      }
      .ColorScheme-Highlight {
        color:#3daee9;
      }
      </style>
    <linearGradient
       id="linearGradient4213"
       inkscape:collect="always">
      <stop
         id="stop4215"
         offset="0"
         style="stop-color:#000000;stop-opacity:1;" />
      <stop
         id="stop4217"
         offset="1"
         style="stop-color:#000000;stop-opacity:0;" />
    </linearGradient>
    <linearGradient
       inkscape:collect="always"
       xlink:href="#linearGradient4213"
       id="linearGradient4475"
       x1="60.000046"
       y1="982.36224"
       x2="115"
       y2="1037.3622"
       gradientUnits="userSpaceOnUse"
       gradientTransform="matrix(1.28,0,0,1.2799998,0,-1219.0235)" />
    <linearGradient
       inkscape:collect="always"
       xlink:href="#linearGradient4213"
       id="linearGradient4465"
       x1="47"
       y1="64"
       x2="60.125"
       y2="77.125"
       gradientUnits="userSpaceOnUse"
       gradientTransform="matrix(1.28,0,0,1.2799998,1.28,-3.8400355)" />
  </defs>
  <g
     transform="translate(0,-924.36216)"
     id="g12">
    <path
       style="fill:currentColor;fill-opacity:1;stroke:none"
       d="M 0 0 L 0 128 L 128 128 L 128 0 L 0 0 z "
       transform="translate(0,924.36216)"
       class="ColorScheme-Highlight"
       id="rect5879" />
  </g>
  <path
     style="opacity:0.2;fill:url(#linearGradient4475);fill-opacity:1;fill-rule:evenodd;stroke:none;stroke-width:1px;stroke-linecap:butt;stroke-linejoin:miter;stroke-opacity:1"
     d="m 98.56,11.775988 29.44,29.439944 0,86.783978 -51.2,0 z"
     />
  <path
     style="fill:currentColor;fill-opacity:1;stroke:none" 
     class="ColorScheme-Highlight"
     d="M 64,-3.6072446e-5 C 19.2,-3.6072446e-5 16.64,31.999959 19.2,63.999916 21.80239,96.529702 12.8,121.59991 6.4,127.99991 l 115.2,0 c -6.4,-6.4 -15.40239,-31.470208 -12.8,-63.999994 C 111.36,31.999959 108.8,-3.6072446e-5 64,-3.6072446e-5 Z"
     />
  <path
     style="color:#eff0f1;fill:currentColor;fill-opacity:1;stroke:none"
     d="m 89.6,127.99991 c -6.4,-12.8 -3.84,-25.6 -3.84,-25.6 l -43.52,0 c 0,0 2.56,12.8 -3.84,25.6 z"
     />
  <path
     style="color:#eff0f1;fill:currentColor;fill-opacity:1;stroke:none"
     d="m 66.3875,12.752462 c -0.78301,8.4e-4 -1.57833,0.01575 -2.3875,0.0475 -25.89347,1.015885 -35.84,14.079998 -34.56,26.879996 1.15334,11.533361 -7.22807,5.723378 -3.84,25.839996 3.84,22.799996 8.96,31.759995 15.36,38.159996 6.4,6.4 17.49333,5.92 23.04,5.92 5.54667,0 16.64,0.48 23.04,-5.92 6.4,-6.400001 11.52,-15.36 15.36,-38.159996 C 105.78807,45.403323 99.96666,51.213319 101.12,39.679958 102.36,27.27996 90.66089,12.726426 66.3875,12.752462 Z m -47.34,39.449994 c -0.35156,0.02813 -0.7275,0.1175 -1.1275,0.2775 -6.4,2.559999 -0.93133,12.527742 0,14.079998 3.84,6.399999 6.4,-1.28 6.4,-1.28 0,0 9.4e-4,-13.499377 -5.2725,-13.077498 z m 89.905,0 c -5.27344,-0.421879 -5.2725,13.077498 -5.2725,13.077498 0,0 2.56,7.679999 6.4,1.28 0.93133,-1.552256 6.4,-11.519999 0,-14.079998 -0.4,-0.16 -0.77594,-0.249375 -1.1275,-0.2775 z"
     />
  <path
     style="fill:currentColor;fill-opacity:1;stroke:none" 
     class="ColorScheme-Highlight"
     d="m 46.9525,53.527455 c -1.70873,0.09635 -3.40891,1.031025 -3.7875,2.9 -0.50475,2.491916 0.64228,3.656386 2.735,4.257499 2.09271,0.601075 5.12772,0.40934 5.6325,-2.082499 0.50478,-2.491981 -0.82477,-4.293912 -2.9175,-4.895 -0.52318,-0.150268 -1.09292,-0.212115 -1.6625,-0.18 z m 34.095,0 c -0.56958,-0.03212 -1.13932,0.02973 -1.6625,0.18 -2.09273,0.601088 -3.42228,2.403019 -2.9175,4.895 0.50478,2.491839 3.53979,2.683574 5.6325,2.082499 2.09272,-0.601113 3.23975,-1.765583 2.735,-4.257499 -0.37859,-1.868975 -2.07877,-2.803653 -3.7875,-2.9 z M 50.615,87.192451 c -0.0883,-0.02024 -0.20895,-0.01929 -0.3675,0.01 -0.18319,0.03383 -0.41714,0.105869 -0.715,0.224999 -2.38285,0.953216 -0.57425,1.947081 -0.2275,2.525001 1.02209,1.703476 1.07128,0.273577 1.02,-0.685001 1.27393,1.894322 4.83622,5.433142 13.675,5.452515 9.59053,0.02078 12.94495,-4.158529 13.9275,-5.872499 -0.0687,0.687967 -0.2585,3.189992 0.9925,1.105 0.34675,-0.57792 2.15785,-1.571784 -0.225,-2.525 -2.38285,-0.953088 -0.7425,1.145001 -0.7425,1.145001 0,0 2e-5,0.0099 0,0.01 C 77.71991,88.560767 67.16509,87.574983 64,87.574983 c -3.10066,0 -13.0803,0.925688 -13.7175,0.984999 0.0232,-0.02985 0.95087,-1.22583 0.3325,-1.367499 z M 64,88.66495 c 1.45454,0 6.4,0.315 6.4,0.315 -0.36364,0.475136 -1.83435,1.9128 -6.4,1.9 -4.56565,-0.0068 -6.03636,-1.424864 -6.4,-1.9 0,0 4.94546,-0.315 6.4,-0.315 z"
     />
  <path
     style="fill:currentColor;fill-opacity:1;stroke:none" 
     class="ColorScheme-Highlight"
     d="m 72.825,4.3024632 c -2.62104,2.2150252 -4.92839,4.4746561 -6.905,6.7124988 -0.001,-0.0085 -0.001,-0.01652 -0.003,-0.025 l -30.617,2.29 -15.395,18.904997 8.625,12.712498 c 0,0 20.06291,-5.633824 30.845,-16.942497 1.26103,3.003397 4.66746,5.152183 10.77,5.914999 18.10193,2.262746 16.14642,14.084706 20.7875,17.622497 4.64108,3.537779 13.56297,6.617089 13.7225,-9.094999 C 104.92222,16.078511 72.825,4.3024632 72.825,4.3024632 Z"
     />
  <path
     style="fill:#2ecc71;fill-opacity:1"
     d="m 64,6.3999629 c -38.4,0 -38.4,31.9999951 -38.4,31.9999951 0,0 6.4,-25.599996 38.4,-25.599996 32,0 38.4,25.599996 38.4,25.599996 0,0 0,-31.9999951 -38.4,-31.9999951 z"
     />
  <path
     style="opacity:0.1;fill:url(#linearGradient4465);fill-opacity:1;fill-rule:evenodd;stroke:none;stroke-width:1px;stroke-linecap:butt;stroke-linejoin:miter;stroke-opacity:1"
     d="M 64.5175,66.559915 61.192,78.720297 84.472,102.00029 95.4825,97.527462 Z"
     />
  <path
     style="fill:#2ecc71;fill-opacity:1"
     d="m 64,66.239954 c -0.64,0 -1.28,0.959999 -2.56,2.879999 -1.91179,2.867712 -3.2,5.439999 -2.56,6.879999 0.64,1.44 1.28,3.36 5.12,3.36 3.84,0 4.48,-1.92 5.12,-3.36 0.64,-1.44 -0.64821,-4.012287 -2.56,-6.879999 -1.28,-1.92 -1.92,-2.879999 -2.56,-2.879999 z"
     />
</svg>
