<svg xmlns="http://www.w3.org/2000/svg" xmlns:xlink="http://www.w3.org/1999/xlink" xmlns:inkscape="http://www.inkscape.org/namespaces/inkscape" viewBox="0 0 128 128">
  <defs id="defs3051">
    <style type="text/css" id="current-color-scheme">
      .ColorScheme-Text {
        color:#4d4d4d;
      }
      .ColorScheme-Highlight {
        color:#3daee9;
      }
      </style>
    <linearGradient
       inkscape:collect="always"
       xlink:href="#linearGradient4459"
       id="linearGradient4475"
       x1="60.000046"
       y1="982.36224"
       x2="115"
       y2="1037.3622"
       gradientUnits="userSpaceOnUse"
       gradientTransform="matrix(1.28,0,0,1.2799996,0,-1219.0233)" />
    <linearGradient
       inkscape:collect="always"
       id="linearGradient4459">
      <stop
         style="stop-color:#000000;stop-opacity:1;"
         offset="0"
         id="stop4461" />
      <stop
         style="stop-color:#000000;stop-opacity:0;"
         offset="1"
         id="stop4463" />
    </linearGradient>
    <linearGradient
       inkscape:collect="always"
       xlink:href="#linearGradient4459"
       id="linearGradient4465"
       x1="47"
       y1="64"
       x2="60.125"
       y2="77.125"
       gradientUnits="userSpaceOnUse"
       gradientTransform="matrix(1.28,0,0,1.2799996,1.28,-3.8400253)" />
  </defs>
  <path
     style="fill:currentColor;fill-opacity:1;stroke:none" 
     class="ColorScheme-Highlight"
     d="M 0 0 L 0 128 L 128 128 L 128 0 L 0 0 z "/>
  <path
     style="opacity:0.2;fill:url(#linearGradient4475);fill-opacity:1;fill-rule:evenodd;stroke:none;stroke-width:1px;stroke-linecap:butt;stroke-linejoin:miter;stroke-opacity:1"
     d="M 98.56,2.8159982 128,32.255938 l 0,95.743962 -51.2,0 z"
     />
  <path
     style="fill:currentColor;fill-opacity:1;stroke:none" 
     class="ColorScheme-Highlight"
     d="M 64,-2.6544892e-5 C 19.2,-2.6544892e-5 16.64,32.000002 19.2,63.999953 c 2.602387,32.529782 32,57.599987 25.6,63.999977 l 38.4,0 c -1.960777,-1.96077 -0.54191,-5.6892 2.4175,-10.83249 0.963388,1.67293 2.890117,4.7562 4.9425,6.35249 2.88,2.24 7.36,2.24 7.36,2.24 0,0 -0.928376,-8.49462 -0.86,-21.31749 3.00999,3.78079 11.42,-0.1225 11.42,-0.1225 0,0 -5.10777,-8.411901 -5.355,-17.847493 0.38735,-0.183813 0.82701,-0.410789 1.355,-0.7125 4.48,-2.56 7.84,-1.12 7.84,-1.12 0,0 -2.66472,-7.049268 -3.5725,-19.077494 3.64843,5.807192 6.7725,10.757497 6.7725,10.757497 0,0 6.24,-8.160036 5.76,-19.519994 -0.3129,-7.40535 -6.93943,-16.373308 -13.335,-25.309993 C 104.26203,13.384643 92.965887,-2.6544892e-5 64,-2.6544892e-5 Z"
     />
  <path
     style="color:#eff0f1;fill:currentColor;fill-opacity:1;stroke:none"
     d="m 66.385,12.752469 c -0.78059,8.4e-4 -1.575829,0.01575 -2.385,0.0475 -25.893472,1.015885 -37.12,14.079996 -35.84,26.879992 1.153336,11.53336 -4.668067,12.123375 -1.28,32.23999 3.840004,22.799993 6.4,25.359992 12.8,31.759989 2.286034,2.28603 5.338065,4.01173 8.565,5.2975 -1.405851,4.91509 -3.737521,11.92754 -7.285,19.02249 l 46.08,0 c -3.547479,-7.09495 -5.879149,-14.1074 -7.285,-19.02249 3.226935,-1.28577 6.278966,-3.01147 8.565,-5.2975 6.4,-6.399997 8.959996,-8.959996 12.8,-31.759989 3.38807,-20.116627 -2.433336,-20.70663 -1.28,-32.23999 C 101.08,27.279965 90.583308,12.726434 66.385,12.752469 Z M 19.0475,52.202457 c -0.351563,0.02812 -0.7275,0.1175 -1.1275,0.2775 -6.4,2.559999 1.628667,13.80774 2.56,15.359995 3.84,6.399998 3.84,-2.559999 3.84,-2.559999 0,0 9.37e-4,-13.499375 -5.2725,-13.077496 z m 89.905,0 c -5.27344,-0.421879 -5.2725,13.077496 -5.2725,13.077496 0,0 0,8.959997 3.84,2.559999 0.93133,-1.552255 8.96,-12.799996 2.56,-15.359995 -0.4,-0.16 -0.77594,-0.249375 -1.1275,-0.2775 z"
     />
  <path
     style="fill:currentColor;fill-opacity:1;stroke:none" 
     class="ColorScheme-Highlight"
     d="m 45.4775,54.169956 c -1.443101,0.08137 -2.880266,0.869068 -3.2,2.4475 -0.426285,2.10455 0.542601,3.089838 2.31,3.597499 1.767392,0.507648 5.23869,1.252037 5.665,-0.8525 0.426313,-2.104576 -1.605095,-4.534851 -3.3725,-5.042499 -0.441851,-0.126911 -0.921466,-0.177121 -1.4025,-0.15 z m 37.045,0 c -0.481034,-0.02712 -0.960649,0.02309 -1.4025,0.15 -1.767405,0.507648 -3.798813,2.937923 -3.3725,5.042499 0.42631,2.104537 3.897608,1.360148 5.665,0.8525 1.767399,-0.507661 2.736285,-1.492962 2.31,-3.597499 -0.319734,-1.578442 -1.756899,-2.366131 -3.2,-2.4475 z m -34.465,30.462491 c -0.08841,-0.02127 -0.209709,-0.01961 -0.37,0.01 -0.183189,0.03383 -0.417144,0.105869 -0.715,0.225 -2.382851,0.953216 -0.574255,1.94708 -0.2275,2.525 1.041993,1.736651 1.076201,0.214298 1.02,-0.742501 1.577043,2.245876 7.145012,8.050089 16.235,8.070014 9.690287,0.02099 15.379265,-6.610856 16.489999,-8.457498 -0.06596,0.644855 -0.277257,3.242092 0.990001,1.130001 0.346755,-0.57792 2.157852,-1.571785 -0.225,-2.525001 -2.382852,-0.953087 -0.7425,1.145001 -0.7425,1.145001 0,0 -0.0023,0.03314 -0.0026,0.035 -0.241373,0.02767 -13.339235,1.527501 -16.51,1.527501 -3.119079,0 -15.632209,-1.428383 -16.28,-1.5025 -6.38e-4,-0.0054 -0.005,-0.05999 -0.005,-0.05999 0,0 0.961376,-1.231105 0.3425,-1.38 z"
     />
  <path
     style="color:#eff0f1;fill:currentColor;fill-opacity:1;stroke:none"
     d="m 58.88,88.339107 c 0.317183,0.656256 1.040014,2.421248 1.964786,2.74048 0.924772,0.319231 5.424546,0.291072 6.342248,-0.032 0.917699,-0.322816 1.629925,-2.080896 1.932966,-2.708736 0,0 -3.665455,0.324864 -5.12,0.324864 -1.454545,0 -5.12,-0.324864 -5.12,-0.324864 z"
     />
  <path
     style="opacity:0.1;fill:url(#linearGradient4465);fill-opacity:1;fill-rule:evenodd;stroke:none;stroke-width:1px;stroke-linecap:butt;stroke-linejoin:miter;stroke-opacity:1"
     d="m 64.5175,66.559914 -3.3255,12.16038 23.28,23.279996 11.0105,-4.472833 z"
     />
  <path
     style="fill:#2ecc71;fill-rule:evenodd"
     d="m 64,63.679954 c -0.96,0 -1.92,0.959999 -2.56,2.879999 -1.08988,3.269631 -4.48,7.999997 -3.84,9.439997 0.64,1.439999 2.56,3.359999 6.4,3.359999 3.84,0 5.76,-1.92 6.4,-3.359999 0.64,-1.44 -2.75012,-6.170366 -3.84,-9.439997 -0.64,-1.92 -1.6,-2.879999 -2.56,-2.879999 z m 19.4175,54.102486 c -0.550048,-0.13044 -1.273537,1.01308 -1.145,1.4575 0.128265,0.44377 1.662605,1.54613 2.19,1.695 0.527302,0.14873 1.228628,-0.1689 1.2025,-0.7175 -0.02662,-0.54964 -1.697407,-2.30444 -2.2475,-2.435 z m -37.8625,0.1825 c -0.565303,-0.009 -2.136486,1.24142 -2.2975,1.7675 -0.160302,0.52544 0.0023,1.48408 0.55,1.47 0.547827,-0.0146 2.266494,-1.14628 2.5,-1.545 0.231553,-0.40118 -0.188134,-1.67972 -0.7525,-1.6925 z m 36.2675,1.4475 c -0.520599,-0.0563 -1.360415,0.60702 -1.3975,1.01 -0.04254,0.46016 0.983259,2.04649 1.42,2.3775 0.436692,0.33087 1.20667,0.29294 1.3825,-0.2275 0.175696,-0.52135 -0.740456,-2.7652 -1.205,-3.0875 -0.05807,-0.0403 -0.125632,-0.0644 -0.2,-0.0725 z m -34.945,0.003 c -0.17062,-0.0238 -0.325463,6.8e-4 -0.435,0.09 -0.438138,0.35738 -1.175625,2.66376 -0.96,3.17 0.215676,0.50535 0.945298,0.0837 1.355,-0.28 0.409742,-0.3639 1.350605,-1.6247 1.272501,-2.08 -0.0585,-0.34185 -0.720642,-0.82875 -1.232501,-0.9 z m 2.41,1.4175 c -0.09266,-0.0182 -0.173014,-0.0164 -0.237501,0.0125 -0.515909,0.2313 -1.654247,3.30286 -1.577499,3.8475 0.07707,0.54413 1.312381,0.14474 1.8025,-0.10001 0.490193,-0.24512 1.789632,-1.61484 1.8325,-2.075 0.0377,-0.40286 -1.171386,-1.55743 -1.82,-1.685 z m 30.385,0.0625 c -0.661015,0.006 -2.062914,0.91702 -2.1,1.32 -0.04253,0.46003 0.983259,2.04649 1.42,2.3775 0.436693,0.33088 1.53167,-0.11506 1.7075,-0.635 0.175697,-0.52147 -0.330456,-2.68283 -0.795,-3.005 -0.05807,-0.0403 -0.138069,-0.0584 -0.2325,-0.0575 z m -3.542501,1.34494 c -0.859022,0.0431 -2.209347,0.62633 -2.327499,1.03999 -0.157628,0.55104 1.207956,3.72682 1.627501,4.2575 0.419563,0.53069 1.763481,-0.75722 2.087499,-1.345 0.324058,-0.58764 -0.301597,-3.26212 -0.755,-3.78999 -0.113349,-0.132 -0.34616,-0.17689 -0.632501,-0.1625 z m -23.877499,0.045 c -0.286567,0.009 -0.515176,0.0718 -0.6175,0.2125 -0.409301,0.56282 -0.815444,3.27801 -0.444999,3.8375 0.370414,0.55974 1.612147,1.25544 1.987499,0.6925 0.375331,-0.56269 1.679099,-3.35868 1.4775,-3.895 -0.15116,-0.40358 -1.542796,-0.87406 -2.4025,-0.8475 z m 4.3025,0.9775 c -0.49749,-0.0216 -0.926716,0.0521 -1.0625,0.275 -0.362091,0.5943 -0.107289,3.13251 0.3075,3.66 0.414772,0.52774 1.919247,0.76411 2.2475,0.1725 0.328253,-0.59136 0.749628,-2.92673 0.505,-3.445 -0.152885,-0.32424 -1.16835,-0.62643 -1.9975,-0.6625 z m 15.49,0 c -0.82915,0.0361 -1.844613,0.33826 -1.9975,0.6625 -0.244628,0.51827 0.176748,2.85364 0.505,3.445 0.328254,0.59161 2.272726,0.55575 2.6875,0.0275 0.414789,-0.52749 0.229592,-3.26569 -0.1325,-3.86 -0.135783,-0.22286 -0.56501,-0.29663 -1.0625,-0.275 z m -11.42,0.4525 c -0.593342,0.0156 -1.199226,0.14166 -1.354999,0.3775 -0.311547,0.47181 0.250607,2.88618 0.607499,3.305 0.356878,0.4183 1.310067,0.207 1.592501,-0.2625 0.282433,-0.46963 0.645479,-2.32374 0.434999,-2.735 l 0,-0.4 c -0.105242,-0.20608 -0.686658,-0.3006 -1.28,-0.285 z m 8.19,0.1675 c -0.735401,-0.0765 -1.962144,0.20819 -2.12,0.5175 -0.210482,0.41126 0.152565,2.26537 0.434999,2.735 0.282434,0.4695 2.075623,0.9208 2.432501,0.5025 0.356892,-0.41882 0.07905,-3.07319 -0.232501,-3.545 -0.07789,-0.11791 -0.269866,-0.18449 -0.514999,-0.21 z m -4.475,0.0975 c -0.766513,-0.008 -1.530582,0.0972 -1.690001,0.2875 -0.316793,0.38433 0.07571,2.77528 0.377501,3.29 0.302149,0.51545 2.278659,0.26864 2.785,-0.095 0.506329,-0.36441 0.571478,-2.57025 0.2325,-3.09249 -0.169489,-0.26106 -0.938487,-0.3821 -1.705,-0.39 z"
     />
  <path
     style="fill:currentColor;fill-opacity:1;stroke:none" 
     class="ColorScheme-Highlight"
     d="m 75.495,6.6424713 c -2.242355,0.013215 -5.397267,4.1316897 -6.2125,5.2474987 l -12.375,-0.3075 c 0,0 -13.009658,0.791976 -16.177501,5.769999 -0.08755,0.137583 -0.164971,0.292647 -0.237499,0.454998 -0.293721,-1.739752 -0.689889,-3.607815 -1.235,-5.659997 l -5.11,6.347498 -7.71,1.46 c 0,0 1.470588,5.655205 1.81,15.384994 0.339411,9.729789 -4.18554,12.671438 -4.977499,22.627493 -0.791959,9.956042 2.884999,18.214994 2.884999,18.214994 0,0 1.02725,-1.145367 1.3,-3.054999 0.813342,2.404863 0.8925,4.932499 0.8925,4.932499 0,0 1.616497,-5.218227 0.6925,-8.552498 1.368552,2.678143 2.345,4.225 2.345,4.225 0,0 2.745639,-3.31982 2.6325,-10.447498 -0.08188,-5.158619 -2.99009,-18.492599 -2.327501,-31.214989 0.932881,2.24118 1.658077,4.984557 1.572501,8.022497 -0.226273,8.03274 4.185,9.049997 4.185,9.049997 0,0 -1.810242,-4.185597 0.4525,-10.294997 1.065632,-2.877204 2.273202,-5.765806 2.86,-9.517497 1.321583,7.205055 3.7025,14.722496 3.7025,14.722496 0,0 21.886751,-7.955339 25.5975,-27.257491 1.502469,8.324243 -0.1425,12.889995 -0.1425,12.889995 0,0 5.477729,-2.436006 7.2575,-11.679996 3.010736,11.465587 15.1825,17.562494 15.1825,17.562494 0,0 -1.018282,-8.938734 0.452499,-14.934995 C 94.121463,15.285733 80.756768,12.677926 77.7125,12.14747 77.709409,8.0599435 76.773933,6.6349346 75.495,6.6424713 Z M 92.96,8.3199709 c 0,0 5.12,22.3999931 12.48,23.1999931 7.36,0.799999 7.52,-15.039996 7.52,-15.039996 0,0 -7.04,2.4 -20,-8.1599971 z"
     />
  <path
     style="fill:currentColor;fill-opacity:1;stroke:none" 
     class="ColorScheme-Highlight"
     d="m 86.08,111.99994 -10.56,6.4 8.6025,9.59999 3.307501,0 C 88.12741,124.93902 88.619256,119.41456 86.08,111.99994 Z"
     />
  <path
     style="fill:currentColor;fill-opacity:1;stroke:none" 
     class="ColorScheme-Highlight"
     d="m 83.6,7.759971 c 6.52,0.2 15,-4.8799984 15,-4.8799984 0,0 4,9.2399974 0.8,11.2399964 C 96.2,16.119968 87.88,11.47997 87.88,11.47997 Z"
     />
  <path
     style="color:#eff0f1;fill:currentColor;fill-opacity:1;stroke:none"
     d="m 72.96,87.936164 c 0,0 -1.736925,0.275071 -2.56,0.412927 0.164111,1.744768 1.648284,2.424448 2.56,-0.412927 z"
     />
  <path
     style="color:#eff0f1;fill:currentColor;fill-opacity:1;stroke:none"
     d="m 55.04,87.936036 c 0,0 1.736925,0.275071 2.56,0.412927 -0.164111,1.744768 -1.648284,2.424448 -2.56,-0.412927 z"
     />
</svg>
