<svg xmlns="http://www.w3.org/2000/svg" xmlns:xlink="http://www.w3.org/1999/xlink" xmlns:inkscape="http://www.inkscape.org/namespaces/inkscape" viewBox="0 0 128 128">
  <defs id="defs3051">
    <style type="text/css" id="current-color-scheme">
      .ColorScheme-Text {
        color:#4d4d4d;
      }
      .ColorScheme-Highlight {
        color:#3daee9;
      }
      </style>
    <linearGradient
       inkscape:collect="always"
       xlink:href="#linearGradient4213"
       id="linearGradient6632"
       gradientUnits="userSpaceOnUse"
       x1="60.000046"
       y1="982.36224"
       x2="115"
       y2="1037.3622"
       gradientTransform="matrix(1.2800007,0,0,1.28,-7e-5,-1219.0238)" />
  </defs>
  <g
     transform="translate(0,-924.36216)">
    <path
       style="fill:currentColor;fill-opacity:1;stroke:none" 
       class="ColorScheme-Highlight"
       d="M 0 0 L 0 128 L 128 128 L 128 0 L 0 0 z "
       transform="translate(0,924.36216)"
       id="rect5879" />
    <path
       d="M 89.599979,941.00222 128,979.40217 l 0,72.96003 -51.200028,0 z"
       style="opacity:0.2;fill:url(#linearGradient6624);fill-opacity:1;fill-rule:evenodd;stroke:none;stroke-width:1px;stroke-linecap:butt;stroke-linejoin:miter;stroke-opacity:1" />
    <path
       id="path6510"
       d="m 89.599979,1052.3622 c -6.400003,-12.8 -3.840002,-30.72 -3.840002,-30.72 l -43.520024,0 c 0,0 2.560001,17.92 -3.840002,30.72 z"
       style="color:#eff0f1;fill:currentColor;fill-opacity:1;stroke:none" />
    <path
       style="color:#eff0f1;fill:currentColor;fill-opacity:1;stroke:none"
       d="M 64 12.800781 C 48.639992 12.800781 25.599609 19.600471 25.599609 60.400391 C 25.599609 83.200401 38.39937 98.560938 47.359375 104.96094 C 56.31938 111.36094 58.453331 113.43945 64 113.43945 C 69.546669 113.43945 71.68062 111.36094 80.640625 104.96094 C 88.775738 99.150146 100.07413 85.951324 102.08594 66.505859 C 104.70401 65.765418 104.97153 63.947613 105.51172 61.566406 C 106.04233 59.227336 108.06114 57.675551 107.46289 50.300781 C 107.08897 45.691491 105.93777 43.584004 102.00586 43.521484 C 101.62374 43.515715 101.22082 43.536622 100.80859 43.572266 C 95.342085 17.632961 76.944615 12.800781 64 12.800781 z M 24.714844 44.800781 C 20.782929 44.863291 19.631725 46.970788 19.257812 51.580078 C 18.659554 58.954808 20.676417 60.506633 21.207031 62.845703 C 21.759241 65.279883 22.011645 67.132514 24.796875 67.839844 C 24.614914 64.898524 24.603595 61.762591 24.800781 58.394531 C 25.089361 53.465251 25.811514 49.009857 26.880859 44.960938 C 26.119477 44.853187 25.390394 44.790581 24.714844 44.800781 z "
       transform="translate(0,924.36216)"
       id="path6512" />
    <path
       d="m 63.999965,980.68219 -5.368003,21.76001 23.280013,23.28 13.053007,-14.0725 z"
       style="opacity:0.1;fill:url(#linearGradient6626);fill-opacity:1;fill-rule:evenodd;stroke:none;stroke-width:1px;stroke-linecap:butt;stroke-linejoin:miter;stroke-opacity:1" />
    <path
       style="fill:currentColor;fill-opacity:1;stroke:none" 
       class="ColorScheme-Highlight"
       d="M 78.640625 7.6796875 L 61.439453 12.800781 C 64.783535 26.177103 84.629499 55.909717 96.462891 51.654297 C 95.713507 53.91554 96.029691 56.274464 96.517578 56.972656 C 95.062694 58.174186 92.674344 66.248965 93.755859 67.796875 C 92.300947 68.998025 91.553227 74.496872 92.634766 76.044922 C 91.179888 77.246422 90.342285 83.305616 91.423828 84.853516 C 89.968872 86.054916 88.027746 89.91685 92.015625 90.34375 C 98.523547 91.04195 101.28846 88.427434 101.47461 87.052734 C 102.92957 85.851034 107.66747 79.497019 106.58594 77.949219 C 108.04087 76.747819 112.77881 70.387754 111.69727 68.839844 C 113.15225 67.638314 116.63257 61.108364 115.54297 59.558594 C 116.99791 58.357064 116.09878 48.321142 105.62109 47.013672 C 103.85655 46.793581 102.40244 46.891515 101.20117 47.205078 C 111.16534 29.496031 78.640625 7.6796875 78.640625 7.6796875 z M 46.080078 10.240234 C 36.986099 10.532664 27.714469 9.4391906 20.925781 27.712891 L 26.214844 47.433594 C 25.155826 47.246586 23.926303 47.212967 22.486328 47.392578 C 12.008635 48.700128 11.109504 58.734027 12.564453 59.935547 C 11.474833 61.485327 14.953263 68.01722 16.408203 69.21875 C 15.326681 70.76653 20.066545 77.126625 21.521484 78.328125 C 20.439961 79.875925 25.177885 86.230041 26.632812 87.431641 C 26.818984 88.806441 29.581923 91.420856 36.089844 90.722656 C 40.077723 90.295756 38.136614 86.433922 36.681641 85.232422 C 37.763184 83.684522 36.925564 77.625228 35.470703 76.423828 C 36.552242 74.875748 35.806489 69.377061 34.351562 68.175781 C 35.433076 66.627871 33.044733 58.553083 31.589844 57.351562 C 32.236395 56.426315 32.580933 52.589676 30.53125 49.925781 C 30.066399 46.928728 28.696322 36.404901 32 32 C 35.840003 26.88 61.440861 24.320781 58.880859 12.800781 L 46.080078 10.240234 z M 47.037109 51.207031 C 45.341856 51.287982 43.654898 52.072176 43.279297 53.642578 C 42.778528 55.736388 43.91402 56.715623 45.990234 57.220703 C 48.066439 57.725723 51.079277 57.566436 51.580078 55.472656 C 52.080879 53.378796 50.761768 51.862482 48.685547 51.357422 C 48.166491 51.231154 47.602194 51.180048 47.037109 51.207031 z M 80.962891 51.207031 C 80.397806 51.180048 79.831556 51.231154 79.3125 51.357422 C 77.236279 51.862482 75.917168 53.378796 76.417969 55.472656 C 76.91877 57.566436 79.931607 57.725723 82.007812 57.220703 C 84.084027 56.715623 85.221472 55.736388 84.720703 53.642578 C 84.345102 52.072176 82.658144 51.287982 80.962891 51.207031 z "
       transform="translate(0,924.36216)"
       id="path6520" />
    <path
       style="opacity:1;fill:#2ecc71;fill-opacity:1;stroke:none"
       d="M 61.923828 11.445312 C 61.311587 11.456801 60.695058 11.482048 60.074219 11.523438 C 40.39951 12.835098 28.535156 24.693359 28.535156 24.693359 A 1.2807478 1.2807471 0 0 0 30.345703 26.505859 C 30.345703 26.505859 41.518829 15.324512 60.244141 14.076172 C 78.777313 12.840622 93.855469 26.542969 93.855469 26.542969 A 1.2801918 1.2801911 0 0 0 95.585938 24.65625 C 95.585937 24.65625 80.903304 11.08916 61.923828 11.445312 z M 60.658203 15.927734 C 60.055195 15.936523 59.449193 15.961199 58.837891 16.001953 C 39.398647 17.297903 28.962891 29.013672 28.962891 29.013672 A 0.64007499 0.64007464 0 0 0 29.917969 29.867188 C 29.917969 29.867188 39.961098 18.543347 58.921875 17.279297 C 77.76021 16.023417 92.988281 31.171875 92.988281 31.171875 A 0.64006435 0.640064 0 1 0 93.892578 30.265625 C 93.892578 30.265625 79.351453 15.655298 60.658203 15.927734 z M 103.67969 21.759766 A 3.2000017 3.8399999 0 0 0 100.48047 25.599609 A 3.2000017 3.8399999 0 0 0 103.67969 29.439453 A 3.2000017 3.8399999 0 0 0 106.88086 25.599609 A 3.2000017 3.8399999 0 0 0 103.67969 21.759766 z M 97.279297 28.160156 A 3.2000017 3.8399999 0 0 0 94.080078 32 A 3.2000017 3.8399999 0 0 0 97.279297 35.839844 A 3.2000017 3.8399999 0 0 0 100.48047 32 A 3.2000017 3.8399999 0 0 0 97.279297 28.160156 z M 104.32031 30.720703 A 3.2000017 3.8399999 0 0 0 101.11914 34.560547 A 3.2000017 3.8399999 0 0 0 104.32031 38.400391 A 3.2000017 3.8399999 0 0 0 107.51953 34.560547 A 3.2000017 3.8399999 0 0 0 104.32031 30.720703 z "
       transform="translate(0,924.36216)"
       id="ellipse6528" />
    <path
       style="opacity:1;fill:#2ecc71;fill-opacity:1;stroke:none"
       d="m 63.999965,980.68216 c 1.920001,0 1.463101,8.13772 3.840002,14.08 2.560001,6.40004 3.840002,8.96004 -3.840002,8.96004 -7.680004,0 -6.400004,-2.56 -3.840002,-8.96004 2.376901,-5.94228 1.920001,-14.08 3.840002,-14.08 z"
       />
    <path
       style="fill:currentColor;fill-opacity:1;stroke:none" 
       class="ColorScheme-Highlight"
       d="M 59.621094,86.943359 C 58.456249,86.994962 57.2,87.442797 56,88.591797 c -1.600001,1.532 -4.800781,0.640625 -4.800781,0.640625 1.600001,3.0639 6.400777,8.046875 12.800781,8.046875 6.400003,0 11.20078,-4.982975 12.800781,-8.046875 0,0 -3.20078,0.891375 -4.800781,-0.640625 -3.200001,-3.064 -6.799999,-1.1489 -8,0 -0.750001,-0.718063 -2.437499,-1.734443 -4.378906,-1.648438 z m -5.861328,3.296875 c 6.960101,1.055993 13.379804,0.666984 20.480468,0 0,0 -3.840231,3.839844 -10.240234,3.839844 -6.400004,0 -10.240234,-3.839844 -10.240234,-3.839844 z"
       transform="translate(0,924.36216)"
       />
  </g>
</svg>
