<svg xmlns="http://www.w3.org/2000/svg" xmlns:xlink="http://www.w3.org/1999/xlink" xmlns:inkscape="http://www.inkscape.org/namespaces/inkscape" viewBox="0 0 128 128">
  <defs id="defs3051">
    <style type="text/css" id="current-color-scheme">
      .ColorScheme-Text {
        color:#4d4d4d;
      }
      .ColorScheme-Highlight {
        color:#3daee9;
      }
      </style>
    <linearGradient
       id="linearGradient4213"
       inkscape:collect="always">
      <stop
         id="stop4215"
         offset="0"
         style="stop-color:#000000;stop-opacity:1;" />
      <stop
         id="stop4217"
         offset="1"
         style="stop-color:#000000;stop-opacity:0;" />
    </linearGradient>
    <linearGradient
       inkscape:collect="always"
       xlink:href="#linearGradient4213"
       id="linearGradient6632"
       gradientUnits="userSpaceOnUse"
       x1="60.000046"
       y1="982.36224"
       x2="115"
       y2="1037.3622"
       gradientTransform="matrix(1.2800007,0,0,1.28,-7e-5,-1219.0238)" />
    <linearGradient
       inkscape:collect="always"
       xlink:href="#linearGradient4213"
       id="linearGradient4475-2"
       x1="60.000046"
       y1="982.36224"
       x2="115"
       y2="1037.3622"
       gradientUnits="userSpaceOnUse"
       gradientTransform="matrix(1.28,0,0,1.28,0,-1219.0237)" />
  </defs>
  <path
     style="fill:currentColor;fill-opacity:1;stroke:none"
     d="M 0 0 L 0 128 L 128 128 L 128 0 L 0 0 z "
     class="ColorScheme-Highlight"
     id="rect5879" />
  <path
     style="opacity:0.2;fill:url(#linearGradient4475-2);fill-opacity:1;fill-rule:evenodd;stroke:none;stroke-width:1px;stroke-linecap:butt;stroke-linejoin:miter;stroke-opacity:1"
     d="M 89.931641 23.164062 L 76.800781 128 L 128 128 L 128 57.974609 L 89.931641 23.164062 z "
     id="path15" />
  <path
     style="color:#eff0f1;fill:currentColor;fill-opacity:1;stroke:none"
     d="M 64 12.800781 C 50.643427 12.800781 32.709408 17.979437 27.193359 46.132812 C 26.78015 46.097432 26.376848 46.076251 25.994141 46.082031 C 22.062226 46.144541 19.631726 48.252038 19.257812 52.861328 C 18.659554 60.236058 22.966888 61.77479 22.488281 64.125 C 22.07725 66.143338 23.19796 68.192203 25.712891 68.994141 C 27.589728 97.394896 44.275383 111.84641 47.359375 128 L 80.640625 128 C 83.724548 111.84677 100.40964 97.395577 102.28711 68.996094 C 104.80357 68.194702 105.92288 66.143978 105.51172 64.125 C 105.03311 61.77479 109.34045 60.236098 108.74219 52.861328 C 108.36828 48.252038 105.93777 46.144551 102.00586 46.082031 C 101.62315 46.076231 101.21985 46.097433 100.80664 46.132812 C 95.290592 17.979438 77.356572 12.800781 64 12.800781 z M 47.128906 47.361328 C 47.380159 47.369428 47.641275 47.405928 47.912109 47.470703 C 50.078694 47.988913 50.24522 51.105506 49.722656 53.253906 C 49.20001 55.402306 48.186157 56.578727 46.019531 56.060547 C 43.852859 55.542327 43.131684 52.613264 43.654297 50.464844 C 44.111589 48.584985 45.370138 47.304809 47.128906 47.361328 z M 80.871094 47.361328 C 82.629862 47.304808 83.888411 48.584985 84.345703 50.464844 C 84.868316 52.613264 84.147142 55.542327 81.980469 56.060547 C 79.813844 56.578727 78.79999 55.402306 78.277344 53.253906 C 77.75478 51.105506 77.921307 47.988913 80.087891 47.470703 C 80.358725 47.405923 80.619841 47.369402 80.871094 47.361328 z M 51.119141 85.402344 C 53.502814 85.349644 58.539997 87.039062 64 87.039062 C 70.720004 87.039062 76.800077 84.479766 78.080078 85.759766 C 79.360078 87.039766 72.960005 94.720703 64 94.720703 C 55.039995 94.720703 48.639921 87.039766 49.919922 85.759766 C 50.159922 85.520066 50.569062 85.415344 51.119141 85.402344 z M 55.039062 87.039062 C 55.039062 87.039063 57.599996 90.880859 64 90.880859 C 70.400003 90.880859 72.960938 87.039065 72.960938 87.039062 C 72.960938 87.039062 66.560001 88.320312 64 88.320312 C 60.159998 88.320312 55.039062 87.039062 55.039062 87.039062 z "
     id="path5859" />
  <path
     style="opacity:1;fill:#2ecc71;fill-opacity:1;stroke:none"
     d="M 64 53.759766 C 60.159998 53.759766 52.479994 76.800781 64 76.800781 C 75.520006 76.800781 67.840002 53.759766 64 53.759766 z "
     id="path5867" />
</svg>
