<svg xmlns="http://www.w3.org/2000/svg" xmlns:xlink="http://www.w3.org/1999/xlink" xmlns:inkscape="http://www.inkscape.org/namespaces/inkscape" viewBox="0 0 128 128">
  <defs id="defs3051">
    <style type="text/css" id="current-color-scheme">
      .ColorScheme-Text {
        color:#4d4d4d;
      }
      .ColorScheme-Highlight {
        color:#3daee9;
      }
      </style>
    <linearGradient
       id="linearGradient4213"
       inkscape:collect="always">
      <stop
         id="stop4215"
         offset="0"
         style="stop-color:#000000;stop-opacity:1;" />
      <stop
         id="stop4217"
         offset="1"
         style="stop-color:#000000;stop-opacity:0;" />
    </linearGradient>
    <linearGradient
       inkscape:collect="always"
       xlink:href="#linearGradient4213"
       id="linearGradient4475-2"
       x1="60.000046"
       y1="982.36224"
       x2="115"
       y2="1037.3622"
       gradientUnits="userSpaceOnUse"
       gradientTransform="matrix(1.28,0,0,1.28,0,-1219.0237)" />
    <linearGradient
       inkscape:collect="always"
       xlink:href="#linearGradient4213"
       id="linearGradient4465-9"
       x1="46"
       y1="63"
       x2="60.125"
       y2="77.125"
       gradientUnits="userSpaceOnUse"
       gradientTransform="matrix(1.28,0,0,1.28,-1.28,-6.4000456)" />
  </defs>
    <path
       style="fill:currentColor;fill-opacity:1;stroke:none"
       d="M 0 0 L 0 128 L 128 128 L 128 0 L 0 0 z "
       class="ColorScheme-Highlight"
       id="rect5879" />
  <path
     style="opacity:0.2;fill:url(#linearGradient4475-2);fill-opacity:1;fill-rule:evenodd;stroke:none;stroke-width:1px;stroke-linecap:butt;stroke-linejoin:miter;stroke-opacity:1"
     d="M 98.560547 20.480469 L 76.800781 128 L 128 128 L 128 49.919922 L 98.560547 20.480469 z "
     id="path15" />
  <path
     style="fill:currentColor;fill-opacity:1;stroke:none"
     class="ColorScheme-Highlight"
     d="m 64,6.3999544 c -32,0 -51.2,25.5999996 -44.8,57.5999996 6.275716,31.378582 14.08,25.6 7.68,32 -6.4,6.399996 0,12.799996 6.4,19.199996 6.4,6.4 17.92,6.4 17.92,6.4 l 12.8,0 12.8,0 c 0,0 11.52,0 17.92,-6.4 6.4,-6.4 12.8,-12.8 6.4,-19.199996 -6.4,-6.4 1.40428,-0.621418 7.68,-32 6.4,-32 -12.8,-57.5999996 -44.8,-57.5999996 z"
     id="path17" />
  <path
     style="color:#eff0f1;fill:currentColor;fill-opacity:1;stroke:none"
     d="m 66.3875,12.752454 c -0.783012,8.4e-4 -1.578329,0.01575 -2.3875,0.0475 -25.893472,1.015885 -35.84,14.08 -34.56,26.88 0.2304,2.303998 0.07077,3.9003 -0.289999,5.165 -5.166549,0.367699 -6.747409,3.308225 -7.277501,9.372501 -0.895353,10.242752 3.726491,13.621319 2.917501,16.924999 -0.602897,2.461979 0.788396,5.686445 3.347499,6.767501 3.468086,13.961974 7.739802,20.687301 12.8225,25.769995 0.50689,0.50689 1.051816,0.95577 1.6125,1.38 0.392299,4.38564 0.481735,13.63154 -4.1725,22.94 l 51.2,0 c -4.654235,-9.30846 -4.564799,-18.55436 -4.1725,-22.94 0.560684,-0.42423 1.10561,-0.87311 1.6125,-1.38 5.050925,-5.05092 9.301065,-11.727841 12.7575,-25.512496 3.05817,-0.689321 4.79742,-4.31994 4.135,-7.025 -0.80899,-3.30368 3.81536,-6.682247 2.92,-16.924999 -0.47036,-5.381041 -1.77495,-8.29949 -5.67,-9.1475 -0.22873,-1.298906 -0.30723,-2.942716 -0.0625,-5.390001 1.24,-12.4 -10.459114,-26.953535 -34.7325,-26.9275 z"
     id="path19" />
  <path
     style="opacity:0.1;fill:url(#linearGradient4465-9);fill-opacity:1;fill-rule:evenodd;stroke:none;stroke-width:1px;stroke-linecap:butt;stroke-linejoin:miter;stroke-opacity:1"
     d="m 64,53.759954 -5.368,21.759962 23.28,23.28 13.053,-14.072448 z"
     id="path21" />
  <path
     style="fill:#2ecc71;fill-rule:evenodd;stroke:none"
     d="m 47.36,46.079954 c -6.4,0 -12.8,1.28 -15.36,2.56 -2.56,1.28 -5.12,2.56 -5.12,3.84 0,1.28 5.12,0 6.4,2.56 1.28,2.559962 2.56,8.96 8.96,11.52 6.4,2.56 14.08,2.56 16.64,-6.4 2.56,-8.959961 3.84,-8.96 5.12,-8.96 1.28,0 2.56,3.9e-5 5.12,8.96 2.56,8.96 10.24,8.96 16.64,6.4 6.4,-2.56 7.68,-8.960038 8.96,-11.52 1.28,-2.56 6.4,-1.28 6.4,-2.56 0,-1.28 -2.56,-2.56 -5.12,-3.84 -2.56,-1.28 -8.96,-2.56 -15.36,-2.56 -6.4,0 -11.52,2.56 -16.64,2.56 -5.12,0 -10.24,-2.56 -16.64,-2.56 z m 0.4,2.08 c 1.52,0 3.12,0.16 4.72,0.48 6.4,1.28 6.4,7.680039 3.84,12.8 -2.56,5.12 -8.96,6.4 -16.64,1.28 -2.56,-2.56 -2.56,-6.4 -1.28,-10.24 0.96,-2.88 4.8,-4.32 9.36,-4.32 z m 32.48,0 c 4.56,0 8.4,1.44 9.36,4.32 1.28,3.84 1.28,7.680128 -1.28,10.24 -7.68,5.12 -14.08,3.84 -16.64,-1.28 -2.56,-5.119923 -2.56,-11.52 3.84,-12.8 1.6,-0.32 3.2,-0.48 4.72,-0.48 z m -16.24,6.88 c -1.92,0 -2.743092,8.137728 -5.12,14.08 -1.28,3.2 -3.2,5.44 -2.56,6.88 0.64,1.44 3.84,3.36 7.68,3.36 3.84,0 7.04,-1.92 7.68,-3.36 0.64,-1.44 -1.28,-3.68 -2.56,-6.88 -2.376908,-5.942272 -3.2,-14.08 -5.12,-14.08 z m -37.12,19.2 a 1.28,1.28 0 0 0 -1.28,1.28 1.28,1.28 0 0 0 0.875,1.212501 l -0.875,2.627499 1.28,1.28 1.28,-1.28 -0.875,-2.627499 a 1.28,1.28 0 0 0 0.875,-1.212501 1.28,1.28 0 0 0 -1.28,-1.28 z m 74.24,0 a 1.28,1.28 0 0 0 -1.28,1.28 1.28,1.28 0 0 0 0.875,1.212501 l -0.875,2.627499 1.28,1.28 1.28,-1.28 -0.875,-2.627499 a 1.28,1.28 0 0 0 0.875,-1.212501 1.28,1.28 0 0 0 -1.28,-1.28 z"
     id="path23" />
  <path
     style="fill:currentColor;fill-opacity:1;stroke:none"
     class="ColorScheme-Highlight"
     d="m 47.035,52.487454 c -1.695252,0.08096 -3.379399,0.864604 -3.755,2.435 -0.500769,2.093811 0.633787,3.072425 2.710001,3.5775 2.076202,0.505024 5.089199,0.346286 5.589999,-1.747499 0.500801,-2.093863 -0.81628,-3.609938 -2.8925,-4.115 -0.519055,-0.12626 -1.087416,-0.176985 -1.6525,-0.150001 z m 33.93,0 c -0.565084,-0.02698 -1.133445,0.02373 -1.6525,0.150001 -2.07622,0.505062 -3.393301,2.021137 -2.8925,4.115 0.5008,2.093785 3.513797,2.252523 5.589999,1.747499 2.076213,-0.505075 3.21077,-1.483689 2.710001,-3.5775 -0.375601,-1.570396 -2.059748,-2.354046 -3.755,-2.435 z m -23.49,34.22 C 56.9,86.754699 56.4,86.929479 56,87.312455 c -1.600032,1.532032 -6.08,1.28 -6.08,1.28 0.8,1.531904 2.72,2.743571 5.24,3.572499 2.52,0.829056 5.64,2.555 8.84,2.555 3.2,0 6.32,-1.725944 8.84,-2.555 2.52,-0.828928 4.44,-2.040467 5.24,-3.572499 0,0 -4.479968,0.252032 -6.08,-1.28 -1.6,-1.531904 -4.8,0.2625 -8,0.2625 -2.4,0 -4.8,-1.009233 -6.525,-0.867501 z"
     id="path25" />
  <path
     style="fill:currentColor;fill-opacity:1;stroke:none"
     class="ColorScheme-Highlight"
     d="M 102.19067,33.534828 C 88.8,7.5199544 62.668428,23.030534 62.668428,23.030534 c 0,0 -9.140452,-19.2551556 -26.116181,-1.229607 -12.909601,13.707955 -7.152781,14.019072 -7.152781,14.019072 L 33.278487,16.842015 54.959323,7.1217336 85.640513,11.013382 98.56,20.47998 l 7.3199,11.243392 z"
     id="path27" />
</svg>
