<svg xmlns="http://www.w3.org/2000/svg" xmlns:sodipodi="http://sodipodi.sourceforge.net/DTD/sodipodi-0.dtd" xmlns:xlink="http://www.w3.org/1999/xlink" xmlns:inkscape="http://www.inkscape.org/namespaces/inkscape" viewBox="0 0 128 128">
  <defs id="defs3051">
    <style type="text/css" id="current-color-scheme">
      .ColorScheme-Text {
        color:#4d4d4d;
      }
      .ColorScheme-Highlight {
        color:#3daee9;
      }
      </style>
    <linearGradient
       id="linearGradient4213"
       inkscape:collect="always">
      <stop
         id="stop4215"
         offset="0"
         style="stop-color:#000000;stop-opacity:1;" />
      <stop
         id="stop4217"
         offset="1"
         style="stop-color:#000000;stop-opacity:0;" />
    </linearGradient>
    <linearGradient
       inkscape:collect="always"
       xlink:href="#linearGradient4213"
       id="linearGradient4475"
       x1="60.000046"
       y1="982.36224"
       x2="115"
       y2="1037.3622"
       gradientUnits="userSpaceOnUse"
       gradientTransform="matrix(1.28,0,0,1.28,0,-1219.0237)" />
    <linearGradient
       inkscape:collect="always"
       xlink:href="#linearGradient4213"
       id="linearGradient4465"
       x1="46"
       y1="63"
       x2="60.125"
       y2="77.125"
       gradientUnits="userSpaceOnUse"
       gradientTransform="matrix(1.28,0,0,1.28,-1.28,-7.6800456)" />
  </defs>
  <path
     style="fill:currentColor;fill-opacity:1;stroke:none" 
     class="ColorScheme-Highlight"
     d="M 0 0 L 0 128 L 128 128 L 128 0 L 0 0 z "
     />
  <path
     style="opacity:0.2;fill:url(#linearGradient4475);fill-opacity:1;fill-rule:evenodd;stroke:none;stroke-width:1px;stroke-linecap:butt;stroke-linejoin:miter;stroke-opacity:1"
     d="m 89.6,20.47998 38.4,38.399949 0,69.119991 -51.2,0 z"
     />
  <path
     style="color:#eff0f1;fill:currentColor;fill-opacity:1;stroke:none"
     d="m 64,10.239954 c -7.68,0 -21.38357,6.760032 -26.24,11.06 -4.059276,3.594153 -8.921563,8.911286 -10.4125,22.4625 -2.047875,0.233508 -3.313789,-2.659356 -5.5875,-1.5225 -2.56,1.28 -2.56,2.56 -2.56,6.4 0,7.399002 2.56,12.8 3.84,15.36 1.266712,2.533424 0.0362,8.813188 4.9725,6.4625 0.882022,5.308889 2.421963,10.166211 5.1075,13.887501 6.56,9.090047 7.2,13.569999 11.68,16.769995 0.758463,0.54176 1.625417,1.01996 2.535,1.47001 -0.111919,0.99341 -1.62534,13.13905 -10.215,25.40999 l 53.76,0 c -8.58966,-12.27094 -10.103081,-24.41658 -10.215,-25.40999 0.909583,-0.45005 1.776537,-0.92825 2.535,-1.47001 4.48,-3.199996 5.12,-8.959947 11.68,-16.769995 2.964579,-3.52954 4.515288,-8.407247 5.3325,-13.7925 4.66513,2.044121 3.50105,-4.064594 4.7475,-6.557501 1.28,-2.56 3.84,-7.960998 3.84,-15.36 0,-3.84 0,-5.12 -2.56,-6.4 -2.2846,-1.142301 -3.55223,1.782476 -5.6175,1.517501 C 99.05119,30.257348 93.982912,25.042866 90.24,21.299954 c -4.48,-4.48 -18.56,-11.06 -26.24,-11.06 z"
     />
  <path
     style="fill:currentColor;fill-opacity:1;stroke:none" 
     class="ColorScheme-Highlight"
     d="m 47.0375,49.927454 c -1.695245,0.08095 -3.381901,0.864604 -3.7575,2.435 -0.500767,2.093799 0.636296,3.072425 2.7125,3.5775 2.076196,0.504999 5.086701,0.346274 5.5875,-1.747499 0.500797,-2.09385 -0.816288,-3.609951 -2.8925,-4.115 -0.519053,-0.12626 -1.084918,-0.176985 -1.65,-0.150001 z m 33.925,0 c -0.565082,-0.02698 -1.130947,0.02373 -1.65,0.150001 -2.076212,0.505049 -3.393297,2.02115 -2.8925,4.115 0.500799,2.093773 3.511304,2.252498 5.5875,1.747499 2.076204,-0.505075 3.213267,-1.483701 2.7125,-3.5775 -0.375599,-1.570396 -2.062255,-2.354049 -3.7575,-2.435 z M 64,71.679954 l -8.96,1.12 c -2.56,0 -6.4,2.56 -7.68,3.84 -1.28,1.28 -2.56,5.12 -1.28,6.4 1.28,1.28 3.84,1.28 8.96,0 5.12,-1.28 3.84,0 8.96,0 5.12,0 3.84,-1.28 8.96,0 5.12,1.28 7.68,1.28 8.96,0 1.28,-1.28 0,-5.12 -1.28,-6.4 -1.28,-1.28 -5.12,-3.84 -7.68,-3.84 l -8.96,-1.12 z m -10.275,12.157501 0,0.0026 a 0.640064,0.640064 0 0 0 -0.12,1.262499 c 0,0 5.168334,1.297501 10.395,1.297501 5.226666,0 10.395,-1.297501 10.395,-1.297501 a 0.64029412,0.64029412 0 0 0 -0.31,-1.242499 c 0,0 -5.071666,1.26 -10.085,1.26 -5.013334,0 -10.085,-1.26 -10.085,-1.26 a 0.640064,0.640064 0 0 0 -0.19,-0.0225 z"
     />
  <path
     style="opacity:0.1;fill:url(#linearGradient4465);fill-opacity:1;fill-rule:evenodd;stroke:none;stroke-width:1px;stroke-linecap:butt;stroke-linejoin:miter;stroke-opacity:1"
     d="m 64.7735,51.716191 -8.9575,22.523725 23.28,23.28 16.6425,-14.836224 z"
     id="path4407"
     inkscape:connector-curvature="0"
     sodipodi:nodetypes="ccccc" />
  <path
     style="fill:#2ecc71;fill-rule:evenodd"
     d="m 25.625,40.314955 c -0.493458,-0.02595 -0.828951,0.493305 -0.6025,0.932499 0,0 3.809151,5.134153 6.52,7.845001 2.409151,2.409152 3.685,6.149999 3.685,6.149999 l 0.145,0.4375 1.7425,0 c 0.0018,2.6e-5 0.0032,-1.4e-5 0.005,0 a 10.88,10.88 0 0 0 10.88,10.88 10.88,10.88 0 0 0 8.6825,-4.34 c -1.836921,4.067335 -3.875982,8.576478 -1.962492,10.9 2.24,2.72 4.8,3.68 9.28,3.68 4.48,0 7.04,-0.96 9.28,-3.68 1.914959,-2.325308 -0.127002,-6.840272 -1.965,-10.91 a 10.88,10.88 0 0 0 8.685,4.35 10.88,10.88 0 0 0 10.88,-10.88 l 1.7425,0 0.145,-0.4375 c 0,0 1.27585,-3.740847 3.685,-6.149999 2.71085,-2.710848 6.52,-7.845001 6.52,-7.845001 0.22645,-0.439194 -0.10904,-0.958445 -0.6025,-0.932499 -0.23292,0.0128 -0.44076,0.150118 -0.5425,0.36 0,0 -3.87085,5.103347 -6.28,7.512499 -2.452497,2.452506 -3.58495,5.575662 -3.8075,6.2125 l -0.86,0 c -0.03135,-4.63e-4 -0.05343,0.01216 -0.0825,0.015 A 10.88,10.88 0 0 0 80,44.799954 10.88,10.88 0 0 0 69.2475,54.117455 c -0.20723,-0.25859 -0.473728,-0.555986 -0.8475,-0.855001 -0.897513,-0.718016 -2.337778,-1.4225 -4.4,-1.4225 -2.062222,0 -3.502487,0.704484 -4.4,1.4225 -0.375034,0.300025 -0.642609,0.59838 -0.849999,0.8575 A 10.88,10.88 0 0 0 48,44.799954 10.88,10.88 0 0 0 37.2075,54.417455 c -0.03259,-0.0037 -0.057,-0.01802 -0.09251,-0.0175 l -0.86,0 c -0.22255,-0.636838 -1.355004,-3.759995 -3.807501,-6.212501 -2.409151,-2.409152 -6.28,-7.512499 -6.28,-7.512499 -0.101734,-0.209881 -0.309582,-0.3472 -0.5425,-0.36 z M 48,46.079954 a 9.5999811,9.5999811 0 0 1 9.6,9.6 9.5999811,9.5999811 0 0 1 -9.6,9.6 9.5999811,9.5999811 0 0 1 -9.6,-9.6 9.5999811,9.5999811 0 0 1 9.6,-9.6 z m 32,0 a 9.5999811,9.5999811 0 0 1 9.6,9.6 9.5999811,9.5999811 0 0 1 -9.6,9.6 9.5999811,9.5999811 0 0 1 -9.6,-9.6 9.5999811,9.5999811 0 0 1 9.6,-9.6 z"
     />
</svg>
