<svg xmlns="http://www.w3.org/2000/svg" xmlns:xlink="http://www.w3.org/1999/xlink" xmlns:inkscape="http://www.inkscape.org/namespaces/inkscape" viewBox="0 0 128 128">
  <defs id="defs3051">
    <style type="text/css" id="current-color-scheme">
      .ColorScheme-Text {
        color:#4d4d4d;
      }
      .ColorScheme-Highlight {
        color:#3daee9;
      }
      </style>
    <linearGradient
       id="linearGradient4213"
       inkscape:collect="always">
      <stop
         id="stop4215"
         offset="0"
         style="stop-color:#000000;stop-opacity:1;" />
      <stop
         id="stop4217"
         offset="1"
         style="stop-color:#000000;stop-opacity:0;" />
    </linearGradient>
    <linearGradient
       inkscape:collect="always"
       xlink:href="#linearGradient4213"
       id="linearGradient6632"
       gradientUnits="userSpaceOnUse"
       x1="60.000046"
       y1="982.36224"
       x2="115"
       y2="1037.3622"
       gradientTransform="matrix(1.2800007,0,0,1.28,-7e-5,-1219.0238)" />
  </defs>
    <path
       style="fill:currentColor;fill-opacity:1;stroke:none"
       d="M 0 0 L 0 128 L 128 128 L 128 0 L 0 0 z "
       class="ColorScheme-Highlight"
       id="rect5879" />
    <path
       style="opacity:0.2;fill:url(#linearGradient6632);fill-opacity:1;fill-rule:evenodd;stroke:none;stroke-width:1px;stroke-linecap:butt;stroke-linejoin:miter;stroke-opacity:1"
       d="M 82.814453 19.794922 L 82.251953 44.957031 L 54.541016 84.882812 L 66.505859 99.039062 L 52.982422 111.07422 L 68.798828 128 L 128 128 L 128 62.480469 L 82.814453 19.794922 z "
       id="path6588" />
    <path
       style="color:#eff0f1;fill:currentColor;fill-opacity:1;stroke:none"
       d="M 63.833984 14 C 54.37899 14 45.434032 16.226417 37 20.679688 L 41.195312 30.136719 C 45.412329 28.108499 49.206465 26.653324 52.580078 25.771484 C 55.998081 24.889654 59.483985 24.449219 63.035156 24.449219 C 68.361914 24.449219 72.444219 25.618218 75.285156 27.955078 C 78.126093 30.291938 79.546875 33.642732 79.546875 38.007812 C 79.546875 40.344673 79.236689 42.394543 78.615234 44.158203 C 77.993779 45.921873 76.92917 47.685549 75.419922 49.449219 C 73.910674 51.212889 70.736908 54.123248 65.898438 58.179688 C 61.637031 61.707018 58.661416 65.124761 56.974609 68.431641 C 55.287803 71.694431 54.445313 75.948313 54.445312 81.195312 L 54.445312 84.833984 L 63.966797 84.833984 L 63.966797 82.583984 C 63.966797 78.571684 64.677188 75.352784 66.097656 72.927734 C 67.562514 70.458604 70.492144 67.351306 74.886719 63.603516 C 80.257866 59.150246 83.831836 55.799461 85.607422 53.550781 C 87.427397 51.302101 88.780176 48.921433 89.667969 46.408203 C 90.555762 43.894983 91 41.006931 91 37.744141 C 91 30.248551 88.580657 24.427823 83.742188 20.283203 C 78.903716 16.094493 72.268017 14 63.833984 14 z M 59.771484 95.679688 C 54.134 95.679688 51.316406 98.699634 51.316406 104.74023 C 51.316406 108.00303 52.092847 110.36336 53.646484 111.81836 C 55.244512 113.27336 57.285664 114 59.771484 114 C 62.301694 114 64.322783 113.20644 65.832031 111.61914 C 67.341279 109.98774 68.095703 107.69433 68.095703 104.74023 C 68.095703 101.74203 67.341279 99.493241 65.832031 97.994141 C 64.367173 96.450941 62.346084 95.679688 59.771484 95.679688 z "
       id="text8241" />
</svg>
