<svg xmlns="http://www.w3.org/2000/svg" viewBox="0 0 22 22">
  <defs id="defs3051">
    <style type="text/css" id="current-color-scheme">
      .ColorScheme-Text {
        color:#eff0f1;
      }
      .ColorScheme-NegativeText {
        color:#da4453;
      }
      </style>
  </defs>
  <path
     style="fill:currentColor;fill-opacity:1;stroke:none" 
     class="ColorScheme-NegativeText"
     d="M 3 3 L 3 9 L 5 9 L 5 10 L 6 10 L 6 9 L 8 9 L 8 3 L 3 3 z M 9 3 L 9 4 L 18 4 L 18 14 L 7 14 L 7 15 L 7 16 L 9 16 L 9 17 L 9 17.726562 L 9 18 L 7 18 L 7 19 L 9 19 L 10 19 L 12 19 L 15 19 L 15 18 L 14 18 L 13 18 L 13 16 L 14 16 L 18 16 L 19 16 L 19 3 L 18 3 L 9 3 z M 4 4 L 7 4 L 7 8 L 4 8 L 4 4 z M 5 5 L 5 7 L 6 7 L 6 5 L 5 5 z M 3 10 L 3 16 L 4 16 L 4 12 L 4 10 L 3 10 z M 5 12 L 5 16 L 6 16 L 6 12 L 5 12 z " 
     />
</svg>
