<svg height="32" width="32" xmlns="http://www.w3.org/2000/svg" xmlns:xlink="http://www.w3.org/1999/xlink"><linearGradient id="e" gradientUnits="userSpaceOnUse" x1="392.571" x2="406.571" xlink:href="#a" y1="539.798" y2="553.798"/><linearGradient id="h" gradientUnits="userSpaceOnUse" x1="391.571" x2="397.571" xlink:href="#b" y1="537.798" y2="543.798"/><linearGradient id="d" gradientUnits="userSpaceOnUse" x1="378.571" x2="378.571" y1="553.798" y2="525.798"><stop offset="0" stop-color="#63984b"/><stop offset="1" stop-color="#8fc278"/></linearGradient><linearGradient id="f" gradientUnits="userSpaceOnUse" x1="402.571" x2="402.571" y1="549.798" y2="529.798"><stop offset="0" stop-color="#197cf1"/><stop offset="1" stop-color="#20bcfa"/></linearGradient><linearGradient id="a" gradientUnits="userSpaceOnUse" x1="402.571" x2="406.571" xlink:href="#b" y1="529.798" y2="533.798"><stop offset="0"/><stop offset="1" stop-opacity="0"/></linearGradient><linearGradient id="c" gradientUnits="userSpaceOnUse" x1="-50" x2="-22.15"><stop offset="0" stop-color="#7cbaf8"/><stop offset="1" stop-color="#f4fcff"/></linearGradient><linearGradient id="g" gradientUnits="userSpaceOnUse" x1="18" x2="18" xlink:href="#c" y1="24" y2="8"/><linearGradient id="i" gradientUnits="userSpaceOnUse" x1="399.571" x2="399.571" xlink:href="#c" y1="547.798" y2="531.798"/><linearGradient id="j" gradientUnits="userSpaceOnUse" x1="398.571" x2="398.571" xlink:href="#c" y1="547.798" y2="531.798"/><linearGradient id="b" gradientUnits="userSpaceOnUse" x1="802.643" x2="816.643" y1="36.236" y2="50.236"><stop offset="0" stop-color="#292c2f"/><stop offset="1" stop-opacity="0"/></linearGradient><path d="M378.571 530.798v-5h28v28h-28v-20l2-1z" fill="url(#d)" transform="translate(-376.571 -523.798)"/><path d="M29 27l-2 2h2z" fill="#e6ea97" fill-rule="evenodd"/><path d="M382.571 549.798l4 4h20v-20l-4-4z" fill="url(#e)" opacity=".2" transform="translate(-376.571 -523.798)"/><path d="M382.571 529.798h20v20h-20z" fill="url(#f)" transform="translate(-376.571 -523.798)"/><path d="M6 27h1v1H6zm1 1h1v1H7zm1-1h1v1H8zm1 1h1v1H9zm1-1h1v1h-1zm1 1h1v1h-1zm1-1h1v1h-1zm13 0h1v1h-1zm-1 1h1v1h-1zm-1-1h1v1h-1zm-1 1h1v1h-1zm-5 0h1v1h-1zm-1-1h1v1h-1zm-1 1h1v1h-1zm-1-1h1v1h-1zm-1 1h1v1h-1zM28 7h1v1h-1zm-1 1h1v1h-1zm1 1h1v1h-1zm-1 1h1v1h-1zm1 1h1v1h-1zm-1 1h1v1h-1zm1 1h1v1h-1zm-1 3h1v1h-1zm1-1h1v1h-1zm-1-1h1v1h-1z"/><path d="M6 25h20v1H6z" fill="#1c5593" fill-rule="evenodd"/><path d="M16 8a8 8 0 0 0-8 8 8 8 0 0 0 8 8 8 8 0 0 0 8-8 8 8 0 0 0-8-8zm0 1a7.09 7.09 0 0 1 4.95 2.05C22.244 12.348 23 14.168 23 16s-.755 3.653-2.05 4.95S17.832 23 16 23s-3.653-.755-4.95-2.05C9.756 19.652 9 17.832 9 16s.755-3.653 2.05-4.95A7.084 7.084 0 0 1 16 9z" fill="url(#g)"/><path d="M393.571 534.798l9 9v5h-7l-4-4v-6l1-1-1-1z" fill="url(#h)" opacity=".2" transform="translate(-376.571 -523.798)"/><path d="M391.571 534.798h2v2h-2z" fill="url(#i)" transform="translate(-376.571 -523.798)"/><path d="M391.571 537.798h2v7h-2z" fill="url(#j)" transform="translate(-376.571 -523.798)"/><path d="M2 29h28v1H2z" fill="#4a7937"/></svg>