<svg height="32" width="32" xmlns="http://www.w3.org/2000/svg"><linearGradient id="c" gradientUnits="userSpaceOnUse" x1="7" x2="19.6" y1="7" y2="19.6"><stop offset="0" stop-color="#292c2f"/><stop offset="1" stop-opacity="0"/></linearGradient><linearGradient id="a" gradientUnits="userSpaceOnUse" x1="-277.599" x2="-277.599" y1="-329.66" y2="-349.26"><stop offset="0" stop-color="#c6cdd1"/><stop offset="1" stop-color="#e0e5e7"/></linearGradient><linearGradient id="b" gradientUnits="userSpaceOnUse" x1="-8.399" x2="-8.399" y1="20.197" y2=".597"><stop offset="0" stop-color="#c61423"/><stop offset="1" stop-color="#dc2b41"/></linearGradient><linearGradient id="d" gradientTransform="matrix(.69856 0 0 .70511 -299.466 -353.1)" gradientUnits="userSpaceOnUse" x1="16" x2="16" y1="25" y2="7"><stop offset="0" stop-color="#cea476"/><stop offset="1" stop-color="#dab58b"/></linearGradient><path d="M16 2A14 14 0 0 0 2 16a14 14 0 0 0 14 14 14 14 0 0 0 14-14A14 14 0 0 0 16 2zm0 7a7 7 0 0 1 7 7 7 7 0 0 1-7 7 7 7 0 0 1-7-7 7 7 0 0 1 7-7z" fill="url(#a)"/><path d="M10.553 3.104a14 14 0 0 0-7.758 8.294l6.353 3.176A7 7 0 0 1 13.7 9.398zm10.888.013l-3.14 6.281a7 7 0 0 1 4.545 5.178l6.36-3.178a14 14 0 0 0-7.765-8.28zM9.154 17.424l-6.36 3.178a14 14 0 0 0 7.765 8.28l3.14-6.28a7 7 0 0 1-4.545-5.178zm13.698.002a7 7 0 0 1-4.551 5.176l3.146 6.294a14 14 0 0 0 7.758-8.294z" fill="url(#b)"/><path d="M29.979 15.414A14 14 0 0 1 16 29 14 14 0 0 1 2.021 15.586 14 14 0 0 0 2 16a14 14 0 0 0 14 14 14 14 0 0 0 14-14 14 14 0 0 0-.021-.586z" fill="#99a1a7"/><path d="M7.707 6.293L7 7c-1.203 1.203-2.37 2.487-3.088 4.03C3.194 12.571 2.922 14.3 3 16a13.673 13.673 0 0 0 4 9l-.707.707 1.902 1.902A14 14 0 0 0 16 30a14 14 0 0 0 10.568-4.846l-.861-.861-4.107-4.107A7 7 0 0 1 16 23a7 7 0 0 1-7-7 7 7 0 0 1 2.814-5.6z" fill="url(#c)" opacity=".2"/><path d="M7 25c-2.51-2.265-4-5.62-4-9s1.49-6.735 4-9m18 18c2.51-2.265 4-5.62 4-9s-1.49-6.735-4-9" fill="none" stroke="url(#d)" stroke-linecap="round" stroke-miterlimit="0"/><path d="M26 7a1 1 0 0 1-1 1 1 1 0 0 1-1-1 1 1 0 0 1 1-1 1 1 0 0 1 1 1zm0 18a1 1 0 0 1-1 1 1 1 0 0 1-1-1 1 1 0 0 1 1-1 1 1 0 0 1 1 1zM8 25a1 1 0 0 1-1 1 1 1 0 0 1-1-1 1 1 0 0 1 1-1 1 1 0 0 1 1 1zM8 7a1 1 0 0 1-1 1 1 1 0 0 1-1-1 1 1 0 0 1 1-1 1 1 0 0 1 1 1z" fill="#7e1722"/></svg>