<svg height="32" width="32" xmlns="http://www.w3.org/2000/svg"><linearGradient id="a" gradientUnits="userSpaceOnUse" x2="17" y1="-1" y2="18"><stop offset="0" stop-color="#fff"/><stop offset="1" stop-color="#fff" stop-opacity="0"/></linearGradient><linearGradient id="b" gradientUnits="userSpaceOnUse" x1="9" x2="30" y1="9" y2="30"><stop offset="0"/><stop offset="1" stop-opacity="0"/></linearGradient><rect fill="#2d3033" height="28" rx="1" width="28" x="2" y="2"/><rect fill="url(#a)" height="28" opacity=".276" rx="1" width="28" x="2" y="2"/><path d="M23.414 10.586L22 12H6l-.729.729L11 18.455V20H6l-.729.729L14.545 30H29c.554 0 1-.446 1-1V17.172z" fill="url(#b)" opacity=".4"/><g transform="translate(-30)"><path d="M36 19c-1.352-.02-1.352 2.02 0 2h6v-2z" fill="#3daee9"/><circle cx="42" cy="20" fill="#fafafa" r="2"/><path d="M42 19v2h14c1.352.02 1.352-2.02 0-2z" fill="#fcfcfc" opacity=".2"/></g><g transform="translate(-30)"><path d="M36 11c-1.352-.02-1.352 2.02 0 2h16v-2z" fill="#3daee9"/><circle cx="52" cy="12" fill="#fafafa" r="2"/><path d="M52 11v2h4c1.352.02 1.352-2.02 0-2z" fill="#fcfcfc" opacity=".2"/></g><path d="M2 28v1c0 .554.446 1 1 1h26c.554 0 1-.446 1-1v-1c0 .554-.446 1-1 1H3c-.554 0-1-.446-1-1z" opacity=".3"/><path d="M2 4V3c0-.554.446-1 1-1h26c.554 0 1 .446 1 1v1c0-.554-.446-1-1-1H3c-.554 0-1 .446-1 1z" fill="#fff" opacity=".3"/></svg>