<?xml version="1.0" encoding="UTF-8" standalone="no"?>
<svg
   fill="none"
   height="48"
   viewBox="0 0 48 48"
   width="48"
   version="1.1"
   id="svg7"
   sodipodi:docname="merge-cells.svg"
   inkscape:version="1.3.2 (091e20ef0f, 2023-11-25, custom)"
   xmlns:inkscape="http://www.inkscape.org/namespaces/inkscape"
   xmlns:sodipodi="http://sodipodi.sourceforge.net/DTD/sodipodi-0.dtd"
   xmlns="http://www.w3.org/2000/svg"
   xmlns:svg="http://www.w3.org/2000/svg">
  <defs
     id="defs7" />
  <sodipodi:namedview
     id="namedview7"
     pagecolor="#ffffff"
     bordercolor="#666666"
     borderopacity="1.0"
     inkscape:showpageshadow="2"
     inkscape:pageopacity="0.0"
     inkscape:pagecheckerboard="0"
     inkscape:deskcolor="#d1d1d1"
     inkscape:zoom="16.833333"
     inkscape:cx="23.970297"
     inkscape:cy="24"
     inkscape:window-width="2560"
     inkscape:window-height="1023"
     inkscape:window-x="0"
     inkscape:window-y="0"
     inkscape:window-maximized="1"
     inkscape:current-layer="svg7" />
  <path
     d="m0 0h48v48h-48z"
     fill="#fff"
     fill-opacity=".01"
     id="path1"
     style="stroke:#f2f2f2" />
  <g
     stroke="#000"
     stroke-linecap="round"
     stroke-width="4"
     id="g7"
     style="stroke:#f2f2f2">
    <path
       d="m20 14v-9c0-.55228-.4477-1-1-1h-14c-.55228 0-1 .44772-1 1v38c0 .5523.44772 1 1 1h14c.5523 0 1-.4477 1-1v-9"
       id="path2"
       style="stroke:#f2f2f2" />
    <path
       d="m28 34v9c0 .5523.4477 1 1 1h14c.5523 0 1-.4477 1-1v-38c0-.55228-.4477-1-1-1h-14c-.5523 0-1 .44772-1 1v9"
       id="path3"
       style="stroke:#f2f2f2" />
    <path
       d="m28 24h16"
       id="path4"
       style="stroke:#f2f2f2" />
    <path
       d="m5 24h15"
       id="path5"
       style="stroke:#f2f2f2" />
    <path
       d="m32.7485 28.8183-1.591-1.5909-3.1819-3.182 3.1819-3.182 1.591-1.591"
       stroke-linejoin="round"
       id="path6"
       style="stroke:#f2f2f2" />
    <path
       d="m15.375 28.8183 1.591-1.5909 3.182-3.182-3.182-3.182-1.591-1.591"
       stroke-linejoin="round"
       id="path7"
       style="stroke:#f2f2f2" />
  </g>
</svg>
