<?xml version="1.0" encoding="UTF-8" standalone="no"?>
<svg
   xmlns:dc="http://purl.org/dc/elements/1.1/"
   xmlns:cc="http://creativecommons.org/ns#"
   xmlns:rdf="http://www.w3.org/1999/02/22-rdf-syntax-ns#"
   xmlns:svg="http://www.w3.org/2000/svg"
   xmlns="http://www.w3.org/2000/svg"
   xmlns:sodipodi="http://sodipodi.sourceforge.net/DTD/sodipodi-0.dtd"
   xmlns:inkscape="http://www.inkscape.org/namespaces/inkscape"
   inkscape:version="1.0 (4035a4fb49, 2020-05-01)"
   height="16"
   width="16"
   sodipodi:docname="drum-flam.svg"
   version="1.1"
   xml:space="preserve"
   viewBox="0 0 16 16"
   y="0px"
   x="0px"
   id="Layer_1"><metadata
   id="metadata81"><rdf:RDF><cc:Work
       rdf:about=""><dc:format>image/svg+xml</dc:format><dc:type
         rdf:resource="http://purl.org/dc/dcmitype/StillImage" /><dc:title></dc:title></cc:Work></rdf:RDF></metadata><defs
   id="defs79">                     </defs><sodipodi:namedview
   inkscape:current-layer="g994"
   inkscape:window-maximized="1"
   inkscape:window-y="27"
   inkscape:window-x="0"
   inkscape:cy="9.4845513"
   inkscape:cx="9.6911135"
   inkscape:zoom="22.627417"
   showgrid="false"
   id="namedview77"
   inkscape:window-height="1025"
   inkscape:window-width="1920"
   inkscape:pageshadow="2"
   inkscape:pageopacity="0"
   guidetolerance="10"
   gridtolerance="10"
   objecttolerance="10"
   borderopacity="1"
   bordercolor="#666666"
   pagecolor="#ffffff" /> <g
   style="fill:#f2f2f2"
   transform="matrix(0.94745795,0,0,0.94745795,0.63459287,2.8763764)"
   id="g994"><g
     transform="matrix(1.0638695,0,0,1.0638695,-0.49651267,-0.84092549)"
     id="g1010"><g
       transform="matrix(0.39296649,0,0,0.39296649,-47.614765,-10.281429)"
       id="g4"
       style="fill:#f2f2f2"> <polygon
   points="130.9,41.9 139,36.6 139.2,36.9 131.1,42.1 "
   id="polygon2"
   style="fill:#f2f2f2" /> </g><g
       transform="matrix(0.39296649,0,0,0.39296649,-47.614765,-10.281429)"
       id="g8"
       style="fill:#f2f2f2"> <path
   d="m 137.3,42.7 c -0.3,1.6 -0.9,2.8 -1.6,3.7 l -0.1,-0.1 c 0.2,-0.3 0.5,-0.6 0.7,-1.1 0.4,-0.9 0.6,-1.8 0.6,-2.7 0,-0.7 -0.1,-1.4 -0.4,-2.1 -0.3,-0.8 -0.9,-1.5 -1.6,-2.1 -0.7,-0.6 -1.5,-1 -2.3,-1.1 h -0.2 v -4 h 0.2 c 0.1,0.3 0.1,0.6 0.2,0.8 0.2,0.6 0.6,1.2 1.1,1.7 1.3,1.2 2.2,2.2 2.7,3.1 0.5,0.8 0.7,1.7 0.7,2.7 0.1,0.5 0.1,0.9 0,1.2"
   id="path6"
   style="fill:#f2f2f2" /> </g><g
       transform="matrix(1.0976032,0,0,0.33787241,-141.12788,-7.6563877)"
       id="g12"
       style="fill:#f2f2f2"> <rect
   x="132.60001"
   y="33.799999"
   width="0.30000001"
   height="13.8"
   id="rect10"
   style="fill:#f2f2f2" /> </g><g
       transform="matrix(0.39296649,0,0,0.39296649,-47.614765,-10.281429)"
       id="g16"
       style="fill:#f2f2f2"> <path
   d="m 128.3,48 c 0.2,-0.6 0.6,-1.1 1.3,-1.5 0.6,-0.4 1.3,-0.6 2,-0.6 0.6,0 1,0.1 1.3,0.4 0.3,0.3 0.5,0.6 0.5,1.1 0,0.2 0,0.4 -0.1,0.6 -0.2,0.6 -0.6,1.1 -1.3,1.5 -0.6,0.4 -1.3,0.6 -2,0.6 -0.5,0 -1,-0.2 -1.3,-0.4 -0.3,-0.3 -0.5,-0.6 -0.5,-1.1 0,-0.2 0,-0.4 0.1,-0.6"
   id="path14"
   style="fill:#f2f2f2" /> </g><rect
       style="fill:#f2f2f2;stroke-width:0.622962"
       id="rect18"
       height="9.9143057"
       width="0.64821768"
       y="-1.6084183"
       x="12.114559" /><g
       transform="matrix(0.39296649,0,0,0.39296649,-47.614765,-10.281429)"
       id="g24"
       style="fill:#f2f2f2"> <path
   d="m 143.6,48 c 0.4,-1.2 1.2,-2.1 2.5,-2.9 1.3,-0.8 2.6,-1.2 3.9,-1.2 1.1,0 2,0.3 2.7,0.8 0.7,0.6 1,1.3 1,2.1 0,0.4 -0.1,0.8 -0.3,1.2 -0.4,1.2 -1.3,2.1 -2.5,2.9 -1.3,0.8 -2.6,1.2 -4,1.2 -1.1,0 -2,-0.3 -2.6,-0.9 -0.7,-0.6 -1,-1.3 -1,-2.1 0,-0.2 0.1,-0.6 0.3,-1.1"
   id="path22"
   style="fill:#f2f2f2" /> </g><g
       transform="matrix(0.39296649,0,0,0.39296649,-47.614765,-10.281429)"
       id="g52"
       style="fill:#f2f2f2"> <path
   d="m 130.8,56.1 c 3,5.4 14.5,5.4 17.5,0 L 148,55.9 c -2.7,3.6 -14.2,3.6 -16.9,0 z"
   id="path50"
   style="fill:#f2f2f2" /> </g></g></g> </svg>
