<?xml version="1.0" encoding="UTF-8" standalone="no"?>
<svg
   xmlns:dc="http://purl.org/dc/elements/1.1/"
   xmlns:cc="http://creativecommons.org/ns#"
   xmlns:rdf="http://www.w3.org/1999/02/22-rdf-syntax-ns#"
   xmlns:svg="http://www.w3.org/2000/svg"
   xmlns="http://www.w3.org/2000/svg"
   xmlns:sodipodi="http://sodipodi.sourceforge.net/DTD/sodipodi-0.dtd"
   xmlns:inkscape="http://www.inkscape.org/namespaces/inkscape"
   aria-hidden="true"
   focusable="false"
   data-prefix="fas"
   data-icon="drum"
   class="svg-inline--fa fa-drum fa-w-18"
   role="img"
   viewBox="0 0 576 512"
   version="1.1"
   id="svg4"
   sodipodi:docname="drum-solid.svg"
   inkscape:version="0.92.4 5da689c313, 2019-01-14">
  <metadata
     id="metadata10">
    <rdf:RDF>
      <cc:Work
         rdf:about="">
        <dc:format>image/svg+xml</dc:format>
        <dc:type
           rdf:resource="http://purl.org/dc/dcmitype/StillImage" />
      </cc:Work>
    </rdf:RDF>
  </metadata>
  <defs
     id="defs8" />
  <sodipodi:namedview
     pagecolor="#ffffff"
     bordercolor="#666666"
     borderopacity="1"
     objecttolerance="10"
     gridtolerance="10"
     guidetolerance="10"
     inkscape:pageopacity="0"
     inkscape:pageshadow="2"
     inkscape:window-width="782"
     inkscape:window-height="480"
     id="namedview6"
     showgrid="false"
     inkscape:zoom="0.4609375"
     inkscape:cx="186.63459"
     inkscape:cy="256"
     inkscape:window-x="0"
     inkscape:window-y="27"
     inkscape:window-maximized="0"
     inkscape:current-layer="svg4" />
  <path
     fill="currentColor"
     d="M458.08 120.88l102.39-61.43c15.16-9.09 20.06-28.75 10.97-43.91C562.34.39 542.7-4.53 527.53 4.57l-160.69 96.41A629.32 629.32 0 0 0 288 96C128.94 96 0 153.31 0 224v160.83c0 30.46 24.03 58.4 64 80.37v-96.37c0-17.6 14.4-32 32-32s32 14.4 32 32v122.41c37.4 11.13 81 18.44 128 20.75V400.84c0-17.6 14.4-32 32-32s32 14.4 32 32V512c47-2.31 90.6-9.62 128-20.75V368.84c0-17.6 14.4-32 32-32s32 14.4 32 32v96.37c39.97-21.97 64-49.91 64-80.37V224.01c-.01-42.38-46.54-79.84-117.92-103.13zM288 304c-132.55 0-240-35.82-240-80s107.45-80 240-80c2.34 0 4.62.1 6.94.12l-87.41 52.44c-15.16 9.09-20.06 28.75-10.97 43.91 9.56 15.93 29.51 19.61 43.91 10.97l162.71-97.62C477.55 167.41 528 193.74 528 224.01 528 268.19 420.54 304 288 304z"
     id="path2"
     style="fill:#cccccc" />
</svg>
