<?xml version="1.0" encoding="UTF-8" standalone="no"?>
<svg
   xmlns:dc="http://purl.org/dc/elements/1.1/"
   xmlns:cc="http://creativecommons.org/ns#"
   xmlns:rdf="http://www.w3.org/1999/02/22-rdf-syntax-ns#"
   xmlns:svg="http://www.w3.org/2000/svg"
   xmlns="http://www.w3.org/2000/svg"
   xmlns:sodipodi="http://sodipodi.sourceforge.net/DTD/sodipodi-0.dtd"
   xmlns:inkscape="http://www.inkscape.org/namespaces/inkscape"
   aria-hidden="true"
   focusable="false"
   data-prefix="fas"
   data-icon="plug"
   class="svg-inline--fa fa-plug fa-w-12"
   role="img"
   viewBox="0 0 384 512"
   version="1.1"
   id="svg4"
   sodipodi:docname="plug-solid-small.svg"
   inkscape:version="0.92.4 (5da689c313, 2019-01-14)">
  <metadata
     id="metadata10">
    <rdf:RDF>
      <cc:Work
         rdf:about="">
        <dc:format>image/svg+xml</dc:format>
        <dc:type
           rdf:resource="http://purl.org/dc/dcmitype/StillImage" />
      </cc:Work>
    </rdf:RDF>
  </metadata>
  <defs
     id="defs8" />
  <sodipodi:namedview
     pagecolor="#ffffff"
     bordercolor="#666666"
     borderopacity="1"
     objecttolerance="10"
     gridtolerance="10"
     guidetolerance="10"
     inkscape:pageopacity="0"
     inkscape:pageshadow="2"
     inkscape:window-width="1358"
     inkscape:window-height="798"
     id="namedview6"
     showgrid="false"
     inkscape:zoom="0.4609375"
     inkscape:cx="-211.52542"
     inkscape:cy="256"
     inkscape:window-x="0"
     inkscape:window-y="27"
     inkscape:window-maximized="0"
     inkscape:current-layer="svg4" />
  <path
     d="M 239.72881,172.47458 V 88.949153 c 0,-13.179865 10.68455,-23.864407 23.86441,-23.864407 13.17986,0 23.86441,10.684542 23.86441,23.864407 v 83.525427 z m 83.52543,11.9322 H 60.745763 c -6.590305,0 -11.932204,5.3419 -11.932204,11.9322 v 23.86441 c 0,6.5903 5.341899,11.9322 11.932204,11.9322 H 72.677966 V 256 c 0,57.72651 40.993834,105.87668 95.457624,116.93261 v 73.98264 h 47.72882 V 372.93261 C 270.3282,361.87668 311.32203,313.72651 311.32203,256 v -23.86441 h 11.93221 c 6.5903,0 11.9322,-5.3419 11.9322,-11.9322 v -23.86441 c 0,-6.5903 -5.3419,-11.9322 -11.9322,-11.9322 z M 144.27119,172.47458 V 88.949153 c 0,-13.179865 -10.68455,-23.864407 -23.86441,-23.864407 -13.17986,0 -23.864407,10.684542 -23.864407,23.864407 v 83.525427 z"
     id="path2"
     style="fill:#e6e6e6;stroke-width:0.74576271"
     inkscape:connector-curvature="0" />
</svg>
