/* XPM */
static char * x42_scope_32x32_xpm[] = {
"32 32 8 1",
" 	c None",
".	c #454500",
"+	c #000000",
"@	c #009A00",
"#	c #001500",
"$	c #006300",
"%	c #4ED12E",
"&	c #00FF00",
"................................",
".++++++++++@+++.+++++++++++++++.",
".++++++++++@+++.+++++++++++++++.",
".++++++++++@+++.+++++++++++++++.",
".++++++++++@+++.+++++++++++++++.",
".++++++++++@+++.+++++++++++++++.",
".++++#+++++@+++.+++++++++++++++.",
".++#+$+++++@+++.+++++++++++++++.",
"%##$#&#++++@+++.+++++++++++++++.",
"%$$&+&$#+++@+++.++++++++++#++++.",
"%&&&$&&$+++@+++.+++++++#+#$++++.",
"%&&&&&&&#++@#++.+++++#+$#$&#+++.",
"%&&&&&&&$++@$#+.+++#+$#&$&&$#+#.",
"%&&&&&&&&##@&$#.#+#$#&$&&&&&$#$%",
"%&&&&&&&&$$@&&$$$#$&$&&&&&&&&$&%",
"%&&&&&&&&&&@&&&%&$&&&&&&&&&&&&&%",
"%%%%%%%%%%%@%%%%%%%%%%%%%%%%%%%%",
"%&&&&&&&&&&@&&&%&$&&&&&&&&&&&&&%",
"%&&&&&&&&$$@&&$.$#$&&&&&&&&&&&&%",
"%&&&&&&&&##@&$#.#+#&$&&&&&&&$&&%",
"%&&&&&&&$++@$#+.+++$#&$&&&&$#$&%",
"%&$$&&$$#++@#++.+++#+$#$&&$#+#$%",
"%$##&&##+++@+++.+++++#+#$&#+++#.",
".#++&$+++++@+++.++++++++#$+++++.",
".+++$#+++++@+++.+++++++++#+++++.",
".+++#++++++@+++.+++++++++++++++.",
".++++++++++@+++.+++++++++++++++.",
".++++++++++@+++.+++++++++++++++.",
".++++++++++@+++.+++++++++++++++.",
".++++++++++@+++.+++++++++++++++.",
".++++++++++@+++.+++++++++++++++.",
"................................"};
