<?xml version="1.0" encoding="UTF-8" standalone="no"?>
<svg xmlns="http://www.w3.org/2000/svg" xmlns:xlink="http://www.w3.org/1999/xlink" width="48" height="48">
 <defs>
  <linearGradient id="0">
   <stop stop-color="#b154d8"/>
   <stop offset="1" stop-color="#913bb5"/>
  </linearGradient>
  <linearGradient id="1">
   <stop stop-color="#292c2f"/>
   <stop offset="1" stop-opacity="0"/>
  </linearGradient>
  <linearGradient xlink:href="#0" id="2" y1="502.798" x2="0" y2="544.79797" gradientUnits="userSpaceOnUse"/>
  <linearGradient gradientTransform="matrix(2,0,0,2,376.57144,493.798)" xlink:href="#1" id="3" x1="9.00001" y1="9" x2="23.00004" y2="23" gradientUnits="userSpaceOnUse"/>
  <linearGradient gradientTransform="translate(377.57143,498.798)" gradientUnits="userSpaceOnUse" y2="12.999999" x2="0" y1="38" id="4" xlink:href="#5"/>
  <linearGradient id="5">
   <stop stop-color="#e2abf9"/>
   <stop offset="1" stop-color="#f6e1ff"/>
  </linearGradient>
 </defs>
 <metadata/>
 <g transform="translate(-384.57143,-499.798)">
  <rect width="39.999973" height="39.999996" x="388.57141" y="503.798" ry="19.999987" fill="url(#2)" rx="19.999986"/>
  <path d="m 413.57143,513.72769 -7,1.53515 -5,3.53516 6,6 -1,3 4,4 -4,4 6.94531,6.94531 22.05469,0 0,-7.01562 z" opacity="0.2" fill="url(#3)" fill-rule="evenodd"/>
  <path d="m 408.57143,511.798 c -1.94444,0 -3.76,0.68188 -5.03906,1.96094 -1.27906,1.27906 -1.96094,3.09462 -1.96094,5.03906 l 4,0 c 0,-1.05555 0.31813,-1.74 0.78906,-2.21094 0.47094,-0.47094 1.15539,-0.78906 2.21094,-0.78906 1.05556,0 1.74,0.31812 2.21094,0.78906 0.47094,0.47094 0.78906,1.15539 0.78906,2.21094 0,0.91667 -0.1807,1.30664 -0.42187,1.65234 -0.24118,0.34569 -0.63627,0.67215 -1.22461,1.08399 -0.58835,0.41184 -1.36988,0.88627 -2.0918,1.72851 -0.72192,0.84224 -1.26172,2.1185 -1.26172,3.53516 l 0,1 4,0 0,-1 c 0,-0.58333 0.0832,-0.68208 0.29883,-0.93359 0.21558,-0.25151 0.68599,-0.58959 1.34765,-1.05274 0.66165,-0.46316 1.51657,-1.0742 2.2129,-2.07226 0.69632,-0.99806 1.14062,-2.35807 1.14062,-3.94141 0,-1.94444 -0.68187,-3.76 -1.96094,-5.03906 -1.27906,-1.27906 -3.09461,-1.96094 -5.03906,-1.96094 z m -2,20 0,4 4,0 0,-4 -4,0 z" fill="url(#4)"/>
  <path d="M 4.0117188 23.5 C 4.007647 23.666859 4 23.832126 4 24 C 4 35.079993 12.920007 44 24 44 C 35.079993 44 44 35.079993 44 24 C 44 23.832126 43.992353 23.666859 43.988281 23.5 C 43.724099 34.346572 34.912436 43 24 43 C 13.087564 43 4.2759007 34.346572 4.0117188 23.5 z " transform="translate(384.57143,499.798)" fill="#68377d"/>
 </g>
</svg>
