<?xml version="1.0" encoding="UTF-8" standalone="no"?>
<svg xmlns="http://www.w3.org/2000/svg" xmlns:xlink="http://www.w3.org/1999/xlink" width="48" height="48">
 <defs>
  <linearGradient id="0">
   <stop stop-color="#6f8181"/>
   <stop offset="1" stop-color="#334545"/>
  </linearGradient>
  <linearGradient xlink:href="#0" id="1" y1="511.798" x2="0" y2="535.79797" gradientUnits="userSpaceOnUse" gradientTransform="translate(-1,4)"/>
  <linearGradient xlink:href="#0" id="2" x1="34" y1="34" x2="8" y2="15" gradientUnits="userSpaceOnUse"/>
 </defs>
 <metadata/>
 <g transform="translate(-384.57143,-499.798)">
  <path d="m 411.07143,507.798 c -4.69442,-10e-6 -8.50001,3.80558 -8.5,8.5 -1e-5,4.69442 1.54505,8.5 1.54505,8.5 l 18.95495,0 c 3.047,0 5.5,-2.453 5.5,-5.5 0,-2.87832 -2.18919,-5.22539 -5,-5.47656 l 0,-0.52344 c 0,-2.5 -3,-5.5 -5.5,-5.5 0,0 -4.99511,-3.1e-4 -7,0 z" fill="#334545"/>
  <path d="M 17.5 11 C 15.007 11 13 13.007 13 15.5 L 13 16 L 11 16 C 7.1219926 16 4 19.121993 4 23 C 4 26.878007 7.1219926 30 11 30 L 27 30 C 30.878007 30 34 26.878007 34 23 C 34 19.462777 31.399364 16.561942 28 16.078125 L 28 15.5 C 28 13.007 25.993 11 23.5 11 L 17.5 11 z " transform="translate(384.57143,499.798)" fill="url(#2)"/>
  <g color="#f2f2f2">
   <path d="m 412.55537,515.77391 a 10.010037,10.010037 0 0 1 9.84972,8.23092 8.0080333,8.0080333 0 0 1 6.16634,7.78514 8.0080333,8.0080333 0 0 1 -8.00803,8.00803 l -18.01807,0 a 6.0060179,6.0060179 0 0 1 -6.00602,-6.00602 6.0060179,6.0060179 0 0 1 6.00602,-6.00603 6.0060179,6.0060179 0 0 1 0.21506,0.0121 10.010037,10.010037 0 0 1 -0.21506,-2.01373 10.010037,10.010037 0 0 1 10.01004,-10.01004 z" fill="url(#1)"/>
   <path d="m 402.57139,525.26089 a 10.010037,10.010037 0 0 0 -0.0254,0.52344 10.010037,10.010037 0 0 0 0.0547,1.00586 6.0060179,6.0060179 0 0 1 0.16015,0.008 10.010037,10.010037 0 0 1 -0.18945,-1.53711 z m 25.97656,6.02148 a 8.0080333,8.0080333 0 0 1 -7.98437,7.51563 l -18.01758,0 a 6.0060179,6.0060179 0 0 1 -5.98242,-5.49609 6.0060179,6.0060179 0 0 0 -0.0234,0.49023 6.0060179,6.0060179 0 0 0 6.00586,6.00586 l 18.01758,0 a 8.0080333,8.0080333 0 0 0 8.00781,-8.00781 8.0080333,8.0080333 0 0 0 -0.0234,-0.50782 z" opacity="0.4" fill="#172525"/>
  </g>
 </g>
</svg>
