<?xml version="1.0" encoding="UTF-8" standalone="no"?>
<svg xmlns="http://www.w3.org/2000/svg" xmlns:xlink="http://www.w3.org/1999/xlink" width="48" height="48">
 <defs>
  <linearGradient id="0">
   <stop stop-color="#eff1f1"/>
   <stop offset="1" stop-color="#b0b8b8"/>
  </linearGradient>
  <linearGradient id="1">
   <stop stop-color="#6f8181"/>
   <stop offset="1" stop-color="#334545"/>
  </linearGradient>
  <linearGradient id="2">
   <stop stop-color="#b0b8b8"/>
   <stop offset="1" stop-color="#909c9c"/>
  </linearGradient>
  <linearGradient xlink:href="#2" id="3" y1="503.798" x2="0" y2="542.79797" gradientUnits="userSpaceOnUse" gradientTransform="matrix(0.50000078,0,0,0.50000078,194.28541,255.89861)"/>
  <linearGradient xlink:href="#1" id="4" y1="4" x2="0" y2="44" gradientUnits="userSpaceOnUse" gradientTransform="matrix(0.50000078,0,0,0.50000078,386.57142,505.798)"/>
  <linearGradient xlink:href="#0" id="5" y1="509.798" x2="0" y2="536.79797" gradientUnits="userSpaceOnUse"/>
  <linearGradient xlink:href="#0" id="6" x1="417.57144" y1="522.79797" x2="418.57144" y2="539.79797" gradientUnits="userSpaceOnUse"/>
 </defs>
 <metadata/>
 <g transform="translate(-384.57143,-499.798)">
  <g transform="matrix(1.599994,0,0,1.599994,-229.14043,-304.67567)">
   <rect y="507.798" x="388.57141" height="20.00003" width="20.00002" fill="url(#3)" rx="10.00001"/>
   <path d="m 396.1437,508.10464 c -2.26569,0.56207 -4.21677,1.88846 -5.57227,3.69727 l 0,0.4961 0,4.00001 2,0.5 2.5,4.5 3,-2 -0.5,-2.5 -1,-2.00001 2.5,-1 2.50001,-1.5 -1,-2.50001 -4.50001,0.5 -0.5,-1 3,-0.5 z m 6.92775,3.69336 -1.50001,2.00001 1.50001,2.00001 -0.50001,2.5 1.50001,4 0.5,-1.5 0,-2.5 1,1.5 0,3 2.5,-3 z m -8.50002,0.50001 0.5,1.5 -1.5,1.50001 -0.5,-1.50001 z m 13.00002,3.00001 -0.5,1 0.5,1.5 0.5,-1 z m -16.00002,3.5 0,1.5 1.5,0.5 0.5,-1.5 z" opacity="0.614" fill="url(#4)"/>
   <path d="M 4.0253906,22.5 C 4.019903,22.667563 4,22.831055 4,23 4,31.31 10.69,38 19,38 27.31,38 34,31.31 34,23 34,22.831055 33.9801,22.667563 33.97461,22.5 33.710173,30.574471 27.141055,37 19,37 10.858945,37 4.2898271,30.574471 4.0253906,22.5 Z" transform="matrix(0.66666724,0,0,0.66666724,385.90474,502.46465)" opacity="0.2"/>
  </g>
  <rect width="22" height="12" x="406.57144" y="527.79797" fill="url(#6)" rx="6"/>
  <rect width="16" height="9" x="388.57144" y="509.798" fill="url(#5)" rx="4.5"/>
  <g fill="#172525" transform="translate(384.57143,499.798)">
   <path d="M 22.025391 33.5 C 22.011848 33.665229 22 33.831162 22 34 C 22 37.324 24.676 40 28 40 L 38 40 C 41.324 40 44 37.324 44 34 C 44 33.831162 43.988152 33.665229 43.974609 33.5 C 43.721537 36.587711 41.155162 39 38 39 L 28 39 C 24.844838 39 22.278463 36.587711 22.025391 33.5 z " opacity="0.2"/>
   <path d="M 4.0507812 14 C 4.0322656 14.16647 4 14.32843 4 14.5 C 4 16.993 6.007 19 8.5 19 L 15.5 19 C 17.993 19 20 16.993 20 14.5 C 20 14.32843 19.967734 14.16647 19.949219 14 C 19.698693 16.252432 17.82143 18 15.5 18 L 8.5 18 C 6.1785697 18 4.3013075 16.252432 4.0507812 14 z " opacity="0.2"/>
  </g>
 </g>
</svg>
