<?xml version="1.0" encoding="UTF-8" standalone="no"?>
<svg xmlns="http://www.w3.org/2000/svg" xmlns:xlink="http://www.w3.org/1999/xlink" width="48" height="48">
 <defs>
  <linearGradient id="0">
   <stop stop-color="#eff1f1"/>
   <stop offset="1" stop-color="#b0b8b8"/>
  </linearGradient>
  <linearGradient xlink:href="#0" id="1" y1="511.798" x2="0" y2="535.79797" gradientUnits="userSpaceOnUse" gradientTransform="translate(-5,-4)"/>
 </defs>
 <metadata/>
 <g transform="translate(-384.57143,-499.798)">
  <path d="m 408.55537,507.77391 a 10.010037,10.010037 0 0 1 9.84972,8.23092 8.0080333,8.0080333 0 0 1 6.16634,7.78514 8.0080333,8.0080333 0 0 1 -8.00803,8.00803 l -18.01807,0 a 6.0060179,6.0060179 0 0 1 -6.00602,-6.00602 6.0060179,6.0060179 0 0 1 6.00602,-6.00603 6.0060179,6.0060179 0 0 1 0.21506,0.0121 10.010037,10.010037 0 0 1 -0.21506,-2.01373 10.010037,10.010037 0 0 1 10.01004,-10.01004 z" fill="url(#1)" color="#f2f2f2"/>
  <g fill="#4ce0c6">
   <path d="m 396.57143,532.798 -3,3 3,3 3,-3 -3,-3 z"/>
   <path d="m 412.57143,532.798 -3,3 3,3 3,-3 -3,-3 z"/>
   <path d="m 400.57143,538.798 -3,3 3,3 3,-3 -3,-3 z"/>
   <path d="m 416.57143,538.798 -3,3 3,3 3,-3 -3,-3 z"/>
  </g>
  <g fill="#3b85b5">
   <path d="m 407.15722,540.38379 a 2,2 0 0 0 0,2.82842 2,2 0 0 0 2.82842,0 2,2 0 0 0 0,-2.82842 l -1.41421,-1.41422 -1.41421,1.41422 z"/>
   <path d="m 391.15722,540.38379 a 2,2 0 0 0 0,2.82842 2,2 0 0 0 2.82842,0 2,2 0 0 0 0,-2.82842 l -1.41421,-1.41422 -1.41421,1.41422 z"/>
   <path d="m 419.15722,534.38379 a 2,2 0 0 0 0,2.82842 2,2 0 0 0 2.82842,0 2,2 0 0 0 0,-2.82842 l -1.41421,-1.41422 -1.41421,1.41422 z"/>
   <path d="m 403.15722,534.38379 a 2,2 0 0 0 0,2.82842 2,2 0 0 0 2.82842,0 2,2 0 0 0 0,-2.82842 l -1.41421,-1.41422 -1.41421,1.41422 z"/>
  </g>
  <path d="M 14 17.462891 A 10.010037 10.010037 0 0 0 13.974609 17.986328 A 10.010037 10.010037 0 0 0 14.029297 18.992188 A 6.0060179 6.0060179 0 0 1 14.189453 19 A 10.010037 10.010037 0 0 1 14 17.462891 z M 39.976562 23.484375 A 8.0080333 8.0080333 0 0 1 31.992188 31 L 13.974609 31 A 6.0060179 6.0060179 0 0 1 7.9921875 25.503906 A 6.0060179 6.0060179 0 0 0 7.96875 25.994141 A 6.0060179 6.0060179 0 0 0 13.974609 32 L 31.992188 32 A 8.0080333 8.0080333 0 0 0 40 23.992188 A 8.0080333 8.0080333 0 0 0 39.976562 23.484375 z " transform="translate(384.57143,499.798)" opacity="0.2" fill="#172525" color="#f2f2f2"/>
 </g>
</svg>
