<?xml version="1.0" encoding="UTF-8" standalone="no"?>
<svg xmlns="http://www.w3.org/2000/svg" xmlns:xlink="http://www.w3.org/1999/xlink" width="48" height="48">
 <defs>
  <linearGradient id="0">
   <stop stop-color="#6f8181"/>
   <stop offset="1" stop-color="#334545"/>
  </linearGradient>
  <linearGradient id="1">
   <stop stop-color="#b0b8b8"/>
   <stop offset="1" stop-color="#909c9c"/>
  </linearGradient>
  <linearGradient xlink:href="#1" id="2" y1="503.798" x2="0" y2="542.79797" gradientUnits="userSpaceOnUse"/>
  <linearGradient xlink:href="#0" id="3" y1="4" x2="0" y2="44" gradientUnits="userSpaceOnUse"/>
 </defs>
 <metadata/>
 <g transform="translate(-384.57143,-499.798)">
  <rect width="39.999973" height="39.999996" x="388.57141" y="503.798" ry="19.999987" fill="url(#2)" rx="19.999986"/>
  <g transform="translate(384.57143,499.798)">
   <path d="M 4.0507812 23.5 C 4.0465376 23.670335 4 23.828607 4 24 C 4 35.079993 12.920007 44 24 44 C 35.079993 44 44 35.079993 44 24 C 44 23.828607 43.953463 23.670335 43.949219 23.5 C 43.919169 24.706109 43.828388 25.898126 43.595703 27.041016 C 43.330156 28.345312 42.938281 29.601641 42.433594 30.798828 C 41.928907 31.996015 41.311171 33.133594 40.59375 34.197266 C 39.876329 35.260937 39.058046 36.250547 38.154297 37.154297 C 37.250547 38.058046 36.260937 38.876329 35.197266 39.59375 C 34.133594 40.311171 32.996015 40.928907 31.798828 41.433594 C 30.601641 41.938281 29.345312 42.330156 28.041016 42.595703 C 26.73672 42.86125 25.384999 43 24 43 C 22.615001 43 21.26328 42.86125 19.958984 42.595703 C 18.654688 42.330156 17.398359 41.938281 16.201172 41.433594 C 15.602578 41.18125 15.018174 40.900948 14.451172 40.59375 C 13.88417 40.286552 13.33457 39.952461 12.802734 39.59375 C 11.739063 38.876329 10.749453 38.058046 9.8457031 37.154297 C 8.9419537 36.250547 8.1236714 35.260937 7.40625 34.197266 C 6.6888286 33.133594 6.0710934 31.996015 5.5664062 30.798828 C 5.0617191 29.601641 4.6698436 28.345312 4.4042969 27.041016 C 4.1716115 25.898126 4.0808305 24.706109 4.0507812 23.5 z " opacity="0.2"/>
   <path d="M 19.144531,4.6132812 C 14.613164,5.7374173 10.71101,8.3901858 8,12.007812 L 8,13 l 0,8 4,1 5,9 6,-4 -1,-5 -2,-4 5,-2 5,-3 L 28,8 19,9 18,7 24,6 Z M 33,12 l -3,4 3,4 -1,5 3,8 1,-3 0,-5 2,3 0,6 5,-6 z m -17,1 1,3 -3,3 -1,-3 z m 26,6 -1,2 1,3 1,-2 z m -32,7 0,3 3,1 1,-3 z" opacity="0.614" fill="url(#3)"/>
  </g>
 </g>
</svg>
