<?xml version="1.0" encoding="UTF-8" standalone="no"?>
<svg
   xmlns:dc="http://purl.org/dc/elements/1.1/"
   xmlns:cc="http://creativecommons.org/ns#"
   xmlns:rdf="http://www.w3.org/1999/02/22-rdf-syntax-ns#"
   xmlns:svg="http://www.w3.org/2000/svg"
   xmlns="http://www.w3.org/2000/svg"
   xmlns:xlink="http://www.w3.org/1999/xlink"
   version="1.1"
   id="svg2"
   height="48"
   width="48">
  <defs
     id="defs4">
    <linearGradient
       id="0">
      <stop
         id="stop7"
         stop-color="#eff1f1" />
      <stop
         id="stop9"
         stop-color="#b0b8b8"
         offset="1" />
    </linearGradient>
    <linearGradient
       gradientTransform="translate(-384.57147,-501.79797)"
       gradientUnits="userSpaceOnUse"
       y2="539.79797"
       x2="418.57144"
       y1="511.79797"
       x1="418.57147"
       id="1"
       xlink:href="#0" />
  </defs>
  <metadata
     id="metadata24">
    <rdf:RDF>
      <cc:Work
         rdf:about="">
        <dc:format>image/svg+xml</dc:format>
        <dc:type
           rdf:resource="http://purl.org/dc/dcmitype/StillImage" />
        <dc:title></dc:title>
      </cc:Work>
    </rdf:RDF>
  </metadata>
  <path
     d="m 10,10 c -1.1079989,0 -2,0.892001 -2,2 0,1.107999 0.8920011,2 2,2 l 19,0 c 1.107999,0 2,-0.892001 2,-2 0,-1.107999 -0.892001,-2 -2,-2 l -19,0 z m 5,8 c -1.107993,0 -2,0.892007 -2,2 0,1.107993 0.892007,2 2,2 l 25,0 c 1.107993,0 2,-0.892007 2,-2 0,-1.107993 -0.892007,-2 -2,-2 l -25,0 z m -9,8 c -1.1080073,0 -2,0.891993 -2,2 0,1.108007 0.8919927,2 2,2 l 25,0 c 1.108007,0 2,-0.891993 2,-2 0,-1.108007 -0.891993,-2 -2,-2 L 6,26 Z m 7,8 c -1.107993,0 -2,0.892007 -2,2 0,1.107993 0.892007,2 2,2 l 29,0 c 1.107993,0 2,-0.892007 2,-2 0,-1.107993 -0.892007,-2 -2,-2 l -29,0 z"
     id="path34"
     style="fill:url(#1)" />
  <path
     d="M 8.0703125,11.5 C 8.0290105,11.660591 8,11.826165 8,12 c 0,1.108 0.892,2 2,2 l 19,0 c 1.108,0 2,-0.892 2,-2 0,-0.173835 -0.02901,-0.339409 -0.07031,-0.5 C 30.707736,12.362993 29.934165,13 29,13 L 10,13 C 9.0658348,13 8.2922638,12.362993 8.0703125,11.5 Z m 4.9999995,8 C 13.02901,19.66059 13,19.826167 13,20 c 0,1.10799 0.89201,2 2,2 l 25,0 c 1.10799,0 2,-0.89201 2,-2 0,-0.173833 -0.02901,-0.33941 -0.07031,-0.5 C 41.707734,20.362989 40.934157,21 40,21 l -25,0 c -0.934157,0 -1.707734,-0.637011 -1.929688,-1.5 z m -8.9999995,8 C 4.0290109,27.660591 4,27.826164 4,28 c 0,1.10801 0.89199,2 2,2 l 25,0 c 1.10801,0 2,-0.89199 2,-2 0,-0.173836 -0.02901,-0.339409 -0.07031,-0.5 C 32.707738,28.362997 31.934174,29 31,29 L 6,29 C 5.0658263,29 4.2922618,28.362997 4.0703125,27.5 Z m 6.9999995,8 C 11.02901,35.66059 11,35.826167 11,36 c 0,1.10799 0.89201,2 2,2 l 29,0 c 1.10799,0 2,-0.89201 2,-2 0,-0.173833 -0.02901,-0.33941 -0.07031,-0.5 C 43.707734,36.362989 42.934157,37 42,37 l -29,0 c -0.934157,0 -1.707734,-0.637011 -1.929688,-1.5 z"
     id="path36"
     style="opacity:0.1;fill:#172525" />
</svg>
