<?xml version="1.0" encoding="UTF-8" standalone="no"?>
<svg xmlns="http://www.w3.org/2000/svg" xmlns:xlink="http://www.w3.org/1999/xlink" width="48" height="48">
 <defs>
  <linearGradient id="0">
   <stop stop-color="#eff1f1"/>
   <stop offset="1" stop-color="#b0b8b8"/>
  </linearGradient>
  <linearGradient xlink:href="#0" id="1" y1="509.798" x2="0" y2="536.79797" gradientUnits="userSpaceOnUse"/>
  <linearGradient xlink:href="#0" id="2" x1="417.57144" y1="522.79797" x2="418.57144" y2="539.79797" gradientUnits="userSpaceOnUse"/>
  <linearGradient xlink:href="#4" id="3" y1="502.798" x2="0" y2="582.79797" gradientUnits="userSpaceOnUse" gradientTransform="matrix(1.0666667,0,0,1.0666667,-25.904809,-34.919942)"/>
  <linearGradient id="4">
   <stop stop-color="#f0ff01"/>
   <stop offset="1" stop-color="#ff9701"/>
  </linearGradient>
  <linearGradient xlink:href="#6" id="5" y1="507.798" x2="0" y2="547.79797" gradientUnits="userSpaceOnUse" gradientTransform="matrix(1.0196041,0,0,1.0196041,-6.6763524,-10.268618)"/>
  <linearGradient id="6">
   <stop stop-color="#faffa5"/>
   <stop offset="1" stop-color="#edf573"/>
  </linearGradient>
 </defs>
 <metadata/>
 <g transform="translate(-384.57143,-499.798)">
  <g transform="matrix(0.75000047,0,0,0.75000047,101.14267,130.94927)">
   <rect ry="21.333321" y="502.46466" x="388.57141" height="42.666668" width="42.666641" fill="url(#3)" rx="21.33332"/>
   <rect y="506.46466" x="392.57141" height="34.666634" width="34.666615" fill="url(#5)" rx="17.333307"/>
  </g>
  <rect width="22" height="12" x="406.57144" y="527.79797" fill="url(#2)" rx="6"/>
  <rect width="16" height="9" x="388.57144" y="509.798" fill="url(#1)" rx="4.5"/>
  <g fill="#172525">
   <path d="m 406.59684,533.298 c -0.0135,0.16523 -0.0254,0.33116 -0.0254,0.5 0,3.324 2.676,6 6,6 l 10,0 c 3.324,0 6,-2.676 6,-6 0,-0.16884 -0.0119,-0.33477 -0.0254,-0.5 -0.25307,3.08771 -2.81945,5.5 -5.97461,5.5 l -10,0 c -3.15516,0 -5.72154,-2.41229 -5.97461,-5.5 z" opacity="0.2"/>
   <path d="m 388.62223,513.798 c -0.0185,0.16647 -0.0508,0.32843 -0.0508,0.5 0,2.493 2.007,4.5 4.5,4.5 l 7,0 c 2.493,0 4.5,-2.007 4.5,-4.5 0,-0.17157 -0.0323,-0.33353 -0.0508,-0.5 -0.25053,2.25243 -2.12779,4 -4.44922,4 l -7,0 c -2.32143,0 -4.19869,-1.74757 -4.44922,-4 z" opacity="0.2"/>
  </g>
 </g>
</svg>
