<?xml version="1.0" encoding="UTF-8"?>
<svg id="svg76" width="48" height="48" version="1.1" xmlns="http://www.w3.org/2000/svg" xmlns:cc="http://creativecommons.org/ns#" xmlns:dc="http://purl.org/dc/elements/1.1/" xmlns:rdf="http://www.w3.org/1999/02/22-rdf-syntax-ns#" xmlns:xlink="http://www.w3.org/1999/xlink">
 <defs id="defs22">
  <linearGradient id="0" x2="0" y1="502.8" y2="582.8" gradientTransform="matrix(.93333 0 0 .93333 25.904 32.253)" gradientUnits="userSpaceOnUse" xlink:href="#1"/>
  <linearGradient id="1">
   <stop id="stop3" stop-color="#f0ff01" offset="0"/>
   <stop id="stop5" stop-color="#ff9701" offset="1"/>
  </linearGradient>
  <linearGradient id="2" x2="0" y1="507.8" y2="547.8" gradientTransform="matrix(.86274 0 0 .86274 54.746 69.229)" gradientUnits="userSpaceOnUse">
   <stop id="stop9" stop-color="#faffa5" offset="0"/>
   <stop id="stop11" stop-color="#edf573" offset="1"/>
  </linearGradient>
  <linearGradient id="4" x2="0" y1="511.8" y2="535.8" gradientTransform="translate(-1,-4)" gradientUnits="userSpaceOnUse">
   <stop id="stop15" stop-color="#6f8181" offset="0"/>
   <stop id="stop17" stop-color="#334545" offset="1"/>
  </linearGradient>
  <linearGradient id="6" x2="0" y1="529.8" y2="528.8" gradientUnits="userSpaceOnUse" xlink:href="#1"/>
  <linearGradient id="7" x2="0" y1="530.8" y2="529.8" gradientUnits="userSpaceOnUse" xlink:href="#1"/>
 </defs>
 <metadata id="metadata24">
  <rdf:RDF>
   <cc:Work rdf:about="">
    <dc:format>image/svg+xml</dc:format>
    <dc:type rdf:resource="http://purl.org/dc/dcmitype/StillImage"/>
   </cc:Work>
  </rdf:RDF>
 </metadata>
 <g id="g74" transform="translate(-384.57 -499.8)">
  <g id="g32" transform="matrix(.75 0 0 .75 97.143 126.95)">
   <rect id="rect28" x="388.57" y="502.46" width="37.333" height="37.333" rx="18.667" fill="url(#0)"/>
   <rect id="rect30" x="392.57" y="506.46" width="29.333" height="29.333" rx="14.667" fill="url(#2)"/>
  </g>
  <g id="g50" fill="#3b85b5">
   <path id="path34" d="m421.16 540.38a2 2 0 0 0 0 2.8284 2 2 0 0 0 2.8284 0 2 2 0 0 0 0-2.8284l-1.4142-1.4142-1.4142 1.4142z"/>
   <path id="path36" d="m415.16 540.38a2 2 0 0 0 0 2.8284 2 2 0 0 0 2.8284 0 2 2 0 0 0 0-2.8284l-1.4142-1.4142-1.4142 1.4142z"/>
   <path id="path38" d="m401.16 540.38a2 2 0 0 0 0 2.8284 2 2 0 0 0 2.8284 0 2 2 0 0 0 0-2.8284l-1.4142-1.4142-1.4142 1.4142z"/>
   <path id="path40" d="m395.16 540.38a2 2 0 0 0 0 2.8284 2 2 0 0 0 2.8284 0 2 2 0 0 0 0-2.8284l-1.4142-1.4142-1.4142 1.4142z"/>
   <path id="path42" d="m423.16 534.38a2 2 0 0 0 0 2.8284 2 2 0 0 0 2.8284 0 2 2 0 0 0 0-2.8284l-1.4142-1.4142-1.4142 1.4142z"/>
   <path id="path44" d="m417.16 534.38a2 2 0 0 0 0 2.8284 2 2 0 0 0 2.8284 0 2 2 0 0 0 0-2.8284l-1.4142-1.4142-1.4142 1.4142z"/>
   <path id="path46" d="m405.16 534.38a2 2 0 0 0 0 2.8284 2 2 0 0 0 2.8284 0 2 2 0 0 0 0-2.8284l-1.4142-1.4142-1.4142 1.4142z"/>
   <path id="path48" d="m399.16 534.38a2 2 0 0 0 0 2.8284 2 2 0 0 0 2.8284 0 2 2 0 0 0 0-2.8284l-1.4142-1.4142-1.4142 1.4142z"/>
  </g>
  <g id="g56" color="#f2f2f2">
   <path id="path52" d="m412.56 507.77a10.01 10.01 0 0 1 9.8497 8.2309 8.008 8.008 0 0 1 6.1663 7.7851 8.008 8.008 0 0 1-8.008 8.008h-18.018a6.006 6.006 0 0 1-6.006-6.006 6.006 6.006 0 0 1 6.006-6.006 6.006 6.006 0 0 1 0.21506 0.0121 10.01 10.01 0 0 1-0.21506-2.0137 10.01 10.01 0 0 1 10.01-10.01z" fill="url(#4)"/>
   <path id="path54" d="m402.57 517.26a10.01 10.01 0 0 0-0.0254 0.52344 10.01 10.01 0 0 0 0.0547 1.0059 6.006 6.006 0 0 1 0.16015 8e-3 10.01 10.01 0 0 1-0.18945-1.5371zm25.977 6.0215a8.008 8.008 0 0 1-7.9844 7.5156h-18.018a6.006 6.006 0 0 1-5.9824-5.4961 6.006 6.006 0 0 0-0.0234 0.49023 6.006 6.006 0 0 0 6.0059 6.0059h18.018a8.008 8.008 0 0 0 8.0078-8.0078 8.008 8.008 0 0 0-0.0234-0.50782z" fill="#172525" opacity=".4"/>
  </g>
  <g id="g64" fill="#f0ff01">
   <path id="path58" transform="translate(384.57 499.8)" d="m25.734 29.367 0.31641 0.94726 0.9082 2.7246-1.517 2.9705 1.0581 3.5744-2.3384 3.5769 1.7856 2.5227-0.8457-2.5371 2.8984-3.7324-1-3.291 1.4434-2.2383 0.55664 1.1152v2l1-2-2.0527-5.3164z" color="#000000" color-rendering="auto" image-rendering="auto" shape-rendering="auto" solid-color="#000000" isolation="auto" mix-blend-mode="normal" white-space="normal"/>
   <path id="path60" d="m404.57 529.8-2 2 1 2-1 2 1 3v-3l1.5-2-0.5-2 2-2z"/>
   <path id="path62" d="m417.57 530.8-1 1 1 1v-1l1-1z"/>
  </g>
  <rect id="rect66" x="408.57" y="528.8" width="7" height="2" rx="0" ry="1" fill="url(#6)"/>
  <g id="g72" fill="url(#7)">
   <rect id="rect68" x="416.57" y="529.8" width="3" height="1" rx="0" ry=".50001"/>
   <rect id="rect70" x="402.57" y="529.8" width="5" height="1" rx=".50001"/>
  </g>
 </g>
</svg>
