<?xml version="1.0" encoding="UTF-8" standalone="no"?>
<svg xmlns="http://www.w3.org/2000/svg" xmlns:xlink="http://www.w3.org/1999/xlink" width="48" height="48">
 <defs>
  <linearGradient id="0">
   <stop stop-color="#eff1f1"/>
   <stop offset="1" stop-color="#b0b8b8"/>
  </linearGradient>
  <linearGradient id="1">
   <stop stop-color="#6f8181"/>
   <stop offset="1" stop-color="#334545"/>
  </linearGradient>
  <linearGradient id="2">
   <stop stop-color="#b0b8b8"/>
   <stop offset="1" stop-color="#909c9c"/>
  </linearGradient>
  <linearGradient xlink:href="#2" id="3" y1="503.798" x2="0" y2="542.79797" gradientUnits="userSpaceOnUse" gradientTransform="matrix(0.50000078,0,0,0.50000078,194.28541,255.89861)"/>
  <linearGradient xlink:href="#1" id="4" y1="4" x2="0" y2="44" gradientUnits="userSpaceOnUse" gradientTransform="matrix(0.50000078,0,0,0.50000078,386.57142,505.798)"/>
  <linearGradient xlink:href="#0" id="5" y1="511.798" x2="0" y2="535.79797" gradientUnits="userSpaceOnUse" gradientTransform="translate(-1,4)"/>
 </defs>
 <metadata/>
 <g transform="translate(-384.57143,-499.798)">
  <g transform="matrix(1.5999963,0,0,1.5999963,-229.14138,-304.6769)">
   <rect y="507.798" x="388.57141" height="20.00003" width="20.00002" fill="url(#3)" rx="10.00001"/>
   <path d="m 396.1437,508.10464 c -2.26569,0.56207 -4.21677,1.88846 -5.57227,3.69727 l 0,0.4961 0,4.00001 2,0.5 2.5,4.5 3,-2 -0.5,-2.5 -1,-2.00001 2.5,-1 2.50001,-1.5 -1,-2.50001 -4.50001,0.5 -0.5,-1 3,-0.5 z m 6.92775,3.69336 -1.50001,2.00001 1.50001,2.00001 -0.50001,2.5 1.50001,4 0.5,-1.5 0,-2.5 1,1.5 0,3 2.5,-3 z m -8.50002,0.50001 0.5,1.5 -1.5,1.50001 -0.5,-1.50001 z m 13.00002,3.00001 -0.5,1 0.5,1.5 0.5,-1 z m -16.00002,3.5 0,1.5 1.5,0.5 0.5,-1.5 z" opacity="0.614" fill="url(#4)"/>
   <path d="M 4.0253906,22.5 C 4.019903,22.667563 4,22.831055 4,23 4,31.31 10.69,38 19,38 27.31,38 34,31.31 34,23 34,22.831055 33.9801,22.667563 33.97461,22.5 33.710173,30.574471 27.141055,37 19,37 10.858945,37 4.2898271,30.574471 4.0253906,22.5 Z" transform="matrix(0.66666724,0,0,0.66666724,385.90474,502.46465)" opacity="0.2"/>
  </g>
  <g color="#f2f2f2">
   <path d="m 412.55537,515.77391 a 10.010037,10.010037 0 0 1 9.84972,8.23092 8.0080333,8.0080333 0 0 1 6.16634,7.78514 8.0080333,8.0080333 0 0 1 -8.00803,8.00803 l -18.01807,0 a 6.0060179,6.0060179 0 0 1 -6.00602,-6.00602 6.0060179,6.0060179 0 0 1 6.00602,-6.00603 6.0060179,6.0060179 0 0 1 0.21506,0.0121 10.010037,10.010037 0 0 1 -0.21506,-2.01373 10.010037,10.010037 0 0 1 10.01004,-10.01004 z" fill="url(#5)"/>
   <path d="M 18 25.462891 A 10.010037 10.010037 0 0 0 17.974609 25.986328 A 10.010037 10.010037 0 0 0 18.029297 26.992188 A 6.0060179 6.0060179 0 0 1 18.189453 27 A 10.010037 10.010037 0 0 1 18 25.462891 z M 43.976562 31.484375 A 8.0080333 8.0080333 0 0 1 35.992188 39 L 17.974609 39 A 6.0060179 6.0060179 0 0 1 11.992188 33.503906 A 6.0060179 6.0060179 0 0 0 11.96875 33.994141 A 6.0060179 6.0060179 0 0 0 17.974609 40 L 35.992188 40 A 8.0080333 8.0080333 0 0 0 44 31.992188 A 8.0080333 8.0080333 0 0 0 43.976562 31.484375 z " transform="translate(384.57143,499.798)" opacity="0.2" fill="#172525"/>
  </g>
 </g>
</svg>
