<?xml version="1.0" encoding="UTF-8" standalone="no"?>
<svg xmlns="http://www.w3.org/2000/svg" xmlns:xlink="http://www.w3.org/1999/xlink" width="48" height="48">
 <defs>
  <linearGradient id="0">
   <stop stop-color="#abdaf9"/>
   <stop offset="1" stop-color="#e1f2ff"/>
  </linearGradient>
  <linearGradient id="1">
   <stop stop-color="#eff1f1"/>
   <stop offset="1" stop-color="#b0b8b8"/>
  </linearGradient>
  <linearGradient xlink:href="#1" id="2" y1="511.798" x2="0" y2="535.79797" gradientUnits="userSpaceOnUse" gradientTransform="translate(-5,-4)"/>
  <linearGradient xlink:href="#0" id="3" y1="538.79797" x2="0" y2="532.79797" gradientUnits="userSpaceOnUse" gradientTransform="translate(4,0)"/>
  <linearGradient gradientTransform="translate(-4.0000235,4)" xlink:href="#0" id="4" y1="538.79797" x2="0" y2="532.79797" gradientUnits="userSpaceOnUse"/>
 </defs>
 <metadata/>
 <g transform="translate(-384.57143,-499.798)">
  <path d="m 408.55537,507.77391 a 10.010037,10.010037 0 0 1 9.84972,8.23092 8.0080333,8.0080333 0 0 1 6.16634,7.78514 8.0080333,8.0080333 0 0 1 -8.00803,8.00803 l -18.01807,0 a 6.0060179,6.0060179 0 0 1 -6.00602,-6.00602 6.0060179,6.0060179 0 0 1 6.00602,-6.00603 6.0060179,6.0060179 0 0 1 0.21506,0.0121 10.010037,10.010037 0 0 1 -0.21506,-2.01373 10.010037,10.010037 0 0 1 10.01004,-10.01004 z" fill="url(#2)" color="#f2f2f2"/>
  <g fill="url(#3)">
   <path d="m 400.57144,532.79797 1.11802,1.06354 1.48006,0.43646 -0.36204,1.5 0.36204,1.5 -1.48006,0.43647 -1.11802,1.06353 -1.11802,-1.06353 -1.48005,-0.43647 0.36203,-1.5 -0.36203,-1.5 1.48005,-0.43646 z"/>
   <path d="m 416.57144,532.79797 1.11802,1.06354 1.48006,0.43646 -0.36204,1.5 0.36204,1.5 -1.48006,0.43647 -1.11802,1.06353 -1.11802,-1.06353 -1.48005,-0.43647 0.36203,-1.5 -0.36203,-1.5 1.48005,-0.43646 z"/>
  </g>
  <g fill="url(#4)">
   <path d="m 392.57144,536.79797 1.11802,1.06354 1.48006,0.43646 -0.36204,1.5 0.36204,1.5 -1.48006,0.43647 -1.11802,1.06353 -1.11802,-1.06353 -1.48005,-0.43647 0.36203,-1.5 -0.36203,-1.5 1.48005,-0.43646 z"/>
   <path d="m 408.57144,536.79797 1.11802,1.06354 1.48006,0.43646 -0.36204,1.5 0.36204,1.5 -1.48006,0.43647 -1.11802,1.06353 -1.11802,-1.06353 -1.48005,-0.43647 0.36203,-1.5 -0.36203,-1.5 1.48005,-0.43646 z"/>
  </g>
  <path d="m 398.57139,517.26089 a 10.010037,10.010037 0 0 0 -0.0254,0.52344 10.010037,10.010037 0 0 0 0.0547,1.00586 6.0060179,6.0060179 0 0 1 0.16015,0.008 10.010037,10.010037 0 0 1 -0.18945,-1.53711 z m 25.97656,6.02148 a 8.0080333,8.0080333 0 0 1 -7.98437,7.51563 l -18.01758,0 a 6.0060179,6.0060179 0 0 1 -5.98242,-5.49609 6.0060179,6.0060179 0 0 0 -0.0234,0.49023 6.0060179,6.0060179 0 0 0 6.00586,6.00586 l 18.01758,0 a 8.0080333,8.0080333 0 0 0 8.00781,-8.00781 8.0080333,8.0080333 0 0 0 -0.0234,-0.50782 z" opacity="0.2" fill="#172525" color="#f2f2f2"/>
 </g>
</svg>
