<svg width="22" height="22" viewBox="0 0 22 22" fill="none" xmlns="http://www.w3.org/2000/svg">
<path fill-rule="evenodd" clip-rule="evenodd" d="M11 22C4.92487 22 0 17.0751 0 11C0 4.92487 4.92487 0 11 0C17.0751 0 22 4.92487 22 11C22 17.0751 17.0751 22 11 22ZM11 20C15.9706 20 20 15.9706 20 11C20 6.02944 15.9706 2 11 2C6.02944 2 2 6.02944 2 11C2 15.9706 6.02944 20 11 20ZM15.9106 14.4484L14.2747 13.2978C13.5293 14.3576 12.3195 15 11 15C9.6805 15 8.4707 14.3576 7.72535 13.2978L6.08944 14.4484C7.20545 16.0352 9.02245 17 11 17C12.9776 17 14.7945 16.0352 15.9106 14.4484ZM13 10V8H15V10H13ZM7 8V10H9V8H7Z" fill="#A9ABB0"/>
</svg>
