<svg viewBox="0 0 16 16" xmlns="http://www.w3.org/2000/svg"><style type="text/css" id="current-color-scheme">.ColorScheme-Text{color:#eff0f1;}.ColorScheme-NegativeText{color:#da4453;}</style><path d="m8 2-4 4v4l4 4h1v-12zm-6 4v4h1v-4z" style="fill:currentColor;fill-opacity:1;stroke:none" class="ColorScheme-Text"/><path d="m12.986329 4.9999784a3.0000002 3.0000002 0 0 1 1.736328.55664l.0019-.00191.01176.011724a3.0000002 3.0000002 0 0 1 .677712.6777331l.01758.01758-.0038.0039a3.0000002 3.0000002 0 0 1 .55852 1.7343761 3.0000002 3.0000002 0 0 1 -3 2.9999994 3.0000002 3.0000002 0 0 1 -1.736328-.55664l-.0019.0019-.01164-.01164a3.0000002 3.0000002 0 0 1 -.677914-.6777584l-.01758-.01758.0038-.0039a3.0000002 3.0000002 0 0 1 -.558478-1.7344241 3.0000002 3.0000002 0 0 1 3-3.0000001zm0 1.0000002a2.0000002 2.0000002 0 0 0 -1.999999 1.9999999 2.0000002 2.0000002 0 0 0 .279295 1.0136722l2.734375-2.7343763a2.0000002 2.0000002 0 0 0 -1.013671-.2792958zm1.720703.986328-2.734374 2.7343752a2.0000002 2.0000002 0 0 0 1.013671.279297 2.0000002 2.0000002 0 0 0 1.999999-2.0000003 2.0000002 2.0000002 0 0 0 -.279296-1.0136719z" style="fill:currentColor;fill-opacity:1;stroke:none" class="ColorScheme-NegativeText"/></svg>