<svg viewBox="0 0 16 16" xmlns="http://www.w3.org/2000/svg"><style type="text/css" id="current-color-scheme">.ColorScheme-Text{color:#eff0f1;}.ColorScheme-NegativeText{color:#da4453;}</style><path d="m5 2c-1.108 0-2 .892-2 2v4c0 1.108.892 2 2 2s2-.892 2-2v-4c0-1.108-.892-2-2-2zm-4 5v1c0 1.847 1.286 3.405469 3 3.855469v1.144531h-1v1h4v-1h-1v-1.144531c1.0665924-.28065 1.9657742-.990817 2.4941406-1.9316409a4 4 0 0 1 -.4941406-1.9238281c0 1.645-1.355 3-3 3s-3-1.355-3-3v-1z" style="fill:currentColor;fill-opacity:1;stroke:none" class="ColorScheme-Text"/><path d="m12 4.9999785a3.0000002 3.0000002 0 0 1 1.736328.55664l.0019-.00191.01176.011724a3.0000002 3.0000002 0 0 1 .677712.6777331l.01758.01758-.0038.0039a3.0000002 3.0000002 0 0 1 .55852 1.7343761 3.0000002 3.0000002 0 0 1 -3 2.9999993 3.0000002 3.0000002 0 0 1 -1.736328-.55664l-.0019.0019-.01164-.01164a3.0000002 3.0000002 0 0 1 -.6779144-.6777585l-.01758-.01758.00384-.0039a3.0000002 3.0000002 0 0 1 -.5584776-1.7344239 3.0000002 3.0000002 0 0 1 3-3.0000001zm0 1.0000002a2.0000002 2.0000002 0 0 0 -1.999999 1.9999999 2.0000002 2.0000002 0 0 0 .279295 1.0136719l2.734375-2.734376a2.0000002 2.0000002 0 0 0 -1.013671-.2792958zm1.720703.986328-2.734374 2.7343748a2.0000002 2.0000002 0 0 0 1.013671.279297 2.0000002 2.0000002 0 0 0 1.999999-1.9999999 2.0000002 2.0000002 0 0 0 -.279296-1.0136719z" style="fill:currentColor;fill-opacity:1;stroke:none" class="ColorScheme-NegativeText"/></svg>