<svg height="24" viewBox="0 0 24 24" width="24" xmlns="http://www.w3.org/2000/svg"><style type="text/css" id="current-color-scheme">.ColorScheme-Text{color:#eff0f1;}.ColorScheme-NegativeText{color:#da4453;}</style><path d="m18 8a4 4 0 0 0 -4 4 4 4 0 0 0 .84375 2.449219l-.0039.0039.0332.0332a4 4 0 0 0 .662109.66211l.01172.01172.002-.002a4 4 0 0 0 2.451121.841851 4 4 0 0 0 4-4 4 4 0 0 0 -.84375-2.449219l.0039-.0039-.0332-.0332a4 4 0 0 0 -.662106-.6621185l-.01172-.011719-.002.00195a4 4 0 0 0 -2.451124-.8417935zm0 1a3 3 0 0 1 1.736328.556641l-4.177734 4.177734a3 3 0 0 1 -.558594-1.734375 3 3 0 0 1 3-3zm2.441406 1.265625a3 3 0 0 1 .558594 1.734375 3 3 0 0 1 -3 3 3 3 0 0 1 -1.736328-.556641z" style="fill:currentColor;fill-opacity:1;stroke:none" class="ColorScheme-NegativeText"/><path d="m11.988281 4-4.988281 4.9902344v.0097656 1 4 1 .0098l4.988281 4.9902h1.011719v-.402344-15.1953122-.4023438zm-7.988281 5v1 4 1h2v-1-4-1z" style="fill:currentColor;fill-opacity:1;stroke:none" class="ColorScheme-Text"/></svg>