<svg xmlns="http://www.w3.org/2000/svg" viewBox="0 0 24 24">
  <defs id="defs3051">
    <style type="text/css" id="current-color-scheme">
      .ColorScheme-Text {
        color:#eff0f1;
      }
      </style>
  </defs>
 <path style="fill:currentColor;fill-opacity:1;stroke:none" 
     d="M 12 4 L 11.292969 4.7070312 L 4 12 L 4.7070312 12.707031 L 5 12.414062 L 5 20 L 6 20 L 11 20 L 14 20 L 19 20 L 19 19 L 19 12.414062 L 19.292969 12.707031 L 20 12 L 17 9 L 17 6 L 14 6 L 12.707031 4.7070312 L 12 4 z M 12 5.4140625 L 18 11.414062 L 18 19 L 14 19 L 14 14 L 11 14 L 10 14 L 10 19 L 6 19 L 6 11.414062 L 12 5.4140625 z "
     class="ColorScheme-Text"
     />
</svg>
