<svg xmlns="http://www.w3.org/2000/svg" viewBox="0 0 24 24">
  <defs id="defs3051">
    <style type="text/css" id="current-color-scheme">
      .ColorScheme-Text {
        color:#eff0f1;
      }
      </style>
  </defs>
 <path style="fill:currentColor;fill-opacity:1;stroke:none" 
     d="M 19.292969,4 4,19.292969 4.7070312,20 20,4.7070312 19.292969,4 Z M 12,7 a 10,9.9999781 0 0 0 -8.7128906,5.119141 c 0.1792605,0.3011 0.433889,0.549503 0.7402344,0.720703 A 9,8.99998 0 0 1 12,8 4,4 0 0 0 8,12 4,4 0 0 0 8.3574219,13.642578 L 9.1308594,12.869141 A 3,3 0 0 1 9,12 3,3 0 0 1 12,9 3,3 0 0 1 12.869141,9.1308594 L 13.640625,8.359375 A 4,4 0 0 0 12.34375,8.0175781 9,8.99998 0 0 1 13.796875,8.203125 l 0.84375,-0.84375 A 10,9.9999781 0 0 0 12,7 Z m 5.404297,1.5957031 -0.728516,0.7285157 a 9,8.99998 0 0 1 3.298828,3.5136722 c 0.308133,-0.1728 0.565109,-0.422463 0.744141,-0.726563 A 10,9.9999781 0 0 0 17.404297,8.5957031 Z M 12,10 a 2,2 0 0 0 -2,2 l 2,-2 z m 3.642578,0.357422 -0.773437,0.773437 A 3,3 0 0 1 15,12 3,3 0 0 1 12,15 3,3 0 0 1 11.130859,14.869141 l -0.773437,0.773437 A 4,4 0 0 0 12,16 4,4 0 0 0 16,12 4,4 0 0 0 15.642578,10.357422 Z M 14,12 12,14 a 2,2 0 0 0 2,-2 z M 2,14 c -0.6666667,6 -0.3333333,3 0,0 z"
     class="ColorScheme-Text"
     />
</svg>
