<svg xmlns="http://www.w3.org/2000/svg" viewBox="0 0 24 24">
  <defs id="defs3051">
    <style type="text/css" id="current-color-scheme">
      .ColorScheme-Text {
        color:#eff0f1;
      }
      </style>
  </defs>
 <path style="fill:currentColor;fill-opacity:1;stroke:none" 
     d="M 4 4 L 4 6 L 5 6 L 5 5 L 6 5 L 6 4 L 4 4 z M 8 4 L 8 5 L 9 5 L 9 6 L 10 6 L 10 4 L 8 4 z M 13 4 L 13 5 L 19 5 L 19 11 L 19 13 L 19 19 L 13 19 L 13 20 L 20 20 L 20 19 L 20 13 L 20 11 L 20 4 L 19 4 L 13 4 z M 4 8 L 4 10 L 6 10 L 6 9 L 5 9 L 5 8 L 4 8 z M 9 8 L 9 9 L 8 9 L 8 10 L 10 10 L 10 8 L 9 8 z M 6.828125 13.669922 L 4.7070312 15.791016 L 4 16.498047 L 6.828125 19.328125 L 7.5351562 18.621094 L 5.9140625 16.998047 L 10.570312 16.998047 L 10.570312 15.998047 L 5.9140625 15.998047 L 7.5351562 14.376953 L 6.828125 13.669922 z "
     class="ColorScheme-Text"
     />
</svg>
