<svg width="16" xmlns="http://www.w3.org/2000/svg" height="16" viewBox="0 0 16 16">
 <path fill="#22a7f0" color="#000000" stroke-width="1.4" d="m3.74 2l-.334.943 6.854 2.057h-9.26v9h14v-9h-.99l-1.865-.479zm-1.74 4h12v7h-12zm1 1v1h4v-1zm7.5 0a2.499805 2.499805 0 0 0 -2.5 2.5 2.499805 2.499805 0 0 0 2.5 2.5 2.499805 2.499805 0 0 0 2.5 -2.5 2.499805 2.499805 0 0 0 -2.5 -2.5m.048828 1.019531a1.480529 1.480529 0 0 1 1.480469 1.480469 1.480529 1.480529 0 0 1 -1.480469 1.480469 1.480529 1.480529 0 0 1 -1.478516 -1.480469 1.480529 1.480529 0 0 1 1.478516 -1.480469m-7.549.98v1h4v-1zm0 2v1h4v-1z"/>
</svg>
